<svg xmlns="http://www.w3.org/2000/svg" width="285" height="97" viewBox="0 0 285 97">
  <g fill="none" fill-rule="evenodd" transform="translate(-3 -8)">
    <g transform="translate(8.052 52.525)">
      <path fill="#212446" d="M131.588243,6.08059569 C135.665213,6.08059569 140.05987,6.72754767 144.847392,8.17505101 L145.534005,8.38729971 L145.534005,17.0256783 L142.955357,17.0256783 C139.943061,12.2856078 135.945794,9.18563499 130.978084,9.18563499 C127.143526,9.18563499 124.702164,11.3142878 124.702164,14.2419997 C124.702164,18.1439267 128.538175,19.4742442 135.249196,22.2246287 C144.226521,25.9492283 149.192052,28.0511011 149.192052,36.4166125 C149.192052,46.2130477 141.089288,52.2935687 129.583435,52.2935687 C124.135588,52.2935687 118.607823,51.1452554 112.921359,48.9284156 L112.238217,48.657271 L112.238217,35.4735202 L115.021703,35.4735202 C117.746353,44.3970702 122.862245,49.1892532 129.583435,49.1892532 C133.418719,49.1892532 135.597132,47.2379278 135.597132,44.0445867 C135.597132,39.1662732 132.024797,37.8359557 125.835316,35.2636224 C117.032322,31.6258771 112.238217,28.7879146 112.238217,21.3372678 C112.238217,12.2009249 119.647289,6.08059569 131.588243,6.08059569 Z M261.612515,7.29814747 C272.387758,7.29814747 279.667326,14.2114298 279.826015,25.3709875 L279.828663,25.7445418 L255.162264,25.7445418 C255.5102,36.0888825 262.919272,43.1566468 271.374331,43.1566468 C273.567484,43.1566468 275.488464,42.6527119 277.197224,41.5929474 L277.515144,41.3877153 L279.653605,43.5026162 C274.772334,49.2776998 268.409975,52.2937135 261.350292,52.2937135 C254.900041,52.2937135 249.060676,49.6214979 244.963895,44.7938493 C241.564438,40.8296768 239.909019,36.0027521 239.909019,30.4860598 C239.909019,24.8832372 241.477273,19.9694582 244.876729,15.4870553 C248.44979,10.6601306 255.162264,7.29814747 261.612515,7.29814747 Z M193.628905,6.8984008 C194.353832,6.52565133 195.218224,7.04967194 195.218224,7.86320672 L195.218224,7.86320672 L195.218224,42.1214166 C195.218224,46.7442338 196.769771,48.7310247 200.797142,48.6448942 L200.797142,48.6448942 L200.797142,51.0746418 L180.313641,51.0746418 L180.313641,45.8293691 C177.00135,50.5325265 172.295137,52.2934964 166.279987,52.2934964 C157.389827,52.2934964 152.857945,47.3196432 152.857945,37.3719369 L152.857945,37.3719369 L152.855766,20.5345175 C152.853587,19.5755018 152.330593,18.6997215 151.503973,18.2705168 L151.503973,18.2705168 L147.972316,17.0256059 L167.654297,6.8984008 C168.37995,6.52565133 169.243616,7.04967194 169.243616,7.86320672 L169.243616,7.86320672 L169.243616,36.8290978 C169.243616,42.6172096 170.290329,45.3299572 174.212052,45.3299572 C177.78584,45.3299572 178.918992,42.5267364 178.918992,36.8290978 L178.918992,36.8290978 L178.830374,20.5345175 C178.828195,19.5755018 178.305201,18.6997215 177.478581,18.2705168 L177.478581,18.2705168 L173.946197,17.0256059 Z M54.011846,0.000291807562 L54.011846,2.4322107 C48.5204162,2.7789039 47.2136593,4.51671261 47.2136593,9.90095209 L47.2136593,41.1764424 C47.2136593,46.5614056 48.5204162,48.2984906 54.011846,48.6459075 L54.011846,51.0778264 L21.2390513,51.0778264 L21.2390513,48.6459075 C26.7297547,48.2984906 28.0372379,46.5614056 28.0372379,41.1764424 L28.0372379,9.90095209 C28.0372379,4.51671261 26.7297547,2.7789039 21.2390513,2.4322107 L21.2390513,0.000291807562 L54.011846,0.000291807562 Z M233.922271,6.43705999 C238.106218,6.43705999 240.895515,9.19974881 240.895515,13.387571 C240.895515,17.0405159 238.629211,19.4463785 235.05615,19.4463785 C230.959369,19.4463785 229.477554,15.5263569 227.733517,15.5263569 C225.342006,15.5263569 225.132189,18.6580104 225.119928,25.1029297 L225.119277,42.2557511 C225.119277,46.8025709 226.752905,48.6576329 231.130794,48.5801878 C231.131521,48.5809116 231.132247,48.5816354 231.132974,48.5823592 L231.132974,51.0779712 L203.24145,51.0779712 L203.24145,48.5823592 C203.242176,48.5816354 203.242902,48.5809116 203.244355,48.579464 C207.275762,48.6641469 208.732879,46.8098088 208.732879,42.2557511 L208.732879,25.8612884 C208.732879,23.4561495 208.471383,22.2973691 206.292244,20.7824863 L200.818247,17.0260402 L222.43022,6.81559975 C223.152967,6.47469683 223.986125,6.99944124 223.986125,7.79705273 L223.986125,13.7436735 C226.775422,8.93194822 230.087713,6.43705999 233.922271,6.43705999 Z M90.4479909,7.32297331 C99.7739786,7.32297331 104.306587,12.0485681 104.306587,21.7624917 L104.306587,42.4135363 C104.306587,46.88653 105.763705,48.7068503 109.794385,48.6243387 C109.795838,48.6250625 109.796564,48.6257863 109.797291,48.6265101 L109.797291,51.0779712 L87.9194635,51.0779712 L87.9194635,22.1989343 C87.9194635,16.5990068 86.8742033,13.9738372 82.9510271,13.9738372 C79.3772395,13.9738372 78.3319792,16.685861 78.3319792,22.1989343 L78.3319792,42.4135363 C78.3319792,46.7019648 79.726628,48.5396558 83.3875812,48.6265101 L83.3875812,51.0779712 L56.4541521,51.0779712 L56.4541521,48.6265101 C56.4548785,48.6257863 56.4556049,48.6250625 56.4570576,48.6243387 C60.4884644,48.7068503 61.9455819,46.88653 61.9455819,42.4135363 L61.9455819,25.7766055 C61.9455819,23.41417 61.6840852,22.2763794 59.5049464,20.7882766 L54.0120639,17.0260402 L75.3320315,7.94325738 C76.0511473,7.63709616 76.8501648,8.16328814 76.8501648,8.94208121 L76.8501648,14.1482695 C80.2496213,9.59783077 84.78223,7.32297331 90.4479909,7.32297331 Z M261.960451,10.4878697 C257.159201,10.4878697 255.14158,14.3245352 255.076718,22.3243431 L255.075099,22.7278043 L259.614638,22.7273133 C265.257244,22.716432 267.451881,22.4811682 267.451881,17.98701 C267.451881,12.9871006 265.621404,10.4878697 261.960451,10.4878697 Z"/>
      <g transform="translate(-5.125 28.451)">
        <path fill="#212446" d="M13.1313403,-8.8817842e-15 C20.3835313,-8.8817842e-15 26.2626806,5.87914923 26.2626806,13.1313403 L22.615086,13.1313403 L22.615086,13.1313403 C22.615086,7.89343691 18.3692437,3.64759452 13.1313403,3.64759452 C7.89343691,3.64759452 3.64759452,7.89343691 3.64759452,13.1313403 L4.36983782e-13,13.1313403 C4.36983782e-13,5.87914923 5.87914923,-8.8817842e-15 13.1313403,-8.8817842e-15 Z"/>
        <path fill="#FB7269" fill-opacity=".5" d="M22.615086,13.1313403 C22.615086,7.89343691 18.3692437,3.64759452 13.1313403,3.64759452 C7.89343691,3.64759452 3.64759452,7.89343691 3.64759452,13.1313403 C3.64759452,18.3692437 7.89343691,22.615086 13.1313403,22.615086 C18.3692437,22.615086 22.615086,18.3692437 22.615086,13.1313403 Z"/>
        <path fill="#FB7269" d="M22.615086,13.1313403 C22.615086,7.89343691 18.3692437,3.64759452 13.1313403,3.64759452 C7.89343691,3.64759452 3.64759452,7.89343691 3.64759452,13.1313403 L22.615086,13.1313403 Z"/>
      </g>
    </g>
    <path fill="#FB7269" d="M21.1257879,27.0435576 L21.1257879,31.7613564 L0,31.7613564 L0,1.85326983 L21.1257879,1.85326983 L21.1257879,6.57106858 L5.12289176,6.57106858 L5.12289176,14.2375828 L20.4057823,14.2375828 L20.4057823,18.9553815 L5.12289176,18.9553815 L5.12289176,27.0435576 L21.1257879,27.0435576 Z M34.1824531,25.826793 L40.2658413,9.89920678 L45.4730514,9.89920678 L36.4971761,31.7614293 L31.7562833,31.7614293 L22.8229337,9.89920678 L28.1577212,9.89920678 L34.1824531,25.826793 Z M57.3334953,13.4794667 C55.7527089,13.4794667 54.4402749,13.9427112 53.3961934,14.8699297 C52.3513786,15.7964187 51.7024937,17.0322238 51.4488053,18.5766153 L63.1331338,18.5766153 C62.9073072,17.0322238 62.2870171,15.7964187 61.2707973,14.8699297 C60.2545775,13.9427112 58.9421435,13.4794667 57.3334953,13.4794667 Z M68.0866556,22.2833008 L51.3637537,22.2833008 C51.5609854,24.025392 52.1959395,25.4078303 53.2693492,26.4328044 C54.3412925,27.458508 55.7527089,27.9699007 57.5028653,27.9699007 C58.6598602,27.9699007 59.7039417,27.6897655 60.6358432,27.1273064 C61.5670114,26.5655768 62.2298273,25.8076067 62.6257571,24.8526664 L67.7053898,24.8526664 C67.0286432,27.0718629 65.7653338,28.8613728 63.9169282,30.2233846 C62.0677893,31.5861259 59.8872426,32.2667671 57.3760211,32.2667671 C54.101535,32.2667671 51.4554041,31.18562 49.4376285,29.023326 C47.4191197,26.861032 46.4109651,24.1231475 46.4109651,20.8089431 C46.4109651,17.5800925 47.4264518,14.8699297 49.4588914,12.6791845 C51.4905979,10.4884392 54.1161991,9.39343132 57.3334953,9.39343132 C60.5507916,9.39343132 63.1543967,10.4680127 65.1443106,12.6157163 C67.1342244,14.7641495 68.1291814,17.467017 68.1291814,20.7250485 L68.0866556,22.2833008 Z M82.8403932,9.73068791 L82.8403932,14.4061746 C82.4444634,14.3507311 82.0639309,14.3215504 81.6973292,14.3215504 C77.9147332,14.3215504 76.0245349,16.3437768 76.0245349,20.3875001 L76.0245349,31.7614293 L70.9866948,31.7614293 L70.9866948,9.89847726 L75.6432692,9.89847726 L75.6432692,12.9318169 C76.8845825,10.7695228 79.0438663,9.68837581 82.1203875,9.68837581 L82.8403932,9.73068791 Z M89.8930029,40.9244056 L93.7034606,31.3910526 L84.9365483,9.89869611 L90.3138616,9.89869611 L96.1442946,25.3141601 L102.33693,9.89869611 L107.586666,9.89869611 L94.8883172,40.9244056 L89.8930029,40.9244056 Z M146.363151,31.7610646 L146.363151,9.89884202 L151.400991,9.89884202 L151.400991,31.7610646 L146.363151,31.7610646 Z M148.903701,6.23446856 C147.972533,6.23446856 147.210734,5.94630859 146.617573,5.37071818 C146.024411,4.79585728 145.72893,4.05831367 145.72893,3.15954638 C145.72893,2.23232785 146.024411,1.47435771 146.617573,0.884906431 C147.210734,0.294725638 147.972533,-3.55271368e-15 148.903701,-3.55271368e-15 C149.807007,-3.55271368e-15 150.554875,0.294725638 151.147303,0.884906431 C151.739731,1.47435771 152.036679,2.23232785 152.036679,3.15954638 C152.036679,4.05831367 151.739731,4.79585728 151.147303,5.37071818 C150.554875,5.94630859 149.807007,6.23446856 148.903701,6.23446856 Z M159.489471,9.89884202 L159.489471,12.8052453 C159.996847,11.8510346 160.836365,11.0434572 162.008757,10.3839721 C163.17895,9.72375748 164.596965,9.39401494 166.262803,9.39401494 C168.859076,9.39401494 170.870253,10.1804363 172.296334,11.7525496 C173.720948,13.3253923 174.433621,15.416923 174.433621,18.0293302 L174.433621,31.7610646 L169.395781,31.7610646 L169.395781,18.6603641 C169.395781,17.1167021 169.036511,15.9020531 168.316506,15.0171467 C167.597233,14.1329697 166.502561,13.6901518 165.034688,13.6901518 C163.426773,13.6901518 162.16273,14.1679866 161.246226,15.1221974 C160.328989,16.0771376 159.870003,17.3968373 159.870003,19.082026 L159.870003,31.7610646 L154.832163,31.7610646 L154.832163,9.89884202 L159.489471,9.89884202 Z M194.170942,20.4298122 C194.170942,18.49221 193.605642,16.9055063 192.477242,15.6697013 C191.348109,14.4346258 189.866305,13.8167233 188.03183,13.8167233 C186.225951,13.8167233 184.758078,14.4346258 183.629678,15.6697013 C182.500544,16.9055063 181.935978,18.49221 181.935978,20.4298122 C181.935978,22.3396927 182.500544,23.9198306 183.629678,25.168767 C184.758078,26.4184329 186.225951,27.0436306 188.03183,27.0436306 C189.866305,27.0436306 191.348109,26.4184329 192.477242,25.168767 C193.605642,23.9198306 194.170942,22.3396927 194.170942,20.4298122 Z M194.340312,13.0164411 L194.340312,9.89847726 L198.99762,9.89847726 L198.99762,30.8349403 C198.99762,33.8106479 198.072317,36.2472411 196.224645,38.1432607 C194.375506,40.0385508 191.800496,40.9861959 188.498148,40.9861959 C185.478083,40.9861959 183.114236,40.2136353 181.406605,38.6692438 C179.698241,37.1248523 178.703284,35.355769 178.421734,33.3619938 L183.459574,33.3619938 C184.080598,35.5797313 185.788228,36.6893295 188.582466,36.6893295 C190.276166,36.6893295 191.595199,36.2195193 192.541031,35.27844 C193.48613,34.3373606 193.959046,33.081129 193.959046,31.5082863 L193.959046,28.0963263 C192.491173,30.3432446 190.177183,31.4659742 187.016344,31.4659742 C183.967684,31.4659742 181.518785,30.4067127 179.671113,28.2860013 C177.821974,26.1660193 176.897405,23.5470464 176.897405,20.4298122 C176.897405,17.3125779 177.821974,14.6943345 179.671113,12.5736231 C181.518785,10.4536411 183.967684,9.39365018 187.016344,9.39365018 C190.374415,9.39365018 192.815982,10.601004 194.340312,13.0164411 Z M140.794985,11.7521848 C142.219599,13.3257571 142.933006,15.4172878 142.933006,18.0289655 L142.933006,31.7614293 L137.895166,31.7614293 L137.895166,18.6607288 C137.895166,17.1170668 137.535163,15.9016883 136.815157,15.0175114 C136.095885,14.132605 135.001945,13.689787 133.534072,13.689787 C131.925424,13.689787 130.662115,14.1683514 129.745611,15.1225621 C128.82764,16.0775024 128.369388,17.4117925 128.369388,19.1239733 L128.369388,31.7614293 L123.331548,31.7614293 L123.331548,2.31512824 L128.369388,0.171801702 L128.369388,12.2577414 C129.695753,10.3485904 131.826442,9.39365018 134.762188,9.39365018 C137.358461,9.39365018 139.369638,10.1800716 140.794985,11.7521848 Z M115.203402,5.77209948 L115.203402,9.89898792 L119.99342,9.89898792 L119.99342,13.9011286 L115.203402,13.9011286 L115.203402,24.9372906 C115.203402,26.650201 116.007726,27.5066562 117.6589,27.5066562 C118.586402,27.5066562 119.908368,27.1681594 119.908368,27.1681594 L119.908368,31.3935329 C118.884816,31.7612105 118.125218,31.8874172 116.600155,31.8874172 C112.310182,31.8874172 110.165562,29.7389841 110.165562,25.4428472 L110.165562,7.91542602 L115.203402,5.77209948 Z" transform="translate(36.094 8.17)"/>
  </g>
</svg>
