<svg xmlns="http://www.w3.org/2000/svg" width="285" height="97" viewBox="0 0 285 97">
  <g fill="none" fill-rule="evenodd" transform="translate(-3 -8)">
    <g transform="translate(8.052 52.525)">
      <path fill="#212446" d="M131.588243,6.08059569 C135.665213,6.08059569 140.05987,6.72754767 144.847392,8.17505101 L145.534005,8.38729971 L145.534005,17.0256783 L142.955357,17.0256783 C139.943061,12.2856078 135.945794,9.18563499 130.978084,9.18563499 C127.143526,9.18563499 124.702164,11.3142878 124.702164,14.2419997 C124.702164,18.1439267 128.538175,19.4742442 135.249196,22.2246287 C144.226521,25.9492283 149.192052,28.0511011 149.192052,36.4166125 C149.192052,46.2130477 141.089288,52.2935687 129.583435,52.2935687 C124.135588,52.2935687 118.607823,51.1452554 112.921359,48.9284156 L112.238217,48.657271 L112.238217,35.4735202 L115.021703,35.4735202 C117.746353,44.3970702 122.862245,49.1892532 129.583435,49.1892532 C133.418719,49.1892532 135.597132,47.2379278 135.597132,44.0445867 C135.597132,39.1662732 132.024797,37.8359557 125.835316,35.2636224 C117.032322,31.6258771 112.238217,28.7879146 112.238217,21.3372678 C112.238217,12.2009249 119.647289,6.08059569 131.588243,6.08059569 Z M261.612515,7.29814747 C272.387758,7.29814747 279.667326,14.2114298 279.826015,25.3709875 L279.828663,25.7445418 L255.162264,25.7445418 C255.5102,36.0888825 262.919272,43.1566468 271.374331,43.1566468 C273.567484,43.1566468 275.488464,42.6527119 277.197224,41.5929474 L277.515144,41.3877153 L279.653605,43.5026162 C274.772334,49.2776998 268.409975,52.2937135 261.350292,52.2937135 C254.900041,52.2937135 249.060676,49.6214979 244.963895,44.7938493 C241.564438,40.8296768 239.909019,36.0027521 239.909019,30.4860598 C239.909019,24.8832372 241.477273,19.9694582 244.876729,15.4870553 C248.44979,10.6601306 255.162264,7.29814747 261.612515,7.29814747 Z M193.628905,6.8984008 C194.353832,6.52565133 195.218224,7.04967194 195.218224,7.86320672 L195.218224,7.86320672 L195.218224,42.1214166 C195.218224,46.7442338 196.769771,48.7310247 200.797142,48.6448942 L200.797142,48.6448942 L200.797142,51.0746418 L180.313641,51.0746418 L180.313641,45.8293691 C177.00135,50.5325265 172.295137,52.2934964 166.279987,52.2934964 C157.389827,52.2934964 152.857945,47.3196432 152.857945,37.3719369 L152.857945,37.3719369 L152.855766,20.5345175 C152.853587,19.5755018 152.330593,18.6997215 151.503973,18.2705168 L151.503973,18.2705168 L147.972316,17.0256059 L167.654297,6.8984008 C168.37995,6.52565133 169.243616,7.04967194 169.243616,7.86320672 L169.243616,7.86320672 L169.243616,36.8290978 C169.243616,42.6172096 170.290329,45.3299572 174.212052,45.3299572 C177.78584,45.3299572 178.918992,42.5267364 178.918992,36.8290978 L178.918992,36.8290978 L178.830374,20.5345175 C178.828195,19.5755018 178.305201,18.6997215 177.478581,18.2705168 L177.478581,18.2705168 L173.946197,17.0256059 Z M54.011846,0.000291807562 L54.011846,2.4322107 C48.5204162,2.7789039 47.2136593,4.51671261 47.2136593,9.90095209 L47.2136593,41.1764424 C47.2136593,46.5614056 48.5204162,48.2984906 54.011846,48.6459075 L54.011846,51.0778264 L21.2390513,51.0778264 L21.2390513,48.6459075 C26.7297547,48.2984906 28.0372379,46.5614056 28.0372379,41.1764424 L28.0372379,9.90095209 C28.0372379,4.51671261 26.7297547,2.7789039 21.2390513,2.4322107 L21.2390513,0.000291807562 L54.011846,0.000291807562 Z M233.922271,6.43705999 C238.106218,6.43705999 240.895515,9.19974881 240.895515,13.387571 C240.895515,17.0405159 238.629211,19.4463785 235.05615,19.4463785 C230.959369,19.4463785 229.477554,15.5263569 227.733517,15.5263569 C225.342006,15.5263569 225.132189,18.6580104 225.119928,25.1029297 L225.119277,42.2557511 C225.119277,46.8025709 226.752905,48.6576329 231.130794,48.5801878 C231.131521,48.5809116 231.132247,48.5816354 231.132974,48.5823592 L231.132974,51.0779712 L203.24145,51.0779712 L203.24145,48.5823592 C203.242176,48.5816354 203.242902,48.5809116 203.244355,48.579464 C207.275762,48.6641469 208.732879,46.8098088 208.732879,42.2557511 L208.732879,25.8612884 C208.732879,23.4561495 208.471383,22.2973691 206.292244,20.7824863 L200.818247,17.0260402 L222.43022,6.81559975 C223.152967,6.47469683 223.986125,6.99944124 223.986125,7.79705273 L223.986125,13.7436735 C226.775422,8.93194822 230.087713,6.43705999 233.922271,6.43705999 Z M90.4479909,7.32297331 C99.7739786,7.32297331 104.306587,12.0485681 104.306587,21.7624917 L104.306587,42.4135363 C104.306587,46.88653 105.763705,48.7068503 109.794385,48.6243387 C109.795838,48.6250625 109.796564,48.6257863 109.797291,48.6265101 L109.797291,51.0779712 L87.9194635,51.0779712 L87.9194635,22.1989343 C87.9194635,16.5990068 86.8742033,13.9738372 82.9510271,13.9738372 C79.3772395,13.9738372 78.3319792,16.685861 78.3319792,22.1989343 L78.3319792,42.4135363 C78.3319792,46.7019648 79.726628,48.5396558 83.3875812,48.6265101 L83.3875812,51.0779712 L56.4541521,51.0779712 L56.4541521,48.6265101 C56.4548785,48.6257863 56.4556049,48.6250625 56.4570576,48.6243387 C60.4884644,48.7068503 61.9455819,46.88653 61.9455819,42.4135363 L61.9455819,25.7766055 C61.9455819,23.41417 61.6840852,22.2763794 59.5049464,20.7882766 L54.0120639,17.0260402 L75.3320315,7.94325738 C76.0511473,7.63709616 76.8501648,8.16328814 76.8501648,8.94208121 L76.8501648,14.1482695 C80.2496213,9.59783077 84.78223,7.32297331 90.4479909,7.32297331 Z M261.960451,10.4878697 C257.159201,10.4878697 255.14158,14.3245352 255.076718,22.3243431 L255.075099,22.7278043 L259.614638,22.7273133 C265.257244,22.716432 267.451881,22.4811682 267.451881,17.98701 C267.451881,12.9871006 265.621404,10.4878697 261.960451,10.4878697 Z"/>
      <g transform="translate(-5.125 28.451)">
        <path fill="#212446" d="M13.1313403,-8.8817842e-15 C20.3835313,-8.8817842e-15 26.2626806,5.87914923 26.2626806,13.1313403 L22.615086,13.1313403 L22.615086,13.1313403 C22.615086,7.89343691 18.3692437,3.64759452 13.1313403,3.64759452 C7.89343691,3.64759452 3.64759452,7.89343691 3.64759452,13.1313403 L4.36983782e-13,13.1313403 C4.36983782e-13,5.87914923 5.87914923,-8.8817842e-15 13.1313403,-8.8817842e-15 Z"/>
        <path fill="#523861" d="M22.615086,13.1313403 C22.615086,7.89343691 18.3692437,3.64759452 13.1313403,3.64759452 C7.89343691,3.64759452 3.64759452,7.89343691 3.64759452,13.1313403 C3.64759452,18.3692437 7.89343691,22.615086 13.1313403,22.615086 C18.3692437,22.615086 22.615086,18.3692437 22.615086,13.1313403 Z" opacity=".5"/>
        <path fill="#523861" d="M22.615086,13.1313403 C22.615086,7.89343691 18.3692437,3.64759452 13.1313403,3.64759452 C7.89343691,3.64759452 3.64759452,7.89343691 3.64759452,13.1313403 L22.615086,13.1313403 Z"/>
      </g>
    </g>
    <path fill="#523861" d="M50.6463653,9.76673583 C54.1020538,9.76673583 56.8950177,10.9276956 59.0230256,13.2488549 C61.1510336,15.5707745 62.2154094,18.380799 62.2154094,21.680449 C62.2154094,24.980099 61.1510336,27.7832809 59.0230256,30.0899947 C56.8950177,32.3967085 54.1020538,33.5493051 50.6463653,33.5493051 C47.2181974,33.5493051 44.4401094,32.3967085 42.3121015,30.0899947 C40.1840936,27.7832809 39.1204615,24.980099 39.1204615,21.680449 C39.1204615,18.380799 40.1840936,15.5707745 42.3121015,13.2488549 C44.4401094,10.9276956 47.2181974,9.76673583 50.6463653,9.76673583 Z M88.1378334,9.7666598 C91.3941839,9.7666598 94.0294625,10.8842832 96.0429254,13.1172491 C98.0571322,15.3517355 99.0642355,18.16176 99.0642355,21.5488431 L99.0210952,23.1690169 L82.0959571,23.1690169 C82.2960389,24.9800229 82.9386809,26.4177276 84.0246269,27.4836514 C85.1098292,28.5495751 86.5379226,29.0817768 88.3089071,29.0817768 C89.48039,29.0817768 90.5373279,28.7905864 91.4804645,28.205925 C92.4228574,27.6220238 93.0937638,26.8336051 93.4939275,25.8414292 L98.6358075,25.8414292 C97.9500251,28.1481431 96.6714353,30.0093281 94.8007817,31.4249844 C92.9293843,32.8421613 90.7232775,33.5492291 88.1809738,33.5492291 C84.866607,33.5492291 82.1881881,32.4255234 80.1464608,30.1773518 C78.1039897,27.9291801 77.0827542,25.0826618 77.0827542,21.6362762 C77.0827542,18.2788444 78.1114277,15.4604567 80.168031,13.1833941 C82.2246342,10.9055712 84.881483,9.7666598 88.1378334,9.7666598 Z M110.761734,9.76696392 C112.275364,9.76696392 113.611226,10.0079752 114.768577,10.4899978 C115.92444,10.9720204 116.824436,11.6068609 117.467078,12.3952796 C118.110464,13.1836982 118.595421,13.9873227 118.92418,14.803872 C119.252195,15.6219419 119.445583,16.4544573 119.502855,17.3006578 L114.617586,17.3006578 C114.532049,16.3959151 114.152712,15.6219419 113.482549,14.9787382 C112.810899,14.3370552 111.861068,14.0154533 110.633056,14.0154533 C109.404301,14.0154533 108.461908,14.2481015 107.805134,14.7133977 C107.147616,15.1779337 106.819601,15.8188565 106.819601,16.6361661 C106.819601,17.3972144 107.260673,17.9750333 108.144306,18.3681022 C109.027939,18.7626917 110.091571,19.1010198 111.333715,19.3823264 C112.576602,19.663633 113.834366,19.948741 115.104774,20.2368901 C116.375926,20.5250393 117.440302,21.1963736 118.300133,22.2508931 C119.158477,23.3054126 119.588392,24.7058631 119.588392,26.4545255 C119.588392,28.4981797 118.780627,30.1921014 117.167328,31.53477 C115.553284,32.8781989 113.260897,33.5495332 110.290165,33.5495332 C107.233153,33.5495332 104.934071,32.8196567 103.391433,31.3591435 C101.848794,29.8993905 101.006071,28.0306025 100.864005,25.75354 L105.790927,25.75354 C105.8482,26.804258 106.29076,27.6519791 107.119352,28.2936622 C107.947943,28.9368659 109.10455,29.2569471 110.589916,29.2569471 C111.903465,29.2569471 112.918006,29.024299 113.632796,28.5567219 C114.346099,28.0891447 114.703866,27.4603865 114.703866,26.6727282 C114.703866,25.7968764 114.268,25.1460698 113.397012,24.7233497 C112.524536,24.2998693 111.467599,23.9546985 110.225455,23.6870771 C108.981823,23.4209763 107.725548,23.1503138 106.454396,22.8781307 C105.183988,22.6051873 104.112918,21.9718674 103.241186,20.9796915 C102.370197,19.9867554 101.935075,18.6296413 101.935075,16.9060684 C101.935075,14.9209564 102.741353,13.2346375 104.355396,11.8471119 C105.969439,10.4611069 108.104885,9.76696392 110.761734,9.76696392 Z M131.200577,9.76696392 C132.714207,9.76696392 134.049325,10.0079752 135.206676,10.4899978 C136.363283,10.9720204 137.263279,11.6068609 137.905921,12.3952796 C138.548563,13.1836982 139.034264,13.9873227 139.363023,14.803872 C139.691038,15.6219419 139.883682,16.4544573 139.940954,17.3006578 L135.056429,17.3006578 C134.970892,16.3959151 134.591555,15.6219419 133.921392,14.9787382 C133.249742,14.3370552 132.299911,14.0154533 131.071899,14.0154533 C129.843144,14.0154533 128.900751,14.2481015 128.243977,14.7133977 C127.586459,15.1779337 127.258444,15.8188565 127.258444,16.6361661 C127.258444,17.3972144 127.699516,17.9750333 128.583149,18.3681022 C129.466782,18.7626917 130.52967,19.1010198 131.772558,19.3823264 C133.015445,19.663633 134.272465,19.948741 135.543617,20.2368901 C136.814025,20.5250393 137.879145,21.1963736 138.738232,22.2508931 C139.597319,23.3054126 140.026491,24.7058631 140.026491,26.4545255 C140.026491,28.4981797 139.21947,30.1921014 137.60617,31.53477 C135.992127,32.8781989 133.69974,33.5495332 130.729008,33.5495332 C127.671996,33.5495332 125.372914,32.8196567 123.830276,31.3591435 C122.287637,29.8993905 121.444914,28.0306025 121.302104,25.75354 L126.22977,25.75354 C126.287043,26.804258 126.729603,27.6519791 127.558195,28.2936622 C128.386786,28.9368659 129.543393,29.2569471 131.028759,29.2569471 C132.342307,29.2569471 133.356849,29.024299 134.070896,28.5567219 C134.784942,28.0891447 135.142709,27.4603865 135.142709,26.6727282 C135.142709,25.7968764 134.706843,25.1460698 133.835111,24.7233497 C132.963379,24.2998693 131.906441,23.9546985 130.664298,23.6870771 C129.420666,23.4209763 128.16439,23.1503138 126.893239,22.8781307 C125.622831,22.6051873 124.55176,21.9718674 123.680028,20.9796915 C122.80904,19.9867554 122.373918,18.6296413 122.373918,16.9060684 C122.373918,14.9209564 123.180196,13.2346375 124.794239,11.8471119 C126.407538,10.4611069 128.543728,9.76696392 131.200577,9.76696392 Z M163.80685,9.76673583 C167.262538,9.76673583 170.055502,10.9276956 172.18351,13.2488549 C174.311518,15.5707745 175.375894,18.380799 175.375894,21.680449 C175.375894,24.980099 174.311518,27.7832809 172.18351,30.0899947 C170.055502,32.3967085 167.262538,33.5493051 163.80685,33.5493051 C160.378682,33.5493051 157.600594,32.3967085 155.47333,30.0899947 C153.344578,27.7832809 152.280946,24.980099 152.280946,21.680449 C152.280946,18.380799 153.344578,15.5707745 155.47333,13.2488549 C157.600594,10.9276956 160.378682,9.76673583 163.80685,9.76673583 Z M212.866916,9.76681186 C216.038473,9.76681186 218.429786,10.5111338 220.044572,12.000538 C221.657872,13.4899423 222.465637,15.5784534 222.465637,18.2637907 L222.465637,28.731436 C222.465637,30.571333 222.679107,32.0021951 223.107535,33.0240222 L218.26615,33.0240222 C218.237142,33.0240222 218.202183,32.9145407 218.159043,32.6955777 C218.115903,32.4766148 218.073506,32.1185191 218.030366,31.6220511 C217.987969,31.1263433 217.966399,30.600224 217.966399,30.045974 C216.452025,32.3815788 213.909721,33.5493812 210.338744,33.5493812 C207.710903,33.5493812 205.754713,32.9221436 204.468685,31.6661478 C203.183401,30.4109123 202.540759,28.7466418 202.540759,26.6725761 C202.543734,22.7274416 205.391739,20.3378564 211.082543,19.5068616 L217.494831,18.5701868 L217.494831,18.219694 C217.494831,15.4469236 215.909796,14.0586377 212.738238,14.0586377 C209.967588,14.0586377 208.396686,15.1838639 208.02553,17.4320356 L203.054724,17.4320356 C203.28307,15.2127549 204.190504,13.3804608 205.776283,11.9351533 C207.361318,10.4898458 209.724366,9.76681186 212.866916,9.76681186 Z M12.5977176,1.92733011 C16.0534061,1.92733011 18.6180238,2.79633931 20.2885956,4.53283713 C21.9599111,6.27085552 22.795197,8.555521 22.795197,11.3875938 C22.795197,14.1907757 21.938341,16.4541532 20.2246289,18.1762055 C18.5109168,19.8990181 15.9678693,20.7604245 12.5977176,20.7604245 L5.18502034,20.7604245 L5.18502034,33.0238701 L-4.40536496e-13,33.0238701 L-4.40536496e-13,1.92733011 L12.5977176,1.92733011 Z M37.2351551,10.0731319 L37.963334,10.1172286 L37.963334,14.9792704 C37.5624265,14.9207283 37.1771388,14.891077 36.8059833,14.891077 C32.9776517,14.891077 31.0646016,16.9940337 31.0646016,21.1984264 L31.0646016,33.0239461 L25.9658619,33.0239461 L25.9658619,10.2920948 L30.6793139,10.2920948 L30.6793139,13.4465298 C31.9355898,11.1983582 34.1208702,10.0731319 37.2351551,10.0731319 Z M73.9550065,0.175322416 L75.6687186,0.306852242 L75.6687186,4.90583443 C75.4976449,4.84729225 75.1830181,4.81840131 74.7263257,4.81840131 C73.698396,4.81840131 72.9620353,5.07385808 72.520219,5.58477162 C72.0761712,6.09492488 71.855263,6.96393408 71.855263,8.19027864 L71.855263,10.292475 L75.7973958,10.292475 L75.7973958,14.4535313 L71.855263,14.4535313 L71.855263,33.023566 L66.7565233,33.023566 L66.7565233,14.4535313 L63.200422,14.4535313 L63.200422,10.292475 L66.7565233,10.292475 L66.7565233,7.88388257 C66.7565233,5.31486938 67.3991653,3.38753927 68.6844494,2.10265253 C69.9704772,0.817765786 71.7273296,0.175322416 73.9550065,0.175322416 Z M148.639233,10.2927791 L148.639233,33.0238701 L143.540494,33.0238701 L143.540494,10.2927791 L148.639233,10.2927791 Z M190.586427,9.76711598 C193.214268,9.76711598 195.249301,10.5851859 196.69227,12.2198051 C198.134496,13.8559449 198.85598,16.0303686 198.85598,18.7453571 L198.85598,33.023566 L193.757241,33.023566 L193.757241,19.402246 C193.757241,17.797278 193.393523,16.5336793 192.664601,15.6144911 C191.936422,14.6945426 190.828906,14.2345683 189.344283,14.2345683 C187.715364,14.2345683 186.436775,14.7317967 185.509258,15.7239726 C184.580997,16.7161484 184.116867,18.0892286 184.116867,19.8409321 L184.116867,33.023566 L179.018127,33.023566 L179.018127,10.292475 L183.730835,10.292475 L183.730835,13.3153801 C184.2448,12.322444 185.094218,11.4823257 186.280577,10.7965459 C187.465448,10.1107662 188.900979,9.76711598 190.586427,9.76711598 Z M232.534514,0.175626531 L232.534514,33.0238701 L227.435774,33.0238701 L227.435774,0.175626531 L232.534514,0.175626531 Z M217.494831,22.3739077 L211.588326,23.3075414 C208.812469,23.7424261 207.425285,24.8136719 207.425285,26.5220391 C207.425285,28.491185 208.739577,29.4765183 211.367417,29.4765183 C213.338484,29.4765183 214.852114,28.9389947 215.909796,27.8647077 C216.96599,26.7904207 217.494831,25.4393889 217.494831,23.8123726 L217.494831,22.3739077 Z M50.6463653,14.365718 C48.7891001,14.365718 47.2538997,15.0385729 46.0400203,16.3804813 C44.8253971,17.7239102 44.2192012,19.4900592 44.2192012,21.680449 C44.2192012,23.8411875 44.8253971,25.5928911 46.0400203,26.9355597 C47.2538997,28.2797489 48.7891001,28.9510832 50.6463653,28.9510832 C52.5318949,28.9510832 54.0804837,28.2797489 55.2951068,26.9355597 C56.5089862,25.5928911 57.1159259,23.8411875 57.1159259,21.680449 C57.1159259,19.4900592 56.5089862,17.7239102 55.2951068,16.3804813 C54.0804837,15.0385729 52.5318949,14.365718 50.6463653,14.365718 Z M163.80685,14.365718 C161.949584,14.365718 160.414384,15.0385729 159.200505,16.3804813 C157.985881,17.7239102 157.379685,19.4900592 157.379685,21.680449 C157.379685,23.8411875 157.985881,25.5928911 159.200505,26.9355597 C160.414384,28.2797489 161.949584,28.9510832 163.80685,28.9510832 C165.692379,28.9510832 167.240968,28.2797489 168.455591,26.9355597 C169.66947,25.5928911 170.277154,23.8411875 170.277154,21.680449 C170.277154,19.4900592 169.66947,17.7239102 168.455591,16.3804813 C167.240968,15.0385729 165.692379,14.365718 163.80685,14.365718 Z M88.1378334,14.0151492 C86.5379226,14.0151492 85.2094982,14.4971718 84.1533041,15.4604567 C83.0956224,16.4245019 82.4388482,17.7093887 82.1822377,19.3151169 L94.0078923,19.3151169 C93.7788024,17.7093887 93.1510363,16.4245019 92.1223628,15.4604567 C91.0944331,14.4971718 89.7660087,14.0151492 88.1378334,14.0151492 Z M12.6401141,6.83270836 L5.18502034,6.83270836 L5.18502034,15.8550462 L12.6401141,15.8550462 C14.2965537,15.8550462 15.5327471,15.4604567 16.3464628,14.6720381 C17.1609223,13.8836194 17.5677802,12.7895649 17.5677802,11.3875938 C17.5677802,9.98562275 17.1534843,8.87636254 16.3256364,8.05905293 C15.4963009,7.24174332 14.2682894,6.83270836 12.6401141,6.83270836 Z M146.111062,-4.22772928e-13 C147.02519,-4.22772928e-13 147.782377,0.307156357 148.381879,0.919948495 C148.982124,1.53274063 149.281875,2.3211593 149.281875,3.2852045 C149.281875,4.21959847 148.982124,4.98596878 148.381879,5.58431545 C147.782377,6.18266211 147.02519,6.48221559 146.111062,6.48221559 C145.168669,6.48221559 144.39735,6.18266211 143.797104,5.58431545 C143.197602,4.98596878 142.897852,4.21959847 142.897852,3.2852045 C142.897852,2.3211593 143.197602,1.53274063 143.797104,0.919948495 C144.39735,0.307156357 145.168669,-4.22772928e-13 146.111062,-4.22772928e-13 Z" transform="translate(35.867 8.025)"/>
  </g>
</svg>
