<?xml version="1.0" encoding="UTF-8"?>
<svg width="210px" height="255px" viewBox="0 0 210 255" version="1.1" xmlns="http://www.w3.org/2000/svg" xmlns:xlink="http://www.w3.org/1999/xlink">
    <title>icons/pattern-2 rotated</title>
    <defs>
        <path d="M170,0 C186.568542,0 200,13.4314575 200,30 C200,46.5685425 186.568542,60 170,60 C153.431458,60 140,46.5685425 140,30 C140,13.4314575 153.431458,0 170,0 Z" id="path-1"></path>
    </defs>
    <g id="icons/pattern-2-rotated" stroke="none" stroke-width="1" fill="none" fill-rule="evenodd">
        <g id="Group" transform="translate(105.000000, 127.500000) rotate(180.000000) translate(-105.000000, -127.500000) ">
            <g id="Oval-Copy">
                <use fill="#FAB5B0" xlink:href="#path-1"></use>
                <use fill-opacity="0.4" fill="#FFFFFF" xlink:href="#path-1"></use>
            </g>
            <path d="M32.8672017,155 C43.6832401,164.045957 45.093897,180.117444 36.0183705,190.897051 C26.9418414,201.677657 10.8160384,203.083563 0,194.038605 L32.8672017,155 Z" id="Path" fill="#6899E4" fill-rule="nonzero" opacity="0.276181176"></path>
            <g transform="translate(49.000000, 94.000000)" fill="#9A9FC2" id="Shape" opacity="0.5">
                <g>
                    <path d="M1.20149254,158.597015 C1.86505854,158.597015 2.40298507,159.134941 2.40298507,159.798507 C2.40298507,160.462073 1.86505854,161 1.20149254,161 C0.537926532,161 -1.90292226e-13,160.462073 -1.90292226e-13,159.798507 C-1.90292226e-13,159.134941 0.537926532,158.597015 1.20149254,158.597015 Z M87.7089552,158.597015 C88.3725212,158.597015 88.9104478,159.134941 88.9104478,159.798507 C88.9104478,160.462073 88.3725212,161 87.7089552,161 C87.0453892,161 86.5074627,160.462073 86.5074627,159.798507 C86.5074627,159.134941 87.0453892,158.597015 87.7089552,158.597015 Z M15.619403,158.597015 C16.282969,158.597015 16.8208955,159.134941 16.8208955,159.798507 C16.8208955,160.462073 16.282969,161 15.619403,161 C14.955837,161 14.4179104,160.462073 14.4179104,159.798507 C14.4179104,159.134941 14.955837,158.597015 15.619403,158.597015 Z M102.126866,158.597015 C102.790432,158.597015 103.328358,159.134941 103.328358,159.798507 C103.328358,160.462073 102.790432,161 102.126866,161 C101.4633,161 100.925373,160.462073 100.925373,159.798507 C100.925373,159.134941 101.4633,158.597015 102.126866,158.597015 Z M30.0373134,158.597015 C30.7008794,158.597015 31.238806,159.134941 31.238806,159.798507 C31.238806,160.462073 30.7008794,161 30.0373134,161 C29.3737474,161 28.8358209,160.462073 28.8358209,159.798507 C28.8358209,159.134941 29.3737474,158.597015 30.0373134,158.597015 Z M116.544776,158.597015 C117.208342,158.597015 117.746269,159.134941 117.746269,159.798507 C117.746269,160.462073 117.208342,161 116.544776,161 C115.88121,161 115.343284,160.462073 115.343284,159.798507 C115.343284,159.134941 115.88121,158.597015 116.544776,158.597015 Z M44.4552239,158.597015 C45.1187899,158.597015 45.6567164,159.134941 45.6567164,159.798507 C45.6567164,160.462073 45.1187899,161 44.4552239,161 C43.7916579,161 43.2537313,160.462073 43.2537313,159.798507 C43.2537313,159.134941 43.7916579,158.597015 44.4552239,158.597015 Z M130.962687,158.597015 C131.626253,158.597015 132.164179,159.134941 132.164179,159.798507 C132.164179,160.462073 131.626253,161 130.962687,161 C130.299121,161 129.761194,160.462073 129.761194,159.798507 C129.761194,159.134941 130.299121,158.597015 130.962687,158.597015 Z M58.8731343,158.597015 C59.5367003,158.597015 60.0746269,159.134941 60.0746269,159.798507 C60.0746269,160.462073 59.5367003,161 58.8731343,161 C58.2095683,161 57.6716418,160.462073 57.6716418,159.798507 C57.6716418,159.134941 58.2095683,158.597015 58.8731343,158.597015 Z M73.2910448,158.597015 C73.9546108,158.597015 74.4925373,159.134941 74.4925373,159.798507 C74.4925373,160.462073 73.9546108,161 73.2910448,161 C72.6274788,161 72.0895522,160.462073 72.0895522,159.798507 C72.0895522,159.134941 72.6274788,158.597015 73.2910448,158.597015 Z M145.380597,158.597015 C146.044163,158.597015 146.58209,159.134941 146.58209,159.798507 C146.58209,160.462073 146.044163,161 145.380597,161 C144.717031,161 144.179104,160.462073 144.179104,159.798507 C144.179104,159.134941 144.717031,158.597015 145.380597,158.597015 Z M159.798507,158.597015 C160.462073,158.597015 161,159.134941 161,159.798507 C161,160.462073 160.462073,161 159.798507,161 C159.134941,161 158.597015,160.462073 158.597015,159.798507 C158.597015,159.134941 159.134941,158.597015 159.798507,158.597015 Z M1.20149254,144.179104 C1.86505854,144.179104 2.40298507,144.717031 2.40298507,145.380597 C2.40298507,146.044163 1.86505854,146.58209 1.20149254,146.58209 C0.537926532,146.58209 -1.90292226e-13,146.044163 -1.90292226e-13,145.380597 C-1.90292226e-13,144.717031 0.537926532,144.179104 1.20149254,144.179104 Z M87.7089552,144.179104 C88.3725212,144.179104 88.9104478,144.717031 88.9104478,145.380597 C88.9104478,146.044163 88.3725212,146.58209 87.7089552,146.58209 C87.0453892,146.58209 86.5074627,146.044163 86.5074627,145.380597 C86.5074627,144.717031 87.0453892,144.179104 87.7089552,144.179104 Z M15.619403,144.179104 C16.282969,144.179104 16.8208955,144.717031 16.8208955,145.380597 C16.8208955,146.044163 16.282969,146.58209 15.619403,146.58209 C14.955837,146.58209 14.4179104,146.044163 14.4179104,145.380597 C14.4179104,144.717031 14.955837,144.179104 15.619403,144.179104 Z M102.126866,144.179104 C102.790432,144.179104 103.328358,144.717031 103.328358,145.380597 C103.328358,146.044163 102.790432,146.58209 102.126866,146.58209 C101.4633,146.58209 100.925373,146.044163 100.925373,145.380597 C100.925373,144.717031 101.4633,144.179104 102.126866,144.179104 Z M30.0373134,144.179104 C30.7008794,144.179104 31.238806,144.717031 31.238806,145.380597 C31.238806,146.044163 30.7008794,146.58209 30.0373134,146.58209 C29.3737474,146.58209 28.8358209,146.044163 28.8358209,145.380597 C28.8358209,144.717031 29.3737474,144.179104 30.0373134,144.179104 Z M116.544776,144.179104 C117.208342,144.179104 117.746269,144.717031 117.746269,145.380597 C117.746269,146.044163 117.208342,146.58209 116.544776,146.58209 C115.88121,146.58209 115.343284,146.044163 115.343284,145.380597 C115.343284,144.717031 115.88121,144.179104 116.544776,144.179104 Z M44.4552239,144.179104 C45.1187899,144.179104 45.6567164,144.717031 45.6567164,145.380597 C45.6567164,146.044163 45.1187899,146.58209 44.4552239,146.58209 C43.7916579,146.58209 43.2537313,146.044163 43.2537313,145.380597 C43.2537313,144.717031 43.7916579,144.179104 44.4552239,144.179104 Z M130.962687,144.179104 C131.626253,144.179104 132.164179,144.717031 132.164179,145.380597 C132.164179,146.044163 131.626253,146.58209 130.962687,146.58209 C130.299121,146.58209 129.761194,146.044163 129.761194,145.380597 C129.761194,144.717031 130.299121,144.179104 130.962687,144.179104 Z M58.8731343,144.179104 C59.5367003,144.179104 60.0746269,144.717031 60.0746269,145.380597 C60.0746269,146.044163 59.5367003,146.58209 58.8731343,146.58209 C58.2095683,146.58209 57.6716418,146.044163 57.6716418,145.380597 C57.6716418,144.717031 58.2095683,144.179104 58.8731343,144.179104 Z M73.2910448,144.179104 C73.9546108,144.179104 74.4925373,144.717031 74.4925373,145.380597 C74.4925373,146.044163 73.9546108,146.58209 73.2910448,146.58209 C72.6274788,146.58209 72.0895522,146.044163 72.0895522,145.380597 C72.0895522,144.717031 72.6274788,144.179104 73.2910448,144.179104 Z M145.380597,144.179104 C146.044163,144.179104 146.58209,144.717031 146.58209,145.380597 C146.58209,146.044163 146.044163,146.58209 145.380597,146.58209 C144.717031,146.58209 144.179104,146.044163 144.179104,145.380597 C144.179104,144.717031 144.717031,144.179104 145.380597,144.179104 Z M159.798507,144.179104 C160.462073,144.179104 161,144.717031 161,145.380597 C161,146.044163 160.462073,146.58209 159.798507,146.58209 C159.134941,146.58209 158.597015,146.044163 158.597015,145.380597 C158.597015,144.717031 159.134941,144.179104 159.798507,144.179104 Z M30.0373134,129.761194 C30.7008794,129.761194 31.238806,130.299121 31.238806,130.962687 C31.238806,131.626253 30.7008794,132.164179 30.0373134,132.164179 C29.3737474,132.164179 28.8358209,131.626253 28.8358209,130.962687 C28.8358209,130.299121 29.3737474,129.761194 30.0373134,129.761194 Z M116.544776,129.761194 C117.208342,129.761194 117.746269,130.299121 117.746269,130.962687 C117.746269,131.626253 117.208342,132.164179 116.544776,132.164179 C115.88121,132.164179 115.343284,131.626253 115.343284,130.962687 C115.343284,130.299121 115.88121,129.761194 116.544776,129.761194 Z M44.4552239,129.761194 C45.1187899,129.761194 45.6567164,130.299121 45.6567164,130.962687 C45.6567164,131.626253 45.1187899,132.164179 44.4552239,132.164179 C43.7916579,132.164179 43.2537313,131.626253 43.2537313,130.962687 C43.2537313,130.299121 43.7916579,129.761194 44.4552239,129.761194 Z M130.962687,129.761194 C131.626253,129.761194 132.164179,130.299121 132.164179,130.962687 C132.164179,131.626253 131.626253,132.164179 130.962687,132.164179 C130.299121,132.164179 129.761194,131.626253 129.761194,130.962687 C129.761194,130.299121 130.299121,129.761194 130.962687,129.761194 Z M1.20149254,129.761194 C1.86505854,129.761194 2.40298507,130.299121 2.40298507,130.962687 C2.40298507,131.626253 1.86505854,132.164179 1.20149254,132.164179 C0.537926532,132.164179 -1.90292226e-13,131.626253 -1.90292226e-13,130.962687 C-1.90292226e-13,130.299121 0.537926532,129.761194 1.20149254,129.761194 Z M87.7089552,129.761194 C88.3725212,129.761194 88.9104478,130.299121 88.9104478,130.962687 C88.9104478,131.626253 88.3725212,132.164179 87.7089552,132.164179 C87.0453892,132.164179 86.5074627,131.626253 86.5074627,130.962687 C86.5074627,130.299121 87.0453892,129.761194 87.7089552,129.761194 Z M58.8731343,129.761194 C59.5367003,129.761194 60.0746269,130.299121 60.0746269,130.962687 C60.0746269,131.626253 59.5367003,132.164179 58.8731343,132.164179 C58.2095683,132.164179 57.6716418,131.626253 57.6716418,130.962687 C57.6716418,130.299121 58.2095683,129.761194 58.8731343,129.761194 Z M73.2910448,129.761194 C73.9546108,129.761194 74.4925373,130.299121 74.4925373,130.962687 C74.4925373,131.626253 73.9546108,132.164179 73.2910448,132.164179 C72.6274788,132.164179 72.0895522,131.626253 72.0895522,130.962687 C72.0895522,130.299121 72.6274788,129.761194 73.2910448,129.761194 Z M15.619403,129.761194 C16.282969,129.761194 16.8208955,130.299121 16.8208955,130.962687 C16.8208955,131.626253 16.282969,132.164179 15.619403,132.164179 C14.955837,132.164179 14.4179104,131.626253 14.4179104,130.962687 C14.4179104,130.299121 14.955837,129.761194 15.619403,129.761194 Z M145.380597,129.761194 C146.044163,129.761194 146.58209,130.299121 146.58209,130.962687 C146.58209,131.626253 146.044163,132.164179 145.380597,132.164179 C144.717031,132.164179 144.179104,131.626253 144.179104,130.962687 C144.179104,130.299121 144.717031,129.761194 145.380597,129.761194 Z M102.126866,129.761194 C102.790432,129.761194 103.328358,130.299121 103.328358,130.962687 C103.328358,131.626253 102.790432,132.164179 102.126866,132.164179 C101.4633,132.164179 100.925373,131.626253 100.925373,130.962687 C100.925373,130.299121 101.4633,129.761194 102.126866,129.761194 Z M159.798507,129.761194 C160.462073,129.761194 161,130.299121 161,130.962687 C161,131.626253 160.462073,132.164179 159.798507,132.164179 C159.134941,132.164179 158.597015,131.626253 158.597015,130.962687 C158.597015,130.299121 159.134941,129.761194 159.798507,129.761194 Z M44.4552239,115.343284 C45.1187899,115.343284 45.6567164,115.88121 45.6567164,116.544776 C45.6567164,117.208342 45.1187899,117.746269 44.4552239,117.746269 C43.7916579,117.746269 43.2537313,117.208342 43.2537313,116.544776 C43.2537313,115.88121 43.7916579,115.343284 44.4552239,115.343284 Z M130.962687,115.343284 C131.626253,115.343284 132.164179,115.88121 132.164179,116.544776 C132.164179,117.208342 131.626253,117.746269 130.962687,117.746269 C130.299121,117.746269 129.761194,117.208342 129.761194,116.544776 C129.761194,115.88121 130.299121,115.343284 130.962687,115.343284 Z M87.7089552,115.343284 C88.3725212,115.343284 88.9104478,115.88121 88.9104478,116.544776 C88.9104478,117.208342 88.3725212,117.746269 87.7089552,117.746269 C87.0453892,117.746269 86.5074627,117.208342 86.5074627,116.544776 C86.5074627,115.88121 87.0453892,115.343284 87.7089552,115.343284 Z M15.619403,115.343284 C16.282969,115.343284 16.8208955,115.88121 16.8208955,116.544776 C16.8208955,117.208342 16.282969,117.746269 15.619403,117.746269 C14.955837,117.746269 14.4179104,117.208342 14.4179104,116.544776 C14.4179104,115.88121 14.955837,115.343284 15.619403,115.343284 Z M102.126866,115.343284 C102.790432,115.343284 103.328358,115.88121 103.328358,116.544776 C103.328358,117.208342 102.790432,117.746269 102.126866,117.746269 C101.4633,117.746269 100.925373,117.208342 100.925373,116.544776 C100.925373,115.88121 101.4633,115.343284 102.126866,115.343284 Z M30.0373134,115.343284 C30.7008794,115.343284 31.238806,115.88121 31.238806,116.544776 C31.238806,117.208342 30.7008794,117.746269 30.0373134,117.746269 C29.3737474,117.746269 28.8358209,117.208342 28.8358209,116.544776 C28.8358209,115.88121 29.3737474,115.343284 30.0373134,115.343284 Z M116.544776,115.343284 C117.208342,115.343284 117.746269,115.88121 117.746269,116.544776 C117.746269,117.208342 117.208342,117.746269 116.544776,117.746269 C115.88121,117.746269 115.343284,117.208342 115.343284,116.544776 C115.343284,115.88121 115.88121,115.343284 116.544776,115.343284 Z M159.798507,115.343284 C160.462073,115.343284 161,115.88121 161,116.544776 C161,117.208342 160.462073,117.746269 159.798507,117.746269 C159.134941,117.746269 158.597015,117.208342 158.597015,116.544776 C158.597015,115.88121 159.134941,115.343284 159.798507,115.343284 Z M145.380597,115.343284 C146.044163,115.343284 146.58209,115.88121 146.58209,116.544776 C146.58209,117.208342 146.044163,117.746269 145.380597,117.746269 C144.717031,117.746269 144.179104,117.208342 144.179104,116.544776 C144.179104,115.88121 144.717031,115.343284 145.380597,115.343284 Z M1.20149254,115.343284 C1.86505854,115.343284 2.40298507,115.88121 2.40298507,116.544776 C2.40298507,117.208342 1.86505854,117.746269 1.20149254,117.746269 C0.537926532,117.746269 -1.90292226e-13,117.208342 -1.90292226e-13,116.544776 C-1.90292226e-13,115.88121 0.537926532,115.343284 1.20149254,115.343284 Z M58.8731343,115.343284 C59.5367003,115.343284 60.0746269,115.88121 60.0746269,116.544776 C60.0746269,117.208342 59.5367003,117.746269 58.8731343,117.746269 C58.2095683,117.746269 57.6716418,117.208342 57.6716418,116.544776 C57.6716418,115.88121 58.2095683,115.343284 58.8731343,115.343284 Z M73.2910448,115.343284 C73.9546108,115.343284 74.4925373,115.88121 74.4925373,116.544776 C74.4925373,117.208342 73.9546108,117.746269 73.2910448,117.746269 C72.6274788,117.746269 72.0895522,117.208342 72.0895522,116.544776 C72.0895522,115.88121 72.6274788,115.343284 73.2910448,115.343284 Z M145.380597,100.925373 C146.044163,100.925373 146.58209,101.4633 146.58209,102.126866 C146.58209,102.790432 146.044163,103.328358 145.380597,103.328358 C144.717031,103.328358 144.179104,102.790432 144.179104,102.126866 C144.179104,101.4633 144.717031,100.925373 145.380597,100.925373 Z M116.544776,100.925373 C117.208342,100.925373 117.746269,101.4633 117.746269,102.126866 C117.746269,102.790432 117.208342,103.328358 116.544776,103.328358 C115.88121,103.328358 115.343284,102.790432 115.343284,102.126866 C115.343284,101.4633 115.88121,100.925373 116.544776,100.925373 Z M1.20149254,100.925373 C1.86505854,100.925373 2.40298507,101.4633 2.40298507,102.126866 C2.40298507,102.790432 1.86505854,103.328358 1.20149254,103.328358 C0.537926532,103.328358 -1.90292226e-13,102.790432 -1.90292226e-13,102.126866 C-1.90292226e-13,101.4633 0.537926532,100.925373 1.20149254,100.925373 Z M15.619403,100.925373 C16.282969,100.925373 16.8208955,101.4633 16.8208955,102.126866 C16.8208955,102.790432 16.282969,103.328358 15.619403,103.328358 C14.955837,103.328358 14.4179104,102.790432 14.4179104,102.126866 C14.4179104,101.4633 14.955837,100.925373 15.619403,100.925373 Z M73.2910448,100.925373 C73.9546108,100.925373 74.4925373,101.4633 74.4925373,102.126866 C74.4925373,102.790432 73.9546108,103.328358 73.2910448,103.328358 C72.6274788,103.328358 72.0895522,102.790432 72.0895522,102.126866 C72.0895522,101.4633 72.6274788,100.925373 73.2910448,100.925373 Z M130.962687,100.925373 C131.626253,100.925373 132.164179,101.4633 132.164179,102.126866 C132.164179,102.790432 131.626253,103.328358 130.962687,103.328358 C130.299121,103.328358 129.761194,102.790432 129.761194,102.126866 C129.761194,101.4633 130.299121,100.925373 130.962687,100.925373 Z M87.7089552,100.925373 C88.3725212,100.925373 88.9104478,101.4633 88.9104478,102.126866 C88.9104478,102.790432 88.3725212,103.328358 87.7089552,103.328358 C87.0453892,103.328358 86.5074627,102.790432 86.5074627,102.126866 C86.5074627,101.4633 87.0453892,100.925373 87.7089552,100.925373 Z M58.8731343,100.925373 C59.5367003,100.925373 60.0746269,101.4633 60.0746269,102.126866 C60.0746269,102.790432 59.5367003,103.328358 58.8731343,103.328358 C58.2095683,103.328358 57.6716418,102.790432 57.6716418,102.126866 C57.6716418,101.4633 58.2095683,100.925373 58.8731343,100.925373 Z M30.0373134,100.925373 C30.7008794,100.925373 31.238806,101.4633 31.238806,102.126866 C31.238806,102.790432 30.7008794,103.328358 30.0373134,103.328358 C29.3737474,103.328358 28.8358209,102.790432 28.8358209,102.126866 C28.8358209,101.4633 29.3737474,100.925373 30.0373134,100.925373 Z M159.798507,100.925373 C160.462073,100.925373 161,101.4633 161,102.126866 C161,102.790432 160.462073,103.328358 159.798507,103.328358 C159.134941,103.328358 158.597015,102.790432 158.597015,102.126866 C158.597015,101.4633 159.134941,100.925373 159.798507,100.925373 Z M44.4552239,100.925373 C45.1187899,100.925373 45.6567164,101.4633 45.6567164,102.126866 C45.6567164,102.790432 45.1187899,103.328358 44.4552239,103.328358 C43.7916579,103.328358 43.2537313,102.790432 43.2537313,102.126866 C43.2537313,101.4633 43.7916579,100.925373 44.4552239,100.925373 Z M102.126866,100.925373 C102.790432,100.925373 103.328358,101.4633 103.328358,102.126866 C103.328358,102.790432 102.790432,103.328358 102.126866,103.328358 C101.4633,103.328358 100.925373,102.790432 100.925373,102.126866 C100.925373,101.4633 101.4633,100.925373 102.126866,100.925373 Z M1.20149254,86.5074627 C1.86505854,86.5074627 2.40298507,87.0453892 2.40298507,87.7089552 C2.40298507,88.3725212 1.86505854,88.9104478 1.20149254,88.9104478 C0.537926532,88.9104478 -1.90292226e-13,88.3725212 -1.90292226e-13,87.7089552 C-1.90292226e-13,87.0453892 0.537926532,86.5074627 1.20149254,86.5074627 Z M73.2910448,86.5074627 C73.9546108,86.5074627 74.4925373,87.0453892 74.4925373,87.7089552 C74.4925373,88.3725212 73.9546108,88.9104478 73.2910448,88.9104478 C72.6274788,88.9104478 72.0895522,88.3725212 72.0895522,87.7089552 C72.0895522,87.0453892 72.6274788,86.5074627 73.2910448,86.5074627 Z M102.126866,86.5074627 C102.790432,86.5074627 103.328358,87.0453892 103.328358,87.7089552 C103.328358,88.3725212 102.790432,88.9104478 102.126866,88.9104478 C101.4633,88.9104478 100.925373,88.3725212 100.925373,87.7089552 C100.925373,87.0453892 101.4633,86.5074627 102.126866,86.5074627 Z M145.380597,86.5074627 C146.044163,86.5074627 146.58209,87.0453892 146.58209,87.7089552 C146.58209,88.3725212 146.044163,88.9104478 145.380597,88.9104478 C144.717031,88.9104478 144.179104,88.3725212 144.179104,87.7089552 C144.179104,87.0453892 144.717031,86.5074627 145.380597,86.5074627 Z M58.8731343,86.5074627 C59.5367003,86.5074627 60.0746269,87.0453892 60.0746269,87.7089552 C60.0746269,88.3725212 59.5367003,88.9104478 58.8731343,88.9104478 C58.2095683,88.9104478 57.6716418,88.3725212 57.6716418,87.7089552 C57.6716418,87.0453892 58.2095683,86.5074627 58.8731343,86.5074627 Z M15.619403,86.5074627 C16.282969,86.5074627 16.8208955,87.0453892 16.8208955,87.7089552 C16.8208955,88.3725212 16.282969,88.9104478 15.619403,88.9104478 C14.955837,88.9104478 14.4179104,88.3725212 14.4179104,87.7089552 C14.4179104,87.0453892 14.955837,86.5074627 15.619403,86.5074627 Z M116.544776,86.5074627 C117.208342,86.5074627 117.746269,87.0453892 117.746269,87.7089552 C117.746269,88.3725212 117.208342,88.9104478 116.544776,88.9104478 C115.88121,88.9104478 115.343284,88.3725212 115.343284,87.7089552 C115.343284,87.0453892 115.88121,86.5074627 116.544776,86.5074627 Z M44.4552239,86.5074627 C45.1187899,86.5074627 45.6567164,87.0453892 45.6567164,87.7089552 C45.6567164,88.3725212 45.1187899,88.9104478 44.4552239,88.9104478 C43.7916579,88.9104478 43.2537313,88.3725212 43.2537313,87.7089552 C43.2537313,87.0453892 43.7916579,86.5074627 44.4552239,86.5074627 Z M130.962687,86.5074627 C131.626253,86.5074627 132.164179,87.0453892 132.164179,87.7089552 C132.164179,88.3725212 131.626253,88.9104478 130.962687,88.9104478 C130.299121,88.9104478 129.761194,88.3725212 129.761194,87.7089552 C129.761194,87.0453892 130.299121,86.5074627 130.962687,86.5074627 Z M30.0373134,86.5074627 C30.7008794,86.5074627 31.238806,87.0453892 31.238806,87.7089552 C31.238806,88.3725212 30.7008794,88.9104478 30.0373134,88.9104478 C29.3737474,88.9104478 28.8358209,88.3725212 28.8358209,87.7089552 C28.8358209,87.0453892 29.3737474,86.5074627 30.0373134,86.5074627 Z M87.7089552,86.5074627 C88.3725212,86.5074627 88.9104478,87.0453892 88.9104478,87.7089552 C88.9104478,88.3725212 88.3725212,88.9104478 87.7089552,88.9104478 C87.0453892,88.9104478 86.5074627,88.3725212 86.5074627,87.7089552 C86.5074627,87.0453892 87.0453892,86.5074627 87.7089552,86.5074627 Z M159.798507,86.5074627 C160.462073,86.5074627 161,87.0453892 161,87.7089552 C161,88.3725212 160.462073,88.9104478 159.798507,88.9104478 C159.134941,88.9104478 158.597015,88.3725212 158.597015,87.7089552 C158.597015,87.0453892 159.134941,86.5074627 159.798507,86.5074627 Z M44.4552239,72.0895522 C45.1187899,72.0895522 45.6567164,72.6274788 45.6567164,73.2910448 C45.6567164,73.9546108 45.1187899,74.4925373 44.4552239,74.4925373 C43.7916579,74.4925373 43.2537313,73.9546108 43.2537313,73.2910448 C43.2537313,72.6274788 43.7916579,72.0895522 44.4552239,72.0895522 Z M87.7089552,72.0895522 C88.3725212,72.0895522 88.9104478,72.6274788 88.9104478,73.2910448 C88.9104478,73.9546108 88.3725212,74.4925373 87.7089552,74.4925373 C87.0453892,74.4925373 86.5074627,73.9546108 86.5074627,73.2910448 C86.5074627,72.6274788 87.0453892,72.0895522 87.7089552,72.0895522 Z M1.20149254,72.0895522 C1.86505854,72.0895522 2.40298507,72.6274788 2.40298507,73.2910448 C2.40298507,73.9546108 1.86505854,74.4925373 1.20149254,74.4925373 C0.537926532,74.4925373 -1.90292226e-13,73.9546108 -1.90292226e-13,73.2910448 C-1.90292226e-13,72.6274788 0.537926532,72.0895522 1.20149254,72.0895522 Z M116.544776,72.0895522 C117.208342,72.0895522 117.746269,72.6274788 117.746269,73.2910448 C117.746269,73.9546108 117.208342,74.4925373 116.544776,74.4925373 C115.88121,74.4925373 115.343284,73.9546108 115.343284,73.2910448 C115.343284,72.6274788 115.88121,72.0895522 116.544776,72.0895522 Z M30.0373134,72.0895522 C30.7008794,72.0895522 31.238806,72.6274788 31.238806,73.2910448 C31.238806,73.9546108 30.7008794,74.4925373 30.0373134,74.4925373 C29.3737474,74.4925373 28.8358209,73.9546108 28.8358209,73.2910448 C28.8358209,72.6274788 29.3737474,72.0895522 30.0373134,72.0895522 Z M159.798507,72.0895522 C160.462073,72.0895522 161,72.6274788 161,73.2910448 C161,73.9546108 160.462073,74.4925373 159.798507,74.4925373 C159.134941,74.4925373 158.597015,73.9546108 158.597015,73.2910448 C158.597015,72.6274788 159.134941,72.0895522 159.798507,72.0895522 Z M58.8731343,72.0895522 C59.5367003,72.0895522 60.0746269,72.6274788 60.0746269,73.2910448 C60.0746269,73.9546108 59.5367003,74.4925373 58.8731343,74.4925373 C58.2095683,74.4925373 57.6716418,73.9546108 57.6716418,73.2910448 C57.6716418,72.6274788 58.2095683,72.0895522 58.8731343,72.0895522 Z M130.962687,72.0895522 C131.626253,72.0895522 132.164179,72.6274788 132.164179,73.2910448 C132.164179,73.9546108 131.626253,74.4925373 130.962687,74.4925373 C130.299121,74.4925373 129.761194,73.9546108 129.761194,73.2910448 C129.761194,72.6274788 130.299121,72.0895522 130.962687,72.0895522 Z M15.619403,72.0895522 C16.282969,72.0895522 16.8208955,72.6274788 16.8208955,73.2910448 C16.8208955,73.9546108 16.282969,74.4925373 15.619403,74.4925373 C14.955837,74.4925373 14.4179104,73.9546108 14.4179104,73.2910448 C14.4179104,72.6274788 14.955837,72.0895522 15.619403,72.0895522 Z M102.126866,72.0895522 C102.790432,72.0895522 103.328358,72.6274788 103.328358,73.2910448 C103.328358,73.9546108 102.790432,74.4925373 102.126866,74.4925373 C101.4633,74.4925373 100.925373,73.9546108 100.925373,73.2910448 C100.925373,72.6274788 101.4633,72.0895522 102.126866,72.0895522 Z M145.380597,72.0895522 C146.044163,72.0895522 146.58209,72.6274788 146.58209,73.2910448 C146.58209,73.9546108 146.044163,74.4925373 145.380597,74.4925373 C144.717031,74.4925373 144.179104,73.9546108 144.179104,73.2910448 C144.179104,72.6274788 144.717031,72.0895522 145.380597,72.0895522 Z M73.2910448,72.0895522 C73.9546108,72.0895522 74.4925373,72.6274788 74.4925373,73.2910448 C74.4925373,73.9546108 73.9546108,74.4925373 73.2910448,74.4925373 C72.6274788,74.4925373 72.0895522,73.9546108 72.0895522,73.2910448 C72.0895522,72.6274788 72.6274788,72.0895522 73.2910448,72.0895522 Z M145.380597,57.6716418 C146.044163,57.6716418 146.58209,58.2095683 146.58209,58.8731343 C146.58209,59.5367003 146.044163,60.0746269 145.380597,60.0746269 C144.717031,60.0746269 144.179104,59.5367003 144.179104,58.8731343 C144.179104,58.2095683 144.717031,57.6716418 145.380597,57.6716418 Z M130.962687,57.6716418 C131.626253,57.6716418 132.164179,58.2095683 132.164179,58.8731343 C132.164179,59.5367003 131.626253,60.0746269 130.962687,60.0746269 C130.299121,60.0746269 129.761194,59.5367003 129.761194,58.8731343 C129.761194,58.2095683 130.299121,57.6716418 130.962687,57.6716418 Z M102.126866,57.6716418 C102.790432,57.6716418 103.328358,58.2095683 103.328358,58.8731343 C103.328358,59.5367003 102.790432,60.0746269 102.126866,60.0746269 C101.4633,60.0746269 100.925373,59.5367003 100.925373,58.8731343 C100.925373,58.2095683 101.4633,57.6716418 102.126866,57.6716418 Z M159.798507,57.6716418 C160.462073,57.6716418 161,58.2095683 161,58.8731343 C161,59.5367003 160.462073,60.0746269 159.798507,60.0746269 C159.134941,60.0746269 158.597015,59.5367003 158.597015,58.8731343 C158.597015,58.2095683 159.134941,57.6716418 159.798507,57.6716418 Z M87.7089552,57.6716418 C88.3725212,57.6716418 88.9104478,58.2095683 88.9104478,58.8731343 C88.9104478,59.5367003 88.3725212,60.0746269 87.7089552,60.0746269 C87.0453892,60.0746269 86.5074627,59.5367003 86.5074627,58.8731343 C86.5074627,58.2095683 87.0453892,57.6716418 87.7089552,57.6716418 Z M15.619403,57.6716418 C16.282969,57.6716418 16.8208955,58.2095683 16.8208955,58.8731343 C16.8208955,59.5367003 16.282969,60.0746269 15.619403,60.0746269 C14.955837,60.0746269 14.4179104,59.5367003 14.4179104,58.8731343 C14.4179104,58.2095683 14.955837,57.6716418 15.619403,57.6716418 Z M58.8731343,57.6716418 C59.5367003,57.6716418 60.0746269,58.2095683 60.0746269,58.8731343 C60.0746269,59.5367003 59.5367003,60.0746269 58.8731343,60.0746269 C58.2095683,60.0746269 57.6716418,59.5367003 57.6716418,58.8731343 C57.6716418,58.2095683 58.2095683,57.6716418 58.8731343,57.6716418 Z M73.2910448,57.6716418 C73.9546108,57.6716418 74.4925373,58.2095683 74.4925373,58.8731343 C74.4925373,59.5367003 73.9546108,60.0746269 73.2910448,60.0746269 C72.6274788,60.0746269 72.0895522,59.5367003 72.0895522,58.8731343 C72.0895522,58.2095683 72.6274788,57.6716418 73.2910448,57.6716418 Z M1.20149254,57.6716418 C1.86505854,57.6716418 2.40298507,58.2095683 2.40298507,58.8731343 C2.40298507,59.5367003 1.86505854,60.0746269 1.20149254,60.0746269 C0.537926532,60.0746269 -1.90292226e-13,59.5367003 -1.90292226e-13,58.8731343 C-1.90292226e-13,58.2095683 0.537926532,57.6716418 1.20149254,57.6716418 Z M44.4552239,57.6716418 C45.1187899,57.6716418 45.6567164,58.2095683 45.6567164,58.8731343 C45.6567164,59.5367003 45.1187899,60.0746269 44.4552239,60.0746269 C43.7916579,60.0746269 43.2537313,59.5367003 43.2537313,58.8731343 C43.2537313,58.2095683 43.7916579,57.6716418 44.4552239,57.6716418 Z M30.0373134,57.6716418 C30.7008794,57.6716418 31.238806,58.2095683 31.238806,58.8731343 C31.238806,59.5367003 30.7008794,60.0746269 30.0373134,60.0746269 C29.3737474,60.0746269 28.8358209,59.5367003 28.8358209,58.8731343 C28.8358209,58.2095683 29.3737474,57.6716418 30.0373134,57.6716418 Z M116.544776,57.6716418 C117.208342,57.6716418 117.746269,58.2095683 117.746269,58.8731343 C117.746269,59.5367003 117.208342,60.0746269 116.544776,60.0746269 C115.88121,60.0746269 115.343284,59.5367003 115.343284,58.8731343 C115.343284,58.2095683 115.88121,57.6716418 116.544776,57.6716418 Z M1.20149254,43.2537313 C1.86505854,43.2537313 2.40298507,43.7916579 2.40298507,44.4552239 C2.40298507,45.1187899 1.86505854,45.6567164 1.20149254,45.6567164 C0.537926532,45.6567164 -1.90292226e-13,45.1187899 -1.90292226e-13,44.4552239 C-1.90292226e-13,43.7916579 0.537926532,43.2537313 1.20149254,43.2537313 Z M116.544776,43.2537313 C117.208342,43.2537313 117.746269,43.7916579 117.746269,44.4552239 C117.746269,45.1187899 117.208342,45.6567164 116.544776,45.6567164 C115.88121,45.6567164 115.343284,45.1187899 115.343284,44.4552239 C115.343284,43.7916579 115.88121,43.2537313 116.544776,43.2537313 Z M145.380597,43.2537313 C146.044163,43.2537313 146.58209,43.7916579 146.58209,44.4552239 C146.58209,45.1187899 146.044163,45.6567164 145.380597,45.6567164 C144.717031,45.6567164 144.179104,45.1187899 144.179104,44.4552239 C144.179104,43.7916579 144.717031,43.2537313 145.380597,43.2537313 Z M159.798507,43.2537313 C160.462073,43.2537313 161,43.7916579 161,44.4552239 C161,45.1187899 160.462073,45.6567164 159.798507,45.6567164 C159.134941,45.6567164 158.597015,45.1187899 158.597015,44.4552239 C158.597015,43.7916579 159.134941,43.2537313 159.798507,43.2537313 Z M87.7089552,43.2537313 C88.3725212,43.2537313 88.9104478,43.7916579 88.9104478,44.4552239 C88.9104478,45.1187899 88.3725212,45.6567164 87.7089552,45.6567164 C87.0453892,45.6567164 86.5074627,45.1187899 86.5074627,44.4552239 C86.5074627,43.7916579 87.0453892,43.2537313 87.7089552,43.2537313 Z M44.4552239,43.2537313 C45.1187899,43.2537313 45.6567164,43.7916579 45.6567164,44.4552239 C45.6567164,45.1187899 45.1187899,45.6567164 44.4552239,45.6567164 C43.7916579,45.6567164 43.2537313,45.1187899 43.2537313,44.4552239 C43.2537313,43.7916579 43.7916579,43.2537313 44.4552239,43.2537313 Z M15.619403,43.2537313 C16.282969,43.2537313 16.8208955,43.7916579 16.8208955,44.4552239 C16.8208955,45.1187899 16.282969,45.6567164 15.619403,45.6567164 C14.955837,45.6567164 14.4179104,45.1187899 14.4179104,44.4552239 C14.4179104,43.7916579 14.955837,43.2537313 15.619403,43.2537313 Z M130.962687,43.2537313 C131.626253,43.2537313 132.164179,43.7916579 132.164179,44.4552239 C132.164179,45.1187899 131.626253,45.6567164 130.962687,45.6567164 C130.299121,45.6567164 129.761194,45.1187899 129.761194,44.4552239 C129.761194,43.7916579 130.299121,43.2537313 130.962687,43.2537313 Z M102.126866,43.2537313 C102.790432,43.2537313 103.328358,43.7916579 103.328358,44.4552239 C103.328358,45.1187899 102.790432,45.6567164 102.126866,45.6567164 C101.4633,45.6567164 100.925373,45.1187899 100.925373,44.4552239 C100.925373,43.7916579 101.4633,43.2537313 102.126866,43.2537313 Z M58.8731343,43.2537313 C59.5367003,43.2537313 60.0746269,43.7916579 60.0746269,44.4552239 C60.0746269,45.1187899 59.5367003,45.6567164 58.8731343,45.6567164 C58.2095683,45.6567164 57.6716418,45.1187899 57.6716418,44.4552239 C57.6716418,43.7916579 58.2095683,43.2537313 58.8731343,43.2537313 Z M30.0373134,43.2537313 C30.7008794,43.2537313 31.238806,43.7916579 31.238806,44.4552239 C31.238806,45.1187899 30.7008794,45.6567164 30.0373134,45.6567164 C29.3737474,45.6567164 28.8358209,45.1187899 28.8358209,44.4552239 C28.8358209,43.7916579 29.3737474,43.2537313 30.0373134,43.2537313 Z M73.2910448,43.2537313 C73.9546108,43.2537313 74.4925373,43.7916579 74.4925373,44.4552239 C74.4925373,45.1187899 73.9546108,45.6567164 73.2910448,45.6567164 C72.6274788,45.6567164 72.0895522,45.1187899 72.0895522,44.4552239 C72.0895522,43.7916579 72.6274788,43.2537313 73.2910448,43.2537313 Z M15.619403,28.8358209 C16.282969,28.8358209 16.8208955,29.3737474 16.8208955,30.0373134 C16.8208955,30.7008794 16.282969,31.238806 15.619403,31.238806 C14.955837,31.238806 14.4179104,30.7008794 14.4179104,30.0373134 C14.4179104,29.3737474 14.955837,28.8358209 15.619403,28.8358209 Z M73.2910448,28.8358209 C73.9546108,28.8358209 74.4925373,29.3737474 74.4925373,30.0373134 C74.4925373,30.7008794 73.9546108,31.238806 73.2910448,31.238806 C72.6274788,31.238806 72.0895522,30.7008794 72.0895522,30.0373134 C72.0895522,29.3737474 72.6274788,28.8358209 73.2910448,28.8358209 Z M145.380597,28.8358209 C146.044163,28.8358209 146.58209,29.3737474 146.58209,30.0373134 C146.58209,30.7008794 146.044163,31.238806 145.380597,31.238806 C144.717031,31.238806 144.179104,30.7008794 144.179104,30.0373134 C144.179104,29.3737474 144.717031,28.8358209 145.380597,28.8358209 Z M30.0373134,28.8358209 C30.7008794,28.8358209 31.238806,29.3737474 31.238806,30.0373134 C31.238806,30.7008794 30.7008794,31.238806 30.0373134,31.238806 C29.3737474,31.238806 28.8358209,30.7008794 28.8358209,30.0373134 C28.8358209,29.3737474 29.3737474,28.8358209 30.0373134,28.8358209 Z M87.7089552,28.8358209 C88.3725212,28.8358209 88.9104478,29.3737474 88.9104478,30.0373134 C88.9104478,30.7008794 88.3725212,31.238806 87.7089552,31.238806 C87.0453892,31.238806 86.5074627,30.7008794 86.5074627,30.0373134 C86.5074627,29.3737474 87.0453892,28.8358209 87.7089552,28.8358209 Z M44.4552239,28.8358209 C45.1187899,28.8358209 45.6567164,29.3737474 45.6567164,30.0373134 C45.6567164,30.7008794 45.1187899,31.238806 44.4552239,31.238806 C43.7916579,31.238806 43.2537313,30.7008794 43.2537313,30.0373134 C43.2537313,29.3737474 43.7916579,28.8358209 44.4552239,28.8358209 Z M130.962687,28.8358209 C131.626253,28.8358209 132.164179,29.3737474 132.164179,30.0373134 C132.164179,30.7008794 131.626253,31.238806 130.962687,31.238806 C130.299121,31.238806 129.761194,30.7008794 129.761194,30.0373134 C129.761194,29.3737474 130.299121,28.8358209 130.962687,28.8358209 Z M159.798507,28.8358209 C160.462073,28.8358209 161,29.3737474 161,30.0373134 C161,30.7008794 160.462073,31.238806 159.798507,31.238806 C159.134941,31.238806 158.597015,30.7008794 158.597015,30.0373134 C158.597015,29.3737474 159.134941,28.8358209 159.798507,28.8358209 Z M58.8731343,28.8358209 C59.5367003,28.8358209 60.0746269,29.3737474 60.0746269,30.0373134 C60.0746269,30.7008794 59.5367003,31.238806 58.8731343,31.238806 C58.2095683,31.238806 57.6716418,30.7008794 57.6716418,30.0373134 C57.6716418,29.3737474 58.2095683,28.8358209 58.8731343,28.8358209 Z M116.544776,28.8358209 C117.208342,28.8358209 117.746269,29.3737474 117.746269,30.0373134 C117.746269,30.7008794 117.208342,31.238806 116.544776,31.238806 C115.88121,31.238806 115.343284,30.7008794 115.343284,30.0373134 C115.343284,29.3737474 115.88121,28.8358209 116.544776,28.8358209 Z M1.20149254,28.8358209 C1.86505854,28.8358209 2.40298507,29.3737474 2.40298507,30.0373134 C2.40298507,30.7008794 1.86505854,31.238806 1.20149254,31.238806 C0.537926532,31.238806 -1.90292226e-13,30.7008794 -1.90292226e-13,30.0373134 C-1.90292226e-13,29.3737474 0.537926532,28.8358209 1.20149254,28.8358209 Z M102.126866,28.8358209 C102.790432,28.8358209 103.328358,29.3737474 103.328358,30.0373134 C103.328358,30.7008794 102.790432,31.238806 102.126866,31.238806 C101.4633,31.238806 100.925373,30.7008794 100.925373,30.0373134 C100.925373,29.3737474 101.4633,28.8358209 102.126866,28.8358209 Z M1.20149254,14.4179104 C1.86505854,14.4179104 2.40298507,14.955837 2.40298507,15.619403 C2.40298507,16.282969 1.86505854,16.8208955 1.20149254,16.8208955 C0.537926532,16.8208955 -1.90292226e-13,16.282969 -1.90292226e-13,15.619403 C-1.90292226e-13,14.955837 0.537926532,14.4179104 1.20149254,14.4179104 Z M116.544776,14.4179104 C117.208342,14.4179104 117.746269,14.955837 117.746269,15.619403 C117.746269,16.282969 117.208342,16.8208955 116.544776,16.8208955 C115.88121,16.8208955 115.343284,16.282969 115.343284,15.619403 C115.343284,14.955837 115.88121,14.4179104 116.544776,14.4179104 Z M159.798507,14.4179104 C160.462073,14.4179104 161,14.955837 161,15.619403 C161,16.282969 160.462073,16.8208955 159.798507,16.8208955 C159.134941,16.8208955 158.597015,16.282969 158.597015,15.619403 C158.597015,14.955837 159.134941,14.4179104 159.798507,14.4179104 Z M44.4552239,14.4179104 C45.1187899,14.4179104 45.6567164,14.955837 45.6567164,15.619403 C45.6567164,16.282969 45.1187899,16.8208955 44.4552239,16.8208955 C43.7916579,16.8208955 43.2537313,16.282969 43.2537313,15.619403 C43.2537313,14.955837 43.7916579,14.4179104 44.4552239,14.4179104 Z M73.2910448,14.4179104 C73.9546108,14.4179104 74.4925373,14.955837 74.4925373,15.619403 C74.4925373,16.282969 73.9546108,16.8208955 73.2910448,16.8208955 C72.6274788,16.8208955 72.0895522,16.282969 72.0895522,15.619403 C72.0895522,14.955837 72.6274788,14.4179104 73.2910448,14.4179104 Z M58.8731343,14.4179104 C59.5367003,14.4179104 60.0746269,14.955837 60.0746269,15.619403 C60.0746269,16.282969 59.5367003,16.8208955 58.8731343,16.8208955 C58.2095683,16.8208955 57.6716418,16.282969 57.6716418,15.619403 C57.6716418,14.955837 58.2095683,14.4179104 58.8731343,14.4179104 Z M15.619403,14.4179104 C16.282969,14.4179104 16.8208955,14.955837 16.8208955,15.619403 C16.8208955,16.282969 16.282969,16.8208955 15.619403,16.8208955 C14.955837,16.8208955 14.4179104,16.282969 14.4179104,15.619403 C14.4179104,14.955837 14.955837,14.4179104 15.619403,14.4179104 Z M30.0373134,14.4179104 C30.7008794,14.4179104 31.238806,14.955837 31.238806,15.619403 C31.238806,16.282969 30.7008794,16.8208955 30.0373134,16.8208955 C29.3737474,16.8208955 28.8358209,16.282969 28.8358209,15.619403 C28.8358209,14.955837 29.3737474,14.4179104 30.0373134,14.4179104 Z M102.126866,14.4179104 C102.790432,14.4179104 103.328358,14.955837 103.328358,15.619403 C103.328358,16.282969 102.790432,16.8208955 102.126866,16.8208955 C101.4633,16.8208955 100.925373,16.282969 100.925373,15.619403 C100.925373,14.955837 101.4633,14.4179104 102.126866,14.4179104 Z M145.380597,14.4179104 C146.044163,14.4179104 146.58209,14.955837 146.58209,15.619403 C146.58209,16.282969 146.044163,16.8208955 145.380597,16.8208955 C144.717031,16.8208955 144.179104,16.282969 144.179104,15.619403 C144.179104,14.955837 144.717031,14.4179104 145.380597,14.4179104 Z M130.962687,14.4179104 C131.626253,14.4179104 132.164179,14.955837 132.164179,15.619403 C132.164179,16.282969 131.626253,16.8208955 130.962687,16.8208955 C130.299121,16.8208955 129.761194,16.282969 129.761194,15.619403 C129.761194,14.955837 130.299121,14.4179104 130.962687,14.4179104 Z M87.7089552,14.4179104 C88.3725212,14.4179104 88.9104478,14.955837 88.9104478,15.619403 C88.9104478,16.282969 88.3725212,16.8208955 87.7089552,16.8208955 C87.0453892,16.8208955 86.5074627,16.282969 86.5074627,15.619403 C86.5074627,14.955837 87.0453892,14.4179104 87.7089552,14.4179104 Z M1.20149254,-1.90292226e-13 C1.86505854,-1.90292226e-13 2.40298507,0.537926532 2.40298507,1.20149254 C2.40298507,1.86505854 1.86505854,2.40298507 1.20149254,2.40298507 C0.537926532,2.40298507 -1.90292226e-13,1.86505854 -1.90292226e-13,1.20149254 C-1.90292226e-13,0.537926532 0.537926532,-1.90292226e-13 1.20149254,-1.90292226e-13 Z M87.7089552,-1.90292226e-13 C88.3725212,-1.90292226e-13 88.9104478,0.537926532 88.9104478,1.20149254 C88.9104478,1.86505854 88.3725212,2.40298507 87.7089552,2.40298507 C87.0453892,2.40298507 86.5074627,1.86505854 86.5074627,1.20149254 C86.5074627,0.537926532 87.0453892,-1.90292226e-13 87.7089552,-1.90292226e-13 Z M15.619403,-1.90292226e-13 C16.282969,-1.90292226e-13 16.8208955,0.537926532 16.8208955,1.20149254 C16.8208955,1.86505854 16.282969,2.40298507 15.619403,2.40298507 C14.955837,2.40298507 14.4179104,1.86505854 14.4179104,1.20149254 C14.4179104,0.537926532 14.955837,-1.90292226e-13 15.619403,-1.90292226e-13 Z M102.126866,-1.90292226e-13 C102.790432,-1.90292226e-13 103.328358,0.537926532 103.328358,1.20149254 C103.328358,1.86505854 102.790432,2.40298507 102.126866,2.40298507 C101.4633,2.40298507 100.925373,1.86505854 100.925373,1.20149254 C100.925373,0.537926532 101.4633,-1.90292226e-13 102.126866,-1.90292226e-13 Z M30.0373134,-1.90292226e-13 C30.7008794,-1.90292226e-13 31.238806,0.537926532 31.238806,1.20149254 C31.238806,1.86505854 30.7008794,2.40298507 30.0373134,2.40298507 C29.3737474,2.40298507 28.8358209,1.86505854 28.8358209,1.20149254 C28.8358209,0.537926532 29.3737474,-1.90292226e-13 30.0373134,-1.90292226e-13 Z M116.544776,-1.90292226e-13 C117.208342,-1.90292226e-13 117.746269,0.537926532 117.746269,1.20149254 C117.746269,1.86505854 117.208342,2.40298507 116.544776,2.40298507 C115.88121,2.40298507 115.343284,1.86505854 115.343284,1.20149254 C115.343284,0.537926532 115.88121,-1.90292226e-13 116.544776,-1.90292226e-13 Z M44.4552239,-1.90292226e-13 C45.1187899,-1.90292226e-13 45.6567164,0.537926532 45.6567164,1.20149254 C45.6567164,1.86505854 45.1187899,2.40298507 44.4552239,2.40298507 C43.7916579,2.40298507 43.2537313,1.86505854 43.2537313,1.20149254 C43.2537313,0.537926532 43.7916579,-1.90292226e-13 44.4552239,-1.90292226e-13 Z M130.962687,-1.90292226e-13 C131.626253,-1.90292226e-13 132.164179,0.537926532 132.164179,1.20149254 C132.164179,1.86505854 131.626253,2.40298507 130.962687,2.40298507 C130.299121,2.40298507 129.761194,1.86505854 129.761194,1.20149254 C129.761194,0.537926532 130.299121,-1.90292226e-13 130.962687,-1.90292226e-13 Z M58.8731343,-1.90292226e-13 C59.5367003,-1.90292226e-13 60.0746269,0.537926532 60.0746269,1.20149254 C60.0746269,1.86505854 59.5367003,2.40298507 58.8731343,2.40298507 C58.2095683,2.40298507 57.6716418,1.86505854 57.6716418,1.20149254 C57.6716418,0.537926532 58.2095683,-1.90292226e-13 58.8731343,-1.90292226e-13 Z M73.2910448,-1.90292226e-13 C73.9546108,-1.90292226e-13 74.4925373,0.537926532 74.4925373,1.20149254 C74.4925373,1.86505854 73.9546108,2.40298507 73.2910448,2.40298507 C72.6274788,2.40298507 72.0895522,1.86505854 72.0895522,1.20149254 C72.0895522,0.537926532 72.6274788,-1.90292226e-13 73.2910448,-1.90292226e-13 Z M145.380597,-1.90292226e-13 C146.044163,-1.90292226e-13 146.58209,0.537926532 146.58209,1.20149254 C146.58209,1.86505854 146.044163,2.40298507 145.380597,2.40298507 C144.717031,2.40298507 144.179104,1.86505854 144.179104,1.20149254 C144.179104,0.537926532 144.717031,-1.90292226e-13 145.380597,-1.90292226e-13 Z M159.798507,-1.90292226e-13 C160.462073,-1.90292226e-13 161,0.537926532 161,1.20149254 C161,1.86505854 160.462073,2.40298507 159.798507,2.40298507 C159.134941,2.40298507 158.597015,1.86505854 158.597015,1.20149254 C158.597015,0.537926532 159.134941,-1.90292226e-13 159.798507,-1.90292226e-13 Z"></path>
                </g>
            </g>
        </g>
    </g>
</svg>