<?xml version="1.0" encoding="UTF-8"?>
<svg width="240px" height="160px" viewBox="0 0 240 160" version="1.1" xmlns="http://www.w3.org/2000/svg" xmlns:xlink="http://www.w3.org/1999/xlink">
    <title>iocns/pattern-4</title>
    <g id="iocns/pattern-4" stroke="none" stroke-width="1" fill="none" fill-rule="evenodd">
        <path d="M210,62 C226.568542,62 240,75.4314575 240,92 C240,108.568542 226.568542,122 210,122 C193.431458,122 180,108.568542 180,92 C180,75.4314575 193.431458,62 210,62 Z" id="Oval-Copy" fill="#FB7268" opacity="0.3"></path>
        <g id="iocns/pattern-circle" transform="translate(80.000000, 80.000000) scale(-1, -1) translate(-80.000000, -80.000000) " fill="#6899E4" fill-opacity="0.3">
            <path d="M79.6883117,156.051948 C80.5490152,156.051948 81.2467532,156.749686 81.2467532,157.61039 C81.2467532,158.471093 80.5490152,159.168831 79.6883117,159.168831 C78.8276082,159.168831 78.1298701,158.471093 78.1298701,157.61039 C78.1298701,156.749686 78.8276082,156.051948 79.6883117,156.051948 Z M96.0863537,155.881377 C96.2505837,156.726267 95.6987997,157.54432 94.8539098,157.70855 C94.0090198,157.87278 93.1909665,157.320996 93.0267365,156.476106 C92.8625065,155.631216 93.4142905,154.813163 94.2591804,154.648933 C95.1040704,154.484703 95.9221237,155.036487 96.0863537,155.881377 Z M64.4638512,154.518925 C65.3072759,154.690522 65.8519,155.51336 65.6803034,156.356784 C65.5087067,157.200209 64.6858693,157.744833 63.8424447,157.573236 C62.9990201,157.40164 62.4543959,156.578802 62.6259926,155.735378 C62.7975893,154.891953 63.6204266,154.347329 64.4638512,154.518925 Z M50.4652132,150.239112 C51.2603996,150.568489 51.6380127,151.480128 51.3086357,152.275314 C50.9792587,153.070501 50.06762,153.448114 49.2724337,153.118737 C48.4772473,152.78936 48.0996342,151.877721 48.4290112,151.082535 C48.7583882,150.287348 49.6700269,149.909735 50.4652132,150.239112 Z M110.947612,151.082535 C111.276989,151.877721 110.899376,152.78936 110.10419,153.118737 C109.309003,153.448114 108.397365,153.070501 108.067988,152.275314 C107.738611,151.480128 108.116224,150.568489 108.91141,150.239112 C109.706597,149.909735 110.618235,150.287348 110.947612,151.082535 Z M123.995951,143.806266 C124.471005,144.523995 124.274278,145.490936 123.55655,145.96599 C122.838822,146.441044 121.87188,146.244318 121.396826,145.526589 C120.921772,144.808861 121.118498,143.841919 121.836227,143.366865 C122.553955,142.891811 123.520897,143.088538 123.995951,143.806266 Z M36.9863082,142.996635 C37.6998637,143.477935 37.8881446,144.446556 37.4068453,145.160111 C36.925546,145.873667 35.9569248,146.061948 35.2433692,145.580649 C34.5298137,145.099349 34.3415328,144.130728 34.8228321,143.417173 C35.3041314,142.703617 36.2727526,142.515336 36.9863082,142.996635 Z M79.6883117,140.467532 C80.5490152,140.467532 81.2467532,141.165271 81.2467532,142.025974 C81.2467532,142.886678 80.5490152,143.584416 79.6883117,143.584416 C78.8276082,143.584416 78.1298701,142.886678 78.1298701,142.025974 C78.1298701,141.165271 78.8276082,140.467532 79.6883117,140.467532 Z M93.112707,140.583291 C93.276937,141.428181 92.725153,142.246234 91.8802631,142.410464 C91.0353731,142.574694 90.2173198,142.02291 90.0530898,141.17802 C89.8888598,140.33313 90.4406438,139.515077 91.2855337,139.350847 C92.1304237,139.186617 92.948477,139.738401 93.112707,140.583291 Z M67.570884,139.247372 C68.4143086,139.418968 68.9589328,140.241806 68.7873361,141.08523 C68.6157394,141.928655 67.7929021,142.473279 66.9494774,142.301682 C66.1060528,142.130086 65.5614286,141.307248 65.7330253,140.463824 C65.904622,139.620399 66.7274594,139.075775 67.570884,139.247372 Z M104.983715,136.684412 C105.313092,137.479599 104.935478,138.391237 104.140292,138.720614 C103.345106,139.049991 102.433467,138.672378 102.10409,137.877192 C101.774713,137.082005 102.152326,136.170367 102.947513,135.84099 C103.742699,135.511613 104.654338,135.889226 104.983715,136.684412 Z M56.4291109,135.84099 C57.2242972,136.170367 57.6019103,137.082005 57.2725334,137.877192 C56.9431564,138.672378 56.0315177,139.049991 55.2363313,138.720614 C54.441145,138.391237 54.0635319,137.479599 54.3929088,136.684412 C54.7222858,135.889226 55.6339245,135.511613 56.4291109,135.84099 Z M25.6910666,133.685557 C26.2996759,134.294166 26.2996759,135.280917 25.6910666,135.889526 C25.0824573,136.498135 24.0957067,136.498135 23.4870974,135.889526 C22.8784881,135.280917 22.8784881,134.294166 23.4870974,133.685557 C24.0957067,133.076948 25.0824573,133.076948 25.6910666,133.685557 Z M135.889526,133.685557 C136.498135,134.294166 136.498135,135.280917 135.889526,135.889526 C135.280917,136.498135 134.294166,136.498135 133.685557,135.889526 C133.076948,135.280917 133.076948,134.294166 133.685557,133.685557 C134.294166,133.076948 135.280917,133.076948 135.889526,133.685557 Z M115.394335,130.810643 C115.86939,131.528371 115.672663,132.495313 114.954935,132.970367 C114.237206,133.445421 113.270265,133.248694 112.795211,132.530966 C112.320157,131.813238 112.516883,130.846296 113.234612,130.371242 C113.95234,129.896188 114.919281,130.092915 115.394335,130.810643 Z M45.7010028,130.076569 C46.4145583,130.557869 46.6028392,131.52649 46.1215399,132.240045 C45.6402406,132.953601 44.6716194,133.141882 43.9580638,132.660583 C43.2445083,132.179283 43.0562274,131.210662 43.5375267,130.497106 C44.018826,129.783551 44.9874472,129.59527 45.7010028,130.076569 Z M79.6883117,124.883117 C80.5490152,124.883117 81.2467532,125.580855 81.2467532,126.441558 C81.2467532,127.302262 80.5490152,128 79.6883117,128 C78.8276082,128 78.1298701,127.302262 78.1298701,126.441558 C78.1298701,125.580855 78.8276082,124.883117 79.6883117,124.883117 Z M90.201201,125.291462 C90.365431,126.136352 89.813647,126.954405 88.9687571,127.118635 C88.1238671,127.282865 87.3058138,126.731081 87.1415838,125.886192 C86.9773538,125.041302 87.5291378,124.223248 88.3740277,124.059018 C89.2189177,123.894788 90.036971,124.446572 90.201201,125.291462 Z M70.7400574,123.982075 C71.583482,124.153672 72.1281062,124.976509 71.9565095,125.819934 C71.7849128,126.663358 70.9620755,127.207983 70.1186508,127.036386 C69.2752262,126.864789 68.730602,126.041952 68.9021987,125.198527 C69.0737954,124.355103 69.8966328,123.810478 70.7400574,123.982075 Z M36.7109125,122.665711 C37.3195218,123.27432 37.3195218,124.261071 36.7109125,124.86968 C36.1023032,125.478289 35.1155526,125.478289 34.5069433,124.86968 C33.898334,124.261071 33.898334,123.27432 34.5069433,122.665711 C35.1155526,122.057102 36.1023032,122.057102 36.7109125,122.665711 Z M124.86968,122.665711 C125.478289,123.27432 125.478289,124.261071 124.86968,124.86968 C124.261071,125.478289 123.27432,125.478289 122.665711,124.86968 C122.057102,124.261071 122.057102,123.27432 122.665711,122.665711 C123.27432,122.057102 124.261071,122.057102 124.86968,122.665711 Z M145.160111,121.969778 C145.873667,122.451077 146.061948,123.419699 145.580649,124.133254 C145.099349,124.84681 144.130728,125.035091 143.417173,124.553791 C142.703617,124.072492 142.515336,123.103871 142.996635,122.390315 C143.477935,121.67676 144.446556,121.488479 145.160111,121.969778 Z M99.0198169,122.28629 C99.3491939,123.081476 98.9715807,123.993115 98.1763944,124.322492 C97.381208,124.651869 96.4695693,124.274256 96.1401924,123.479069 C95.8108154,122.683883 96.1884285,121.772244 96.9836149,121.442867 C97.7788012,121.11349 98.6904399,121.491103 99.0198169,122.28629 Z M62.3930085,121.442867 C63.1881949,121.772244 63.565808,122.683883 63.236431,123.479069 C62.907054,124.274256 61.9954153,124.651869 61.200229,124.322492 C60.4050426,123.993115 60.0274295,123.081476 60.3568065,122.28629 C60.6861835,121.491103 61.5978222,121.11349 62.3930085,121.442867 Z M16.009758,121.836227 C16.4848121,122.553955 16.2880857,123.520897 15.5703572,123.995951 C14.8526288,124.471005 13.8856875,124.274278 13.4106334,123.55655 C12.9355793,122.838822 13.1323057,121.87188 13.8500341,121.396826 C14.5677626,120.921772 15.5347039,121.118498 16.009758,121.836227 Z M106.854861,117.821277 C107.329915,118.539005 107.133188,119.505947 106.41546,119.981001 C105.697731,120.456055 104.73079,120.259329 104.255736,119.5416 C103.780682,118.823872 103.977408,117.85693 104.695137,117.381876 C105.412865,116.906822 106.379807,117.103549 106.854861,117.821277 Z M54.477838,117.162761 C55.1913935,117.64406 55.3796744,118.612681 54.8983752,119.326237 C54.4170759,120.039792 53.4484546,120.228073 52.7348991,119.746774 C52.0213435,119.265474 51.8330626,118.296853 52.3143619,117.583298 C52.7956612,116.869742 53.7642825,116.681461 54.477838,117.162761 Z M132.240045,113.255083 C132.953601,113.736383 133.141882,114.705004 132.660583,115.41856 C132.179283,116.132115 131.210662,116.320396 130.497106,115.839097 C129.783551,115.357797 129.59527,114.389176 130.076569,113.675621 C130.557869,112.962065 131.52649,112.773784 132.240045,113.255083 Z M29.0053812,113.234612 C29.4804353,113.95234 29.2837089,114.919281 28.5659804,115.394335 C27.848252,115.86939 26.8813107,115.672663 26.4062566,114.954935 C25.9312025,114.237206 26.1279289,113.270265 26.8456573,112.795211 C27.5633858,112.320157 28.5303271,112.516883 29.0053812,113.234612 Z M113.849834,111.645865 C114.458443,112.254474 114.458443,113.241225 113.849834,113.849834 C113.241225,114.458443 112.254474,114.458443 111.645865,113.849834 C111.037256,113.241225 111.037256,112.254474 111.645865,111.645865 C112.254474,111.037256 113.241225,111.037256 113.849834,111.645865 Z M47.7307585,111.645865 C48.3393677,112.254474 48.3393677,113.241225 47.7307585,113.849834 C47.1221492,114.458443 46.1353986,114.458443 45.5267893,113.849834 C44.91818,113.241225 44.91818,112.254474 45.5267893,111.645865 C46.1353986,111.037256 47.1221492,111.037256 47.7307585,111.645865 Z M79.6883117,109.298701 C80.5490152,109.298701 81.2467532,109.996439 81.2467532,110.857143 C81.2467532,111.717846 80.5490152,112.415584 79.6883117,112.415584 C78.8276082,112.415584 78.1298701,111.717846 78.1298701,110.857143 C78.1298701,109.996439 78.8276082,109.298701 79.6883117,109.298701 Z M86.9075365,109.986411 C87.0643872,110.832702 86.5054855,111.645909 85.6591946,111.80276 C84.8129036,111.95961 83.9996966,111.400709 83.8428458,110.554418 C83.6859951,109.708127 84.2448968,108.89492 85.0911877,108.738069 C85.9374787,108.581218 86.7506857,109.14012 86.9075365,109.986411 Z M73.5387767,108.58684 C74.3806717,108.76579 74.9180946,109.593349 74.7391443,110.435244 C74.560194,111.277139 73.7326353,111.814562 72.8907402,111.635611 C72.0488451,111.456661 71.5114222,110.629102 71.6903726,109.787207 C71.8693229,108.945312 72.6968816,108.407889 73.5387767,108.58684 Z M152.275314,108.067988 C153.070501,108.397365 153.448114,109.309003 153.118737,110.10419 C152.78936,110.899376 151.877721,111.276989 151.082535,110.947612 C150.287348,110.618235 149.909735,109.706597 150.239112,108.91141 C150.568489,108.116224 151.480128,107.738611 152.275314,108.067988 Z M9.13751102,108.91141 C9.466888,109.706597 9.08927488,110.618235 8.29408853,110.947612 C7.49890218,111.276989 6.58726348,110.899376 6.25788651,110.10419 C5.92850953,109.309003 6.30612265,108.397365 7.101309,108.067988 C7.89649535,107.738611 8.80813405,108.116224 9.13751102,108.91141 Z M93.0559192,107.888167 C93.3852962,108.683353 93.0076831,109.594992 92.2124967,109.924369 C91.4173104,110.253746 90.5056717,109.876133 90.1762947,109.080947 C89.8469178,108.28576 90.2245309,107.374122 91.0197172,107.044745 C91.8149036,106.715368 92.7265423,107.092981 93.0559192,107.888167 Z M68.3569062,107.044745 C69.1520925,107.374122 69.5297056,108.28576 69.2003287,109.080947 C68.8709517,109.876133 67.959313,110.253746 67.1641266,109.924369 C66.3689403,109.594992 65.9913272,108.683353 66.3207041,107.888167 C66.6500811,107.092981 67.5617198,106.715368 68.3569062,107.044745 Z M119.38212,104.546646 C120.095676,105.027945 120.283956,105.996567 119.802657,106.710122 C119.321358,107.423678 118.352737,107.611959 117.639181,107.130659 C116.925626,106.64936 116.737345,105.680739 117.218644,104.967183 C117.699943,104.253628 118.668564,104.065347 119.38212,104.546646 Z M97.977904,104.915101 C98.4466768,105.636948 98.2415198,106.602136 97.5196731,107.070908 C96.7978264,107.539681 95.8326386,107.334524 95.3638659,106.612677 C94.8950932,105.890831 95.1002502,104.925643 95.8220968,104.45687 C96.5439435,103.988098 97.5091313,104.193255 97.977904,104.915101 Z M42.0631451,104.639253 C42.5381992,105.356982 42.3414727,106.323923 41.6237443,106.798977 C40.9060158,107.274031 39.9390745,107.077305 39.4640204,106.359577 C38.9889663,105.641848 39.1856928,104.674907 39.9034212,104.199853 C40.6211497,103.724799 41.588091,103.921525 42.0631451,104.639253 Z M62.9236135,104.026206 C63.6329418,104.513713 63.8127628,105.483941 63.325255,106.193269 C62.8377471,106.902597 61.8675197,107.082418 61.1581914,106.594911 C60.4488631,106.107403 60.2690421,105.137175 60.75655,104.427847 C61.2440578,103.718519 62.2142852,103.538698 62.9236135,104.026206 Z M137.877192,102.10409 C138.672378,102.433467 139.049991,103.345106 138.720614,104.140292 C138.391237,104.935478 137.479599,105.313092 136.684412,104.983715 C135.889226,104.654338 135.511613,103.742699 135.84099,102.947513 C136.170367,102.152326 137.082005,101.774713 137.877192,102.10409 Z M23.5356336,102.947513 C23.8650106,103.742699 23.4873975,104.654338 22.6922111,104.983715 C21.8970248,105.313092 20.9853861,104.935478 20.6560091,104.140292 C20.3266321,103.345106 20.7042452,102.433467 21.4994316,102.10409 C22.2946179,101.774713 23.2062566,102.152326 23.5356336,102.947513 Z M58.7506044,100.626019 C59.3592137,101.234628 59.3592137,102.221379 58.7506044,102.829988 C58.1419951,103.438597 57.1552445,103.438597 56.5466352,102.829988 C55.9380259,102.221379 55.9380259,101.234628 56.5466352,100.626019 C57.1552445,100.01741 58.1419951,100.01741 58.7506044,100.626019 Z M102.829988,100.626019 C103.438597,101.234628 103.438597,102.221379 102.829988,102.829988 C102.221379,103.438597 101.234628,103.438597 100.626019,102.829988 C100.01741,102.221379 100.01741,101.234628 100.626019,100.626019 C101.234628,100.01741 102.221379,100.01741 102.829988,100.626019 Z M37.9337562,96.9836149 C38.2631332,97.7788012 37.8855201,98.6904399 37.0903337,99.0198169 C36.2951473,99.3491939 35.3835086,98.9715807 35.0541317,98.1763944 C34.7247547,97.381208 35.1023678,96.4695693 35.8975542,96.1401924 C36.6927405,95.8108154 37.6043792,96.1884285 37.9337562,96.9836149 Z M123.479069,96.1401924 C124.274256,96.4695693 124.651869,97.381208 124.322492,98.1763944 C123.993115,98.9715807 123.081476,99.3491939 122.28629,99.0198169 C121.491103,98.6904399 121.11349,97.7788012 121.442867,96.9836149 C121.772244,96.1884285 122.683883,95.8108154 123.479069,96.1401924 Z M106.264884,95.9933759 C106.974212,96.4808837 107.154033,97.4511111 106.666525,98.1604394 C106.179018,98.8697677 105.20879,99.0495888 104.499462,98.5620809 C103.790134,98.0745731 103.610313,97.1043457 104.09782,96.3950174 C104.585328,95.6856891 105.555556,95.5058681 106.264884,95.9933759 Z M54.8617606,95.7504821 C55.3305333,96.4723288 55.1253763,97.4375165 54.4035296,97.9062892 C53.6816829,98.375062 52.7164951,98.169905 52.2477224,97.4480583 C51.7789497,96.7262116 51.9841067,95.7610238 52.7059534,95.2922511 C53.4278001,94.8234784 54.3929878,95.0286354 54.8617606,95.7504821 Z M79.6883117,93.7142857 C80.5490152,93.7142857 81.2467532,94.4120238 81.2467532,95.2727273 C81.2467532,96.1334308 80.5490152,96.8311688 79.6883117,96.8311688 C78.8276082,96.8311688 78.1298701,96.1334308 78.1298701,95.2727273 C78.1298701,94.4120238 78.8276082,93.7142857 79.6883117,93.7142857 Z M156.356784,93.69632 C157.200209,93.8679167 157.744833,94.6907541 157.573236,95.5341787 C157.40164,96.3776033 156.578802,96.9222275 155.735378,96.7506308 C154.891953,96.5790341 154.347329,95.7561968 154.518925,94.9127721 C154.690522,94.0693475 155.51336,93.5247233 156.356784,93.69632 Z M4.72769041,94.2591804 C4.89192038,95.1040704 4.34013644,95.9221237 3.49524648,96.0863537 C2.65035652,96.2505837 1.83230318,95.6987997 1.66807321,94.8539098 C1.50384324,94.0090198 2.05562718,93.1909665 2.90051714,93.0267365 C3.7454071,92.8625065 4.56346044,93.4142905 4.72769041,94.2591804 Z M74.3208038,92.646622 C75.1159902,92.975999 75.4936033,93.8876377 75.1642263,94.682824 C74.8348493,95.4780104 73.9232106,95.8556235 73.1280243,95.5262465 C72.3328379,95.1968696 71.9552248,94.2852309 72.2846018,93.4900445 C72.6139788,92.6948582 73.5256175,92.317245 74.3208038,92.646622 Z M87.0920216,93.4900445 C87.4213986,94.2852309 87.0437855,95.1968696 86.2485991,95.5262465 C85.4534127,95.8556235 84.541774,95.4780104 84.2123971,94.682824 C83.8830201,93.8876377 84.2606332,92.975999 85.0558196,92.646622 C85.8510059,92.317245 86.7626446,92.6948582 87.0920216,93.4900445 Z M141.08523,90.5892873 C141.928655,90.760884 142.473279,91.5837213 142.301682,92.4271459 C142.130086,93.2705706 141.307248,93.8151947 140.463824,93.643598 C139.620399,93.4720014 139.075775,92.649164 139.247372,91.8057394 C139.418968,90.9623148 140.241806,90.4176906 141.08523,90.5892873 Z M109.080947,90.1762947 C109.876133,90.5056717 110.253746,91.4173104 109.924369,92.2124967 C109.594992,93.0076831 108.683353,93.3852962 107.888167,93.0559192 C107.092981,92.7265423 106.715368,91.8149036 107.044745,91.0197172 C107.374122,90.2245309 108.28576,89.8469178 109.080947,90.1762947 Z M52.3318788,91.0197172 C52.6612557,91.8149036 52.2836426,92.7265423 51.4884563,93.0559192 C50.6932699,93.3852962 49.7816312,93.0076831 49.4522543,92.2124967 C49.1228773,91.4173104 49.5004904,90.5056717 50.2956768,90.1762947 C51.0908631,89.8469178 52.0025018,90.2245309 52.3318788,91.0197172 Z M20.0257764,91.2855337 C20.1900064,92.1304237 19.6382224,92.948477 18.7933325,93.112707 C17.9484425,93.276937 17.1303892,92.725153 16.9661592,91.8802631 C16.8019292,91.0353731 17.3537132,90.2173198 18.1986031,90.0530898 C19.0434931,89.8888598 19.8615464,90.4406438 20.0257764,91.2855337 Z M69.7704503,89.606173 C70.3790596,90.2147823 70.3790596,91.2015329 69.7704503,91.8101422 C69.1618411,92.4187515 68.1750904,92.4187515 67.5664812,91.8101422 C66.9578719,91.2015329 66.9578719,90.2147823 67.5664812,89.606173 C68.1750904,88.9975637 69.1618411,88.9975637 69.7704503,89.606173 Z M91.8101422,89.606173 C92.4187515,90.2147823 92.4187515,91.2015329 91.8101422,91.8101422 C91.2015329,92.4187515 90.2147823,92.4187515 89.606173,91.8101422 C88.9975637,91.2015329 88.9975637,90.2147823 89.606173,89.606173 C90.2147823,88.9975637 91.2015329,88.9975637 91.8101422,89.606173 Z M125.875817,87.4885118 C126.719242,87.6601085 127.263866,88.4829458 127.092269,89.3263704 C126.920673,90.1697951 126.097835,90.7144192 125.254411,90.5428225 C124.410986,90.3712259 123.866362,89.5483885 124.037958,88.7049639 C124.209555,87.8615393 125.032393,87.3169151 125.875817,87.4885118 Z M35.386003,88.3181443 C35.550233,89.1630343 34.998449,89.9810876 34.1535591,90.1453176 C33.3086691,90.3095475 32.4906158,89.7577636 32.3263858,88.9128736 C32.1621558,88.0679837 32.7139398,87.2499303 33.5588297,87.0857004 C34.4037197,86.9214704 35.221773,87.4732543 35.386003,88.3181443 Z M110.506858,84.5794866 C111.348754,84.7584369 111.886176,85.5859956 111.707226,86.4278907 C111.528276,87.2697857 110.700717,87.8072086 109.858822,87.6282583 C109.016927,87.449308 108.479504,86.6217493 108.658454,85.7798542 C108.837405,84.9379591 109.664963,84.4005362 110.506858,84.5794866 Z M94.682824,84.2123971 C95.4780104,84.541774 95.8556235,85.4534127 95.5262465,86.2485991 C95.1968696,87.0437855 94.2852309,87.4213986 93.4900445,87.0920216 C92.6948582,86.7626446 92.317245,85.8510059 92.646622,85.0558196 C92.975999,84.2606332 93.8876377,83.8830201 94.682824,84.2123971 Z M66.7300014,85.0558196 C67.0593783,85.8510059 66.6817652,86.7626446 65.8865789,87.0920216 C65.0913925,87.4213986 64.1797538,87.0437855 63.8503768,86.2485991 C63.5209999,85.4534127 63.898613,84.541774 64.6937993,84.2123971 C65.4889857,83.8830201 66.4006244,84.2606332 66.7300014,85.0558196 Z M50.5805619,85.019573 C50.7374127,85.8658639 50.178511,86.6790709 49.33222,86.8359217 C48.4859291,86.9927724 47.6727221,86.4338707 47.5158713,85.5875798 C47.3590205,84.7412888 47.9179223,83.9280818 48.7642132,83.7712311 C49.6105041,83.6143803 50.4237112,84.173282 50.5805619,85.019573 Z M1.76623377,78.1298701 C2.62693727,78.1298701 3.32467532,78.8276082 3.32467532,79.6883117 C3.32467532,80.5490152 2.62693727,81.2467532 1.76623377,81.2467532 C0.90553026,81.2467532 0.207792208,80.5490152 0.207792208,79.6883117 C0.207792208,78.8276082 0.90553026,78.1298701 1.76623377,78.1298701 Z M95.2727273,78.1298701 C96.1334308,78.1298701 96.8311688,78.8276082 96.8311688,79.6883117 C96.8311688,80.5490152 96.1334308,81.2467532 95.2727273,81.2467532 C94.4120238,81.2467532 93.7142857,80.5490152 93.7142857,79.6883117 C93.7142857,78.8276082 94.4120238,78.1298701 95.2727273,78.1298701 Z M64.1038961,78.1298701 C64.9645996,78.1298701 65.6623377,78.8276082 65.6623377,79.6883117 C65.6623377,80.5490152 64.9645996,81.2467532 64.1038961,81.2467532 C63.2431926,81.2467532 62.5454545,80.5490152 62.5454545,79.6883117 C62.5454545,78.8276082 63.2431926,78.1298701 64.1038961,78.1298701 Z M126.441558,78.1298701 C127.302262,78.1298701 128,78.8276082 128,79.6883117 C128,80.5490152 127.302262,81.2467532 126.441558,81.2467532 C125.580855,81.2467532 124.883117,80.5490152 124.883117,79.6883117 C124.883117,78.8276082 125.580855,78.1298701 126.441558,78.1298701 Z M142.025974,78.1298701 C142.886678,78.1298701 143.584416,78.8276082 143.584416,79.6883117 C143.584416,80.5490152 142.886678,81.2467532 142.025974,81.2467532 C141.165271,81.2467532 140.467532,80.5490152 140.467532,79.6883117 C140.467532,78.8276082 141.165271,78.1298701 142.025974,78.1298701 Z M32.9350649,78.1298701 C33.7957684,78.1298701 34.4935065,78.8276082 34.4935065,79.6883117 C34.4935065,80.5490152 33.7957684,81.2467532 32.9350649,81.2467532 C32.0743614,81.2467532 31.3766234,80.5490152 31.3766234,79.6883117 C31.3766234,78.8276082 32.0743614,78.1298701 32.9350649,78.1298701 Z M157.61039,78.1298701 C158.471093,78.1298701 159.168831,78.8276082 159.168831,79.6883117 C159.168831,80.5490152 158.471093,81.2467532 157.61039,81.2467532 C156.749686,81.2467532 156.051948,80.5490152 156.051948,79.6883117 C156.051948,78.8276082 156.749686,78.1298701 157.61039,78.1298701 Z M17.3506494,78.1298701 C18.2113529,78.1298701 18.9090909,78.8276082 18.9090909,79.6883117 C18.9090909,80.5490152 18.2113529,81.2467532 17.3506494,81.2467532 C16.4899458,81.2467532 15.7922078,80.5490152 15.7922078,79.6883117 C15.7922078,78.8276082 16.4899458,78.1298701 17.3506494,78.1298701 Z M48.5194805,78.1298701 C49.380184,78.1298701 50.0779221,78.8276082 50.0779221,79.6883117 C50.0779221,80.5490152 49.380184,81.2467532 48.5194805,81.2467532 C47.658777,81.2467532 46.961039,80.5490152 46.961039,79.6883117 C46.961039,78.8276082 47.658777,78.1298701 48.5194805,78.1298701 Z M110.857143,78.1298701 C111.717846,78.1298701 112.415584,78.8276082 112.415584,79.6883117 C112.415584,80.5490152 111.717846,81.2467532 110.857143,81.2467532 C109.996439,81.2467532 109.298701,80.5490152 109.298701,79.6883117 C109.298701,78.8276082 109.996439,78.1298701 110.857143,78.1298701 Z M79.6883117,78.1298701 C80.5490152,78.1298701 81.2467532,78.8276082 81.2467532,79.6883117 C81.2467532,80.5490152 80.5490152,81.2467532 79.6883117,81.2467532 C78.8276082,81.2467532 78.1298701,80.5490152 78.1298701,79.6883117 C78.1298701,78.8276082 78.8276082,78.1298701 79.6883117,78.1298701 Z M111.874374,73.6594363 C112.031225,74.5057272 111.472323,75.3189343 110.626032,75.475785 C109.779742,75.6326358 108.966534,75.0737341 108.809684,74.2274431 C108.652833,73.3811522 109.211735,72.5679452 110.058026,72.4110944 C110.904317,72.2542437 111.717524,72.8131454 111.874374,73.6594363 Z M95.5262465,73.1280243 C95.8556235,73.9232106 95.4780104,74.8348493 94.682824,75.1642263 C93.8876377,75.4936033 92.975999,75.1159902 92.646622,74.3208038 C92.317245,73.5256175 92.6948582,72.6139788 93.4900445,72.2846018 C94.2852309,71.9552248 95.1968696,72.3328379 95.5262465,73.1280243 Z M65.8865789,72.2846018 C66.6817652,72.6139788 67.0593783,73.5256175 66.7300014,74.3208038 C66.4006244,75.1159902 65.4889857,75.4936033 64.6937993,75.1642263 C63.898613,74.8348493 63.5209999,73.9232106 63.8503768,73.1280243 C64.1797538,72.3328379 65.0913925,71.9552248 65.8865789,72.2846018 Z M49.5314236,71.6187578 C50.3733187,71.7977081 50.9107416,72.6252668 50.7317913,73.4671619 C50.552841,74.3090569 49.7252823,74.8464798 48.8833872,74.6675295 C48.0414921,74.4885792 47.5040692,73.6610205 47.6830195,72.8191254 C47.8619699,71.9772304 48.6895286,71.4398075 49.5314236,71.6187578 Z M127.174519,70.4762642 C127.338749,71.3211542 126.786965,72.1392075 125.942075,72.3034375 C125.097185,72.4676674 124.279132,71.9158835 124.114902,71.0709935 C123.950672,70.2261036 124.502456,69.4080503 125.347346,69.2438203 C126.192236,69.0795903 127.010289,69.6313743 127.174519,70.4762642 Z M34.2464941,68.8463153 C35.0899187,69.017912 35.6345429,69.8407493 35.4629462,70.684174 C35.2913495,71.5275986 34.4685122,72.0722228 33.6250876,71.9006261 C32.7816629,71.7290294 32.2370388,70.906192 32.4086354,70.0627674 C32.5802321,69.2193428 33.4030695,68.6747186 34.2464941,68.8463153 Z M69.7704503,67.5664812 C70.3790596,68.1750904 70.3790596,69.1618411 69.7704503,69.7704503 C69.1618411,70.3790596 68.1750904,70.3790596 67.5664812,69.7704503 C66.9578719,69.1618411 66.9578719,68.1750904 67.5664812,67.5664812 C68.1750904,66.9578719 69.1618411,66.9578719 69.7704503,67.5664812 Z M91.8101422,67.5664812 C92.4187515,68.1750904 92.4187515,69.1618411 91.8101422,69.7704503 C91.2015329,70.3790596 90.2147823,70.3790596 89.606173,69.7704503 C88.9975637,69.1618411 88.9975637,68.1750904 89.606173,67.5664812 C90.2147823,66.9578719 91.2015329,66.9578719 91.8101422,67.5664812 Z M142.410464,67.4963603 C142.574694,68.3412503 142.02291,69.1593036 141.17802,69.3235336 C140.33313,69.4877635 139.515077,68.9359796 139.350847,68.0910896 C139.186617,67.2461997 139.738401,66.4281463 140.583291,66.2639164 C141.428181,66.0996864 142.246234,66.6514703 142.410464,67.4963603 Z M51.4884563,66.3207041 C52.2836426,66.6500811 52.6612557,67.5617198 52.3318788,68.3569062 C52.0025018,69.1520925 51.0908631,69.5297056 50.2956768,69.2003287 C49.5004904,68.8709517 49.1228773,67.959313 49.4522543,67.1641266 C49.7816312,66.3689403 50.6932699,65.9913272 51.4884563,66.3207041 Z M109.924369,67.1641266 C110.253746,67.959313 109.876133,68.8709517 109.080947,69.2003287 C108.28576,69.5297056 107.374122,69.1520925 107.044745,68.3569062 C106.715368,67.5617198 107.092981,66.6500811 107.888167,66.3207041 C108.683353,65.9913272 109.594992,66.3689403 109.924369,67.1641266 Z M18.9127996,65.7330253 C19.7562242,65.904622 20.3008484,66.7274594 20.1292517,67.570884 C19.957655,68.4143086 19.1348177,68.9589328 18.2913931,68.7873361 C17.4479684,68.6157394 16.9033443,67.7929021 17.074941,66.9494774 C17.2465376,66.1060528 18.069375,65.5614286 18.9127996,65.7330253 Z M86.2485991,63.8503768 C87.0437855,64.1797538 87.4213986,65.0913925 87.0920216,65.8865789 C86.7626446,66.6817652 85.8510059,67.0593783 85.0558196,66.7300014 C84.2606332,66.4006244 83.8830201,65.4889857 84.2123971,64.6937993 C84.541774,63.898613 85.4534127,63.5209999 86.2485991,63.8503768 Z M75.1642263,64.6937993 C75.4936033,65.4889857 75.1159902,66.4006244 74.3208038,66.7300014 C73.5256175,67.0593783 72.6139788,66.6817652 72.2846018,65.8865789 C71.9552248,65.0913925 72.3328379,64.1797538 73.1280243,63.8503768 C73.9232106,63.5209999 74.8348493,63.898613 75.1642263,64.6937993 Z M157.70855,64.5227136 C157.87278,65.3676036 157.320996,66.1856569 156.476106,66.3498869 C155.631216,66.5141169 154.813163,65.9623329 154.648933,65.117443 C154.484703,64.272553 155.036487,63.4544997 155.881377,63.2902697 C156.726267,63.1260397 157.54432,63.6778237 157.70855,64.5227136 Z M3.64124577,62.6259926 C4.4846704,62.7975893 5.02929456,63.6204266 4.85769788,64.4638512 C4.6861012,65.3072759 3.86326385,65.8519 3.01983922,65.6803034 C2.17641459,65.5087067 1.63179043,64.6858693 1.80338711,63.8424447 C1.97498379,62.9990201 2.79782114,62.4543959 3.64124577,62.6259926 Z M79.6883117,62.5454545 C80.5490152,62.5454545 81.2467532,63.2431926 81.2467532,64.1038961 C81.2467532,64.9645996 80.5490152,65.6623377 79.6883117,65.6623377 C78.8276082,65.6623377 78.1298701,64.9645996 78.1298701,64.1038961 C78.1298701,63.2431926 78.8276082,62.5454545 79.6883117,62.5454545 Z M107.142523,61.7989578 C107.611296,62.5208045 107.406139,63.4859923 106.684292,63.954765 C105.962446,64.4235377 104.997258,64.2183807 104.528485,63.496534 C104.059712,62.7746873 104.264869,61.8094996 104.986716,61.3407268 C105.708563,60.8719541 106.673751,61.0771111 107.142523,61.7989578 Z M54.8907838,60.6849352 C55.6001121,61.172443 55.7799331,62.1426704 55.2924253,62.8519987 C54.8049175,63.561327 53.8346901,63.741148 53.1253618,63.2536402 C52.4160335,62.7661323 52.2362125,61.795905 52.7237203,61.0865767 C53.2112281,60.3772484 54.1814555,60.1974273 54.8907838,60.6849352 Z M37.0903337,60.3568065 C37.8855201,60.6861835 38.2631332,61.5978222 37.9337562,62.3930085 C37.6043792,63.1881949 36.6927405,63.565808 35.8975542,63.236431 C35.1023678,62.907054 34.7247547,61.9954153 35.0541317,61.200229 C35.3835086,60.4050426 36.2951473,60.0274295 37.0903337,60.3568065 Z M124.322492,61.200229 C124.651869,61.9954153 124.274256,62.907054 123.479069,63.236431 C122.683883,63.565808 121.772244,63.1881949 121.442867,62.3930085 C121.11349,61.5978222 121.491103,60.6861835 122.28629,60.3568065 C123.081476,60.0274295 123.993115,60.4050426 124.322492,61.200229 Z M102.829988,56.5466352 C103.438597,57.1552445 103.438597,58.1419951 102.829988,58.7506044 C102.221379,59.3592137 101.234628,59.3592137 100.626019,58.7506044 C100.01741,58.1419951 100.01741,57.1552445 100.626019,56.5466352 C101.234628,55.9380259 102.221379,55.9380259 102.829988,56.5466352 Z M58.7506044,56.5466352 C59.3592137,57.1552445 59.3592137,58.1419951 58.7506044,58.7506044 C58.1419951,59.3592137 57.1552445,59.3592137 56.5466352,58.7506044 C55.9380259,58.1419951 55.9380259,57.1552445 56.5466352,56.5466352 C57.1552445,55.9380259 58.1419951,55.9380259 58.7506044,56.5466352 Z M138.720614,55.2363313 C139.049991,56.0315177 138.672378,56.9431564 137.877192,57.2725334 C137.082005,57.6019103 136.170367,57.2242972 135.84099,56.4291109 C135.511613,55.6339245 135.889226,54.7222858 136.684412,54.3929088 C137.479599,54.0635319 138.391237,54.441145 138.720614,55.2363313 Z M22.6922111,54.3929088 C23.4873975,54.7222858 23.8650106,55.6339245 23.5356336,56.4291109 C23.2062566,57.2242972 22.2946179,57.6019103 21.4994316,57.2725334 C20.7042452,56.9431564 20.3266321,56.0315177 20.6560091,55.2363313 C20.9853861,54.441145 21.8970248,54.0635319 22.6922111,54.3929088 Z M98.2320542,52.6521055 C98.9413825,53.1396133 99.1212035,54.1098407 98.6336957,54.819169 C98.1461879,55.5284973 97.1759605,55.7083183 96.4666322,55.2208105 C95.7573039,54.7333027 95.5774829,53.7630753 96.0649907,53.053747 C96.5524985,52.3444187 97.5227259,52.1645977 98.2320542,52.6521055 Z M120.036884,53.0295613 C120.511938,53.7472898 120.315212,54.7142311 119.597483,55.1892852 C118.879755,55.6643393 117.912814,55.4676128 117.43776,54.7498844 C116.962706,54.0321559 117.159432,53.0652146 117.87716,52.5901605 C118.594889,52.1151064 119.56183,52.3118329 120.036884,53.0295613 Z M41.8617236,52.2584785 C42.5752792,52.7397778 42.76356,53.708399 42.2822608,54.4219546 C41.8009615,55.1355101 40.8323402,55.323791 40.1187847,54.8424917 C39.4052291,54.3611924 39.2169482,53.3925712 39.6982475,52.6790157 C40.1795468,51.9654601 41.1481681,51.7771792 41.8617236,52.2584785 Z M64.0263798,52.6343386 C64.4951525,53.3561853 64.2899955,54.321373 63.5681488,54.7901458 C62.8463021,55.2589185 61.8811144,55.0537615 61.4123416,54.3319148 C60.9435689,53.6100681 61.1487259,52.6448804 61.8705726,52.1761076 C62.5924193,51.7073349 63.557607,51.9124919 64.0263798,52.6343386 Z M92.2124967,49.4522543 C93.0076831,49.7816312 93.3852962,50.6932699 93.0559192,51.4884563 C92.7265423,52.2836426 91.8149036,52.6612557 91.0197172,52.3318788 C90.2245309,52.0025018 89.8469178,51.0908631 90.1762947,50.2956768 C90.5056717,49.5004904 91.4173104,49.1228773 92.2124967,49.4522543 Z M69.2003287,50.2956768 C69.5297056,51.0908631 69.1520925,52.0025018 68.3569062,52.3318788 C67.5617198,52.6612557 66.6500811,52.2836426 66.3207041,51.4884563 C65.9913272,50.6932699 66.3689403,49.7816312 67.1641266,49.4522543 C67.959313,49.1228773 68.8709517,49.5004904 69.2003287,50.2956768 Z M8.29408853,48.4290112 C9.08927488,48.7583882 9.466888,49.6700269 9.13751102,50.4652132 C8.80813405,51.2603996 7.89649535,51.6380127 7.101309,51.3086357 C6.30612265,50.9792587 5.92850953,50.06762 6.25788651,49.2724337 C6.58726348,48.4772473 7.49890218,48.0996342 8.29408853,48.4290112 Z M153.118737,49.2724337 C153.448114,50.06762 153.070501,50.9792587 152.275314,51.3086357 C151.480128,51.6380127 150.568489,51.2603996 150.239112,50.4652132 C149.909735,49.6700269 150.287348,48.7583882 151.082535,48.4290112 C151.877721,48.0996342 152.78936,48.4772473 153.118737,49.2724337 Z M86.4995054,47.6114047 C87.3414005,47.7903551 87.8788234,48.6179138 87.6998731,49.4598088 C87.5209228,50.3017039 86.6933641,50.8391268 85.851469,50.6601765 C85.0095739,50.4812262 84.472151,49.6536675 84.6511013,48.8117724 C84.8300517,47.9698773 85.6576104,47.4324544 86.4995054,47.6114047 Z M75.5473998,48.6925984 C75.7042506,49.5388894 75.1453489,50.3520964 74.2990579,50.5089471 C73.452767,50.6657979 72.6395599,50.1068962 72.4827092,49.2606053 C72.3258584,48.4143143 72.8847601,47.6011073 73.7310511,47.4442565 C74.577342,47.2874058 75.3905491,47.8463075 75.5473998,48.6925984 Z M79.6883117,46.961039 C80.5490152,46.961039 81.2467532,47.658777 81.2467532,48.5194805 C81.2467532,49.380184 80.5490152,50.0779221 79.6883117,50.0779221 C78.8276082,50.0779221 78.1298701,49.380184 78.1298701,48.5194805 C78.1298701,47.658777 78.8276082,46.961039 79.6883117,46.961039 Z M47.7307585,45.5267893 C48.3393677,46.1353986 48.3393677,47.1221492 47.7307585,47.7307585 C47.1221492,48.3393677 46.1353986,48.3393677 45.5267893,47.7307585 C44.91818,47.1221492 44.91818,46.1353986 45.5267893,45.5267893 C46.1353986,44.91818 47.1221492,44.91818 47.7307585,45.5267893 Z M113.849834,45.5267893 C114.458443,46.1353986 114.458443,47.1221492 113.849834,47.7307585 C113.241225,48.3393677 112.254474,48.3393677 111.645865,47.7307585 C111.037256,47.1221492 111.037256,46.1353986 111.645865,45.5267893 C112.254474,44.91818 113.241225,44.91818 113.849834,45.5267893 Z M132.970367,44.4216887 C133.445421,45.1394172 133.248694,46.1063585 132.530966,46.5814126 C131.813238,47.0564667 130.846296,46.8597403 130.371242,46.1420118 C129.896188,45.4242834 130.092915,44.457342 130.810643,43.9822879 C131.528371,43.5072338 132.495313,43.7039603 132.970367,44.4216887 Z M28.8795169,43.5375267 C29.5930724,44.018826 29.7813533,44.9874472 29.300054,45.7010028 C28.8187547,46.4145583 27.8501335,46.6028392 27.136578,46.1215399 C26.4230224,45.6402406 26.2347415,44.6716194 26.7160408,43.9580638 C27.1973401,43.2445083 28.1659613,43.0562274 28.8795169,43.5375267 Z M106.766006,39.6423641 C107.479561,40.1236634 107.667842,41.0922846 107.186543,41.8058402 C106.705243,42.5193957 105.736622,42.7076766 105.023067,42.2263773 C104.309511,41.745078 104.12123,40.7764568 104.60253,40.0629013 C105.083829,39.3493457 106.05245,39.1610648 106.766006,39.6423641 Z M55.2451686,39.8475378 C55.7202227,40.5652662 55.5234963,41.5322075 54.8057678,42.0072616 C54.0880394,42.4823157 53.1210981,42.2855893 52.646044,41.5678609 C52.1709899,40.8501324 52.3677163,39.8831911 53.0854447,39.408137 C53.8031732,38.9330829 54.7701145,39.1298093 55.2451686,39.8475378 Z M145.96599,35.8200734 C146.441044,36.5378018 146.244318,37.5047431 145.526589,37.9797972 C144.808861,38.4548513 143.841919,38.2581249 143.366865,37.5403964 C142.891811,36.822668 143.088538,35.8557267 143.806266,35.3806726 C144.523995,34.9056185 145.490936,35.1023449 145.96599,35.8200734 Z M98.1763944,35.0541317 C98.9715807,35.3835086 99.3491939,36.2951473 99.0198169,37.0903337 C98.6904399,37.8855201 97.7788012,38.2631332 96.9836149,37.9337562 C96.1884285,37.6043792 95.8108154,36.6927405 96.1401924,35.8975542 C96.4695693,35.1023678 97.381208,34.7247547 98.1763944,35.0541317 Z M63.236431,35.8975542 C63.565808,36.6927405 63.1881949,37.6043792 62.3930085,37.9337562 C61.5978222,38.2631332 60.6861835,37.8855201 60.3568065,37.0903337 C60.0274295,36.2951473 60.4050426,35.3835086 61.200229,35.0541317 C61.9954153,34.7247547 62.907054,35.1023678 63.236431,35.8975542 Z M15.9594508,34.8228321 C16.6730064,35.3041314 16.8612873,36.2727526 16.379988,36.9863082 C15.8986887,37.6998637 14.9300674,37.8881446 14.2165119,37.4068453 C13.5029564,36.925546 13.3146755,35.9569248 13.7959748,35.2433692 C14.277274,34.5298137 15.2458953,34.3415328 15.9594508,34.8228321 Z M36.7109125,34.5069433 C37.3195218,35.1155526 37.3195218,36.1023032 36.7109125,36.7109125 C36.1023032,37.3195218 35.1155526,37.3195218 34.5069433,36.7109125 C33.898334,36.1023032 33.898334,35.1155526 34.5069433,34.5069433 C35.1155526,33.898334 36.1023032,33.898334 36.7109125,34.5069433 Z M124.86968,34.5069433 C125.478289,35.1155526 125.478289,36.1023032 124.86968,36.7109125 C124.261071,37.3195218 123.27432,37.3195218 122.665711,36.7109125 C122.057102,36.1023032 122.057102,35.1155526 122.665711,34.5069433 C123.27432,33.898334 124.261071,33.898334 124.86968,34.5069433 Z M89.3822539,32.352752 C90.2256785,32.5243487 90.7703026,33.3471861 90.598706,34.1906107 C90.4271093,35.0340353 89.6042719,35.5786595 88.7608473,35.4070628 C87.9174227,35.2354661 87.3727985,34.4126288 87.5443952,33.5692041 C87.7159919,32.7257795 88.5388292,32.1811553 89.3822539,32.352752 Z M72.3593209,33.5029463 C72.5235509,34.3478363 71.9717669,35.1658896 71.126877,35.3301196 C70.281987,35.4943496 69.4639337,34.9425656 69.2997037,34.0976757 C69.1354737,33.2527857 69.6872577,32.4347324 70.5321476,32.2705024 C71.3770376,32.1062724 72.1950909,32.6580564 72.3593209,33.5029463 Z M79.6883117,31.3766234 C80.5490152,31.3766234 81.2467532,32.0743614 81.2467532,32.9350649 C81.2467532,33.7957684 80.5490152,34.4935065 79.6883117,34.4935065 C78.8276082,34.4935065 78.1298701,33.7957684 78.1298701,32.9350649 C78.1298701,32.0743614 78.8276082,31.3766234 79.6883117,31.3766234 Z M115.41856,26.7160408 C116.132115,27.1973401 116.320396,28.1659613 115.839097,28.8795169 C115.357797,29.5930724 114.389176,29.7813533 113.675621,29.300054 C112.962065,28.8187547 112.773784,27.8501335 113.255083,27.136578 C113.736383,26.4230224 114.705004,26.2347415 115.41856,26.7160408 Z M46.5814126,26.8456573 C47.0564667,27.5633858 46.8597403,28.5303271 46.1420118,29.0053812 C45.4242834,29.4804353 44.457342,29.2837089 43.9822879,28.5659804 C43.5072338,27.848252 43.7039603,26.8813107 44.4216887,26.4062566 C45.1394172,25.9312025 46.1063585,26.1279289 46.5814126,26.8456573 Z M135.889526,23.4870974 C136.498135,24.0957067 136.498135,25.0824573 135.889526,25.6910666 C135.280917,26.2996759 134.294166,26.2996759 133.685557,25.6910666 C133.076948,25.0824573 133.076948,24.0957067 133.685557,23.4870974 C134.294166,22.8784881 135.280917,22.8784881 135.889526,23.4870974 Z M25.6910666,23.4870974 C26.2996759,24.0957067 26.2996759,25.0824573 25.6910666,25.6910666 C25.0824573,26.2996759 24.0957067,26.2996759 23.4870974,25.6910666 C22.8784881,25.0824573 22.8784881,24.0957067 23.4870974,23.4870974 C24.0957067,22.8784881 25.0824573,22.8784881 25.6910666,23.4870974 Z M57.2725334,21.4994316 C57.6019103,22.2946179 57.2242972,23.2062566 56.4291109,23.5356336 C55.6339245,23.8650106 54.7222858,23.4873975 54.3929088,22.6922111 C54.0635319,21.8970248 54.441145,20.9853861 55.2363313,20.6560091 C56.0315177,20.3266321 56.9431564,20.7042452 57.2725334,21.4994316 Z M104.140292,20.6560091 C104.935478,20.9853861 105.313092,21.8970248 104.983715,22.6922111 C104.654338,23.4873975 103.742699,23.8650106 102.947513,23.5356336 C102.152326,23.2062566 101.774713,22.2946179 102.10409,21.4994316 C102.433467,20.7042452 103.345106,20.3266321 104.140292,20.6560091 Z M92.4271459,17.074941 C93.2705706,17.2465376 93.8151947,18.069375 93.643598,18.9127996 C93.4720014,19.7562242 92.649164,20.3008484 91.8057394,20.1292517 C90.9623148,19.957655 90.4176906,19.1348177 90.5892873,18.2913931 C90.760884,17.4479684 91.5837213,16.9033443 92.4271459,17.074941 Z M69.3235336,18.1986031 C69.4877635,19.0434931 68.9359796,19.8615464 68.0910896,20.0257764 C67.2461997,20.1900064 66.4281463,19.6382224 66.2639164,18.7933325 C66.0996864,17.9484425 66.6514703,17.1303892 67.4963603,16.9661592 C68.3412503,16.8019292 69.1593036,17.3537132 69.3235336,18.1986031 Z M79.6883117,15.7922078 C80.5490152,15.7922078 81.2467532,16.4899458 81.2467532,17.3506494 C81.2467532,18.2113529 80.5490152,18.9090909 79.6883117,18.9090909 C78.8276082,18.9090909 78.1298701,18.2113529 78.1298701,17.3506494 C78.1298701,16.4899458 78.8276082,15.7922078 79.6883117,15.7922078 Z M124.133254,13.7959748 C124.84681,14.277274 125.035091,15.2458953 124.553791,15.9594508 C124.072492,16.6730064 123.103871,16.8612873 122.390315,16.379988 C121.67676,15.8986887 121.488479,14.9300674 121.969778,14.2165119 C122.451077,13.5029564 123.419699,13.3146755 124.133254,13.7959748 Z M37.9797972,13.8500341 C38.4548513,14.5677626 38.2581249,15.5347039 37.5403964,16.009758 C36.822668,16.4848121 35.8557267,16.2880857 35.3806726,15.5703572 C34.9056185,14.8526288 35.1023449,13.8856875 35.8200734,13.4106334 C36.5378018,12.9355793 37.5047431,13.1323057 37.9797972,13.8500341 Z M110.10419,6.25788651 C110.899376,6.58726348 111.276989,7.49890218 110.947612,8.29408853 C110.618235,9.08927488 109.706597,9.466888 108.91141,9.13751102 C108.116224,8.80813405 107.738611,7.89649535 108.067988,7.101309 C108.397365,6.30612265 109.309003,5.92850953 110.10419,6.25788651 Z M51.3086357,7.101309 C51.6380127,7.89649535 51.2603996,8.80813405 50.4652132,9.13751102 C49.6700269,9.466888 48.7583882,9.08927488 48.4290112,8.29408853 C48.0996342,7.49890218 48.4772473,6.58726348 49.2724337,6.25788651 C50.06762,5.92850953 50.9792587,6.30612265 51.3086357,7.101309 Z M95.5341787,1.80338711 C96.3776033,1.97498379 96.9222275,2.79782114 96.7506308,3.64124577 C96.5790341,4.4846704 95.7561968,5.02929456 94.9127721,4.85769788 C94.0693475,4.6861012 93.5247233,3.86326385 93.69632,3.01983922 C93.8679167,2.17641459 94.6907541,1.63179043 95.5341787,1.80338711 Z M66.3498869,2.90051714 C66.5141169,3.7454071 65.9623329,4.56346044 65.117443,4.72769041 C64.272553,4.89192038 63.4544997,4.34013644 63.2902697,3.49524648 C63.1260397,2.65035652 63.6778237,1.83230318 64.5227136,1.66807321 C65.3676036,1.50384324 66.1856569,2.05562718 66.3498869,2.90051714 Z M79.6883117,0.207792208 C80.5490152,0.207792208 81.2467532,0.90553026 81.2467532,1.76623377 C81.2467532,2.62693727 80.5490152,3.32467532 79.6883117,3.32467532 C78.8276082,3.32467532 78.1298701,2.62693727 78.1298701,1.76623377 C78.1298701,0.90553026 78.8276082,0.207792208 79.6883117,0.207792208 Z" id="Shape"></path>
        </g>
    </g>
</svg>