<svg xmlns="http://www.w3.org/2000/svg" width="211" height="255" viewBox="0 0 211 255">
    <g fill="none" fill-rule="evenodd">
        <path fill="#1E8985" fill-rule="nonzero" d="M170 0c16.569 0 30 13.431 30 30 0 16.569-13.431 30-30 30-16.569 0-30-13.431-30-30 0-16.569 13.431-30 30-30z" style="mix-blend-mode:multiply" opacity=".15" transform="translate(.5)"/>
        <path fill="#6899E4" fill-rule="nonzero" d="M32.867 155c10.816 9.046 12.227 25.117 3.151 35.897-9.076 10.78-25.202 12.187-36.018 3.142L32.867 155z" opacity=".276" transform="translate(.5)"/>
        <path fill="#9A9FC2" d="M50.201 252.597c.664 0 1.202.538 1.202 1.202 0 .663-.538 1.201-1.202 1.201-.663 0-1.201-.538-1.201-1.201 0-.664.538-1.202 1.201-1.202zm86.508 0c.664 0 1.201.538 1.201 1.202 0 .663-.537 1.201-1.201 1.201s-1.202-.538-1.202-1.201c0-.664.538-1.202 1.202-1.202zm-72.09 0c.664 0 1.202.538 1.202 1.202 0 .663-.538 1.201-1.202 1.201-.663 0-1.201-.538-1.201-1.201 0-.664.538-1.202 1.201-1.202zm86.508 0c.663 0 1.201.538 1.201 1.202 0 .663-.538 1.201-1.201 1.201-.664 0-1.202-.538-1.202-1.201 0-.664.538-1.202 1.202-1.202zm-72.09 0c.664 0 1.202.538 1.202 1.202 0 .663-.538 1.201-1.202 1.201-.663 0-1.201-.538-1.201-1.201 0-.664.538-1.202 1.201-1.202zm86.508 0c.663 0 1.201.538 1.201 1.202 0 .663-.538 1.201-1.201 1.201-.664 0-1.202-.538-1.202-1.201 0-.664.538-1.202 1.202-1.202zm-72.09 0c.664 0 1.202.538 1.202 1.202 0 .663-.538 1.201-1.202 1.201-.663 0-1.201-.538-1.201-1.201 0-.664.538-1.202 1.201-1.202zm86.508 0c.663 0 1.201.538 1.201 1.202 0 .663-.538 1.201-1.201 1.201-.664 0-1.202-.538-1.202-1.201 0-.664.538-1.202 1.202-1.202zm-72.09 0c.664 0 1.202.538 1.202 1.202 0 .663-.538 1.201-1.202 1.201-.663 0-1.201-.538-1.201-1.201 0-.664.538-1.202 1.201-1.202zm14.418 0c.664 0 1.202.538 1.202 1.202 0 .663-.538 1.201-1.202 1.201-.664 0-1.201-.538-1.201-1.201 0-.664.537-1.202 1.201-1.202zm72.09 0c.663 0 1.201.538 1.201 1.202 0 .663-.538 1.201-1.201 1.201-.664 0-1.202-.538-1.202-1.201 0-.664.538-1.202 1.202-1.202zm14.418 0c.663 0 1.201.538 1.201 1.202 0 .663-.538 1.201-1.201 1.201-.664 0-1.202-.538-1.202-1.201 0-.664.538-1.202 1.202-1.202zM50.2 238.179c.664 0 1.202.538 1.202 1.202 0 .663-.538 1.201-1.202 1.201-.663 0-1.201-.538-1.201-1.201 0-.664.538-1.202 1.201-1.202zm86.508 0c.664 0 1.201.538 1.201 1.202 0 .663-.537 1.201-1.201 1.201s-1.202-.538-1.202-1.201c0-.664.538-1.202 1.202-1.202zm-72.09 0c.664 0 1.202.538 1.202 1.202 0 .663-.538 1.201-1.202 1.201-.663 0-1.201-.538-1.201-1.201 0-.664.538-1.202 1.201-1.202zm86.508 0c.663 0 1.201.538 1.201 1.202 0 .663-.538 1.201-1.201 1.201-.664 0-1.202-.538-1.202-1.201 0-.664.538-1.202 1.202-1.202zm-72.09 0c.664 0 1.202.538 1.202 1.202 0 .663-.538 1.201-1.202 1.201-.663 0-1.201-.538-1.201-1.201 0-.664.538-1.202 1.201-1.202zm86.508 0c.663 0 1.201.538 1.201 1.202 0 .663-.538 1.201-1.201 1.201-.664 0-1.202-.538-1.202-1.201 0-.664.538-1.202 1.202-1.202zm-72.09 0c.664 0 1.202.538 1.202 1.202 0 .663-.538 1.201-1.202 1.201-.663 0-1.201-.538-1.201-1.201 0-.664.538-1.202 1.201-1.202zm86.508 0c.663 0 1.201.538 1.201 1.202 0 .663-.538 1.201-1.201 1.201-.664 0-1.202-.538-1.202-1.201 0-.664.538-1.202 1.202-1.202zm-72.09 0c.664 0 1.202.538 1.202 1.202 0 .663-.538 1.201-1.202 1.201-.663 0-1.201-.538-1.201-1.201 0-.664.538-1.202 1.201-1.202zm14.418 0c.664 0 1.202.538 1.202 1.202 0 .663-.538 1.201-1.202 1.201-.664 0-1.201-.538-1.201-1.201 0-.664.537-1.202 1.201-1.202zm72.09 0c.663 0 1.201.538 1.201 1.202 0 .663-.538 1.201-1.201 1.201-.664 0-1.202-.538-1.202-1.201 0-.664.538-1.202 1.202-1.202zm14.418 0c.663 0 1.201.538 1.201 1.202 0 .663-.538 1.201-1.201 1.201-.664 0-1.202-.538-1.202-1.201 0-.664.538-1.202 1.202-1.202zM79.037 223.761c.664 0 1.202.538 1.202 1.202 0 .663-.538 1.201-1.202 1.201-.663 0-1.201-.538-1.201-1.201 0-.664.538-1.202 1.201-1.202zm86.508 0c.663 0 1.201.538 1.201 1.202 0 .663-.538 1.201-1.201 1.201-.664 0-1.202-.538-1.202-1.201 0-.664.538-1.202 1.202-1.202zm-72.09 0c.664 0 1.202.538 1.202 1.202 0 .663-.538 1.201-1.202 1.201-.663 0-1.201-.538-1.201-1.201 0-.664.538-1.202 1.201-1.202zm86.508 0c.663 0 1.201.538 1.201 1.202 0 .663-.538 1.201-1.201 1.201-.664 0-1.202-.538-1.202-1.201 0-.664.538-1.202 1.202-1.202zm-129.762 0c.664 0 1.202.538 1.202 1.202 0 .663-.538 1.201-1.202 1.201-.663 0-1.201-.538-1.201-1.201 0-.664.538-1.202 1.201-1.202zm86.508 0c.664 0 1.201.538 1.201 1.202 0 .663-.537 1.201-1.201 1.201s-1.202-.538-1.202-1.201c0-.664.538-1.202 1.202-1.202zm-28.836 0c.664 0 1.202.538 1.202 1.202 0 .663-.538 1.201-1.202 1.201-.663 0-1.201-.538-1.201-1.201 0-.664.538-1.202 1.201-1.202zm14.418 0c.664 0 1.202.538 1.202 1.202 0 .663-.538 1.201-1.202 1.201-.664 0-1.201-.538-1.201-1.201 0-.664.537-1.202 1.201-1.202zm-57.672 0c.664 0 1.202.538 1.202 1.202 0 .663-.538 1.201-1.202 1.201-.663 0-1.201-.538-1.201-1.201 0-.664.538-1.202 1.201-1.202zm129.762 0c.663 0 1.201.538 1.201 1.202 0 .663-.538 1.201-1.201 1.201-.664 0-1.202-.538-1.202-1.201 0-.664.538-1.202 1.202-1.202zm-43.254 0c.663 0 1.201.538 1.201 1.202 0 .663-.538 1.201-1.201 1.201-.664 0-1.202-.538-1.202-1.201 0-.664.538-1.202 1.202-1.202zm57.672 0c.663 0 1.201.538 1.201 1.202 0 .663-.538 1.201-1.201 1.201-.664 0-1.202-.538-1.202-1.201 0-.664.538-1.202 1.202-1.202zM93.455 209.343c.664 0 1.202.538 1.202 1.202 0 .663-.538 1.201-1.202 1.201-.663 0-1.201-.538-1.201-1.201 0-.664.538-1.202 1.201-1.202zm86.508 0c.663 0 1.201.538 1.201 1.202 0 .663-.538 1.201-1.201 1.201-.664 0-1.202-.538-1.202-1.201 0-.664.538-1.202 1.202-1.202zm-43.254 0c.664 0 1.201.538 1.201 1.202 0 .663-.537 1.201-1.201 1.201s-1.202-.538-1.202-1.201c0-.664.538-1.202 1.202-1.202zm-72.09 0c.664 0 1.202.538 1.202 1.202 0 .663-.538 1.201-1.202 1.201-.663 0-1.201-.538-1.201-1.201 0-.664.538-1.202 1.201-1.202zm86.508 0c.663 0 1.201.538 1.201 1.202 0 .663-.538 1.201-1.201 1.201-.664 0-1.202-.538-1.202-1.201 0-.664.538-1.202 1.202-1.202zm-72.09 0c.664 0 1.202.538 1.202 1.202 0 .663-.538 1.201-1.202 1.201-.663 0-1.201-.538-1.201-1.201 0-.664.538-1.202 1.201-1.202zm86.508 0c.663 0 1.201.538 1.201 1.202 0 .663-.538 1.201-1.201 1.201-.664 0-1.202-.538-1.202-1.201 0-.664.538-1.202 1.202-1.202zm43.254 0c.663 0 1.201.538 1.201 1.202 0 .663-.538 1.201-1.201 1.201-.664 0-1.202-.538-1.202-1.201 0-.664.538-1.202 1.202-1.202zm-14.418 0c.663 0 1.201.538 1.201 1.202 0 .663-.538 1.201-1.201 1.201-.664 0-1.202-.538-1.202-1.201 0-.664.538-1.202 1.202-1.202zm-144.18 0c.664 0 1.202.538 1.202 1.202 0 .663-.538 1.201-1.202 1.201-.663 0-1.201-.538-1.201-1.201 0-.664.538-1.202 1.201-1.202zm57.672 0c.664 0 1.202.538 1.202 1.202 0 .663-.538 1.201-1.202 1.201-.663 0-1.201-.538-1.201-1.201 0-.664.538-1.202 1.201-1.202zm14.418 0c.664 0 1.202.538 1.202 1.202 0 .663-.538 1.201-1.202 1.201-.664 0-1.201-.538-1.201-1.201 0-.664.537-1.202 1.201-1.202zm72.09-14.418c.663 0 1.201.538 1.201 1.202 0 .663-.538 1.201-1.201 1.201-.664 0-1.202-.538-1.202-1.201 0-.664.538-1.202 1.202-1.202zm-28.836 0c.663 0 1.201.538 1.201 1.202 0 .663-.538 1.201-1.201 1.201-.664 0-1.202-.538-1.202-1.201 0-.664.538-1.202 1.202-1.202zm-115.344 0c.664 0 1.202.538 1.202 1.202 0 .663-.538 1.201-1.202 1.201-.663 0-1.201-.538-1.201-1.201 0-.664.538-1.202 1.201-1.202zm14.418 0c.664 0 1.202.538 1.202 1.202 0 .663-.538 1.201-1.202 1.201-.663 0-1.201-.538-1.201-1.201 0-.664.538-1.202 1.201-1.202zm57.672 0c.664 0 1.202.538 1.202 1.202 0 .663-.538 1.201-1.202 1.201-.664 0-1.201-.538-1.201-1.201 0-.664.537-1.202 1.201-1.202zm57.672 0c.663 0 1.201.538 1.201 1.202 0 .663-.538 1.201-1.201 1.201-.664 0-1.202-.538-1.202-1.201 0-.664.538-1.202 1.202-1.202zm-43.254 0c.664 0 1.201.538 1.201 1.202 0 .663-.537 1.201-1.201 1.201s-1.202-.538-1.202-1.201c0-.664.538-1.202 1.202-1.202zm-28.836 0c.664 0 1.202.538 1.202 1.202 0 .663-.538 1.201-1.202 1.201-.663 0-1.201-.538-1.201-1.201 0-.664.538-1.202 1.201-1.202zm-28.836 0c.664 0 1.202.538 1.202 1.202 0 .663-.538 1.201-1.202 1.201-.663 0-1.201-.538-1.201-1.201 0-.664.538-1.202 1.201-1.202zm129.762 0c.663 0 1.201.538 1.201 1.202 0 .663-.538 1.201-1.201 1.201-.664 0-1.202-.538-1.202-1.201 0-.664.538-1.202 1.202-1.202zm-115.344 0c.664 0 1.202.538 1.202 1.202 0 .663-.538 1.201-1.202 1.201-.663 0-1.201-.538-1.201-1.201 0-.664.538-1.202 1.201-1.202zm57.672 0c.663 0 1.201.538 1.201 1.202 0 .663-.538 1.201-1.201 1.201-.664 0-1.202-.538-1.202-1.201 0-.664.538-1.202 1.202-1.202zM50.2 180.507c.664 0 1.202.538 1.202 1.202 0 .664-.538 1.201-1.202 1.201-.663 0-1.201-.537-1.201-1.201s.538-1.202 1.201-1.202zm72.09 0c.664 0 1.202.538 1.202 1.202 0 .664-.538 1.201-1.202 1.201-.664 0-1.201-.537-1.201-1.201s.537-1.202 1.201-1.202zm28.836 0c.663 0 1.201.538 1.201 1.202 0 .664-.538 1.201-1.201 1.201-.664 0-1.202-.537-1.202-1.201s.538-1.202 1.202-1.202zm43.254 0c.663 0 1.201.538 1.201 1.202 0 .664-.538 1.201-1.201 1.201-.664 0-1.202-.537-1.202-1.201s.538-1.202 1.202-1.202zm-86.508 0c.664 0 1.202.538 1.202 1.202 0 .664-.538 1.201-1.202 1.201-.663 0-1.201-.537-1.201-1.201s.538-1.202 1.201-1.202zm-43.254 0c.664 0 1.202.538 1.202 1.202 0 .664-.538 1.201-1.202 1.201-.663 0-1.201-.537-1.201-1.201s.538-1.202 1.201-1.202zm100.926 0c.663 0 1.201.538 1.201 1.202 0 .664-.538 1.201-1.201 1.201-.664 0-1.202-.537-1.202-1.201s.538-1.202 1.202-1.202zm-72.09 0c.664 0 1.202.538 1.202 1.202 0 .664-.538 1.201-1.202 1.201-.663 0-1.201-.537-1.201-1.201s.538-1.202 1.201-1.202zm86.508 0c.663 0 1.201.538 1.201 1.202 0 .664-.538 1.201-1.201 1.201-.664 0-1.202-.537-1.202-1.201s.538-1.202 1.202-1.202zm-100.926 0c.664 0 1.202.538 1.202 1.202 0 .664-.538 1.201-1.202 1.201-.663 0-1.201-.537-1.201-1.201s.538-1.202 1.201-1.202zm57.672 0c.664 0 1.201.538 1.201 1.202 0 .664-.537 1.201-1.201 1.201s-1.202-.537-1.202-1.201.538-1.202 1.202-1.202zm72.09 0c.663 0 1.201.538 1.201 1.202 0 .664-.538 1.201-1.201 1.201-.664 0-1.202-.537-1.202-1.201s.538-1.202 1.202-1.202zM93.455 166.09c.664 0 1.202.537 1.202 1.201s-.538 1.202-1.202 1.202c-.663 0-1.201-.538-1.201-1.202 0-.664.538-1.201 1.201-1.201zm43.254 0c.664 0 1.201.537 1.201 1.201s-.537 1.202-1.201 1.202-1.202-.538-1.202-1.202c0-.664.538-1.201 1.202-1.201zm-86.508 0c.664 0 1.202.537 1.202 1.201s-.538 1.202-1.202 1.202c-.663 0-1.201-.538-1.201-1.202 0-.664.538-1.201 1.201-1.201zm115.344 0c.663 0 1.201.537 1.201 1.201s-.538 1.202-1.201 1.202c-.664 0-1.202-.538-1.202-1.202 0-.664.538-1.201 1.202-1.201zm-86.508 0c.664 0 1.202.537 1.202 1.201s-.538 1.202-1.202 1.202c-.663 0-1.201-.538-1.201-1.202 0-.664.538-1.201 1.201-1.201zm129.762 0c.663 0 1.201.537 1.201 1.201s-.538 1.202-1.201 1.202c-.664 0-1.202-.538-1.202-1.202 0-.664.538-1.201 1.202-1.201zm-100.926 0c.664 0 1.202.537 1.202 1.201s-.538 1.202-1.202 1.202c-.663 0-1.201-.538-1.201-1.202 0-.664.538-1.201 1.201-1.201zm72.09 0c.663 0 1.201.537 1.201 1.201s-.538 1.202-1.201 1.202c-.664 0-1.202-.538-1.202-1.202 0-.664.538-1.201 1.202-1.201zm-115.344 0c.664 0 1.202.537 1.202 1.201s-.538 1.202-1.202 1.202c-.663 0-1.201-.538-1.201-1.202 0-.664.538-1.201 1.201-1.201zm86.508 0c.663 0 1.201.537 1.201 1.201s-.538 1.202-1.201 1.202c-.664 0-1.202-.538-1.202-1.202 0-.664.538-1.201 1.202-1.201zm43.254 0c.663 0 1.201.537 1.201 1.201s-.538 1.202-1.201 1.202c-.664 0-1.202-.538-1.202-1.202 0-.664.538-1.201 1.202-1.201zm-72.09 0c.664 0 1.202.537 1.202 1.201s-.538 1.202-1.202 1.202c-.664 0-1.201-.538-1.201-1.202 0-.664.537-1.201 1.201-1.201zm72.09-14.418c.663 0 1.201.538 1.201 1.201 0 .664-.538 1.202-1.201 1.202-.664 0-1.202-.538-1.202-1.202 0-.663.538-1.201 1.202-1.201zm-14.418 0c.663 0 1.201.538 1.201 1.201 0 .664-.538 1.202-1.201 1.202-.664 0-1.202-.538-1.202-1.202 0-.663.538-1.201 1.202-1.201zm-28.836 0c.663 0 1.201.538 1.201 1.201 0 .664-.538 1.202-1.201 1.202-.664 0-1.202-.538-1.202-1.202 0-.663.538-1.201 1.202-1.201zm57.672 0c.663 0 1.201.538 1.201 1.201 0 .664-.538 1.202-1.201 1.202-.664 0-1.202-.538-1.202-1.202 0-.663.538-1.201 1.202-1.201zm-72.09 0c.664 0 1.201.538 1.201 1.201 0 .664-.537 1.202-1.201 1.202s-1.202-.538-1.202-1.202c0-.663.538-1.201 1.202-1.201zm-72.09 0c.664 0 1.202.538 1.202 1.201 0 .664-.538 1.202-1.202 1.202-.663 0-1.201-.538-1.201-1.202 0-.663.538-1.201 1.201-1.201zm43.254 0c.664 0 1.202.538 1.202 1.201 0 .664-.538 1.202-1.202 1.202-.663 0-1.201-.538-1.201-1.202 0-.663.538-1.201 1.201-1.201zm14.418 0c.664 0 1.202.538 1.202 1.201 0 .664-.538 1.202-1.202 1.202-.664 0-1.201-.538-1.201-1.202 0-.663.537-1.201 1.201-1.201zm-72.09 0c.664 0 1.202.538 1.202 1.201 0 .664-.538 1.202-1.202 1.202-.663 0-1.201-.538-1.201-1.202 0-.663.538-1.201 1.201-1.201zm43.254 0c.664 0 1.202.538 1.202 1.201 0 .664-.538 1.202-1.202 1.202-.663 0-1.201-.538-1.201-1.202 0-.663.538-1.201 1.201-1.201zm-14.418 0c.664 0 1.202.538 1.202 1.201 0 .664-.538 1.202-1.202 1.202-.663 0-1.201-.538-1.201-1.202 0-.663.538-1.201 1.201-1.201zm86.508 0c.663 0 1.201.538 1.201 1.201 0 .664-.538 1.202-1.201 1.202-.664 0-1.202-.538-1.202-1.202 0-.663.538-1.201 1.202-1.201zM50.2 137.254c.664 0 1.202.538 1.202 1.201 0 .664-.538 1.202-1.202 1.202-.663 0-1.201-.538-1.201-1.202 0-.663.538-1.201 1.201-1.201zm115.344 0c.663 0 1.201.538 1.201 1.201 0 .664-.538 1.202-1.201 1.202-.664 0-1.202-.538-1.202-1.202 0-.663.538-1.201 1.202-1.201zm28.836 0c.663 0 1.201.538 1.201 1.201 0 .664-.538 1.202-1.201 1.202-.664 0-1.202-.538-1.202-1.202 0-.663.538-1.201 1.202-1.201zm14.418 0c.663 0 1.201.538 1.201 1.201 0 .664-.538 1.202-1.201 1.202-.664 0-1.202-.538-1.202-1.202 0-.663.538-1.201 1.202-1.201zm-72.09 0c.664 0 1.201.538 1.201 1.201 0 .664-.537 1.202-1.201 1.202s-1.202-.538-1.202-1.202c0-.663.538-1.201 1.202-1.201zm-43.254 0c.664 0 1.202.538 1.202 1.201 0 .664-.538 1.202-1.202 1.202-.663 0-1.201-.538-1.201-1.202 0-.663.538-1.201 1.201-1.201zm-28.836 0c.664 0 1.202.538 1.202 1.201 0 .664-.538 1.202-1.202 1.202-.663 0-1.201-.538-1.201-1.202 0-.663.538-1.201 1.201-1.201zm115.344 0c.663 0 1.201.538 1.201 1.201 0 .664-.538 1.202-1.201 1.202-.664 0-1.202-.538-1.202-1.202 0-.663.538-1.201 1.202-1.201zm-28.836 0c.663 0 1.201.538 1.201 1.201 0 .664-.538 1.202-1.201 1.202-.664 0-1.202-.538-1.202-1.202 0-.663.538-1.201 1.202-1.201zm-43.254 0c.664 0 1.202.538 1.202 1.201 0 .664-.538 1.202-1.202 1.202-.663 0-1.201-.538-1.201-1.202 0-.663.538-1.201 1.201-1.201zm-28.836 0c.664 0 1.202.538 1.202 1.201 0 .664-.538 1.202-1.202 1.202-.663 0-1.201-.538-1.201-1.202 0-.663.538-1.201 1.201-1.201zm43.254 0c.664 0 1.202.538 1.202 1.201 0 .664-.538 1.202-1.202 1.202-.664 0-1.201-.538-1.201-1.202 0-.663.537-1.201 1.201-1.201zm-57.672-14.418c.664 0 1.202.538 1.202 1.201 0 .664-.538 1.202-1.202 1.202-.663 0-1.201-.538-1.201-1.202 0-.663.538-1.201 1.201-1.201zm57.672 0c.664 0 1.202.538 1.202 1.201 0 .664-.538 1.202-1.202 1.202-.664 0-1.201-.538-1.201-1.202 0-.663.537-1.201 1.201-1.201zm72.09 0c.663 0 1.201.538 1.201 1.201 0 .664-.538 1.202-1.201 1.202-.664 0-1.202-.538-1.202-1.202 0-.663.538-1.201 1.202-1.201zm-115.344 0c.664 0 1.202.538 1.202 1.201 0 .664-.538 1.202-1.202 1.202-.663 0-1.201-.538-1.201-1.202 0-.663.538-1.201 1.201-1.201zm57.672 0c.664 0 1.201.538 1.201 1.201 0 .664-.537 1.202-1.201 1.202s-1.202-.538-1.202-1.202c0-.663.538-1.201 1.202-1.201zm-43.254 0c.664 0 1.202.538 1.202 1.201 0 .664-.538 1.202-1.202 1.202-.663 0-1.201-.538-1.201-1.202 0-.663.538-1.201 1.201-1.201zm86.508 0c.663 0 1.201.538 1.201 1.201 0 .664-.538 1.202-1.201 1.202-.664 0-1.202-.538-1.202-1.202 0-.663.538-1.201 1.202-1.201zm28.836 0c.663 0 1.201.538 1.201 1.201 0 .664-.538 1.202-1.201 1.202-.664 0-1.202-.538-1.202-1.202 0-.663.538-1.201 1.202-1.201zm-100.926 0c.664 0 1.202.538 1.202 1.201 0 .664-.538 1.202-1.202 1.202-.663 0-1.201-.538-1.201-1.202 0-.663.538-1.201 1.201-1.201zm57.672 0c.663 0 1.201.538 1.201 1.201 0 .664-.538 1.202-1.201 1.202-.664 0-1.202-.538-1.202-1.202 0-.663.538-1.201 1.202-1.201zm-115.344 0c.664 0 1.202.538 1.202 1.201 0 .664-.538 1.202-1.202 1.202-.663 0-1.201-.538-1.201-1.202 0-.663.538-1.201 1.201-1.201zm100.926 0c.663 0 1.201.538 1.201 1.201 0 .664-.538 1.202-1.201 1.202-.664 0-1.202-.538-1.202-1.202 0-.663.538-1.201 1.202-1.201zM50.2 108.418c.664 0 1.202.538 1.202 1.201 0 .664-.538 1.202-1.202 1.202-.663 0-1.201-.538-1.201-1.202 0-.663.538-1.201 1.201-1.201zm115.344 0c.663 0 1.201.538 1.201 1.201 0 .664-.538 1.202-1.201 1.202-.664 0-1.202-.538-1.202-1.202 0-.663.538-1.201 1.202-1.201zm43.254 0c.663 0 1.201.538 1.201 1.201 0 .664-.538 1.202-1.201 1.202-.664 0-1.202-.538-1.202-1.202 0-.663.538-1.201 1.202-1.201zm-115.344 0c.664 0 1.202.538 1.202 1.201 0 .664-.538 1.202-1.202 1.202-.663 0-1.201-.538-1.201-1.202 0-.663.538-1.201 1.201-1.201zm28.836 0c.664 0 1.202.538 1.202 1.201 0 .664-.538 1.202-1.202 1.202-.664 0-1.201-.538-1.201-1.202 0-.663.537-1.201 1.201-1.201zm-14.418 0c.664 0 1.202.538 1.202 1.201 0 .664-.538 1.202-1.202 1.202-.663 0-1.201-.538-1.201-1.202 0-.663.538-1.201 1.201-1.201zm-43.254 0c.664 0 1.202.538 1.202 1.201 0 .664-.538 1.202-1.202 1.202-.663 0-1.201-.538-1.201-1.202 0-.663.538-1.201 1.201-1.201zm14.418 0c.664 0 1.202.538 1.202 1.201 0 .664-.538 1.202-1.202 1.202-.663 0-1.201-.538-1.201-1.202 0-.663.538-1.201 1.201-1.201zm72.09 0c.663 0 1.201.538 1.201 1.201 0 .664-.538 1.202-1.201 1.202-.664 0-1.202-.538-1.202-1.202 0-.663.538-1.201 1.202-1.201zm43.254 0c.663 0 1.201.538 1.201 1.201 0 .664-.538 1.202-1.201 1.202-.664 0-1.202-.538-1.202-1.202 0-.663.538-1.201 1.202-1.201zm-14.418 0c.663 0 1.201.538 1.201 1.201 0 .664-.538 1.202-1.201 1.202-.664 0-1.202-.538-1.202-1.202 0-.663.538-1.201 1.202-1.201zm-43.254 0c.664 0 1.201.538 1.201 1.201 0 .664-.537 1.202-1.201 1.202s-1.202-.538-1.202-1.202c0-.663.538-1.201 1.202-1.201zM50.201 94c.664 0 1.202.538 1.202 1.201 0 .664-.538 1.202-1.202 1.202-.663 0-1.201-.538-1.201-1.202 0-.663.538-1.201 1.201-1.201zm86.508 0c.664 0 1.201.538 1.201 1.201 0 .664-.537 1.202-1.201 1.202s-1.202-.538-1.202-1.202c0-.663.538-1.201 1.202-1.201zm-72.09 0c.664 0 1.202.538 1.202 1.201 0 .664-.538 1.202-1.202 1.202-.663 0-1.201-.538-1.201-1.202 0-.663.538-1.201 1.201-1.201zm86.508 0c.663 0 1.201.538 1.201 1.201 0 .664-.538 1.202-1.201 1.202-.664 0-1.202-.538-1.202-1.202 0-.663.538-1.201 1.202-1.201zm-72.09 0c.664 0 1.202.538 1.202 1.201 0 .664-.538 1.202-1.202 1.202-.663 0-1.201-.538-1.201-1.202 0-.663.538-1.201 1.201-1.201zm86.508 0c.663 0 1.201.538 1.201 1.201 0 .664-.538 1.202-1.201 1.202-.664 0-1.202-.538-1.202-1.202 0-.663.538-1.201 1.202-1.201zm-72.09 0c.664 0 1.202.538 1.202 1.201 0 .664-.538 1.202-1.202 1.202-.663 0-1.201-.538-1.201-1.202 0-.663.538-1.201 1.201-1.201zm86.508 0c.663 0 1.201.538 1.201 1.201 0 .664-.538 1.202-1.201 1.202-.664 0-1.202-.538-1.202-1.202 0-.663.538-1.201 1.202-1.201zm-72.09 0c.664 0 1.202.538 1.202 1.201 0 .664-.538 1.202-1.202 1.202-.663 0-1.201-.538-1.201-1.202 0-.663.538-1.201 1.201-1.201zm14.418 0c.664 0 1.202.538 1.202 1.201 0 .664-.538 1.202-1.202 1.202-.664 0-1.201-.538-1.201-1.202 0-.663.537-1.201 1.201-1.201zm72.09 0c.663 0 1.201.538 1.201 1.201 0 .664-.538 1.202-1.201 1.202-.664 0-1.202-.538-1.202-1.202 0-.663.538-1.201 1.202-1.201zm14.418 0c.663 0 1.201.538 1.201 1.201 0 .664-.538 1.202-1.201 1.202-.664 0-1.202-.538-1.202-1.202 0-.663.538-1.201 1.202-1.201z" opacity=".5" transform="translate(.5)"/>
    </g>
</svg>
