<?xml version="1.0" encoding="UTF-8"?>
<svg width="250px" height="385px" viewBox="0 0 250 385" version="1.1" xmlns="http://www.w3.org/2000/svg" xmlns:xlink="http://www.w3.org/1999/xlink">
    <title>icons/pattern-3</title>
    <g id="icons/pattern-3" stroke="none" stroke-width="1" fill="none" fill-rule="evenodd">
        <path d="M189.867202,340 C200.68324,349.045957 202.093897,365.117444 193.01837,375.897051 C183.941841,386.677657 167.816038,388.083563 157,379.038605 L189.867202,340 Z" id="Path" fill="#6899E4" fill-rule="nonzero" opacity="0.276181176"></path>
        <path d="M225.011828,243.391876 L225.051154,243.385099 C236.414935,241.187929 247.411224,248.615745 249.609397,259.975696 L249.613465,259.994672 C251.815707,271.372243 244.384499,282.381135 233.007157,284.604058 L232.986816,284.608124 L232.948846,284.614901 C221.583709,286.812071 210.58742,279.384255 208.390603,268.024304 L208.386535,268.005328 C206.184293,256.627757 213.615501,245.618865 224.992843,243.395942 L225.011828,243.391876 Z" id="Path" fill="#F0D7B0" fill-rule="nonzero" style="mix-blend-mode: multiply;"></path>
        <g id="icons/pattern-circle" transform="translate(115.000000, 115.000000) scale(-1, -1) translate(-115.000000, -115.000000) " fill="#6899E4" fill-opacity="0.3">
            <path d="M114.551948,224.324675 C115.789209,224.324675 116.792208,225.327674 116.792208,226.564935 C116.792208,227.802196 115.789209,228.805195 114.551948,228.805195 C113.314687,228.805195 112.311688,227.802196 112.311688,226.564935 C112.311688,225.327674 113.314687,224.324675 114.551948,224.324675 Z M138.124133,224.079479 C138.360214,225.294009 137.567025,226.46996 136.352495,226.706041 C135.137966,226.942121 133.962014,226.148932 133.725934,224.934403 C133.489853,223.719873 134.283043,222.543922 135.497572,222.307841 C136.712101,222.071761 137.888053,222.86495 138.124133,224.079479 Z M92.6667862,222.120955 C93.8792091,222.367626 94.6621063,223.550454 94.4154361,224.762877 C94.1687658,225.9753 92.9859372,226.758197 91.7735142,226.511527 C90.5610913,226.264857 89.7781941,225.082028 90.0248643,223.869605 C90.2715346,222.657182 91.4543633,221.874285 92.6667862,222.120955 Z M72.543744,215.968724 C73.6868244,216.442203 74.2296432,217.752684 73.7561638,218.895764 C73.2826844,220.038845 71.9722038,220.581664 70.8291234,220.108184 C69.686043,219.634705 69.1432242,218.324224 69.6167036,217.181144 C70.090183,216.038063 71.4006636,215.495245 72.543744,215.968724 Z M159.487193,217.181144 C159.960672,218.324224 159.417853,219.634705 158.274773,220.108184 C157.131692,220.581664 155.821212,220.038845 155.347732,218.895764 C154.874253,217.752684 155.417072,216.442203 156.560152,215.968724 C157.703232,215.495245 159.013713,216.038063 159.487193,217.181144 Z M178.244179,206.721508 C178.92707,207.753242 178.644275,209.14322 177.612541,209.826111 C176.580806,210.509001 175.190828,210.226207 174.507938,209.194472 C173.825047,208.162737 174.107842,206.772759 175.139576,206.089869 C176.171311,205.406979 177.561289,205.689773 178.244179,206.721508 Z M53.167818,205.557663 C54.1935541,206.249531 54.4642078,207.641924 53.7723401,208.66766 C53.0804724,209.693396 51.6880794,209.96405 50.6623433,209.272182 C49.6366072,208.580315 49.3659534,207.187922 50.0578211,206.162186 C50.7496889,205.136449 52.1420819,204.865796 53.167818,205.557663 Z M114.551948,201.922078 C115.789209,201.922078 116.792208,202.925076 116.792208,204.162338 C116.792208,205.399599 115.789209,206.402597 114.551948,206.402597 C113.314687,206.402597 112.311688,205.399599 112.311688,204.162338 C112.311688,202.925076 113.314687,201.922078 114.551948,201.922078 Z M133.849516,202.088481 C134.085597,203.30301 133.292407,204.478962 132.077878,204.715042 C130.863349,204.951123 129.687397,204.157933 129.451317,202.943404 C129.215236,201.728875 130.008425,200.552923 131.222955,200.316843 C132.437484,200.080762 133.613436,200.873951 133.849516,202.088481 Z M97.1331457,200.168097 C98.3455686,200.414767 99.1284659,201.597596 98.8817956,202.810019 C98.6351254,204.022441 97.4522967,204.805339 96.2398738,204.558668 C95.0274509,204.311998 94.2445537,203.12917 94.4912239,201.916747 C94.7378941,200.704324 95.9207228,199.921427 97.1331457,200.168097 Z M150.91409,196.483843 C151.387569,197.626923 150.84475,198.937404 149.70167,199.410883 C148.558589,199.884362 147.248109,199.341544 146.774629,198.198463 C146.30115,197.055383 146.843969,195.744902 147.987049,195.271423 C149.13013,194.797943 150.44061,195.340762 150.91409,196.483843 Z M81.1168469,195.271423 C82.2599272,195.744902 82.8027461,197.055383 82.3292667,198.198463 C81.8557873,199.341544 80.5453067,199.884362 79.4022263,199.410883 C78.2591459,198.937404 77.7163271,197.626923 78.1898065,196.483843 C78.6632859,195.340762 79.9737665,194.797943 81.1168469,195.271423 Z M36.9309082,192.172988 C37.8057841,193.047864 37.8057841,194.466318 36.9309082,195.341194 C36.0560324,196.216069 34.6375783,196.216069 33.7627025,195.341194 C32.8878267,194.466318 32.8878267,193.047864 33.7627025,192.172988 C34.6375783,191.298112 36.0560324,191.298112 36.9309082,192.172988 Z M195.341194,192.172988 C196.216069,193.047864 196.216069,194.466318 195.341194,195.341194 C194.466318,196.216069 193.047864,196.216069 192.172988,195.341194 C191.298112,194.466318 191.298112,193.047864 192.172988,192.172988 C193.047864,191.298112 194.466318,191.298112 195.341194,192.172988 Z M165.879357,188.040299 C166.562247,189.072034 166.279453,190.462012 165.247719,191.144902 C164.215984,191.827793 162.826006,191.544998 162.143116,190.513264 C161.460225,189.481529 161.743019,188.091551 162.774754,187.408661 C163.806489,186.72577 165.196467,187.008565 165.879357,188.040299 Z M65.6951915,186.985068 C66.7209275,187.676936 66.9915813,189.069329 66.2997136,190.095065 C65.6078459,191.120801 64.2154529,191.391455 63.1897168,190.699587 C62.1639807,190.00772 61.8933269,188.615327 62.5851946,187.589591 C63.2770623,186.563854 64.6694554,186.293201 65.6951915,186.985068 Z M114.551948,179.519481 C115.789209,179.519481 116.792208,180.522479 116.792208,181.75974 C116.792208,182.997002 115.789209,184 114.551948,184 C113.314687,184 112.311688,182.997002 112.311688,181.75974 C112.311688,180.522479 113.314687,179.519481 114.551948,179.519481 Z M129.664226,180.106477 C129.900307,181.321006 129.107118,182.496958 127.892588,182.733038 C126.678059,182.969119 125.502107,182.17593 125.266027,180.9614 C125.029946,179.746871 125.823136,178.570919 127.037665,178.334839 C128.252194,178.098758 129.428146,178.891948 129.664226,180.106477 Z M101.688832,178.224233 C102.901255,178.470903 103.684153,179.653732 103.437482,180.866155 C103.190812,182.078578 102.007983,182.861475 100.795561,182.614805 C99.5831377,182.368134 98.8002404,181.185306 99.0469107,179.972883 C99.2935809,178.76046 100.47641,177.977563 101.688832,178.224233 Z M52.7719367,176.331959 C53.6468126,177.206835 53.6468126,178.625289 52.7719367,179.500165 C51.8970609,180.375041 50.4786069,180.375041 49.603731,179.500165 C48.7288552,178.625289 48.7288552,177.206835 49.603731,176.331959 C50.4786069,175.457084 51.8970609,175.457084 52.7719367,176.331959 Z M179.500165,176.331959 C180.375041,177.206835 180.375041,178.625289 179.500165,179.500165 C178.625289,180.375041 177.206835,180.375041 176.331959,179.500165 C175.457084,178.625289 175.457084,177.206835 176.331959,176.331959 C177.206835,175.457084 178.625289,175.457084 179.500165,176.331959 Z M208.66766,175.331556 C209.693396,176.023424 209.96405,177.415817 209.272182,178.441553 C208.580315,179.467289 207.187922,179.737943 206.162186,179.046075 C205.136449,178.354207 204.865796,176.961814 205.557663,175.936078 C206.249531,174.910342 207.641924,174.639688 208.66766,175.331556 Z M142.340987,175.786541 C142.814466,176.929622 142.271647,178.240102 141.128567,178.713582 C139.985487,179.187061 138.675006,178.644242 138.201527,177.501162 C137.728047,176.358082 138.270866,175.047601 139.413946,174.574122 C140.557027,174.100642 141.867507,174.643461 142.340987,175.786541 Z M89.6899497,174.574122 C90.8330301,175.047601 91.375849,176.358082 90.9023696,177.501162 C90.4288902,178.644242 89.1184095,179.187061 87.9753292,178.713582 C86.8322488,178.240102 86.2894299,176.929622 86.7629093,175.786541 C87.2363887,174.643461 88.5468694,174.100642 89.6899497,174.574122 Z M23.0140271,175.139576 C23.6969174,176.171311 23.4141231,177.561289 22.3823885,178.244179 C21.3506539,178.92707 19.9606757,178.644275 19.2777855,177.612541 C18.5948952,176.580806 18.8776894,175.190828 19.9094241,174.507938 C20.9411587,173.825047 22.3311369,174.107842 23.0140271,175.139576 Z M153.603862,169.368086 C154.286753,170.39982 154.003958,171.789798 152.972224,172.472689 C151.940489,173.155579 150.550511,172.872785 149.867621,171.84105 C149.18473,170.809315 149.467525,169.419337 150.499259,168.736447 C151.530994,168.053557 152.920972,168.336351 153.603862,169.368086 Z M78.3118921,168.421468 C79.3376282,169.113336 79.608282,170.505729 78.9164143,171.531465 C78.2245465,172.557201 76.8321535,172.827855 75.8064174,172.135987 C74.7806813,171.444119 74.5100276,170.051726 75.2018953,169.02599 C75.893763,168.000254 77.286156,167.729601 78.3118921,168.421468 Z M190.095065,162.804183 C191.120801,163.49605 191.391455,164.888443 190.699587,165.914179 C190.00772,166.939915 188.615327,167.210569 187.589591,166.518701 C186.563854,165.826834 186.293201,164.434441 186.985068,163.408705 C187.676936,162.382969 189.069329,162.112315 190.095065,162.804183 Z M41.6952355,162.774754 C42.3781257,163.806489 42.0953315,165.196467 41.0635969,165.879357 C40.0318622,166.562247 38.6418841,166.279453 37.9589938,165.247719 C37.2761035,164.215984 37.5588978,162.826006 38.5906324,162.143116 C39.6223671,161.460225 41.0123452,161.743019 41.6952355,162.774754 Z M163.659137,160.490931 C164.534012,161.365807 164.534012,162.784261 163.659137,163.659137 C162.784261,164.534012 161.365807,164.534012 160.490931,163.659137 C159.616055,162.784261 159.616055,161.365807 160.490931,160.490931 C161.365807,159.616055 162.784261,159.616055 163.659137,160.490931 Z M68.6129653,160.490931 C69.4878411,161.365807 69.4878411,162.784261 68.6129653,163.659137 C67.7380894,164.534012 66.3196354,164.534012 65.4447596,163.659137 C64.5698837,162.784261 64.5698837,161.365807 65.4447596,160.490931 C66.3196354,159.616055 67.7380894,159.616055 68.6129653,160.490931 Z M114.551948,157.116883 C115.789209,157.116883 116.792208,158.119882 116.792208,159.357143 C116.792208,160.594404 115.789209,161.597403 114.551948,161.597403 C113.314687,161.597403 112.311688,160.594404 112.311688,159.357143 C112.311688,158.119882 113.314687,157.116883 114.551948,157.116883 Z M124.929584,158.105466 C125.155057,159.322009 124.351635,160.490994 123.135092,160.716467 C121.918549,160.94194 120.749564,160.138519 120.524091,158.921975 C120.298618,157.705432 121.102039,156.536447 122.318582,156.310974 C123.535126,156.085501 124.704111,156.888922 124.929584,158.105466 Z M105.711991,156.093582 C106.922216,156.350823 107.694761,157.540439 107.43752,158.750663 C107.180279,159.960887 105.990663,160.733432 104.780439,160.476191 C103.570215,160.21895 102.797669,159.029335 103.054911,157.81911 C103.312152,156.608886 104.501767,155.836341 105.711991,156.093582 Z M218.895764,155.347732 C220.038845,155.821212 220.581664,157.131692 220.108184,158.274773 C219.634705,159.417853 218.324224,159.960672 217.181144,159.487193 C216.038063,159.013713 215.495245,157.703232 215.968724,156.560152 C216.442203,155.417072 217.752684,154.874253 218.895764,155.347732 Z M13.1351721,156.560152 C13.6086515,157.703232 13.0658326,159.013713 11.9227523,159.487193 C10.7796719,159.960672 9.46919125,159.417853 8.99571185,158.274773 C8.52223246,157.131692 9.06505131,155.821212 10.2081317,155.347732 C11.3512121,154.874253 12.6616927,155.417072 13.1351721,156.560152 Z M133.767884,155.08924 C134.241363,156.232321 133.698544,157.542801 132.555464,158.016281 C131.412384,158.48976 130.101903,157.946941 129.628424,156.803861 C129.154944,155.66078 129.697763,154.3503 130.840844,153.87682 C131.983924,153.403341 133.294405,153.94616 133.767884,155.08924 Z M98.2630526,153.87682 C99.406133,154.3503 99.9489518,155.66078 99.4754724,156.803861 C99.001993,157.946941 97.6915124,158.48976 96.548432,158.016281 C95.4053516,157.542801 94.8625328,156.232321 95.3360122,155.08924 C95.8094916,153.94616 97.1199722,153.403341 98.2630526,153.87682 Z M171.611798,150.285804 C172.637534,150.977672 172.908187,152.370065 172.21632,153.395801 C171.524452,154.421537 170.132059,154.692191 169.106323,154.000323 C168.080587,153.308455 167.809933,151.916062 168.501801,150.890326 C169.193668,149.86459 170.586061,149.593936 171.611798,150.285804 Z M140.843237,150.815458 C141.517098,151.853113 141.222185,153.24057 140.18453,153.914431 C139.146875,154.588292 137.759418,154.293379 137.085557,153.255724 C136.411696,152.218069 136.70661,150.830612 137.744264,150.156751 C138.781919,149.48289 140.169376,149.777803 140.843237,150.815458 Z M60.465771,150.418927 C61.1486613,151.450661 60.865867,152.84064 59.8341324,153.52353 C58.8023977,154.20642 57.4124196,153.923626 56.7295294,152.891891 C56.0466391,151.860157 56.3294333,150.470178 57.361168,149.787288 C58.3929026,149.104398 59.7828808,149.387192 60.465771,150.418927 Z M90.4526944,149.537671 C91.4723538,150.238463 91.7308465,151.633165 91.030054,152.652824 C90.3292615,153.672484 88.9345596,153.930976 87.9149002,153.230184 C86.8952408,152.529391 86.636748,151.13469 87.3375406,150.11503 C88.0383331,149.095371 89.4330349,148.836878 90.4526944,149.537671 Z M198.198463,146.774629 C199.341544,147.248109 199.884362,148.558589 199.410883,149.70167 C198.937404,150.84475 197.626923,151.387569 196.483843,150.91409 C195.340762,150.44061 194.797943,149.13013 195.271423,147.987049 C195.744902,146.843969 197.055383,146.30115 198.198463,146.774629 Z M33.8324733,147.987049 C34.3059527,149.13013 33.7631339,150.44061 32.6200535,150.91409 C31.4769731,151.387569 30.1664925,150.84475 29.6930131,149.70167 C29.2195337,148.558589 29.7623525,147.248109 30.9054329,146.774629 C32.0485133,146.30115 33.3589939,146.843969 33.8324733,147.987049 Z M84.4539938,144.649902 C85.3288697,145.524778 85.3288697,146.943232 84.4539938,147.818108 C83.579118,148.692984 82.160664,148.692984 81.2857881,147.818108 C80.4109123,146.943232 80.4109123,145.524778 81.2857881,144.649902 C82.160664,143.775026 83.579118,143.775026 84.4539938,144.649902 Z M147.818108,144.649902 C148.692984,145.524778 148.692984,146.943232 147.818108,147.818108 C146.943232,148.692984 145.524778,148.692984 144.649902,147.818108 C143.775026,146.943232 143.775026,145.524778 144.649902,144.649902 C145.524778,143.775026 146.943232,143.775026 147.818108,144.649902 Z M54.5297745,139.413946 C55.0032539,140.557027 54.4604351,141.867507 53.3173547,142.340987 C52.1742743,142.814466 50.8637937,142.271647 50.3903143,141.128567 C49.9168349,139.985487 50.4596537,138.675006 51.6027341,138.201527 C52.7458145,137.728047 54.0562951,138.270866 54.5297745,139.413946 Z M177.501162,138.201527 C178.644242,138.675006 179.187061,139.985487 178.713582,141.128567 C178.240102,142.271647 176.929622,142.814466 175.786541,142.340987 C174.643461,141.867507 174.100642,140.557027 174.574122,139.413946 C175.047601,138.270866 176.358082,137.728047 177.501162,138.201527 Z M152.755771,137.990478 C153.77543,138.69127 154.033923,140.085972 153.33313,141.105632 C152.632338,142.125291 151.237636,142.383784 150.217976,141.682991 C149.198317,140.982199 148.939824,139.587497 149.640617,138.567838 C150.341409,137.548178 151.736111,137.289685 152.755771,137.990478 Z M78.8637808,137.641318 C79.5376416,138.678973 79.2427284,140.06643 78.2050738,140.740291 C77.1674192,141.414152 75.7799618,141.119238 75.106101,140.081584 C74.4322402,139.043929 74.7271534,137.656472 75.764808,136.982611 C76.8024626,136.30875 78.18992,136.603663 78.8637808,137.641318 Z M114.551948,134.714286 C115.789209,134.714286 116.792208,135.717284 116.792208,136.954545 C116.792208,138.191807 115.789209,139.194805 114.551948,139.194805 C113.314687,139.194805 112.311688,138.191807 112.311688,136.954545 C112.311688,135.717284 113.314687,134.714286 114.551948,134.714286 Z M224.762877,134.68846 C225.9753,134.93513 226.758197,136.117959 226.511527,137.330382 C226.264857,138.542805 225.082028,139.325702 223.869605,139.079032 C222.657182,138.832362 221.874285,137.649533 222.120955,136.43711 C222.367626,135.224687 223.550454,134.44179 224.762877,134.68846 Z M6.79605496,135.497572 C7.03213554,136.712101 6.23894613,137.888053 5.02441681,138.124133 C3.8098875,138.360214 2.63393583,137.567025 2.39785524,136.352495 C2.16177466,135.137966 2.95496407,133.962014 4.16949339,133.725934 C5.38402271,133.489853 6.55997438,134.283043 6.79605496,135.497572 Z M106.836155,133.179519 C107.979236,133.652999 108.522055,134.963479 108.048575,136.10656 C107.575096,137.24964 106.264615,137.792459 105.121535,137.318979 C103.978455,136.8455 103.435636,135.535019 103.909115,134.391939 C104.382594,133.248859 105.693075,132.70604 106.836155,133.179519 Z M125.194781,134.391939 C125.66826,135.535019 125.125442,136.8455 123.982361,137.318979 C122.839281,137.792459 121.5288,137.24964 121.055321,136.10656 C120.581841,134.963479 121.12466,133.652999 122.267741,133.179519 C123.410821,132.70604 124.721302,133.248859 125.194781,134.391939 Z M202.810019,130.2221 C204.022441,130.468771 204.805339,131.651599 204.558668,132.864022 C204.311998,134.076445 203.12917,134.859342 201.916747,134.612672 C200.704324,134.366002 199.921427,133.183173 200.168097,131.97075 C200.414767,130.758327 201.597596,129.97543 202.810019,130.2221 Z M156.803861,129.628424 C157.946941,130.101903 158.48976,131.412384 158.016281,132.555464 C157.542801,133.698544 156.232321,134.241363 155.08924,133.767884 C153.94616,133.294405 153.403341,131.983924 153.87682,130.840844 C154.3503,129.697763 155.66078,129.154944 156.803861,129.628424 Z M75.2270757,130.840844 C75.7005551,131.983924 75.1577363,133.294405 74.0146559,133.767884 C72.8715755,134.241363 71.5610949,133.698544 71.0876155,132.555464 C70.6141361,131.412384 71.156955,130.101903 72.3000353,129.628424 C73.4431157,129.154944 74.7535963,129.697763 75.2270757,130.840844 Z M28.7870536,131.222955 C29.0231341,132.437484 28.2299447,133.613436 27.0154154,133.849516 C25.8008861,134.085597 24.6249344,133.292407 24.3888538,132.077878 C24.1527732,130.863349 24.9459627,129.687397 26.160492,129.451317 C27.3750213,129.215236 28.550973,130.008425 28.7870536,131.222955 Z M100.295022,128.808874 C101.169898,129.68375 101.169898,131.102204 100.295022,131.977079 C99.4201465,132.851955 98.0016925,132.851955 97.1268167,131.977079 C96.2519408,131.102204 96.2519408,129.68375 97.1268167,128.808874 C98.0016925,127.933998 99.4201465,127.933998 100.295022,128.808874 Z M131.977079,128.808874 C132.851955,129.68375 132.851955,131.102204 131.977079,131.977079 C131.102204,132.851955 129.68375,132.851955 128.808874,131.977079 C127.933998,131.102204 127.933998,129.68375 128.808874,128.808874 C129.68375,127.933998 131.102204,127.933998 131.977079,128.808874 Z M180.946487,125.764736 C182.15891,126.011406 182.941807,127.194235 182.695137,128.406657 C182.448467,129.61908 181.265638,130.401978 180.053215,130.155307 C178.840792,129.908637 178.057895,128.725808 178.304565,127.513386 C178.551236,126.300963 179.734064,125.518065 180.946487,125.764736 Z M50.8673793,126.957332 C51.1034599,128.171862 50.3102705,129.347813 49.0957412,129.583894 C47.8812119,129.819975 46.7052602,129.026785 46.4691796,127.812256 C46.233099,126.597727 47.0262884,125.421775 48.2408178,125.185694 C49.4553471,124.949614 50.6312987,125.742803 50.8673793,126.957332 Z M158.853609,121.583012 C160.063833,121.840253 160.836379,123.029869 160.579138,124.240093 C160.321896,125.450317 159.132281,126.222862 157.922057,125.965621 C156.711833,125.70838 155.939287,124.518765 156.196528,123.30854 C156.453769,122.098316 157.643385,121.325771 158.853609,121.583012 Z M136.10656,121.055321 C137.24964,121.5288 137.792459,122.839281 137.318979,123.982361 C136.8455,125.125442 135.535019,125.66826 134.391939,125.194781 C133.248859,124.721302 132.70604,123.410821 133.179519,122.267741 C133.652999,121.12466 134.963479,120.581841 136.10656,121.055321 Z M95.924377,122.267741 C96.3978564,123.410821 95.8550375,124.721302 94.7119571,125.194781 C93.5688767,125.66826 92.2583961,125.125442 91.7849167,123.982361 C91.3114373,122.839281 91.8542562,121.5288 92.9973365,121.055321 C94.1404169,120.581841 95.4508976,121.12466 95.924377,122.267741 Z M72.7095578,122.215636 C72.9350307,123.432179 72.1316095,124.601164 70.9150663,124.826637 C69.6985231,125.05211 68.529538,124.248689 68.304065,123.032146 C68.078592,121.815603 68.8820132,120.646618 70.0985565,120.421145 C71.3150997,120.195672 72.4840848,120.999093 72.7095578,122.215636 Z M2.53896104,112.311688 C3.77622233,112.311688 4.77922078,113.314687 4.77922078,114.551948 C4.77922078,115.789209 3.77622233,116.792208 2.53896104,116.792208 C1.30169975,116.792208 0.298701299,115.789209 0.298701299,114.551948 C0.298701299,113.314687 1.30169975,112.311688 2.53896104,112.311688 Z M136.954545,112.311688 C138.191807,112.311688 139.194805,113.314687 139.194805,114.551948 C139.194805,115.789209 138.191807,116.792208 136.954545,116.792208 C135.717284,116.792208 134.714286,115.789209 134.714286,114.551948 C134.714286,113.314687 135.717284,112.311688 136.954545,112.311688 Z M92.1493506,112.311688 C93.3866119,112.311688 94.3896104,113.314687 94.3896104,114.551948 C94.3896104,115.789209 93.3866119,116.792208 92.1493506,116.792208 C90.9120894,116.792208 89.9090909,115.789209 89.9090909,114.551948 C89.9090909,113.314687 90.9120894,112.311688 92.1493506,112.311688 Z M181.75974,112.311688 C182.997002,112.311688 184,113.314687 184,114.551948 C184,115.789209 182.997002,116.792208 181.75974,116.792208 C180.522479,116.792208 179.519481,115.789209 179.519481,114.551948 C179.519481,113.314687 180.522479,112.311688 181.75974,112.311688 Z M204.162338,112.311688 C205.399599,112.311688 206.402597,113.314687 206.402597,114.551948 C206.402597,115.789209 205.399599,116.792208 204.162338,116.792208 C202.925076,116.792208 201.922078,115.789209 201.922078,114.551948 C201.922078,113.314687 202.925076,112.311688 204.162338,112.311688 Z M47.3441558,112.311688 C48.5814171,112.311688 49.5844156,113.314687 49.5844156,114.551948 C49.5844156,115.789209 48.5814171,116.792208 47.3441558,116.792208 C46.1068946,116.792208 45.1038961,115.789209 45.1038961,114.551948 C45.1038961,113.314687 46.1068946,112.311688 47.3441558,112.311688 Z M226.564935,112.311688 C227.802196,112.311688 228.805195,113.314687 228.805195,114.551948 C228.805195,115.789209 227.802196,116.792208 226.564935,116.792208 C225.327674,116.792208 224.324675,115.789209 224.324675,114.551948 C224.324675,113.314687 225.327674,112.311688 226.564935,112.311688 Z M24.9415584,112.311688 C26.1788197,112.311688 27.1818182,113.314687 27.1818182,114.551948 C27.1818182,115.789209 26.1788197,116.792208 24.9415584,116.792208 C23.7042972,116.792208 22.7012987,115.789209 22.7012987,114.551948 C22.7012987,113.314687 23.7042972,112.311688 24.9415584,112.311688 Z M69.7467532,112.311688 C70.9840145,112.311688 71.987013,113.314687 71.987013,114.551948 C71.987013,115.789209 70.9840145,116.792208 69.7467532,116.792208 C68.509492,116.792208 67.5064935,115.789209 67.5064935,114.551948 C67.5064935,113.314687 68.509492,112.311688 69.7467532,112.311688 Z M159.357143,112.311688 C160.594404,112.311688 161.597403,113.314687 161.597403,114.551948 C161.597403,115.789209 160.594404,116.792208 159.357143,116.792208 C158.119882,116.792208 157.116883,115.789209 157.116883,114.551948 C157.116883,113.314687 158.119882,112.311688 159.357143,112.311688 Z M114.551948,112.311688 C115.789209,112.311688 116.792208,113.314687 116.792208,114.551948 C116.792208,115.789209 115.789209,116.792208 114.551948,116.792208 C113.314687,116.792208 112.311688,115.789209 112.311688,114.551948 C112.311688,113.314687 113.314687,112.311688 114.551948,112.311688 Z M160.819413,105.88544 C161.044886,107.101983 160.241465,108.270968 159.024922,108.496441 C157.808378,108.721914 156.639393,107.918493 156.41392,106.70195 C156.188447,105.485406 156.991869,104.316421 158.208412,104.090948 C159.424955,103.865475 160.59394,104.668896 160.819413,105.88544 Z M137.318979,105.121535 C137.792459,106.264615 137.24964,107.575096 136.10656,108.048575 C134.963479,108.522055 133.652999,107.979236 133.179519,106.836155 C132.70604,105.693075 133.248859,104.382594 134.391939,103.909115 C135.535019,103.435636 136.8455,103.978455 137.318979,105.121535 Z M94.7119571,103.909115 C95.8550375,104.382594 96.3978564,105.693075 95.924377,106.836155 C95.4508976,107.979236 94.1404169,108.522055 92.9973365,108.048575 C91.8542562,107.575096 91.3114373,106.264615 91.7849167,105.121535 C92.2583961,103.978455 93.5688767,103.435636 94.7119571,103.909115 Z M71.2014215,102.951964 C72.4116456,103.209205 73.184191,104.398821 72.92695,105.609045 C72.6697089,106.819269 71.4800932,107.591815 70.2698691,107.334574 C69.0596449,107.077333 68.2870995,105.887717 68.5443406,104.677493 C68.8015817,103.467269 69.9911973,102.694723 71.2014215,102.951964 Z M182.813371,101.30963 C183.049451,102.524159 182.256262,103.700111 181.041733,103.936191 C179.827203,104.172272 178.651252,103.379083 178.415171,102.164553 C178.179091,100.950024 178.97228,99.7740722 180.186809,99.5379917 C181.401339,99.3019111 182.57729,100.0951 182.813371,101.30963 Z M49.2293353,98.9665783 C50.4417582,99.2132485 51.2246554,100.396077 50.9779852,101.6085 C50.731315,102.820923 49.5484863,103.60382 48.3360634,103.35715 C47.1236405,103.11048 46.3407432,101.927651 46.5874135,100.715228 C46.8340837,99.5028053 48.0169124,98.719908 49.2293353,98.9665783 Z M100.295022,97.1268167 C101.169898,98.0016925 101.169898,99.4201465 100.295022,100.295022 C99.4201465,101.169898 98.0016925,101.169898 97.1268167,100.295022 C96.2519408,99.4201465 96.2519408,98.0016925 97.1268167,97.1268167 C98.0016925,96.2519408 99.4201465,96.2519408 100.295022,97.1268167 Z M131.977079,97.1268167 C132.851955,98.0016925 132.851955,99.4201465 131.977079,100.295022 C131.102204,101.169898 129.68375,101.169898 128.808874,100.295022 C127.933998,99.4201465 127.933998,98.0016925 128.808874,97.1268167 C129.68375,96.2519408 131.102204,96.2519408 131.977079,97.1268167 Z M204.715042,97.0260179 C204.951123,98.2405472 204.157933,99.4164989 202.943404,99.6525795 C201.728875,99.8886601 200.552923,99.0954707 200.316843,97.8809413 C200.080762,96.666412 200.873951,95.4904604 202.088481,95.2543798 C203.30301,95.0182992 204.478962,95.8114886 204.715042,97.0260179 Z M74.0146559,95.3360122 C75.1577363,95.8094916 75.7005551,97.1199722 75.2270757,98.2630526 C74.7535963,99.406133 73.4431157,99.9489518 72.3000353,99.4754724 C71.156955,99.001993 70.6141361,97.6915124 71.0876155,96.548432 C71.5610949,95.4053516 72.8715755,94.8625328 74.0146559,95.3360122 Z M158.016281,96.548432 C158.48976,97.6915124 157.946941,99.001993 156.803861,99.4754724 C155.66078,99.9489518 154.3503,99.406133 153.87682,98.2630526 C153.403341,97.1199722 153.94616,95.8094916 155.08924,95.3360122 C156.232321,94.8625328 157.542801,95.4053516 158.016281,96.548432 Z M27.1871494,94.4912239 C28.3995723,94.7378941 29.1824696,95.9207228 28.9357993,97.1331457 C28.6891291,98.3455686 27.5063004,99.1284659 26.2938775,98.8817956 C25.0814546,98.6351254 24.2985574,97.4522967 24.5452276,96.2398738 C24.7918978,95.0274509 25.9747265,94.2445537 27.1871494,94.4912239 Z M123.982361,91.7849167 C125.125442,92.2583961 125.66826,93.5688767 125.194781,94.7119571 C124.721302,95.8550375 123.410821,96.3978564 122.267741,95.924377 C121.12466,95.4508976 120.581841,94.1404169 121.055321,92.9973365 C121.5288,91.8542562 122.839281,91.3114373 123.982361,91.7849167 Z M108.048575,92.9973365 C108.522055,94.1404169 107.979236,95.4508976 106.836155,95.924377 C105.693075,96.3978564 104.382594,95.8550375 103.909115,94.7119571 C103.435636,93.5688767 103.978455,92.2583961 105.121535,91.7849167 C106.264615,91.3114373 107.575096,91.8542562 108.048575,92.9973365 Z M226.706041,92.7514008 C226.942121,93.9659301 226.148932,95.1418818 224.934403,95.3779624 C223.719873,95.614043 222.543922,94.8208536 222.307841,93.6063242 C222.071761,92.3917949 222.86495,91.2158433 224.079479,90.9797627 C225.294009,90.7436821 226.46996,91.5368715 226.706041,92.7514008 Z M5.2342908,90.0248643 C6.4467137,90.2715346 7.22961093,91.4543633 6.9829407,92.6667862 C6.73627048,93.8792091 5.55344179,94.6621063 4.34101888,94.4154361 C3.12859598,94.1687658 2.34569875,92.9859372 2.59236898,91.7735142 C2.8390392,90.5610913 4.02186789,89.7781941 5.2342908,90.0248643 Z M114.551948,89.9090909 C115.789209,89.9090909 116.792208,90.9120894 116.792208,92.1493506 C116.792208,93.3866119 115.789209,94.3896104 114.551948,94.3896104 C113.314687,94.3896104 112.311688,93.3866119 112.311688,92.1493506 C112.311688,90.9120894 113.314687,89.9090909 114.551948,89.9090909 Z M154.017377,88.8360018 C154.691238,89.8736565 154.396325,91.2611139 153.35867,91.9349747 C152.321016,92.6088355 150.933558,92.3139223 150.259697,91.2762677 C149.585837,90.238613 149.88075,88.8511556 150.918404,88.1772948 C151.956059,87.503434 153.343516,87.7983472 154.017377,88.8360018 Z M78.9055017,87.2345943 C79.9251612,87.9353868 80.1836539,89.3300887 79.4828614,90.3497481 C78.7820688,91.3694076 77.387367,91.6279003 76.3677075,90.9271078 C75.3480481,90.2263152 75.0895554,88.8316134 75.7903479,87.8119539 C76.4911404,86.7922945 77.8858423,86.5338018 78.9055017,87.2345943 Z M53.3173547,86.7629093 C54.4604351,87.2363887 55.0032539,88.5468694 54.5297745,89.6899497 C54.0562951,90.8330301 52.7458145,91.375849 51.6027341,90.9023696 C50.4596537,90.4288902 49.9168349,89.1184095 50.3903143,87.9753292 C50.8637937,86.8322488 52.1742743,86.2894299 53.3173547,86.7629093 Z M178.713582,87.9753292 C179.187061,89.1184095 178.644242,90.4288902 177.501162,90.9023696 C176.358082,91.375849 175.047601,90.8330301 174.574122,89.6899497 C174.100642,88.5468694 174.643461,87.2363887 175.786541,86.7629093 C176.929622,86.2894299 178.240102,86.8322488 178.713582,87.9753292 Z M147.818108,81.2857881 C148.692984,82.160664 148.692984,83.579118 147.818108,84.4539938 C146.943232,85.3288697 145.524778,85.3288697 144.649902,84.4539938 C143.775026,83.579118 143.775026,82.160664 144.649902,81.2857881 C145.524778,80.4109123 146.943232,80.4109123 147.818108,81.2857881 Z M84.4539938,81.2857881 C85.3288697,82.160664 85.3288697,83.579118 84.4539938,84.4539938 C83.579118,85.3288697 82.160664,85.3288697 81.2857881,84.4539938 C80.4109123,83.579118 80.4109123,82.160664 81.2857881,81.2857881 C82.160664,80.4109123 83.579118,80.4109123 84.4539938,81.2857881 Z M199.410883,79.4022263 C199.884362,80.5453067 199.341544,81.8557873 198.198463,82.3292667 C197.055383,82.8027461 195.744902,82.2599272 195.271423,81.1168469 C194.797943,79.9737665 195.340762,78.6632859 196.483843,78.1898065 C197.626923,77.7163271 198.937404,78.2591459 199.410883,79.4022263 Z M32.6200535,78.1898065 C33.7631339,78.6632859 34.3059527,79.9737665 33.8324733,81.1168469 C33.3589939,82.2599272 32.0485133,82.8027461 30.9054329,82.3292667 C29.7623525,81.8557873 29.2195337,80.5453067 29.6930131,79.4022263 C30.1664925,78.2591459 31.4769731,77.7163271 32.6200535,78.1898065 Z M141.208578,75.6874017 C142.228237,76.3881942 142.48673,77.782896 141.785938,78.8025555 C141.085145,79.8222149 139.690443,80.0807076 138.670784,79.3799151 C137.651124,78.6791226 137.392632,77.2844207 138.093424,76.2647613 C138.794217,75.2451019 140.188919,74.9866092 141.208578,75.6874017 Z M172.553021,76.2299944 C173.235911,77.261729 172.953117,78.6517072 171.921383,79.3345974 C170.889648,80.0174877 169.49967,79.7346935 168.816779,78.7029588 C168.133889,77.6712242 168.416683,76.281246 169.448418,75.5983558 C170.480153,74.9154655 171.870131,75.1982598 172.553021,76.2299944 Z M60.1762277,75.1215629 C61.2019638,75.8134306 61.4726176,77.2058236 60.7807498,78.2315597 C60.0888821,79.2572958 58.6964891,79.5279496 57.670753,78.8360819 C56.6450169,78.1442141 56.3743631,76.7518211 57.0662308,75.726085 C57.7580986,74.7003489 59.1504916,74.4296951 60.1762277,75.1215629 Z M92.0379209,75.6618617 C92.7117817,76.6995164 92.4168685,78.0869738 91.3792139,78.7608345 C90.3415593,79.4346953 88.9541019,79.1397822 88.2802411,78.1021275 C87.6063803,77.0644729 87.9012935,75.6770155 88.9389481,75.0031547 C89.9766027,74.3292939 91.3640601,74.6242071 92.0379209,75.6618617 Z M132.555464,71.0876155 C133.698544,71.5610949 134.241363,72.8715755 133.767884,74.0146559 C133.294405,75.1577363 131.983924,75.7005551 130.840844,75.2270757 C129.697763,74.7535963 129.154944,73.4431157 129.628424,72.3000353 C130.101903,71.156955 131.412384,70.6141361 132.555464,71.0876155 Z M99.4754724,72.3000353 C99.9489518,73.4431157 99.406133,74.7535963 98.2630526,75.2270757 C97.1199722,75.7005551 95.8094916,75.1577363 95.3360122,74.0146559 C94.8625328,72.8715755 95.4053516,71.5610949 96.548432,71.0876155 C97.6915124,70.6141361 99.001993,71.156955 99.4754724,72.3000353 Z M11.9227523,69.6167036 C13.0658326,70.090183 13.6086515,71.4006636 13.1351721,72.543744 C12.6616927,73.6868244 11.3512121,74.2296432 10.2081317,73.7561638 C9.06505131,73.2826844 8.52223246,71.9722038 8.99571185,70.8291234 C9.46919125,69.686043 10.7796719,69.1432242 11.9227523,69.6167036 Z M220.108184,70.8291234 C220.581664,71.9722038 220.038845,73.2826844 218.895764,73.7561638 C217.752684,74.2296432 216.442203,73.6868244 215.968724,72.543744 C215.495245,71.4006636 216.038063,70.090183 217.181144,69.6167036 C218.324224,69.1432242 219.634705,69.686043 220.108184,70.8291234 Z M124.343039,68.4413943 C125.553263,68.6986354 126.325809,69.888251 126.068568,71.0984752 C125.811326,72.3086994 124.621711,73.0812448 123.411487,72.8240037 C122.201263,72.5667626 121.428717,71.377147 121.685958,70.1669228 C121.943199,68.9566987 123.132815,68.1841532 124.343039,68.4413943 Z M108.599387,69.9956102 C108.82486,71.2121535 108.021439,72.3811386 106.804896,72.6066115 C105.588353,72.8320845 104.419367,72.0286633 104.193894,70.81212 C103.968421,69.5955768 104.771843,68.4265917 105.988386,68.2011188 C107.204929,67.9756458 108.373914,68.779067 108.599387,69.9956102 Z M114.551948,67.5064935 C115.789209,67.5064935 116.792208,68.509492 116.792208,69.7467532 C116.792208,70.9840145 115.789209,71.987013 114.551948,71.987013 C113.314687,71.987013 112.311688,70.9840145 112.311688,69.7467532 C112.311688,68.509492 113.314687,67.5064935 114.551948,67.5064935 Z M68.6129653,65.4447596 C69.4878411,66.3196354 69.4878411,67.7380894 68.6129653,68.6129653 C67.7380894,69.4878411 66.3196354,69.4878411 65.4447596,68.6129653 C64.5698837,67.7380894 64.5698837,66.3196354 65.4447596,65.4447596 C66.3196354,64.5698837 67.7380894,64.5698837 68.6129653,65.4447596 Z M163.659137,65.4447596 C164.534012,66.3196354 164.534012,67.7380894 163.659137,68.6129653 C162.784261,69.4878411 161.365807,69.4878411 160.490931,68.6129653 C159.616055,67.7380894 159.616055,66.3196354 160.490931,65.4447596 C161.365807,64.5698837 162.784261,64.5698837 163.659137,65.4447596 Z M191.144902,63.8561776 C191.827793,64.8879122 191.544998,66.2778903 190.513264,66.9607806 C189.481529,67.6436709 188.091551,67.3608766 187.408661,66.329142 C186.72577,65.2974073 187.008565,63.9074292 188.040299,63.2245389 C189.072034,62.5416487 190.462012,62.8244429 191.144902,63.8561776 Z M41.5143055,62.5851946 C42.5400416,63.2770623 42.8106954,64.6694554 42.1188277,65.6951915 C41.4269599,66.7209275 40.0345669,66.9915813 39.0088308,66.2997136 C37.9830947,65.6078459 37.7124409,64.2154529 38.4043087,63.1897168 C39.0961764,62.1639807 40.4885694,61.8933269 41.5143055,62.5851946 Z M153.476133,56.9858984 C154.501869,57.6777662 154.772523,59.0701592 154.080655,60.0958953 C153.388787,61.1216314 151.996394,61.3922851 150.970658,60.7004174 C149.944922,60.0085497 149.674268,58.6161567 150.366136,57.5904206 C151.058004,56.5646845 152.450397,56.2940307 153.476133,56.9858984 Z M79.4149299,57.2808356 C80.0978201,58.3125702 79.8150259,59.7025483 78.7832912,60.3854386 C77.7515566,61.0683289 76.3615785,60.7855346 75.6786882,59.7538 C74.9957979,58.7220653 75.2785922,57.3320872 76.3103268,56.6491969 C77.3420615,55.9663067 78.7320396,56.2491009 79.4149299,57.2808356 Z M209.826111,51.4913555 C210.509001,52.5230901 210.226207,53.9130683 209.194472,54.5959585 C208.162737,55.2788488 206.772759,54.9960545 206.089869,53.9643199 C205.406979,52.9325852 205.689773,51.5426071 206.721508,50.8597168 C207.753242,50.1768266 209.14322,50.4596208 209.826111,51.4913555 Z M141.128567,50.3903143 C142.271647,50.8637937 142.814466,52.1742743 142.340987,53.3173547 C141.867507,54.4604351 140.557027,55.0032539 139.413946,54.5297745 C138.270866,54.0562951 137.728047,52.7458145 138.201527,51.6027341 C138.675006,50.4596537 139.985487,49.9168349 141.128567,50.3903143 Z M90.9023696,51.6027341 C91.375849,52.7458145 90.8330301,54.0562951 89.6899497,54.5297745 C88.5468694,55.0032539 87.2363887,54.4604351 86.7629093,53.3173547 C86.2894299,52.1742743 86.8322488,50.8637937 87.9753292,50.3903143 C89.1184095,49.9168349 90.4288902,50.4596537 90.9023696,51.6027341 Z M22.9417106,50.0578211 C23.9674466,50.7496889 24.2381004,52.1420819 23.5462327,53.167818 C22.854365,54.1935541 21.461972,54.4642078 20.4362359,53.7723401 C19.4104998,53.0804724 19.139846,51.6880794 19.8317137,50.6623433 C20.5235814,49.6366072 21.9159745,49.3659534 22.9417106,50.0578211 Z M52.7719367,49.603731 C53.6468126,50.4786069 53.6468126,51.8970609 52.7719367,52.7719367 C51.8970609,53.6468126 50.4786069,53.6468126 49.603731,52.7719367 C48.7288552,51.8970609 48.7288552,50.4786069 49.603731,49.603731 C50.4786069,48.7288552 51.8970609,48.7288552 52.7719367,49.603731 Z M179.500165,49.603731 C180.375041,50.4786069 180.375041,51.8970609 179.500165,52.7719367 C178.625289,53.6468126 177.206835,53.6468126 176.331959,52.7719367 C175.457084,51.8970609 175.457084,50.4786069 176.331959,49.603731 C177.206835,48.7288552 178.625289,48.7288552 179.500165,49.603731 Z M128.48699,46.507081 C129.699413,46.7537513 130.48231,47.93658 130.23564,49.1490029 C129.98897,50.3614258 128.806141,51.144323 127.593718,50.8976528 C126.381295,50.6509825 125.598398,49.4681538 125.845068,48.2557309 C126.091738,47.043308 127.274567,46.2604108 128.48699,46.507081 Z M104.016524,48.1604853 C104.252604,49.3750147 103.459415,50.5509663 102.244886,50.7870469 C101.030356,51.0231275 99.8544047,50.2299381 99.6183241,49.0154088 C99.3822435,47.8008795 100.175433,46.6249278 101.389962,46.3888472 C102.604492,46.1527666 103.780443,46.945956 104.016524,48.1604853 Z M114.551948,45.1038961 C115.789209,45.1038961 116.792208,46.1068946 116.792208,47.3441558 C116.792208,48.5814171 115.789209,49.5844156 114.551948,49.5844156 C113.314687,49.5844156 112.311688,48.5814171 112.311688,47.3441558 C112.311688,46.1068946 113.314687,45.1038961 114.551948,45.1038961 Z M165.914179,38.4043087 C166.939915,39.0961764 167.210569,40.4885694 166.518701,41.5143055 C165.826834,42.5400416 164.434441,42.8106954 163.408705,42.1188277 C162.382969,41.4269599 162.112315,40.0345669 162.804183,39.0088308 C163.49605,37.9830947 164.888443,37.7124409 165.914179,38.4043087 Z M66.9607806,38.5906324 C67.6436709,39.6223671 67.3608766,41.0123452 66.329142,41.6952355 C65.2974073,42.3781257 63.9074292,42.0953315 63.2245389,41.0635969 C62.5416487,40.0318622 62.8244429,38.6418841 63.8561776,37.9589938 C64.8879122,37.2761035 66.2778903,37.5588978 66.9607806,38.5906324 Z M195.341194,33.7627025 C196.216069,34.6375783 196.216069,36.0560324 195.341194,36.9309082 C194.466318,37.8057841 193.047864,37.8057841 192.172988,36.9309082 C191.298112,36.0560324 191.298112,34.6375783 192.172988,33.7627025 C193.047864,32.8878267 194.466318,32.8878267 195.341194,33.7627025 Z M36.9309082,33.7627025 C37.8057841,34.6375783 37.8057841,36.0560324 36.9309082,36.9309082 C36.0560324,37.8057841 34.6375783,37.8057841 33.7627025,36.9309082 C32.8878267,36.0560324 32.8878267,34.6375783 33.7627025,33.7627025 C34.6375783,32.8878267 36.0560324,32.8878267 36.9309082,33.7627025 Z M82.3292667,30.9054329 C82.8027461,32.0485133 82.2599272,33.3589939 81.1168469,33.8324733 C79.9737665,34.3059527 78.6632859,33.7631339 78.1898065,32.6200535 C77.7163271,31.4769731 78.2591459,30.1664925 79.4022263,29.6930131 C80.5453067,29.2195337 81.8557873,29.7623525 82.3292667,30.9054329 Z M149.70167,29.6930131 C150.84475,30.1664925 151.387569,31.4769731 150.91409,32.6200535 C150.44061,33.7631339 149.13013,34.3059527 147.987049,33.8324733 C146.843969,33.3589939 146.30115,32.0485133 146.774629,30.9054329 C147.248109,29.7623525 148.558589,29.2195337 149.70167,29.6930131 Z M132.864022,24.5452276 C134.076445,24.7918978 134.859342,25.9747265 134.612672,27.1871494 C134.366002,28.3995723 133.183173,29.1824696 131.97075,28.9357993 C130.758327,28.6891291 129.97543,27.5063004 130.2221,26.2938775 C130.468771,25.0814546 131.651599,24.2985574 132.864022,24.5452276 Z M99.6525795,26.160492 C99.8886601,27.3750213 99.0954707,28.550973 97.8809413,28.7870536 C96.666412,29.0231341 95.4904604,28.2299447 95.2543798,27.0154154 C95.0182992,25.8008861 95.8114886,24.6249344 97.0260179,24.3888538 C98.2405472,24.1527732 99.4164989,24.9459627 99.6525795,26.160492 Z M114.551948,22.7012987 C115.789209,22.7012987 116.792208,23.7042972 116.792208,24.9415584 C116.792208,26.1788197 115.789209,27.1818182 114.551948,27.1818182 C113.314687,27.1818182 112.311688,26.1788197 112.311688,24.9415584 C112.311688,23.7042972 113.314687,22.7012987 114.551948,22.7012987 Z M178.441553,19.8317137 C179.467289,20.5235814 179.737943,21.9159745 179.046075,22.9417106 C178.354207,23.9674466 176.961814,24.2381004 175.936078,23.5462327 C174.910342,22.854365 174.639688,21.461972 175.331556,20.4362359 C176.023424,19.4104998 177.415817,19.139846 178.441553,19.8317137 Z M54.5959585,19.9094241 C55.2788488,20.9411587 54.9960545,22.3311369 53.9643199,23.0140271 C52.9325852,23.6969174 51.5426071,23.4141231 50.8597168,22.3823885 C50.1768266,21.3506539 50.4596208,19.9606757 51.4913555,19.2777855 C52.5230901,18.5948952 53.9130683,18.8776894 54.5959585,19.9094241 Z M158.274773,8.99571185 C159.417853,9.46919125 159.960672,10.7796719 159.487193,11.9227523 C159.013713,13.0658326 157.703232,13.6086515 156.560152,13.1351721 C155.417072,12.6616927 154.874253,11.3512121 155.347732,10.2081317 C155.821212,9.06505131 157.131692,8.52223246 158.274773,8.99571185 Z M73.7561638,10.2081317 C74.2296432,11.3512121 73.6868244,12.6616927 72.543744,13.1351721 C71.4006636,13.6086515 70.090183,13.0658326 69.6167036,11.9227523 C69.1432242,10.7796719 69.686043,9.46919125 70.8291234,8.99571185 C71.9722038,8.52223246 73.2826844,9.06505131 73.7561638,10.2081317 Z M137.330382,2.59236898 C138.542805,2.8390392 139.325702,4.02186789 139.079032,5.2342908 C138.832362,6.4467137 137.649533,7.22961093 136.43711,6.9829407 C135.224687,6.73627048 134.44179,5.55344179 134.68846,4.34101888 C134.93513,3.12859598 136.117959,2.34569875 137.330382,2.59236898 Z M95.3779624,4.16949339 C95.614043,5.38402271 94.8208536,6.55997438 93.6063242,6.79605496 C92.3917949,7.03213554 91.2158433,6.23894613 90.9797627,5.02441681 C90.7436821,3.8098875 91.5368715,2.63393583 92.7514008,2.39785524 C93.9659301,2.16177466 95.1418818,2.95496407 95.3779624,4.16949339 Z M114.551948,0.298701299 C115.789209,0.298701299 116.792208,1.30169975 116.792208,2.53896104 C116.792208,3.77622233 115.789209,4.77922078 114.551948,4.77922078 C113.314687,4.77922078 112.311688,3.77622233 112.311688,2.53896104 C112.311688,1.30169975 113.314687,0.298701299 114.551948,0.298701299 Z" id="Shape"></path>
        </g>
    </g>
</svg>