<?xml version="1.0" encoding="UTF-8"?>
<svg width="154px" height="154px" viewBox="0 0 154 154" version="1.1" xmlns="http://www.w3.org/2000/svg" xmlns:xlink="http://www.w3.org/1999/xlink">
    <title>iocns/pattern-circle</title>
    <g id="iocns/pattern-circle" stroke="none" stroke-width="1" fill="none" fill-rule="evenodd" fill-opacity="0.3">
        <path d="M76.7,150.2 C77.5284271,150.2 78.2,150.871573 78.2,151.7 C78.2,152.528427 77.5284271,153.2 76.7,153.2 C75.8715729,153.2 75.2,152.528427 75.2,151.7 C75.2,150.871573 75.8715729,150.2 76.7,150.2 Z M92.4831154,150.035825 C92.6411868,150.849032 92.1100947,151.636408 91.2968881,151.79448 C90.4836816,151.952551 89.6963052,151.421459 89.5382339,150.608252 C89.3801625,149.795046 89.9112546,149.007669 90.7244612,148.849598 C91.5376677,148.691527 92.3250441,149.222619 92.4831154,150.035825 Z M62.0464568,148.724466 C62.858253,148.889628 63.3824538,149.681609 63.217292,150.493405 C63.0521302,151.305201 62.2601492,151.829402 61.448353,151.66424 C60.6365568,151.499078 60.1123561,150.707097 60.2775179,149.895301 C60.4426797,149.083505 61.2346606,148.559304 62.0464568,148.724466 Z M48.5727677,144.605146 C49.3381346,144.922171 49.7015872,145.799623 49.3845619,146.56499 C49.0675365,147.330357 48.1900843,147.69381 47.4247174,147.376784 C46.6593506,147.059759 46.2958979,146.182307 46.6129233,145.41694 C46.9299486,144.651573 47.8074009,144.28812 48.5727677,144.605146 Z M106.787077,145.41694 C107.104102,146.182307 106.740649,147.059759 105.975283,147.376784 C105.209916,147.69381 104.332463,147.330357 104.015438,146.56499 C103.698413,145.799623 104.061865,144.922171 104.827232,144.605146 C105.592599,144.28812 106.470051,144.651573 106.787077,145.41694 Z M119.346103,138.413531 C119.803342,139.104345 119.613993,140.035026 118.923179,140.492265 C118.232366,140.949505 117.301685,140.760156 116.844445,140.069342 C116.387206,139.378528 116.576555,138.447847 117.267368,137.990608 C117.958182,137.533368 118.888863,137.722718 119.346103,138.413531 Z M35.5993216,137.634262 C36.2861188,138.097512 36.4673392,139.02981 36.0040886,139.716607 C35.540838,140.403405 34.6085401,140.584625 33.9217429,140.121374 C33.2349457,139.658124 33.0537253,138.725826 33.5169759,138.039029 C33.9802265,137.352231 34.9125244,137.171011 35.5993216,137.634262 Z M76.7,135.2 C77.5284271,135.2 78.2,135.871573 78.2,136.7 C78.2,137.528427 77.5284271,138.2 76.7,138.2 C75.8715729,138.2 75.2,137.528427 75.2,136.7 C75.2,135.871573 75.8715729,135.2 76.7,135.2 Z M89.6209805,135.311418 C89.7790518,136.124624 89.2479598,136.912 88.4347532,137.070072 C87.6215466,137.228143 86.8341703,136.697051 86.6760989,135.883844 C86.5180276,135.070638 87.0491196,134.283262 87.8623262,134.12519 C88.6755328,133.967119 89.4629092,134.498211 89.6209805,135.311418 Z M65.0369758,134.025595 C65.848772,134.190757 66.3729728,134.982738 66.207811,135.794534 C66.0426492,136.60633 65.2506682,137.130531 64.438872,136.965369 C63.6270758,136.800208 63.1028751,136.008227 63.2680369,135.19643 C63.4331987,134.384634 64.2251796,133.860433 65.0369758,134.025595 Z M101.046825,131.558747 C101.363851,132.324114 101.000398,133.201566 100.235031,133.518591 C99.4696642,133.835617 98.592212,133.472164 98.2751866,132.706797 C97.9581613,131.94143 98.3216139,131.063978 99.0869808,130.746953 C99.8523477,130.429927 100.7298,130.79338 101.046825,131.558747 Z M54.3130192,130.746953 C55.0783861,131.063978 55.4418387,131.94143 55.1248134,132.706797 C54.807788,133.472164 53.9303358,133.835617 53.1649689,133.518591 C52.399602,133.201566 52.0361494,132.324114 52.3531748,131.558747 C52.6702001,130.79338 53.5476523,130.429927 54.3130192,130.746953 Z M24.7276516,128.672348 C25.313438,129.258135 25.313438,130.207882 24.7276516,130.793669 C24.1418651,131.379455 23.1921177,131.379455 22.6063312,130.793669 C22.0205448,130.207882 22.0205448,129.258135 22.6063312,128.672348 C23.1921177,128.086562 24.1418651,128.086562 24.7276516,128.672348 Z M130.793669,128.672348 C131.379455,129.258135 131.379455,130.207882 130.793669,130.793669 C130.207882,131.379455 129.258135,131.379455 128.672348,130.793669 C128.086562,130.207882 128.086562,129.258135 128.672348,128.672348 C129.258135,128.086562 130.207882,128.086562 130.793669,128.672348 Z M111.067048,125.905244 C111.524287,126.596057 111.334938,127.526738 110.644125,127.983978 C109.953311,128.441218 109.02263,128.251868 108.56539,127.561055 C108.108151,126.870241 108.2975,125.93956 108.988314,125.482321 C109.679127,125.025081 110.609808,125.21443 111.067048,125.905244 Z M43.9872151,125.198698 C44.6740124,125.661949 44.8552327,126.594246 44.3919822,127.281044 C43.9287316,127.967841 42.9964336,128.149061 42.3096364,127.685811 C41.6228392,127.22256 41.4416189,126.290262 41.9048694,125.603465 C42.36812,124.916668 43.3004179,124.735447 43.9872151,125.198698 Z M76.7,120.2 C77.5284271,120.2 78.2,120.871573 78.2,121.7 C78.2,122.528427 77.5284271,123.2 76.7,123.2 C75.8715729,123.2 75.2,122.528427 75.2,121.7 C75.2,120.871573 75.8715729,120.2 76.7,120.2 Z M86.8186559,120.593032 C86.9767273,121.406239 86.4456353,122.193615 85.6324287,122.351687 C84.8192221,122.509758 84.0318457,121.978666 83.8737744,121.165459 C83.715703,120.352253 84.2467951,119.564876 85.0600017,119.406805 C85.8732083,119.248734 86.6605846,119.779826 86.8186559,120.593032 Z M68.0873052,119.332747 C68.8991014,119.497909 69.4233022,120.28989 69.2581404,121.101686 C69.0929786,121.913482 68.3009976,122.437683 67.4892014,122.272521 C66.6774052,122.10736 66.1532045,121.315379 66.3183663,120.503582 C66.4835281,119.691786 67.275509,119.167585 68.0873052,119.332747 Z M35.3342533,118.065747 C35.9200397,118.651533 35.9200397,119.601281 35.3342533,120.187067 C34.7484669,120.772853 33.7987194,120.772853 33.212933,120.187067 C32.6271465,119.601281 32.6271465,118.651533 33.212933,118.065747 C33.7987194,117.47996 34.7484669,117.47996 35.3342533,118.065747 Z M120.187067,118.065747 C120.772853,118.651533 120.772853,119.601281 120.187067,120.187067 C119.601281,120.772853 118.651533,120.772853 118.065747,120.187067 C117.47996,119.601281 117.47996,118.651533 118.065747,118.065747 C118.651533,117.47996 119.601281,117.47996 120.187067,118.065747 Z M139.716607,117.395911 C140.403405,117.859162 140.584625,118.79146 140.121374,119.478257 C139.658124,120.165054 138.725826,120.346275 138.039029,119.883024 C137.352231,119.419774 137.171011,118.487476 137.634262,117.800678 C138.097512,117.113881 139.02981,116.932661 139.716607,117.395911 Z M95.3065738,117.700554 C95.6235991,118.465921 95.2601465,119.343373 94.4947796,119.660398 C93.7294127,119.977424 92.8519605,119.613971 92.5349352,118.848604 C92.2179098,118.083237 92.5813624,117.205785 93.3467293,116.88876 C94.1120962,116.571734 94.9895484,116.935187 95.3065738,117.700554 Z M60.0532707,116.88876 C60.8186376,117.205785 61.1820902,118.083237 60.8650648,118.848604 C60.5480395,119.613971 59.6705873,119.977424 58.9052204,119.660398 C58.1398535,119.343373 57.7764009,118.465921 58.0934262,117.700554 C58.4104516,116.935187 59.2879038,116.571734 60.0532707,116.88876 Z M15.4093921,117.267368 C15.8666316,117.958182 15.6772825,118.888863 14.9864688,119.346103 C14.2956552,119.803342 13.3649742,119.613993 12.9077346,118.923179 C12.450495,118.232366 12.6398442,117.301685 13.3306579,116.844445 C14.0214715,116.387206 14.9521525,116.576555 15.4093921,117.267368 Z M102.847803,113.402979 C103.305043,114.093793 103.115694,115.024474 102.42488,115.481713 C101.734067,115.938953 100.803386,115.749604 100.346146,115.05879 C99.8889064,114.367976 100.078256,113.437295 100.769069,112.980056 C101.459883,112.522816 102.390564,112.712165 102.847803,113.402979 Z M52.4349191,112.769157 C53.1217163,113.232408 53.3029367,114.164705 52.8396861,114.851503 C52.3764355,115.5383 51.4441376,115.71952 50.7573404,115.25627 C50.0705432,114.793019 49.8893228,113.860721 50.3525734,113.173924 C50.8158239,112.487127 51.7481219,112.305906 52.4349191,112.769157 Z M127.281044,109.008018 C127.967841,109.471268 128.149061,110.403566 127.685811,111.090364 C127.22256,111.777161 126.290262,111.958381 125.603465,111.495131 C124.916668,111.03188 124.735447,110.099582 125.198698,109.412785 C125.661949,108.725988 126.594246,108.544767 127.281044,109.008018 Z M27.9176794,108.988314 C28.374919,109.679127 28.1855698,110.609808 27.4947562,111.067048 C26.8039425,111.524287 25.8732615,111.334938 25.4160219,110.644125 C24.9587824,109.953311 25.1481316,109.02263 25.8389452,108.56539 C26.5297588,108.108151 27.4604398,108.2975 27.9176794,108.988314 Z M109.580465,107.459145 C110.166252,108.044931 110.166252,108.994679 109.580465,109.580465 C108.994679,110.166252 108.044931,110.166252 107.459145,109.580465 C106.873359,108.994679 106.873359,108.044931 107.459145,107.459145 C108.044931,106.873359 108.994679,106.873359 109.580465,107.459145 Z M45.940855,107.459145 C46.5266415,108.044931 46.5266415,108.994679 45.940855,109.580465 C45.3550686,110.166252 44.4053211,110.166252 43.8195347,109.580465 C43.2337482,108.994679 43.2337482,108.044931 43.8195347,107.459145 C44.4053211,106.873359 45.3550686,106.873359 45.940855,107.459145 Z M76.7,105.2 C77.5284271,105.2 78.2,105.871573 78.2,106.7 C78.2,107.528427 77.5284271,108.2 76.7,108.2 C75.8715729,108.2 75.2,107.528427 75.2,106.7 C75.2,105.871573 75.8715729,105.2 76.7,105.2 Z M83.6485038,105.86192 C83.7994727,106.676475 83.2615298,107.459187 82.4469748,107.610156 C81.6324197,107.761125 80.849708,107.223182 80.6987391,106.408627 C80.5477703,105.594072 81.0857132,104.81136 81.9002682,104.660391 C82.7148232,104.509423 83.497535,105.047365 83.6485038,105.86192 Z M70.7810725,104.514833 C71.5913965,104.687073 72.1086661,105.483598 71.9364264,106.293922 C71.7641867,107.104246 70.9676615,107.621516 70.1573375,107.449276 C69.3470135,107.277036 68.8297439,106.480511 69.0019836,105.670187 C69.1742233,104.859863 69.9707485,104.342593 70.7810725,104.514833 Z M146.56499,104.015438 C147.330357,104.332463 147.69381,105.209916 147.376784,105.975283 C147.059759,106.740649 146.182307,107.104102 145.41694,106.787077 C144.651573,106.470051 144.28812,105.592599 144.605146,104.827232 C144.922171,104.061865 145.799623,103.698413 146.56499,104.015438 Z M8.79485436,104.827232 C9.1118797,105.592599 8.74842707,106.470051 7.98306021,106.787077 C7.21769335,107.104102 6.3402411,106.740649 6.02321576,105.975283 C5.70619043,105.209916 6.06964305,104.332463 6.83500991,104.015438 C7.60037678,103.698413 8.47782902,104.061865 8.79485436,104.827232 Z M89.5663223,103.842361 C89.8833476,104.607728 89.519895,105.48518 88.7545281,105.802205 C87.9891613,106.119231 87.111709,105.755778 86.7946837,104.990411 C86.4776583,104.225044 86.841111,103.347592 87.6064778,103.030567 C88.3718447,102.713541 89.2492969,103.076994 89.5663223,103.842361 Z M65.7935222,103.030567 C66.558889,103.347592 66.9223417,104.225044 66.6053163,104.990411 C66.288291,105.755778 65.4108387,106.119231 64.6454719,105.802205 C63.880105,105.48518 63.5166524,104.607728 63.8336777,103.842361 C64.1507031,103.076994 65.0281553,102.713541 65.7935222,103.030567 Z M114.905291,100.626147 C115.592088,101.089397 115.773308,102.021695 115.310058,102.708493 C114.846807,103.39529 113.914509,103.57651 113.227712,103.11326 C112.540915,102.650009 112.359694,101.717711 112.822945,101.030914 C113.286195,100.344117 114.218493,100.162896 114.905291,100.626147 Z M94.3037326,100.980785 C94.7549264,101.675562 94.5574628,102.604556 93.8626853,103.055749 C93.1679079,103.506943 92.2389147,103.30948 91.7877209,102.614702 C91.3365272,101.919925 91.5339908,100.990931 92.2287682,100.539738 C92.9235457,100.088544 93.8525389,100.286008 94.3037326,100.980785 Z M40.4857771,100.715281 C40.9430167,101.406095 40.7536675,102.336776 40.0628539,102.794016 C39.3720402,103.251255 38.4413592,103.061906 37.9841197,102.371092 C37.5268801,101.680279 37.7162293,100.749598 38.4070429,100.292358 C39.0978565,99.8351186 40.0285376,100.024468 40.4857771,100.715281 Z M60.563978,100.125223 C61.2467065,100.594449 61.4197842,101.528293 60.9505579,102.211022 C60.4813316,102.89375 59.5474877,103.066828 58.8647593,102.597601 C58.1820308,102.128375 58.008953,101.194531 58.4781793,100.511803 C58.9474056,99.8290743 59.8812495,99.6559966 60.563978,100.125223 Z M132.706797,98.2751866 C133.472164,98.592212 133.835617,99.4696642 133.518591,100.235031 C133.201566,101.000398 132.324114,101.363851 131.558747,101.046825 C130.79338,100.7298 130.429927,99.8523477 130.746953,99.0869808 C131.063978,98.3216139 131.94143,97.9581613 132.706797,98.2751866 Z M22.6530473,99.0869808 C22.9700727,99.8523477 22.6066201,100.7298 21.8412532,101.046825 C21.0758863,101.363851 20.1984341,101.000398 19.8814088,100.235031 C19.5643834,99.4696642 19.927836,98.592212 20.6932029,98.2751866 C21.4585698,97.9581613 22.336022,98.3216139 22.6530473,99.0869808 Z M56.5474567,96.8525433 C57.1332432,97.4383297 57.1332432,98.3880772 56.5474567,98.9738636 C55.9616703,99.55965 55.0119228,99.55965 54.4261364,98.9738636 C53.84035,98.3880772 53.84035,97.4383297 54.4261364,96.8525433 C55.0119228,96.2667568 55.9616703,96.2667568 56.5474567,96.8525433 Z M98.9738636,96.8525433 C99.55965,97.4383297 99.55965,98.3880772 98.9738636,98.9738636 C98.3880772,99.55965 97.4383297,99.55965 96.8525433,98.9738636 C96.2667568,98.3880772 96.2667568,97.4383297 96.8525433,96.8525433 C97.4383297,96.2667568 98.3880772,96.2667568 98.9738636,96.8525433 Z M36.5112403,93.3467293 C36.8282657,94.1120962 36.4648131,94.9895484 35.6994462,95.3065738 C34.9340793,95.6235991 34.0566271,95.2601465 33.7396017,94.4947796 C33.4225764,93.7294127 33.786029,92.8519605 34.5513959,92.5349352 C35.3167628,92.2179098 36.194215,92.5813624 36.5112403,93.3467293 Z M118.848604,92.5349352 C119.613971,92.8519605 119.977424,93.7294127 119.660398,94.4947796 C119.343373,95.2601465 118.465921,95.6235991 117.700554,95.3065738 C116.935187,94.9895484 116.571734,94.1120962 116.88876,93.3467293 C117.205785,92.5813624 118.083237,92.2179098 118.848604,92.5349352 Z M102.279951,92.3936243 C102.962679,92.8628506 103.135757,93.7966945 102.666531,94.479423 C102.197304,95.1621514 101.263461,95.3352292 100.580732,94.8660029 C99.8980035,94.3967766 99.7249258,93.4629327 100.194152,92.7802042 C100.663378,92.0974758 101.597222,91.924398 102.279951,92.3936243 Z M52.8044445,92.159839 C53.2556383,92.8546164 53.0581747,93.7836096 52.3633972,94.2348034 C51.6686198,94.6859971 50.7396266,94.4885335 50.2884328,93.7937561 C49.8372391,93.0989786 50.0347027,92.1699854 50.7294801,91.7187917 C51.4242576,91.2675979 52.3532508,91.4650615 52.8044445,92.159839 Z M76.7,90.2 C77.5284271,90.2 78.2,90.8715729 78.2,91.7 C78.2,92.5284271 77.5284271,93.2 76.7,93.2 C75.8715729,93.2 75.2,92.5284271 75.2,91.7 C75.2,90.8715729 75.8715729,90.2 76.7,90.2 Z M150.493405,90.182708 C151.305201,90.3478698 151.829402,91.1398508 151.66424,91.951647 C151.499078,92.7634432 150.707097,93.2876439 149.895301,93.1224821 C149.083505,92.9573203 148.559304,92.1653394 148.724466,91.3535432 C148.889628,90.541747 149.681609,90.0175462 150.493405,90.182708 Z M4.55040202,90.7244612 C4.70847336,91.5376677 4.17738132,92.3250441 3.36417473,92.4831154 C2.55096815,92.6411868 1.76359181,92.1100947 1.60552047,91.2968881 C1.44744912,90.4836816 1.97854116,89.6963052 2.79174775,89.5382339 C3.60495433,89.3801625 4.39233067,89.9112546 4.55040202,90.7244612 Z M71.5337737,89.1723737 C72.2991405,89.489399 72.6625931,90.3668513 72.3455678,91.1322181 C72.0285425,91.897585 71.1510902,92.2610376 70.3857234,91.9440123 C69.6203565,91.626987 69.2569039,90.7495347 69.5739292,89.9841678 C69.8909546,89.218801 70.7684068,88.8553484 71.5337737,89.1723737 Z M83.8260708,89.9841678 C84.1430961,90.7495347 83.7796435,91.626987 83.0142766,91.9440123 C82.2489098,92.2610376 81.3714575,91.897585 81.0544322,91.1322181 C80.7374069,90.3668513 81.1008595,89.489399 81.8662263,89.1723737 C82.6315932,88.8553484 83.5090454,89.218801 83.8260708,89.9841678 Z M135.794534,87.192189 C136.60633,87.3573508 137.130531,88.1493318 136.965369,88.961128 C136.800208,89.7729242 136.008227,90.2971249 135.19643,90.1319631 C134.384634,89.9668013 133.860433,89.1748204 134.025595,88.3630242 C134.190757,87.551228 134.982738,87.0270272 135.794534,87.192189 Z M104.990411,86.7946837 C105.755778,87.111709 106.119231,87.9891613 105.802205,88.7545281 C105.48518,89.519895 104.607728,89.8833476 103.842361,89.5663223 C103.076994,89.2492969 102.713541,88.3718447 103.030567,87.6064778 C103.347592,86.841111 104.225044,86.4776583 104.990411,86.7946837 Z M50.3694333,87.6064778 C50.6864587,88.3718447 50.323006,89.2492969 49.5576392,89.5663223 C48.7922723,89.8833476 47.9148201,89.519895 47.5977947,88.7545281 C47.2807694,87.9891613 47.644222,87.111709 48.4095889,86.7946837 C49.1749557,86.4776583 50.052408,86.841111 50.3694333,87.6064778 Z M19.2748098,87.8623262 C19.4328811,88.6755328 18.9017891,89.4629092 18.0885825,89.6209805 C17.2753759,89.7790518 16.4879996,89.2479598 16.3299282,88.4347532 C16.1718569,87.6215466 16.7029489,86.8341703 17.5161555,86.6760989 C18.3293621,86.5180276 19.1167384,87.0491196 19.2748098,87.8623262 Z M67.1540585,86.2459415 C67.7398449,86.831728 67.7398449,87.7814755 67.1540585,88.3672619 C66.568272,88.9530483 65.6185245,88.9530483 65.0327381,88.3672619 C64.4469517,87.7814755 64.4469517,86.831728 65.0327381,86.2459415 C65.6185245,85.6601551 66.568272,85.6601551 67.1540585,86.2459415 Z M88.3672619,86.2459415 C88.9530483,86.831728 88.9530483,87.7814755 88.3672619,88.3672619 C87.7814755,88.9530483 86.831728,88.9530483 86.2459415,88.3672619 C85.6601551,87.7814755 85.6601551,86.831728 86.2459415,86.2459415 C86.831728,85.6601551 87.7814755,85.6601551 88.3672619,86.2459415 Z M121.155474,84.2076926 C121.96727,84.3728544 122.491471,85.1648353 122.326309,85.9766315 C122.161147,86.7884277 121.369166,87.3126285 120.55737,87.1474667 C119.745574,86.9823049 119.221373,86.1903239 119.386535,85.3785277 C119.551697,84.5667315 120.343678,84.0425308 121.155474,84.2076926 Z M34.0590279,85.0062139 C34.2170992,85.8194205 33.6860072,86.6067968 32.8728006,86.7648682 C32.059594,86.9229395 31.2722177,86.3918475 31.1141464,85.5786409 C30.956075,84.7654343 31.487167,83.978058 32.3003736,83.8199866 C33.1135802,83.6619153 33.9009566,84.1930073 34.0590279,85.0062139 Z M106.362851,81.4077558 C107.173175,81.5799955 107.690445,82.3765207 107.518205,83.1868448 C107.345965,83.9971688 106.54944,84.5144383 105.739116,84.3421986 C104.928792,84.1699589 104.411523,83.3734337 104.583762,82.5631097 C104.756002,81.7527857 105.552527,81.2355161 106.362851,81.4077558 Z M91.1322181,81.0544322 C91.897585,81.3714575 92.2610376,82.2489098 91.9440123,83.0142766 C91.626987,83.7796435 90.7495347,84.1430961 89.9841678,83.8260708 C89.218801,83.5090454 88.8553484,82.6315932 89.1723737,81.8662263 C89.489399,81.1008595 90.3668513,80.7374069 91.1322181,81.0544322 Z M64.2276263,81.8662263 C64.5446516,82.6315932 64.181199,83.5090454 63.4158322,83.8260708 C62.6504653,84.1430961 61.773013,83.7796435 61.4559877,83.0142766 C61.1389624,82.2489098 61.502415,81.3714575 62.2677819,81.0544322 C63.0331487,80.7374069 63.910601,81.1008595 64.2276263,81.8662263 Z M48.6837909,81.831339 C48.8347597,82.645894 48.2968168,83.4286058 47.4822618,83.5795746 C46.6677067,83.7305435 45.884995,83.1926006 45.7340261,82.3780455 C45.5830573,81.5634905 46.1210002,80.7807787 46.9355552,80.6298099 C47.7501102,80.478841 48.532822,81.0167839 48.6837909,81.831339 Z M1.7,75.2 C2.52842712,75.2 3.2,75.8715729 3.2,76.7 C3.2,77.5284271 2.52842712,78.2 1.7,78.2 C0.871572875,78.2 0.2,77.5284271 0.2,76.7 C0.2,75.8715729 0.871572875,75.2 1.7,75.2 Z M91.7,75.2 C92.5284271,75.2 93.2,75.8715729 93.2,76.7 C93.2,77.5284271 92.5284271,78.2 91.7,78.2 C90.8715729,78.2 90.2,77.5284271 90.2,76.7 C90.2,75.8715729 90.8715729,75.2 91.7,75.2 Z M61.7,75.2 C62.5284271,75.2 63.2,75.8715729 63.2,76.7 C63.2,77.5284271 62.5284271,78.2 61.7,78.2 C60.8715729,78.2 60.2,77.5284271 60.2,76.7 C60.2,75.8715729 60.8715729,75.2 61.7,75.2 Z M121.7,75.2 C122.528427,75.2 123.2,75.8715729 123.2,76.7 C123.2,77.5284271 122.528427,78.2 121.7,78.2 C120.871573,78.2 120.2,77.5284271 120.2,76.7 C120.2,75.8715729 120.871573,75.2 121.7,75.2 Z M136.7,75.2 C137.528427,75.2 138.2,75.8715729 138.2,76.7 C138.2,77.5284271 137.528427,78.2 136.7,78.2 C135.871573,78.2 135.2,77.5284271 135.2,76.7 C135.2,75.8715729 135.871573,75.2 136.7,75.2 Z M31.7,75.2 C32.5284271,75.2 33.2,75.8715729 33.2,76.7 C33.2,77.5284271 32.5284271,78.2 31.7,78.2 C30.8715729,78.2 30.2,77.5284271 30.2,76.7 C30.2,75.8715729 30.8715729,75.2 31.7,75.2 Z M151.7,75.2 C152.528427,75.2 153.2,75.8715729 153.2,76.7 C153.2,77.5284271 152.528427,78.2 151.7,78.2 C150.871573,78.2 150.2,77.5284271 150.2,76.7 C150.2,75.8715729 150.871573,75.2 151.7,75.2 Z M16.7,75.2 C17.5284271,75.2 18.2,75.8715729 18.2,76.7 C18.2,77.5284271 17.5284271,78.2 16.7,78.2 C15.8715729,78.2 15.2,77.5284271 15.2,76.7 C15.2,75.8715729 15.8715729,75.2 16.7,75.2 Z M46.7,75.2 C47.5284271,75.2 48.2,75.8715729 48.2,76.7 C48.2,77.5284271 47.5284271,78.2 46.7,78.2 C45.8715729,78.2 45.2,77.5284271 45.2,76.7 C45.2,75.8715729 45.8715729,75.2 46.7,75.2 Z M106.7,75.2 C107.528427,75.2 108.2,75.8715729 108.2,76.7 C108.2,77.5284271 107.528427,78.2 106.7,78.2 C105.871573,78.2 105.2,77.5284271 105.2,76.7 C105.2,75.8715729 105.871573,75.2 106.7,75.2 Z M76.7,75.2 C77.5284271,75.2 78.2,75.8715729 78.2,76.7 C78.2,77.5284271 77.5284271,78.2 76.7,78.2 C75.8715729,78.2 75.2,77.5284271 75.2,76.7 C75.2,75.8715729 75.8715729,75.2 76.7,75.2 Z M107.679085,70.8972074 C107.830054,71.7117625 107.292111,72.4944742 106.477556,72.6454431 C105.663001,72.7964119 104.880289,72.2584691 104.729321,71.443914 C104.578352,70.629359 105.116295,69.8466472 105.93085,69.6956784 C106.745405,69.5447095 107.528116,70.0826524 107.679085,70.8972074 Z M91.9440123,70.3857234 C92.2610376,71.1510902 91.897585,72.0285425 91.1322181,72.3455678 C90.3668513,72.6625931 89.489399,72.2991405 89.1723737,71.5337737 C88.8553484,70.7684068 89.218801,69.8909546 89.9841678,69.5739292 C90.7495347,69.2569039 91.626987,69.6203565 91.9440123,70.3857234 Z M63.4158322,69.5739292 C64.181199,69.8909546 64.5446516,70.7684068 64.2276263,71.5337737 C63.910601,72.2991405 63.0331487,72.6625931 62.2677819,72.3455678 C61.502415,72.0285425 61.1389624,71.1510902 61.4559877,70.3857234 C61.773013,69.6203565 62.6504653,69.2569039 63.4158322,69.5739292 Z M47.6739952,68.9330544 C48.4843192,69.1052941 49.0015888,69.9018193 48.8293491,70.7121433 C48.6571094,71.5224673 47.8605842,72.0397369 47.0502602,71.8674972 C46.2399362,71.6952575 45.7226666,70.8987322 45.8949063,70.0884082 C46.067146,69.2780842 46.8636712,68.7608147 47.6739952,68.9330544 Z M122.405474,67.8334043 C122.563546,68.6466109 122.032454,69.4339872 121.219247,69.5920586 C120.406041,69.7501299 119.618664,69.2190379 119.460593,68.4058313 C119.302522,67.5926247 119.833614,66.8052484 120.64682,66.647177 C121.460027,66.4891057 122.247403,67.0201977 122.405474,67.8334043 Z M32.9622506,66.2645785 C33.7740468,66.4297403 34.2982475,67.2217212 34.1330857,68.0335174 C33.9679239,68.8453136 33.175943,69.3695144 32.3641468,69.2043526 C31.5523506,69.0391908 31.0281498,68.2472098 31.1933116,67.4354136 C31.3584734,66.6236174 32.1504544,66.0994167 32.9622506,66.2645785 Z M67.1540585,65.0327381 C67.7398449,65.6185245 67.7398449,66.568272 67.1540585,67.1540585 C66.568272,67.7398449 65.6185245,67.7398449 65.0327381,67.1540585 C64.4469517,66.568272 64.4469517,65.6185245 65.0327381,65.0327381 C65.6185245,64.4469517 66.568272,64.4469517 67.1540585,65.0327381 Z M88.3672619,65.0327381 C88.9530483,65.6185245 88.9530483,66.568272 88.3672619,67.1540585 C87.7814755,67.7398449 86.831728,67.7398449 86.2459415,67.1540585 C85.6601551,66.568272 85.6601551,65.6185245 86.2459415,65.0327381 C86.831728,64.4469517 87.7814755,64.4469517 88.3672619,65.0327381 Z M137.070072,64.9652468 C137.228143,65.7784534 136.697051,66.5658297 135.883844,66.7239011 C135.070638,66.8819724 134.283262,66.3508804 134.12519,65.5376738 C133.967119,64.7244672 134.498211,63.9370908 135.311418,63.7790195 C136.124624,63.6209482 136.912,64.1520402 137.070072,64.9652468 Z M49.5576392,63.8336777 C50.323006,64.1507031 50.6864587,65.0281553 50.3694333,65.7935222 C50.052408,66.558889 49.1749557,66.9223417 48.4095889,66.6053163 C47.644222,66.288291 47.2807694,65.4108387 47.5977947,64.6454719 C47.9148201,63.880105 48.7922723,63.5166524 49.5576392,63.8336777 Z M105.802205,64.6454719 C106.119231,65.4108387 105.755778,66.288291 104.990411,66.6053163 C104.225044,66.9223417 103.347592,66.558889 103.030567,65.7935222 C102.713541,65.0281553 103.076994,64.1507031 103.842361,63.8336777 C104.607728,63.5166524 105.48518,63.880105 105.802205,64.6454719 Z M18.2035696,63.2680369 C19.0153658,63.4331987 19.5395666,64.2251796 19.3744048,65.0369758 C19.209243,65.848772 18.417262,66.3729728 17.6054658,66.207811 C16.7936696,66.0426492 16.2694689,65.2506682 16.4346307,64.438872 C16.5997925,63.6270758 17.3917734,63.1028751 18.2035696,63.2680369 Z M83.0142766,61.4559877 C83.7796435,61.773013 84.1430961,62.6504653 83.8260708,63.4158322 C83.5090454,64.181199 82.6315932,64.5446516 81.8662263,64.2276263 C81.1008595,63.910601 80.7374069,63.0331487 81.0544322,62.2677819 C81.3714575,61.502415 82.2489098,61.1389624 83.0142766,61.4559877 Z M72.3455678,62.2677819 C72.6625931,63.0331487 72.2991405,63.910601 71.5337737,64.2276263 C70.7684068,64.5446516 69.8909546,64.181199 69.5739292,63.4158322 C69.2569039,62.6504653 69.6203565,61.773013 70.3857234,61.4559877 C71.1510902,61.1389624 72.0285425,61.502415 72.3455678,62.2677819 Z M151.79448,62.1031119 C151.952551,62.9163184 151.421459,63.7036948 150.608252,63.8617661 C149.795046,64.0198375 149.007669,63.4887454 148.849598,62.6755388 C148.691527,61.8623323 149.222619,61.0749559 150.035825,60.9168846 C150.849032,60.7588132 151.636408,61.2899053 151.79448,62.1031119 Z M3.50469906,60.2775179 C4.31649526,60.4426797 4.84069602,61.2346606 4.67553421,62.0464568 C4.51037241,62.858253 3.71839146,63.3824538 2.90659525,63.217292 C2.09479905,63.0521302 1.57059829,62.2601492 1.7357601,61.448353 C1.9009219,60.6365568 2.69290285,60.1123561 3.50469906,60.2775179 Z M76.7,60.2 C77.5284271,60.2 78.2,60.8715729 78.2,61.7 C78.2,62.5284271 77.5284271,63.2 76.7,63.2 C75.8715729,63.2 75.2,62.5284271 75.2,61.7 C75.2,60.8715729 75.8715729,60.2 76.7,60.2 Z M103.124679,59.4814969 C103.575872,60.1762743 103.378409,61.1052675 102.683631,61.5564613 C101.988854,62.007655 101.059861,61.8101914 100.608667,61.115414 C100.157473,60.4206365 100.354937,59.4916433 101.049714,59.0404496 C101.744492,58.5892558 102.673485,58.7867194 103.124679,59.4814969 Z M52.8323794,58.4092501 C53.5151079,58.8784764 53.6881856,59.8123203 53.2189593,60.4950487 C52.7497331,61.1777772 51.8158892,61.350855 51.1331607,60.8816287 C50.4504322,60.4124024 50.2773545,59.4785585 50.7465808,58.79583 C51.2158071,58.1131015 52.1496509,57.9400238 52.8323794,58.4092501 Z M35.6994462,58.0934262 C36.4648131,58.4104516 36.8282657,59.2879038 36.5112403,60.0532707 C36.194215,60.8186376 35.3167628,61.1820902 34.5513959,60.8650648 C33.786029,60.5480395 33.4225764,59.6705873 33.7396017,58.9052204 C34.0566271,58.1398535 34.9340793,57.7764009 35.6994462,58.0934262 Z M119.660398,58.9052204 C119.977424,59.6705873 119.613971,60.5480395 118.848604,60.8650648 C118.083237,61.1820902 117.205785,60.8186376 116.88876,60.0532707 C116.571734,59.2879038 116.935187,58.4104516 117.700554,58.0934262 C118.465921,57.7764009 119.343373,58.1398535 119.660398,58.9052204 Z M98.9738636,54.4261364 C99.55965,55.0119228 99.55965,55.9616703 98.9738636,56.5474567 C98.3880772,57.1332432 97.4383297,57.1332432 96.8525433,56.5474567 C96.2667568,55.9616703 96.2667568,55.0119228 96.8525433,54.4261364 C97.4383297,53.84035 98.3880772,53.84035 98.9738636,54.4261364 Z M56.5474567,54.4261364 C57.1332432,55.0119228 57.1332432,55.9616703 56.5474567,56.5474567 C55.9616703,57.1332432 55.0119228,57.1332432 54.4261364,56.5474567 C53.84035,55.9616703 53.84035,55.0119228 54.4261364,54.4261364 C55.0119228,53.84035 55.9616703,53.84035 56.5474567,54.4261364 Z M133.518591,53.1649689 C133.835617,53.9303358 133.472164,54.807788 132.706797,55.1248134 C131.94143,55.4418387 131.063978,55.0783861 130.746953,54.3130192 C130.429927,53.5476523 130.79338,52.6702001 131.558747,52.3531748 C132.324114,52.0361494 133.201566,52.399602 133.518591,53.1649689 Z M21.8412532,52.3531748 C22.6066201,52.6702001 22.9700727,53.5476523 22.6530473,54.3130192 C22.336022,55.0783861 21.4585698,55.4418387 20.6932029,55.1248134 C19.927836,54.807788 19.5643834,53.9303358 19.8814088,53.1649689 C20.1984341,52.399602 21.0758863,52.0361494 21.8412532,52.3531748 Z M94.5483522,50.6776516 C95.2310807,51.1468778 95.4041584,52.0807217 94.9349321,52.7634502 C94.4657058,53.4461787 93.531862,53.6192564 92.8491335,53.1500301 C92.166405,52.6808038 91.9933273,51.74696 92.4625535,51.0642315 C92.9317798,50.381503 93.8656237,50.2084253 94.5483522,50.6776516 Z M115.535501,51.0409528 C115.992741,51.7317664 115.803391,52.6624474 115.112578,53.119687 C114.421764,53.5769266 113.491083,53.3875774 113.033844,52.6967637 C112.576604,52.0059501 112.765953,51.0752691 113.456767,50.6180295 C114.147581,50.1607899 115.078262,50.3501391 115.535501,51.0409528 Z M40.291909,50.2987856 C40.9787062,50.7620361 41.1599265,51.6943341 40.696676,52.3811313 C40.2334254,53.0679285 39.3011275,53.2491489 38.6143303,52.7858983 C37.927533,52.3226477 37.7463127,51.3903498 38.2095633,50.7035526 C38.6728138,50.0167554 39.6051118,49.835535 40.291909,50.2987856 Z M61.6253905,50.6605509 C62.0765843,51.3553283 61.8791207,52.2843216 61.1843432,52.7355153 C60.4895658,53.1867091 59.5605726,52.9892455 59.1093788,52.294468 C58.6581851,51.5996906 58.8556487,50.6706974 59.5504261,50.2195036 C60.2452036,49.7683099 61.1741968,49.9657735 61.6253905,50.6605509 Z M88.7545281,47.5977947 C89.519895,47.9148201 89.8833476,48.7922723 89.5663223,49.5576392 C89.2492969,50.323006 88.3718447,50.6864587 87.6064778,50.3694333 C86.841111,50.052408 86.4776583,49.1749557 86.7946837,48.4095889 C87.111709,47.644222 87.9891613,47.2807694 88.7545281,47.5977947 Z M66.6053163,48.4095889 C66.9223417,49.1749557 66.558889,50.052408 65.7935222,50.3694333 C65.0281553,50.6864587 64.1507031,50.323006 63.8336777,49.5576392 C63.5166524,48.7922723 63.880105,47.9148201 64.6454719,47.5977947 C65.4108387,47.2807694 66.288291,47.644222 66.6053163,48.4095889 Z M7.98306021,46.6129233 C8.74842707,46.9299486 9.1118797,47.8074009 8.79485436,48.5727677 C8.47782902,49.3381346 7.60037678,49.7015872 6.83500991,49.3845619 C6.06964305,49.0675365 5.70619043,48.1900843 6.02321576,47.4247174 C6.3402411,46.6593506 7.21769335,46.2958979 7.98306021,46.6129233 Z M147.376784,47.4247174 C147.69381,48.1900843 147.330357,49.0675365 146.56499,49.3845619 C145.799623,49.7015872 144.922171,49.3381346 144.605146,48.5727677 C144.28812,47.8074009 144.651573,46.9299486 145.41694,46.6129233 C146.182307,46.2958979 147.059759,46.6593506 147.376784,47.4247174 Z M83.255774,45.8259771 C84.066098,45.9982168 84.5833675,46.794742 84.4111278,47.605066 C84.2388882,48.41539 83.4423629,48.9326596 82.6320389,48.7604199 C81.8217149,48.5881802 81.3044454,47.7916549 81.476685,46.9813309 C81.6489247,46.1710069 82.44545,45.6537374 83.255774,45.8259771 Z M72.7143723,46.866626 C72.8653412,47.681181 72.3273983,48.4638928 71.5128432,48.6148616 C70.6982882,48.7658305 69.9155764,48.2278876 69.7646076,47.4133326 C69.6136387,46.5987775 70.1515816,45.8160658 70.9661367,45.6650969 C71.7806917,45.5141281 72.5634035,46.0520709 72.7143723,46.866626 Z M76.7,45.2 C77.5284271,45.2 78.2,45.8715729 78.2,46.7 C78.2,47.5284271 77.5284271,48.2 76.7,48.2 C75.8715729,48.2 75.2,47.5284271 75.2,46.7 C75.2,45.8715729 75.8715729,45.2 76.7,45.2 Z M45.940855,43.8195347 C46.5266415,44.4053211 46.5266415,45.3550686 45.940855,45.940855 C45.3550686,46.5266415 44.4053211,46.5266415 43.8195347,45.940855 C43.2337482,45.3550686 43.2337482,44.4053211 43.8195347,43.8195347 C44.4053211,43.2337482 45.3550686,43.2337482 45.940855,43.8195347 Z M109.580465,43.8195347 C110.166252,44.4053211 110.166252,45.3550686 109.580465,45.940855 C108.994679,46.5266415 108.044931,46.5266415 107.459145,45.940855 C106.873359,45.3550686 106.873359,44.4053211 107.459145,43.8195347 C108.044931,43.2337482 108.994679,43.2337482 109.580465,43.8195347 Z M127.983978,42.7558754 C128.441218,43.446689 128.251868,44.37737 127.561055,44.8346096 C126.870241,45.2918492 125.93956,45.1025 125.482321,44.4116864 C125.025081,43.7208727 125.21443,42.7901917 125.905244,42.3329521 C126.596057,41.8757126 127.526738,42.0650618 127.983978,42.7558754 Z M27.796535,41.9048694 C28.4833322,42.36812 28.6645526,43.3004179 28.201302,43.9872151 C27.7380514,44.6740124 26.8057535,44.8552327 26.1189563,44.3919822 C25.4321591,43.9287316 25.2509387,42.9964336 25.7141893,42.3096364 C26.1774399,41.6228392 27.1097378,41.4416189 27.796535,41.9048694 Z M102.76228,38.1557755 C103.449078,38.619026 103.630298,39.551324 103.167047,40.2381212 C102.703797,40.9249184 101.771499,41.1061388 101.084702,40.6428882 C100.397904,40.1796376 100.216684,39.2473397 100.679935,38.5605425 C101.143185,37.8737453 102.075483,37.6925249 102.76228,38.1557755 Z M53.1734748,38.3532551 C53.6307143,39.0440688 53.4413652,39.9747498 52.7505515,40.4319893 C52.0597379,40.8892289 51.1290569,40.6998797 50.6718173,40.0090661 C50.2145777,39.3182524 50.4039269,38.3875714 51.0947406,37.9303319 C51.7855542,37.4730923 52.7162352,37.6624415 53.1734748,38.3532551 Z M140.492265,34.4768206 C140.949505,35.1676343 140.760156,36.0983153 140.069342,36.5555548 C139.378528,37.0127944 138.447847,36.8234452 137.990608,36.1326316 C137.533368,35.4418179 137.722718,34.5111369 138.413531,34.0538974 C139.104345,33.5966578 140.035026,33.786007 140.492265,34.4768206 Z M94.4947796,33.7396017 C95.2601465,34.0566271 95.6235991,34.9340793 95.3065738,35.6994462 C94.9895484,36.4648131 94.1120962,36.8282657 93.3467293,36.5112403 C92.5813624,36.194215 92.2179098,35.3167628 92.5349352,34.5513959 C92.8519605,33.786029 93.7294127,33.4225764 94.4947796,33.7396017 Z M60.8650648,34.5513959 C61.1820902,35.3167628 60.8186376,36.194215 60.0532707,36.5112403 C59.2879038,36.8282657 58.4104516,36.4648131 58.0934262,35.6994462 C57.7764009,34.9340793 58.1398535,34.0566271 58.9052204,33.7396017 C59.6705873,33.4225764 60.5480395,33.786029 60.8650648,34.5513959 Z M15.3609714,33.5169759 C16.0477686,33.9802265 16.228989,34.9125244 15.7657384,35.5993216 C15.3024878,36.2861188 14.3701899,36.4673392 13.6833927,36.0040886 C12.9965955,35.540838 12.8153751,34.6085401 13.2786257,33.9217429 C13.7418763,33.2349457 14.6741742,33.0537253 15.3609714,33.5169759 Z M35.3342533,33.212933 C35.9200397,33.7987194 35.9200397,34.7484669 35.3342533,35.3342533 C34.7484669,35.9200397 33.7987194,35.9200397 33.212933,35.3342533 C32.6271465,34.7484669 32.6271465,33.7987194 33.212933,33.212933 C33.7987194,32.6271465 34.7484669,32.6271465 35.3342533,33.212933 Z M120.187067,33.212933 C120.772853,33.7987194 120.772853,34.7484669 120.187067,35.3342533 C119.601281,35.9200397 118.651533,35.9200397 118.065747,35.3342533 C117.47996,34.7484669 117.47996,33.7987194 118.065747,33.212933 C118.651533,32.6271465 119.601281,32.6271465 120.187067,33.212933 Z M86.0304193,31.1395238 C86.8422155,31.3046856 87.3664163,32.0966666 87.2012545,32.9084628 C87.0360927,33.720259 86.2441117,34.2444597 85.4323155,34.0792979 C84.6205193,33.9141361 84.0963186,33.1221552 84.2614804,32.310359 C84.4266422,31.4985628 85.2186231,30.974362 86.0304193,31.1395238 Z M69.6458464,32.2465858 C69.8039177,33.0597924 69.2728257,33.8471688 68.4596191,34.0052401 C67.6464125,34.1633115 66.8590362,33.6322194 66.7009648,32.8190128 C66.5428935,32.0058062 67.0739855,31.2184299 67.8871921,31.0603586 C68.7003987,30.9022872 69.487775,31.4333793 69.6458464,32.2465858 Z M76.7,30.2 C77.5284271,30.2 78.2,30.8715729 78.2,31.7 C78.2,32.5284271 77.5284271,33.2 76.7,33.2 C75.8715729,33.2 75.2,32.5284271 75.2,31.7 C75.2,30.8715729 75.8715729,30.2 76.7,30.2 Z M111.090364,25.7141893 C111.777161,26.1774399 111.958381,27.1097378 111.495131,27.796535 C111.03188,28.4833322 110.099582,28.6645526 109.412785,28.201302 C108.725988,27.7380514 108.544767,26.8057535 109.008018,26.1189563 C109.471268,25.4321591 110.403566,25.2509387 111.090364,25.7141893 Z M44.8346096,25.8389452 C45.2918492,26.5297588 45.1025,27.4604398 44.4116864,27.9176794 C43.7208727,28.374919 42.7901917,28.1855698 42.3329521,27.4947562 C41.8757126,26.8039425 42.0650618,25.8732615 42.7558754,25.4160219 C43.446689,24.9587824 44.37737,25.1481316 44.8346096,25.8389452 Z M130.793669,22.6063312 C131.379455,23.1921177 131.379455,24.1418651 130.793669,24.7276516 C130.207882,25.313438 129.258135,25.313438 128.672348,24.7276516 C128.086562,24.1418651 128.086562,23.1921177 128.672348,22.6063312 C129.258135,22.0205448 130.207882,22.0205448 130.793669,22.6063312 Z M24.7276516,22.6063312 C25.313438,23.1921177 25.313438,24.1418651 24.7276516,24.7276516 C24.1418651,25.313438 23.1921177,25.313438 22.6063312,24.7276516 C22.0205448,24.1418651 22.0205448,23.1921177 22.6063312,22.6063312 C23.1921177,22.0205448 24.1418651,22.0205448 24.7276516,22.6063312 Z M55.1248134,20.6932029 C55.4418387,21.4585698 55.0783861,22.336022 54.3130192,22.6530473 C53.5476523,22.9700727 52.6702001,22.6066201 52.3531748,21.8412532 C52.0361494,21.0758863 52.399602,20.1984341 53.1649689,19.8814088 C53.9303358,19.5643834 54.807788,19.927836 55.1248134,20.6932029 Z M100.235031,19.8814088 C101.000398,20.1984341 101.363851,21.0758863 101.046825,21.8412532 C100.7298,22.6066201 99.8523477,22.9700727 99.0869808,22.6530473 C98.3216139,22.336022 97.9581613,21.4585698 98.2751866,20.6932029 C98.592212,19.927836 99.4696642,19.5643834 100.235031,19.8814088 Z M88.961128,16.4346307 C89.7729242,16.5997925 90.2971249,17.3917734 90.1319631,18.2035696 C89.9668013,19.0153658 89.1748204,19.5395666 88.3630242,19.3744048 C87.551228,19.209243 87.0270272,18.417262 87.192189,17.6054658 C87.3573508,16.7936696 88.1493318,16.2694689 88.961128,16.4346307 Z M66.7239011,17.5161555 C66.8819724,18.3293621 66.3508804,19.1167384 65.5376738,19.2748098 C64.7244672,19.4328811 63.9370908,18.9017891 63.7790195,18.0885825 C63.6209482,17.2753759 64.1520402,16.4879996 64.9652468,16.3299282 C65.7784534,16.1718569 66.5658297,16.7029489 66.7239011,17.5161555 Z M76.7,15.2 C77.5284271,15.2 78.2,15.8715729 78.2,16.7 C78.2,17.5284271 77.5284271,18.2 76.7,18.2 C75.8715729,18.2 75.2,17.5284271 75.2,16.7 C75.2,15.8715729 75.8715729,15.2 76.7,15.2 Z M119.478257,13.2786257 C120.165054,13.7418763 120.346275,14.6741742 119.883024,15.3609714 C119.419774,16.0477686 118.487476,16.228989 117.800678,15.7657384 C117.113881,15.3024878 116.932661,14.3701899 117.395911,13.6833927 C117.859162,12.9965955 118.79146,12.8153751 119.478257,13.2786257 Z M36.5555548,13.3306579 C37.0127944,14.0214715 36.8234452,14.9521525 36.1326316,15.4093921 C35.4418179,15.8666316 34.5111369,15.6772825 34.0538974,14.9864688 C33.5966578,14.2956552 33.786007,13.3649742 34.4768206,12.9077346 C35.1676343,12.450495 36.0983153,12.6398442 36.5555548,13.3306579 Z M105.975283,6.02321576 C106.740649,6.3402411 107.104102,7.21769335 106.787077,7.98306021 C106.470051,8.74842707 105.592599,9.1118797 104.827232,8.79485436 C104.061865,8.47782902 103.698413,7.60037678 104.015438,6.83500991 C104.332463,6.06964305 105.209916,5.70619043 105.975283,6.02321576 Z M49.3845619,6.83500991 C49.7015872,7.60037678 49.3381346,8.47782902 48.5727677,8.79485436 C47.8074009,9.1118797 46.9299486,8.74842707 46.6129233,7.98306021 C46.2958979,7.21769335 46.6593506,6.3402411 47.4247174,6.02321576 C48.1900843,5.70619043 49.0675365,6.06964305 49.3845619,6.83500991 Z M91.951647,1.7357601 C92.7634432,1.9009219 93.2876439,2.69290285 93.1224821,3.50469906 C92.9573203,4.31649526 92.1653394,4.84069602 91.3535432,4.67553421 C90.541747,4.51037241 90.0175462,3.71839146 90.182708,2.90659525 C90.3478698,2.09479905 91.1398508,1.57059829 91.951647,1.7357601 Z M63.8617661,2.79174775 C64.0198375,3.60495433 63.4887454,4.39233067 62.6755388,4.55040202 C61.8623323,4.70847336 61.0749559,4.17738132 60.9168846,3.36417473 C60.7588132,2.55096815 61.2899053,1.76359181 62.1031119,1.60552047 C62.9163184,1.44744912 63.7036948,1.97854116 63.8617661,2.79174775 Z M76.7,0.2 C77.5284271,0.2 78.2,0.871572875 78.2,1.7 C78.2,2.52842712 77.5284271,3.2 76.7,3.2 C75.8715729,3.2 75.2,2.52842712 75.2,1.7 C75.2,0.871572875 75.8715729,0.2 76.7,0.2 Z" id="Shape" fill="#6899E4"></path>
    </g>
</svg>