<svg xmlns="http://www.w3.org/2000/svg" width="285" height="97" viewBox="0 0 285 97">
  <g fill="none" fill-rule="evenodd" transform="translate(-3 -8)">
    <g transform="translate(8.052 52.525)">
      <path fill="#212446" d="M131.588243,6.08059569 C135.665213,6.08059569 140.05987,6.72754767 144.847392,8.17505101 L145.534005,8.38729971 L145.534005,17.0256783 L142.955357,17.0256783 C139.943061,12.2856078 135.945794,9.18563499 130.978084,9.18563499 C127.143526,9.18563499 124.702164,11.3142878 124.702164,14.2419997 C124.702164,18.1439267 128.538175,19.4742442 135.249196,22.2246287 C144.226521,25.9492283 149.192052,28.0511011 149.192052,36.4166125 C149.192052,46.2130477 141.089288,52.2935687 129.583435,52.2935687 C124.135588,52.2935687 118.607823,51.1452554 112.921359,48.9284156 L112.238217,48.657271 L112.238217,35.4735202 L115.021703,35.4735202 C117.746353,44.3970702 122.862245,49.1892532 129.583435,49.1892532 C133.418719,49.1892532 135.597132,47.2379278 135.597132,44.0445867 C135.597132,39.1662732 132.024797,37.8359557 125.835316,35.2636224 C117.032322,31.6258771 112.238217,28.7879146 112.238217,21.3372678 C112.238217,12.2009249 119.647289,6.08059569 131.588243,6.08059569 Z M261.612515,7.29814747 C272.387758,7.29814747 279.667326,14.2114298 279.826015,25.3709875 L279.828663,25.7445418 L255.162264,25.7445418 C255.5102,36.0888825 262.919272,43.1566468 271.374331,43.1566468 C273.567484,43.1566468 275.488464,42.6527119 277.197224,41.5929474 L277.515144,41.3877153 L279.653605,43.5026162 C274.772334,49.2776998 268.409975,52.2937135 261.350292,52.2937135 C254.900041,52.2937135 249.060676,49.6214979 244.963895,44.7938493 C241.564438,40.8296768 239.909019,36.0027521 239.909019,30.4860598 C239.909019,24.8832372 241.477273,19.9694582 244.876729,15.4870553 C248.44979,10.6601306 255.162264,7.29814747 261.612515,7.29814747 Z M193.628905,6.8984008 C194.353832,6.52565133 195.218224,7.04967194 195.218224,7.86320672 L195.218224,7.86320672 L195.218224,42.1214166 C195.218224,46.7442338 196.769771,48.7310247 200.797142,48.6448942 L200.797142,48.6448942 L200.797142,51.0746418 L180.313641,51.0746418 L180.313641,45.8293691 C177.00135,50.5325265 172.295137,52.2934964 166.279987,52.2934964 C157.389827,52.2934964 152.857945,47.3196432 152.857945,37.3719369 L152.857945,37.3719369 L152.855766,20.5345175 C152.853587,19.5755018 152.330593,18.6997215 151.503973,18.2705168 L151.503973,18.2705168 L147.972316,17.0256059 L167.654297,6.8984008 C168.37995,6.52565133 169.243616,7.04967194 169.243616,7.86320672 L169.243616,7.86320672 L169.243616,36.8290978 C169.243616,42.6172096 170.290329,45.3299572 174.212052,45.3299572 C177.78584,45.3299572 178.918992,42.5267364 178.918992,36.8290978 L178.918992,36.8290978 L178.830374,20.5345175 C178.828195,19.5755018 178.305201,18.6997215 177.478581,18.2705168 L177.478581,18.2705168 L173.946197,17.0256059 Z M54.011846,0.000291807562 L54.011846,2.4322107 C48.5204162,2.7789039 47.2136593,4.51671261 47.2136593,9.90095209 L47.2136593,41.1764424 C47.2136593,46.5614056 48.5204162,48.2984906 54.011846,48.6459075 L54.011846,51.0778264 L21.2390513,51.0778264 L21.2390513,48.6459075 C26.7297547,48.2984906 28.0372379,46.5614056 28.0372379,41.1764424 L28.0372379,9.90095209 C28.0372379,4.51671261 26.7297547,2.7789039 21.2390513,2.4322107 L21.2390513,0.000291807562 L54.011846,0.000291807562 Z M233.922271,6.43705999 C238.106218,6.43705999 240.895515,9.19974881 240.895515,13.387571 C240.895515,17.0405159 238.629211,19.4463785 235.05615,19.4463785 C230.959369,19.4463785 229.477554,15.5263569 227.733517,15.5263569 C225.342006,15.5263569 225.132189,18.6580104 225.119928,25.1029297 L225.119277,42.2557511 C225.119277,46.8025709 226.752905,48.6576329 231.130794,48.5801878 C231.131521,48.5809116 231.132247,48.5816354 231.132974,48.5823592 L231.132974,51.0779712 L203.24145,51.0779712 L203.24145,48.5823592 C203.242176,48.5816354 203.242902,48.5809116 203.244355,48.579464 C207.275762,48.6641469 208.732879,46.8098088 208.732879,42.2557511 L208.732879,25.8612884 C208.732879,23.4561495 208.471383,22.2973691 206.292244,20.7824863 L200.818247,17.0260402 L222.43022,6.81559975 C223.152967,6.47469683 223.986125,6.99944124 223.986125,7.79705273 L223.986125,13.7436735 C226.775422,8.93194822 230.087713,6.43705999 233.922271,6.43705999 Z M90.4479909,7.32297331 C99.7739786,7.32297331 104.306587,12.0485681 104.306587,21.7624917 L104.306587,42.4135363 C104.306587,46.88653 105.763705,48.7068503 109.794385,48.6243387 C109.795838,48.6250625 109.796564,48.6257863 109.797291,48.6265101 L109.797291,51.0779712 L87.9194635,51.0779712 L87.9194635,22.1989343 C87.9194635,16.5990068 86.8742033,13.9738372 82.9510271,13.9738372 C79.3772395,13.9738372 78.3319792,16.685861 78.3319792,22.1989343 L78.3319792,42.4135363 C78.3319792,46.7019648 79.726628,48.5396558 83.3875812,48.6265101 L83.3875812,51.0779712 L56.4541521,51.0779712 L56.4541521,48.6265101 C56.4548785,48.6257863 56.4556049,48.6250625 56.4570576,48.6243387 C60.4884644,48.7068503 61.9455819,46.88653 61.9455819,42.4135363 L61.9455819,25.7766055 C61.9455819,23.41417 61.6840852,22.2763794 59.5049464,20.7882766 L54.0120639,17.0260402 L75.3320315,7.94325738 C76.0511473,7.63709616 76.8501648,8.16328814 76.8501648,8.94208121 L76.8501648,14.1482695 C80.2496213,9.59783077 84.78223,7.32297331 90.4479909,7.32297331 Z M261.960451,10.4878697 C257.159201,10.4878697 255.14158,14.3245352 255.076718,22.3243431 L255.075099,22.7278043 L259.614638,22.7273133 C265.257244,22.716432 267.451881,22.4811682 267.451881,17.98701 C267.451881,12.9871006 265.621404,10.4878697 261.960451,10.4878697 Z"/>
      <g transform="translate(-5.125 28.451)">
        <path fill="#212446" d="M13.1313403,-8.8817842e-15 C20.3835313,-8.8817842e-15 26.2626806,5.87914923 26.2626806,13.1313403 L22.615086,13.1313403 L22.615086,13.1313403 C22.615086,7.89343691 18.3692437,3.64759452 13.1313403,3.64759452 C7.89343691,3.64759452 3.64759452,7.89343691 3.64759452,13.1313403 L4.36983782e-13,13.1313403 C4.36983782e-13,5.87914923 5.87914923,-8.8817842e-15 13.1313403,-8.8817842e-15 Z"/>
        <path fill="#223A5E" d="M22.615086,13.1313403 C22.615086,7.89343691 18.3692437,3.64759452 13.1313403,3.64759452 C7.89343691,3.64759452 3.64759452,7.89343691 3.64759452,13.1313403 C3.64759452,18.3692437 7.89343691,22.615086 13.1313403,22.615086 C18.3692437,22.615086 22.615086,18.3692437 22.615086,13.1313403 Z" opacity=".5"/>
        <path fill="#223A5E" d="M22.615086,13.1313403 C22.615086,7.89343691 18.3692437,3.64759452 13.1313403,3.64759452 C7.89343691,3.64759452 3.64759452,7.89343691 3.64759452,13.1313403 L22.615086,13.1313403 Z"/>
      </g>
    </g>
    <path fill="#223A5E" d="M12.6560922,19.7391027 L5.07086984,19.7391027 L5.07086984,28.249214 L12.6131877,28.249214 C15.9086983,28.249214 17.5568234,26.8306083 17.5568234,23.9941583 C17.5568234,22.6494145 17.1307372,21.6031643 16.2778251,20.8576919 C15.4263924,20.1122196 14.2184083,19.7391027 12.6560922,19.7391027 Z M12.2721708,6.75463434 L5.07086984,6.75463434 L5.07086984,14.8695463 L12.2721708,14.8695463 C15.4537625,14.8695463 17.0456679,13.525564 17.0456679,10.8345535 C17.0456679,9.54768089 16.6469518,8.54711842 15.8517388,7.82905874 C15.0565258,7.11328345 13.8633365,6.75463434 12.2721708,6.75463434 Z M12.6989967,33.0746055 L1.08357767e-13,33.0746055 L1.08357767e-13,1.92924284 L12.230006,1.92924284 C15.5536264,1.92924284 18.0531843,2.70517372 19.7301591,4.25475107 C21.4056543,5.80508989 22.2437718,7.85190263 22.2437718,10.3951893 C22.2437718,12.0338578 21.8531928,13.4517021 21.0720347,14.6502449 C20.2908767,15.8503108 19.2190035,16.7412225 17.8549359,17.3267877 C19.3602925,17.8529586 20.5534819,18.7377787 21.4345039,19.9804865 C22.3147862,21.2239557 22.7556671,22.6775887 22.7556671,24.3451928 C22.7556671,27.0940745 21.8887,29.2360701 20.1562453,30.7711797 C18.4230508,32.3070507 15.9375479,33.0746055 12.6989967,33.0746055 Z M41.1647369,23.4237463 L41.1647369,10.3075449 L46.2356068,10.3075449 L46.2356068,33.0745293 L41.5486584,33.0745293 L41.5486584,30.1352819 C41.0367631,31.1297526 40.206043,31.9559401 39.0550184,32.6138442 C37.9047335,33.2717483 36.4911037,33.6007003 34.8156085,33.6007003 C32.201392,33.6007003 30.1915374,32.7897421 28.7853049,31.1663029 C27.3790724,29.5428636 26.6763261,27.3719324 26.6763261,24.6519863 L26.6763261,10.3075449 L31.7471959,10.3075449 L31.7471959,23.9499173 C31.7471959,27.4016294 33.1815382,29.1263433 36.0509626,29.1263433 C37.6413886,29.1263433 38.8915374,28.637484 39.801409,27.657481 C40.7098011,26.6774781 41.1647369,25.266487 41.1647369,23.4237463 Z M58.8919949,33.6008526 C55.8516922,33.6008526 53.5651774,32.8698481 52.0309711,31.4070775 C50.4967649,29.9450684 49.6586474,28.0733922 49.5166186,25.7928103 L54.4173499,25.7928103 C54.4735696,26.8451522 54.9144504,27.6941835 55.738513,28.3368584 C56.5618359,28.9810561 57.7128604,29.3016321 59.1901073,29.3016321 C60.4964758,29.3016321 61.5054716,29.0686244 62.2156153,28.6003246 C62.925759,28.1320248 63.2808309,27.5022949 63.2808309,26.7134191 C63.2808309,25.8362136 62.8473473,25.1844013 61.98112,24.7610278 C61.1141529,24.3368929 60.0629922,23.9911886 58.8276381,23.7231536 C57.5908045,23.4566415 56.3406557,23.1855607 55.0771917,22.9129569 C53.8137277,22.6395917 52.7477724,22.0052929 51.8815451,21.0115836 C51.0153177,20.0171128 50.5825739,18.6579013 50.5825739,16.9316645 C50.5825739,14.9434844 51.3844445,13.2545593 52.9896651,11.8648892 C54.594146,10.476742 56.7186593,9.7815262 59.3602459,9.7815262 C60.8656026,9.7815262 62.1941631,10.02291 63.3451876,10.5056776 C64.4954725,10.9884452 65.3905494,11.6242668 66.0296788,12.413904 C66.6688081,13.2035413 67.1518538,14.0084077 67.478076,14.8262191 C67.805038,15.6455533 67.9966289,16.4793554 68.0535883,17.3268638 L63.1957616,17.3268638 C63.1106923,16.4207227 62.7334284,15.6455533 62.066929,15.0013556 C61.3989501,14.3586807 60.4535713,14.0365819 59.2322721,14.0365819 C58.0109729,14.0365819 57.0737311,14.2695896 56.4205469,14.735605 C55.7666229,15.2008589 55.4396609,15.8427723 55.4396609,16.6613451 C55.4396609,17.4235696 55.8790623,18.0022815 56.7578651,18.395958 C57.6366679,18.7911573 58.6937464,19.1300084 59.9298403,19.4117497 C61.1659342,19.693491 62.416083,19.9790397 63.6802867,20.2676342 C64.9437507,20.5562287 66.0030484,21.2286006 66.85744,22.2847499 C67.7118316,23.3408992 68.1386576,24.7435141 68.1386576,26.4948792 C68.1386576,28.5416919 67.3360473,30.2382317 65.7315664,31.5829755 C64.1263457,32.9284807 61.8464886,33.6008526 58.8919949,33.6008526 Z M71.6330824,33.0741486 L71.6330824,10.3079256 L76.7039522,10.3079256 L76.7039522,33.0741486 L71.6330824,33.0741486 Z M74.1903394,6.4914727 C73.252358,6.4914727 72.4859946,6.19221771 71.88903,5.59294628 C71.2920655,4.99291337 70.9939531,4.22612006 70.9939531,3.28952048 C70.9939531,2.32474676 71.2920655,1.53434809 71.88903,0.921370319 C72.4859946,0.306869619 73.252358,5.15143483e-13 74.1903394,5.15143483e-13 C75.0987316,5.15143483e-13 75.8517798,0.306869619 76.4487443,0.921370319 C77.0457089,1.53434809 77.3438213,2.32474676 77.3438213,3.28952048 C77.3438213,4.22612006 77.0457089,4.99291337 76.4487443,5.59294628 C75.8517798,6.19221771 75.0987316,6.4914727 74.1903394,6.4914727 Z M86.4625842,10.3078495 L86.4625842,13.3354267 C86.9737397,12.3409559 87.8185148,11.4995392 88.9976492,10.8126995 C90.1767837,10.1258598 91.6037287,9.7816785 93.2807034,9.7816785 C95.8941802,9.7816785 97.9180897,10.6010128 99.3531718,12.2381584 C100.787514,13.8768269 101.505055,16.0546113 101.505055,18.7737959 L101.505055,33.0740725 L96.4341853,33.0740725 L96.4341853,19.4317 C96.4341853,17.8242515 96.0717161,16.5586999 95.3475175,15.638091 C94.6233188,14.7167207 93.5218564,14.2560355 92.0446095,14.2560355 C90.425334,14.2560355 89.1537329,14.7540324 88.2312858,15.7477417 C87.3073593,16.741451 86.8457659,18.1166533 86.8457659,19.8710642 L86.8457659,33.0740725 L81.7748961,33.0740725 L81.7748961,10.3078495 L86.4625842,10.3078495 Z M115.951079,14.0362773 C114.359914,14.0362773 113.03875,14.5190449 111.98833,15.4838186 C110.936429,16.4493538 110.283245,17.7362263 110.028037,19.3444364 L121.789052,19.3444364 C121.561214,17.7362263 120.93688,16.4493538 119.913829,15.4838186 C118.891518,14.5190449 117.570355,14.0362773 115.951079,14.0362773 Z M126.774853,23.2042927 L109.942228,23.2042927 C110.141216,25.0180977 110.780345,26.4580244 111.860356,27.5255956 C112.939626,28.5931669 114.359914,29.126191 116.121218,29.126191 C117.286297,29.126191 118.337458,28.8345506 119.2747,28.2489855 C120.212681,27.6641819 120.87992,26.8745447 121.277897,25.8808354 L126.391671,25.8808354 C125.709637,28.1911143 124.438036,30.055176 122.577608,31.4730202 C120.716439,32.8923874 118.521652,33.600548 115.993984,33.600548 C112.697733,33.600548 110.033955,32.4751056 108.003388,30.2234593 C105.972081,27.971813 104.956427,25.1208952 104.956427,21.6691831 C104.956427,18.3065622 105.979478,15.4838186 108.02484,13.2032367 C110.070202,10.9218933 112.712528,9.78122162 115.951079,9.78122162 C119.18963,9.78122162 121.810505,10.9005723 123.812962,13.1369894 C125.816159,15.3749294 126.817757,18.1892969 126.817757,21.5816149 L126.774853,23.2042927 Z M137.982326,33.6008526 C134.942023,33.6008526 132.655508,32.8698481 131.121302,31.4070775 C129.587096,29.9450684 128.748978,28.0733922 128.60695,25.7928103 L133.507681,25.7928103 C133.56464,26.8451522 134.004781,27.6941835 134.828844,28.3368584 C135.652907,28.9810561 136.803191,29.3016321 138.280438,29.3016321 C139.586807,29.3016321 140.595803,29.0686244 141.305946,28.6003246 C142.01609,28.1320248 142.371902,27.5022949 142.371902,26.7134191 C142.371902,25.8362136 141.938418,25.1844013 141.071451,24.7610278 C140.204484,24.3368929 139.153323,23.9911886 137.917969,23.7231536 C136.681135,23.4566415 135.431726,23.1855607 134.167523,22.9129569 C132.904059,22.6395917 131.838843,22.0052929 130.971876,21.0115836 C130.105649,20.0171128 129.672905,18.6579013 129.672905,16.9316645 C129.672905,14.9434844 130.474775,13.2545593 132.079996,11.8648892 C133.684477,10.476742 135.80899,9.7815262 138.451317,9.7815262 C139.956673,9.7815262 141.284494,10.02291 142.435519,10.5056776 C143.585803,10.9884452 144.48088,11.6242668 145.12001,12.413904 C145.759139,13.2035413 146.242185,14.0084077 146.569147,14.8262191 C146.895369,15.6455533 147.08696,16.4793554 147.143919,17.3268638 L142.286093,17.3268638 C142.201023,16.4207227 141.823759,15.6455533 141.15726,15.0013556 C140.489281,14.3586807 139.544642,14.0365819 138.323343,14.0365819 C137.101304,14.0365819 136.164062,14.2695896 135.510878,14.735605 C134.856954,15.2008589 134.530732,15.8427723 134.530732,16.6613451 C134.530732,17.4235696 134.969393,18.0022815 135.848196,18.395958 C136.726999,18.7911573 137.784077,19.1300084 139.020171,19.4117497 C140.256265,19.693491 141.506414,19.9790397 142.770618,20.2676342 C144.034082,20.5562287 145.093379,21.2286006 145.947771,22.2847499 C146.802163,23.3408992 147.228989,24.7435141 147.228989,26.4948792 C147.228989,28.5416919 146.426378,30.2382317 144.821897,31.5829755 C143.216677,32.9284807 140.93682,33.6008526 137.982326,33.6008526 Z M158.309154,33.6008526 C155.268851,33.6008526 152.982336,32.8698481 151.44813,31.4070775 C149.913924,29.9450684 149.075806,28.0733922 148.933777,25.7928103 L153.834509,25.7928103 C153.891468,26.8451522 154.331609,27.6941835 155.155672,28.3368584 C155.979734,28.9810561 157.130019,29.3016321 158.607266,29.3016321 C159.913634,29.3016321 160.92263,29.0686244 161.632774,28.6003246 C162.342918,28.1320248 162.698729,27.5022949 162.698729,26.7134191 C162.698729,25.8362136 162.265246,25.1844013 161.398279,24.7610278 C160.531312,24.3368929 159.480151,23.9911886 158.244797,23.7231536 C157.007963,23.4566415 155.758554,23.1855607 154.49435,22.9129569 C153.230886,22.6395917 152.165671,22.0052929 151.298704,21.0115836 C150.432476,20.0171128 149.999733,18.6579013 149.999733,16.9316645 C149.999733,14.9434844 150.801603,13.2545593 152.406824,11.8648892 C154.011305,10.476742 156.135818,9.7815262 158.778144,9.7815262 C160.283501,9.7815262 161.611322,10.02291 162.762346,10.5056776 C163.912631,10.9884452 164.807708,11.6242668 165.446837,12.413904 C166.085967,13.2035413 166.569012,14.0084077 166.895974,14.8262191 C167.222197,15.6455533 167.413788,16.4793554 167.470747,17.3268638 L162.61292,17.3268638 C162.527851,16.4207227 162.150587,15.6455533 161.484088,15.0013556 C160.816109,14.3586807 159.87147,14.0365819 158.65017,14.0365819 C157.428132,14.0365819 156.49089,14.2695896 155.837706,14.735605 C155.183782,15.2008589 154.857559,15.8427723 154.857559,16.6613451 C154.857559,17.4235696 155.296221,18.0022815 156.175024,18.395958 C157.053827,18.7911573 158.110905,19.1300084 159.346999,19.4117497 C160.583093,19.693491 161.833242,19.9790397 163.097445,20.2676342 C164.360909,20.5562287 165.420207,21.2286006 166.274599,22.2847499 C167.12899,23.3408992 167.555816,24.7435141 167.555816,26.4948792 C167.555816,28.5416919 166.753206,30.2382317 165.148725,31.5829755 C163.543504,32.9284807 161.263647,33.6008526 158.309154,33.6008526 Z" transform="translate(35.867 8.025)"/>
  </g>
</svg>
