<svg xmlns="http://www.w3.org/2000/svg" width="24" height="24" viewBox="0 0 24 24">
    <path fill-rule="evenodd" d="M18.56 13.61c.16.16.189.405.084.595.299.143.597.31.881.504.27.183.515.382.731.598.386.385.712.856.984 1.377.043.08.083.16.12.238.19-.108.433-.08.594.082.173.173.192.443.057.638l-.057.069-.205.203v.001l-2.136 2.136h-.001l-.204.205c-.195.196-.512.196-.707 0-.162-.162-.19-.407-.083-.597-.287-.138-.573-.297-.845-.478-.139-.092-.271-.188-.396-.288l-3.06 3.06c-.196.196-.512.196-.707 0-.174-.173-.193-.442-.058-.637l.058-.07 3.06-3.06c-.1-.125-.196-.257-.288-.396-.225-.338-.416-.697-.576-1.056l.098.211c-.19.107-.435.08-.597-.083-.174-.173-.193-.443-.058-.638l.058-.069 2.545-2.545c.196-.196.512-.196.708 0zM11.162 3.5c.868 0 1.647.33 2.088.857l.036.046.162.037c1.099.283 1.702 1.072 1.85 2.182l.022.188c.058.678-.038 1.41-.23 2.142l-.093.329.016.02c.155.226.245.523.233.858l-.012.146c-.084.702-.342 1.19-.71 1.42l-.039.02-.005.032c-.143.658-.476 1.37-.825 1.757l-.02.018-.002.464c0 .268.005.49.02.718l.011.152.026.057c.131.244.399.47.771.612l.166.055c.265.078.417.356.34.62-.078.266-.355.418-.62.34-.52-.152-.953-.42-1.26-.76-.056.022-.121.045-.192.067l-.128.036 1.005 4.587H8.628l1.003-4.586-.126-.037c-.06-.019-.117-.038-.17-.058-.333.371-.849.657-1.648.987l-1.034.413c-1.422.586-2.18 1.17-2.448 2.142l-.035.139H7.2c.245 0 .45.177.492.41L7.7 20c0 .245-.177.45-.41.492l-.09.008H3.069l.032-.53c.112-1.872 1.133-2.836 3.172-3.675l1.218-.492c.738-.319 1.099-.57 1.253-.886l.011-.026.013-.157c.01-.153.016-.302.018-.464l-.001-.715-.022-.022c-.315-.345-.622-.948-.787-1.538l-.062-.25-.038-.02c-.335-.21-.578-.632-.684-1.235l-.027-.186c-.047-.394.045-.745.222-1.002l.029-.039-.045-.196c-.74-3.362.301-5.41 3.56-5.56l.231-.007zm.038 12.6c-.204 0-.398-.007-.58-.021L9.87 19.5h2.657l-.748-3.421c-.182.014-.376.021-.58.021zm6.707-1.131l-1.24 1.239.053.12c.092.207.196.414.312.614l.183.294c.155.234.321.442.496.616.174.175.382.34.616.497.287.19.598.356.908.494l.119.052 1.241-1.24-.098-.227c-.188-.412-.44-.839-.753-1.203l-.195-.211c-.169-.17-.366-.329-.586-.478-.293-.2-.61-.37-.927-.51l-.129-.057zm-6.735-10.47c-2.747.051-3.506 1.539-2.777 4.559l.059.235.093.36-.317.193c-.04.024-.096.139-.072.34.058.482.162.652.225.683l.017.005.412.033.044.412c.06.563.444 1.36.623 1.536l.037.03.268.14.004.99c0 .288-.006.532-.022.784l-.011.108.05.016c.348.11.808.177 1.395.177s1.047-.068 1.395-.177l.067-.023-.007-.1c-.011-.169-.018-.333-.02-.51l.002-1.265.267-.14c.137-.072.514-.832.62-1.431l.02-.135.043-.412.413-.033c.058-.005.178-.158.242-.689.02-.167-.016-.274-.051-.32l-.02-.019-.342-.207.126-.378c.271-.814.43-1.658.368-2.365-.073-.845-.437-1.349-1.233-1.513l-.164-.028-.245-.034-.121-.214c-.191-.336-.735-.607-1.388-.607z"/>
</svg>
