<svg xmlns="http://www.w3.org/2000/svg" width="24" height="24" viewBox="0 0 24 24">
    <path fill-rule="evenodd" d="M19.052 5.368c1.742 1.813 2.734 4.217 2.734 6.775 0 2.558-.992 4.961-2.734 6.775-.191.199-.508.205-.707.014-.2-.191-.205-.508-.014-.707 1.565-1.63 2.455-3.786 2.455-6.082s-.89-4.453-2.455-6.082c-.191-.2-.185-.516.014-.707.2-.192.516-.185.707.014zM5.655 5.354c.2.191.205.508.014.707-1.565 1.629-2.455 3.786-2.455 6.082s.89 4.453 2.455 6.082c.191.2.185.516-.014.707-.2.191-.516.185-.707-.014-1.742-1.814-2.734-4.217-2.734-6.775 0-2.558.992-4.962 2.734-6.775.191-.2.508-.206.707-.014zm12.103 2.94c.759 1.131 1.17 2.46 1.17 3.849 0 1.388-.411 2.718-1.17 3.85-.153.229-.464.29-.693.137-.23-.154-.291-.465-.138-.694.65-.969 1.002-2.105 1.002-3.293 0-1.188-.353-2.325-1.002-3.293-.153-.23-.092-.54.138-.694.229-.154.54-.092.693.137zM6.935 8.155c.23.154.291.464.138.694-.65.968-1.002 2.105-1.002 3.293 0 1.188.353 2.324 1.002 3.293.153.23.092.54-.138.694-.229.153-.54.092-.693-.137-.759-1.132-1.17-2.462-1.17-3.85s.411-2.718 1.17-3.85c.153-.23.464-.29.693-.137zM12 10.714c.789 0 1.429.64 1.429 1.429S12.789 13.57 12 13.57s-1.429-.64-1.429-1.428c0-.79.64-1.429 1.429-1.429zm3.99.618c.054.27.081.54.081.81 0 .272-.027.542-.08.812-.054.27-.317.447-.588.394-.27-.054-.447-.317-.394-.588.041-.207.062-.413.062-.617 0-.204-.02-.41-.062-.618-.053-.27.123-.533.394-.587.271-.053.534.123.588.394zm-7.483-.403l.09.009c.27.054.447.317.394.587-.041.208-.062.414-.062.618 0 .204.02.41.062.617.053.271-.123.534-.394.588-.271.053-.534-.123-.588-.394-.053-.27-.08-.54-.08-.811 0-.27.027-.541.08-.811.042-.211.21-.364.41-.397l.088-.006z"/>
</svg>
