<svg xmlns="http://www.w3.org/2000/svg" width="24" height="24" viewBox="0 0 24 24">
    <path fill-rule="evenodd" d="M18 4.167c.962 0 1.75.74 1.827 1.683l.006.15v12c0 .962-.74 1.75-1.683 1.827l-.15.006H6c-.962 0-1.75-.74-1.827-1.683L4.167 18V6c0-.962.74-1.75 1.683-1.827L6 4.167h12zm-2.653.999H6c-.424 0-.775.319-.827.73L5.167 6v12c0 .424.318.775.729.827l.104.006h12c.424 0 .775-.318.827-.729l.006-.104V6c0-.424-.318-.775-.729-.827L18 5.167h-.96l-.013.013-.069.06-4.764 3.423 3.428 2.429c.25.176.279.525.084.741l-.073.067-4.8 3.6 1.834 1.833H8v-4.666l2.119 2.119 4.365-3.274-3.44-2.437c-.252-.179-.278-.533-.078-.748l.076-.066 4.305-3.095z"/>
</svg>
