<svg xmlns="http://www.w3.org/2000/svg" width="285" height="97" viewBox="0 0 285 97">
  <g fill="none" fill-rule="evenodd" transform="translate(-3 -8)">
    <g transform="translate(8.052 52.525)">
      <path fill="#212446" d="M131.588243,6.08059569 C135.665213,6.08059569 140.05987,6.72754767 144.847392,8.17505101 L145.534005,8.38729971 L145.534005,17.0256783 L142.955357,17.0256783 C139.943061,12.2856078 135.945794,9.18563499 130.978084,9.18563499 C127.143526,9.18563499 124.702164,11.3142878 124.702164,14.2419997 C124.702164,18.1439267 128.538175,19.4742442 135.249196,22.2246287 C144.226521,25.9492283 149.192052,28.0511011 149.192052,36.4166125 C149.192052,46.2130477 141.089288,52.2935687 129.583435,52.2935687 C124.135588,52.2935687 118.607823,51.1452554 112.921359,48.9284156 L112.238217,48.657271 L112.238217,35.4735202 L115.021703,35.4735202 C117.746353,44.3970702 122.862245,49.1892532 129.583435,49.1892532 C133.418719,49.1892532 135.597132,47.2379278 135.597132,44.0445867 C135.597132,39.1662732 132.024797,37.8359557 125.835316,35.2636224 C117.032322,31.6258771 112.238217,28.7879146 112.238217,21.3372678 C112.238217,12.2009249 119.647289,6.08059569 131.588243,6.08059569 Z M261.612515,7.29814747 C272.387758,7.29814747 279.667326,14.2114298 279.826015,25.3709875 L279.828663,25.7445418 L255.162264,25.7445418 C255.5102,36.0888825 262.919272,43.1566468 271.374331,43.1566468 C273.567484,43.1566468 275.488464,42.6527119 277.197224,41.5929474 L277.515144,41.3877153 L279.653605,43.5026162 C274.772334,49.2776998 268.409975,52.2937135 261.350292,52.2937135 C254.900041,52.2937135 249.060676,49.6214979 244.963895,44.7938493 C241.564438,40.8296768 239.909019,36.0027521 239.909019,30.4860598 C239.909019,24.8832372 241.477273,19.9694582 244.876729,15.4870553 C248.44979,10.6601306 255.162264,7.29814747 261.612515,7.29814747 Z M193.628905,6.8984008 C194.353832,6.52565133 195.218224,7.04967194 195.218224,7.86320672 L195.218224,7.86320672 L195.218224,42.1214166 C195.218224,46.7442338 196.769771,48.7310247 200.797142,48.6448942 L200.797142,48.6448942 L200.797142,51.0746418 L180.313641,51.0746418 L180.313641,45.8293691 C177.00135,50.5325265 172.295137,52.2934964 166.279987,52.2934964 C157.389827,52.2934964 152.857945,47.3196432 152.857945,37.3719369 L152.857945,37.3719369 L152.855766,20.5345175 C152.853587,19.5755018 152.330593,18.6997215 151.503973,18.2705168 L151.503973,18.2705168 L147.972316,17.0256059 L167.654297,6.8984008 C168.37995,6.52565133 169.243616,7.04967194 169.243616,7.86320672 L169.243616,7.86320672 L169.243616,36.8290978 C169.243616,42.6172096 170.290329,45.3299572 174.212052,45.3299572 C177.78584,45.3299572 178.918992,42.5267364 178.918992,36.8290978 L178.918992,36.8290978 L178.830374,20.5345175 C178.828195,19.5755018 178.305201,18.6997215 177.478581,18.2705168 L177.478581,18.2705168 L173.946197,17.0256059 Z M54.011846,0.000291807562 L54.011846,2.4322107 C48.5204162,2.7789039 47.2136593,4.51671261 47.2136593,9.90095209 L47.2136593,41.1764424 C47.2136593,46.5614056 48.5204162,48.2984906 54.011846,48.6459075 L54.011846,51.0778264 L21.2390513,51.0778264 L21.2390513,48.6459075 C26.7297547,48.2984906 28.0372379,46.5614056 28.0372379,41.1764424 L28.0372379,9.90095209 C28.0372379,4.51671261 26.7297547,2.7789039 21.2390513,2.4322107 L21.2390513,0.000291807562 L54.011846,0.000291807562 Z M233.922271,6.43705999 C238.106218,6.43705999 240.895515,9.19974881 240.895515,13.387571 C240.895515,17.0405159 238.629211,19.4463785 235.05615,19.4463785 C230.959369,19.4463785 229.477554,15.5263569 227.733517,15.5263569 C225.342006,15.5263569 225.132189,18.6580104 225.119928,25.1029297 L225.119277,42.2557511 C225.119277,46.8025709 226.752905,48.6576329 231.130794,48.5801878 C231.131521,48.5809116 231.132247,48.5816354 231.132974,48.5823592 L231.132974,51.0779712 L203.24145,51.0779712 L203.24145,48.5823592 C203.242176,48.5816354 203.242902,48.5809116 203.244355,48.579464 C207.275762,48.6641469 208.732879,46.8098088 208.732879,42.2557511 L208.732879,25.8612884 C208.732879,23.4561495 208.471383,22.2973691 206.292244,20.7824863 L200.818247,17.0260402 L222.43022,6.81559975 C223.152967,6.47469683 223.986125,6.99944124 223.986125,7.79705273 L223.986125,13.7436735 C226.775422,8.93194822 230.087713,6.43705999 233.922271,6.43705999 Z M90.4479909,7.32297331 C99.7739786,7.32297331 104.306587,12.0485681 104.306587,21.7624917 L104.306587,42.4135363 C104.306587,46.88653 105.763705,48.7068503 109.794385,48.6243387 C109.795838,48.6250625 109.796564,48.6257863 109.797291,48.6265101 L109.797291,51.0779712 L87.9194635,51.0779712 L87.9194635,22.1989343 C87.9194635,16.5990068 86.8742033,13.9738372 82.9510271,13.9738372 C79.3772395,13.9738372 78.3319792,16.685861 78.3319792,22.1989343 L78.3319792,42.4135363 C78.3319792,46.7019648 79.726628,48.5396558 83.3875812,48.6265101 L83.3875812,51.0779712 L56.4541521,51.0779712 L56.4541521,48.6265101 C56.4548785,48.6257863 56.4556049,48.6250625 56.4570576,48.6243387 C60.4884644,48.7068503 61.9455819,46.88653 61.9455819,42.4135363 L61.9455819,25.7766055 C61.9455819,23.41417 61.6840852,22.2763794 59.5049464,20.7882766 L54.0120639,17.0260402 L75.3320315,7.94325738 C76.0511473,7.63709616 76.8501648,8.16328814 76.8501648,8.94208121 L76.8501648,14.1482695 C80.2496213,9.59783077 84.78223,7.32297331 90.4479909,7.32297331 Z M261.960451,10.4878697 C257.159201,10.4878697 255.14158,14.3245352 255.076718,22.3243431 L255.075099,22.7278043 L259.614638,22.7273133 C265.257244,22.716432 267.451881,22.4811682 267.451881,17.98701 C267.451881,12.9871006 265.621404,10.4878697 261.960451,10.4878697 Z"/>
      <g transform="translate(-5.125 28.451)">
        <path fill="#212446" d="M13.1313403,-8.8817842e-15 C20.3835313,-8.8817842e-15 26.2626806,5.87914923 26.2626806,13.1313403 L22.615086,13.1313403 L22.615086,13.1313403 C22.615086,7.89343691 18.3692437,3.64759452 13.1313403,3.64759452 C7.89343691,3.64759452 3.64759452,7.89343691 3.64759452,13.1313403 L4.36983782e-13,13.1313403 C4.36983782e-13,5.87914923 5.87914923,-8.8817842e-15 13.1313403,-8.8817842e-15 Z"/>
        <path fill="#1E8985" d="M22.615086,13.1313403 C22.615086,7.89343691 18.3692437,3.64759452 13.1313403,3.64759452 C7.89343691,3.64759452 3.64759452,7.89343691 3.64759452,13.1313403 C3.64759452,18.3692437 7.89343691,22.615086 13.1313403,22.615086 C18.3692437,22.615086 22.615086,18.3692437 22.615086,13.1313403 Z" opacity=".5"/>
        <path fill="#1E8985" d="M22.615086,13.1313403 C22.615086,7.89343691 18.3692437,3.64759452 13.1313403,3.64759452 C7.89343691,3.64759452 3.64759452,7.89343691 3.64759452,13.1313403 L22.615086,13.1313403 Z"/>
      </g>
    </g>
    <path fill="#1E8985" d="M5.17900215,15.2660424 L12.6254429,15.2660424 C14.2799599,15.2660424 15.5147184,14.8818542 16.3274896,14.1142179 C17.1410038,13.3465816 17.5473894,12.281366 17.5473894,10.9163503 C17.5473894,9.55133462 17.1335745,8.47131406 16.3066875,7.6755484 C15.4783146,6.87978274 14.2517283,6.48152979 12.6254429,6.48152979 L5.17900215,6.48152979 L5.17900215,15.2660424 Z M5.17900215,20.0421169 L5.17900215,31.982303 L-4.45865567e-13,31.982303 L-4.45865567e-13,1.70545535 L12.5830956,1.70545535 C16.0347731,1.70545535 18.5964141,2.55155781 20.2650469,4.24228224 C21.9344225,5.93448717 22.7687389,8.15892977 22.7687389,10.9163503 C22.7687389,13.6456415 21.9128774,15.8493571 20.2011544,17.5260169 C18.4894314,19.2034169 15.9493356,20.0421169 12.5830956,20.0421169 L5.17900215,20.0421169 Z M35.5224868,13.4747184 C33.9244329,13.4747184 32.5975504,13.9440351 31.5425822,14.8819282 C30.4861282,15.8205615 29.8301163,17.0715792 29.5738036,18.6349811 L41.3857323,18.6349811 C41.1569083,17.0715792 40.5298709,15.8205615 39.5023913,14.8819282 C38.4756547,13.9440351 37.1487722,13.4747184 35.5224868,13.4747184 Z M46.3931164,22.3872938 L29.4876231,22.3872938 C29.6874727,24.1505624 30.3293688,25.5503697 31.4140544,26.5881962 C32.4979971,27.6260227 33.9244329,28.1441957 35.6933619,28.1441957 C36.863485,28.1441957 37.9191961,27.860681 38.8604952,27.291431 C39.8025372,26.7229212 40.4726648,25.9552849 40.872364,24.9892624 L46.0082759,24.9892624 C45.3232896,27.2351722 44.0461837,29.0472971 42.1777014,30.4256373 C40.3084761,31.8054579 38.104187,32.4938878 35.565577,32.4938878 C32.2550572,32.4938878 29.5797471,31.3998025 27.5403896,29.2108918 C25.5002892,27.021981 24.480239,24.2504958 24.480239,20.8949556 C24.480239,17.6260243 25.5077186,14.8819282 27.5619347,12.664888 C29.6161509,10.4471077 32.2699159,9.33821747 35.5224868,9.33821747 C38.7750576,9.33821747 41.4072775,10.4263807 43.4184034,12.6004865 C45.4302723,14.7760728 46.4354638,17.5120262 46.4354638,20.8098271 L46.3931164,22.3872938 Z M62.0145946,9.67947139 L62.0145946,14.4133517 C61.6148954,14.3563527 61.229312,14.3274831 60.8593302,14.3274831 C57.0354421,14.3274831 55.1238695,16.3750066 55.1238695,20.4685732 L55.1238695,31.982377 L50.0310478,31.982377 L50.0310478,9.84972823 L54.739029,9.84972823 L54.739029,12.9210135 C55.9938468,10.7321028 58.1765908,9.63653706 61.287261,9.63653706 L62.0145946,9.67947139 Z M72.2434025,32.4941098 C69.1899383,32.4941098 66.8935252,31.7834726 65.3526774,30.3614579 C63.8118295,28.9401834 62.9700838,27.120656 62.8274402,24.9036158 L67.7493867,24.9036158 C67.8058498,25.9266373 68.2486392,26.7520129 69.0762692,27.3767815 C69.9031562,28.0030305 71.0591636,28.3146746 72.5428054,28.3146746 C73.8548292,28.3146746 74.868193,28.0881589 75.5814109,27.632907 C76.2946288,27.177655 76.6512378,26.5654706 76.6512378,25.7985746 C76.6512378,24.9458099 76.2158777,24.3121584 75.3459004,23.900581 C74.4751802,23.4882633 73.4194691,23.1521911 72.1787671,22.8916241 C70.9365793,22.6325376 69.6810186,22.3690097 68.412085,22.1040012 C67.1431515,21.8382525 66.0725817,21.2216266 65.2026044,20.2556041 C64.3326271,19.2888414 63.89801,17.9675003 63.89801,16.28936 C63.89801,14.3565748 64.7033519,12.7147067 66.3155215,11.3637557 C67.9269483,10.0142852 70.0606585,9.33843954 72.7136806,9.33843954 C74.2255539,9.33843954 75.5598658,9.57309788 76.7158732,10.0424146 C77.8711376,10.5117312 78.7700893,11.1298376 79.4119854,11.8974738 C80.0538816,12.6651101 80.5390183,13.4475513 80.8666528,14.2425767 C81.1950302,15.0390826 81.3874505,15.8496532 81.4446565,16.6735483 L76.5658002,16.6735483 C76.4803627,15.7926542 76.1014656,15.0390826 75.4320809,14.4128336 C74.7612103,13.788065 73.811739,13.4749405 72.5851527,13.4749405 C71.3585665,13.4749405 70.4172675,13.7014561 69.7612556,14.1544873 C69.1045007,14.6067783 68.7761233,15.2308066 68.7761233,16.0265723 C68.7761233,16.7675597 69.2174269,17.3301475 70.1000341,17.7128553 C70.9826412,18.0970435 72.0442958,18.4264535 73.2857408,18.7003449 C74.5271857,18.9742364 75.7827464,19.251829 77.0524229,19.5323827 C78.3213564,19.8129363 79.3852398,20.4665746 80.2433301,21.4932973 C81.1014204,22.5200201 81.5300941,23.8835553 81.5300941,25.5861237 C81.5300941,27.5759079 80.7240092,29.2251785 79.1125825,30.5324549 C77.5004129,31.8404716 75.2106862,32.4941098 72.2434025,32.4941098 Z M88.6779491,20.9378899 C88.6779491,23.0416722 89.2834414,24.7472016 90.4966548,26.054478 C91.7091252,27.3632349 93.2425438,28.0168731 95.0976533,28.0168731 C96.9809943,28.0168731 98.5277857,27.3632349 99.740999,26.054478 C100.953469,24.7472016 101.559705,23.0416722 101.559705,20.9378899 C101.559705,18.8052379 100.953469,17.0856439 99.740999,15.7776272 C98.5277857,14.471091 96.9809943,13.8159723 95.0976533,13.8159723 C93.2425438,13.8159723 91.7091252,14.471091 90.4966548,15.7776272 C89.2834414,17.0856439 88.6779491,18.8052379 88.6779491,20.9378899 Z M95.0976533,32.4938878 C91.6734643,32.4938878 88.8986009,31.3716731 86.7730629,29.1257633 C84.647525,26.8798536 83.5851275,24.1505624 83.5851275,20.9378899 C83.5851275,17.7252174 84.647525,14.989264 86.7730629,12.7285493 C88.8986009,10.4685748 91.6734643,9.33821747 95.0976533,9.33821747 C98.5493308,9.33821747 101.339053,10.4685748 103.464591,12.7285493 C105.590129,14.989264 106.653269,17.7252174 106.653269,20.9378899 C106.653269,24.1505624 105.590129,26.8798536 103.464591,29.1257633 C101.339053,31.3716731 98.5493308,32.4938878 95.0976533,32.4938878 Z M114.998439,9.85009835 L114.998439,12.7933209 C115.511807,11.8265582 116.360239,11.0085851 117.545221,10.3408822 C118.728717,9.67317929 120.162582,9.33858759 121.846074,9.33858759 C124.470864,9.33858759 126.503535,10.1350935 127.94483,11.7266248 C129.385382,13.3196366 130.106029,15.4367434 130.106029,18.0801659 L130.106029,31.9820069 L125.013207,31.9820069 L125.013207,18.7197394 C125.013207,17.1570777 124.649912,15.926787 123.921835,15.0318282 C123.194501,14.1361292 122.088271,13.6882797 120.605372,13.6882797 C118.978343,13.6882797 117.701238,14.1724013 116.774797,15.1384238 C115.847614,16.1044463 115.384022,17.4413326 115.384022,19.146862 L115.384022,31.9820069 L110.290458,31.9820069 L110.290458,9.85009835 L114.998439,9.85009835 Z M148.723691,21.6130693 L142.824041,22.5220928 C140.051407,22.9455141 138.665832,23.9885223 138.665832,25.6518576 C138.665832,27.5690977 139.978599,28.5284579 142.60339,28.5284579 C144.572168,28.5284579 146.084042,28.0051032 147.140496,26.959134 C148.195464,25.9131648 148.723691,24.5977457 148.723691,23.0136169 L148.723691,21.6130693 Z M141.57591,32.4939618 C138.95112,32.4939618 136.9972,31.8832579 135.712665,30.6603696 C134.428872,29.4382216 133.786976,27.8178207 133.786976,25.7984265 C133.789948,21.9572842 136.634647,19.6306875 142.318845,18.8215974 L148.723691,17.9096129 L148.723691,17.568359 C148.723691,14.8686778 147.140496,13.5169865 143.972619,13.5169865 C141.205185,13.5169865 139.636106,14.6125523 139.265381,16.801463 L134.300344,16.801463 C134.528426,14.6406816 135.434807,12.8566861 137.018745,11.4494763 C138.60194,10.0422665 140.962246,9.33829149 144.101147,9.33829149 C147.269023,9.33829149 149.657561,10.0629934 151.270473,11.5131375 C152.8819,12.9632817 153.688728,14.9967405 153.688728,17.6112933 L153.688728,27.8030158 C153.688728,29.5944138 153.90195,30.9875589 154.329881,31.982451 L149.494115,31.982451 C149.46514,31.982451 149.430222,31.8758554 149.387132,31.6626643 C149.344042,31.4494731 149.301695,31.1008167 149.258604,30.6174353 C149.216257,30.1347942 149.194712,29.6225432 149.194712,29.082903 C147.682096,31.3569422 145.142743,32.4939618 141.57591,32.4939618 Z M158.653096,31.982377 L158.653096,9.59232693e-14 L163.745917,9.59232693e-14 L163.745917,31.982377 L158.653096,31.982377 Z" transform="translate(35.867 8.17)"/>
  </g>
</svg>
