<svg xmlns="http://www.w3.org/2000/svg" width="285" height="97" viewBox="0 0 285 97">
  <g fill="none" fill-rule="evenodd" transform="translate(-3 -8)">
    <g transform="translate(8.052 52.525)">
      <path fill="#212446" d="M131.588243,6.08059569 C135.665213,6.08059569 140.05987,6.72754767 144.847392,8.17505101 L145.534005,8.38729971 L145.534005,17.0256783 L142.955357,17.0256783 C139.943061,12.2856078 135.945794,9.18563499 130.978084,9.18563499 C127.143526,9.18563499 124.702164,11.3142878 124.702164,14.2419997 C124.702164,18.1439267 128.538175,19.4742442 135.249196,22.2246287 C144.226521,25.9492283 149.192052,28.0511011 149.192052,36.4166125 C149.192052,46.2130477 141.089288,52.2935687 129.583435,52.2935687 C124.135588,52.2935687 118.607823,51.1452554 112.921359,48.9284156 L112.238217,48.657271 L112.238217,35.4735202 L115.021703,35.4735202 C117.746353,44.3970702 122.862245,49.1892532 129.583435,49.1892532 C133.418719,49.1892532 135.597132,47.2379278 135.597132,44.0445867 C135.597132,39.1662732 132.024797,37.8359557 125.835316,35.2636224 C117.032322,31.6258771 112.238217,28.7879146 112.238217,21.3372678 C112.238217,12.2009249 119.647289,6.08059569 131.588243,6.08059569 Z M261.612515,7.29814747 C272.387758,7.29814747 279.667326,14.2114298 279.826015,25.3709875 L279.828663,25.7445418 L255.162264,25.7445418 C255.5102,36.0888825 262.919272,43.1566468 271.374331,43.1566468 C273.567484,43.1566468 275.488464,42.6527119 277.197224,41.5929474 L277.515144,41.3877153 L279.653605,43.5026162 C274.772334,49.2776998 268.409975,52.2937135 261.350292,52.2937135 C254.900041,52.2937135 249.060676,49.6214979 244.963895,44.7938493 C241.564438,40.8296768 239.909019,36.0027521 239.909019,30.4860598 C239.909019,24.8832372 241.477273,19.9694582 244.876729,15.4870553 C248.44979,10.6601306 255.162264,7.29814747 261.612515,7.29814747 Z M193.628905,6.8984008 C194.353832,6.52565133 195.218224,7.04967194 195.218224,7.86320672 L195.218224,7.86320672 L195.218224,42.1214166 C195.218224,46.7442338 196.769771,48.7310247 200.797142,48.6448942 L200.797142,48.6448942 L200.797142,51.0746418 L180.313641,51.0746418 L180.313641,45.8293691 C177.00135,50.5325265 172.295137,52.2934964 166.279987,52.2934964 C157.389827,52.2934964 152.857945,47.3196432 152.857945,37.3719369 L152.857945,37.3719369 L152.855766,20.5345175 C152.853587,19.5755018 152.330593,18.6997215 151.503973,18.2705168 L151.503973,18.2705168 L147.972316,17.0256059 L167.654297,6.8984008 C168.37995,6.52565133 169.243616,7.04967194 169.243616,7.86320672 L169.243616,7.86320672 L169.243616,36.8290978 C169.243616,42.6172096 170.290329,45.3299572 174.212052,45.3299572 C177.78584,45.3299572 178.918992,42.5267364 178.918992,36.8290978 L178.918992,36.8290978 L178.830374,20.5345175 C178.828195,19.5755018 178.305201,18.6997215 177.478581,18.2705168 L177.478581,18.2705168 L173.946197,17.0256059 Z M54.011846,0.000291807562 L54.011846,2.4322107 C48.5204162,2.7789039 47.2136593,4.51671261 47.2136593,9.90095209 L47.2136593,41.1764424 C47.2136593,46.5614056 48.5204162,48.2984906 54.011846,48.6459075 L54.011846,51.0778264 L21.2390513,51.0778264 L21.2390513,48.6459075 C26.7297547,48.2984906 28.0372379,46.5614056 28.0372379,41.1764424 L28.0372379,9.90095209 C28.0372379,4.51671261 26.7297547,2.7789039 21.2390513,2.4322107 L21.2390513,0.000291807562 L54.011846,0.000291807562 Z M233.922271,6.43705999 C238.106218,6.43705999 240.895515,9.19974881 240.895515,13.387571 C240.895515,17.0405159 238.629211,19.4463785 235.05615,19.4463785 C230.959369,19.4463785 229.477554,15.5263569 227.733517,15.5263569 C225.342006,15.5263569 225.132189,18.6580104 225.119928,25.1029297 L225.119277,42.2557511 C225.119277,46.8025709 226.752905,48.6576329 231.130794,48.5801878 C231.131521,48.5809116 231.132247,48.5816354 231.132974,48.5823592 L231.132974,51.0779712 L203.24145,51.0779712 L203.24145,48.5823592 C203.242176,48.5816354 203.242902,48.5809116 203.244355,48.579464 C207.275762,48.6641469 208.732879,46.8098088 208.732879,42.2557511 L208.732879,25.8612884 C208.732879,23.4561495 208.471383,22.2973691 206.292244,20.7824863 L200.818247,17.0260402 L222.43022,6.81559975 C223.152967,6.47469683 223.986125,6.99944124 223.986125,7.79705273 L223.986125,13.7436735 C226.775422,8.93194822 230.087713,6.43705999 233.922271,6.43705999 Z M90.4479909,7.32297331 C99.7739786,7.32297331 104.306587,12.0485681 104.306587,21.7624917 L104.306587,42.4135363 C104.306587,46.88653 105.763705,48.7068503 109.794385,48.6243387 C109.795838,48.6250625 109.796564,48.6257863 109.797291,48.6265101 L109.797291,51.0779712 L87.9194635,51.0779712 L87.9194635,22.1989343 C87.9194635,16.5990068 86.8742033,13.9738372 82.9510271,13.9738372 C79.3772395,13.9738372 78.3319792,16.685861 78.3319792,22.1989343 L78.3319792,42.4135363 C78.3319792,46.7019648 79.726628,48.5396558 83.3875812,48.6265101 L83.3875812,51.0779712 L56.4541521,51.0779712 L56.4541521,48.6265101 C56.4548785,48.6257863 56.4556049,48.6250625 56.4570576,48.6243387 C60.4884644,48.7068503 61.9455819,46.88653 61.9455819,42.4135363 L61.9455819,25.7766055 C61.9455819,23.41417 61.6840852,22.2763794 59.5049464,20.7882766 L54.0120639,17.0260402 L75.3320315,7.94325738 C76.0511473,7.63709616 76.8501648,8.16328814 76.8501648,8.94208121 L76.8501648,14.1482695 C80.2496213,9.59783077 84.78223,7.32297331 90.4479909,7.32297331 Z M261.960451,10.4878697 C257.159201,10.4878697 255.14158,14.3245352 255.076718,22.3243431 L255.075099,22.7278043 L259.614638,22.7273133 C265.257244,22.716432 267.451881,22.4811682 267.451881,17.98701 C267.451881,12.9871006 265.621404,10.4878697 261.960451,10.4878697 Z"/>
      <g transform="translate(-5.125 28.451)">
        <path fill="#212446" d="M13.1313403,-8.8817842e-15 C20.3835313,-8.8817842e-15 26.2626806,5.87914923 26.2626806,13.1313403 L22.615086,13.1313403 L22.615086,13.1313403 C22.615086,7.89343691 18.3692437,3.64759452 13.1313403,3.64759452 C7.89343691,3.64759452 3.64759452,7.89343691 3.64759452,13.1313403 L4.36983782e-13,13.1313403 C4.36983782e-13,5.87914923 5.87914923,-8.8817842e-15 13.1313403,-8.8817842e-15 Z"/>
        <path fill="#98012E" d="M22.615086,13.1313403 C22.615086,7.89343691 18.3692437,3.64759452 13.1313403,3.64759452 C7.89343691,3.64759452 3.64759452,7.89343691 3.64759452,13.1313403 C3.64759452,18.3692437 7.89343691,22.615086 13.1313403,22.615086 C18.3692437,22.615086 22.615086,18.3692437 22.615086,13.1313403 Z" opacity=".5"/>
        <path fill="#98012E" d="M22.615086,13.1313403 C22.615086,7.89343691 18.3692437,3.64759452 13.1313403,3.64759452 C7.89343691,3.64759452 3.64759452,7.89343691 3.64759452,13.1313403 L22.615086,13.1313403 Z"/>
      </g>
    </g>
    <path fill="#98012E" d="M22.8118292,1.87504596 L22.8118292,6.77918316 L13.9954157,6.77918316 L13.9954157,32.1526338 L8.8164135,32.1526338 L8.8164135,6.77918316 L3.73034936e-13,6.77918316 L3.73034936e-13,1.87504596 L22.8118292,1.87504596 Z M28.7603637,21.1084428 C28.7603637,23.2122252 29.365856,24.9177545 30.5790694,26.225031 C31.7915398,27.5337879 33.3249584,28.1874261 35.1800679,28.1874261 C37.0634089,28.1874261 38.6102003,27.5337879 39.8234137,26.225031 C41.0358841,24.9177545 41.6421193,23.2122252 41.6421193,21.1084428 C41.6421193,18.9757909 41.0358841,17.2554566 39.8234137,15.9481801 C38.6102003,14.641644 37.0634089,13.9865253 35.1800679,13.9865253 C33.3249584,13.9865253 31.7915398,14.641644 30.5790694,15.9481801 C29.365856,17.2554566 28.7603637,18.9757909 28.7603637,21.1084428 Z M35.1800679,32.6644407 C31.755879,32.6644407 28.9810155,31.5414858 26.8554775,29.2963163 C24.7299396,27.0504065 23.6675421,24.3211154 23.6675421,21.1084428 C23.6675421,17.8957703 24.7299396,15.1590767 26.8554775,12.8991022 C28.9810155,10.6391278 31.755879,9.50877041 35.1800679,9.50877041 C38.6317454,9.50877041 41.4214675,10.6391278 43.5470055,12.8991022 C45.6725435,15.1590767 46.7356839,17.8957703 46.7356839,21.1084428 C46.7356839,24.3211154 45.6725435,27.0504065 43.5470055,29.2963163 C41.4214675,31.5414858 38.6317454,32.6644407 35.1800679,32.6644407 Z M64.7104098,22.7711119 L64.7104098,10.0203552 L69.8032314,10.0203552 L69.8032314,32.153004 L65.0959932,32.153004 L65.0959932,29.2956501 C64.581882,30.2616725 63.7475656,31.0655809 62.5915582,31.7044142 C61.4362938,32.3439877 60.0165444,32.6645147 58.3337959,32.6645147 C55.7082624,32.6645147 53.6904501,31.8754113 52.2773871,30.2979447 C50.865067,28.7189975 50.1592785,26.608553 50.1592785,23.9651305 L50.1592785,10.0203552 L55.2521001,10.0203552 L55.2521001,23.2826227 C55.2521001,26.6374226 56.6926517,28.3140824 59.5744979,28.3140824 C61.1725517,28.3140824 62.4273695,27.8388437 63.34118,26.8861457 C64.2535045,25.9341879 64.7104098,24.5625099 64.7104098,22.7711119 Z M86.8798227,9.85002433 L86.8798227,14.5839047 C86.4793806,14.5269057 86.0945401,14.498036 85.7238154,14.498036 C81.8999273,14.498036 79.9890976,16.5455596 79.9890976,20.6383859 L79.9890976,32.1529299 L74.896276,32.1529299 L74.896276,10.0202812 L79.6042571,10.0202812 L79.6042571,13.0915665 C80.8590749,10.9026557 83.0418189,9.80634975 86.1524891,9.80634975 L86.8798227,9.85002433 Z M89.4904975,32.1526338 L89.4904975,10.0207253 L94.5833191,10.0207253 L94.5833191,32.1526338 L89.4904975,32.1526338 Z M92.058082,6.31060673 C91.1167829,6.31060673 90.346359,6.01894936 89.7468102,5.43637488 C89.1480043,4.85306014 88.8486014,4.10763129 88.8486014,3.19786758 C88.8486014,2.25923422 89.1480043,1.49159795 89.7468102,0.894958773 C90.346359,0.297579344 91.1167829,4.19220214e-13 92.058082,4.19220214e-13 C92.9711495,4.19220214e-13 93.7274576,0.297579344 94.3262635,0.894958773 C94.9258123,1.49159795 95.2252153,2.25923422 95.2252153,3.19786758 C95.2252153,4.10763129 94.9258123,4.85306014 94.3262635,5.43637488 C93.7274576,6.01894936 92.9711495,6.31060673 92.058082,6.31060673 Z M107.293902,32.6646628 C104.240438,32.6646628 101.944025,31.9532853 100.403177,30.5320108 C98.8623294,29.1107363 98.0205837,27.2904686 97.8779401,25.0741688 L102.799887,25.0741688 C102.85635,26.09645 103.299139,26.9218256 104.126769,27.5465941 C104.953656,28.1728432 106.109664,28.4852275 107.593305,28.4852275 C108.905329,28.4852275 109.918693,28.2579716 110.631911,27.8027197 C111.345129,27.3482079 111.701738,26.7352833 111.701738,25.9691275 C111.701738,25.1163628 111.266378,24.4827113 110.3964,24.0711339 C109.52568,23.6588163 108.469969,23.3220038 107.229267,23.0614368 C105.987079,22.8030906 104.731519,22.5395626 103.462585,22.2738139 C102.193651,22.0088054 101.123082,21.3914393 100.253104,20.4261571 C99.3831271,19.4586541 98.9485099,18.137313 98.9485099,16.459913 C98.9485099,14.5271277 99.7538518,12.8845194 101.366021,11.5343086 C102.977448,10.1840979 105.111158,9.50899248 107.764181,9.50899248 C109.276054,9.50899248 110.610366,9.74291057 111.766373,10.2129675 C112.921638,10.6815439 113.820589,11.3003905 114.462485,12.0680268 C115.104382,12.8356631 115.589518,13.6181043 115.917153,14.4131297 C116.24553,15.2096356 116.43795,16.0194659 116.495156,16.843361 L111.6163,16.843361 C111.530863,15.9632072 111.151966,15.2096356 110.482581,14.5833865 C109.81171,13.9586179 108.862239,13.6454934 107.635653,13.6454934 C106.409066,13.6454934 105.467767,13.872009 104.811756,14.3250403 C104.155001,14.7773313 103.826623,15.4006193 103.826623,16.1971252 C103.826623,16.9373724 104.267927,17.4999602 105.150534,17.8826679 C106.033141,18.2675964 107.094796,18.5970064 108.336241,18.8701576 C109.577686,19.1447893 110.833246,19.422382 112.102923,19.7029356 C113.371856,19.9834893 114.43574,20.6371275 115.29383,21.6638503 C116.15192,22.6898328 116.580594,24.053368 116.580594,25.7566766 C116.580594,27.7457206 115.774509,29.3957315 114.163082,30.7030079 C112.550913,32.0110246 110.261186,32.6646628 107.293902,32.6646628 Z M139.435291,19.4442933 L139.435291,32.1528559 L134.342469,32.1528559 L134.342469,18.8905884 C134.342469,15.5365287 132.944265,13.8576482 130.148599,13.8576482 C128.63524,13.8576482 127.430199,14.3417699 126.531247,15.3077923 C125.633038,16.2752953 125.183562,17.5966365 125.183562,19.2740364 L125.183562,32.1528559 L120.090741,32.1528559 L120.090741,10.0209474 L124.797979,10.0209474 L124.797979,12.9626895 C125.339579,11.9677973 126.167951,11.1439023 127.280869,10.4887836 C128.393786,9.83588561 129.777131,9.50869638 131.432391,9.50869638 C134.513344,9.50869638 136.739178,10.6738454 138.108408,13.006364 C139.991749,10.6738454 142.502128,9.50869638 145.641029,9.50869638 C148.236845,9.50869638 150.234598,10.3126048 151.632803,11.9174605 C153.030264,13.5252773 153.730109,15.6357218 153.730109,18.2502747 L153.730109,32.1528559 L148.637287,32.1528559 L148.637287,18.8905884 C148.637287,15.5365287 147.23834,13.8576482 144.442675,13.8576482 C142.90257,13.8576482 141.681927,14.3491723 140.783718,15.3292595 C139.884766,16.310087 139.435291,17.6817649 139.435291,19.4442933 Z" transform="translate(35.867 8.17)"/>
  </g>
</svg>
