<?xml version="1.0" encoding="UTF-8"?>
<svg width="140px" height="140px" viewBox="0 0 140 140" version="1.1" xmlns="http://www.w3.org/2000/svg" xmlns:xlink="http://www.w3.org/1999/xlink">
    <!-- Generator: Sketch 64 (93537) - https://sketch.com -->
    <title>icons/avatar-confetti-pattern</title>
    <desc>Created with Sketch.</desc>
    <g id="icons/avatar-confetti-pattern" stroke="none" stroke-width="1" fill="none" fill-rule="evenodd">
        <path d="M115.696609,34 C111.318689,37.819404 110.747708,44.605143 114.421136,49.1565326 C118.094969,53.7083442 124.62208,54.3019487 129,50.4829665" id="Path" fill="#FB7268" fill-rule="nonzero" opacity="0.2"></path>
        <path d="M32.2989926,77.4584509 L32.2295753,77.4713599 C18.8205652,80.0912336 10.0158479,92.9624494 12.3849426,106.362047 L12.4650034,106.790838 C15.054109,120.179351 27.9103131,128.979907 41.2952514,126.616589 L41.7704247,126.52864 C55.1794348,123.908766 63.9841521,111.037551 61.6150574,97.6379525 L61.5349966,97.2091617 C58.918124,83.6854111 45.8273037,74.8427726 32.2989926,77.4584509 Z" id="Path-Copy" fill="#1E8985" fill-rule="nonzero" style="mix-blend-mode: multiply;" opacity="0.1"></path>
        <circle id="Oval" fill-opacity="0.124399038" fill="#523861" cx="99.5" cy="25.5" r="5.5"></circle>
        <path d="M18.7761194,14.5746269 C18.7761194,15.0073873 18.4252978,15.358209 17.9925373,15.358209 C17.5597769,15.358209 17.2089552,15.0073873 17.2089552,14.5746269 C17.2089552,14.1418664 17.5597769,13.7910448 17.9925373,13.7910448 C18.4252978,13.7910448 18.7761194,14.1418664 18.7761194,14.5746269 Z M18.7761194,70.9925373 C18.7761194,71.4252978 18.4252978,71.7761194 17.9925373,71.7761194 C17.5597769,71.7761194 17.2089552,71.4252978 17.2089552,70.9925373 C17.2089552,70.5597769 17.5597769,70.2089552 17.9925373,70.2089552 C18.4252978,70.2089552 18.7761194,70.5597769 18.7761194,70.9925373 Z M18.7761194,23.9776119 C18.7761194,24.4103724 18.4252978,24.761194 17.9925373,24.761194 C17.5597769,24.761194 17.2089552,24.4103724 17.2089552,23.9776119 C17.2089552,23.5448515 17.5597769,23.1940299 17.9925373,23.1940299 C18.4252978,23.1940299 18.7761194,23.5448515 18.7761194,23.9776119 Z M18.7761194,80.3955224 C18.7761194,80.8282828 18.4252978,81.1791045 17.9925373,81.1791045 C17.5597769,81.1791045 17.2089552,80.8282828 17.2089552,80.3955224 C17.2089552,79.9627619 17.5597769,79.6119403 17.9925373,79.6119403 C18.4252978,79.6119403 18.7761194,79.9627619 18.7761194,80.3955224 Z M18.7761194,99.2014925 C18.7761194,99.634253 18.4252978,99.9850746 17.9925373,99.9850746 C17.5597769,99.9850746 17.2089552,99.634253 17.2089552,99.2014925 C17.2089552,98.7687321 17.5597769,98.4179104 17.9925373,98.4179104 C18.4252978,98.4179104 18.7761194,98.7687321 18.7761194,99.2014925 Z M18.7761194,42.7835821 C18.7761194,43.2163425 18.4252978,43.5671642 17.9925373,43.5671642 C17.5597769,43.5671642 17.2089552,43.2163425 17.2089552,42.7835821 C17.2089552,42.3508217 17.5597769,42 17.9925373,42 C18.4252978,42 18.7761194,42.3508217 18.7761194,42.7835821 Z M18.7761194,52.1865672 C18.7761194,52.6193276 18.4252978,52.9701493 17.9925373,52.9701493 C17.5597769,52.9701493 17.2089552,52.6193276 17.2089552,52.1865672 C17.2089552,51.7538067 17.5597769,51.4029851 17.9925373,51.4029851 C18.4252978,51.4029851 18.7761194,51.7538067 18.7761194,52.1865672 Z M18.7761194,61.5895522 C18.7761194,62.0223127 18.4252978,62.3731343 17.9925373,62.3731343 C17.5597769,62.3731343 17.2089552,62.0223127 17.2089552,61.5895522 C17.2089552,61.1567918 17.5597769,60.8059701 17.9925373,60.8059701 C18.4252978,60.8059701 18.7761194,61.1567918 18.7761194,61.5895522 Z M18.7761194,89.7985075 C18.7761194,90.2312679 18.4252978,90.5820896 17.9925373,90.5820896 C17.5597769,90.5820896 17.2089552,90.2312679 17.2089552,89.7985075 C17.2089552,89.365747 17.5597769,89.0149254 17.9925373,89.0149254 C18.4252978,89.0149254 18.7761194,89.365747 18.7761194,89.7985075 Z M18.7761194,33.380597 C18.7761194,33.8133575 18.4252978,34.1641791 17.9925373,34.1641791 C17.5597769,34.1641791 17.2089552,33.8133575 17.2089552,33.380597 C17.2089552,32.9478366 17.5597769,32.5970149 17.9925373,32.5970149 C18.4252978,32.5970149 18.7761194,32.9478366 18.7761194,33.380597 Z M18.7761194,118.007463 C18.7761194,118.440223 18.4252978,118.791045 17.9925373,118.791045 C17.5597769,118.791045 17.2089552,118.440223 17.2089552,118.007463 C17.2089552,117.574702 17.5597769,117.223881 17.9925373,117.223881 C18.4252978,117.223881 18.7761194,117.574702 18.7761194,118.007463 Z M18.7761194,108.604478 C18.7761194,109.037238 18.4252978,109.38806 17.9925373,109.38806 C17.5597769,109.38806 17.2089552,109.037238 17.2089552,108.604478 C17.2089552,108.171717 17.5597769,107.820896 17.9925373,107.820896 C18.4252978,107.820896 18.7761194,108.171717 18.7761194,108.604478 Z M28.1791045,80.3955224 C28.1791045,80.8282828 27.8282828,81.1791045 27.3955224,81.1791045 C26.9627619,81.1791045 26.6119403,80.8282828 26.6119403,80.3955224 C26.6119403,79.9627619 26.9627619,79.6119403 27.3955224,79.6119403 C27.8282828,79.6119403 28.1791045,79.9627619 28.1791045,80.3955224 Z M28.1791045,70.9925373 C28.1791045,71.4252978 27.8282828,71.7761194 27.3955224,71.7761194 C26.9627619,71.7761194 26.6119403,71.4252978 26.6119403,70.9925373 C26.6119403,70.5597769 26.9627619,70.2089552 27.3955224,70.2089552 C27.8282828,70.2089552 28.1791045,70.5597769 28.1791045,70.9925373 Z M28.1791045,52.1865672 C28.1791045,52.6193276 27.8282828,52.9701493 27.3955224,52.9701493 C26.9627619,52.9701493 26.6119403,52.6193276 26.6119403,52.1865672 C26.6119403,51.7538067 26.9627619,51.4029851 27.3955224,51.4029851 C27.8282828,51.4029851 28.1791045,51.7538067 28.1791045,52.1865672 Z M28.1791045,23.9776119 C28.1791045,24.4103724 27.8282828,24.761194 27.3955224,24.761194 C26.9627619,24.761194 26.6119403,24.4103724 26.6119403,23.9776119 C26.6119403,23.5448515 26.9627619,23.1940299 27.3955224,23.1940299 C27.8282828,23.1940299 28.1791045,23.5448515 28.1791045,23.9776119 Z M28.1791045,14.5746269 C28.1791045,15.0073873 27.8282828,15.358209 27.3955224,15.358209 C26.9627619,15.358209 26.6119403,15.0073873 26.6119403,14.5746269 C26.6119403,14.1418664 26.9627619,13.7910448 27.3955224,13.7910448 C27.8282828,13.7910448 28.1791045,14.1418664 28.1791045,14.5746269 Z M28.1791045,99.2014925 C28.1791045,99.634253 27.8282828,99.9850746 27.3955224,99.9850746 C26.9627619,99.9850746 26.6119403,99.634253 26.6119403,99.2014925 C26.6119403,98.7687321 26.9627619,98.4179104 27.3955224,98.4179104 C27.8282828,98.4179104 28.1791045,98.7687321 28.1791045,99.2014925 Z M28.1791045,33.380597 C28.1791045,33.8133575 27.8282828,34.1641791 27.3955224,34.1641791 C26.9627619,34.1641791 26.6119403,33.8133575 26.6119403,33.380597 C26.6119403,32.9478366 26.9627619,32.5970149 27.3955224,32.5970149 C27.8282828,32.5970149 28.1791045,32.9478366 28.1791045,33.380597 Z M28.1791045,42.7835821 C28.1791045,43.2163425 27.8282828,43.5671642 27.3955224,43.5671642 C26.9627619,43.5671642 26.6119403,43.2163425 26.6119403,42.7835821 C26.6119403,42.3508217 26.9627619,42 27.3955224,42 C27.8282828,42 28.1791045,42.3508217 28.1791045,42.7835821 Z M28.1791045,108.604478 C28.1791045,109.037238 27.8282828,109.38806 27.3955224,109.38806 C26.9627619,109.38806 26.6119403,109.037238 26.6119403,108.604478 C26.6119403,108.171717 26.9627619,107.820896 27.3955224,107.820896 C27.8282828,107.820896 28.1791045,108.171717 28.1791045,108.604478 Z M28.1791045,89.7985075 C28.1791045,90.2312679 27.8282828,90.5820896 27.3955224,90.5820896 C26.9627619,90.5820896 26.6119403,90.2312679 26.6119403,89.7985075 C26.6119403,89.365747 26.9627619,89.0149254 27.3955224,89.0149254 C27.8282828,89.0149254 28.1791045,89.365747 28.1791045,89.7985075 Z M28.1791045,118.007463 C28.1791045,118.440223 27.8282828,118.791045 27.3955224,118.791045 C26.9627619,118.791045 26.6119403,118.440223 26.6119403,118.007463 C26.6119403,117.574702 26.9627619,117.223881 27.3955224,117.223881 C27.8282828,117.223881 28.1791045,117.574702 28.1791045,118.007463 Z M28.1791045,61.5895522 C28.1791045,62.0223127 27.8282828,62.3731343 27.3955224,62.3731343 C26.9627619,62.3731343 26.6119403,62.0223127 26.6119403,61.5895522 C26.6119403,61.1567918 26.9627619,60.8059701 27.3955224,60.8059701 C27.8282828,60.8059701 28.1791045,61.1567918 28.1791045,61.5895522 Z M37.5820896,33.380597 C37.5820896,33.8133575 37.2312679,34.1641791 36.7985075,34.1641791 C36.365747,34.1641791 36.0149254,33.8133575 36.0149254,33.380597 C36.0149254,32.9478366 36.365747,32.5970149 36.7985075,32.5970149 C37.2312679,32.5970149 37.5820896,32.9478366 37.5820896,33.380597 Z M37.5820896,80.3955224 C37.5820896,80.8282828 37.2312679,81.1791045 36.7985075,81.1791045 C36.365747,81.1791045 36.0149254,80.8282828 36.0149254,80.3955224 C36.0149254,79.9627619 36.365747,79.6119403 36.7985075,79.6119403 C37.2312679,79.6119403 37.5820896,79.9627619 37.5820896,80.3955224 Z M37.5820896,108.604478 C37.5820896,109.037238 37.2312679,109.38806 36.7985075,109.38806 C36.365747,109.38806 36.0149254,109.037238 36.0149254,108.604478 C36.0149254,108.171717 36.365747,107.820896 36.7985075,107.820896 C37.2312679,107.820896 37.5820896,108.171717 37.5820896,108.604478 Z M37.5820896,89.7985075 C37.5820896,90.2312679 37.2312679,90.5820896 36.7985075,90.5820896 C36.365747,90.5820896 36.0149254,90.2312679 36.0149254,89.7985075 C36.0149254,89.365747 36.365747,89.0149254 36.7985075,89.0149254 C37.2312679,89.0149254 37.5820896,89.365747 37.5820896,89.7985075 Z M37.5820896,118.007463 C37.5820896,118.440223 37.2312679,118.791045 36.7985075,118.791045 C36.365747,118.791045 36.0149254,118.440223 36.0149254,118.007463 C36.0149254,117.574702 36.365747,117.223881 36.7985075,117.223881 C37.2312679,117.223881 37.5820896,117.574702 37.5820896,118.007463 Z M37.5820896,42.7835821 C37.5820896,43.2163425 37.2312679,43.5671642 36.7985075,43.5671642 C36.365747,43.5671642 36.0149254,43.2163425 36.0149254,42.7835821 C36.0149254,42.3508217 36.365747,42 36.7985075,42 C37.2312679,42 37.5820896,42.3508217 37.5820896,42.7835821 Z M37.5820896,99.2014925 C37.5820896,99.634253 37.2312679,99.9850746 36.7985075,99.9850746 C36.365747,99.9850746 36.0149254,99.634253 36.0149254,99.2014925 C36.0149254,98.7687321 36.365747,98.4179104 36.7985075,98.4179104 C37.2312679,98.4179104 37.5820896,98.7687321 37.5820896,99.2014925 Z M37.5820896,14.5746269 C37.5820896,15.0073873 37.2312679,15.358209 36.7985075,15.358209 C36.365747,15.358209 36.0149254,15.0073873 36.0149254,14.5746269 C36.0149254,14.1418664 36.365747,13.7910448 36.7985075,13.7910448 C37.2312679,13.7910448 37.5820896,14.1418664 37.5820896,14.5746269 Z M37.5820896,70.9925373 C37.5820896,71.4252978 37.2312679,71.7761194 36.7985075,71.7761194 C36.365747,71.7761194 36.0149254,71.4252978 36.0149254,70.9925373 C36.0149254,70.5597769 36.365747,70.2089552 36.7985075,70.2089552 C37.2312679,70.2089552 37.5820896,70.5597769 37.5820896,70.9925373 Z M37.5820896,23.9776119 C37.5820896,24.4103724 37.2312679,24.761194 36.7985075,24.761194 C36.365747,24.761194 36.0149254,24.4103724 36.0149254,23.9776119 C36.0149254,23.5448515 36.365747,23.1940299 36.7985075,23.1940299 C37.2312679,23.1940299 37.5820896,23.5448515 37.5820896,23.9776119 Z M37.5820896,52.1865672 C37.5820896,52.6193276 37.2312679,52.9701493 36.7985075,52.9701493 C36.365747,52.9701493 36.0149254,52.6193276 36.0149254,52.1865672 C36.0149254,51.7538067 36.365747,51.4029851 36.7985075,51.4029851 C37.2312679,51.4029851 37.5820896,51.7538067 37.5820896,52.1865672 Z M37.5820896,61.5895522 C37.5820896,62.0223127 37.2312679,62.3731343 36.7985075,62.3731343 C36.365747,62.3731343 36.0149254,62.0223127 36.0149254,61.5895522 C36.0149254,61.1567918 36.365747,60.8059701 36.7985075,60.8059701 C37.2312679,60.8059701 37.5820896,61.1567918 37.5820896,61.5895522 Z M46.9850746,118.007463 C46.9850746,118.440223 46.634253,118.791045 46.2014925,118.791045 C45.7687321,118.791045 45.4179104,118.440223 45.4179104,118.007463 C45.4179104,117.574702 45.7687321,117.223881 46.2014925,117.223881 C46.634253,117.223881 46.9850746,117.574702 46.9850746,118.007463 Z M46.9850746,33.380597 C46.9850746,33.8133575 46.634253,34.1641791 46.2014925,34.1641791 C45.7687321,34.1641791 45.4179104,33.8133575 45.4179104,33.380597 C45.4179104,32.9478366 45.7687321,32.5970149 46.2014925,32.5970149 C46.634253,32.5970149 46.9850746,32.9478366 46.9850746,33.380597 Z M46.9850746,89.7985075 C46.9850746,90.2312679 46.634253,90.5820896 46.2014925,90.5820896 C45.7687321,90.5820896 45.4179104,90.2312679 45.4179104,89.7985075 C45.4179104,89.365747 45.7687321,89.0149254 46.2014925,89.0149254 C46.634253,89.0149254 46.9850746,89.365747 46.9850746,89.7985075 Z M46.9850746,14.5746269 C46.9850746,15.0073873 46.634253,15.358209 46.2014925,15.358209 C45.7687321,15.358209 45.4179104,15.0073873 45.4179104,14.5746269 C45.4179104,14.1418664 45.7687321,13.7910448 46.2014925,13.7910448 C46.634253,13.7910448 46.9850746,14.1418664 46.9850746,14.5746269 Z M46.9850746,61.5895522 C46.9850746,62.0223127 46.634253,62.3731343 46.2014925,62.3731343 C45.7687321,62.3731343 45.4179104,62.0223127 45.4179104,61.5895522 C45.4179104,61.1567918 45.7687321,60.8059701 46.2014925,60.8059701 C46.634253,60.8059701 46.9850746,61.1567918 46.9850746,61.5895522 Z M46.9850746,70.9925373 C46.9850746,71.4252978 46.634253,71.7761194 46.2014925,71.7761194 C45.7687321,71.7761194 45.4179104,71.4252978 45.4179104,70.9925373 C45.4179104,70.5597769 45.7687321,70.2089552 46.2014925,70.2089552 C46.634253,70.2089552 46.9850746,70.5597769 46.9850746,70.9925373 Z M46.9850746,42.7835821 C46.9850746,43.2163425 46.634253,43.5671642 46.2014925,43.5671642 C45.7687321,43.5671642 45.4179104,43.2163425 45.4179104,42.7835821 C45.4179104,42.3508217 45.7687321,42 46.2014925,42 C46.634253,42 46.9850746,42.3508217 46.9850746,42.7835821 Z M46.9850746,99.2014925 C46.9850746,99.634253 46.634253,99.9850746 46.2014925,99.9850746 C45.7687321,99.9850746 45.4179104,99.634253 45.4179104,99.2014925 C45.4179104,98.7687321 45.7687321,98.4179104 46.2014925,98.4179104 C46.634253,98.4179104 46.9850746,98.7687321 46.9850746,99.2014925 Z M46.9850746,108.604478 C46.9850746,109.037238 46.634253,109.38806 46.2014925,109.38806 C45.7687321,109.38806 45.4179104,109.037238 45.4179104,108.604478 C45.4179104,108.171717 45.7687321,107.820896 46.2014925,107.820896 C46.634253,107.820896 46.9850746,108.171717 46.9850746,108.604478 Z M46.9850746,23.9776119 C46.9850746,24.4103724 46.634253,24.761194 46.2014925,24.761194 C45.7687321,24.761194 45.4179104,24.4103724 45.4179104,23.9776119 C45.4179104,23.5448515 45.7687321,23.1940299 46.2014925,23.1940299 C46.634253,23.1940299 46.9850746,23.5448515 46.9850746,23.9776119 Z M46.9850746,52.1865672 C46.9850746,52.6193276 46.634253,52.9701493 46.2014925,52.9701493 C45.7687321,52.9701493 45.4179104,52.6193276 45.4179104,52.1865672 C45.4179104,51.7538067 45.7687321,51.4029851 46.2014925,51.4029851 C46.634253,51.4029851 46.9850746,51.7538067 46.9850746,52.1865672 Z M46.9850746,80.3955224 C46.9850746,80.8282828 46.634253,81.1791045 46.2014925,81.1791045 C45.7687321,81.1791045 45.4179104,80.8282828 45.4179104,80.3955224 C45.4179104,79.9627619 45.7687321,79.6119403 46.2014925,79.6119403 C46.634253,79.6119403 46.9850746,79.9627619 46.9850746,80.3955224 Z M56.3880597,70.9925373 C56.3880597,71.4252978 56.0372381,71.7761194 55.6044776,71.7761194 C55.1717172,71.7761194 54.8208955,71.4252978 54.8208955,70.9925373 C54.8208955,70.5597769 55.1717172,70.2089552 55.6044776,70.2089552 C56.0372381,70.2089552 56.3880597,70.5597769 56.3880597,70.9925373 Z M56.3880597,118.007463 C56.3880597,118.440223 56.0372381,118.791045 55.6044776,118.791045 C55.1717172,118.791045 54.8208955,118.440223 54.8208955,118.007463 C54.8208955,117.574702 55.1717172,117.223881 55.6044776,117.223881 C56.0372381,117.223881 56.3880597,117.574702 56.3880597,118.007463 Z M56.3880597,108.604478 C56.3880597,109.037238 56.0372381,109.38806 55.6044776,109.38806 C55.1717172,109.38806 54.8208955,109.037238 54.8208955,108.604478 C54.8208955,108.171717 55.1717172,107.820896 55.6044776,107.820896 C56.0372381,107.820896 56.3880597,108.171717 56.3880597,108.604478 Z M56.3880597,61.5895522 C56.3880597,62.0223127 56.0372381,62.3731343 55.6044776,62.3731343 C55.1717172,62.3731343 54.8208955,62.0223127 54.8208955,61.5895522 C54.8208955,61.1567918 55.1717172,60.8059701 55.6044776,60.8059701 C56.0372381,60.8059701 56.3880597,61.1567918 56.3880597,61.5895522 Z M56.3880597,33.380597 C56.3880597,33.8133575 56.0372381,34.1641791 55.6044776,34.1641791 C55.1717172,34.1641791 54.8208955,33.8133575 54.8208955,33.380597 C54.8208955,32.9478366 55.1717172,32.5970149 55.6044776,32.5970149 C56.0372381,32.5970149 56.3880597,32.9478366 56.3880597,33.380597 Z M56.3880597,52.1865672 C56.3880597,52.6193276 56.0372381,52.9701493 55.6044776,52.9701493 C55.1717172,52.9701493 54.8208955,52.6193276 54.8208955,52.1865672 C54.8208955,51.7538067 55.1717172,51.4029851 55.6044776,51.4029851 C56.0372381,51.4029851 56.3880597,51.7538067 56.3880597,52.1865672 Z M56.3880597,89.7985075 C56.3880597,90.2312679 56.0372381,90.5820896 55.6044776,90.5820896 C55.1717172,90.5820896 54.8208955,90.2312679 54.8208955,89.7985075 C54.8208955,89.365747 55.1717172,89.0149254 55.6044776,89.0149254 C56.0372381,89.0149254 56.3880597,89.365747 56.3880597,89.7985075 Z M56.3880597,80.3955224 C56.3880597,80.8282828 56.0372381,81.1791045 55.6044776,81.1791045 C55.1717172,81.1791045 54.8208955,80.8282828 54.8208955,80.3955224 C54.8208955,79.9627619 55.1717172,79.6119403 55.6044776,79.6119403 C56.0372381,79.6119403 56.3880597,79.9627619 56.3880597,80.3955224 Z M56.3880597,23.9776119 C56.3880597,24.4103724 56.0372381,24.761194 55.6044776,24.761194 C55.1717172,24.761194 54.8208955,24.4103724 54.8208955,23.9776119 C54.8208955,23.5448515 55.1717172,23.1940299 55.6044776,23.1940299 C56.0372381,23.1940299 56.3880597,23.5448515 56.3880597,23.9776119 Z M56.3880597,42.7835821 C56.3880597,43.2163425 56.0372381,43.5671642 55.6044776,43.5671642 C55.1717172,43.5671642 54.8208955,43.2163425 54.8208955,42.7835821 C54.8208955,42.3508217 55.1717172,42 55.6044776,42 C56.0372381,42 56.3880597,42.3508217 56.3880597,42.7835821 Z M56.3880597,14.5746269 C56.3880597,15.0073873 56.0372381,15.358209 55.6044776,15.358209 C55.1717172,15.358209 54.8208955,15.0073873 54.8208955,14.5746269 C54.8208955,14.1418664 55.1717172,13.7910448 55.6044776,13.7910448 C56.0372381,13.7910448 56.3880597,14.1418664 56.3880597,14.5746269 Z M56.3880597,99.2014925 C56.3880597,99.634253 56.0372381,99.9850746 55.6044776,99.9850746 C55.1717172,99.9850746 54.8208955,99.634253 54.8208955,99.2014925 C54.8208955,98.7687321 55.1717172,98.4179104 55.6044776,98.4179104 C56.0372381,98.4179104 56.3880597,98.7687321 56.3880597,99.2014925 Z M65.7910448,52.1865672 C65.7910448,52.6193276 65.4402231,52.9701493 65.0074627,52.9701493 C64.5747022,52.9701493 64.2238806,52.6193276 64.2238806,52.1865672 C64.2238806,51.7538067 64.5747022,51.4029851 65.0074627,51.4029851 C65.4402231,51.4029851 65.7910448,51.7538067 65.7910448,52.1865672 Z M65.7910448,61.5895522 C65.7910448,62.0223127 65.4402231,62.3731343 65.0074627,62.3731343 C64.5747022,62.3731343 64.2238806,62.0223127 64.2238806,61.5895522 C64.2238806,61.1567918 64.5747022,60.8059701 65.0074627,60.8059701 C65.4402231,60.8059701 65.7910448,61.1567918 65.7910448,61.5895522 Z M65.7910448,99.2014925 C65.7910448,99.634253 65.4402231,99.9850746 65.0074627,99.9850746 C64.5747022,99.9850746 64.2238806,99.634253 64.2238806,99.2014925 C64.2238806,98.7687321 64.5747022,98.4179104 65.0074627,98.4179104 C65.4402231,98.4179104 65.7910448,98.7687321 65.7910448,99.2014925 Z M65.7910448,108.604478 C65.7910448,109.037238 65.4402231,109.38806 65.0074627,109.38806 C64.5747022,109.38806 64.2238806,109.037238 64.2238806,108.604478 C64.2238806,108.171717 64.5747022,107.820896 65.0074627,107.820896 C65.4402231,107.820896 65.7910448,108.171717 65.7910448,108.604478 Z M65.7910448,33.380597 C65.7910448,33.8133575 65.4402231,34.1641791 65.0074627,34.1641791 C64.5747022,34.1641791 64.2238806,33.8133575 64.2238806,33.380597 C64.2238806,32.9478366 64.5747022,32.5970149 65.0074627,32.5970149 C65.4402231,32.5970149 65.7910448,32.9478366 65.7910448,33.380597 Z M65.7910448,118.007463 C65.7910448,118.440223 65.4402231,118.791045 65.0074627,118.791045 C64.5747022,118.791045 64.2238806,118.440223 64.2238806,118.007463 C64.2238806,117.574702 64.5747022,117.223881 65.0074627,117.223881 C65.4402231,117.223881 65.7910448,117.574702 65.7910448,118.007463 Z M65.7910448,80.3955224 C65.7910448,80.8282828 65.4402231,81.1791045 65.0074627,81.1791045 C64.5747022,81.1791045 64.2238806,80.8282828 64.2238806,80.3955224 C64.2238806,79.9627619 64.5747022,79.6119403 65.0074627,79.6119403 C65.4402231,79.6119403 65.7910448,79.9627619 65.7910448,80.3955224 Z M65.7910448,89.7985075 C65.7910448,90.2312679 65.4402231,90.5820896 65.0074627,90.5820896 C64.5747022,90.5820896 64.2238806,90.2312679 64.2238806,89.7985075 C64.2238806,89.365747 64.5747022,89.0149254 65.0074627,89.0149254 C65.4402231,89.0149254 65.7910448,89.365747 65.7910448,89.7985075 Z M65.7910448,23.9776119 C65.7910448,24.4103724 65.4402231,24.761194 65.0074627,24.761194 C64.5747022,24.761194 64.2238806,24.4103724 64.2238806,23.9776119 C64.2238806,23.5448515 64.5747022,23.1940299 65.0074627,23.1940299 C65.4402231,23.1940299 65.7910448,23.5448515 65.7910448,23.9776119 Z M65.7910448,42.7835821 C65.7910448,43.2163425 65.4402231,43.5671642 65.0074627,43.5671642 C64.5747022,43.5671642 64.2238806,43.2163425 64.2238806,42.7835821 C64.2238806,42.3508217 64.5747022,42 65.0074627,42 C65.4402231,42 65.7910448,42.3508217 65.7910448,42.7835821 Z M65.7910448,70.9925373 C65.7910448,71.4252978 65.4402231,71.7761194 65.0074627,71.7761194 C64.5747022,71.7761194 64.2238806,71.4252978 64.2238806,70.9925373 C64.2238806,70.5597769 64.5747022,70.2089552 65.0074627,70.2089552 C65.4402231,70.2089552 65.7910448,70.5597769 65.7910448,70.9925373 Z M65.7910448,14.5746269 C65.7910448,15.0073873 65.4402231,15.358209 65.0074627,15.358209 C64.5747022,15.358209 64.2238806,15.0073873 64.2238806,14.5746269 C64.2238806,14.1418664 64.5747022,13.7910448 65.0074627,13.7910448 C65.4402231,13.7910448 65.7910448,14.1418664 65.7910448,14.5746269 Z" id="Shape" fill="#9A9FC2" opacity="0.5"></path>
    </g>
</svg>