<svg xmlns="http://www.w3.org/2000/svg" width="200" height="140" viewBox="0 0 200 140">
    <g fill="none" fill-rule="evenodd">
        <g>
            <g transform="translate(-371 -301) translate(371 301)">
                <path fill="#9A9FC2" d="M37.625 5.37c-.363 0-.657-.293-.657-.656 0-.363.294-.657.657-.657.363 0 .657.294.657.657 0 .363-.294.657-.657.657zm47.318 0c-.363 0-.657-.293-.657-.656 0-.363.294-.657.657-.657.363 0 .657.294.657.657 0 .363-.294.657-.657.657zm0 47.284c-.363 0-.657-.294-.657-.657 0-.362.294-.656.657-.656.363 0 .657.294.657.656 0 .363-.294.657-.657.657zM45.511 5.371c-.363 0-.657-.294-.657-.657 0-.363.294-.657.657-.657.363 0 .658.294.658.657 0 .363-.295.657-.658.657zm0 47.283c-.363 0-.657-.294-.657-.657 0-.362.294-.656.657-.656.363 0 .658.294.658.656 0 .363-.295.657-.658.657zM92.83 5.371c-.363 0-.658-.294-.658-.657 0-.363.295-.657.658-.657.363 0 .657.294.657.657 0 .363-.294.657-.657.657zm0 47.283c-.363 0-.658-.294-.658-.657 0-.362.295-.656.658-.656.363 0 .657.294.657.656 0 .363-.294.657-.657.657zM37.625 21.132c-.363 0-.657-.294-.657-.657 0-.363.294-.657.657-.657.363 0 .657.294.657.657 0 .363-.294.657-.657.657zm47.318 0c-.363 0-.657-.294-.657-.657 0-.363.294-.657.657-.657.363 0 .657.294.657.657 0 .363-.294.657-.657.657zm0 47.283c-.363 0-.657-.294-.657-.656 0-.363.294-.657.657-.657.363 0 .657.294.657.657 0 .362-.294.656-.657.656zM45.511 21.132c-.363 0-.657-.294-.657-.657 0-.363.294-.657.657-.657.363 0 .658.294.658.657 0 .363-.295.657-.658.657zm0 47.283c-.363 0-.657-.294-.657-.656 0-.363.294-.657.657-.657.363 0 .658.294.658.657 0 .362-.295.656-.658.656zM92.83 21.132c-.363 0-.658-.294-.658-.657 0-.363.295-.657.658-.657.363 0 .657.294.657.657 0 .363-.294.657-.657.657zm0 47.283c-.363 0-.658-.294-.658-.656 0-.363.295-.657.658-.657.363 0 .657.294.657.657 0 .362-.294.656-.657.656zM37.625 36.893c-.363 0-.657-.294-.657-.657 0-.362.294-.656.657-.656.363 0 .657.294.657.656 0 .363-.294.657-.657.657zm47.318 0c-.363 0-.657-.294-.657-.657 0-.362.294-.656.657-.656.363 0 .657.294.657.656 0 .363-.294.657-.657.657zm-39.432 0c-.363 0-.657-.294-.657-.657 0-.362.294-.656.657-.656.363 0 .658.294.658.656 0 .363-.295.657-.658.657zm47.319 0c-.363 0-.658-.294-.658-.657 0-.362.295-.656.658-.656.363 0 .657.294.657.656 0 .363-.294.657-.657.657zM37.625 13.251c-.363 0-.657-.294-.657-.657 0-.362.294-.656.657-.656.363 0 .657.294.657.656 0 .363-.294.657-.657.657zm47.318 0c-.363 0-.657-.294-.657-.657 0-.362.294-.656.657-.656.363 0 .657.294.657.656 0 .363-.294.657-.657.657zm0 47.284c-.363 0-.657-.294-.657-.657 0-.363.294-.657.657-.657.363 0 .657.294.657.657 0 .363-.294.657-.657.657zM45.511 13.25c-.363 0-.657-.294-.657-.657 0-.362.294-.656.657-.656.363 0 .658.294.658.656 0 .363-.295.657-.658.657zm0 47.284c-.363 0-.657-.294-.657-.657 0-.363.294-.657.657-.657.363 0 .658.294.658.657 0 .363-.295.657-.658.657zM92.83 13.25c-.363 0-.658-.294-.658-.657 0-.362.295-.656.658-.656.363 0 .657.294.657.656 0 .363-.294.657-.657.657zm0 47.284c-.363 0-.658-.294-.658-.657 0-.363.295-.657.658-.657.363 0 .657.294.657.657 0 .363-.294.657-.657.657zM37.625 29.012c-.363 0-.657-.294-.657-.656 0-.363.294-.657.657-.657.363 0 .657.294.657.657 0 .362-.294.656-.657.656zm47.318 0c-.363 0-.657-.294-.657-.656 0-.363.294-.657.657-.657.363 0 .657.294.657.657 0 .362-.294.656-.657.656zm-39.432 0c-.363 0-.657-.294-.657-.656 0-.363.294-.657.657-.657.363 0 .658.294.658.657 0 .362-.295.656-.658.656zm47.319 0c-.363 0-.658-.294-.658-.656 0-.363.295-.657.658-.657.363 0 .657.294.657.657 0 .362-.294.656-.657.656zM37.625 44.774c-.363 0-.657-.294-.657-.657 0-.363.294-.657.657-.657.363 0 .657.294.657.657 0 .363-.294.657-.657.657zm47.318 0c-.363 0-.657-.294-.657-.657 0-.363.294-.657.657-.657.363 0 .657.294.657.657 0 .363-.294.657-.657.657zm-39.432 0c-.363 0-.657-.294-.657-.657 0-.363.294-.657.657-.657.363 0 .658.294.658.657 0 .363-.295.657-.658.657zm47.319 0c-.363 0-.658-.294-.658-.657 0-.363.295-.657.658-.657.363 0 .657.294.657.657 0 .363-.294.657-.657.657zM53.398 5.37c-.363 0-.658-.294-.658-.657 0-.363.295-.657.658-.657.363 0 .657.294.657.657 0 .363-.294.657-.657.657zm0 47.283c-.363 0-.658-.294-.658-.657 0-.362.295-.656.658-.656.363 0 .657.294.657.656 0 .363-.294.657-.657.657zm47.318-47.283c-.363 0-.657-.294-.657-.657 0-.363.294-.657.657-.657.363 0 .657.294.657.657 0 .363-.294.657-.657.657zm0 47.283c-.363 0-.657-.294-.657-.657 0-.362.294-.656.657-.656.363 0 .657.294.657.656 0 .363-.294.657-.657.657zM61.284 5.371c-.363 0-.657-.294-.657-.657 0-.363.294-.657.657-.657.363 0 .657.294.657.657 0 .363-.294.657-.657.657zm0 47.283c-.363 0-.657-.294-.657-.657 0-.362.294-.656.657-.656.363 0 .657.294.657.656 0 .363-.294.657-.657.657zm47.318-47.283c-.363 0-.657-.294-.657-.657 0-.363.294-.657.657-.657.363 0 .658.294.658.657 0 .363-.295.657-.658.657zm0 47.283c-.363 0-.657-.294-.657-.657 0-.362.294-.656.657-.656.363 0 .658.294.658.656 0 .363-.295.657-.658.657zM53.398 21.132c-.363 0-.658-.294-.658-.657 0-.363.295-.657.658-.657.363 0 .657.294.657.657 0 .363-.294.657-.657.657zm0 47.283c-.363 0-.658-.294-.658-.656 0-.363.295-.657.658-.657.363 0 .657.294.657.657 0 .362-.294.656-.657.656zm47.318-47.283c-.363 0-.657-.294-.657-.657 0-.363.294-.657.657-.657.363 0 .657.294.657.657 0 .363-.294.657-.657.657zm0 47.283c-.363 0-.657-.294-.657-.656 0-.363.294-.657.657-.657.363 0 .657.294.657.657 0 .362-.294.656-.657.656zM61.284 21.132c-.363 0-.657-.294-.657-.657 0-.363.294-.657.657-.657.363 0 .657.294.657.657 0 .363-.294.657-.657.657zm0 47.283c-.363 0-.657-.294-.657-.656 0-.363.294-.657.657-.657.363 0 .657.294.657.657 0 .362-.294.656-.657.656zm47.318-47.283c-.363 0-.657-.294-.657-.657 0-.363.294-.657.657-.657.363 0 .658.294.658.657 0 .363-.295.657-.658.657zm0 47.283c-.363 0-.657-.294-.657-.656 0-.363.294-.657.657-.657.363 0 .658.294.658.657 0 .362-.295.656-.658.656zM53.398 36.893c-.363 0-.658-.294-.658-.657 0-.362.295-.656.658-.656.363 0 .657.294.657.656 0 .363-.294.657-.657.657zm47.318 0c-.363 0-.657-.294-.657-.657 0-.362.294-.656.657-.656.363 0 .657.294.657.656 0 .363-.294.657-.657.657zm-39.432 0c-.363 0-.657-.294-.657-.657 0-.362.294-.656.657-.656.363 0 .657.294.657.656 0 .363-.294.657-.657.657zm47.318 0c-.363 0-.657-.294-.657-.657 0-.362.294-.656.657-.656.363 0 .658.294.658.656 0 .363-.295.657-.658.657zM53.398 13.251c-.363 0-.658-.294-.658-.657 0-.362.295-.656.658-.656.363 0 .657.294.657.656 0 .363-.294.657-.657.657zm0 47.284c-.363 0-.658-.294-.658-.657 0-.363.295-.657.658-.657.363 0 .657.294.657.657 0 .363-.294.657-.657.657zm47.318-47.284c-.363 0-.657-.294-.657-.657 0-.362.294-.656.657-.656.363 0 .657.294.657.656 0 .363-.294.657-.657.657zm0 47.284c-.363 0-.657-.294-.657-.657 0-.363.294-.657.657-.657.363 0 .657.294.657.657 0 .363-.294.657-.657.657zM61.284 13.25c-.363 0-.657-.294-.657-.657 0-.362.294-.656.657-.656.363 0 .657.294.657.656 0 .363-.294.657-.657.657zm0 47.284c-.363 0-.657-.294-.657-.657 0-.363.294-.657.657-.657.363 0 .657.294.657.657 0 .363-.294.657-.657.657zm47.318-47.284c-.363 0-.657-.294-.657-.657 0-.362.294-.656.657-.656.363 0 .658.294.658.656 0 .363-.295.657-.658.657zm0 47.284c-.363 0-.657-.294-.657-.657 0-.363.294-.657.657-.657.363 0 .658.294.658.657 0 .363-.295.657-.658.657zM53.398 29.012c-.363 0-.658-.294-.658-.656 0-.363.295-.657.658-.657.363 0 .657.294.657.657 0 .362-.294.656-.657.656zm47.318 0c-.363 0-.657-.294-.657-.656 0-.363.294-.657.657-.657.363 0 .657.294.657.657 0 .362-.294.656-.657.656zm-39.432 0c-.363 0-.657-.294-.657-.656 0-.363.294-.657.657-.657.363 0 .657.294.657.657 0 .362-.294.656-.657.656zm47.318 0c-.363 0-.657-.294-.657-.656 0-.363.294-.657.657-.657.363 0 .658.294.658.657 0 .362-.295.656-.658.656zM53.398 44.774c-.363 0-.658-.294-.658-.657 0-.363.295-.657.658-.657.363 0 .657.294.657.657 0 .363-.294.657-.657.657zm47.318 0c-.363 0-.657-.294-.657-.657 0-.363.294-.657.657-.657.363 0 .657.294.657.657 0 .363-.294.657-.657.657zm-39.432 0c-.363 0-.657-.294-.657-.657 0-.363.294-.657.657-.657.363 0 .657.294.657.657 0 .363-.294.657-.657.657zm47.318 0c-.363 0-.657-.294-.657-.657 0-.363.294-.657.657-.657.363 0 .658.294.658.657 0 .363-.295.657-.658.657zM69.17 5.37c-.363 0-.657-.294-.657-.657 0-.363.294-.657.657-.657.363 0 .658.294.658.657 0 .363-.295.657-.658.657zm0 47.283c-.363 0-.657-.294-.657-.657 0-.362.294-.656.657-.656.363 0 .658.294.658.656 0 .363-.295.657-.658.657zm7.887-47.283c-.363 0-.657-.294-.657-.657 0-.363.294-.657.657-.657.363 0 .657.294.657.657 0 .363-.294.657-.657.657zm0 47.283c-.363 0-.657-.294-.657-.657 0-.362.294-.656.657-.656.363 0 .657.294.657.656 0 .363-.294.657-.657.657zM69.17 21.132c-.363 0-.657-.294-.657-.657 0-.363.294-.657.657-.657.363 0 .658.294.658.657 0 .363-.295.657-.658.657zm0 47.283c-.363 0-.657-.294-.657-.656 0-.363.294-.657.657-.657.363 0 .658.294.658.657 0 .362-.295.656-.658.656zm7.887-47.283c-.363 0-.657-.294-.657-.657 0-.363.294-.657.657-.657.363 0 .657.294.657.657 0 .363-.294.657-.657.657zm0 47.283c-.363 0-.657-.294-.657-.656 0-.363.294-.657.657-.657.363 0 .657.294.657.657 0 .362-.294.656-.657.656zM69.17 36.893c-.363 0-.657-.294-.657-.657 0-.362.294-.656.657-.656.363 0 .658.294.658.656 0 .363-.295.657-.658.657zm7.887 0c-.363 0-.657-.294-.657-.657 0-.362.294-.656.657-.656.363 0 .657.294.657.656 0 .363-.294.657-.657.657zM69.17 13.251c-.363 0-.657-.294-.657-.657 0-.362.294-.656.657-.656.363 0 .658.294.658.656 0 .363-.295.657-.658.657zm0 47.284c-.363 0-.657-.294-.657-.657 0-.363.294-.657.657-.657.363 0 .658.294.658.657 0 .363-.295.657-.658.657zm7.887-47.284c-.363 0-.657-.294-.657-.657 0-.362.294-.656.657-.656.363 0 .657.294.657.656 0 .363-.294.657-.657.657zm0 47.284c-.363 0-.657-.294-.657-.657 0-.363.294-.657.657-.657.363 0 .657.294.657.657 0 .363-.294.657-.657.657zM69.17 29.012c-.363 0-.657-.294-.657-.656 0-.363.294-.657.657-.657.363 0 .658.294.658.657 0 .362-.295.656-.658.656zm7.887 0c-.363 0-.657-.294-.657-.656 0-.363.294-.657.657-.657.363 0 .657.294.657.657 0 .362-.294.656-.657.656zM69.17 44.774c-.363 0-.657-.294-.657-.657 0-.363.294-.657.657-.657.363 0 .658.294.658.657 0 .363-.295.657-.658.657zm7.887 0c-.363 0-.657-.294-.657-.657 0-.363.294-.657.657-.657.363 0 .657.294.657.657 0 .363-.294.657-.657.657zM116.489 5.37c-.363 0-.658-.294-.658-.657 0-.363.295-.657.658-.657.363 0 .657.294.657.657 0 .363-.294.657-.657.657zm0 47.283c-.363 0-.658-.294-.658-.657 0-.362.295-.656.658-.656.363 0 .657.294.657.656 0 .363-.294.657-.657.657zm0-31.522c-.363 0-.658-.294-.658-.657 0-.363.295-.657.658-.657.363 0 .657.294.657.657 0 .363-.294.657-.657.657zm0 47.283c-.363 0-.658-.294-.658-.656 0-.363.295-.657.658-.657.363 0 .657.294.657.657 0 .362-.294.656-.657.656zm0-31.522c-.363 0-.658-.294-.658-.657 0-.362.295-.656.658-.656.363 0 .657.294.657.656 0 .363-.294.657-.657.657zm0-23.642c-.363 0-.658-.294-.658-.657 0-.362.295-.656.658-.656.363 0 .657.294.657.656 0 .363-.294.657-.657.657zm0 47.284c-.363 0-.658-.294-.658-.657 0-.363.295-.657.658-.657.363 0 .657.294.657.657 0 .363-.294.657-.657.657zm0-31.523c-.363 0-.658-.294-.658-.656 0-.363.295-.657.658-.657.363 0 .657.294.657.657 0 .362-.294.656-.657.656zm0 15.762c-.363 0-.658-.294-.658-.657 0-.363.295-.657.658-.657.363 0 .657.294.657.657 0 .363-.294.657-.657.657zm7.886-39.403c-.363 0-.657-.294-.657-.657 0-.363.294-.657.657-.657.363 0 .657.294.657.657 0 .363-.294.657-.657.657zm0 15.76c-.363 0-.657-.293-.657-.656 0-.363.294-.657.657-.657.363 0 .657.294.657.657 0 .363-.294.657-.657.657zm0 15.762c-.363 0-.657-.294-.657-.657 0-.362.294-.656.657-.656.363 0 .657.294.657.656 0 .363-.294.657-.657.657zm0-23.642c-.363 0-.657-.294-.657-.657 0-.362.294-.656.657-.656.363 0 .657.294.657.656 0 .363-.294.657-.657.657zm0 15.761c-.363 0-.657-.294-.657-.656 0-.363.294-.657.657-.657.363 0 .657.294.657.657 0 .362-.294.656-.657.656zm0 15.762c-.363 0-.657-.294-.657-.657 0-.363.294-.657.657-.657.363 0 .657.294.657.657 0 .363-.294.657-.657.657zm-86.75 7.88c-.363 0-.657-.294-.657-.657 0-.362.294-.656.657-.656.363 0 .657.294.657.656 0 .363-.294.657-.657.657zm0 15.761c-.363 0-.657-.294-.657-.656 0-.363.294-.657.657-.657.363 0 .657.294.657.657 0 .362-.294.656-.657.656zm0 15.762c-.363 0-.657-.294-.657-.657 0-.363.294-.657.657-.657.363 0 .657.294.657.657 0 .363-.294.657-.657.657zm47.318 0c-.363 0-.657-.294-.657-.657 0-.363.294-.657.657-.657.363 0 .657.294.657.657 0 .363-.294.657-.657.657zm-39.432 0c-.363 0-.657-.294-.657-.657 0-.363.294-.657.657-.657.363 0 .658.294.658.657 0 .363-.295.657-.658.657zm47.319 0c-.363 0-.658-.294-.658-.657 0-.363.295-.657.658-.657.363 0 .657.294.657.657 0 .363-.294.657-.657.657zM37.625 60.535c-.363 0-.657-.294-.657-.657 0-.363.294-.657.657-.657.363 0 .657.294.657.657 0 .363-.294.657-.657.657zm0 15.76c-.363 0-.657-.293-.657-.656 0-.362.294-.656.657-.656.363 0 .657.294.657.656 0 .363-.294.657-.657.657zm47.318 0c-.363 0-.657-.293-.657-.656 0-.362.294-.656.657-.656.363 0 .657.294.657.656 0 .363-.294.657-.657.657zm-39.432 0c-.363 0-.657-.293-.657-.656 0-.362.294-.656.657-.656.363 0 .658.294.658.656 0 .363-.295.657-.658.657zm47.319 0c-.363 0-.658-.293-.658-.656 0-.362.295-.656.658-.656.363 0 .657.294.657.656 0 .363-.294.657-.657.657zm-39.432 7.882c-.363 0-.658-.294-.658-.657 0-.363.295-.657.658-.657.363 0 .657.294.657.657 0 .363-.294.657-.657.657zm47.318 0c-.363 0-.657-.294-.657-.657 0-.363.294-.657.657-.657.363 0 .657.294.657.657 0 .363-.294.657-.657.657zm-39.432 0c-.363 0-.657-.294-.657-.657 0-.363.294-.657.657-.657.363 0 .657.294.657.657 0 .363-.294.657-.657.657zm47.318 0c-.363 0-.657-.294-.657-.657 0-.363.294-.657.657-.657.363 0 .658.294.658.657 0 .363-.295.657-.658.657zm-55.204-7.881c-.363 0-.658-.294-.658-.657 0-.362.295-.656.658-.656.363 0 .657.294.657.656 0 .363-.294.657-.657.657zm47.318 0c-.363 0-.657-.294-.657-.657 0-.362.294-.656.657-.656.363 0 .657.294.657.656 0 .363-.294.657-.657.657zm-39.432 0c-.363 0-.657-.294-.657-.657 0-.362.294-.656.657-.656.363 0 .657.294.657.656 0 .363-.294.657-.657.657zm47.318 0c-.363 0-.657-.294-.657-.657 0-.362.294-.656.657-.656.363 0 .658.294.658.656 0 .363-.295.657-.658.657zm-39.432 7.88c-.363 0-.657-.293-.657-.656 0-.363.294-.657.657-.657.363 0 .658.294.658.657 0 .363-.295.657-.658.657zm7.887 0c-.363 0-.657-.293-.657-.656 0-.363.294-.657.657-.657.363 0 .657.294.657.657 0 .363-.294.657-.657.657zm-7.887-7.88c-.363 0-.657-.294-.657-.657 0-.362.294-.656.657-.656.363 0 .658.294.658.656 0 .363-.295.657-.658.657zm7.887 0c-.363 0-.657-.294-.657-.657 0-.362.294-.656.657-.656.363 0 .657.294.657.656 0 .363-.294.657-.657.657zm39.432 7.88c-.363 0-.658-.293-.658-.656 0-.363.295-.657.658-.657.363 0 .657.294.657.657 0 .363-.294.657-.657.657zm0-7.88c-.363 0-.658-.294-.658-.657 0-.362.295-.656.658-.656.363 0 .657.294.657.656 0 .363-.294.657-.657.657zm7.886-23.642c-.363 0-.657-.294-.657-.657 0-.362.294-.656.657-.656.363 0 .657.294.657.656 0 .363-.294.657-.657.657zm0 15.761c-.363 0-.657-.294-.657-.656 0-.363.294-.657.657-.657.363 0 .657.294.657.657 0 .362-.294.656-.657.656zm0 15.762c-.363 0-.657-.294-.657-.657 0-.363.294-.657.657-.657.363 0 .657.294.657.657 0 .363-.294.657-.657.657zm0-23.642c-.363 0-.657-.294-.657-.657 0-.363.294-.657.657-.657.363 0 .657.294.657.657 0 .363-.294.657-.657.657zm0 15.76c-.363 0-.657-.293-.657-.656 0-.362.294-.656.657-.656.363 0 .657.294.657.656 0 .363-.294.657-.657.657zm-86.75 15.762c-.363 0-.657-.294-.657-.657 0-.362.294-.656.657-.656.363 0 .657.294.657.656 0 .363-.294.657-.657.657zm47.318 0c-.363 0-.657-.294-.657-.657 0-.362.294-.656.657-.656.363 0 .657.294.657.656 0 .363-.294.657-.657.657zm-39.432 0c-.363 0-.657-.294-.657-.657 0-.362.294-.656.657-.656.363 0 .658.294.658.656 0 .363-.295.657-.658.657zm47.319 0c-.363 0-.658-.294-.658-.657 0-.362.295-.656.658-.656.363 0 .657.294.657.656 0 .363-.294.657-.657.657zm-39.432 0c-.363 0-.658-.294-.658-.657 0-.362.295-.656.658-.656.363 0 .657.294.657.656 0 .363-.294.657-.657.657zm47.318 0c-.363 0-.657-.294-.657-.657 0-.362.294-.656.657-.656.363 0 .657.294.657.656 0 .363-.294.657-.657.657zm-39.432 0c-.363 0-.657-.294-.657-.657 0-.362.294-.656.657-.656.363 0 .657.294.657.656 0 .363-.294.657-.657.657zm47.318 0c-.363 0-.657-.294-.657-.657 0-.362.294-.656.657-.656.363 0 .658.294.658.656 0 .363-.295.657-.658.657zm-39.432 0c-.363 0-.657-.294-.657-.657 0-.362.294-.656.657-.656.363 0 .658.294.658.656 0 .363-.295.657-.658.657zm7.887 0c-.363 0-.657-.294-.657-.657 0-.362.294-.656.657-.656.363 0 .657.294.657.656 0 .363-.294.657-.657.657zm39.432 0c-.363 0-.658-.294-.658-.657 0-.362.295-.656.658-.656.363 0 .657.294.657.656 0 .363-.294.657-.657.657zm7.886 0c-.363 0-.657-.294-.657-.657 0-.362.294-.656.657-.656.363 0 .657.294.657.656 0 .363-.294.657-.657.657z" opacity=".5" transform="matrix(-1 0 0 1 162 0)"/>
                <path fill="#6899E4" fill-rule="nonzero" d="M129.016 44.89c-8.799-5.122-11.826-16.442-6.761-25.285 5.065-8.844 16.304-11.861 25.103-6.74" opacity=".2" transform="matrix(-1 0 0 1 267.159 0)"/>
                <path fill="#D99938" fill-rule="nonzero" d="M150 53.007c3.035-3.561 8.426-4.026 12.043-1.038 3.617 2.989 4.088 8.298 1.054 11.86" style="mix-blend-mode:multiply" opacity=".3" transform="matrix(-1 0 0 1 315.097 0)"/>
                <path fill="#6899E4" fill-rule="nonzero" d="M41.35 20.844l-.086.014-.042.01C16.55 25.687.35 49.37 4.708 74.025l.148.79c4.764 24.634 28.419 40.827 53.047 36.479l.875-.162c24.672-4.82 40.873-28.504 36.514-53.16l-.148-.788C90.33 32.3 66.242 16.03 41.35 20.844z" opacity=".1" transform="matrix(-1 0 0 1 100 0)"/>
                <circle fill="#1E8985" fill-rule="nonzero" style="mix-blend-mode:multiply" cx="139" cy="108" r="32" opacity=".08"/>
            </g>
        </g>
    </g>
</svg>
