<?xml version="1.0" encoding="UTF-8"?>
<svg width="310px" height="210px" viewBox="0 0 310 210" version="1.1" xmlns="http://www.w3.org/2000/svg" xmlns:xlink="http://www.w3.org/1999/xlink">
    <title>Images/Patterns/dots-square-circle</title>
    <g id="Images/Patterns/dots-square-circle" stroke="none" stroke-width="1" fill="none" fill-rule="evenodd">
        <path d="M117.044776,18.0895522 C116.467762,18.0895522 116,17.62179 116,17.0447761 C116,16.4677622 116.467762,16 117.044776,16 C117.62179,16 118.089552,16.4677622 118.089552,17.0447761 C118.089552,17.62179 117.62179,18.0895522 117.044776,18.0895522 Z M192.268657,18.0895522 C191.691643,18.0895522 191.223881,17.62179 191.223881,17.0447761 C191.223881,16.4677622 191.691643,16 192.268657,16 C192.845671,16 193.313433,16.4677622 193.313433,17.0447761 C193.313433,17.62179 192.845671,18.0895522 192.268657,18.0895522 Z M192.268657,93.3134328 C191.691643,93.3134328 191.223881,92.8456706 191.223881,92.2686567 C191.223881,91.6916428 191.691643,91.2238806 192.268657,91.2238806 C192.845671,91.2238806 193.313433,91.6916428 193.313433,92.2686567 C193.313433,92.8456706 192.845671,93.3134328 192.268657,93.3134328 Z M129.58209,18.0895522 C129.005076,18.0895522 128.537313,17.62179 128.537313,17.0447761 C128.537313,16.4677622 129.005076,16 129.58209,16 C130.159103,16 130.626866,16.4677622 130.626866,17.0447761 C130.626866,17.62179 130.159103,18.0895522 129.58209,18.0895522 Z M129.58209,93.3134328 C129.005076,93.3134328 128.537313,92.8456706 128.537313,92.2686567 C128.537313,91.6916428 129.005076,91.2238806 129.58209,91.2238806 C130.159103,91.2238806 130.626866,91.6916428 130.626866,92.2686567 C130.626866,92.8456706 130.159103,93.3134328 129.58209,93.3134328 Z M204.80597,18.0895522 C204.228956,18.0895522 203.761194,17.62179 203.761194,17.0447761 C203.761194,16.4677622 204.228956,16 204.80597,16 C205.382984,16 205.850746,16.4677622 205.850746,17.0447761 C205.850746,17.62179 205.382984,18.0895522 204.80597,18.0895522 Z M204.80597,93.3134328 C204.228956,93.3134328 203.761194,92.8456706 203.761194,92.2686567 C203.761194,91.6916428 204.228956,91.2238806 204.80597,91.2238806 C205.382984,91.2238806 205.850746,91.6916428 205.850746,92.2686567 C205.850746,92.8456706 205.382984,93.3134328 204.80597,93.3134328 Z M117.044776,43.1641791 C116.467762,43.1641791 116,42.6964169 116,42.119403 C116,41.5423891 116.467762,41.0746269 117.044776,41.0746269 C117.62179,41.0746269 118.089552,41.5423891 118.089552,42.119403 C118.089552,42.6964169 117.62179,43.1641791 117.044776,43.1641791 Z M192.268657,43.1641791 C191.691643,43.1641791 191.223881,42.6964169 191.223881,42.119403 C191.223881,41.5423891 191.691643,41.0746269 192.268657,41.0746269 C192.845671,41.0746269 193.313433,41.5423891 193.313433,42.119403 C193.313433,42.6964169 192.845671,43.1641791 192.268657,43.1641791 Z M192.268657,118.38806 C191.691643,118.38806 191.223881,117.920297 191.223881,117.343284 C191.223881,116.76627 191.691643,116.298507 192.268657,116.298507 C192.845671,116.298507 193.313433,116.76627 193.313433,117.343284 C193.313433,117.920297 192.845671,118.38806 192.268657,118.38806 Z M129.58209,43.1641791 C129.005076,43.1641791 128.537313,42.6964169 128.537313,42.119403 C128.537313,41.5423891 129.005076,41.0746269 129.58209,41.0746269 C130.159103,41.0746269 130.626866,41.5423891 130.626866,42.119403 C130.626866,42.6964169 130.159103,43.1641791 129.58209,43.1641791 Z M129.58209,118.38806 C129.005076,118.38806 128.537313,117.920297 128.537313,117.343284 C128.537313,116.76627 129.005076,116.298507 129.58209,116.298507 C130.159103,116.298507 130.626866,116.76627 130.626866,117.343284 C130.626866,117.920297 130.159103,118.38806 129.58209,118.38806 Z M204.80597,43.1641791 C204.228956,43.1641791 203.761194,42.6964169 203.761194,42.119403 C203.761194,41.5423891 204.228956,41.0746269 204.80597,41.0746269 C205.382984,41.0746269 205.850746,41.5423891 205.850746,42.119403 C205.850746,42.6964169 205.382984,43.1641791 204.80597,43.1641791 Z M204.80597,118.38806 C204.228956,118.38806 203.761194,117.920297 203.761194,117.343284 C203.761194,116.76627 204.228956,116.298507 204.80597,116.298507 C205.382984,116.298507 205.850746,116.76627 205.850746,117.343284 C205.850746,117.920297 205.382984,118.38806 204.80597,118.38806 Z M117.044776,68.238806 C116.467762,68.238806 116,67.7710438 116,67.1940299 C116,66.6170159 116.467762,66.1492537 117.044776,66.1492537 C117.62179,66.1492537 118.089552,66.6170159 118.089552,67.1940299 C118.089552,67.7710438 117.62179,68.238806 117.044776,68.238806 Z M192.268657,68.238806 C191.691643,68.238806 191.223881,67.7710438 191.223881,67.1940299 C191.223881,66.6170159 191.691643,66.1492537 192.268657,66.1492537 C192.845671,66.1492537 193.313433,66.6170159 193.313433,67.1940299 C193.313433,67.7710438 192.845671,68.238806 192.268657,68.238806 Z M129.58209,68.238806 C129.005076,68.238806 128.537313,67.7710438 128.537313,67.1940299 C128.537313,66.6170159 129.005076,66.1492537 129.58209,66.1492537 C130.159103,66.1492537 130.626866,66.6170159 130.626866,67.1940299 C130.626866,67.7710438 130.159103,68.238806 129.58209,68.238806 Z M204.80597,68.238806 C204.228956,68.238806 203.761194,67.7710438 203.761194,67.1940299 C203.761194,66.6170159 204.228956,66.1492537 204.80597,66.1492537 C205.382984,66.1492537 205.850746,66.6170159 205.850746,67.1940299 C205.850746,67.7710438 205.382984,68.238806 204.80597,68.238806 Z M117.044776,30.6268657 C116.467762,30.6268657 116,30.1591035 116,29.5820896 C116,29.0050756 116.467762,28.5373134 117.044776,28.5373134 C117.62179,28.5373134 118.089552,29.0050756 118.089552,29.5820896 C118.089552,30.1591035 117.62179,30.6268657 117.044776,30.6268657 Z M192.268657,30.6268657 C191.691643,30.6268657 191.223881,30.1591035 191.223881,29.5820896 C191.223881,29.0050756 191.691643,28.5373134 192.268657,28.5373134 C192.845671,28.5373134 193.313433,29.0050756 193.313433,29.5820896 C193.313433,30.1591035 192.845671,30.6268657 192.268657,30.6268657 Z M192.268657,105.850746 C191.691643,105.850746 191.223881,105.382984 191.223881,104.80597 C191.223881,104.228956 191.691643,103.761194 192.268657,103.761194 C192.845671,103.761194 193.313433,104.228956 193.313433,104.80597 C193.313433,105.382984 192.845671,105.850746 192.268657,105.850746 Z M129.58209,30.6268657 C129.005076,30.6268657 128.537313,30.1591035 128.537313,29.5820896 C128.537313,29.0050756 129.005076,28.5373134 129.58209,28.5373134 C130.159103,28.5373134 130.626866,29.0050756 130.626866,29.5820896 C130.626866,30.1591035 130.159103,30.6268657 129.58209,30.6268657 Z M129.58209,105.850746 C129.005076,105.850746 128.537313,105.382984 128.537313,104.80597 C128.537313,104.228956 129.005076,103.761194 129.58209,103.761194 C130.159103,103.761194 130.626866,104.228956 130.626866,104.80597 C130.626866,105.382984 130.159103,105.850746 129.58209,105.850746 Z M204.80597,30.6268657 C204.228956,30.6268657 203.761194,30.1591035 203.761194,29.5820896 C203.761194,29.0050756 204.228956,28.5373134 204.80597,28.5373134 C205.382984,28.5373134 205.850746,29.0050756 205.850746,29.5820896 C205.850746,30.1591035 205.382984,30.6268657 204.80597,30.6268657 Z M204.80597,105.850746 C204.228956,105.850746 203.761194,105.382984 203.761194,104.80597 C203.761194,104.228956 204.228956,103.761194 204.80597,103.761194 C205.382984,103.761194 205.850746,104.228956 205.850746,104.80597 C205.850746,105.382984 205.382984,105.850746 204.80597,105.850746 Z M117.044776,55.7014925 C116.467762,55.7014925 116,55.2337303 116,54.6567164 C116,54.0797025 116.467762,53.6119403 117.044776,53.6119403 C117.62179,53.6119403 118.089552,54.0797025 118.089552,54.6567164 C118.089552,55.2337303 117.62179,55.7014925 117.044776,55.7014925 Z M192.268657,55.7014925 C191.691643,55.7014925 191.223881,55.2337303 191.223881,54.6567164 C191.223881,54.0797025 191.691643,53.6119403 192.268657,53.6119403 C192.845671,53.6119403 193.313433,54.0797025 193.313433,54.6567164 C193.313433,55.2337303 192.845671,55.7014925 192.268657,55.7014925 Z M129.58209,55.7014925 C129.005076,55.7014925 128.537313,55.2337303 128.537313,54.6567164 C128.537313,54.0797025 129.005076,53.6119403 129.58209,53.6119403 C130.159103,53.6119403 130.626866,54.0797025 130.626866,54.6567164 C130.626866,55.2337303 130.159103,55.7014925 129.58209,55.7014925 Z M204.80597,55.7014925 C204.228956,55.7014925 203.761194,55.2337303 203.761194,54.6567164 C203.761194,54.0797025 204.228956,53.6119403 204.80597,53.6119403 C205.382984,53.6119403 205.850746,54.0797025 205.850746,54.6567164 C205.850746,55.2337303 205.382984,55.7014925 204.80597,55.7014925 Z M117.044776,80.7761194 C116.467762,80.7761194 116,80.3083572 116,79.7313433 C116,79.1543294 116.467762,78.6865672 117.044776,78.6865672 C117.62179,78.6865672 118.089552,79.1543294 118.089552,79.7313433 C118.089552,80.3083572 117.62179,80.7761194 117.044776,80.7761194 Z M192.268657,80.7761194 C191.691643,80.7761194 191.223881,80.3083572 191.223881,79.7313433 C191.223881,79.1543294 191.691643,78.6865672 192.268657,78.6865672 C192.845671,78.6865672 193.313433,79.1543294 193.313433,79.7313433 C193.313433,80.3083572 192.845671,80.7761194 192.268657,80.7761194 Z M129.58209,80.7761194 C129.005076,80.7761194 128.537313,80.3083572 128.537313,79.7313433 C128.537313,79.1543294 129.005076,78.6865672 129.58209,78.6865672 C130.159103,78.6865672 130.626866,79.1543294 130.626866,79.7313433 C130.626866,80.3083572 130.159103,80.7761194 129.58209,80.7761194 Z M204.80597,80.7761194 C204.228956,80.7761194 203.761194,80.3083572 203.761194,79.7313433 C203.761194,79.1543294 204.228956,78.6865672 204.80597,78.6865672 C205.382984,78.6865672 205.850746,79.1543294 205.850746,79.7313433 C205.850746,80.3083572 205.382984,80.7761194 204.80597,80.7761194 Z M142.119403,18.0895522 C141.542389,18.0895522 141.074627,17.62179 141.074627,17.0447761 C141.074627,16.4677622 141.542389,16 142.119403,16 C142.696417,16 143.164179,16.4677622 143.164179,17.0447761 C143.164179,17.62179 142.696417,18.0895522 142.119403,18.0895522 Z M142.119403,93.3134328 C141.542389,93.3134328 141.074627,92.8456706 141.074627,92.2686567 C141.074627,91.6916428 141.542389,91.2238806 142.119403,91.2238806 C142.696417,91.2238806 143.164179,91.6916428 143.164179,92.2686567 C143.164179,92.8456706 142.696417,93.3134328 142.119403,93.3134328 Z M217.343284,18.0895522 C216.76627,18.0895522 216.298507,17.62179 216.298507,17.0447761 C216.298507,16.4677622 216.76627,16 217.343284,16 C217.920297,16 218.38806,16.4677622 218.38806,17.0447761 C218.38806,17.62179 217.920297,18.0895522 217.343284,18.0895522 Z M217.343284,93.3134328 C216.76627,93.3134328 216.298507,92.8456706 216.298507,92.2686567 C216.298507,91.6916428 216.76627,91.2238806 217.343284,91.2238806 C217.920297,91.2238806 218.38806,91.6916428 218.38806,92.2686567 C218.38806,92.8456706 217.920297,93.3134328 217.343284,93.3134328 Z M154.656716,18.0895522 C154.079703,18.0895522 153.61194,17.62179 153.61194,17.0447761 C153.61194,16.4677622 154.079703,16 154.656716,16 C155.23373,16 155.701493,16.4677622 155.701493,17.0447761 C155.701493,17.62179 155.23373,18.0895522 154.656716,18.0895522 Z M154.656716,93.3134328 C154.079703,93.3134328 153.61194,92.8456706 153.61194,92.2686567 C153.61194,91.6916428 154.079703,91.2238806 154.656716,91.2238806 C155.23373,91.2238806 155.701493,91.6916428 155.701493,92.2686567 C155.701493,92.8456706 155.23373,93.3134328 154.656716,93.3134328 Z M229.880597,18.0895522 C229.303583,18.0895522 228.835821,17.62179 228.835821,17.0447761 C228.835821,16.4677622 229.303583,16 229.880597,16 C230.457611,16 230.925373,16.4677622 230.925373,17.0447761 C230.925373,17.62179 230.457611,18.0895522 229.880597,18.0895522 Z M229.880597,93.3134328 C229.303583,93.3134328 228.835821,92.8456706 228.835821,92.2686567 C228.835821,91.6916428 229.303583,91.2238806 229.880597,91.2238806 C230.457611,91.2238806 230.925373,91.6916428 230.925373,92.2686567 C230.925373,92.8456706 230.457611,93.3134328 229.880597,93.3134328 Z M142.119403,43.1641791 C141.542389,43.1641791 141.074627,42.6964169 141.074627,42.119403 C141.074627,41.5423891 141.542389,41.0746269 142.119403,41.0746269 C142.696417,41.0746269 143.164179,41.5423891 143.164179,42.119403 C143.164179,42.6964169 142.696417,43.1641791 142.119403,43.1641791 Z M142.119403,118.38806 C141.542389,118.38806 141.074627,117.920297 141.074627,117.343284 C141.074627,116.76627 141.542389,116.298507 142.119403,116.298507 C142.696417,116.298507 143.164179,116.76627 143.164179,117.343284 C143.164179,117.920297 142.696417,118.38806 142.119403,118.38806 Z M217.343284,43.1641791 C216.76627,43.1641791 216.298507,42.6964169 216.298507,42.119403 C216.298507,41.5423891 216.76627,41.0746269 217.343284,41.0746269 C217.920297,41.0746269 218.38806,41.5423891 218.38806,42.119403 C218.38806,42.6964169 217.920297,43.1641791 217.343284,43.1641791 Z M217.343284,118.38806 C216.76627,118.38806 216.298507,117.920297 216.298507,117.343284 C216.298507,116.76627 216.76627,116.298507 217.343284,116.298507 C217.920297,116.298507 218.38806,116.76627 218.38806,117.343284 C218.38806,117.920297 217.920297,118.38806 217.343284,118.38806 Z M154.656716,43.1641791 C154.079703,43.1641791 153.61194,42.6964169 153.61194,42.119403 C153.61194,41.5423891 154.079703,41.0746269 154.656716,41.0746269 C155.23373,41.0746269 155.701493,41.5423891 155.701493,42.119403 C155.701493,42.6964169 155.23373,43.1641791 154.656716,43.1641791 Z M154.656716,118.38806 C154.079703,118.38806 153.61194,117.920297 153.61194,117.343284 C153.61194,116.76627 154.079703,116.298507 154.656716,116.298507 C155.23373,116.298507 155.701493,116.76627 155.701493,117.343284 C155.701493,117.920297 155.23373,118.38806 154.656716,118.38806 Z M229.880597,43.1641791 C229.303583,43.1641791 228.835821,42.6964169 228.835821,42.119403 C228.835821,41.5423891 229.303583,41.0746269 229.880597,41.0746269 C230.457611,41.0746269 230.925373,41.5423891 230.925373,42.119403 C230.925373,42.6964169 230.457611,43.1641791 229.880597,43.1641791 Z M229.880597,118.38806 C229.303583,118.38806 228.835821,117.920297 228.835821,117.343284 C228.835821,116.76627 229.303583,116.298507 229.880597,116.298507 C230.457611,116.298507 230.925373,116.76627 230.925373,117.343284 C230.925373,117.920297 230.457611,118.38806 229.880597,118.38806 Z M142.119403,68.238806 C141.542389,68.238806 141.074627,67.7710438 141.074627,67.1940299 C141.074627,66.6170159 141.542389,66.1492537 142.119403,66.1492537 C142.696417,66.1492537 143.164179,66.6170159 143.164179,67.1940299 C143.164179,67.7710438 142.696417,68.238806 142.119403,68.238806 Z M217.343284,68.238806 C216.76627,68.238806 216.298507,67.7710438 216.298507,67.1940299 C216.298507,66.6170159 216.76627,66.1492537 217.343284,66.1492537 C217.920297,66.1492537 218.38806,66.6170159 218.38806,67.1940299 C218.38806,67.7710438 217.920297,68.238806 217.343284,68.238806 Z M154.656716,68.238806 C154.079703,68.238806 153.61194,67.7710438 153.61194,67.1940299 C153.61194,66.6170159 154.079703,66.1492537 154.656716,66.1492537 C155.23373,66.1492537 155.701493,66.6170159 155.701493,67.1940299 C155.701493,67.7710438 155.23373,68.238806 154.656716,68.238806 Z M229.880597,68.238806 C229.303583,68.238806 228.835821,67.7710438 228.835821,67.1940299 C228.835821,66.6170159 229.303583,66.1492537 229.880597,66.1492537 C230.457611,66.1492537 230.925373,66.6170159 230.925373,67.1940299 C230.925373,67.7710438 230.457611,68.238806 229.880597,68.238806 Z M142.119403,30.6268657 C141.542389,30.6268657 141.074627,30.1591035 141.074627,29.5820896 C141.074627,29.0050756 141.542389,28.5373134 142.119403,28.5373134 C142.696417,28.5373134 143.164179,29.0050756 143.164179,29.5820896 C143.164179,30.1591035 142.696417,30.6268657 142.119403,30.6268657 Z M142.119403,105.850746 C141.542389,105.850746 141.074627,105.382984 141.074627,104.80597 C141.074627,104.228956 141.542389,103.761194 142.119403,103.761194 C142.696417,103.761194 143.164179,104.228956 143.164179,104.80597 C143.164179,105.382984 142.696417,105.850746 142.119403,105.850746 Z M217.343284,30.6268657 C216.76627,30.6268657 216.298507,30.1591035 216.298507,29.5820896 C216.298507,29.0050756 216.76627,28.5373134 217.343284,28.5373134 C217.920297,28.5373134 218.38806,29.0050756 218.38806,29.5820896 C218.38806,30.1591035 217.920297,30.6268657 217.343284,30.6268657 Z M217.343284,105.850746 C216.76627,105.850746 216.298507,105.382984 216.298507,104.80597 C216.298507,104.228956 216.76627,103.761194 217.343284,103.761194 C217.920297,103.761194 218.38806,104.228956 218.38806,104.80597 C218.38806,105.382984 217.920297,105.850746 217.343284,105.850746 Z M154.656716,30.6268657 C154.079703,30.6268657 153.61194,30.1591035 153.61194,29.5820896 C153.61194,29.0050756 154.079703,28.5373134 154.656716,28.5373134 C155.23373,28.5373134 155.701493,29.0050756 155.701493,29.5820896 C155.701493,30.1591035 155.23373,30.6268657 154.656716,30.6268657 Z M154.656716,105.850746 C154.079703,105.850746 153.61194,105.382984 153.61194,104.80597 C153.61194,104.228956 154.079703,103.761194 154.656716,103.761194 C155.23373,103.761194 155.701493,104.228956 155.701493,104.80597 C155.701493,105.382984 155.23373,105.850746 154.656716,105.850746 Z M229.880597,30.6268657 C229.303583,30.6268657 228.835821,30.1591035 228.835821,29.5820896 C228.835821,29.0050756 229.303583,28.5373134 229.880597,28.5373134 C230.457611,28.5373134 230.925373,29.0050756 230.925373,29.5820896 C230.925373,30.1591035 230.457611,30.6268657 229.880597,30.6268657 Z M229.880597,105.850746 C229.303583,105.850746 228.835821,105.382984 228.835821,104.80597 C228.835821,104.228956 229.303583,103.761194 229.880597,103.761194 C230.457611,103.761194 230.925373,104.228956 230.925373,104.80597 C230.925373,105.382984 230.457611,105.850746 229.880597,105.850746 Z M142.119403,55.7014925 C141.542389,55.7014925 141.074627,55.2337303 141.074627,54.6567164 C141.074627,54.0797025 141.542389,53.6119403 142.119403,53.6119403 C142.696417,53.6119403 143.164179,54.0797025 143.164179,54.6567164 C143.164179,55.2337303 142.696417,55.7014925 142.119403,55.7014925 Z M217.343284,55.7014925 C216.76627,55.7014925 216.298507,55.2337303 216.298507,54.6567164 C216.298507,54.0797025 216.76627,53.6119403 217.343284,53.6119403 C217.920297,53.6119403 218.38806,54.0797025 218.38806,54.6567164 C218.38806,55.2337303 217.920297,55.7014925 217.343284,55.7014925 Z M154.656716,55.7014925 C154.079703,55.7014925 153.61194,55.2337303 153.61194,54.6567164 C153.61194,54.0797025 154.079703,53.6119403 154.656716,53.6119403 C155.23373,53.6119403 155.701493,54.0797025 155.701493,54.6567164 C155.701493,55.2337303 155.23373,55.7014925 154.656716,55.7014925 Z M229.880597,55.7014925 C229.303583,55.7014925 228.835821,55.2337303 228.835821,54.6567164 C228.835821,54.0797025 229.303583,53.6119403 229.880597,53.6119403 C230.457611,53.6119403 230.925373,54.0797025 230.925373,54.6567164 C230.925373,55.2337303 230.457611,55.7014925 229.880597,55.7014925 Z M142.119403,80.7761194 C141.542389,80.7761194 141.074627,80.3083572 141.074627,79.7313433 C141.074627,79.1543294 141.542389,78.6865672 142.119403,78.6865672 C142.696417,78.6865672 143.164179,79.1543294 143.164179,79.7313433 C143.164179,80.3083572 142.696417,80.7761194 142.119403,80.7761194 Z M217.343284,80.7761194 C216.76627,80.7761194 216.298507,80.3083572 216.298507,79.7313433 C216.298507,79.1543294 216.76627,78.6865672 217.343284,78.6865672 C217.920297,78.6865672 218.38806,79.1543294 218.38806,79.7313433 C218.38806,80.3083572 217.920297,80.7761194 217.343284,80.7761194 Z M154.656716,80.7761194 C154.079703,80.7761194 153.61194,80.3083572 153.61194,79.7313433 C153.61194,79.1543294 154.079703,78.6865672 154.656716,78.6865672 C155.23373,78.6865672 155.701493,79.1543294 155.701493,79.7313433 C155.701493,80.3083572 155.23373,80.7761194 154.656716,80.7761194 Z M229.880597,80.7761194 C229.303583,80.7761194 228.835821,80.3083572 228.835821,79.7313433 C228.835821,79.1543294 229.303583,78.6865672 229.880597,78.6865672 C230.457611,78.6865672 230.925373,79.1543294 230.925373,79.7313433 C230.925373,80.3083572 230.457611,80.7761194 229.880597,80.7761194 Z M167.19403,18.0895522 C166.617016,18.0895522 166.149254,17.62179 166.149254,17.0447761 C166.149254,16.4677622 166.617016,16 167.19403,16 C167.771044,16 168.238806,16.4677622 168.238806,17.0447761 C168.238806,17.62179 167.771044,18.0895522 167.19403,18.0895522 Z M167.19403,93.3134328 C166.617016,93.3134328 166.149254,92.8456706 166.149254,92.2686567 C166.149254,91.6916428 166.617016,91.2238806 167.19403,91.2238806 C167.771044,91.2238806 168.238806,91.6916428 168.238806,92.2686567 C168.238806,92.8456706 167.771044,93.3134328 167.19403,93.3134328 Z M179.731343,18.0895522 C179.154329,18.0895522 178.686567,17.62179 178.686567,17.0447761 C178.686567,16.4677622 179.154329,16 179.731343,16 C180.308357,16 180.776119,16.4677622 180.776119,17.0447761 C180.776119,17.62179 180.308357,18.0895522 179.731343,18.0895522 Z M179.731343,93.3134328 C179.154329,93.3134328 178.686567,92.8456706 178.686567,92.2686567 C178.686567,91.6916428 179.154329,91.2238806 179.731343,91.2238806 C180.308357,91.2238806 180.776119,91.6916428 180.776119,92.2686567 C180.776119,92.8456706 180.308357,93.3134328 179.731343,93.3134328 Z M167.19403,43.1641791 C166.617016,43.1641791 166.149254,42.6964169 166.149254,42.119403 C166.149254,41.5423891 166.617016,41.0746269 167.19403,41.0746269 C167.771044,41.0746269 168.238806,41.5423891 168.238806,42.119403 C168.238806,42.6964169 167.771044,43.1641791 167.19403,43.1641791 Z M167.19403,118.38806 C166.617016,118.38806 166.149254,117.920297 166.149254,117.343284 C166.149254,116.76627 166.617016,116.298507 167.19403,116.298507 C167.771044,116.298507 168.238806,116.76627 168.238806,117.343284 C168.238806,117.920297 167.771044,118.38806 167.19403,118.38806 Z M179.731343,43.1641791 C179.154329,43.1641791 178.686567,42.6964169 178.686567,42.119403 C178.686567,41.5423891 179.154329,41.0746269 179.731343,41.0746269 C180.308357,41.0746269 180.776119,41.5423891 180.776119,42.119403 C180.776119,42.6964169 180.308357,43.1641791 179.731343,43.1641791 Z M179.731343,118.38806 C179.154329,118.38806 178.686567,117.920297 178.686567,117.343284 C178.686567,116.76627 179.154329,116.298507 179.731343,116.298507 C180.308357,116.298507 180.776119,116.76627 180.776119,117.343284 C180.776119,117.920297 180.308357,118.38806 179.731343,118.38806 Z M167.19403,68.238806 C166.617016,68.238806 166.149254,67.7710438 166.149254,67.1940299 C166.149254,66.6170159 166.617016,66.1492537 167.19403,66.1492537 C167.771044,66.1492537 168.238806,66.6170159 168.238806,67.1940299 C168.238806,67.7710438 167.771044,68.238806 167.19403,68.238806 Z M179.731343,68.238806 C179.154329,68.238806 178.686567,67.7710438 178.686567,67.1940299 C178.686567,66.6170159 179.154329,66.1492537 179.731343,66.1492537 C180.308357,66.1492537 180.776119,66.6170159 180.776119,67.1940299 C180.776119,67.7710438 180.308357,68.238806 179.731343,68.238806 Z M167.19403,30.6268657 C166.617016,30.6268657 166.149254,30.1591035 166.149254,29.5820896 C166.149254,29.0050756 166.617016,28.5373134 167.19403,28.5373134 C167.771044,28.5373134 168.238806,29.0050756 168.238806,29.5820896 C168.238806,30.1591035 167.771044,30.6268657 167.19403,30.6268657 Z M167.19403,105.850746 C166.617016,105.850746 166.149254,105.382984 166.149254,104.80597 C166.149254,104.228956 166.617016,103.761194 167.19403,103.761194 C167.771044,103.761194 168.238806,104.228956 168.238806,104.80597 C168.238806,105.382984 167.771044,105.850746 167.19403,105.850746 Z M179.731343,30.6268657 C179.154329,30.6268657 178.686567,30.1591035 178.686567,29.5820896 C178.686567,29.0050756 179.154329,28.5373134 179.731343,28.5373134 C180.308357,28.5373134 180.776119,29.0050756 180.776119,29.5820896 C180.776119,30.1591035 180.308357,30.6268657 179.731343,30.6268657 Z M179.731343,105.850746 C179.154329,105.850746 178.686567,105.382984 178.686567,104.80597 C178.686567,104.228956 179.154329,103.761194 179.731343,103.761194 C180.308357,103.761194 180.776119,104.228956 180.776119,104.80597 C180.776119,105.382984 180.308357,105.850746 179.731343,105.850746 Z M167.19403,55.7014925 C166.617016,55.7014925 166.149254,55.2337303 166.149254,54.6567164 C166.149254,54.0797025 166.617016,53.6119403 167.19403,53.6119403 C167.771044,53.6119403 168.238806,54.0797025 168.238806,54.6567164 C168.238806,55.2337303 167.771044,55.7014925 167.19403,55.7014925 Z M179.731343,55.7014925 C179.154329,55.7014925 178.686567,55.2337303 178.686567,54.6567164 C178.686567,54.0797025 179.154329,53.6119403 179.731343,53.6119403 C180.308357,53.6119403 180.776119,54.0797025 180.776119,54.6567164 C180.776119,55.2337303 180.308357,55.7014925 179.731343,55.7014925 Z M167.19403,80.7761194 C166.617016,80.7761194 166.149254,80.3083572 166.149254,79.7313433 C166.149254,79.1543294 166.617016,78.6865672 167.19403,78.6865672 C167.771044,78.6865672 168.238806,79.1543294 168.238806,79.7313433 C168.238806,80.3083572 167.771044,80.7761194 167.19403,80.7761194 Z M179.731343,80.7761194 C179.154329,80.7761194 178.686567,80.3083572 178.686567,79.7313433 C178.686567,79.1543294 179.154329,78.6865672 179.731343,78.6865672 C180.308357,78.6865672 180.776119,79.1543294 180.776119,79.7313433 C180.776119,80.3083572 180.308357,80.7761194 179.731343,80.7761194 Z M242.41791,18.0895522 C241.840897,18.0895522 241.373134,17.62179 241.373134,17.0447761 C241.373134,16.4677622 241.840897,16 242.41791,16 C242.994924,16 243.462687,16.4677622 243.462687,17.0447761 C243.462687,17.62179 242.994924,18.0895522 242.41791,18.0895522 Z M242.41791,93.3134328 C241.840897,93.3134328 241.373134,92.8456706 241.373134,92.2686567 C241.373134,91.6916428 241.840897,91.2238806 242.41791,91.2238806 C242.994924,91.2238806 243.462687,91.6916428 243.462687,92.2686567 C243.462687,92.8456706 242.994924,93.3134328 242.41791,93.3134328 Z M242.41791,43.1641791 C241.840897,43.1641791 241.373134,42.6964169 241.373134,42.119403 C241.373134,41.5423891 241.840897,41.0746269 242.41791,41.0746269 C242.994924,41.0746269 243.462687,41.5423891 243.462687,42.119403 C243.462687,42.6964169 242.994924,43.1641791 242.41791,43.1641791 Z M242.41791,118.38806 C241.840897,118.38806 241.373134,117.920297 241.373134,117.343284 C241.373134,116.76627 241.840897,116.298507 242.41791,116.298507 C242.994924,116.298507 243.462687,116.76627 243.462687,117.343284 C243.462687,117.920297 242.994924,118.38806 242.41791,118.38806 Z M242.41791,68.238806 C241.840897,68.238806 241.373134,67.7710438 241.373134,67.1940299 C241.373134,66.6170159 241.840897,66.1492537 242.41791,66.1492537 C242.994924,66.1492537 243.462687,66.6170159 243.462687,67.1940299 C243.462687,67.7710438 242.994924,68.238806 242.41791,68.238806 Z M242.41791,30.6268657 C241.840897,30.6268657 241.373134,30.1591035 241.373134,29.5820896 C241.373134,29.0050756 241.840897,28.5373134 242.41791,28.5373134 C242.994924,28.5373134 243.462687,29.0050756 243.462687,29.5820896 C243.462687,30.1591035 242.994924,30.6268657 242.41791,30.6268657 Z M242.41791,105.850746 C241.840897,105.850746 241.373134,105.382984 241.373134,104.80597 C241.373134,104.228956 241.840897,103.761194 242.41791,103.761194 C242.994924,103.761194 243.462687,104.228956 243.462687,104.80597 C243.462687,105.382984 242.994924,105.850746 242.41791,105.850746 Z M242.41791,55.7014925 C241.840897,55.7014925 241.373134,55.2337303 241.373134,54.6567164 C241.373134,54.0797025 241.840897,53.6119403 242.41791,53.6119403 C242.994924,53.6119403 243.462687,54.0797025 243.462687,54.6567164 C243.462687,55.2337303 242.994924,55.7014925 242.41791,55.7014925 Z M242.41791,80.7761194 C241.840897,80.7761194 241.373134,80.3083572 241.373134,79.7313433 C241.373134,79.1543294 241.840897,78.6865672 242.41791,78.6865672 C242.994924,78.6865672 243.462687,79.1543294 243.462687,79.7313433 C243.462687,80.3083572 242.994924,80.7761194 242.41791,80.7761194 Z M254.955224,18.0895522 C254.37821,18.0895522 253.910448,17.62179 253.910448,17.0447761 C253.910448,16.4677622 254.37821,16 254.955224,16 C255.532238,16 256,16.4677622 256,17.0447761 C256,17.62179 255.532238,18.0895522 254.955224,18.0895522 Z M254.955224,43.1641791 C254.37821,43.1641791 253.910448,42.6964169 253.910448,42.119403 C253.910448,41.5423891 254.37821,41.0746269 254.955224,41.0746269 C255.532238,41.0746269 256,41.5423891 256,42.119403 C256,42.6964169 255.532238,43.1641791 254.955224,43.1641791 Z M254.955224,68.238806 C254.37821,68.238806 253.910448,67.7710438 253.910448,67.1940299 C253.910448,66.6170159 254.37821,66.1492537 254.955224,66.1492537 C255.532238,66.1492537 256,66.6170159 256,67.1940299 C256,67.7710438 255.532238,68.238806 254.955224,68.238806 Z M254.955224,30.6268657 C254.37821,30.6268657 253.910448,30.1591035 253.910448,29.5820896 C253.910448,29.0050756 254.37821,28.5373134 254.955224,28.5373134 C255.532238,28.5373134 256,29.0050756 256,29.5820896 C256,30.1591035 255.532238,30.6268657 254.955224,30.6268657 Z M254.955224,55.7014925 C254.37821,55.7014925 253.910448,55.2337303 253.910448,54.6567164 C253.910448,54.0797025 254.37821,53.6119403 254.955224,53.6119403 C255.532238,53.6119403 256,54.0797025 256,54.6567164 C256,55.2337303 255.532238,55.7014925 254.955224,55.7014925 Z M254.955224,80.7761194 C254.37821,80.7761194 253.910448,80.3083572 253.910448,79.7313433 C253.910448,79.1543294 254.37821,78.6865672 254.955224,78.6865672 C255.532238,78.6865672 256,79.1543294 256,79.7313433 C256,80.3083572 255.532238,80.7761194 254.955224,80.7761194 Z M117.044776,93.3134328 C116.467762,93.3134328 116,92.8456706 116,92.2686567 C116,91.6916428 116.467762,91.2238806 117.044776,91.2238806 C117.62179,91.2238806 118.089552,91.6916428 118.089552,92.2686567 C118.089552,92.8456706 117.62179,93.3134328 117.044776,93.3134328 Z M117.044776,118.38806 C116.467762,118.38806 116,117.920297 116,117.343284 C116,116.76627 116.467762,116.298507 117.044776,116.298507 C117.62179,116.298507 118.089552,116.76627 118.089552,117.343284 C118.089552,117.920297 117.62179,118.38806 117.044776,118.38806 Z M117.044776,143.462687 C116.467762,143.462687 116,142.994924 116,142.41791 C116,141.840897 116.467762,141.373134 117.044776,141.373134 C117.62179,141.373134 118.089552,141.840897 118.089552,142.41791 C118.089552,142.994924 117.62179,143.462687 117.044776,143.462687 Z M192.268657,143.462687 C191.691643,143.462687 191.223881,142.994924 191.223881,142.41791 C191.223881,141.840897 191.691643,141.373134 192.268657,141.373134 C192.845671,141.373134 193.313433,141.840897 193.313433,142.41791 C193.313433,142.994924 192.845671,143.462687 192.268657,143.462687 Z M129.58209,143.462687 C129.005076,143.462687 128.537313,142.994924 128.537313,142.41791 C128.537313,141.840897 129.005076,141.373134 129.58209,141.373134 C130.159103,141.373134 130.626866,141.840897 130.626866,142.41791 C130.626866,142.994924 130.159103,143.462687 129.58209,143.462687 Z M204.80597,143.462687 C204.228956,143.462687 203.761194,142.994924 203.761194,142.41791 C203.761194,141.840897 204.228956,141.373134 204.80597,141.373134 C205.382984,141.373134 205.850746,141.840897 205.850746,142.41791 C205.850746,142.994924 205.382984,143.462687 204.80597,143.462687 Z M117.044776,105.850746 C116.467762,105.850746 116,105.382984 116,104.80597 C116,104.228956 116.467762,103.761194 117.044776,103.761194 C117.62179,103.761194 118.089552,104.228956 118.089552,104.80597 C118.089552,105.382984 117.62179,105.850746 117.044776,105.850746 Z M117.044776,130.925373 C116.467762,130.925373 116,130.457611 116,129.880597 C116,129.303583 116.467762,128.835821 117.044776,128.835821 C117.62179,128.835821 118.089552,129.303583 118.089552,129.880597 C118.089552,130.457611 117.62179,130.925373 117.044776,130.925373 Z M192.268657,130.925373 C191.691643,130.925373 191.223881,130.457611 191.223881,129.880597 C191.223881,129.303583 191.691643,128.835821 192.268657,128.835821 C192.845671,128.835821 193.313433,129.303583 193.313433,129.880597 C193.313433,130.457611 192.845671,130.925373 192.268657,130.925373 Z M129.58209,130.925373 C129.005076,130.925373 128.537313,130.457611 128.537313,129.880597 C128.537313,129.303583 129.005076,128.835821 129.58209,128.835821 C130.159103,128.835821 130.626866,129.303583 130.626866,129.880597 C130.626866,130.457611 130.159103,130.925373 129.58209,130.925373 Z M204.80597,130.925373 C204.228956,130.925373 203.761194,130.457611 203.761194,129.880597 C203.761194,129.303583 204.228956,128.835821 204.80597,128.835821 C205.382984,128.835821 205.850746,129.303583 205.850746,129.880597 C205.850746,130.457611 205.382984,130.925373 204.80597,130.925373 Z M142.119403,143.462687 C141.542389,143.462687 141.074627,142.994924 141.074627,142.41791 C141.074627,141.840897 141.542389,141.373134 142.119403,141.373134 C142.696417,141.373134 143.164179,141.840897 143.164179,142.41791 C143.164179,142.994924 142.696417,143.462687 142.119403,143.462687 Z M217.343284,143.462687 C216.76627,143.462687 216.298507,142.994924 216.298507,142.41791 C216.298507,141.840897 216.76627,141.373134 217.343284,141.373134 C217.920297,141.373134 218.38806,141.840897 218.38806,142.41791 C218.38806,142.994924 217.920297,143.462687 217.343284,143.462687 Z M154.656716,143.462687 C154.079703,143.462687 153.61194,142.994924 153.61194,142.41791 C153.61194,141.840897 154.079703,141.373134 154.656716,141.373134 C155.23373,141.373134 155.701493,141.840897 155.701493,142.41791 C155.701493,142.994924 155.23373,143.462687 154.656716,143.462687 Z M229.880597,143.462687 C229.303583,143.462687 228.835821,142.994924 228.835821,142.41791 C228.835821,141.840897 229.303583,141.373134 229.880597,141.373134 C230.457611,141.373134 230.925373,141.840897 230.925373,142.41791 C230.925373,142.994924 230.457611,143.462687 229.880597,143.462687 Z M142.119403,130.925373 C141.542389,130.925373 141.074627,130.457611 141.074627,129.880597 C141.074627,129.303583 141.542389,128.835821 142.119403,128.835821 C142.696417,128.835821 143.164179,129.303583 143.164179,129.880597 C143.164179,130.457611 142.696417,130.925373 142.119403,130.925373 Z M217.343284,130.925373 C216.76627,130.925373 216.298507,130.457611 216.298507,129.880597 C216.298507,129.303583 216.76627,128.835821 217.343284,128.835821 C217.920297,128.835821 218.38806,129.303583 218.38806,129.880597 C218.38806,130.457611 217.920297,130.925373 217.343284,130.925373 Z M154.656716,130.925373 C154.079703,130.925373 153.61194,130.457611 153.61194,129.880597 C153.61194,129.303583 154.079703,128.835821 154.656716,128.835821 C155.23373,128.835821 155.701493,129.303583 155.701493,129.880597 C155.701493,130.457611 155.23373,130.925373 154.656716,130.925373 Z M229.880597,130.925373 C229.303583,130.925373 228.835821,130.457611 228.835821,129.880597 C228.835821,129.303583 229.303583,128.835821 229.880597,128.835821 C230.457611,128.835821 230.925373,129.303583 230.925373,129.880597 C230.925373,130.457611 230.457611,130.925373 229.880597,130.925373 Z M167.19403,143.462687 C166.617016,143.462687 166.149254,142.994924 166.149254,142.41791 C166.149254,141.840897 166.617016,141.373134 167.19403,141.373134 C167.771044,141.373134 168.238806,141.840897 168.238806,142.41791 C168.238806,142.994924 167.771044,143.462687 167.19403,143.462687 Z M179.731343,143.462687 C179.154329,143.462687 178.686567,142.994924 178.686567,142.41791 C178.686567,141.840897 179.154329,141.373134 179.731343,141.373134 C180.308357,141.373134 180.776119,141.840897 180.776119,142.41791 C180.776119,142.994924 180.308357,143.462687 179.731343,143.462687 Z M167.19403,130.925373 C166.617016,130.925373 166.149254,130.457611 166.149254,129.880597 C166.149254,129.303583 166.617016,128.835821 167.19403,128.835821 C167.771044,128.835821 168.238806,129.303583 168.238806,129.880597 C168.238806,130.457611 167.771044,130.925373 167.19403,130.925373 Z M179.731343,130.925373 C179.154329,130.925373 178.686567,130.457611 178.686567,129.880597 C178.686567,129.303583 179.154329,128.835821 179.731343,128.835821 C180.308357,128.835821 180.776119,129.303583 180.776119,129.880597 C180.776119,130.457611 180.308357,130.925373 179.731343,130.925373 Z M242.41791,143.462687 C241.840897,143.462687 241.373134,142.994924 241.373134,142.41791 C241.373134,141.840897 241.840897,141.373134 242.41791,141.373134 C242.994924,141.373134 243.462687,141.840897 243.462687,142.41791 C243.462687,142.994924 242.994924,143.462687 242.41791,143.462687 Z M242.41791,130.925373 C241.840897,130.925373 241.373134,130.457611 241.373134,129.880597 C241.373134,129.303583 241.840897,128.835821 242.41791,128.835821 C242.994924,128.835821 243.462687,129.303583 243.462687,129.880597 C243.462687,130.457611 242.994924,130.925373 242.41791,130.925373 Z M254.955224,93.3134328 C254.37821,93.3134328 253.910448,92.8456706 253.910448,92.2686567 C253.910448,91.6916428 254.37821,91.2238806 254.955224,91.2238806 C255.532238,91.2238806 256,91.6916428 256,92.2686567 C256,92.8456706 255.532238,93.3134328 254.955224,93.3134328 Z M254.955224,118.38806 C254.37821,118.38806 253.910448,117.920297 253.910448,117.343284 C253.910448,116.76627 254.37821,116.298507 254.955224,116.298507 C255.532238,116.298507 256,116.76627 256,117.343284 C256,117.920297 255.532238,118.38806 254.955224,118.38806 Z M254.955224,143.462687 C254.37821,143.462687 253.910448,142.994924 253.910448,142.41791 C253.910448,141.840897 254.37821,141.373134 254.955224,141.373134 C255.532238,141.373134 256,141.840897 256,142.41791 C256,142.994924 255.532238,143.462687 254.955224,143.462687 Z M254.955224,105.850746 C254.37821,105.850746 253.910448,105.382984 253.910448,104.80597 C253.910448,104.228956 254.37821,103.761194 254.955224,103.761194 C255.532238,103.761194 256,104.228956 256,104.80597 C256,105.382984 255.532238,105.850746 254.955224,105.850746 Z M254.955224,130.925373 C254.37821,130.925373 253.910448,130.457611 253.910448,129.880597 C253.910448,129.303583 254.37821,128.835821 254.955224,128.835821 C255.532238,128.835821 256,129.303583 256,129.880597 C256,130.457611 255.532238,130.925373 254.955224,130.925373 Z M117.044776,156 C116.467762,156 116,155.532238 116,154.955224 C116,154.37821 116.467762,153.910448 117.044776,153.910448 C117.62179,153.910448 118.089552,154.37821 118.089552,154.955224 C118.089552,155.532238 117.62179,156 117.044776,156 Z M192.268657,156 C191.691643,156 191.223881,155.532238 191.223881,154.955224 C191.223881,154.37821 191.691643,153.910448 192.268657,153.910448 C192.845671,153.910448 193.313433,154.37821 193.313433,154.955224 C193.313433,155.532238 192.845671,156 192.268657,156 Z M129.58209,156 C129.005076,156 128.537313,155.532238 128.537313,154.955224 C128.537313,154.37821 129.005076,153.910448 129.58209,153.910448 C130.159103,153.910448 130.626866,154.37821 130.626866,154.955224 C130.626866,155.532238 130.159103,156 129.58209,156 Z M204.80597,156 C204.228956,156 203.761194,155.532238 203.761194,154.955224 C203.761194,154.37821 204.228956,153.910448 204.80597,153.910448 C205.382984,153.910448 205.850746,154.37821 205.850746,154.955224 C205.850746,155.532238 205.382984,156 204.80597,156 Z M142.119403,156 C141.542389,156 141.074627,155.532238 141.074627,154.955224 C141.074627,154.37821 141.542389,153.910448 142.119403,153.910448 C142.696417,153.910448 143.164179,154.37821 143.164179,154.955224 C143.164179,155.532238 142.696417,156 142.119403,156 Z M217.343284,156 C216.76627,156 216.298507,155.532238 216.298507,154.955224 C216.298507,154.37821 216.76627,153.910448 217.343284,153.910448 C217.920297,153.910448 218.38806,154.37821 218.38806,154.955224 C218.38806,155.532238 217.920297,156 217.343284,156 Z M154.656716,156 C154.079703,156 153.61194,155.532238 153.61194,154.955224 C153.61194,154.37821 154.079703,153.910448 154.656716,153.910448 C155.23373,153.910448 155.701493,154.37821 155.701493,154.955224 C155.701493,155.532238 155.23373,156 154.656716,156 Z M229.880597,156 C229.303583,156 228.835821,155.532238 228.835821,154.955224 C228.835821,154.37821 229.303583,153.910448 229.880597,153.910448 C230.457611,153.910448 230.925373,154.37821 230.925373,154.955224 C230.925373,155.532238 230.457611,156 229.880597,156 Z M167.19403,156 C166.617016,156 166.149254,155.532238 166.149254,154.955224 C166.149254,154.37821 166.617016,153.910448 167.19403,153.910448 C167.771044,153.910448 168.238806,154.37821 168.238806,154.955224 C168.238806,155.532238 167.771044,156 167.19403,156 Z M179.731343,156 C179.154329,156 178.686567,155.532238 178.686567,154.955224 C178.686567,154.37821 179.154329,153.910448 179.731343,153.910448 C180.308357,153.910448 180.776119,154.37821 180.776119,154.955224 C180.776119,155.532238 180.308357,156 179.731343,156 Z M242.41791,156 C241.840897,156 241.373134,155.532238 241.373134,154.955224 C241.373134,154.37821 241.840897,153.910448 242.41791,153.910448 C242.994924,153.910448 243.462687,154.37821 243.462687,154.955224 C243.462687,155.532238 242.994924,156 242.41791,156 Z M254.955224,156 C254.37821,156 253.910448,155.532238 253.910448,154.955224 C253.910448,154.37821 254.37821,153.910448 254.955224,153.910448 C255.532238,153.910448 256,154.37821 256,154.955224 C256,155.532238 255.532238,156 254.955224,156 Z" id="Shape" fill="#9A9FC2" opacity="0.5"></path>
        <path d="M95.1583815,80.9601078 C81.1698262,72.8123058 76.3572331,54.8029045 84.4086517,40.7346267 C92.4609983,26.6650128 110.328393,21.8648452 124.316748,30.0115101" id="Path" fill="#6899E4" fill-rule="nonzero" opacity="0.199999988"></path>
        <path d="M54,137.783847 C58.8245104,132.118303 67.39597,131.379387 73.1450938,136.133235 C78.8947506,140.887607 79.6445668,149.334456 74.8205893,155" id="Path" fill="#D99938" fill-rule="nonzero" style="mix-blend-mode: multiply;" opacity="0.3"></path>
        <path d="M245.538187,111.825212 L245.453917,111.839734 L245.413235,111.848448 C221.277017,116.56422 205.428526,139.732409 209.692897,163.851685 L209.837006,164.623509 C214.497396,188.722832 237.638564,204.563832 261.731452,200.30986 L262.586765,200.151552 C286.722983,195.43578 302.571474,172.267591 298.307103,148.148315 L298.162994,147.376491 C293.452623,123.03374 269.889147,107.116991 245.538187,111.825212 Z" id="Path-Copy" fill="#1E8985" fill-rule="nonzero" style="mix-blend-mode: multiply;" opacity="0.1"></path>
    </g>
</svg>