<svg xmlns="http://www.w3.org/2000/svg" width="880" height="275" viewBox="0 0 880 275">
    <g fill="none" fill-rule="evenodd">
        <g>
            <g>
                <g>
                    <path fill="#6899E4" fill-rule="nonzero" d="M225.667 148c10.816 9.046 12.227 25.117 3.151 35.897-9.076 10.78-25.202 12.187-36.018 3.142" opacity=".276" transform="translate(-200 -1457) translate(200 1457) translate(644.2 45.582)"/>
                    <path fill="#6899E4" d="M76.5 225.2c.828 0 1.5.672 1.5 1.5s-.672 1.5-1.5 1.5-1.5-.672-1.5-1.5.672-1.5 1.5-1.5zm14.024-1.35c.814-.158 1.601.373 1.76 1.186.157.813-.374 1.6-1.187 1.758-.813.159-1.6-.373-1.759-1.186-.158-.813.373-1.6 1.186-1.758zm-30.446 1.045c.165-.811.957-1.336 1.768-1.17.812.165 1.336.957 1.171 1.768-.165.812-.957 1.336-1.769 1.171-.811-.165-1.336-.957-1.17-1.769zm-13.665-4.478c.317-.765 1.194-1.129 1.96-.812.765.317 1.129 1.195.812 1.96-.317.765-1.195 1.129-1.96.812-.766-.317-1.13-1.195-.812-1.96zm58.214-.812c.766-.317 1.643.047 1.96.812.317.765-.046 1.643-.812 1.96-.765.317-1.643-.047-1.96-.812-.317-.765.047-1.643.812-1.96zm12.44-6.614c.691-.458 1.622-.268 2.08.423.456.69.267 1.621-.424 2.078-.69.458-1.621.268-2.079-.423-.457-.69-.267-1.621.423-2.078zm-83.75.048c.463-.687 1.396-.868 2.082-.405.687.464.868 1.396.405 2.083-.463.686-1.395.868-2.082.404-.687-.463-.868-1.395-.405-2.082zM76.5 210.2c.828 0 1.5.672 1.5 1.5s-.672 1.5-1.5 1.5-1.5-.672-1.5-1.5.672-1.5 1.5-1.5zm11.162-1.075c.814-.158 1.6.373 1.759 1.186.158.814-.373 1.601-1.186 1.76-.813.157-1.6-.374-1.759-1.187-.158-.813.373-1.6 1.186-1.759zm-24.594 1.071c.165-.811.957-1.336 1.769-1.17.812.165 1.336.957 1.17 1.769-.164.811-.956 1.336-1.768 1.17-.812-.165-1.336-.957-1.171-1.769zm35.819-4.449c.765-.317 1.643.046 1.96.812.317.765-.047 1.643-.812 1.96-.765.317-1.643-.047-1.96-.812-.317-.766.047-1.643.812-1.96zm-46.734.812c.317-.766 1.195-1.13 1.96-.812.765.317 1.129 1.194.812 1.96-.317.765-1.195 1.129-1.96.812-.765-.317-1.129-1.195-.812-1.96zm-29.747-2.887c.586-.585 1.536-.585 2.122 0 .585.586.585 1.536 0 2.122-.586.585-1.536.585-2.122 0-.585-.586-.585-1.536 0-2.122zm106.066 0c.586-.585 1.536-.585 2.122 0 .585.586.585 1.536 0 2.122-.586.585-1.536.585-2.122 0-.585-.586-.585-1.536 0-2.122zm-19.684-3.19c.691-.457 1.622-.268 2.079.423.457.691.268 1.622-.423 2.079-.69.457-1.621.268-2.079-.423-.457-.69-.267-1.621.423-2.079zm-67.083.121c.463-.686 1.395-.868 2.082-.404.687.463.868 1.395.405 2.082-.463.687-1.396.868-2.082.405-.687-.463-.868-1.396-.405-2.083zM76.5 195.2c.828 0 1.5.672 1.5 1.5s-.672 1.5-1.5 1.5-1.5-.672-1.5-1.5.672-1.5 1.5-1.5zm10.119.393c.158.813-.373 1.6-1.187 1.759-.813.158-1.6-.373-1.758-1.187-.158-.813.373-1.6 1.186-1.758.813-.158 1.6.373 1.759 1.186zm-18.732-1.26c.812.165 1.336.957 1.171 1.769-.165.811-.957 1.336-1.769 1.17-.812-.165-1.336-.957-1.17-1.768.165-.812.957-1.336 1.768-1.171zm-34.874-1.267c.586-.586 1.535-.586 2.121 0 .586.586.586 1.535 0 2.121-.586.586-1.535.586-2.121 0-.586-.586-.586-1.535 0-2.121zm84.853 0c.586-.586 1.535-.586 2.121 0 .586.586.586 1.535 0 2.121-.586.586-1.535.586-2.121 0-.586-.586-.586-1.535 0-2.121zm19.568-.265c.464-.687 1.396-.868 2.083-.405.686.463.868 1.395.404 2.082-.463.687-1.395.868-2.082.405-.687-.463-.868-1.396-.405-2.082zm-42.327-.1c.317.765-.047 1.642-.812 1.96-.766.316-1.643-.047-1.96-.812-.317-.766.046-1.643.812-1.96.765-.317 1.643.046 1.96.812zm-35.254-.812c.766.317 1.13 1.194.812 1.96-.317.765-1.194 1.128-1.96.811-.765-.317-1.129-1.194-.812-1.96.317-.765 1.195-1.128 1.96-.811zm-46.722-.045c.69-.457 1.621-.267 2.078.423.458.691.268 1.622-.423 2.08-.69.456-1.621.267-2.078-.424-.458-.69-.268-1.621.423-2.079zm89.517-3.441c.457.69.268 1.621-.423 2.079-.69.457-1.622.268-2.079-.423-.457-.691-.268-1.622.423-2.079.69-.457 1.622-.268 2.079.423zm-50.413-.634c.687.463.868 1.396.405 2.083-.464.686-1.396.868-2.083.404-.686-.463-.868-1.395-.404-2.082.463-.687 1.395-.868 2.082-.405zm72.764-3.356c.463-.687 1.395-.868 2.082-.405.687.463.868 1.396.405 2.082-.463.687-1.396.868-2.083.405-.686-.463-.868-1.395-.404-2.082zm-99.36-.848c.69-.457 1.621-.267 2.079.423.457.691.268 1.622-.423 2.079-.691.457-1.622.268-2.079-.423-.457-.69-.268-1.621.423-2.079zm83.741-1.106c.586.586.586 1.536 0 2.121-.585.586-1.535.586-2.12 0-.587-.585-.587-1.535 0-2.12.585-.587 1.535-.587 2.12 0zm-63.64 0c.587.586.587 1.536 0 2.121-.585.586-1.535.586-2.12 0-.586-.585-.586-1.535 0-2.12.585-.587 1.535-.587 2.12 0zM76.5 180.2c.828 0 1.5.672 1.5 1.5s-.672 1.5-1.5 1.5-1.5-.672-1.5-1.5.672-1.5 1.5-1.5zm6.949.662c.15.814-.387 1.597-1.202 1.748-.815.151-1.597-.387-1.748-1.201-.151-.815.387-1.598 1.201-1.749.815-.15 1.598.387 1.749 1.202zm-12.868-1.347c.81.172 1.328.969 1.155 1.779-.172.81-.968 1.328-1.779 1.155-.81-.172-1.327-.968-1.155-1.779.172-.81.969-1.327 1.78-1.155zm73.824.312c.317-.765 1.195-1.129 1.96-.812.765.317 1.129 1.195.812 1.96-.317.766-1.195 1.13-1.96.812-.765-.317-1.129-1.194-.812-1.96zm-137.77-.812c.765-.317 1.643.047 1.96.812.317.766-.047 1.643-.812 1.96-.765.317-1.643-.046-1.96-.812-.317-.765.047-1.643.812-1.96zm82.731-.173c.317.766-.046 1.643-.811 1.96-.766.317-1.643-.046-1.96-.812-.317-.765.046-1.642.811-1.96.766-.316 1.643.047 1.96.812zm-23.772-.811c.765.317 1.128 1.194.811 1.96-.317.765-1.194 1.128-1.96.811-.765-.317-1.128-1.194-.811-1.96.317-.765 1.194-1.128 1.96-.811zm49.111-2.405c.687.463.868 1.396.405 2.082-.463.687-1.395.869-2.082.405-.687-.463-.868-1.395-.405-2.082.463-.687 1.395-.868 2.082-.405zm-20.601.355c.45.695.253 1.624-.441 2.075-.695.45-1.624.253-2.075-.441-.451-.695-.254-1.624.44-2.075.696-.451 1.625-.254 2.076.44zm-53.818-.266c.457.691.268 1.622-.423 2.079-.691.457-1.622.268-2.079-.423-.457-.69-.268-1.621.423-2.079.69-.457 1.622-.268 2.079.423zm20.078-.59c.683.47.856 1.403.387 2.086-.47.683-1.404.856-2.086.387-.683-.47-.856-1.403-.387-2.086.47-.683 1.403-.856 2.086-.387zm70.183-1.038c.317-.765 1.194-1.129 1.96-.812.765.317 1.129 1.195.812 1.96-.317.765-1.195 1.129-1.96.812-.766-.317-1.13-1.195-.812-1.96zm-110.054-.812c.766-.317 1.643.047 1.96.812.317.765-.046 1.643-.812 1.96-.765.317-1.643-.047-1.96-.812-.317-.765.047-1.643.812-1.96zm35.854-1.422c.586.585.586 1.535 0 2.12-.585.587-1.535.587-2.12 0-.587-.585-.587-1.535 0-2.12.585-.586 1.535-.586 2.12 0zm42.427 0c.586.585.586 1.535 0 2.12-.586.587-1.536.587-2.121 0-.586-.585-.586-1.535 0-2.12.585-.586 1.535-.586 2.12 0zm-62.463-3.506c.317.765-.046 1.643-.812 1.96-.765.317-1.642-.047-1.96-.812-.316-.766.047-1.643.812-1.96.766-.317 1.643.046 1.96.812zm82.338-.812c.765.317 1.128 1.194.811 1.96-.317.765-1.194 1.129-1.96.812-.765-.317-1.128-1.195-.811-1.96.317-.766 1.194-1.13 1.96-.812zm-16.569-.141c.683.469.856 1.403.387 2.085-.47.683-1.404.856-2.086.387-.683-.47-.856-1.403-.387-2.086.47-.683 1.403-.856 2.086-.386zm-49.476-.234c.452.695.254 1.624-.44 2.075-.695.451-1.624.254-2.076-.441-.45-.695-.253-1.624.441-2.075.695-.451 1.624-.254 2.075.44zM76.5 165.2c.828 0 1.5.672 1.5 1.5s-.672 1.5-1.5 1.5-1.5-.672-1.5-1.5.672-1.5 1.5-1.5zm72.024 1.154c.166-.812.958-1.336 1.77-1.171.811.165 1.335.957 1.17 1.769-.165.811-.957 1.336-1.769 1.17-.811-.165-1.336-.957-1.17-1.768zM2.592 164.538c.813-.158 1.6.373 1.758 1.186.158.814-.373 1.601-1.186 1.76-.813.157-1.6-.374-1.758-1.187-.159-.813.373-1.6 1.186-1.759zm66.782.446c.317-.765 1.194-1.129 1.96-.812.765.317 1.129 1.195.812 1.96-.317.766-1.195 1.129-1.96.812-.766-.317-1.13-1.194-.812-1.96zm12.292-.812c.766-.317 1.643.047 1.96.812.317.766-.046 1.643-.812 1.96-.765.317-1.643-.046-1.96-.812-.317-.765.047-1.643.812-1.96zm52.16-.809c.165-.812.957-1.336 1.769-1.17.811.164 1.336.956 1.17 1.768-.165.812-.957 1.336-1.769 1.171-.811-.165-1.336-.957-1.17-1.769zm-29.036-1.568c.766.317 1.13 1.194.812 1.96-.317.765-1.194 1.128-1.96.811-.765-.317-1.128-1.194-.811-1.96.317-.765 1.194-1.128 1.96-.811zm-54.62.811c.316.766-.047 1.643-.812 1.96-.766.317-1.643-.046-1.96-.811-.317-.766.046-1.643.812-1.96.765-.317 1.642.046 1.96.811zm-32.854-.93c.813-.158 1.6.373 1.759 1.186.158.814-.373 1.6-1.186 1.759-.814.158-1.601-.373-1.76-1.186-.157-.813.374-1.6 1.187-1.759zm47.517-.43c.586-.586 1.535-.586 2.121 0 .586.586.586 1.535 0 2.121-.586.586-1.535.586-2.121 0-.586-.586-.586-1.535 0-2.121zm21.213 0c.586-.586 1.535-.586 2.121 0 .586.586.586 1.535 0 2.121-.586.586-1.535.586-2.121 0-.586-.586-.586-1.535 0-2.121zm34.91-2.038c.811.165 1.335.957 1.17 1.769-.165.811-.957 1.336-1.769 1.17-.811-.165-1.336-.957-1.17-1.768.165-.812.957-1.336 1.768-1.171zm-87.097.798c.158.813-.373 1.6-1.186 1.759-.813.158-1.6-.373-1.759-1.186-.158-.814.373-1.6 1.186-1.759.814-.158 1.601.373 1.759 1.186zm72.304-3.598c.81.172 1.327.969 1.155 1.779-.172.81-.969 1.327-1.779 1.155-.81-.172-1.327-.969-1.155-1.779.172-.81.969-1.327 1.779-1.155zm-17.19.458c.316-.765 1.194-1.129 1.96-.812.765.317 1.128 1.195.811 1.96-.317.766-1.194 1.13-1.96.812-.765-.317-1.129-1.194-.812-1.96zm-26.905-.812c.765-.317 1.643.047 1.96.812.317.766-.047 1.643-.812 1.96-.766.317-1.643-.046-1.96-.812-.317-.765.046-1.643.812-1.96zm-13.584.777c.15.815-.387 1.598-1.202 1.749-.814.15-1.597-.387-1.748-1.202-.15-.815.387-1.597 1.202-1.748.814-.151 1.597.387 1.748 1.201zM1.5 150.2c.828 0 1.5.672 1.5 1.5s-.672 1.5-1.5 1.5-1.5-.672-1.5-1.5.672-1.5 1.5-1.5zm90 0c.828 0 1.5.672 1.5 1.5s-.672 1.5-1.5 1.5-1.5-.672-1.5-1.5.672-1.5 1.5-1.5zm-30 0c.828 0 1.5.672 1.5 1.5s-.672 1.5-1.5 1.5-1.5-.672-1.5-1.5.672-1.5 1.5-1.5zm60 0c.828 0 1.5.672 1.5 1.5s-.672 1.5-1.5 1.5-1.5-.672-1.5-1.5.672-1.5 1.5-1.5zm15 0c.828 0 1.5.672 1.5 1.5s-.672 1.5-1.5 1.5-1.5-.672-1.5-1.5.672-1.5 1.5-1.5zm-105 0c.828 0 1.5.672 1.5 1.5s-.672 1.5-1.5 1.5-1.5-.672-1.5-1.5.672-1.5 1.5-1.5zm120 0c.828 0 1.5.672 1.5 1.5s-.672 1.5-1.5 1.5-1.5-.672-1.5-1.5.672-1.5 1.5-1.5zm-135 0c.828 0 1.5.672 1.5 1.5s-.672 1.5-1.5 1.5-1.5-.672-1.5-1.5.672-1.5 1.5-1.5zm30 0c.828 0 1.5.672 1.5 1.5s-.672 1.5-1.5 1.5-1.5-.672-1.5-1.5.672-1.5 1.5-1.5zm60 0c.828 0 1.5.672 1.5 1.5s-.672 1.5-1.5 1.5-1.5-.672-1.5-1.5.672-1.5 1.5-1.5zm-30 0c.828 0 1.5.672 1.5 1.5s-.672 1.5-1.5 1.5-1.5-.672-1.5-1.5.672-1.5 1.5-1.5zm30.98-4.303c.15.815-.388 1.597-1.202 1.748-.815.151-1.598-.387-1.749-1.201-.15-.815.387-1.597 1.202-1.748.814-.151 1.597.387 1.748 1.201zm-17.696-1.323c.766-.317 1.643.046 1.96.812.317.765-.046 1.643-.812 1.96-.765.317-1.643-.047-1.96-.812-.317-.766.047-1.643.812-1.96zm-28.528.812c.317-.766 1.194-1.13 1.96-.812.765.317 1.129 1.194.812 1.96-.317.765-1.195 1.129-1.96.812-.766-.317-1.129-1.195-.812-1.96zm-15.561-.298c.172-.81.969-1.327 1.779-1.155.81.172 1.328.969 1.155 1.78-.172.81-.968 1.327-1.779 1.154-.81-.172-1.327-.968-1.155-1.779zm76.51-2.255c.159.814-.373 1.601-1.186 1.76-.813.157-1.6-.374-1.758-1.187-.158-.813.373-1.6 1.186-1.759.813-.158 1.6.373 1.758 1.186zm-89.443-1.568c.812.165 1.336.957 1.171 1.769-.165.811-.957 1.336-1.769 1.17-.812-.165-1.336-.957-1.17-1.769.164-.811.956-1.336 1.768-1.17zm32.07-1.232c.587-.586 1.536-.586 2.122 0 .586.586.586 1.535 0 2.121-.586.586-1.535.586-2.121 0-.586-.586-.586-1.535 0-2.121zm21.214 0c.586-.586 1.535-.586 2.121 0 .586.586.586 1.535 0 2.121-.586.586-1.535.586-2.121 0-.586-.586-.586-1.535 0-2.121zm49.065-1.254c.814-.158 1.601.373 1.76 1.186.157.813-.374 1.6-1.187 1.759-.813.158-1.6-.373-1.759-1.186-.158-.814.373-1.6 1.186-1.759zm-85.753.055c.765.317 1.128 1.194.811 1.96-.317.765-1.194 1.128-1.96.811-.765-.317-1.128-1.194-.811-1.96.317-.765 1.194-1.128 1.96-.811zm56.244.811c.317.766-.046 1.643-.812 1.96-.765.317-1.642-.046-1.96-.811-.316-.766.047-1.643.812-1.96.766-.317 1.643.046 1.96.811zm-89.367-.206c.165-.812.957-1.336 1.769-1.171.811.165 1.336.957 1.17 1.769-.165.812-.957 1.336-1.769 1.17-.811-.164-1.336-.956-1.17-1.768zm64.62-2.171c.316-.766 1.194-1.129 1.96-.812.765.317 1.128 1.194.811 1.96-.317.765-1.194 1.129-1.96.812-.765-.317-1.129-1.195-.812-1.96zm-10.67-.812c.766-.317 1.644.046 1.96.812.318.765-.046 1.643-.811 1.96-.766.317-1.643-.047-1.96-.812-.317-.766.046-1.643.812-1.96zm79.65-.54c.814-.157 1.601.374 1.76 1.187.158.813-.374 1.6-1.187 1.759-.813.158-1.6-.373-1.758-1.186-.158-.814.373-1.601 1.186-1.76zm-148.3.532c.166-.811.958-1.336 1.77-1.17.811.165 1.336.957 1.17 1.768-.165.812-.957 1.336-1.768 1.171-.812-.165-1.336-.957-1.171-1.769zM76.5 135.2c.828 0 1.5.672 1.5 1.5s-.672 1.5-1.5 1.5-1.5-.672-1.5-1.5.672-1.5 1.5-1.5zm26.425-.719c.45.695.253 1.624-.441 2.075-.695.452-1.624.254-2.075-.44-.452-.695-.254-1.624.44-2.076.695-.45 1.624-.253 2.076.441zm-50.293-1.072c.683.47.856 1.403.387 2.086-.47.683-1.403.856-2.086.387-.683-.47-.856-1.403-.386-2.086.469-.683 1.403-.856 2.085-.387zm-17.133-.316c.766.317 1.13 1.195.812 1.96-.317.766-1.194 1.13-1.96.812-.765-.317-1.128-1.194-.811-1.96.317-.765 1.194-1.129 1.96-.812zm83.961.812c.317.766-.046 1.643-.811 1.96-.766.317-1.643-.046-1.96-.812-.317-.765.046-1.643.812-1.96.765-.317 1.642.047 1.96.812zm-20.686-4.479c.586.586.586 1.536 0 2.121-.586.586-1.536.586-2.121 0-.586-.585-.586-1.535 0-2.12.585-.587 1.535-.587 2.12 0zm-42.427 0c.586.586.586 1.536 0 2.121-.585.586-1.535.586-2.12 0-.587-.585-.587-1.535 0-2.12.585-.587 1.535-.587 2.12 0zm75.012-2.073c.765-.317 1.643.047 1.96.812.317.765-.047 1.643-.812 1.96-.766.317-1.643-.047-1.96-.812-.317-.765.046-1.643.812-1.96zm-111.678.812c.317-.765 1.195-1.129 1.96-.812.766.317 1.13 1.195.812 1.96-.317.765-1.194 1.129-1.96.812-.765-.317-1.129-1.195-.812-1.96zm74.667-2.487c.683.469.856 1.403.387 2.085-.47.683-1.403.856-2.086.387-.683-.47-.856-1.403-.386-2.086.469-.682 1.403-.856 2.085-.386zm20.988.363c.457.69.267 1.621-.423 2.079-.691.457-1.622.268-2.08-.423-.456-.691-.267-1.622.424-2.079.69-.457 1.621-.268 2.079.423zm-75.244-.742c.687.463.868 1.395.405 2.082-.464.687-1.396.868-2.083.405-.686-.463-.868-1.396-.404-2.082.463-.687 1.395-.868 2.082-.405zm21.333.362c.452.694.254 1.623-.44 2.075-.695.45-1.624.253-2.076-.442-.45-.694-.253-1.623.441-2.074.695-.452 1.624-.254 2.075.44zm27.13-3.063c.765.317 1.128 1.194.811 1.96-.317.765-1.194 1.128-1.96.811-.765-.317-1.128-1.194-.811-1.96.317-.765 1.194-1.128 1.96-.811zm-22.15.812c.317.765-.046 1.642-.811 1.96-.766.316-1.643-.047-1.96-.812-.317-.766.046-1.643.811-1.96.766-.317 1.643.046 1.96.812zm-60.582-.985c.317-.766 1.195-1.13 1.96-.812.765.317 1.129 1.194.812 1.96-.317.765-1.195 1.129-1.96.812-.765-.317-1.129-1.195-.812-1.96zm139.394-.812c.765-.317 1.643.046 1.96.812.317.765-.047 1.643-.812 1.96-.765.317-1.643-.047-1.96-.812-.317-.766.047-1.643.812-1.96zm-62.161-.787c.81.172 1.327.969 1.155 1.78-.172.81-.969 1.327-1.779 1.154-.81-.172-1.328-.968-1.155-1.779.172-.81.968-1.327 1.779-1.155zm-10.542 1.04c.151.815-.387 1.598-1.201 1.749-.815.15-1.597-.387-1.748-1.202-.151-.814.387-1.597 1.201-1.748.815-.15 1.597.387 1.748 1.202zM76.5 120.2c.828 0 1.5.672 1.5 1.5s-.672 1.5-1.5 1.5-1.5-.672-1.5-1.5.672-1.5 1.5-1.5zm-30.76-1.38c.587.585.587 1.535 0 2.12-.585.587-1.535.587-2.12 0-.586-.585-.586-1.535 0-2.12.585-.586 1.535-.586 2.12 0zm63.64 0c.586.585.586 1.535 0 2.12-.585.587-1.535.587-2.12 0-.587-.585-.587-1.535 0-2.12.585-.586 1.535-.586 2.12 0zm16.325-1.487c.691-.457 1.622-.268 2.079.423.457.69.268 1.621-.423 2.079-.69.457-1.621.268-2.079-.423-.457-.691-.268-1.622.423-2.079zm-100.19-.023c.462-.687 1.395-.868 2.082-.405.686.463.868 1.395.404 2.082-.463.687-1.395.868-2.082.405-.687-.463-.868-1.396-.405-2.082zm77.047-4.154c.687.463.868 1.395.405 2.082-.463.687-1.396.868-2.082.405-.687-.463-.868-1.396-.405-2.082.463-.687 1.395-.868 2.082-.405zm-49.589.197c.458.691.268 1.622-.422 2.079-.691.457-1.622.268-2.08-.423-.456-.69-.267-1.621.424-2.079.69-.457 1.621-.268 2.078.423zm85.24-4.3c.691-.456 1.622-.267 2.08.424.457.69.267 1.621-.424 2.079-.69.457-1.621.267-2.078-.423-.458-.691-.268-1.622.423-2.08zm-43.918-.313c.765.317 1.129 1.194.812 1.96-.317.765-1.195 1.128-1.96.811-.766-.317-1.13-1.194-.812-1.96.317-.765 1.194-1.128 1.96-.811zm-33.63.811c.317.766-.046 1.643-.812 1.96-.765.317-1.643-.046-1.96-.812-.317-.765.047-1.642.812-1.96.766-.316 1.643.047 1.96.812zm-47.586-.63c.463-.686 1.395-.867 2.082-.404.687.463.868 1.396.405 2.082-.464.687-1.396.868-2.083.405-.686-.463-.868-1.395-.404-2.082zm19.934-.708c.586-.586 1.535-.586 2.121 0 .586.586.586 1.535 0 2.121-.586.586-1.535.586-2.121 0-.586-.586-.586-1.535 0-2.121zm84.853 0c.586-.586 1.535-.586 2.121 0 .586.586.586 1.535 0 2.121-.586.586-1.535.586-2.121 0-.586-.586-.586-1.535 0-2.121zm-33.805-.903c.166-.811.958-1.336 1.77-1.17.811.165 1.335.957 1.17 1.768-.165.812-.957 1.336-1.769 1.171-.811-.165-1.336-.957-1.17-1.769zm-14.615-.063c.158.813-.373 1.6-1.186 1.758-.814.158-1.601-.373-1.759-1.186-.158-.813.373-1.6 1.186-1.759.813-.158 1.6.373 1.759 1.187zM76.5 105.2c.828 0 1.5.672 1.5 1.5s-.672 1.5-1.5 1.5-1.5-.672-1.5-1.5.672-1.5 1.5-1.5zm32.308-4.081c.463-.687 1.396-.868 2.082-.405.687.463.868 1.396.405 2.083-.463.686-1.395.868-2.082.404-.687-.463-.868-1.395-.405-2.082zm-66.252-.703c.69-.457 1.621-.268 2.079.423.457.69.268 1.621-.423 2.079-.691.457-1.622.268-2.079-.423-.457-.691-.268-1.622.423-2.079zm85.916-2.81c.586-.585 1.536-.585 2.122 0 .585.586.585 1.536 0 2.122-.586.585-1.536.585-2.122 0-.585-.586-.585-1.536 0-2.122zm-106.066 0c.586-.585 1.536-.585 2.122 0 .585.586.585 1.536 0 2.122-.586.585-1.536.585-2.122 0-.585-.586-.585-1.536 0-2.122zm30.559-2.725c.765-.317 1.643.047 1.96.812.317.766-.047 1.643-.812 1.96-.765.317-1.643-.046-1.96-.812-.317-.765.047-1.643.812-1.96zm45.11.812c.317-.765 1.195-1.129 1.96-.812.765.317 1.129 1.195.812 1.96-.317.766-1.195 1.13-1.96.812-.765-.317-1.129-1.194-.812-1.96zm-11.083-3.088c.165-.811.957-1.336 1.77-1.17.81.165 1.335.957 1.17 1.769-.165.811-.957 1.336-1.769 1.17-.812-.165-1.336-.957-1.17-1.769zM64.765 91.33c.813-.158 1.6.373 1.759 1.186.158.813-.373 1.6-1.186 1.759-.814.158-1.6-.373-1.759-1.186-.158-.814.373-1.601 1.186-1.76zM76.5 90.2c.828 0 1.5.672 1.5 1.5s-.672 1.5-1.5 1.5-1.5-.672-1.5-1.5.672-1.5 1.5-1.5zm40.696-1.517c.463-.686 1.395-.868 2.082-.404.687.463.868 1.395.405 2.082-.463.687-1.396.868-2.082.405-.687-.464-.868-1.396-.405-2.083zm-82.92-.775c.692-.458 1.622-.268 2.08.423.457.69.267 1.621-.423 2.078-.691.458-1.622.268-2.08-.423-.456-.69-.267-1.621.424-2.078zm69.54-6.073c.316-.765 1.194-1.129 1.96-.812.765.317 1.128 1.195.811 1.96-.317.765-1.194 1.129-1.96.812-.765-.317-1.129-1.195-.812-1.96zm-56.591-.812c.765-.317 1.643.047 1.96.812.317.765-.047 1.643-.812 1.96-.766.317-1.643-.047-1.96-.812-.317-.765.046-1.643.812-1.96zm42.758-3.116c.165-.812.957-1.336 1.769-1.171.811.165 1.336.957 1.17 1.769-.165.811-.957 1.336-1.768 1.17-.812-.165-1.336-.957-1.171-1.768zm-28.08-1.301c.813-.159 1.6.373 1.759 1.186.158.813-.373 1.6-1.186 1.758-.814.158-1.601-.373-1.76-1.186-.157-.813.374-1.6 1.187-1.758zM76.5 75.2c.828 0 1.5.672 1.5 1.5s-.672 1.5-1.5 1.5-1.5-.672-1.5-1.5.672-1.5 1.5-1.5z" opacity=".3" transform="translate(-200 -1457) translate(200 1457) translate(644.2 45.582)"/>
                    <path fill="#D99938" fill-rule="nonzero" d="M209.385.284l-.043.008c-8.292 1.62-13.745 9.564-12.314 17.85l.06.328c1.601 8.28 9.536 13.73 17.812 12.303l.358-.065c8.292-1.62 13.745-9.564 12.314-17.85l-.06-.328c-1.623-8.385-9.74-13.867-18.127-12.246z" style="mix-blend-mode:multiply" opacity=".4" transform="translate(-200 -1457) translate(200 1457) translate(644.2 45.582)"/>
                </g>
                <g>
                    <path fill="#1E8985" fill-rule="nonzero" d="M78.538 176.825l-.084.015-.04.008c-24.137 4.716-39.985 27.884-35.721 52.004l.144.772c4.66 24.099 27.802 39.94 51.894 35.686l.856-.158c24.136-4.716 39.984-27.884 35.72-52.004l-.144-.772c-4.71-24.342-28.274-40.259-52.625-35.55z" style="mix-blend-mode:multiply" opacity=".1" transform="translate(-200 -1457) translate(200 1457) translate(0 .485)"/>
                    <path fill="#B8B9C5" d="M1.201 2.403C.538 2.403 0 1.865 0 1.201 0 .538.538 0 1.201 0c.664 0 1.202.538 1.202 1.201 0 .664-.538 1.202-1.202 1.202zm86.508 0c-.664 0-1.202-.538-1.202-1.202C86.507.538 87.045 0 87.71 0c.664 0 1.201.538 1.201 1.201 0 .664-.537 1.202-1.201 1.202zm0 86.507c-.664 0-1.202-.537-1.202-1.201s.538-1.202 1.202-1.202c.664 0 1.201.538 1.201 1.202 0 .664-.537 1.201-1.201 1.201zM15.619 2.403c-.663 0-1.201-.538-1.201-1.202 0-.663.538-1.201 1.201-1.201.664 0 1.202.538 1.202 1.201 0 .664-.538 1.202-1.202 1.202zm0 86.507c-.663 0-1.201-.537-1.201-1.201s.538-1.202 1.201-1.202c.664 0 1.202.538 1.202 1.202 0 .664-.538 1.201-1.202 1.201zm86.508-86.507c-.664 0-1.202-.538-1.202-1.202 0-.663.538-1.201 1.202-1.201.663 0 1.201.538 1.201 1.201 0 .664-.538 1.202-1.201 1.202zm0 86.507c-.664 0-1.202-.537-1.202-1.201s.538-1.202 1.202-1.202c.663 0 1.201.538 1.201 1.202 0 .664-.538 1.201-1.201 1.201zM1.2 31.24C.538 31.239 0 30.7 0 30.037c0-.663.538-1.201 1.201-1.201.664 0 1.202.538 1.202 1.201 0 .664-.538 1.202-1.202 1.202zm86.508 0c-.664 0-1.202-.538-1.202-1.202 0-.663.538-1.201 1.202-1.201.664 0 1.201.538 1.201 1.201 0 .664-.537 1.202-1.201 1.202zm0 86.507c-.664 0-1.202-.538-1.202-1.201 0-.664.538-1.202 1.202-1.202.664 0 1.201.538 1.201 1.202 0 .663-.537 1.201-1.201 1.201zM15.619 31.24c-.663 0-1.201-.538-1.201-1.202 0-.663.538-1.201 1.201-1.201.664 0 1.202.538 1.202 1.201 0 .664-.538 1.202-1.202 1.202zm0 86.507c-.663 0-1.201-.538-1.201-1.201 0-.664.538-1.202 1.201-1.202.664 0 1.202.538 1.202 1.202 0 .663-.538 1.201-1.202 1.201zm86.508-86.507c-.664 0-1.202-.538-1.202-1.202 0-.663.538-1.201 1.202-1.201.663 0 1.201.538 1.201 1.201 0 .664-.538 1.202-1.201 1.202zm0 86.507c-.664 0-1.202-.538-1.202-1.201 0-.664.538-1.202 1.202-1.202.663 0 1.201.538 1.201 1.202 0 .663-.538 1.201-1.201 1.201zM1.2 60.075C.538 60.075 0 59.537 0 58.873c0-.663.538-1.201 1.201-1.201.664 0 1.202.538 1.202 1.201 0 .664-.538 1.202-1.202 1.202zm86.508 0c-.664 0-1.202-.538-1.202-1.202 0-.663.538-1.201 1.202-1.201.664 0 1.201.538 1.201 1.201 0 .664-.537 1.202-1.201 1.202zm-72.09 0c-.663 0-1.201-.538-1.201-1.202 0-.663.538-1.201 1.201-1.201.664 0 1.202.538 1.202 1.201 0 .664-.538 1.202-1.202 1.202zm86.508 0c-.664 0-1.202-.538-1.202-1.202 0-.663.538-1.201 1.202-1.201.663 0 1.201.538 1.201 1.201 0 .664-.538 1.202-1.201 1.202zM1.2 16.82C.538 16.82 0 16.283 0 15.619c0-.663.538-1.201 1.201-1.201.664 0 1.202.538 1.202 1.201 0 .664-.538 1.202-1.202 1.202zm86.508 0c-.664 0-1.202-.538-1.202-1.202 0-.663.538-1.201 1.202-1.201.664 0 1.201.538 1.201 1.201 0 .664-.537 1.202-1.201 1.202zm0 86.507c-.664 0-1.202-.538-1.202-1.201 0-.664.538-1.202 1.202-1.202.664 0 1.201.538 1.201 1.202 0 .663-.537 1.201-1.201 1.201zm-72.09-86.507c-.663 0-1.201-.538-1.201-1.202 0-.663.538-1.201 1.201-1.201.664 0 1.202.538 1.202 1.201 0 .664-.538 1.202-1.202 1.202zm0 86.507c-.663 0-1.201-.538-1.201-1.201 0-.664.538-1.202 1.201-1.202.664 0 1.202.538 1.202 1.202 0 .663-.538 1.201-1.202 1.201zm86.508-86.507c-.664 0-1.202-.538-1.202-1.202 0-.663.538-1.201 1.202-1.201.663 0 1.201.538 1.201 1.201 0 .664-.538 1.202-1.201 1.202zm0 86.507c-.664 0-1.202-.538-1.202-1.201 0-.664.538-1.202 1.202-1.202.663 0 1.201.538 1.201 1.202 0 .663-.538 1.201-1.201 1.201zM1.2 45.657C.538 45.657 0 45.119 0 44.455c0-.663.538-1.201 1.201-1.201.664 0 1.202.538 1.202 1.201 0 .664-.538 1.202-1.202 1.202zm86.508 0c-.664 0-1.202-.538-1.202-1.202 0-.663.538-1.201 1.202-1.201.664 0 1.201.538 1.201 1.201 0 .664-.537 1.202-1.201 1.202zm-72.09 0c-.663 0-1.201-.538-1.201-1.202 0-.663.538-1.201 1.201-1.201.664 0 1.202.538 1.202 1.201 0 .664-.538 1.202-1.202 1.202zm86.508 0c-.664 0-1.202-.538-1.202-1.202 0-.663.538-1.201 1.202-1.201.663 0 1.201.538 1.201 1.201 0 .664-.538 1.202-1.201 1.202zM1.2 74.493C.538 74.493 0 73.955 0 73.29c0-.664.538-1.201 1.201-1.201.664 0 1.202.537 1.202 1.201s-.538 1.202-1.202 1.202zm86.508 0c-.664 0-1.202-.538-1.202-1.202 0-.664.538-1.201 1.202-1.201.664 0 1.201.537 1.201 1.201s-.537 1.202-1.201 1.202zm-72.09 0c-.663 0-1.201-.538-1.201-1.202 0-.664.538-1.201 1.201-1.201.664 0 1.202.537 1.202 1.201s-.538 1.202-1.202 1.202zm86.508 0c-.664 0-1.202-.538-1.202-1.202 0-.664.538-1.201 1.202-1.201.663 0 1.201.537 1.201 1.201s-.538 1.202-1.201 1.202zm-72.09-72.09c-.663 0-1.201-.538-1.201-1.202 0-.663.538-1.201 1.201-1.201.664 0 1.202.538 1.202 1.201 0 .664-.538 1.202-1.202 1.202zm0 86.507c-.663 0-1.201-.537-1.201-1.201s.538-1.202 1.201-1.202c.664 0 1.202.538 1.202 1.202 0 .664-.538 1.201-1.202 1.201zm86.508-86.507c-.664 0-1.202-.538-1.202-1.202 0-.663.538-1.201 1.202-1.201.663 0 1.201.538 1.201 1.201 0 .664-.538 1.202-1.201 1.202zm0 86.507c-.664 0-1.202-.537-1.202-1.201s.538-1.202 1.202-1.202c.663 0 1.201.538 1.201 1.202 0 .664-.538 1.201-1.201 1.201zM44.455 2.403c-.663 0-1.201-.538-1.201-1.202 0-.663.538-1.201 1.201-1.201.664 0 1.202.538 1.202 1.201 0 .664-.538 1.202-1.202 1.202zm0 86.507c-.663 0-1.201-.537-1.201-1.201s.538-1.202 1.201-1.202c.664 0 1.202.538 1.202 1.202 0 .664-.538 1.201-1.202 1.201zm86.508-86.507c-.664 0-1.202-.538-1.202-1.202 0-.663.538-1.201 1.202-1.201.663 0 1.201.538 1.201 1.201 0 .664-.538 1.202-1.201 1.202zm0 86.507c-.664 0-1.202-.537-1.202-1.201s.538-1.202 1.202-1.202c.663 0 1.201.538 1.201 1.202 0 .664-.538 1.201-1.201 1.201zM30.037 31.24c-.663 0-1.201-.538-1.201-1.202 0-.663.538-1.201 1.201-1.201.664 0 1.202.538 1.202 1.201 0 .664-.538 1.202-1.202 1.202zm0 86.507c-.663 0-1.201-.538-1.201-1.201 0-.664.538-1.202 1.201-1.202.664 0 1.202.538 1.202 1.202 0 .663-.538 1.201-1.202 1.201zm86.508-86.507c-.664 0-1.202-.538-1.202-1.202 0-.663.538-1.201 1.202-1.201.663 0 1.201.538 1.201 1.201 0 .664-.538 1.202-1.201 1.202zm0 86.507c-.664 0-1.202-.538-1.202-1.201 0-.664.538-1.202 1.202-1.202.663 0 1.201.538 1.201 1.202 0 .663-.538 1.201-1.201 1.201zM44.455 31.24c-.663 0-1.201-.538-1.201-1.202 0-.663.538-1.201 1.201-1.201.664 0 1.202.538 1.202 1.201 0 .664-.538 1.202-1.202 1.202zm0 86.507c-.663 0-1.201-.538-1.201-1.201 0-.664.538-1.202 1.201-1.202.664 0 1.202.538 1.202 1.202 0 .663-.538 1.201-1.202 1.201zm86.508-86.507c-.664 0-1.202-.538-1.202-1.202 0-.663.538-1.201 1.202-1.201.663 0 1.201.538 1.201 1.201 0 .664-.538 1.202-1.201 1.202zm0 86.507c-.664 0-1.202-.538-1.202-1.201 0-.664.538-1.202 1.202-1.202.663 0 1.201.538 1.201 1.202 0 .663-.538 1.201-1.201 1.201zM30.037 60.075c-.663 0-1.201-.538-1.201-1.202 0-.663.538-1.201 1.201-1.201.664 0 1.202.538 1.202 1.201 0 .664-.538 1.202-1.202 1.202zm86.508 0c-.664 0-1.202-.538-1.202-1.202 0-.663.538-1.201 1.202-1.201.663 0 1.201.538 1.201 1.201 0 .664-.538 1.202-1.201 1.202zm-72.09 0c-.663 0-1.201-.538-1.201-1.202 0-.663.538-1.201 1.201-1.201.664 0 1.202.538 1.202 1.201 0 .664-.538 1.202-1.202 1.202zm86.508 0c-.664 0-1.202-.538-1.202-1.202 0-.663.538-1.201 1.202-1.201.663 0 1.201.538 1.201 1.201 0 .664-.538 1.202-1.201 1.202zM30.037 16.82c-.663 0-1.201-.538-1.201-1.202 0-.663.538-1.201 1.201-1.201.664 0 1.202.538 1.202 1.201 0 .664-.538 1.202-1.202 1.202zm0 86.507c-.663 0-1.201-.538-1.201-1.201 0-.664.538-1.202 1.201-1.202.664 0 1.202.538 1.202 1.202 0 .663-.538 1.201-1.202 1.201zm86.508-86.507c-.664 0-1.202-.538-1.202-1.202 0-.663.538-1.201 1.202-1.201.663 0 1.201.538 1.201 1.201 0 .664-.538 1.202-1.201 1.202zm0 86.507c-.664 0-1.202-.538-1.202-1.201 0-.664.538-1.202 1.202-1.202.663 0 1.201.538 1.201 1.202 0 .663-.538 1.201-1.201 1.201zm-72.09-86.507c-.663 0-1.201-.538-1.201-1.202 0-.663.538-1.201 1.201-1.201.664 0 1.202.538 1.202 1.201 0 .664-.538 1.202-1.202 1.202zm0 86.507c-.663 0-1.201-.538-1.201-1.201 0-.664.538-1.202 1.201-1.202.664 0 1.202.538 1.202 1.202 0 .663-.538 1.201-1.202 1.201zm86.508-86.507c-.664 0-1.202-.538-1.202-1.202 0-.663.538-1.201 1.202-1.201.663 0 1.201.538 1.201 1.201 0 .664-.538 1.202-1.201 1.202zm0 86.507c-.664 0-1.202-.538-1.202-1.201 0-.664.538-1.202 1.202-1.202.663 0 1.201.538 1.201 1.202 0 .663-.538 1.201-1.201 1.201zM30.037 45.657c-.663 0-1.201-.538-1.201-1.202 0-.663.538-1.201 1.201-1.201.664 0 1.202.538 1.202 1.201 0 .664-.538 1.202-1.202 1.202zm86.508 0c-.664 0-1.202-.538-1.202-1.202 0-.663.538-1.201 1.202-1.201.663 0 1.201.538 1.201 1.201 0 .664-.538 1.202-1.201 1.202zm-72.09 0c-.663 0-1.201-.538-1.201-1.202 0-.663.538-1.201 1.201-1.201.664 0 1.202.538 1.202 1.201 0 .664-.538 1.202-1.202 1.202zm86.508 0c-.664 0-1.202-.538-1.202-1.202 0-.663.538-1.201 1.202-1.201.663 0 1.201.538 1.201 1.201 0 .664-.538 1.202-1.201 1.202zM30.037 74.493c-.663 0-1.201-.538-1.201-1.202 0-.664.538-1.201 1.201-1.201.664 0 1.202.537 1.202 1.201s-.538 1.202-1.202 1.202zm86.508 0c-.664 0-1.202-.538-1.202-1.202 0-.664.538-1.201 1.202-1.201.663 0 1.201.537 1.201 1.201s-.538 1.202-1.201 1.202zm-72.09 0c-.663 0-1.201-.538-1.201-1.202 0-.664.538-1.201 1.201-1.201.664 0 1.202.537 1.202 1.201s-.538 1.202-1.202 1.202zm86.508 0c-.664 0-1.202-.538-1.202-1.202 0-.664.538-1.201 1.202-1.201.663 0 1.201.537 1.201 1.201s-.538 1.202-1.201 1.202zm-72.09-72.09c-.663 0-1.201-.538-1.201-1.202C57.672.538 58.21 0 58.873 0c.664 0 1.202.538 1.202 1.201 0 .664-.538 1.202-1.202 1.202zm0 86.507c-.663 0-1.201-.537-1.201-1.201s.538-1.202 1.201-1.202c.664 0 1.202.538 1.202 1.202 0 .664-.538 1.201-1.202 1.201zM73.291 2.403c-.664 0-1.201-.538-1.201-1.202C72.09.538 72.627 0 73.29 0s1.202.538 1.202 1.201c0 .664-.538 1.202-1.202 1.202zm0 86.507c-.664 0-1.201-.537-1.201-1.201s.537-1.202 1.201-1.202 1.202.538 1.202 1.202c0 .664-.538 1.201-1.202 1.201zM58.873 31.24c-.663 0-1.201-.538-1.201-1.202 0-.663.538-1.201 1.201-1.201.664 0 1.202.538 1.202 1.201 0 .664-.538 1.202-1.202 1.202zm0 86.507c-.663 0-1.201-.538-1.201-1.201 0-.664.538-1.202 1.201-1.202.664 0 1.202.538 1.202 1.202 0 .663-.538 1.201-1.202 1.201zM73.291 31.24c-.664 0-1.201-.538-1.201-1.202 0-.663.537-1.201 1.201-1.201s1.202.538 1.202 1.201c0 .664-.538 1.202-1.202 1.202zm0 86.507c-.664 0-1.201-.538-1.201-1.201 0-.664.537-1.202 1.201-1.202s1.202.538 1.202 1.202c0 .663-.538 1.201-1.202 1.201zM58.873 60.075c-.663 0-1.201-.538-1.201-1.202 0-.663.538-1.201 1.201-1.201.664 0 1.202.538 1.202 1.201 0 .664-.538 1.202-1.202 1.202zm14.418 0c-.664 0-1.201-.538-1.201-1.202 0-.663.537-1.201 1.201-1.201s1.202.538 1.202 1.201c0 .664-.538 1.202-1.202 1.202zM58.873 16.82c-.663 0-1.201-.538-1.201-1.202 0-.663.538-1.201 1.201-1.201.664 0 1.202.538 1.202 1.201 0 .664-.538 1.202-1.202 1.202zm0 86.507c-.663 0-1.201-.538-1.201-1.201 0-.664.538-1.202 1.201-1.202.664 0 1.202.538 1.202 1.202 0 .663-.538 1.201-1.202 1.201zm14.418-86.507c-.664 0-1.201-.538-1.201-1.202 0-.663.537-1.201 1.201-1.201s1.202.538 1.202 1.201c0 .664-.538 1.202-1.202 1.202zm0 86.507c-.664 0-1.201-.538-1.201-1.201 0-.664.537-1.202 1.201-1.202s1.202.538 1.202 1.202c0 .663-.538 1.201-1.202 1.201zM58.873 45.657c-.663 0-1.201-.538-1.201-1.202 0-.663.538-1.201 1.201-1.201.664 0 1.202.538 1.202 1.201 0 .664-.538 1.202-1.202 1.202zm14.418 0c-.664 0-1.201-.538-1.201-1.202 0-.663.537-1.201 1.201-1.201s1.202.538 1.202 1.201c0 .664-.538 1.202-1.202 1.202zM58.873 74.493c-.663 0-1.201-.538-1.201-1.202 0-.664.538-1.201 1.201-1.201.664 0 1.202.537 1.202 1.201s-.538 1.202-1.202 1.202zm14.418 0c-.664 0-1.201-.538-1.201-1.202 0-.664.537-1.201 1.201-1.201s1.202.537 1.202 1.201-.538 1.202-1.202 1.202zm72.09-72.09c-.664 0-1.202-.538-1.202-1.202 0-.663.538-1.201 1.202-1.201.663 0 1.201.538 1.201 1.201 0 .664-.538 1.202-1.201 1.202zm0 86.507c-.664 0-1.202-.537-1.202-1.201s.538-1.202 1.202-1.202c.663 0 1.201.538 1.201 1.202 0 .664-.538 1.201-1.201 1.201zm0-57.671c-.664 0-1.202-.538-1.202-1.202 0-.663.538-1.201 1.202-1.201.663 0 1.201.538 1.201 1.201 0 .664-.538 1.202-1.201 1.202zm0 86.507c-.664 0-1.202-.538-1.202-1.201 0-.664.538-1.202 1.202-1.202.663 0 1.201.538 1.201 1.202 0 .663-.538 1.201-1.201 1.201zm0-57.671c-.664 0-1.202-.538-1.202-1.202 0-.663.538-1.201 1.202-1.201.663 0 1.201.538 1.201 1.201 0 .664-.538 1.202-1.201 1.202zm0-43.254c-.664 0-1.202-.538-1.202-1.202 0-.663.538-1.201 1.202-1.201.663 0 1.201.538 1.201 1.201 0 .664-.538 1.202-1.201 1.202zm0 86.507c-.664 0-1.202-.538-1.202-1.201 0-.664.538-1.202 1.202-1.202.663 0 1.201.538 1.201 1.202 0 .663-.538 1.201-1.201 1.201zm0-57.671c-.664 0-1.202-.538-1.202-1.202 0-.663.538-1.201 1.202-1.201.663 0 1.201.538 1.201 1.201 0 .664-.538 1.202-1.201 1.202zm0 28.836c-.664 0-1.202-.538-1.202-1.202 0-.664.538-1.201 1.202-1.201.663 0 1.201.537 1.201 1.201s-.538 1.202-1.201 1.202zm14.418-72.09c-.664 0-1.202-.538-1.202-1.202 0-.663.538-1.201 1.202-1.201.663 0 1.201.538 1.201 1.201 0 .664-.538 1.202-1.201 1.202zm0 28.836c-.664 0-1.202-.538-1.202-1.202 0-.663.538-1.201 1.202-1.201.663 0 1.201.538 1.201 1.201 0 .664-.538 1.202-1.201 1.202zm0 28.836c-.664 0-1.202-.538-1.202-1.202 0-.663.538-1.201 1.202-1.201.663 0 1.201.538 1.201 1.201 0 .664-.538 1.202-1.201 1.202zm0-43.254c-.664 0-1.202-.538-1.202-1.202 0-.663.538-1.201 1.202-1.201.663 0 1.201.538 1.201 1.201 0 .664-.538 1.202-1.201 1.202zm0 28.836c-.664 0-1.202-.538-1.202-1.202 0-.663.538-1.201 1.202-1.201.663 0 1.201.538 1.201 1.201 0 .664-.538 1.202-1.201 1.202zm0 28.836c-.664 0-1.202-.538-1.202-1.202 0-.664.538-1.201 1.202-1.201.663 0 1.201.537 1.201 1.201s-.538 1.202-1.201 1.202zM1.2 88.91C.538 88.91 0 88.373 0 87.71s.538-1.202 1.201-1.202c.664 0 1.202.538 1.202 1.202 0 .664-.538 1.201-1.202 1.201zm0 28.836c-.663 0-1.201-.538-1.201-1.201 0-.664.538-1.202 1.201-1.202.664 0 1.202.538 1.202 1.202 0 .663-.538 1.201-1.202 1.201zm0 28.836c-.663 0-1.201-.538-1.201-1.201 0-.664.538-1.202 1.201-1.202.664 0 1.202.538 1.202 1.202 0 .663-.538 1.201-1.202 1.201zm86.508 0c-.664 0-1.202-.538-1.202-1.201 0-.664.538-1.202 1.202-1.202.664 0 1.201.538 1.201 1.202 0 .663-.537 1.201-1.201 1.201zm-72.09 0c-.663 0-1.201-.538-1.201-1.201 0-.664.538-1.202 1.201-1.202.664 0 1.202.538 1.202 1.202 0 .663-.538 1.201-1.202 1.201zm86.508 0c-.664 0-1.202-.538-1.202-1.201 0-.664.538-1.202 1.202-1.202.663 0 1.201.538 1.201 1.202 0 .663-.538 1.201-1.201 1.201zM1.2 103.328c-.663 0-1.201-.538-1.201-1.201 0-.664.538-1.202 1.201-1.202.664 0 1.202.538 1.202 1.202 0 .663-.538 1.201-1.202 1.201zm0 28.836c-.663 0-1.201-.538-1.201-1.201 0-.664.538-1.202 1.201-1.202.664 0 1.202.538 1.202 1.202 0 .663-.538 1.201-1.202 1.201zm86.508 0c-.664 0-1.202-.538-1.202-1.201 0-.664.538-1.202 1.202-1.202.664 0 1.201.538 1.201 1.202 0 .663-.537 1.201-1.201 1.201zm-72.09 0c-.663 0-1.201-.538-1.201-1.201 0-.664.538-1.202 1.201-1.202.664 0 1.202.538 1.202 1.202 0 .663-.538 1.201-1.202 1.201zm86.508 0c-.664 0-1.202-.538-1.202-1.201 0-.664.538-1.202 1.202-1.202.663 0 1.201.538 1.201 1.202 0 .663-.538 1.201-1.201 1.201zm-72.09 14.418c-.663 0-1.201-.538-1.201-1.201 0-.664.538-1.202 1.201-1.202.664 0 1.202.538 1.202 1.202 0 .663-.538 1.201-1.202 1.201zm86.508 0c-.664 0-1.202-.538-1.202-1.201 0-.664.538-1.202 1.202-1.202.663 0 1.201.538 1.201 1.202 0 .663-.538 1.201-1.201 1.201zm-72.09 0c-.663 0-1.201-.538-1.201-1.201 0-.664.538-1.202 1.201-1.202.664 0 1.202.538 1.202 1.202 0 .663-.538 1.201-1.202 1.201zm86.508 0c-.664 0-1.202-.538-1.202-1.201 0-.664.538-1.202 1.202-1.202.663 0 1.201.538 1.201 1.202 0 .663-.538 1.201-1.201 1.201zM30.037 132.164c-.663 0-1.201-.538-1.201-1.201 0-.664.538-1.202 1.201-1.202.664 0 1.202.538 1.202 1.202 0 .663-.538 1.201-1.202 1.201zm86.508 0c-.664 0-1.202-.538-1.202-1.201 0-.664.538-1.202 1.202-1.202.663 0 1.201.538 1.201 1.202 0 .663-.538 1.201-1.201 1.201zm-72.09 0c-.663 0-1.201-.538-1.201-1.201 0-.664.538-1.202 1.201-1.202.664 0 1.202.538 1.202 1.202 0 .663-.538 1.201-1.202 1.201zm86.508 0c-.664 0-1.202-.538-1.202-1.201 0-.664.538-1.202 1.202-1.202.663 0 1.201.538 1.201 1.202 0 .663-.538 1.201-1.201 1.201zm-72.09 14.418c-.663 0-1.201-.538-1.201-1.201 0-.664.538-1.202 1.201-1.202.664 0 1.202.538 1.202 1.202 0 .663-.538 1.201-1.202 1.201zm14.418 0c-.664 0-1.201-.538-1.201-1.201 0-.664.537-1.202 1.201-1.202s1.202.538 1.202 1.202c0 .663-.538 1.201-1.202 1.201zm-14.418-14.418c-.663 0-1.201-.538-1.201-1.201 0-.664.538-1.202 1.201-1.202.664 0 1.202.538 1.202 1.202 0 .663-.538 1.201-1.202 1.201zm14.418 0c-.664 0-1.201-.538-1.201-1.201 0-.664.537-1.202 1.201-1.202s1.202.538 1.202 1.202c0 .663-.538 1.201-1.202 1.201zm72.09 14.418c-.664 0-1.202-.538-1.202-1.201 0-.664.538-1.202 1.202-1.202.663 0 1.201.538 1.201 1.202 0 .663-.538 1.201-1.201 1.201zm0-14.418c-.664 0-1.202-.538-1.202-1.201 0-.664.538-1.202 1.202-1.202.663 0 1.201.538 1.201 1.202 0 .663-.538 1.201-1.201 1.201zm14.418-43.254c-.664 0-1.202-.537-1.202-1.201s.538-1.202 1.202-1.202c.663 0 1.201.538 1.201 1.202 0 .664-.538 1.201-1.201 1.201zm0 28.836c-.664 0-1.202-.538-1.202-1.201 0-.664.538-1.202 1.202-1.202.663 0 1.201.538 1.201 1.202 0 .663-.538 1.201-1.201 1.201zm0 28.836c-.664 0-1.202-.538-1.202-1.201 0-.664.538-1.202 1.202-1.202.663 0 1.201.538 1.201 1.202 0 .663-.538 1.201-1.201 1.201zm0-43.254c-.664 0-1.202-.538-1.202-1.201 0-.664.538-1.202 1.202-1.202.663 0 1.201.538 1.201 1.202 0 .663-.538 1.201-1.201 1.201zm0 28.836c-.664 0-1.202-.538-1.202-1.201 0-.664.538-1.202 1.202-1.202.663 0 1.201.538 1.201 1.202 0 .663-.538 1.201-1.201 1.201zM1.2 161C.538 161 0 160.462 0 159.799c0-.664.538-1.202 1.201-1.202.664 0 1.202.538 1.202 1.202 0 .663-.538 1.201-1.202 1.201zm86.508 0c-.664 0-1.202-.538-1.202-1.201 0-.664.538-1.202 1.202-1.202.664 0 1.201.538 1.201 1.202 0 .663-.537 1.201-1.201 1.201zm-72.09 0c-.663 0-1.201-.538-1.201-1.201 0-.664.538-1.202 1.201-1.202.664 0 1.202.538 1.202 1.202 0 .663-.538 1.201-1.202 1.201zm86.508 0c-.664 0-1.202-.538-1.202-1.201 0-.664.538-1.202 1.202-1.202.663 0 1.201.538 1.201 1.202 0 .663-.538 1.201-1.201 1.201zm-72.09 0c-.663 0-1.201-.538-1.201-1.201 0-.664.538-1.202 1.201-1.202.664 0 1.202.538 1.202 1.202 0 .663-.538 1.201-1.202 1.201zm86.508 0c-.664 0-1.202-.538-1.202-1.201 0-.664.538-1.202 1.202-1.202.663 0 1.201.538 1.201 1.202 0 .663-.538 1.201-1.201 1.201zm-72.09 0c-.663 0-1.201-.538-1.201-1.201 0-.664.538-1.202 1.201-1.202.664 0 1.202.538 1.202 1.202 0 .663-.538 1.201-1.202 1.201zm86.508 0c-.664 0-1.202-.538-1.202-1.201 0-.664.538-1.202 1.202-1.202.663 0 1.201.538 1.201 1.202 0 .663-.538 1.201-1.201 1.201zm-72.09 0c-.663 0-1.201-.538-1.201-1.201 0-.664.538-1.202 1.201-1.202.664 0 1.202.538 1.202 1.202 0 .663-.538 1.201-1.202 1.201zm14.418 0c-.664 0-1.201-.538-1.201-1.201 0-.664.537-1.202 1.201-1.202s1.202.538 1.202 1.202c0 .663-.538 1.201-1.202 1.201zm72.09 0c-.664 0-1.202-.538-1.202-1.201 0-.664.538-1.202 1.202-1.202.663 0 1.201.538 1.201 1.202 0 .663-.538 1.201-1.201 1.201zm14.418 0c-.664 0-1.202-.538-1.202-1.201 0-.664.538-1.202 1.202-1.202.663 0 1.201.538 1.201 1.202 0 .663-.538 1.201-1.201 1.201z" transform="translate(-200 -1457) translate(200 1457) translate(0 .485)"/>
                </g>
            </g>
        </g>
    </g>
</svg>
