<?xml version="1.0" encoding="UTF-8"?>
<svg width="240px" height="240px" viewBox="0 0 240 240" version="1.1" xmlns="http://www.w3.org/2000/svg" xmlns:xlink="http://www.w3.org/1999/xlink">
    <title>images/pattern-schedule-1</title>
    <g id="images/pattern-schedule-1" stroke="none" stroke-width="1" fill="none" fill-rule="evenodd">
        <g id="Group" transform="translate(0.000000, 10.000000)">
            <path d="M53.0447761,62.0895522 C52.4677622,62.0895522 52,61.62179 52,61.0447761 C52,60.4677622 52.4677622,60 53.0447761,60 C53.62179,60 54.0895522,60.4677622 54.0895522,61.0447761 C54.0895522,61.62179 53.62179,62.0895522 53.0447761,62.0895522 Z M128.268657,62.0895522 C127.691643,62.0895522 127.223881,61.62179 127.223881,61.0447761 C127.223881,60.4677622 127.691643,60 128.268657,60 C128.845671,60 129.313433,60.4677622 129.313433,61.0447761 C129.313433,61.62179 128.845671,62.0895522 128.268657,62.0895522 Z M128.268657,137.313433 C127.691643,137.313433 127.223881,136.845671 127.223881,136.268657 C127.223881,135.691643 127.691643,135.223881 128.268657,135.223881 C128.845671,135.223881 129.313433,135.691643 129.313433,136.268657 C129.313433,136.845671 128.845671,137.313433 128.268657,137.313433 Z M65.5820896,62.0895522 C65.0050756,62.0895522 64.5373134,61.62179 64.5373134,61.0447761 C64.5373134,60.4677622 65.0050756,60 65.5820896,60 C66.1591035,60 66.6268657,60.4677622 66.6268657,61.0447761 C66.6268657,61.62179 66.1591035,62.0895522 65.5820896,62.0895522 Z M65.5820896,137.313433 C65.0050756,137.313433 64.5373134,136.845671 64.5373134,136.268657 C64.5373134,135.691643 65.0050756,135.223881 65.5820896,135.223881 C66.1591035,135.223881 66.6268657,135.691643 66.6268657,136.268657 C66.6268657,136.845671 66.1591035,137.313433 65.5820896,137.313433 Z M140.80597,62.0895522 C140.228956,62.0895522 139.761194,61.62179 139.761194,61.0447761 C139.761194,60.4677622 140.228956,60 140.80597,60 C141.382984,60 141.850746,60.4677622 141.850746,61.0447761 C141.850746,61.62179 141.382984,62.0895522 140.80597,62.0895522 Z M140.80597,137.313433 C140.228956,137.313433 139.761194,136.845671 139.761194,136.268657 C139.761194,135.691643 140.228956,135.223881 140.80597,135.223881 C141.382984,135.223881 141.850746,135.691643 141.850746,136.268657 C141.850746,136.845671 141.382984,137.313433 140.80597,137.313433 Z M53.0447761,87.1641791 C52.4677622,87.1641791 52,86.6964169 52,86.119403 C52,85.5423891 52.4677622,85.0746269 53.0447761,85.0746269 C53.62179,85.0746269 54.0895522,85.5423891 54.0895522,86.119403 C54.0895522,86.6964169 53.62179,87.1641791 53.0447761,87.1641791 Z M128.268657,87.1641791 C127.691643,87.1641791 127.223881,86.6964169 127.223881,86.119403 C127.223881,85.5423891 127.691643,85.0746269 128.268657,85.0746269 C128.845671,85.0746269 129.313433,85.5423891 129.313433,86.119403 C129.313433,86.6964169 128.845671,87.1641791 128.268657,87.1641791 Z M128.268657,162.38806 C127.691643,162.38806 127.223881,161.920297 127.223881,161.343284 C127.223881,160.76627 127.691643,160.298507 128.268657,160.298507 C128.845671,160.298507 129.313433,160.76627 129.313433,161.343284 C129.313433,161.920297 128.845671,162.38806 128.268657,162.38806 Z M65.5820896,87.1641791 C65.0050756,87.1641791 64.5373134,86.6964169 64.5373134,86.119403 C64.5373134,85.5423891 65.0050756,85.0746269 65.5820896,85.0746269 C66.1591035,85.0746269 66.6268657,85.5423891 66.6268657,86.119403 C66.6268657,86.6964169 66.1591035,87.1641791 65.5820896,87.1641791 Z M65.5820896,162.38806 C65.0050756,162.38806 64.5373134,161.920297 64.5373134,161.343284 C64.5373134,160.76627 65.0050756,160.298507 65.5820896,160.298507 C66.1591035,160.298507 66.6268657,160.76627 66.6268657,161.343284 C66.6268657,161.920297 66.1591035,162.38806 65.5820896,162.38806 Z M140.80597,87.1641791 C140.228956,87.1641791 139.761194,86.6964169 139.761194,86.119403 C139.761194,85.5423891 140.228956,85.0746269 140.80597,85.0746269 C141.382984,85.0746269 141.850746,85.5423891 141.850746,86.119403 C141.850746,86.6964169 141.382984,87.1641791 140.80597,87.1641791 Z M140.80597,162.38806 C140.228956,162.38806 139.761194,161.920297 139.761194,161.343284 C139.761194,160.76627 140.228956,160.298507 140.80597,160.298507 C141.382984,160.298507 141.850746,160.76627 141.850746,161.343284 C141.850746,161.920297 141.382984,162.38806 140.80597,162.38806 Z M53.0447761,112.238806 C52.4677622,112.238806 52,111.771044 52,111.19403 C52,110.617016 52.4677622,110.149254 53.0447761,110.149254 C53.62179,110.149254 54.0895522,110.617016 54.0895522,111.19403 C54.0895522,111.771044 53.62179,112.238806 53.0447761,112.238806 Z M128.268657,112.238806 C127.691643,112.238806 127.223881,111.771044 127.223881,111.19403 C127.223881,110.617016 127.691643,110.149254 128.268657,110.149254 C128.845671,110.149254 129.313433,110.617016 129.313433,111.19403 C129.313433,111.771044 128.845671,112.238806 128.268657,112.238806 Z M65.5820896,112.238806 C65.0050756,112.238806 64.5373134,111.771044 64.5373134,111.19403 C64.5373134,110.617016 65.0050756,110.149254 65.5820896,110.149254 C66.1591035,110.149254 66.6268657,110.617016 66.6268657,111.19403 C66.6268657,111.771044 66.1591035,112.238806 65.5820896,112.238806 Z M140.80597,112.238806 C140.228956,112.238806 139.761194,111.771044 139.761194,111.19403 C139.761194,110.617016 140.228956,110.149254 140.80597,110.149254 C141.382984,110.149254 141.850746,110.617016 141.850746,111.19403 C141.850746,111.771044 141.382984,112.238806 140.80597,112.238806 Z M53.0447761,74.6268657 C52.4677622,74.6268657 52,74.1591035 52,73.5820896 C52,73.0050756 52.4677622,72.5373134 53.0447761,72.5373134 C53.62179,72.5373134 54.0895522,73.0050756 54.0895522,73.5820896 C54.0895522,74.1591035 53.62179,74.6268657 53.0447761,74.6268657 Z M128.268657,74.6268657 C127.691643,74.6268657 127.223881,74.1591035 127.223881,73.5820896 C127.223881,73.0050756 127.691643,72.5373134 128.268657,72.5373134 C128.845671,72.5373134 129.313433,73.0050756 129.313433,73.5820896 C129.313433,74.1591035 128.845671,74.6268657 128.268657,74.6268657 Z M128.268657,149.850746 C127.691643,149.850746 127.223881,149.382984 127.223881,148.80597 C127.223881,148.228956 127.691643,147.761194 128.268657,147.761194 C128.845671,147.761194 129.313433,148.228956 129.313433,148.80597 C129.313433,149.382984 128.845671,149.850746 128.268657,149.850746 Z M65.5820896,74.6268657 C65.0050756,74.6268657 64.5373134,74.1591035 64.5373134,73.5820896 C64.5373134,73.0050756 65.0050756,72.5373134 65.5820896,72.5373134 C66.1591035,72.5373134 66.6268657,73.0050756 66.6268657,73.5820896 C66.6268657,74.1591035 66.1591035,74.6268657 65.5820896,74.6268657 Z M65.5820896,149.850746 C65.0050756,149.850746 64.5373134,149.382984 64.5373134,148.80597 C64.5373134,148.228956 65.0050756,147.761194 65.5820896,147.761194 C66.1591035,147.761194 66.6268657,148.228956 66.6268657,148.80597 C66.6268657,149.382984 66.1591035,149.850746 65.5820896,149.850746 Z M140.80597,74.6268657 C140.228956,74.6268657 139.761194,74.1591035 139.761194,73.5820896 C139.761194,73.0050756 140.228956,72.5373134 140.80597,72.5373134 C141.382984,72.5373134 141.850746,73.0050756 141.850746,73.5820896 C141.850746,74.1591035 141.382984,74.6268657 140.80597,74.6268657 Z M140.80597,149.850746 C140.228956,149.850746 139.761194,149.382984 139.761194,148.80597 C139.761194,148.228956 140.228956,147.761194 140.80597,147.761194 C141.382984,147.761194 141.850746,148.228956 141.850746,148.80597 C141.850746,149.382984 141.382984,149.850746 140.80597,149.850746 Z M53.0447761,99.7014925 C52.4677622,99.7014925 52,99.2337303 52,98.6567164 C52,98.0797025 52.4677622,97.6119403 53.0447761,97.6119403 C53.62179,97.6119403 54.0895522,98.0797025 54.0895522,98.6567164 C54.0895522,99.2337303 53.62179,99.7014925 53.0447761,99.7014925 Z M128.268657,99.7014925 C127.691643,99.7014925 127.223881,99.2337303 127.223881,98.6567164 C127.223881,98.0797025 127.691643,97.6119403 128.268657,97.6119403 C128.845671,97.6119403 129.313433,98.0797025 129.313433,98.6567164 C129.313433,99.2337303 128.845671,99.7014925 128.268657,99.7014925 Z M65.5820896,99.7014925 C65.0050756,99.7014925 64.5373134,99.2337303 64.5373134,98.6567164 C64.5373134,98.0797025 65.0050756,97.6119403 65.5820896,97.6119403 C66.1591035,97.6119403 66.6268657,98.0797025 66.6268657,98.6567164 C66.6268657,99.2337303 66.1591035,99.7014925 65.5820896,99.7014925 Z M140.80597,99.7014925 C140.228956,99.7014925 139.761194,99.2337303 139.761194,98.6567164 C139.761194,98.0797025 140.228956,97.6119403 140.80597,97.6119403 C141.382984,97.6119403 141.850746,98.0797025 141.850746,98.6567164 C141.850746,99.2337303 141.382984,99.7014925 140.80597,99.7014925 Z M53.0447761,124.776119 C52.4677622,124.776119 52,124.308357 52,123.731343 C52,123.154329 52.4677622,122.686567 53.0447761,122.686567 C53.62179,122.686567 54.0895522,123.154329 54.0895522,123.731343 C54.0895522,124.308357 53.62179,124.776119 53.0447761,124.776119 Z M128.268657,124.776119 C127.691643,124.776119 127.223881,124.308357 127.223881,123.731343 C127.223881,123.154329 127.691643,122.686567 128.268657,122.686567 C128.845671,122.686567 129.313433,123.154329 129.313433,123.731343 C129.313433,124.308357 128.845671,124.776119 128.268657,124.776119 Z M65.5820896,124.776119 C65.0050756,124.776119 64.5373134,124.308357 64.5373134,123.731343 C64.5373134,123.154329 65.0050756,122.686567 65.5820896,122.686567 C66.1591035,122.686567 66.6268657,123.154329 66.6268657,123.731343 C66.6268657,124.308357 66.1591035,124.776119 65.5820896,124.776119 Z M140.80597,124.776119 C140.228956,124.776119 139.761194,124.308357 139.761194,123.731343 C139.761194,123.154329 140.228956,122.686567 140.80597,122.686567 C141.382984,122.686567 141.850746,123.154329 141.850746,123.731343 C141.850746,124.308357 141.382984,124.776119 140.80597,124.776119 Z M78.119403,62.0895522 C77.5423891,62.0895522 77.0746269,61.62179 77.0746269,61.0447761 C77.0746269,60.4677622 77.5423891,60 78.119403,60 C78.6964169,60 79.1641791,60.4677622 79.1641791,61.0447761 C79.1641791,61.62179 78.6964169,62.0895522 78.119403,62.0895522 Z M78.119403,137.313433 C77.5423891,137.313433 77.0746269,136.845671 77.0746269,136.268657 C77.0746269,135.691643 77.5423891,135.223881 78.119403,135.223881 C78.6964169,135.223881 79.1641791,135.691643 79.1641791,136.268657 C79.1641791,136.845671 78.6964169,137.313433 78.119403,137.313433 Z M153.343284,62.0895522 C152.76627,62.0895522 152.298507,61.62179 152.298507,61.0447761 C152.298507,60.4677622 152.76627,60 153.343284,60 C153.920297,60 154.38806,60.4677622 154.38806,61.0447761 C154.38806,61.62179 153.920297,62.0895522 153.343284,62.0895522 Z M153.343284,137.313433 C152.76627,137.313433 152.298507,136.845671 152.298507,136.268657 C152.298507,135.691643 152.76627,135.223881 153.343284,135.223881 C153.920297,135.223881 154.38806,135.691643 154.38806,136.268657 C154.38806,136.845671 153.920297,137.313433 153.343284,137.313433 Z M90.6567164,62.0895522 C90.0797025,62.0895522 89.6119403,61.62179 89.6119403,61.0447761 C89.6119403,60.4677622 90.0797025,60 90.6567164,60 C91.2337303,60 91.7014925,60.4677622 91.7014925,61.0447761 C91.7014925,61.62179 91.2337303,62.0895522 90.6567164,62.0895522 Z M90.6567164,137.313433 C90.0797025,137.313433 89.6119403,136.845671 89.6119403,136.268657 C89.6119403,135.691643 90.0797025,135.223881 90.6567164,135.223881 C91.2337303,135.223881 91.7014925,135.691643 91.7014925,136.268657 C91.7014925,136.845671 91.2337303,137.313433 90.6567164,137.313433 Z M165.880597,62.0895522 C165.303583,62.0895522 164.835821,61.62179 164.835821,61.0447761 C164.835821,60.4677622 165.303583,60 165.880597,60 C166.457611,60 166.925373,60.4677622 166.925373,61.0447761 C166.925373,61.62179 166.457611,62.0895522 165.880597,62.0895522 Z M165.880597,137.313433 C165.303583,137.313433 164.835821,136.845671 164.835821,136.268657 C164.835821,135.691643 165.303583,135.223881 165.880597,135.223881 C166.457611,135.223881 166.925373,135.691643 166.925373,136.268657 C166.925373,136.845671 166.457611,137.313433 165.880597,137.313433 Z M78.119403,87.1641791 C77.5423891,87.1641791 77.0746269,86.6964169 77.0746269,86.119403 C77.0746269,85.5423891 77.5423891,85.0746269 78.119403,85.0746269 C78.6964169,85.0746269 79.1641791,85.5423891 79.1641791,86.119403 C79.1641791,86.6964169 78.6964169,87.1641791 78.119403,87.1641791 Z M78.119403,162.38806 C77.5423891,162.38806 77.0746269,161.920297 77.0746269,161.343284 C77.0746269,160.76627 77.5423891,160.298507 78.119403,160.298507 C78.6964169,160.298507 79.1641791,160.76627 79.1641791,161.343284 C79.1641791,161.920297 78.6964169,162.38806 78.119403,162.38806 Z M153.343284,87.1641791 C152.76627,87.1641791 152.298507,86.6964169 152.298507,86.119403 C152.298507,85.5423891 152.76627,85.0746269 153.343284,85.0746269 C153.920297,85.0746269 154.38806,85.5423891 154.38806,86.119403 C154.38806,86.6964169 153.920297,87.1641791 153.343284,87.1641791 Z M153.343284,162.38806 C152.76627,162.38806 152.298507,161.920297 152.298507,161.343284 C152.298507,160.76627 152.76627,160.298507 153.343284,160.298507 C153.920297,160.298507 154.38806,160.76627 154.38806,161.343284 C154.38806,161.920297 153.920297,162.38806 153.343284,162.38806 Z M90.6567164,87.1641791 C90.0797025,87.1641791 89.6119403,86.6964169 89.6119403,86.119403 C89.6119403,85.5423891 90.0797025,85.0746269 90.6567164,85.0746269 C91.2337303,85.0746269 91.7014925,85.5423891 91.7014925,86.119403 C91.7014925,86.6964169 91.2337303,87.1641791 90.6567164,87.1641791 Z M90.6567164,162.38806 C90.0797025,162.38806 89.6119403,161.920297 89.6119403,161.343284 C89.6119403,160.76627 90.0797025,160.298507 90.6567164,160.298507 C91.2337303,160.298507 91.7014925,160.76627 91.7014925,161.343284 C91.7014925,161.920297 91.2337303,162.38806 90.6567164,162.38806 Z M165.880597,87.1641791 C165.303583,87.1641791 164.835821,86.6964169 164.835821,86.119403 C164.835821,85.5423891 165.303583,85.0746269 165.880597,85.0746269 C166.457611,85.0746269 166.925373,85.5423891 166.925373,86.119403 C166.925373,86.6964169 166.457611,87.1641791 165.880597,87.1641791 Z M165.880597,162.38806 C165.303583,162.38806 164.835821,161.920297 164.835821,161.343284 C164.835821,160.76627 165.303583,160.298507 165.880597,160.298507 C166.457611,160.298507 166.925373,160.76627 166.925373,161.343284 C166.925373,161.920297 166.457611,162.38806 165.880597,162.38806 Z M78.119403,112.238806 C77.5423891,112.238806 77.0746269,111.771044 77.0746269,111.19403 C77.0746269,110.617016 77.5423891,110.149254 78.119403,110.149254 C78.6964169,110.149254 79.1641791,110.617016 79.1641791,111.19403 C79.1641791,111.771044 78.6964169,112.238806 78.119403,112.238806 Z M153.343284,112.238806 C152.76627,112.238806 152.298507,111.771044 152.298507,111.19403 C152.298507,110.617016 152.76627,110.149254 153.343284,110.149254 C153.920297,110.149254 154.38806,110.617016 154.38806,111.19403 C154.38806,111.771044 153.920297,112.238806 153.343284,112.238806 Z M90.6567164,112.238806 C90.0797025,112.238806 89.6119403,111.771044 89.6119403,111.19403 C89.6119403,110.617016 90.0797025,110.149254 90.6567164,110.149254 C91.2337303,110.149254 91.7014925,110.617016 91.7014925,111.19403 C91.7014925,111.771044 91.2337303,112.238806 90.6567164,112.238806 Z M165.880597,112.238806 C165.303583,112.238806 164.835821,111.771044 164.835821,111.19403 C164.835821,110.617016 165.303583,110.149254 165.880597,110.149254 C166.457611,110.149254 166.925373,110.617016 166.925373,111.19403 C166.925373,111.771044 166.457611,112.238806 165.880597,112.238806 Z M78.119403,74.6268657 C77.5423891,74.6268657 77.0746269,74.1591035 77.0746269,73.5820896 C77.0746269,73.0050756 77.5423891,72.5373134 78.119403,72.5373134 C78.6964169,72.5373134 79.1641791,73.0050756 79.1641791,73.5820896 C79.1641791,74.1591035 78.6964169,74.6268657 78.119403,74.6268657 Z M78.119403,149.850746 C77.5423891,149.850746 77.0746269,149.382984 77.0746269,148.80597 C77.0746269,148.228956 77.5423891,147.761194 78.119403,147.761194 C78.6964169,147.761194 79.1641791,148.228956 79.1641791,148.80597 C79.1641791,149.382984 78.6964169,149.850746 78.119403,149.850746 Z M153.343284,74.6268657 C152.76627,74.6268657 152.298507,74.1591035 152.298507,73.5820896 C152.298507,73.0050756 152.76627,72.5373134 153.343284,72.5373134 C153.920297,72.5373134 154.38806,73.0050756 154.38806,73.5820896 C154.38806,74.1591035 153.920297,74.6268657 153.343284,74.6268657 Z M153.343284,149.850746 C152.76627,149.850746 152.298507,149.382984 152.298507,148.80597 C152.298507,148.228956 152.76627,147.761194 153.343284,147.761194 C153.920297,147.761194 154.38806,148.228956 154.38806,148.80597 C154.38806,149.382984 153.920297,149.850746 153.343284,149.850746 Z M90.6567164,74.6268657 C90.0797025,74.6268657 89.6119403,74.1591035 89.6119403,73.5820896 C89.6119403,73.0050756 90.0797025,72.5373134 90.6567164,72.5373134 C91.2337303,72.5373134 91.7014925,73.0050756 91.7014925,73.5820896 C91.7014925,74.1591035 91.2337303,74.6268657 90.6567164,74.6268657 Z M90.6567164,149.850746 C90.0797025,149.850746 89.6119403,149.382984 89.6119403,148.80597 C89.6119403,148.228956 90.0797025,147.761194 90.6567164,147.761194 C91.2337303,147.761194 91.7014925,148.228956 91.7014925,148.80597 C91.7014925,149.382984 91.2337303,149.850746 90.6567164,149.850746 Z M165.880597,74.6268657 C165.303583,74.6268657 164.835821,74.1591035 164.835821,73.5820896 C164.835821,73.0050756 165.303583,72.5373134 165.880597,72.5373134 C166.457611,72.5373134 166.925373,73.0050756 166.925373,73.5820896 C166.925373,74.1591035 166.457611,74.6268657 165.880597,74.6268657 Z M165.880597,149.850746 C165.303583,149.850746 164.835821,149.382984 164.835821,148.80597 C164.835821,148.228956 165.303583,147.761194 165.880597,147.761194 C166.457611,147.761194 166.925373,148.228956 166.925373,148.80597 C166.925373,149.382984 166.457611,149.850746 165.880597,149.850746 Z M78.119403,99.7014925 C77.5423891,99.7014925 77.0746269,99.2337303 77.0746269,98.6567164 C77.0746269,98.0797025 77.5423891,97.6119403 78.119403,97.6119403 C78.6964169,97.6119403 79.1641791,98.0797025 79.1641791,98.6567164 C79.1641791,99.2337303 78.6964169,99.7014925 78.119403,99.7014925 Z M153.343284,99.7014925 C152.76627,99.7014925 152.298507,99.2337303 152.298507,98.6567164 C152.298507,98.0797025 152.76627,97.6119403 153.343284,97.6119403 C153.920297,97.6119403 154.38806,98.0797025 154.38806,98.6567164 C154.38806,99.2337303 153.920297,99.7014925 153.343284,99.7014925 Z M90.6567164,99.7014925 C90.0797025,99.7014925 89.6119403,99.2337303 89.6119403,98.6567164 C89.6119403,98.0797025 90.0797025,97.6119403 90.6567164,97.6119403 C91.2337303,97.6119403 91.7014925,98.0797025 91.7014925,98.6567164 C91.7014925,99.2337303 91.2337303,99.7014925 90.6567164,99.7014925 Z M165.880597,99.7014925 C165.303583,99.7014925 164.835821,99.2337303 164.835821,98.6567164 C164.835821,98.0797025 165.303583,97.6119403 165.880597,97.6119403 C166.457611,97.6119403 166.925373,98.0797025 166.925373,98.6567164 C166.925373,99.2337303 166.457611,99.7014925 165.880597,99.7014925 Z M78.119403,124.776119 C77.5423891,124.776119 77.0746269,124.308357 77.0746269,123.731343 C77.0746269,123.154329 77.5423891,122.686567 78.119403,122.686567 C78.6964169,122.686567 79.1641791,123.154329 79.1641791,123.731343 C79.1641791,124.308357 78.6964169,124.776119 78.119403,124.776119 Z M153.343284,124.776119 C152.76627,124.776119 152.298507,124.308357 152.298507,123.731343 C152.298507,123.154329 152.76627,122.686567 153.343284,122.686567 C153.920297,122.686567 154.38806,123.154329 154.38806,123.731343 C154.38806,124.308357 153.920297,124.776119 153.343284,124.776119 Z M90.6567164,124.776119 C90.0797025,124.776119 89.6119403,124.308357 89.6119403,123.731343 C89.6119403,123.154329 90.0797025,122.686567 90.6567164,122.686567 C91.2337303,122.686567 91.7014925,123.154329 91.7014925,123.731343 C91.7014925,124.308357 91.2337303,124.776119 90.6567164,124.776119 Z M165.880597,124.776119 C165.303583,124.776119 164.835821,124.308357 164.835821,123.731343 C164.835821,123.154329 165.303583,122.686567 165.880597,122.686567 C166.457611,122.686567 166.925373,123.154329 166.925373,123.731343 C166.925373,124.308357 166.457611,124.776119 165.880597,124.776119 Z M103.19403,62.0895522 C102.617016,62.0895522 102.149254,61.62179 102.149254,61.0447761 C102.149254,60.4677622 102.617016,60 103.19403,60 C103.771044,60 104.238806,60.4677622 104.238806,61.0447761 C104.238806,61.62179 103.771044,62.0895522 103.19403,62.0895522 Z M103.19403,137.313433 C102.617016,137.313433 102.149254,136.845671 102.149254,136.268657 C102.149254,135.691643 102.617016,135.223881 103.19403,135.223881 C103.771044,135.223881 104.238806,135.691643 104.238806,136.268657 C104.238806,136.845671 103.771044,137.313433 103.19403,137.313433 Z M115.731343,62.0895522 C115.154329,62.0895522 114.686567,61.62179 114.686567,61.0447761 C114.686567,60.4677622 115.154329,60 115.731343,60 C116.308357,60 116.776119,60.4677622 116.776119,61.0447761 C116.776119,61.62179 116.308357,62.0895522 115.731343,62.0895522 Z M115.731343,137.313433 C115.154329,137.313433 114.686567,136.845671 114.686567,136.268657 C114.686567,135.691643 115.154329,135.223881 115.731343,135.223881 C116.308357,135.223881 116.776119,135.691643 116.776119,136.268657 C116.776119,136.845671 116.308357,137.313433 115.731343,137.313433 Z M103.19403,87.1641791 C102.617016,87.1641791 102.149254,86.6964169 102.149254,86.119403 C102.149254,85.5423891 102.617016,85.0746269 103.19403,85.0746269 C103.771044,85.0746269 104.238806,85.5423891 104.238806,86.119403 C104.238806,86.6964169 103.771044,87.1641791 103.19403,87.1641791 Z M103.19403,162.38806 C102.617016,162.38806 102.149254,161.920297 102.149254,161.343284 C102.149254,160.76627 102.617016,160.298507 103.19403,160.298507 C103.771044,160.298507 104.238806,160.76627 104.238806,161.343284 C104.238806,161.920297 103.771044,162.38806 103.19403,162.38806 Z M115.731343,87.1641791 C115.154329,87.1641791 114.686567,86.6964169 114.686567,86.119403 C114.686567,85.5423891 115.154329,85.0746269 115.731343,85.0746269 C116.308357,85.0746269 116.776119,85.5423891 116.776119,86.119403 C116.776119,86.6964169 116.308357,87.1641791 115.731343,87.1641791 Z M115.731343,162.38806 C115.154329,162.38806 114.686567,161.920297 114.686567,161.343284 C114.686567,160.76627 115.154329,160.298507 115.731343,160.298507 C116.308357,160.298507 116.776119,160.76627 116.776119,161.343284 C116.776119,161.920297 116.308357,162.38806 115.731343,162.38806 Z M103.19403,112.238806 C102.617016,112.238806 102.149254,111.771044 102.149254,111.19403 C102.149254,110.617016 102.617016,110.149254 103.19403,110.149254 C103.771044,110.149254 104.238806,110.617016 104.238806,111.19403 C104.238806,111.771044 103.771044,112.238806 103.19403,112.238806 Z M115.731343,112.238806 C115.154329,112.238806 114.686567,111.771044 114.686567,111.19403 C114.686567,110.617016 115.154329,110.149254 115.731343,110.149254 C116.308357,110.149254 116.776119,110.617016 116.776119,111.19403 C116.776119,111.771044 116.308357,112.238806 115.731343,112.238806 Z M103.19403,74.6268657 C102.617016,74.6268657 102.149254,74.1591035 102.149254,73.5820896 C102.149254,73.0050756 102.617016,72.5373134 103.19403,72.5373134 C103.771044,72.5373134 104.238806,73.0050756 104.238806,73.5820896 C104.238806,74.1591035 103.771044,74.6268657 103.19403,74.6268657 Z M103.19403,149.850746 C102.617016,149.850746 102.149254,149.382984 102.149254,148.80597 C102.149254,148.228956 102.617016,147.761194 103.19403,147.761194 C103.771044,147.761194 104.238806,148.228956 104.238806,148.80597 C104.238806,149.382984 103.771044,149.850746 103.19403,149.850746 Z M115.731343,74.6268657 C115.154329,74.6268657 114.686567,74.1591035 114.686567,73.5820896 C114.686567,73.0050756 115.154329,72.5373134 115.731343,72.5373134 C116.308357,72.5373134 116.776119,73.0050756 116.776119,73.5820896 C116.776119,74.1591035 116.308357,74.6268657 115.731343,74.6268657 Z M115.731343,149.850746 C115.154329,149.850746 114.686567,149.382984 114.686567,148.80597 C114.686567,148.228956 115.154329,147.761194 115.731343,147.761194 C116.308357,147.761194 116.776119,148.228956 116.776119,148.80597 C116.776119,149.382984 116.308357,149.850746 115.731343,149.850746 Z M103.19403,99.7014925 C102.617016,99.7014925 102.149254,99.2337303 102.149254,98.6567164 C102.149254,98.0797025 102.617016,97.6119403 103.19403,97.6119403 C103.771044,97.6119403 104.238806,98.0797025 104.238806,98.6567164 C104.238806,99.2337303 103.771044,99.7014925 103.19403,99.7014925 Z M115.731343,99.7014925 C115.154329,99.7014925 114.686567,99.2337303 114.686567,98.6567164 C114.686567,98.0797025 115.154329,97.6119403 115.731343,97.6119403 C116.308357,97.6119403 116.776119,98.0797025 116.776119,98.6567164 C116.776119,99.2337303 116.308357,99.7014925 115.731343,99.7014925 Z M103.19403,124.776119 C102.617016,124.776119 102.149254,124.308357 102.149254,123.731343 C102.149254,123.154329 102.617016,122.686567 103.19403,122.686567 C103.771044,122.686567 104.238806,123.154329 104.238806,123.731343 C104.238806,124.308357 103.771044,124.776119 103.19403,124.776119 Z M115.731343,124.776119 C115.154329,124.776119 114.686567,124.308357 114.686567,123.731343 C114.686567,123.154329 115.154329,122.686567 115.731343,122.686567 C116.308357,122.686567 116.776119,123.154329 116.776119,123.731343 C116.776119,124.308357 116.308357,124.776119 115.731343,124.776119 Z M178.41791,62.0895522 C177.840897,62.0895522 177.373134,61.62179 177.373134,61.0447761 C177.373134,60.4677622 177.840897,60 178.41791,60 C178.994924,60 179.462687,60.4677622 179.462687,61.0447761 C179.462687,61.62179 178.994924,62.0895522 178.41791,62.0895522 Z M178.41791,137.313433 C177.840897,137.313433 177.373134,136.845671 177.373134,136.268657 C177.373134,135.691643 177.840897,135.223881 178.41791,135.223881 C178.994924,135.223881 179.462687,135.691643 179.462687,136.268657 C179.462687,136.845671 178.994924,137.313433 178.41791,137.313433 Z M178.41791,87.1641791 C177.840897,87.1641791 177.373134,86.6964169 177.373134,86.119403 C177.373134,85.5423891 177.840897,85.0746269 178.41791,85.0746269 C178.994924,85.0746269 179.462687,85.5423891 179.462687,86.119403 C179.462687,86.6964169 178.994924,87.1641791 178.41791,87.1641791 Z M178.41791,162.38806 C177.840897,162.38806 177.373134,161.920297 177.373134,161.343284 C177.373134,160.76627 177.840897,160.298507 178.41791,160.298507 C178.994924,160.298507 179.462687,160.76627 179.462687,161.343284 C179.462687,161.920297 178.994924,162.38806 178.41791,162.38806 Z M178.41791,112.238806 C177.840897,112.238806 177.373134,111.771044 177.373134,111.19403 C177.373134,110.617016 177.840897,110.149254 178.41791,110.149254 C178.994924,110.149254 179.462687,110.617016 179.462687,111.19403 C179.462687,111.771044 178.994924,112.238806 178.41791,112.238806 Z M178.41791,74.6268657 C177.840897,74.6268657 177.373134,74.1591035 177.373134,73.5820896 C177.373134,73.0050756 177.840897,72.5373134 178.41791,72.5373134 C178.994924,72.5373134 179.462687,73.0050756 179.462687,73.5820896 C179.462687,74.1591035 178.994924,74.6268657 178.41791,74.6268657 Z M178.41791,149.850746 C177.840897,149.850746 177.373134,149.382984 177.373134,148.80597 C177.373134,148.228956 177.840897,147.761194 178.41791,147.761194 C178.994924,147.761194 179.462687,148.228956 179.462687,148.80597 C179.462687,149.382984 178.994924,149.850746 178.41791,149.850746 Z M178.41791,99.7014925 C177.840897,99.7014925 177.373134,99.2337303 177.373134,98.6567164 C177.373134,98.0797025 177.840897,97.6119403 178.41791,97.6119403 C178.994924,97.6119403 179.462687,98.0797025 179.462687,98.6567164 C179.462687,99.2337303 178.994924,99.7014925 178.41791,99.7014925 Z M178.41791,124.776119 C177.840897,124.776119 177.373134,124.308357 177.373134,123.731343 C177.373134,123.154329 177.840897,122.686567 178.41791,122.686567 C178.994924,122.686567 179.462687,123.154329 179.462687,123.731343 C179.462687,124.308357 178.994924,124.776119 178.41791,124.776119 Z M190.955224,62.0895522 C190.37821,62.0895522 189.910448,61.62179 189.910448,61.0447761 C189.910448,60.4677622 190.37821,60 190.955224,60 C191.532238,60 192,60.4677622 192,61.0447761 C192,61.62179 191.532238,62.0895522 190.955224,62.0895522 Z M190.955224,87.1641791 C190.37821,87.1641791 189.910448,86.6964169 189.910448,86.119403 C189.910448,85.5423891 190.37821,85.0746269 190.955224,85.0746269 C191.532238,85.0746269 192,85.5423891 192,86.119403 C192,86.6964169 191.532238,87.1641791 190.955224,87.1641791 Z M190.955224,112.238806 C190.37821,112.238806 189.910448,111.771044 189.910448,111.19403 C189.910448,110.617016 190.37821,110.149254 190.955224,110.149254 C191.532238,110.149254 192,110.617016 192,111.19403 C192,111.771044 191.532238,112.238806 190.955224,112.238806 Z M190.955224,74.6268657 C190.37821,74.6268657 189.910448,74.1591035 189.910448,73.5820896 C189.910448,73.0050756 190.37821,72.5373134 190.955224,72.5373134 C191.532238,72.5373134 192,73.0050756 192,73.5820896 C192,74.1591035 191.532238,74.6268657 190.955224,74.6268657 Z M190.955224,99.7014925 C190.37821,99.7014925 189.910448,99.2337303 189.910448,98.6567164 C189.910448,98.0797025 190.37821,97.6119403 190.955224,97.6119403 C191.532238,97.6119403 192,98.0797025 192,98.6567164 C192,99.2337303 191.532238,99.7014925 190.955224,99.7014925 Z M190.955224,124.776119 C190.37821,124.776119 189.910448,124.308357 189.910448,123.731343 C189.910448,123.154329 190.37821,122.686567 190.955224,122.686567 C191.532238,122.686567 192,123.154329 192,123.731343 C192,124.308357 191.532238,124.776119 190.955224,124.776119 Z M53.0447761,137.313433 C52.4677622,137.313433 52,136.845671 52,136.268657 C52,135.691643 52.4677622,135.223881 53.0447761,135.223881 C53.62179,135.223881 54.0895522,135.691643 54.0895522,136.268657 C54.0895522,136.845671 53.62179,137.313433 53.0447761,137.313433 Z M53.0447761,162.38806 C52.4677622,162.38806 52,161.920297 52,161.343284 C52,160.76627 52.4677622,160.298507 53.0447761,160.298507 C53.62179,160.298507 54.0895522,160.76627 54.0895522,161.343284 C54.0895522,161.920297 53.62179,162.38806 53.0447761,162.38806 Z M53.0447761,187.462687 C52.4677622,187.462687 52,186.994924 52,186.41791 C52,185.840897 52.4677622,185.373134 53.0447761,185.373134 C53.62179,185.373134 54.0895522,185.840897 54.0895522,186.41791 C54.0895522,186.994924 53.62179,187.462687 53.0447761,187.462687 Z M128.268657,187.462687 C127.691643,187.462687 127.223881,186.994924 127.223881,186.41791 C127.223881,185.840897 127.691643,185.373134 128.268657,185.373134 C128.845671,185.373134 129.313433,185.840897 129.313433,186.41791 C129.313433,186.994924 128.845671,187.462687 128.268657,187.462687 Z M65.5820896,187.462687 C65.0050756,187.462687 64.5373134,186.994924 64.5373134,186.41791 C64.5373134,185.840897 65.0050756,185.373134 65.5820896,185.373134 C66.1591035,185.373134 66.6268657,185.840897 66.6268657,186.41791 C66.6268657,186.994924 66.1591035,187.462687 65.5820896,187.462687 Z M140.80597,187.462687 C140.228956,187.462687 139.761194,186.994924 139.761194,186.41791 C139.761194,185.840897 140.228956,185.373134 140.80597,185.373134 C141.382984,185.373134 141.850746,185.840897 141.850746,186.41791 C141.850746,186.994924 141.382984,187.462687 140.80597,187.462687 Z M53.0447761,149.850746 C52.4677622,149.850746 52,149.382984 52,148.80597 C52,148.228956 52.4677622,147.761194 53.0447761,147.761194 C53.62179,147.761194 54.0895522,148.228956 54.0895522,148.80597 C54.0895522,149.382984 53.62179,149.850746 53.0447761,149.850746 Z M53.0447761,174.925373 C52.4677622,174.925373 52,174.457611 52,173.880597 C52,173.303583 52.4677622,172.835821 53.0447761,172.835821 C53.62179,172.835821 54.0895522,173.303583 54.0895522,173.880597 C54.0895522,174.457611 53.62179,174.925373 53.0447761,174.925373 Z M128.268657,174.925373 C127.691643,174.925373 127.223881,174.457611 127.223881,173.880597 C127.223881,173.303583 127.691643,172.835821 128.268657,172.835821 C128.845671,172.835821 129.313433,173.303583 129.313433,173.880597 C129.313433,174.457611 128.845671,174.925373 128.268657,174.925373 Z M65.5820896,174.925373 C65.0050756,174.925373 64.5373134,174.457611 64.5373134,173.880597 C64.5373134,173.303583 65.0050756,172.835821 65.5820896,172.835821 C66.1591035,172.835821 66.6268657,173.303583 66.6268657,173.880597 C66.6268657,174.457611 66.1591035,174.925373 65.5820896,174.925373 Z M140.80597,174.925373 C140.228956,174.925373 139.761194,174.457611 139.761194,173.880597 C139.761194,173.303583 140.228956,172.835821 140.80597,172.835821 C141.382984,172.835821 141.850746,173.303583 141.850746,173.880597 C141.850746,174.457611 141.382984,174.925373 140.80597,174.925373 Z M78.119403,187.462687 C77.5423891,187.462687 77.0746269,186.994924 77.0746269,186.41791 C77.0746269,185.840897 77.5423891,185.373134 78.119403,185.373134 C78.6964169,185.373134 79.1641791,185.840897 79.1641791,186.41791 C79.1641791,186.994924 78.6964169,187.462687 78.119403,187.462687 Z M153.343284,187.462687 C152.76627,187.462687 152.298507,186.994924 152.298507,186.41791 C152.298507,185.840897 152.76627,185.373134 153.343284,185.373134 C153.920297,185.373134 154.38806,185.840897 154.38806,186.41791 C154.38806,186.994924 153.920297,187.462687 153.343284,187.462687 Z M90.6567164,187.462687 C90.0797025,187.462687 89.6119403,186.994924 89.6119403,186.41791 C89.6119403,185.840897 90.0797025,185.373134 90.6567164,185.373134 C91.2337303,185.373134 91.7014925,185.840897 91.7014925,186.41791 C91.7014925,186.994924 91.2337303,187.462687 90.6567164,187.462687 Z M165.880597,187.462687 C165.303583,187.462687 164.835821,186.994924 164.835821,186.41791 C164.835821,185.840897 165.303583,185.373134 165.880597,185.373134 C166.457611,185.373134 166.925373,185.840897 166.925373,186.41791 C166.925373,186.994924 166.457611,187.462687 165.880597,187.462687 Z M78.119403,174.925373 C77.5423891,174.925373 77.0746269,174.457611 77.0746269,173.880597 C77.0746269,173.303583 77.5423891,172.835821 78.119403,172.835821 C78.6964169,172.835821 79.1641791,173.303583 79.1641791,173.880597 C79.1641791,174.457611 78.6964169,174.925373 78.119403,174.925373 Z M153.343284,174.925373 C152.76627,174.925373 152.298507,174.457611 152.298507,173.880597 C152.298507,173.303583 152.76627,172.835821 153.343284,172.835821 C153.920297,172.835821 154.38806,173.303583 154.38806,173.880597 C154.38806,174.457611 153.920297,174.925373 153.343284,174.925373 Z M90.6567164,174.925373 C90.0797025,174.925373 89.6119403,174.457611 89.6119403,173.880597 C89.6119403,173.303583 90.0797025,172.835821 90.6567164,172.835821 C91.2337303,172.835821 91.7014925,173.303583 91.7014925,173.880597 C91.7014925,174.457611 91.2337303,174.925373 90.6567164,174.925373 Z M165.880597,174.925373 C165.303583,174.925373 164.835821,174.457611 164.835821,173.880597 C164.835821,173.303583 165.303583,172.835821 165.880597,172.835821 C166.457611,172.835821 166.925373,173.303583 166.925373,173.880597 C166.925373,174.457611 166.457611,174.925373 165.880597,174.925373 Z M103.19403,187.462687 C102.617016,187.462687 102.149254,186.994924 102.149254,186.41791 C102.149254,185.840897 102.617016,185.373134 103.19403,185.373134 C103.771044,185.373134 104.238806,185.840897 104.238806,186.41791 C104.238806,186.994924 103.771044,187.462687 103.19403,187.462687 Z M115.731343,187.462687 C115.154329,187.462687 114.686567,186.994924 114.686567,186.41791 C114.686567,185.840897 115.154329,185.373134 115.731343,185.373134 C116.308357,185.373134 116.776119,185.840897 116.776119,186.41791 C116.776119,186.994924 116.308357,187.462687 115.731343,187.462687 Z M103.19403,174.925373 C102.617016,174.925373 102.149254,174.457611 102.149254,173.880597 C102.149254,173.303583 102.617016,172.835821 103.19403,172.835821 C103.771044,172.835821 104.238806,173.303583 104.238806,173.880597 C104.238806,174.457611 103.771044,174.925373 103.19403,174.925373 Z M115.731343,174.925373 C115.154329,174.925373 114.686567,174.457611 114.686567,173.880597 C114.686567,173.303583 115.154329,172.835821 115.731343,172.835821 C116.308357,172.835821 116.776119,173.303583 116.776119,173.880597 C116.776119,174.457611 116.308357,174.925373 115.731343,174.925373 Z M178.41791,187.462687 C177.840897,187.462687 177.373134,186.994924 177.373134,186.41791 C177.373134,185.840897 177.840897,185.373134 178.41791,185.373134 C178.994924,185.373134 179.462687,185.840897 179.462687,186.41791 C179.462687,186.994924 178.994924,187.462687 178.41791,187.462687 Z M178.41791,174.925373 C177.840897,174.925373 177.373134,174.457611 177.373134,173.880597 C177.373134,173.303583 177.840897,172.835821 178.41791,172.835821 C178.994924,172.835821 179.462687,173.303583 179.462687,173.880597 C179.462687,174.457611 178.994924,174.925373 178.41791,174.925373 Z M190.955224,137.313433 C190.37821,137.313433 189.910448,136.845671 189.910448,136.268657 C189.910448,135.691643 190.37821,135.223881 190.955224,135.223881 C191.532238,135.223881 192,135.691643 192,136.268657 C192,136.845671 191.532238,137.313433 190.955224,137.313433 Z M190.955224,162.38806 C190.37821,162.38806 189.910448,161.920297 189.910448,161.343284 C189.910448,160.76627 190.37821,160.298507 190.955224,160.298507 C191.532238,160.298507 192,160.76627 192,161.343284 C192,161.920297 191.532238,162.38806 190.955224,162.38806 Z M190.955224,187.462687 C190.37821,187.462687 189.910448,186.994924 189.910448,186.41791 C189.910448,185.840897 190.37821,185.373134 190.955224,185.373134 C191.532238,185.373134 192,185.840897 192,186.41791 C192,186.994924 191.532238,187.462687 190.955224,187.462687 Z M190.955224,149.850746 C190.37821,149.850746 189.910448,149.382984 189.910448,148.80597 C189.910448,148.228956 190.37821,147.761194 190.955224,147.761194 C191.532238,147.761194 192,148.228956 192,148.80597 C192,149.382984 191.532238,149.850746 190.955224,149.850746 Z M190.955224,174.925373 C190.37821,174.925373 189.910448,174.457611 189.910448,173.880597 C189.910448,173.303583 190.37821,172.835821 190.955224,172.835821 C191.532238,172.835821 192,173.303583 192,173.880597 C192,174.457611 191.532238,174.925373 190.955224,174.925373 Z M53.0447761,200 C52.4677622,200 52,199.532238 52,198.955224 C52,198.37821 52.4677622,197.910448 53.0447761,197.910448 C53.62179,197.910448 54.0895522,198.37821 54.0895522,198.955224 C54.0895522,199.532238 53.62179,200 53.0447761,200 Z M128.268657,200 C127.691643,200 127.223881,199.532238 127.223881,198.955224 C127.223881,198.37821 127.691643,197.910448 128.268657,197.910448 C128.845671,197.910448 129.313433,198.37821 129.313433,198.955224 C129.313433,199.532238 128.845671,200 128.268657,200 Z M65.5820896,200 C65.0050756,200 64.5373134,199.532238 64.5373134,198.955224 C64.5373134,198.37821 65.0050756,197.910448 65.5820896,197.910448 C66.1591035,197.910448 66.6268657,198.37821 66.6268657,198.955224 C66.6268657,199.532238 66.1591035,200 65.5820896,200 Z M140.80597,200 C140.228956,200 139.761194,199.532238 139.761194,198.955224 C139.761194,198.37821 140.228956,197.910448 140.80597,197.910448 C141.382984,197.910448 141.850746,198.37821 141.850746,198.955224 C141.850746,199.532238 141.382984,200 140.80597,200 Z M78.119403,200 C77.5423891,200 77.0746269,199.532238 77.0746269,198.955224 C77.0746269,198.37821 77.5423891,197.910448 78.119403,197.910448 C78.6964169,197.910448 79.1641791,198.37821 79.1641791,198.955224 C79.1641791,199.532238 78.6964169,200 78.119403,200 Z M153.343284,200 C152.76627,200 152.298507,199.532238 152.298507,198.955224 C152.298507,198.37821 152.76627,197.910448 153.343284,197.910448 C153.920297,197.910448 154.38806,198.37821 154.38806,198.955224 C154.38806,199.532238 153.920297,200 153.343284,200 Z M90.6567164,200 C90.0797025,200 89.6119403,199.532238 89.6119403,198.955224 C89.6119403,198.37821 90.0797025,197.910448 90.6567164,197.910448 C91.2337303,197.910448 91.7014925,198.37821 91.7014925,198.955224 C91.7014925,199.532238 91.2337303,200 90.6567164,200 Z M165.880597,200 C165.303583,200 164.835821,199.532238 164.835821,198.955224 C164.835821,198.37821 165.303583,197.910448 165.880597,197.910448 C166.457611,197.910448 166.925373,198.37821 166.925373,198.955224 C166.925373,199.532238 166.457611,200 165.880597,200 Z M103.19403,200 C102.617016,200 102.149254,199.532238 102.149254,198.955224 C102.149254,198.37821 102.617016,197.910448 103.19403,197.910448 C103.771044,197.910448 104.238806,198.37821 104.238806,198.955224 C104.238806,199.532238 103.771044,200 103.19403,200 Z M115.731343,200 C115.154329,200 114.686567,199.532238 114.686567,198.955224 C114.686567,198.37821 115.154329,197.910448 115.731343,197.910448 C116.308357,197.910448 116.776119,198.37821 116.776119,198.955224 C116.776119,199.532238 116.308357,200 115.731343,200 Z M178.41791,200 C177.840897,200 177.373134,199.532238 177.373134,198.955224 C177.373134,198.37821 177.840897,197.910448 178.41791,197.910448 C178.994924,197.910448 179.462687,198.37821 179.462687,198.955224 C179.462687,199.532238 178.994924,200 178.41791,200 Z M190.955224,200 C190.37821,200 189.910448,199.532238 189.910448,198.955224 C189.910448,198.37821 190.37821,197.910448 190.955224,197.910448 C191.532238,197.910448 192,198.37821 192,198.955224 C192,199.532238 191.532238,200 190.955224,200 Z" id="Shape" fill="#9A9FC2" opacity="0.5" transform="translate(122.000000, 130.000000) scale(1, -1) rotate(-180.000000) translate(-122.000000, -130.000000) "></path>
            <path d="M56.8371793,1.28366253 L56.7060935,1.30625321 L56.6428108,1.31980762 C19.0975825,8.65545398 -5.55562577,44.6948583 1.07783921,82.2137329 L1.30200943,83.4143472 C8.55150524,120.902184 44.5488767,145.543738 82.0267039,138.926448 L83.3571892,138.680192 C120.902418,131.344546 145.555626,95.3051417 138.922161,57.7862671 L138.697991,56.5856528 C131.370747,18.7191511 94.7164504,-6.04023668 56.8371793,1.28366253 Z" id="Path-Copy" fill="#1E8985" fill-rule="nonzero" style="mix-blend-mode: multiply;" opacity="0.05" transform="translate(70.000000, 70.000000) scale(1, -1) rotate(-180.000000) translate(-70.000000, -70.000000) "></path>
        </g>
    </g>
</svg>