<?xml version="1.0" encoding="UTF-8"?>
<svg width="730px" height="240px" viewBox="0 0 730 240" version="1.1" xmlns="http://www.w3.org/2000/svg" xmlns:xlink="http://www.w3.org/1999/xlink">
    <title>images/pattern-signin</title>
    <g id="images/pattern-signin" stroke="none" stroke-width="1" fill="none" fill-rule="evenodd">
        <g id="Group" transform="translate(495.000000, 0.000000)">
            <path d="M225.667202,148 C236.48324,157.045957 237.893897,173.117444 228.81837,183.897051 C219.741841,194.677657 203.616038,196.083563 192.8,187.038605" id="Path" fill="#6899E4" fill-rule="nonzero" opacity="0.2"></path>
            <path d="M76.5,225.2 C77.3284271,225.2 78,225.871573 78,226.7 C78,227.528427 77.3284271,228.2 76.5,228.2 C75.6715729,228.2 75,227.528427 75,226.7 C75,225.871573 75.6715729,225.2 76.5,225.2 Z M90.5244612,223.849598 C91.3376677,223.691527 92.1250441,224.222619 92.2831154,225.035825 C92.4411868,225.849032 91.9100947,226.636408 91.0968881,226.79448 C90.2836816,226.952551 89.4963052,226.421459 89.3382339,225.608252 C89.1801625,224.795046 89.7112546,224.007669 90.5244612,223.849598 Z M60.0775179,224.895301 C60.2426797,224.083505 61.0346606,223.559304 61.8464568,223.724466 C62.658253,223.889628 63.1824538,224.681609 63.017292,225.493405 C62.8521302,226.305201 62.0601492,226.829402 61.248353,226.66424 C60.4365568,226.499078 59.9123561,225.707097 60.0775179,224.895301 Z M46.4129233,220.41694 C46.7299486,219.651573 47.6074009,219.28812 48.3727677,219.605146 C49.1381346,219.922171 49.5015872,220.799623 49.1845619,221.56499 C48.8675365,222.330357 47.9900843,222.69381 47.2247174,222.376784 C46.4593506,222.059759 46.0958979,221.182307 46.4129233,220.41694 Z M104.627232,219.605146 C105.392599,219.28812 106.270051,219.651573 106.587077,220.41694 C106.904102,221.182307 106.540649,222.059759 105.775283,222.376784 C105.009916,222.69381 104.132463,222.330357 103.815438,221.56499 C103.498413,220.799623 103.861865,219.922171 104.627232,219.605146 Z M117.067368,212.990608 C117.758182,212.533368 118.688863,212.722718 119.146103,213.413531 C119.603342,214.104345 119.413993,215.035026 118.723179,215.492265 C118.032366,215.949505 117.101685,215.760156 116.644445,215.069342 C116.187206,214.378528 116.376555,213.447847 117.067368,212.990608 Z M33.3169759,213.039029 C33.7802265,212.352231 34.7125244,212.171011 35.3993216,212.634262 C36.0861188,213.097512 36.2673392,214.02981 35.8040886,214.716607 C35.340838,215.403405 34.4085401,215.584625 33.7217429,215.121374 C33.0349457,214.658124 32.8537253,213.725826 33.3169759,213.039029 Z M76.5,210.2 C77.3284271,210.2 78,210.871573 78,211.7 C78,212.528427 77.3284271,213.2 76.5,213.2 C75.6715729,213.2 75,212.528427 75,211.7 C75,210.871573 75.6715729,210.2 76.5,210.2 Z M87.6623262,209.12519 C88.4755328,208.967119 89.2629092,209.498211 89.4209805,210.311418 C89.5790518,211.124624 89.0479598,211.912 88.2347532,212.070072 C87.4215466,212.228143 86.6341703,211.697051 86.4760989,210.883844 C86.3180276,210.070638 86.8491196,209.283262 87.6623262,209.12519 Z M63.0680369,210.19643 C63.2331987,209.384634 64.0251796,208.860433 64.8369758,209.025595 C65.648772,209.190757 66.1729728,209.982738 66.007811,210.794534 C65.8426492,211.60633 65.0506682,212.130531 64.238872,211.965369 C63.4270758,211.800208 62.9028751,211.008227 63.0680369,210.19643 Z M98.8869808,205.746953 C99.6523477,205.429927 100.5298,205.79338 100.846825,206.558747 C101.163851,207.324114 100.800398,208.201566 100.035031,208.518591 C99.2696642,208.835617 98.392212,208.472164 98.0751866,207.706797 C97.7581613,206.94143 98.1216139,206.063978 98.8869808,205.746953 Z M52.1531748,206.558747 C52.4702001,205.79338 53.3476523,205.429927 54.1130192,205.746953 C54.8783861,206.063978 55.2418387,206.94143 54.9248134,207.706797 C54.607788,208.472164 53.7303358,208.835617 52.9649689,208.518591 C52.199602,208.201566 51.8361494,207.324114 52.1531748,206.558747 Z M22.4063312,203.672348 C22.9921177,203.086562 23.9418651,203.086562 24.5276516,203.672348 C25.113438,204.258135 25.113438,205.207882 24.5276516,205.793669 C23.9418651,206.379455 22.9921177,206.379455 22.4063312,205.793669 C21.8205448,205.207882 21.8205448,204.258135 22.4063312,203.672348 Z M128.472348,203.672348 C129.058135,203.086562 130.007882,203.086562 130.593669,203.672348 C131.179455,204.258135 131.179455,205.207882 130.593669,205.793669 C130.007882,206.379455 129.058135,206.379455 128.472348,205.793669 C127.886562,205.207882 127.886562,204.258135 128.472348,203.672348 Z M108.788314,200.482321 C109.479127,200.025081 110.409808,200.21443 110.867048,200.905244 C111.324287,201.596057 111.134938,202.526738 110.444125,202.983978 C109.753311,203.441218 108.82263,203.251868 108.36539,202.561055 C107.908151,201.870241 108.0975,200.93956 108.788314,200.482321 Z M41.7048694,200.603465 C42.16812,199.916668 43.1004179,199.735447 43.7872151,200.198698 C44.4740124,200.661949 44.6552327,201.594246 44.1919822,202.281044 C43.7287316,202.967841 42.7964336,203.149061 42.1096364,202.685811 C41.4228392,202.22256 41.2416189,201.290262 41.7048694,200.603465 Z M76.5,195.2 C77.3284271,195.2 78,195.871573 78,196.7 C78,197.528427 77.3284271,198.2 76.5,198.2 C75.6715729,198.2 75,197.528427 75,196.7 C75,195.871573 75.6715729,195.2 76.5,195.2 Z M86.6186559,195.593032 C86.7767273,196.406239 86.2456353,197.193615 85.4324287,197.351687 C84.6192221,197.509758 83.8318457,196.978666 83.6737744,196.165459 C83.515703,195.352253 84.0467951,194.564876 84.8600017,194.406805 C85.6732083,194.248734 86.4605846,194.779826 86.6186559,195.593032 Z M67.8873052,194.332747 C68.6991014,194.497909 69.2233022,195.28989 69.0581404,196.101686 C68.8929786,196.913482 68.1009976,197.437683 67.2892014,197.272521 C66.4774052,197.10736 65.9532045,196.315379 66.1183663,195.503582 C66.2835281,194.691786 67.075509,194.167585 67.8873052,194.332747 Z M33.012933,193.065747 C33.5987194,192.47996 34.5484669,192.47996 35.1342533,193.065747 C35.7200397,193.651533 35.7200397,194.601281 35.1342533,195.187067 C34.5484669,195.772853 33.5987194,195.772853 33.012933,195.187067 C32.4271465,194.601281 32.4271465,193.651533 33.012933,193.065747 Z M117.865747,193.065747 C118.451533,192.47996 119.401281,192.47996 119.987067,193.065747 C120.572853,193.651533 120.572853,194.601281 119.987067,195.187067 C119.401281,195.772853 118.451533,195.772853 117.865747,195.187067 C117.27996,194.601281 117.27996,193.651533 117.865747,193.065747 Z M137.434262,192.800678 C137.897512,192.113881 138.82981,191.932661 139.516607,192.395911 C140.203405,192.859162 140.384625,193.79146 139.921374,194.478257 C139.458124,195.165054 138.525826,195.346275 137.839029,194.883024 C137.152231,194.419774 136.971011,193.487476 137.434262,192.800678 Z M95.1065738,192.700554 C95.4235991,193.465921 95.0601465,194.343373 94.2947796,194.660398 C93.5294127,194.977424 92.6519605,194.613971 92.3349352,193.848604 C92.0179098,193.083237 92.3813624,192.205785 93.1467293,191.88876 C93.9120962,191.571734 94.7895484,191.935187 95.1065738,192.700554 Z M59.8532707,191.88876 C60.6186376,192.205785 60.9820902,193.083237 60.6650648,193.848604 C60.3480395,194.613971 59.4705873,194.977424 58.7052204,194.660398 C57.9398535,194.343373 57.5764009,193.465921 57.8934262,192.700554 C58.2104516,191.935187 59.0879038,191.571734 59.8532707,191.88876 Z M13.1306579,191.844445 C13.8214715,191.387206 14.7521525,191.576555 15.2093921,192.267368 C15.6666316,192.958182 15.4772825,193.888863 14.7864688,194.346103 C14.0956552,194.803342 13.1649742,194.613993 12.7077346,193.923179 C12.250495,193.232366 12.4398442,192.301685 13.1306579,191.844445 Z M102.647803,188.402979 C103.105043,189.093793 102.915694,190.024474 102.22488,190.481713 C101.534067,190.938953 100.603386,190.749604 100.146146,190.05879 C99.6889064,189.367976 99.8782556,188.437295 100.569069,187.980056 C101.259883,187.522816 102.190564,187.712165 102.647803,188.402979 Z M52.2349191,187.769157 C52.9217163,188.232408 53.1029367,189.164705 52.6396861,189.851503 C52.1764355,190.5383 51.2441376,190.71952 50.5573404,190.25627 C49.8705432,189.793019 49.6893228,188.860721 50.1525734,188.173924 C50.6158239,187.487127 51.5481219,187.305906 52.2349191,187.769157 Z M124.998698,184.412785 C125.461949,183.725988 126.394246,183.544767 127.081044,184.008018 C127.767841,184.471268 127.949061,185.403566 127.485811,186.090364 C127.02256,186.777161 126.090262,186.958381 125.403465,186.495131 C124.716668,186.03188 124.535447,185.099582 124.998698,184.412785 Z M25.6389452,183.56539 C26.3297588,183.108151 27.2604398,183.2975 27.7176794,183.988314 C28.174919,184.679127 27.9855698,185.609808 27.2947562,186.067048 C26.6039425,186.524287 25.6732615,186.334938 25.2160219,185.644125 C24.7587824,184.953311 24.9481316,184.02263 25.6389452,183.56539 Z M109.380465,182.459145 C109.966252,183.044931 109.966252,183.994679 109.380465,184.580465 C108.794679,185.166252 107.844931,185.166252 107.259145,184.580465 C106.673359,183.994679 106.673359,183.044931 107.259145,182.459145 C107.844931,181.873359 108.794679,181.873359 109.380465,182.459145 Z M45.740855,182.459145 C46.3266415,183.044931 46.3266415,183.994679 45.740855,184.580465 C45.1550686,185.166252 44.2053211,185.166252 43.6195347,184.580465 C43.0337482,183.994679 43.0337482,183.044931 43.6195347,182.459145 C44.2053211,181.873359 45.1550686,181.873359 45.740855,182.459145 Z M76.5,180.2 C77.3284271,180.2 78,180.871573 78,181.7 C78,182.528427 77.3284271,183.2 76.5,183.2 C75.6715729,183.2 75,182.528427 75,181.7 C75,180.871573 75.6715729,180.2 76.5,180.2 Z M83.4485038,180.86192 C83.5994727,181.676475 83.0615298,182.459187 82.2469748,182.610156 C81.4324197,182.761125 80.649708,182.223182 80.4987391,181.408627 C80.3477703,180.594072 80.8857132,179.81136 81.7002682,179.660391 C82.5148232,179.509423 83.297535,180.047365 83.4485038,180.86192 Z M70.5810725,179.514833 C71.3913965,179.687073 71.9086661,180.483598 71.7364264,181.293922 C71.5641867,182.104246 70.7676615,182.621516 69.9573375,182.449276 C69.1470135,182.277036 68.6297439,181.480511 68.8019836,180.670187 C68.9742233,179.859863 69.7707485,179.342593 70.5810725,179.514833 Z M144.405146,179.827232 C144.722171,179.061865 145.599623,178.698413 146.36499,179.015438 C147.130357,179.332463 147.49381,180.209916 147.176784,180.975283 C146.859759,181.740649 145.982307,182.104102 145.21694,181.787077 C144.451573,181.470051 144.08812,180.592599 144.405146,179.827232 Z M6.63500991,179.015438 C7.40037678,178.698413 8.27782902,179.061865 8.59485436,179.827232 C8.9118797,180.592599 8.54842707,181.470051 7.78306021,181.787077 C7.01769335,182.104102 6.1402411,181.740649 5.82321576,180.975283 C5.50619043,180.209916 5.86964305,179.332463 6.63500991,179.015438 Z M89.3663223,178.842361 C89.6833476,179.607728 89.319895,180.48518 88.5545281,180.802205 C87.7891613,181.119231 86.911709,180.755778 86.5946837,179.990411 C86.2776583,179.225044 86.641111,178.347592 87.4064778,178.030567 C88.1718447,177.713541 89.0492969,178.076994 89.3663223,178.842361 Z M65.5935222,178.030567 C66.358889,178.347592 66.7223417,179.225044 66.4053163,179.990411 C66.088291,180.755778 65.2108387,181.119231 64.4454719,180.802205 C63.680105,180.48518 63.3166524,179.607728 63.6336777,178.842361 C63.9507031,178.076994 64.8281553,177.713541 65.5935222,178.030567 Z M114.705291,175.626147 C115.392088,176.089397 115.573308,177.021695 115.110058,177.708493 C114.646807,178.39529 113.714509,178.57651 113.027712,178.11326 C112.340915,177.650009 112.159694,176.717711 112.622945,176.030914 C113.086195,175.344117 114.018493,175.162896 114.705291,175.626147 Z M94.1037326,175.980785 C94.5549264,176.675562 94.3574628,177.604556 93.6626853,178.055749 C92.9679079,178.506943 92.0389147,178.30948 91.5877209,177.614702 C91.1365272,176.919925 91.3339908,175.990931 92.0287682,175.539738 C92.7235457,175.088544 93.6525389,175.286008 94.1037326,175.980785 Z M40.2857771,175.715281 C40.7430167,176.406095 40.5536675,177.336776 39.8628539,177.794016 C39.1720402,178.251255 38.2413592,178.061906 37.7841197,177.371092 C37.3268801,176.680279 37.5162293,175.749598 38.2070429,175.292358 C38.8978565,174.835119 39.8285376,175.024468 40.2857771,175.715281 Z M60.363978,175.125223 C61.0467065,175.594449 61.2197842,176.528293 60.7505579,177.211022 C60.2813316,177.89375 59.3474877,178.066828 58.6647593,177.597601 C57.9820308,177.128375 57.808953,176.194531 58.2781793,175.511803 C58.7474056,174.829074 59.6812495,174.655997 60.363978,175.125223 Z M130.546953,174.086981 C130.863978,173.321614 131.74143,172.958161 132.506797,173.275187 C133.272164,173.592212 133.635617,174.469664 133.318591,175.235031 C133.001566,176.000398 132.124114,176.363851 131.358747,176.046825 C130.59338,175.7298 130.229927,174.852348 130.546953,174.086981 Z M20.4932029,173.275187 C21.2585698,172.958161 22.136022,173.321614 22.4530473,174.086981 C22.7700727,174.852348 22.4066201,175.7298 21.6412532,176.046825 C20.8758863,176.363851 19.9984341,176.000398 19.6814088,175.235031 C19.3643834,174.469664 19.727836,173.592212 20.4932029,173.275187 Z M56.3474567,171.852543 C56.9332432,172.43833 56.9332432,173.388077 56.3474567,173.973864 C55.7616703,174.55965 54.8119228,174.55965 54.2261364,173.973864 C53.64035,173.388077 53.64035,172.43833 54.2261364,171.852543 C54.8119228,171.266757 55.7616703,171.266757 56.3474567,171.852543 Z M98.7738636,171.852543 C99.35965,172.43833 99.35965,173.388077 98.7738636,173.973864 C98.1880772,174.55965 97.2383297,174.55965 96.6525433,173.973864 C96.0667568,173.388077 96.0667568,172.43833 96.6525433,171.852543 C97.2383297,171.266757 98.1880772,171.266757 98.7738636,171.852543 Z M36.3112403,168.346729 C36.6282657,169.112096 36.2648131,169.989548 35.4994462,170.306574 C34.7340793,170.623599 33.8566271,170.260146 33.5396017,169.49478 C33.2225764,168.729413 33.586029,167.85196 34.3513959,167.534935 C35.1167628,167.21791 35.994215,167.581362 36.3112403,168.346729 Z M118.648604,167.534935 C119.413971,167.85196 119.777424,168.729413 119.460398,169.49478 C119.143373,170.260146 118.265921,170.623599 117.500554,170.306574 C116.735187,169.989548 116.371734,169.112096 116.68876,168.346729 C117.005785,167.581362 117.883237,167.21791 118.648604,167.534935 Z M102.079951,167.393624 C102.762679,167.862851 102.935757,168.796694 102.466531,169.479423 C101.997304,170.162151 101.063461,170.335229 100.380732,169.866003 C99.6980035,169.396777 99.5249258,168.462933 99.9941521,167.780204 C100.463378,167.097476 101.397222,166.924398 102.079951,167.393624 Z M52.6044445,167.159839 C53.0556383,167.854616 52.8581747,168.78361 52.1633972,169.234803 C51.4686198,169.685997 50.5396266,169.488534 50.0884328,168.793756 C49.6372391,168.098979 49.8347027,167.169985 50.5294801,166.718792 C51.2242576,166.267598 52.1532508,166.465062 52.6044445,167.159839 Z M76.5,165.2 C77.3284271,165.2 78,165.871573 78,166.7 C78,167.528427 77.3284271,168.2 76.5,168.2 C75.6715729,168.2 75,167.528427 75,166.7 C75,165.871573 75.6715729,165.2 76.5,165.2 Z M148.524466,166.353543 C148.689628,165.541747 149.481609,165.017546 150.293405,165.182708 C151.105201,165.34787 151.629402,166.139851 151.46424,166.951647 C151.299078,167.763443 150.507097,168.287644 149.695301,168.122482 C148.883505,167.95732 148.359304,167.165339 148.524466,166.353543 Z M2.59174775,164.538234 C3.40495433,164.380163 4.19233067,164.911255 4.35040202,165.724461 C4.50847336,166.537668 3.97738132,167.325044 3.16417473,167.483115 C2.35096815,167.641187 1.56359181,167.110095 1.40552047,166.296888 C1.24744912,165.483682 1.77854116,164.696305 2.59174775,164.538234 Z M69.3739292,164.984168 C69.6909546,164.218801 70.5684068,163.855348 71.3337737,164.172374 C72.0991405,164.489399 72.4625931,165.366851 72.1455678,166.132218 C71.8285425,166.897585 70.9510902,167.261038 70.1857234,166.944012 C69.4203565,166.626987 69.0569039,165.749535 69.3739292,164.984168 Z M81.6662263,164.172374 C82.4315932,163.855348 83.3090454,164.218801 83.6260708,164.984168 C83.9430961,165.749535 83.5796435,166.626987 82.8142766,166.944012 C82.0489098,167.261038 81.1714575,166.897585 80.8544322,166.132218 C80.5374069,165.366851 80.9008595,164.489399 81.6662263,164.172374 Z M133.825595,163.363024 C133.990757,162.551228 134.782738,162.027027 135.594534,162.192189 C136.40633,162.357351 136.930531,163.149332 136.765369,163.961128 C136.600208,164.772924 135.808227,165.297125 134.99643,165.131963 C134.184634,164.966801 133.660433,164.17482 133.825595,163.363024 Z M104.790411,161.794684 C105.555778,162.111709 105.919231,162.989161 105.602205,163.754528 C105.28518,164.519895 104.407728,164.883348 103.642361,164.566322 C102.876994,164.249297 102.513541,163.371845 102.830567,162.606478 C103.147592,161.841111 104.025044,161.477658 104.790411,161.794684 Z M50.1694333,162.606478 C50.4864587,163.371845 50.123006,164.249297 49.3576392,164.566322 C48.5922723,164.883348 47.7148201,164.519895 47.3977947,163.754528 C47.0807694,162.989161 47.444222,162.111709 48.2095889,161.794684 C48.9749557,161.477658 49.852408,161.841111 50.1694333,162.606478 Z M17.3161555,161.676099 C18.1293621,161.518028 18.9167384,162.04912 19.0748098,162.862326 C19.2328811,163.675533 18.7017891,164.462909 17.8885825,164.62098 C17.0753759,164.779052 16.2879996,164.24796 16.1299282,163.434753 C15.9718569,162.621547 16.5029489,161.83417 17.3161555,161.676099 Z M64.8327381,161.245942 C65.4185245,160.660155 66.368272,160.660155 66.9540585,161.245942 C67.5398449,161.831728 67.5398449,162.781475 66.9540585,163.367262 C66.368272,163.953048 65.4185245,163.953048 64.8327381,163.367262 C64.2469517,162.781475 64.2469517,161.831728 64.8327381,161.245942 Z M86.0459415,161.245942 C86.631728,160.660155 87.5814755,160.660155 88.1672619,161.245942 C88.7530483,161.831728 88.7530483,162.781475 88.1672619,163.367262 C87.5814755,163.953048 86.631728,163.953048 86.0459415,163.367262 C85.4601551,162.781475 85.4601551,161.831728 86.0459415,161.245942 Z M120.955474,159.207693 C121.76727,159.372854 122.291471,160.164835 122.126309,160.976632 C121.961147,161.788428 121.169166,162.312628 120.35737,162.147467 C119.545574,161.982305 119.021373,161.190324 119.186535,160.378528 C119.351697,159.566732 120.143678,159.042531 120.955474,159.207693 Z M33.8590279,160.006214 C34.0170992,160.81942 33.4860072,161.606797 32.6728006,161.764868 C31.859594,161.92294 31.0722177,161.391847 30.9141464,160.578641 C30.756075,159.765434 31.287167,158.978058 32.1003736,158.819987 C32.9135802,158.661915 33.7009566,159.193007 33.8590279,160.006214 Z M106.162851,156.407756 C106.973175,156.579996 107.490445,157.376521 107.318205,158.186845 C107.145965,158.997169 106.34944,159.514438 105.539116,159.342199 C104.728792,159.169959 104.211523,158.373434 104.383762,157.56311 C104.556002,156.752786 105.352527,156.235516 106.162851,156.407756 Z M88.9723737,156.866226 C89.289399,156.100859 90.1668513,155.737407 90.9322181,156.054432 C91.697585,156.371458 92.0610376,157.24891 91.7440123,158.014277 C91.426987,158.779643 90.5495347,159.143096 89.7841678,158.826071 C89.018801,158.509045 88.6553484,157.631593 88.9723737,156.866226 Z M62.0677819,156.054432 C62.8331487,155.737407 63.710601,156.100859 64.0276263,156.866226 C64.3446516,157.631593 63.981199,158.509045 63.2158322,158.826071 C62.4504653,159.143096 61.573013,158.779643 61.2559877,158.014277 C60.9389624,157.24891 61.302415,156.371458 62.0677819,156.054432 Z M48.4837909,156.831339 C48.6347597,157.645894 48.0968168,158.428606 47.2822618,158.579575 C46.4677067,158.730543 45.684995,158.192601 45.5340261,157.378046 C45.3830573,156.563491 45.9210002,155.780779 46.7355552,155.62981 C47.5501102,155.478841 48.332822,156.016784 48.4837909,156.831339 Z M1.5,150.2 C2.32842712,150.2 3,150.871573 3,151.7 C3,152.528427 2.32842712,153.2 1.5,153.2 C0.671572875,153.2 0,152.528427 0,151.7 C0,150.871573 0.671572875,150.2 1.5,150.2 Z M91.5,150.2 C92.3284271,150.2 93,150.871573 93,151.7 C93,152.528427 92.3284271,153.2 91.5,153.2 C90.6715729,153.2 90,152.528427 90,151.7 C90,150.871573 90.6715729,150.2 91.5,150.2 Z M61.5,150.2 C62.3284271,150.2 63,150.871573 63,151.7 C63,152.528427 62.3284271,153.2 61.5,153.2 C60.6715729,153.2 60,152.528427 60,151.7 C60,150.871573 60.6715729,150.2 61.5,150.2 Z M121.5,150.2 C122.328427,150.2 123,150.871573 123,151.7 C123,152.528427 122.328427,153.2 121.5,153.2 C120.671573,153.2 120,152.528427 120,151.7 C120,150.871573 120.671573,150.2 121.5,150.2 Z M136.5,150.2 C137.328427,150.2 138,150.871573 138,151.7 C138,152.528427 137.328427,153.2 136.5,153.2 C135.671573,153.2 135,152.528427 135,151.7 C135,150.871573 135.671573,150.2 136.5,150.2 Z M31.5,150.2 C32.3284271,150.2 33,150.871573 33,151.7 C33,152.528427 32.3284271,153.2 31.5,153.2 C30.6715729,153.2 30,152.528427 30,151.7 C30,150.871573 30.6715729,150.2 31.5,150.2 Z M151.5,150.2 C152.328427,150.2 153,150.871573 153,151.7 C153,152.528427 152.328427,153.2 151.5,153.2 C150.671573,153.2 150,152.528427 150,151.7 C150,150.871573 150.671573,150.2 151.5,150.2 Z M16.5,150.2 C17.3284271,150.2 18,150.871573 18,151.7 C18,152.528427 17.3284271,153.2 16.5,153.2 C15.6715729,153.2 15,152.528427 15,151.7 C15,150.871573 15.6715729,150.2 16.5,150.2 Z M46.5,150.2 C47.3284271,150.2 48,150.871573 48,151.7 C48,152.528427 47.3284271,153.2 46.5,153.2 C45.6715729,153.2 45,152.528427 45,151.7 C45,150.871573 45.6715729,150.2 46.5,150.2 Z M106.5,150.2 C107.328427,150.2 108,150.871573 108,151.7 C108,152.528427 107.328427,153.2 106.5,153.2 C105.671573,153.2 105,152.528427 105,151.7 C105,150.871573 105.671573,150.2 106.5,150.2 Z M76.5,150.2 C77.3284271,150.2 78,150.871573 78,151.7 C78,152.528427 77.3284271,153.2 76.5,153.2 C75.6715729,153.2 75,152.528427 75,151.7 C75,150.871573 75.6715729,150.2 76.5,150.2 Z M107.479085,145.897207 C107.630054,146.711762 107.092111,147.494474 106.277556,147.645443 C105.463001,147.796412 104.680289,147.258469 104.529321,146.443914 C104.378352,145.629359 104.916295,144.846647 105.73085,144.695678 C106.545405,144.54471 107.328116,145.082652 107.479085,145.897207 Z M89.7841678,144.573929 C90.5495347,144.256904 91.426987,144.620357 91.7440123,145.385723 C92.0610376,146.15109 91.697585,147.028542 90.9322181,147.345568 C90.1668513,147.662593 89.289399,147.299141 88.9723737,146.533774 C88.6553484,145.768407 89.018801,144.890955 89.7841678,144.573929 Z M61.2559877,145.385723 C61.573013,144.620357 62.4504653,144.256904 63.2158322,144.573929 C63.981199,144.890955 64.3446516,145.768407 64.0276263,146.533774 C63.710601,147.299141 62.8331487,147.662593 62.0677819,147.345568 C61.302415,147.028542 60.9389624,146.15109 61.2559877,145.385723 Z M45.6949063,145.088408 C45.867146,144.278084 46.6636712,143.760815 47.4739952,143.933054 C48.2843192,144.105294 48.8015888,144.901819 48.6293491,145.712143 C48.4571094,146.522467 47.6605842,147.039737 46.8502602,146.867497 C46.0399362,146.695257 45.5226666,145.898732 45.6949063,145.088408 Z M122.205474,142.833404 C122.363546,143.646611 121.832454,144.433987 121.019247,144.592059 C120.206041,144.75013 119.418664,144.219038 119.260593,143.405831 C119.102522,142.592625 119.633614,141.805248 120.44682,141.647177 C121.260027,141.489106 122.047403,142.020198 122.205474,142.833404 Z M32.7622506,141.264578 C33.5740468,141.42974 34.0982475,142.221721 33.9330857,143.033517 C33.7679239,143.845314 32.975943,144.369514 32.1641468,144.204353 C31.3523506,144.039191 30.8281498,143.24721 30.9933116,142.435414 C31.1584734,141.623617 31.9504544,141.099417 32.7622506,141.264578 Z M64.8327381,140.032738 C65.4185245,139.446952 66.368272,139.446952 66.9540585,140.032738 C67.5398449,140.618525 67.5398449,141.568272 66.9540585,142.154058 C66.368272,142.739845 65.4185245,142.739845 64.8327381,142.154058 C64.2469517,141.568272 64.2469517,140.618525 64.8327381,140.032738 Z M86.0459415,140.032738 C86.631728,139.446952 87.5814755,139.446952 88.1672619,140.032738 C88.7530483,140.618525 88.7530483,141.568272 88.1672619,142.154058 C87.5814755,142.739845 86.631728,142.739845 86.0459415,142.154058 C85.4601551,141.568272 85.4601551,140.618525 86.0459415,140.032738 Z M135.111418,138.77902 C135.924624,138.620948 136.712,139.15204 136.870072,139.965247 C137.028143,140.778453 136.497051,141.56583 135.683844,141.723901 C134.870638,141.881972 134.083262,141.35088 133.92519,140.537674 C133.767119,139.724467 134.298211,138.937091 135.111418,138.77902 Z M49.3576392,138.833678 C50.123006,139.150703 50.4864587,140.028155 50.1694333,140.793522 C49.852408,141.558889 48.9749557,141.922342 48.2095889,141.605316 C47.444222,141.288291 47.0807694,140.410839 47.3977947,139.645472 C47.7148201,138.880105 48.5922723,138.516652 49.3576392,138.833678 Z M105.602205,139.645472 C105.919231,140.410839 105.555778,141.288291 104.790411,141.605316 C104.025044,141.922342 103.147592,141.558889 102.830567,140.793522 C102.513541,140.028155 102.876994,139.150703 103.642361,138.833678 C104.407728,138.516652 105.28518,138.880105 105.602205,139.645472 Z M16.2346307,139.438872 C16.3997925,138.627076 17.1917734,138.102875 18.0035696,138.268037 C18.8153658,138.433199 19.3395666,139.22518 19.1744048,140.036976 C19.009243,140.848772 18.217262,141.372973 17.4054658,141.207811 C16.5936696,141.042649 16.0694689,140.250668 16.2346307,139.438872 Z M80.8544322,137.267782 C81.1714575,136.502415 82.0489098,136.138962 82.8142766,136.455988 C83.5796435,136.773013 83.9430961,137.650465 83.6260708,138.415832 C83.3090454,139.181199 82.4315932,139.544652 81.6662263,139.227626 C80.9008595,138.910601 80.5374069,138.033149 80.8544322,137.267782 Z M70.1857234,136.455988 C70.9510902,136.138962 71.8285425,136.502415 72.1455678,137.267782 C72.4625931,138.033149 72.0991405,138.910601 71.3337737,139.227626 C70.5684068,139.544652 69.6909546,139.181199 69.3739292,138.415832 C69.0569039,137.650465 69.4203565,136.773013 70.1857234,136.455988 Z M149.835825,135.916885 C150.649032,135.758813 151.436408,136.289905 151.59448,137.103112 C151.752551,137.916318 151.221459,138.703695 150.408252,138.861766 C149.595046,139.019837 148.807669,138.488745 148.649598,137.675539 C148.491527,136.862332 149.022619,136.074956 149.835825,135.916885 Z M1.5357601,136.448353 C1.7009219,135.636557 2.49290285,135.112356 3.30469906,135.277518 C4.11649526,135.44268 4.64069602,136.234661 4.47553421,137.046457 C4.31037241,137.858253 3.51839146,138.382454 2.70659525,138.217292 C1.89479905,138.05213 1.37059829,137.260149 1.5357601,136.448353 Z M76.5,135.2 C77.3284271,135.2 78,135.871573 78,136.7 C78,137.528427 77.3284271,138.2 76.5,138.2 C75.6715729,138.2 75,137.528427 75,136.7 C75,135.871573 75.6715729,135.2 76.5,135.2 Z M102.924679,134.481497 C103.375872,135.176274 103.178409,136.105268 102.483631,136.556461 C101.788854,137.007655 100.859861,136.810191 100.408667,136.115414 C99.9574732,135.420637 100.154937,134.491643 100.849714,134.04045 C101.544492,133.589256 102.473485,133.786719 102.924679,134.481497 Z M52.6323794,133.40925 C53.3151079,133.878476 53.4881856,134.81232 53.0189593,135.495049 C52.5497331,136.177777 51.6158892,136.350855 50.9331607,135.881629 C50.2504322,135.412402 50.0773545,134.478559 50.5465808,133.79583 C51.0158071,133.113102 51.9496509,132.940024 52.6323794,133.40925 Z M35.4994462,133.093426 C36.2648131,133.410452 36.6282657,134.287904 36.3112403,135.053271 C35.994215,135.818638 35.1167628,136.18209 34.3513959,135.865065 C33.586029,135.54804 33.2225764,134.670587 33.5396017,133.90522 C33.8566271,133.139854 34.7340793,132.776401 35.4994462,133.093426 Z M119.460398,133.90522 C119.777424,134.670587 119.413971,135.54804 118.648604,135.865065 C117.883237,136.18209 117.005785,135.818638 116.68876,135.053271 C116.371734,134.287904 116.735187,133.410452 117.500554,133.093426 C118.265921,132.776401 119.143373,133.139854 119.460398,133.90522 Z M98.7738636,129.426136 C99.35965,130.011923 99.35965,130.96167 98.7738636,131.547457 C98.1880772,132.133243 97.2383297,132.133243 96.6525433,131.547457 C96.0667568,130.96167 96.0667568,130.011923 96.6525433,129.426136 C97.2383297,128.84035 98.1880772,128.84035 98.7738636,129.426136 Z M56.3474567,129.426136 C56.9332432,130.011923 56.9332432,130.96167 56.3474567,131.547457 C55.7616703,132.133243 54.8119228,132.133243 54.2261364,131.547457 C53.64035,130.96167 53.64035,130.011923 54.2261364,129.426136 C54.8119228,128.84035 55.7616703,128.84035 56.3474567,129.426136 Z M131.358747,127.353175 C132.124114,127.036149 133.001566,127.399602 133.318591,128.164969 C133.635617,128.930336 133.272164,129.807788 132.506797,130.124813 C131.74143,130.441839 130.863978,130.078386 130.546953,129.313019 C130.229927,128.547652 130.59338,127.6702 131.358747,127.353175 Z M19.6814088,128.164969 C19.9984341,127.399602 20.8758863,127.036149 21.6412532,127.353175 C22.4066201,127.6702 22.7700727,128.547652 22.4530473,129.313019 C22.136022,130.078386 21.2585698,130.441839 20.4932029,130.124813 C19.727836,129.807788 19.3643834,128.930336 19.6814088,128.164969 Z M94.3483522,125.677652 C95.0310807,126.146878 95.2041584,127.080722 94.7349321,127.76345 C94.2657058,128.446179 93.331862,128.619256 92.6491335,128.15003 C91.966405,127.680804 91.7933273,126.74696 92.2625535,126.064231 C92.7317798,125.381503 93.6656237,125.208425 94.3483522,125.677652 Z M115.335501,126.040953 C115.792741,126.731766 115.603391,127.662447 114.912578,128.119687 C114.221764,128.576927 113.291083,128.387577 112.833844,127.696764 C112.376604,127.00595 112.565953,126.075269 113.256767,125.61803 C113.947581,125.16079 114.878262,125.350139 115.335501,126.040953 Z M40.091909,125.298786 C40.7787062,125.762036 40.9599265,126.694334 40.496676,127.381131 C40.0334254,128.067929 39.1011275,128.249149 38.4143303,127.785898 C37.727533,127.322648 37.5463127,126.39035 38.0095633,125.703553 C38.4728138,125.016755 39.4051118,124.835535 40.091909,125.298786 Z M61.4253905,125.660551 C61.8765843,126.355328 61.6791207,127.284322 60.9843432,127.735515 C60.2895658,128.186709 59.3605726,127.989245 58.9093788,127.294468 C58.4581851,126.599691 58.6556487,125.670697 59.3504261,125.219504 C60.0452036,124.76831 60.9741968,124.965773 61.4253905,125.660551 Z M88.5545281,122.597795 C89.319895,122.91482 89.6833476,123.792272 89.3663223,124.557639 C89.0492969,125.323006 88.1718447,125.686459 87.4064778,125.369433 C86.641111,125.052408 86.2776583,124.174956 86.5946837,123.409589 C86.911709,122.644222 87.7891613,122.280769 88.5545281,122.597795 Z M66.4053163,123.409589 C66.7223417,124.174956 66.358889,125.052408 65.5935222,125.369433 C64.8281553,125.686459 63.9507031,125.323006 63.6336777,124.557639 C63.3166524,123.792272 63.680105,122.91482 64.4454719,122.597795 C65.2108387,122.280769 66.088291,122.644222 66.4053163,123.409589 Z M5.82321576,122.424717 C6.1402411,121.659351 7.01769335,121.295898 7.78306021,121.612923 C8.54842707,121.929949 8.9118797,122.807401 8.59485436,123.572768 C8.27782902,124.338135 7.40037678,124.701587 6.63500991,124.384562 C5.86964305,124.067537 5.50619043,123.190084 5.82321576,122.424717 Z M145.21694,121.612923 C145.982307,121.295898 146.859759,121.659351 147.176784,122.424717 C147.49381,123.190084 147.130357,124.067537 146.36499,124.384562 C145.599623,124.701587 144.722171,124.338135 144.405146,123.572768 C144.08812,122.807401 144.451573,121.929949 145.21694,121.612923 Z M83.055774,120.825977 C83.866098,120.998217 84.3833675,121.794742 84.2111278,122.605066 C84.0388882,123.41539 83.2423629,123.93266 82.4320389,123.76042 C81.6217149,123.58818 81.1044454,122.791655 81.276685,121.981331 C81.4489247,121.171007 82.24545,120.653737 83.055774,120.825977 Z M72.5143723,121.866626 C72.6653412,122.681181 72.1273983,123.463893 71.3128432,123.614862 C70.4982882,123.76583 69.7155764,123.227888 69.5646076,122.413333 C69.4136387,121.598778 69.9515816,120.816066 70.7661367,120.665097 C71.5806917,120.514128 72.3634035,121.052071 72.5143723,121.866626 Z M76.5,120.2 C77.3284271,120.2 78,120.871573 78,121.7 C78,122.528427 77.3284271,123.2 76.5,123.2 C75.6715729,123.2 75,122.528427 75,121.7 C75,120.871573 75.6715729,120.2 76.5,120.2 Z M45.740855,118.819535 C46.3266415,119.405321 46.3266415,120.355069 45.740855,120.940855 C45.1550686,121.526641 44.2053211,121.526641 43.6195347,120.940855 C43.0337482,120.355069 43.0337482,119.405321 43.6195347,118.819535 C44.2053211,118.233748 45.1550686,118.233748 45.740855,118.819535 Z M109.380465,118.819535 C109.966252,119.405321 109.966252,120.355069 109.380465,120.940855 C108.794679,121.526641 107.844931,121.526641 107.259145,120.940855 C106.673359,120.355069 106.673359,119.405321 107.259145,118.819535 C107.844931,118.233748 108.794679,118.233748 109.380465,118.819535 Z M125.705244,117.332952 C126.396057,116.875713 127.326738,117.065062 127.783978,117.755875 C128.241218,118.446689 128.051868,119.37737 127.361055,119.83461 C126.670241,120.291849 125.73956,120.1025 125.282321,119.411686 C124.825081,118.720873 125.01443,117.790192 125.705244,117.332952 Z M25.5141893,117.309636 C25.9774399,116.622839 26.9097378,116.441619 27.596535,116.904869 C28.2833322,117.36812 28.4645526,118.300418 28.001302,118.987215 C27.5380514,119.674012 26.6057535,119.855233 25.9189563,119.391982 C25.2321591,118.928732 25.0509387,117.996434 25.5141893,117.309636 Z M102.56228,113.155775 C103.249078,113.619026 103.430298,114.551324 102.967047,115.238121 C102.503797,115.924918 101.571499,116.106139 100.884702,115.642888 C100.197904,115.179638 100.016684,114.24734 100.479935,113.560542 C100.943185,112.873745 101.875483,112.692525 102.56228,113.155775 Z M52.9734748,113.353255 C53.4307143,114.044069 53.2413652,114.97475 52.5505515,115.431989 C51.8597379,115.889229 50.9290569,115.69988 50.4718173,115.009066 C50.0145777,114.318252 50.2039269,113.387571 50.8947406,112.930332 C51.5855542,112.473092 52.5162352,112.662441 52.9734748,113.353255 Z M138.213531,109.053897 C138.904345,108.596658 139.835026,108.786007 140.292265,109.476821 C140.749505,110.167634 140.560156,111.098315 139.869342,111.555555 C139.178528,112.012794 138.247847,111.823445 137.790608,111.132632 C137.333368,110.441818 137.522718,109.511137 138.213531,109.053897 Z M94.2947796,108.739602 C95.0601465,109.056627 95.4235991,109.934079 95.1065738,110.699446 C94.7895484,111.464813 93.9120962,111.828266 93.1467293,111.51124 C92.3813624,111.194215 92.0179098,110.316763 92.3349352,109.551396 C92.6519605,108.786029 93.5294127,108.422576 94.2947796,108.739602 Z M60.6650648,109.551396 C60.9820902,110.316763 60.6186376,111.194215 59.8532707,111.51124 C59.0879038,111.828266 58.2104516,111.464813 57.8934262,110.699446 C57.5764009,109.934079 57.9398535,109.056627 58.7052204,108.739602 C59.4705873,108.422576 60.3480395,108.786029 60.6650648,109.551396 Z M13.0786257,108.921743 C13.5418763,108.234946 14.4741742,108.053725 15.1609714,108.516976 C15.8477686,108.980226 16.028989,109.912524 15.5657384,110.599322 C15.1024878,111.286119 14.1701899,111.467339 13.4833927,111.004089 C12.7965955,110.540838 12.6153751,109.60854 13.0786257,108.921743 Z M33.012933,108.212933 C33.5987194,107.627147 34.5484669,107.627147 35.1342533,108.212933 C35.7200397,108.798719 35.7200397,109.748467 35.1342533,110.334253 C34.5484669,110.92004 33.5987194,110.92004 33.012933,110.334253 C32.4271465,109.748467 32.4271465,108.798719 33.012933,108.212933 Z M117.865747,108.212933 C118.451533,107.627147 119.401281,107.627147 119.987067,108.212933 C120.572853,108.798719 120.572853,109.748467 119.987067,110.334253 C119.401281,110.92004 118.451533,110.92004 117.865747,110.334253 C117.27996,109.748467 117.27996,108.798719 117.865747,108.212933 Z M84.0614804,107.310359 C84.2266422,106.498563 85.0186231,105.974362 85.8304193,106.139524 C86.6422155,106.304686 87.1664163,107.096667 87.0012545,107.908463 C86.8360927,108.720259 86.0441117,109.24446 85.2323155,109.079298 C84.4205193,108.914136 83.8963186,108.122155 84.0614804,107.310359 Z M69.4458464,107.246586 C69.6039177,108.059792 69.0728257,108.847169 68.2596191,109.00524 C67.4464125,109.163311 66.6590362,108.632219 66.5009648,107.819013 C66.3428935,107.005806 66.8739855,106.21843 67.6871921,106.060359 C68.5003987,105.902287 69.287775,106.433379 69.4458464,107.246586 Z M76.5,105.2 C77.3284271,105.2 78,105.871573 78,106.7 C78,107.528427 77.3284271,108.2 76.5,108.2 C75.6715729,108.2 75,107.528427 75,106.7 C75,105.871573 75.6715729,105.2 76.5,105.2 Z M108.808018,101.118956 C109.271268,100.432159 110.203566,100.250939 110.890364,100.714189 C111.577161,101.17744 111.758381,102.109738 111.295131,102.796535 C110.83188,103.483332 109.899582,103.664553 109.212785,103.201302 C108.525988,102.738051 108.344767,101.805754 108.808018,101.118956 Z M42.5558754,100.416022 C43.246689,99.9587824 44.17737,100.148132 44.6346096,100.838945 C45.0918492,101.529759 44.9025,102.46044 44.2116864,102.917679 C43.5208727,103.374919 42.5901917,103.18557 42.1329521,102.494756 C41.6757126,101.803943 41.8650618,100.873262 42.5558754,100.416022 Z M128.472348,97.6063312 C129.058135,97.0205448 130.007882,97.0205448 130.593669,97.6063312 C131.179455,98.1921177 131.179455,99.1418651 130.593669,99.7276516 C130.007882,100.313438 129.058135,100.313438 128.472348,99.7276516 C127.886562,99.1418651 127.886562,98.1921177 128.472348,97.6063312 Z M22.4063312,97.6063312 C22.9921177,97.0205448 23.9418651,97.0205448 24.5276516,97.6063312 C25.113438,98.1921177 25.113438,99.1418651 24.5276516,99.7276516 C23.9418651,100.313438 22.9921177,100.313438 22.4063312,99.7276516 C21.8205448,99.1418651 21.8205448,98.1921177 22.4063312,97.6063312 Z M52.9649689,94.8814088 C53.7303358,94.5643834 54.607788,94.927836 54.9248134,95.6932029 C55.2418387,96.4585698 54.8783861,97.336022 54.1130192,97.6530473 C53.3476523,97.9700727 52.4702001,97.6066201 52.1531748,96.8412532 C51.8361494,96.0758863 52.199602,95.1984341 52.9649689,94.8814088 Z M98.0751866,95.6932029 C98.392212,94.927836 99.2696642,94.5643834 100.035031,94.8814088 C100.800398,95.1984341 101.163851,96.0758863 100.846825,96.8412532 C100.5298,97.6066201 99.6523477,97.9700727 98.8869808,97.6530473 C98.1216139,97.336022 97.7581613,96.4585698 98.0751866,95.6932029 Z M86.992189,92.6054658 C87.1573508,91.7936696 87.9493318,91.2694689 88.761128,91.4346307 C89.5729242,91.5997925 90.0971249,92.3917734 89.9319631,93.2035696 C89.7668013,94.0153658 88.9748204,94.5395666 88.1630242,94.3744048 C87.351228,94.209243 86.8270272,93.417262 86.992189,92.6054658 Z M64.7652468,91.3299282 C65.5784534,91.1718569 66.3658297,91.7029489 66.5239011,92.5161555 C66.6819724,93.3293621 66.1508804,94.1167384 65.3376738,94.2748098 C64.5244672,94.4328811 63.7370908,93.9017891 63.5790195,93.0885825 C63.4209482,92.2753759 63.9520402,91.4879996 64.7652468,91.3299282 Z M76.5,90.2 C77.3284271,90.2 78,90.8715729 78,91.7 C78,92.5284271 77.3284271,93.2 76.5,93.2 C75.6715729,93.2 75,92.5284271 75,91.7 C75,90.8715729 75.6715729,90.2 76.5,90.2 Z M117.195911,88.6833927 C117.659162,87.9965955 118.59146,87.8153751 119.278257,88.2786257 C119.965054,88.7418763 120.146275,89.6741742 119.683024,90.3609714 C119.219774,91.0477686 118.287476,91.228989 117.600678,90.7657384 C116.913881,90.3024878 116.732661,89.3701899 117.195911,88.6833927 Z M34.2768206,87.9077346 C34.9676343,87.450495 35.8983153,87.6398442 36.3555548,88.3306579 C36.8127944,89.0214715 36.6234452,89.9521525 35.9326316,90.4093921 C35.2418179,90.8666316 34.3111369,90.6772825 33.8538974,89.9864688 C33.3966578,89.2956552 33.586007,88.3649742 34.2768206,87.9077346 Z M103.815438,81.8350099 C104.132463,81.069643 105.009916,80.7061904 105.775283,81.0232158 C106.540649,81.3402411 106.904102,82.2176933 106.587077,82.9830602 C106.270051,83.7484271 105.392599,84.1118797 104.627232,83.7948544 C103.861865,83.477829 103.498413,82.6003768 103.815438,81.8350099 Z M47.2247174,81.0232158 C47.9900843,80.7061904 48.8675365,81.069643 49.1845619,81.8350099 C49.5015872,82.6003768 49.1381346,83.477829 48.3727677,83.7948544 C47.6074009,84.1118797 46.7299486,83.7484271 46.4129233,82.9830602 C46.0958979,82.2176933 46.4593506,81.3402411 47.2247174,81.0232158 Z M89.982708,77.9065953 C90.1478698,77.094799 90.9398508,76.5705983 91.751647,76.7357601 C92.5634432,76.9009219 93.0876439,77.6929028 92.9224821,78.5046991 C92.7573203,79.3164953 91.9653394,79.840696 91.1535432,79.6755342 C90.341747,79.5103724 89.8175462,78.7183915 89.982708,77.9065953 Z M61.9031119,76.6055205 C62.7163184,76.4474491 63.5036948,76.9785412 63.6617661,77.7917477 C63.8198375,78.6049543 63.2887454,79.3923307 62.4755388,79.550402 C61.6623323,79.7084734 60.8749559,79.1773813 60.7168846,78.3641747 C60.5588132,77.5509681 61.0899053,76.7635918 61.9031119,76.6055205 Z M76.5,75.2 C77.3284271,75.2 78,75.8715729 78,76.7 C78,77.5284271 77.3284271,78.2 76.5,78.2 C75.6715729,78.2 75,77.5284271 75,76.7 C75,75.8715729 75.6715729,75.2 76.5,75.2 Z" id="Shape" fill="#6899E4" opacity="0.3"></path>
            <path d="M209.385375,0.28423956 L209.342337,0.292243116 C201.049744,1.91246299 195.597414,9.85645536 197.027669,18.1415383 L197.088302,18.4703197 C198.689494,26.750236 206.624178,32.1999666 214.900194,30.7732531 L215.257663,30.7077569 C223.550256,29.087537 229.002586,21.1435446 227.572331,12.8584617 L227.511698,12.5296803 C225.889237,4.1449549 217.772928,-1.33748098 209.385375,0.28423956 Z" id="Path" fill="#D99938" fill-rule="nonzero" style="mix-blend-mode: multiply;" opacity="0.3"></path>
        </g>
        <path d="M53.0447761,72.0895522 C52.4677622,72.0895522 52,71.62179 52,71.0447761 C52,70.4677622 52.4677622,70 53.0447761,70 C53.62179,70 54.0895522,70.4677622 54.0895522,71.0447761 C54.0895522,71.62179 53.62179,72.0895522 53.0447761,72.0895522 Z M128.268657,72.0895522 C127.691643,72.0895522 127.223881,71.62179 127.223881,71.0447761 C127.223881,70.4677622 127.691643,70 128.268657,70 C128.845671,70 129.313433,70.4677622 129.313433,71.0447761 C129.313433,71.62179 128.845671,72.0895522 128.268657,72.0895522 Z M128.268657,147.313433 C127.691643,147.313433 127.223881,146.845671 127.223881,146.268657 C127.223881,145.691643 127.691643,145.223881 128.268657,145.223881 C128.845671,145.223881 129.313433,145.691643 129.313433,146.268657 C129.313433,146.845671 128.845671,147.313433 128.268657,147.313433 Z M65.5820896,72.0895522 C65.0050756,72.0895522 64.5373134,71.62179 64.5373134,71.0447761 C64.5373134,70.4677622 65.0050756,70 65.5820896,70 C66.1591035,70 66.6268657,70.4677622 66.6268657,71.0447761 C66.6268657,71.62179 66.1591035,72.0895522 65.5820896,72.0895522 Z M65.5820896,147.313433 C65.0050756,147.313433 64.5373134,146.845671 64.5373134,146.268657 C64.5373134,145.691643 65.0050756,145.223881 65.5820896,145.223881 C66.1591035,145.223881 66.6268657,145.691643 66.6268657,146.268657 C66.6268657,146.845671 66.1591035,147.313433 65.5820896,147.313433 Z M140.80597,72.0895522 C140.228956,72.0895522 139.761194,71.62179 139.761194,71.0447761 C139.761194,70.4677622 140.228956,70 140.80597,70 C141.382984,70 141.850746,70.4677622 141.850746,71.0447761 C141.850746,71.62179 141.382984,72.0895522 140.80597,72.0895522 Z M140.80597,147.313433 C140.228956,147.313433 139.761194,146.845671 139.761194,146.268657 C139.761194,145.691643 140.228956,145.223881 140.80597,145.223881 C141.382984,145.223881 141.850746,145.691643 141.850746,146.268657 C141.850746,146.845671 141.382984,147.313433 140.80597,147.313433 Z M53.0447761,97.1641791 C52.4677622,97.1641791 52,96.6964169 52,96.119403 C52,95.5423891 52.4677622,95.0746269 53.0447761,95.0746269 C53.62179,95.0746269 54.0895522,95.5423891 54.0895522,96.119403 C54.0895522,96.6964169 53.62179,97.1641791 53.0447761,97.1641791 Z M128.268657,97.1641791 C127.691643,97.1641791 127.223881,96.6964169 127.223881,96.119403 C127.223881,95.5423891 127.691643,95.0746269 128.268657,95.0746269 C128.845671,95.0746269 129.313433,95.5423891 129.313433,96.119403 C129.313433,96.6964169 128.845671,97.1641791 128.268657,97.1641791 Z M128.268657,172.38806 C127.691643,172.38806 127.223881,171.920297 127.223881,171.343284 C127.223881,170.76627 127.691643,170.298507 128.268657,170.298507 C128.845671,170.298507 129.313433,170.76627 129.313433,171.343284 C129.313433,171.920297 128.845671,172.38806 128.268657,172.38806 Z M65.5820896,97.1641791 C65.0050756,97.1641791 64.5373134,96.6964169 64.5373134,96.119403 C64.5373134,95.5423891 65.0050756,95.0746269 65.5820896,95.0746269 C66.1591035,95.0746269 66.6268657,95.5423891 66.6268657,96.119403 C66.6268657,96.6964169 66.1591035,97.1641791 65.5820896,97.1641791 Z M65.5820896,172.38806 C65.0050756,172.38806 64.5373134,171.920297 64.5373134,171.343284 C64.5373134,170.76627 65.0050756,170.298507 65.5820896,170.298507 C66.1591035,170.298507 66.6268657,170.76627 66.6268657,171.343284 C66.6268657,171.920297 66.1591035,172.38806 65.5820896,172.38806 Z M140.80597,97.1641791 C140.228956,97.1641791 139.761194,96.6964169 139.761194,96.119403 C139.761194,95.5423891 140.228956,95.0746269 140.80597,95.0746269 C141.382984,95.0746269 141.850746,95.5423891 141.850746,96.119403 C141.850746,96.6964169 141.382984,97.1641791 140.80597,97.1641791 Z M140.80597,172.38806 C140.228956,172.38806 139.761194,171.920297 139.761194,171.343284 C139.761194,170.76627 140.228956,170.298507 140.80597,170.298507 C141.382984,170.298507 141.850746,170.76627 141.850746,171.343284 C141.850746,171.920297 141.382984,172.38806 140.80597,172.38806 Z M53.0447761,122.238806 C52.4677622,122.238806 52,121.771044 52,121.19403 C52,120.617016 52.4677622,120.149254 53.0447761,120.149254 C53.62179,120.149254 54.0895522,120.617016 54.0895522,121.19403 C54.0895522,121.771044 53.62179,122.238806 53.0447761,122.238806 Z M128.268657,122.238806 C127.691643,122.238806 127.223881,121.771044 127.223881,121.19403 C127.223881,120.617016 127.691643,120.149254 128.268657,120.149254 C128.845671,120.149254 129.313433,120.617016 129.313433,121.19403 C129.313433,121.771044 128.845671,122.238806 128.268657,122.238806 Z M65.5820896,122.238806 C65.0050756,122.238806 64.5373134,121.771044 64.5373134,121.19403 C64.5373134,120.617016 65.0050756,120.149254 65.5820896,120.149254 C66.1591035,120.149254 66.6268657,120.617016 66.6268657,121.19403 C66.6268657,121.771044 66.1591035,122.238806 65.5820896,122.238806 Z M140.80597,122.238806 C140.228956,122.238806 139.761194,121.771044 139.761194,121.19403 C139.761194,120.617016 140.228956,120.149254 140.80597,120.149254 C141.382984,120.149254 141.850746,120.617016 141.850746,121.19403 C141.850746,121.771044 141.382984,122.238806 140.80597,122.238806 Z M53.0447761,84.6268657 C52.4677622,84.6268657 52,84.1591035 52,83.5820896 C52,83.0050756 52.4677622,82.5373134 53.0447761,82.5373134 C53.62179,82.5373134 54.0895522,83.0050756 54.0895522,83.5820896 C54.0895522,84.1591035 53.62179,84.6268657 53.0447761,84.6268657 Z M128.268657,84.6268657 C127.691643,84.6268657 127.223881,84.1591035 127.223881,83.5820896 C127.223881,83.0050756 127.691643,82.5373134 128.268657,82.5373134 C128.845671,82.5373134 129.313433,83.0050756 129.313433,83.5820896 C129.313433,84.1591035 128.845671,84.6268657 128.268657,84.6268657 Z M128.268657,159.850746 C127.691643,159.850746 127.223881,159.382984 127.223881,158.80597 C127.223881,158.228956 127.691643,157.761194 128.268657,157.761194 C128.845671,157.761194 129.313433,158.228956 129.313433,158.80597 C129.313433,159.382984 128.845671,159.850746 128.268657,159.850746 Z M65.5820896,84.6268657 C65.0050756,84.6268657 64.5373134,84.1591035 64.5373134,83.5820896 C64.5373134,83.0050756 65.0050756,82.5373134 65.5820896,82.5373134 C66.1591035,82.5373134 66.6268657,83.0050756 66.6268657,83.5820896 C66.6268657,84.1591035 66.1591035,84.6268657 65.5820896,84.6268657 Z M65.5820896,159.850746 C65.0050756,159.850746 64.5373134,159.382984 64.5373134,158.80597 C64.5373134,158.228956 65.0050756,157.761194 65.5820896,157.761194 C66.1591035,157.761194 66.6268657,158.228956 66.6268657,158.80597 C66.6268657,159.382984 66.1591035,159.850746 65.5820896,159.850746 Z M140.80597,84.6268657 C140.228956,84.6268657 139.761194,84.1591035 139.761194,83.5820896 C139.761194,83.0050756 140.228956,82.5373134 140.80597,82.5373134 C141.382984,82.5373134 141.850746,83.0050756 141.850746,83.5820896 C141.850746,84.1591035 141.382984,84.6268657 140.80597,84.6268657 Z M140.80597,159.850746 C140.228956,159.850746 139.761194,159.382984 139.761194,158.80597 C139.761194,158.228956 140.228956,157.761194 140.80597,157.761194 C141.382984,157.761194 141.850746,158.228956 141.850746,158.80597 C141.850746,159.382984 141.382984,159.850746 140.80597,159.850746 Z M53.0447761,109.701493 C52.4677622,109.701493 52,109.23373 52,108.656716 C52,108.079703 52.4677622,107.61194 53.0447761,107.61194 C53.62179,107.61194 54.0895522,108.079703 54.0895522,108.656716 C54.0895522,109.23373 53.62179,109.701493 53.0447761,109.701493 Z M128.268657,109.701493 C127.691643,109.701493 127.223881,109.23373 127.223881,108.656716 C127.223881,108.079703 127.691643,107.61194 128.268657,107.61194 C128.845671,107.61194 129.313433,108.079703 129.313433,108.656716 C129.313433,109.23373 128.845671,109.701493 128.268657,109.701493 Z M65.5820896,109.701493 C65.0050756,109.701493 64.5373134,109.23373 64.5373134,108.656716 C64.5373134,108.079703 65.0050756,107.61194 65.5820896,107.61194 C66.1591035,107.61194 66.6268657,108.079703 66.6268657,108.656716 C66.6268657,109.23373 66.1591035,109.701493 65.5820896,109.701493 Z M140.80597,109.701493 C140.228956,109.701493 139.761194,109.23373 139.761194,108.656716 C139.761194,108.079703 140.228956,107.61194 140.80597,107.61194 C141.382984,107.61194 141.850746,108.079703 141.850746,108.656716 C141.850746,109.23373 141.382984,109.701493 140.80597,109.701493 Z M53.0447761,134.776119 C52.4677622,134.776119 52,134.308357 52,133.731343 C52,133.154329 52.4677622,132.686567 53.0447761,132.686567 C53.62179,132.686567 54.0895522,133.154329 54.0895522,133.731343 C54.0895522,134.308357 53.62179,134.776119 53.0447761,134.776119 Z M128.268657,134.776119 C127.691643,134.776119 127.223881,134.308357 127.223881,133.731343 C127.223881,133.154329 127.691643,132.686567 128.268657,132.686567 C128.845671,132.686567 129.313433,133.154329 129.313433,133.731343 C129.313433,134.308357 128.845671,134.776119 128.268657,134.776119 Z M65.5820896,134.776119 C65.0050756,134.776119 64.5373134,134.308357 64.5373134,133.731343 C64.5373134,133.154329 65.0050756,132.686567 65.5820896,132.686567 C66.1591035,132.686567 66.6268657,133.154329 66.6268657,133.731343 C66.6268657,134.308357 66.1591035,134.776119 65.5820896,134.776119 Z M140.80597,134.776119 C140.228956,134.776119 139.761194,134.308357 139.761194,133.731343 C139.761194,133.154329 140.228956,132.686567 140.80597,132.686567 C141.382984,132.686567 141.850746,133.154329 141.850746,133.731343 C141.850746,134.308357 141.382984,134.776119 140.80597,134.776119 Z M78.119403,72.0895522 C77.5423891,72.0895522 77.0746269,71.62179 77.0746269,71.0447761 C77.0746269,70.4677622 77.5423891,70 78.119403,70 C78.6964169,70 79.1641791,70.4677622 79.1641791,71.0447761 C79.1641791,71.62179 78.6964169,72.0895522 78.119403,72.0895522 Z M78.119403,147.313433 C77.5423891,147.313433 77.0746269,146.845671 77.0746269,146.268657 C77.0746269,145.691643 77.5423891,145.223881 78.119403,145.223881 C78.6964169,145.223881 79.1641791,145.691643 79.1641791,146.268657 C79.1641791,146.845671 78.6964169,147.313433 78.119403,147.313433 Z M153.343284,72.0895522 C152.76627,72.0895522 152.298507,71.62179 152.298507,71.0447761 C152.298507,70.4677622 152.76627,70 153.343284,70 C153.920297,70 154.38806,70.4677622 154.38806,71.0447761 C154.38806,71.62179 153.920297,72.0895522 153.343284,72.0895522 Z M153.343284,147.313433 C152.76627,147.313433 152.298507,146.845671 152.298507,146.268657 C152.298507,145.691643 152.76627,145.223881 153.343284,145.223881 C153.920297,145.223881 154.38806,145.691643 154.38806,146.268657 C154.38806,146.845671 153.920297,147.313433 153.343284,147.313433 Z M90.6567164,72.0895522 C90.0797025,72.0895522 89.6119403,71.62179 89.6119403,71.0447761 C89.6119403,70.4677622 90.0797025,70 90.6567164,70 C91.2337303,70 91.7014925,70.4677622 91.7014925,71.0447761 C91.7014925,71.62179 91.2337303,72.0895522 90.6567164,72.0895522 Z M90.6567164,147.313433 C90.0797025,147.313433 89.6119403,146.845671 89.6119403,146.268657 C89.6119403,145.691643 90.0797025,145.223881 90.6567164,145.223881 C91.2337303,145.223881 91.7014925,145.691643 91.7014925,146.268657 C91.7014925,146.845671 91.2337303,147.313433 90.6567164,147.313433 Z M165.880597,72.0895522 C165.303583,72.0895522 164.835821,71.62179 164.835821,71.0447761 C164.835821,70.4677622 165.303583,70 165.880597,70 C166.457611,70 166.925373,70.4677622 166.925373,71.0447761 C166.925373,71.62179 166.457611,72.0895522 165.880597,72.0895522 Z M165.880597,147.313433 C165.303583,147.313433 164.835821,146.845671 164.835821,146.268657 C164.835821,145.691643 165.303583,145.223881 165.880597,145.223881 C166.457611,145.223881 166.925373,145.691643 166.925373,146.268657 C166.925373,146.845671 166.457611,147.313433 165.880597,147.313433 Z M78.119403,97.1641791 C77.5423891,97.1641791 77.0746269,96.6964169 77.0746269,96.119403 C77.0746269,95.5423891 77.5423891,95.0746269 78.119403,95.0746269 C78.6964169,95.0746269 79.1641791,95.5423891 79.1641791,96.119403 C79.1641791,96.6964169 78.6964169,97.1641791 78.119403,97.1641791 Z M78.119403,172.38806 C77.5423891,172.38806 77.0746269,171.920297 77.0746269,171.343284 C77.0746269,170.76627 77.5423891,170.298507 78.119403,170.298507 C78.6964169,170.298507 79.1641791,170.76627 79.1641791,171.343284 C79.1641791,171.920297 78.6964169,172.38806 78.119403,172.38806 Z M153.343284,97.1641791 C152.76627,97.1641791 152.298507,96.6964169 152.298507,96.119403 C152.298507,95.5423891 152.76627,95.0746269 153.343284,95.0746269 C153.920297,95.0746269 154.38806,95.5423891 154.38806,96.119403 C154.38806,96.6964169 153.920297,97.1641791 153.343284,97.1641791 Z M153.343284,172.38806 C152.76627,172.38806 152.298507,171.920297 152.298507,171.343284 C152.298507,170.76627 152.76627,170.298507 153.343284,170.298507 C153.920297,170.298507 154.38806,170.76627 154.38806,171.343284 C154.38806,171.920297 153.920297,172.38806 153.343284,172.38806 Z M90.6567164,97.1641791 C90.0797025,97.1641791 89.6119403,96.6964169 89.6119403,96.119403 C89.6119403,95.5423891 90.0797025,95.0746269 90.6567164,95.0746269 C91.2337303,95.0746269 91.7014925,95.5423891 91.7014925,96.119403 C91.7014925,96.6964169 91.2337303,97.1641791 90.6567164,97.1641791 Z M90.6567164,172.38806 C90.0797025,172.38806 89.6119403,171.920297 89.6119403,171.343284 C89.6119403,170.76627 90.0797025,170.298507 90.6567164,170.298507 C91.2337303,170.298507 91.7014925,170.76627 91.7014925,171.343284 C91.7014925,171.920297 91.2337303,172.38806 90.6567164,172.38806 Z M165.880597,97.1641791 C165.303583,97.1641791 164.835821,96.6964169 164.835821,96.119403 C164.835821,95.5423891 165.303583,95.0746269 165.880597,95.0746269 C166.457611,95.0746269 166.925373,95.5423891 166.925373,96.119403 C166.925373,96.6964169 166.457611,97.1641791 165.880597,97.1641791 Z M165.880597,172.38806 C165.303583,172.38806 164.835821,171.920297 164.835821,171.343284 C164.835821,170.76627 165.303583,170.298507 165.880597,170.298507 C166.457611,170.298507 166.925373,170.76627 166.925373,171.343284 C166.925373,171.920297 166.457611,172.38806 165.880597,172.38806 Z M78.119403,122.238806 C77.5423891,122.238806 77.0746269,121.771044 77.0746269,121.19403 C77.0746269,120.617016 77.5423891,120.149254 78.119403,120.149254 C78.6964169,120.149254 79.1641791,120.617016 79.1641791,121.19403 C79.1641791,121.771044 78.6964169,122.238806 78.119403,122.238806 Z M153.343284,122.238806 C152.76627,122.238806 152.298507,121.771044 152.298507,121.19403 C152.298507,120.617016 152.76627,120.149254 153.343284,120.149254 C153.920297,120.149254 154.38806,120.617016 154.38806,121.19403 C154.38806,121.771044 153.920297,122.238806 153.343284,122.238806 Z M90.6567164,122.238806 C90.0797025,122.238806 89.6119403,121.771044 89.6119403,121.19403 C89.6119403,120.617016 90.0797025,120.149254 90.6567164,120.149254 C91.2337303,120.149254 91.7014925,120.617016 91.7014925,121.19403 C91.7014925,121.771044 91.2337303,122.238806 90.6567164,122.238806 Z M165.880597,122.238806 C165.303583,122.238806 164.835821,121.771044 164.835821,121.19403 C164.835821,120.617016 165.303583,120.149254 165.880597,120.149254 C166.457611,120.149254 166.925373,120.617016 166.925373,121.19403 C166.925373,121.771044 166.457611,122.238806 165.880597,122.238806 Z M78.119403,84.6268657 C77.5423891,84.6268657 77.0746269,84.1591035 77.0746269,83.5820896 C77.0746269,83.0050756 77.5423891,82.5373134 78.119403,82.5373134 C78.6964169,82.5373134 79.1641791,83.0050756 79.1641791,83.5820896 C79.1641791,84.1591035 78.6964169,84.6268657 78.119403,84.6268657 Z M78.119403,159.850746 C77.5423891,159.850746 77.0746269,159.382984 77.0746269,158.80597 C77.0746269,158.228956 77.5423891,157.761194 78.119403,157.761194 C78.6964169,157.761194 79.1641791,158.228956 79.1641791,158.80597 C79.1641791,159.382984 78.6964169,159.850746 78.119403,159.850746 Z M153.343284,84.6268657 C152.76627,84.6268657 152.298507,84.1591035 152.298507,83.5820896 C152.298507,83.0050756 152.76627,82.5373134 153.343284,82.5373134 C153.920297,82.5373134 154.38806,83.0050756 154.38806,83.5820896 C154.38806,84.1591035 153.920297,84.6268657 153.343284,84.6268657 Z M153.343284,159.850746 C152.76627,159.850746 152.298507,159.382984 152.298507,158.80597 C152.298507,158.228956 152.76627,157.761194 153.343284,157.761194 C153.920297,157.761194 154.38806,158.228956 154.38806,158.80597 C154.38806,159.382984 153.920297,159.850746 153.343284,159.850746 Z M90.6567164,84.6268657 C90.0797025,84.6268657 89.6119403,84.1591035 89.6119403,83.5820896 C89.6119403,83.0050756 90.0797025,82.5373134 90.6567164,82.5373134 C91.2337303,82.5373134 91.7014925,83.0050756 91.7014925,83.5820896 C91.7014925,84.1591035 91.2337303,84.6268657 90.6567164,84.6268657 Z M90.6567164,159.850746 C90.0797025,159.850746 89.6119403,159.382984 89.6119403,158.80597 C89.6119403,158.228956 90.0797025,157.761194 90.6567164,157.761194 C91.2337303,157.761194 91.7014925,158.228956 91.7014925,158.80597 C91.7014925,159.382984 91.2337303,159.850746 90.6567164,159.850746 Z M165.880597,84.6268657 C165.303583,84.6268657 164.835821,84.1591035 164.835821,83.5820896 C164.835821,83.0050756 165.303583,82.5373134 165.880597,82.5373134 C166.457611,82.5373134 166.925373,83.0050756 166.925373,83.5820896 C166.925373,84.1591035 166.457611,84.6268657 165.880597,84.6268657 Z M165.880597,159.850746 C165.303583,159.850746 164.835821,159.382984 164.835821,158.80597 C164.835821,158.228956 165.303583,157.761194 165.880597,157.761194 C166.457611,157.761194 166.925373,158.228956 166.925373,158.80597 C166.925373,159.382984 166.457611,159.850746 165.880597,159.850746 Z M78.119403,109.701493 C77.5423891,109.701493 77.0746269,109.23373 77.0746269,108.656716 C77.0746269,108.079703 77.5423891,107.61194 78.119403,107.61194 C78.6964169,107.61194 79.1641791,108.079703 79.1641791,108.656716 C79.1641791,109.23373 78.6964169,109.701493 78.119403,109.701493 Z M153.343284,109.701493 C152.76627,109.701493 152.298507,109.23373 152.298507,108.656716 C152.298507,108.079703 152.76627,107.61194 153.343284,107.61194 C153.920297,107.61194 154.38806,108.079703 154.38806,108.656716 C154.38806,109.23373 153.920297,109.701493 153.343284,109.701493 Z M90.6567164,109.701493 C90.0797025,109.701493 89.6119403,109.23373 89.6119403,108.656716 C89.6119403,108.079703 90.0797025,107.61194 90.6567164,107.61194 C91.2337303,107.61194 91.7014925,108.079703 91.7014925,108.656716 C91.7014925,109.23373 91.2337303,109.701493 90.6567164,109.701493 Z M165.880597,109.701493 C165.303583,109.701493 164.835821,109.23373 164.835821,108.656716 C164.835821,108.079703 165.303583,107.61194 165.880597,107.61194 C166.457611,107.61194 166.925373,108.079703 166.925373,108.656716 C166.925373,109.23373 166.457611,109.701493 165.880597,109.701493 Z M78.119403,134.776119 C77.5423891,134.776119 77.0746269,134.308357 77.0746269,133.731343 C77.0746269,133.154329 77.5423891,132.686567 78.119403,132.686567 C78.6964169,132.686567 79.1641791,133.154329 79.1641791,133.731343 C79.1641791,134.308357 78.6964169,134.776119 78.119403,134.776119 Z M153.343284,134.776119 C152.76627,134.776119 152.298507,134.308357 152.298507,133.731343 C152.298507,133.154329 152.76627,132.686567 153.343284,132.686567 C153.920297,132.686567 154.38806,133.154329 154.38806,133.731343 C154.38806,134.308357 153.920297,134.776119 153.343284,134.776119 Z M90.6567164,134.776119 C90.0797025,134.776119 89.6119403,134.308357 89.6119403,133.731343 C89.6119403,133.154329 90.0797025,132.686567 90.6567164,132.686567 C91.2337303,132.686567 91.7014925,133.154329 91.7014925,133.731343 C91.7014925,134.308357 91.2337303,134.776119 90.6567164,134.776119 Z M165.880597,134.776119 C165.303583,134.776119 164.835821,134.308357 164.835821,133.731343 C164.835821,133.154329 165.303583,132.686567 165.880597,132.686567 C166.457611,132.686567 166.925373,133.154329 166.925373,133.731343 C166.925373,134.308357 166.457611,134.776119 165.880597,134.776119 Z M103.19403,72.0895522 C102.617016,72.0895522 102.149254,71.62179 102.149254,71.0447761 C102.149254,70.4677622 102.617016,70 103.19403,70 C103.771044,70 104.238806,70.4677622 104.238806,71.0447761 C104.238806,71.62179 103.771044,72.0895522 103.19403,72.0895522 Z M103.19403,147.313433 C102.617016,147.313433 102.149254,146.845671 102.149254,146.268657 C102.149254,145.691643 102.617016,145.223881 103.19403,145.223881 C103.771044,145.223881 104.238806,145.691643 104.238806,146.268657 C104.238806,146.845671 103.771044,147.313433 103.19403,147.313433 Z M115.731343,72.0895522 C115.154329,72.0895522 114.686567,71.62179 114.686567,71.0447761 C114.686567,70.4677622 115.154329,70 115.731343,70 C116.308357,70 116.776119,70.4677622 116.776119,71.0447761 C116.776119,71.62179 116.308357,72.0895522 115.731343,72.0895522 Z M115.731343,147.313433 C115.154329,147.313433 114.686567,146.845671 114.686567,146.268657 C114.686567,145.691643 115.154329,145.223881 115.731343,145.223881 C116.308357,145.223881 116.776119,145.691643 116.776119,146.268657 C116.776119,146.845671 116.308357,147.313433 115.731343,147.313433 Z M103.19403,97.1641791 C102.617016,97.1641791 102.149254,96.6964169 102.149254,96.119403 C102.149254,95.5423891 102.617016,95.0746269 103.19403,95.0746269 C103.771044,95.0746269 104.238806,95.5423891 104.238806,96.119403 C104.238806,96.6964169 103.771044,97.1641791 103.19403,97.1641791 Z M103.19403,172.38806 C102.617016,172.38806 102.149254,171.920297 102.149254,171.343284 C102.149254,170.76627 102.617016,170.298507 103.19403,170.298507 C103.771044,170.298507 104.238806,170.76627 104.238806,171.343284 C104.238806,171.920297 103.771044,172.38806 103.19403,172.38806 Z M115.731343,97.1641791 C115.154329,97.1641791 114.686567,96.6964169 114.686567,96.119403 C114.686567,95.5423891 115.154329,95.0746269 115.731343,95.0746269 C116.308357,95.0746269 116.776119,95.5423891 116.776119,96.119403 C116.776119,96.6964169 116.308357,97.1641791 115.731343,97.1641791 Z M115.731343,172.38806 C115.154329,172.38806 114.686567,171.920297 114.686567,171.343284 C114.686567,170.76627 115.154329,170.298507 115.731343,170.298507 C116.308357,170.298507 116.776119,170.76627 116.776119,171.343284 C116.776119,171.920297 116.308357,172.38806 115.731343,172.38806 Z M103.19403,122.238806 C102.617016,122.238806 102.149254,121.771044 102.149254,121.19403 C102.149254,120.617016 102.617016,120.149254 103.19403,120.149254 C103.771044,120.149254 104.238806,120.617016 104.238806,121.19403 C104.238806,121.771044 103.771044,122.238806 103.19403,122.238806 Z M115.731343,122.238806 C115.154329,122.238806 114.686567,121.771044 114.686567,121.19403 C114.686567,120.617016 115.154329,120.149254 115.731343,120.149254 C116.308357,120.149254 116.776119,120.617016 116.776119,121.19403 C116.776119,121.771044 116.308357,122.238806 115.731343,122.238806 Z M103.19403,84.6268657 C102.617016,84.6268657 102.149254,84.1591035 102.149254,83.5820896 C102.149254,83.0050756 102.617016,82.5373134 103.19403,82.5373134 C103.771044,82.5373134 104.238806,83.0050756 104.238806,83.5820896 C104.238806,84.1591035 103.771044,84.6268657 103.19403,84.6268657 Z M103.19403,159.850746 C102.617016,159.850746 102.149254,159.382984 102.149254,158.80597 C102.149254,158.228956 102.617016,157.761194 103.19403,157.761194 C103.771044,157.761194 104.238806,158.228956 104.238806,158.80597 C104.238806,159.382984 103.771044,159.850746 103.19403,159.850746 Z M115.731343,84.6268657 C115.154329,84.6268657 114.686567,84.1591035 114.686567,83.5820896 C114.686567,83.0050756 115.154329,82.5373134 115.731343,82.5373134 C116.308357,82.5373134 116.776119,83.0050756 116.776119,83.5820896 C116.776119,84.1591035 116.308357,84.6268657 115.731343,84.6268657 Z M115.731343,159.850746 C115.154329,159.850746 114.686567,159.382984 114.686567,158.80597 C114.686567,158.228956 115.154329,157.761194 115.731343,157.761194 C116.308357,157.761194 116.776119,158.228956 116.776119,158.80597 C116.776119,159.382984 116.308357,159.850746 115.731343,159.850746 Z M103.19403,109.701493 C102.617016,109.701493 102.149254,109.23373 102.149254,108.656716 C102.149254,108.079703 102.617016,107.61194 103.19403,107.61194 C103.771044,107.61194 104.238806,108.079703 104.238806,108.656716 C104.238806,109.23373 103.771044,109.701493 103.19403,109.701493 Z M115.731343,109.701493 C115.154329,109.701493 114.686567,109.23373 114.686567,108.656716 C114.686567,108.079703 115.154329,107.61194 115.731343,107.61194 C116.308357,107.61194 116.776119,108.079703 116.776119,108.656716 C116.776119,109.23373 116.308357,109.701493 115.731343,109.701493 Z M103.19403,134.776119 C102.617016,134.776119 102.149254,134.308357 102.149254,133.731343 C102.149254,133.154329 102.617016,132.686567 103.19403,132.686567 C103.771044,132.686567 104.238806,133.154329 104.238806,133.731343 C104.238806,134.308357 103.771044,134.776119 103.19403,134.776119 Z M115.731343,134.776119 C115.154329,134.776119 114.686567,134.308357 114.686567,133.731343 C114.686567,133.154329 115.154329,132.686567 115.731343,132.686567 C116.308357,132.686567 116.776119,133.154329 116.776119,133.731343 C116.776119,134.308357 116.308357,134.776119 115.731343,134.776119 Z M178.41791,72.0895522 C177.840897,72.0895522 177.373134,71.62179 177.373134,71.0447761 C177.373134,70.4677622 177.840897,70 178.41791,70 C178.994924,70 179.462687,70.4677622 179.462687,71.0447761 C179.462687,71.62179 178.994924,72.0895522 178.41791,72.0895522 Z M178.41791,147.313433 C177.840897,147.313433 177.373134,146.845671 177.373134,146.268657 C177.373134,145.691643 177.840897,145.223881 178.41791,145.223881 C178.994924,145.223881 179.462687,145.691643 179.462687,146.268657 C179.462687,146.845671 178.994924,147.313433 178.41791,147.313433 Z M178.41791,97.1641791 C177.840897,97.1641791 177.373134,96.6964169 177.373134,96.119403 C177.373134,95.5423891 177.840897,95.0746269 178.41791,95.0746269 C178.994924,95.0746269 179.462687,95.5423891 179.462687,96.119403 C179.462687,96.6964169 178.994924,97.1641791 178.41791,97.1641791 Z M178.41791,172.38806 C177.840897,172.38806 177.373134,171.920297 177.373134,171.343284 C177.373134,170.76627 177.840897,170.298507 178.41791,170.298507 C178.994924,170.298507 179.462687,170.76627 179.462687,171.343284 C179.462687,171.920297 178.994924,172.38806 178.41791,172.38806 Z M178.41791,122.238806 C177.840897,122.238806 177.373134,121.771044 177.373134,121.19403 C177.373134,120.617016 177.840897,120.149254 178.41791,120.149254 C178.994924,120.149254 179.462687,120.617016 179.462687,121.19403 C179.462687,121.771044 178.994924,122.238806 178.41791,122.238806 Z M178.41791,84.6268657 C177.840897,84.6268657 177.373134,84.1591035 177.373134,83.5820896 C177.373134,83.0050756 177.840897,82.5373134 178.41791,82.5373134 C178.994924,82.5373134 179.462687,83.0050756 179.462687,83.5820896 C179.462687,84.1591035 178.994924,84.6268657 178.41791,84.6268657 Z M178.41791,159.850746 C177.840897,159.850746 177.373134,159.382984 177.373134,158.80597 C177.373134,158.228956 177.840897,157.761194 178.41791,157.761194 C178.994924,157.761194 179.462687,158.228956 179.462687,158.80597 C179.462687,159.382984 178.994924,159.850746 178.41791,159.850746 Z M178.41791,109.701493 C177.840897,109.701493 177.373134,109.23373 177.373134,108.656716 C177.373134,108.079703 177.840897,107.61194 178.41791,107.61194 C178.994924,107.61194 179.462687,108.079703 179.462687,108.656716 C179.462687,109.23373 178.994924,109.701493 178.41791,109.701493 Z M178.41791,134.776119 C177.840897,134.776119 177.373134,134.308357 177.373134,133.731343 C177.373134,133.154329 177.840897,132.686567 178.41791,132.686567 C178.994924,132.686567 179.462687,133.154329 179.462687,133.731343 C179.462687,134.308357 178.994924,134.776119 178.41791,134.776119 Z M190.955224,72.0895522 C190.37821,72.0895522 189.910448,71.62179 189.910448,71.0447761 C189.910448,70.4677622 190.37821,70 190.955224,70 C191.532238,70 192,70.4677622 192,71.0447761 C192,71.62179 191.532238,72.0895522 190.955224,72.0895522 Z M190.955224,97.1641791 C190.37821,97.1641791 189.910448,96.6964169 189.910448,96.119403 C189.910448,95.5423891 190.37821,95.0746269 190.955224,95.0746269 C191.532238,95.0746269 192,95.5423891 192,96.119403 C192,96.6964169 191.532238,97.1641791 190.955224,97.1641791 Z M190.955224,122.238806 C190.37821,122.238806 189.910448,121.771044 189.910448,121.19403 C189.910448,120.617016 190.37821,120.149254 190.955224,120.149254 C191.532238,120.149254 192,120.617016 192,121.19403 C192,121.771044 191.532238,122.238806 190.955224,122.238806 Z M190.955224,84.6268657 C190.37821,84.6268657 189.910448,84.1591035 189.910448,83.5820896 C189.910448,83.0050756 190.37821,82.5373134 190.955224,82.5373134 C191.532238,82.5373134 192,83.0050756 192,83.5820896 C192,84.1591035 191.532238,84.6268657 190.955224,84.6268657 Z M190.955224,109.701493 C190.37821,109.701493 189.910448,109.23373 189.910448,108.656716 C189.910448,108.079703 190.37821,107.61194 190.955224,107.61194 C191.532238,107.61194 192,108.079703 192,108.656716 C192,109.23373 191.532238,109.701493 190.955224,109.701493 Z M190.955224,134.776119 C190.37821,134.776119 189.910448,134.308357 189.910448,133.731343 C189.910448,133.154329 190.37821,132.686567 190.955224,132.686567 C191.532238,132.686567 192,133.154329 192,133.731343 C192,134.308357 191.532238,134.776119 190.955224,134.776119 Z M53.0447761,147.313433 C52.4677622,147.313433 52,146.845671 52,146.268657 C52,145.691643 52.4677622,145.223881 53.0447761,145.223881 C53.62179,145.223881 54.0895522,145.691643 54.0895522,146.268657 C54.0895522,146.845671 53.62179,147.313433 53.0447761,147.313433 Z M53.0447761,172.38806 C52.4677622,172.38806 52,171.920297 52,171.343284 C52,170.76627 52.4677622,170.298507 53.0447761,170.298507 C53.62179,170.298507 54.0895522,170.76627 54.0895522,171.343284 C54.0895522,171.920297 53.62179,172.38806 53.0447761,172.38806 Z M53.0447761,197.462687 C52.4677622,197.462687 52,196.994924 52,196.41791 C52,195.840897 52.4677622,195.373134 53.0447761,195.373134 C53.62179,195.373134 54.0895522,195.840897 54.0895522,196.41791 C54.0895522,196.994924 53.62179,197.462687 53.0447761,197.462687 Z M128.268657,197.462687 C127.691643,197.462687 127.223881,196.994924 127.223881,196.41791 C127.223881,195.840897 127.691643,195.373134 128.268657,195.373134 C128.845671,195.373134 129.313433,195.840897 129.313433,196.41791 C129.313433,196.994924 128.845671,197.462687 128.268657,197.462687 Z M65.5820896,197.462687 C65.0050756,197.462687 64.5373134,196.994924 64.5373134,196.41791 C64.5373134,195.840897 65.0050756,195.373134 65.5820896,195.373134 C66.1591035,195.373134 66.6268657,195.840897 66.6268657,196.41791 C66.6268657,196.994924 66.1591035,197.462687 65.5820896,197.462687 Z M140.80597,197.462687 C140.228956,197.462687 139.761194,196.994924 139.761194,196.41791 C139.761194,195.840897 140.228956,195.373134 140.80597,195.373134 C141.382984,195.373134 141.850746,195.840897 141.850746,196.41791 C141.850746,196.994924 141.382984,197.462687 140.80597,197.462687 Z M53.0447761,159.850746 C52.4677622,159.850746 52,159.382984 52,158.80597 C52,158.228956 52.4677622,157.761194 53.0447761,157.761194 C53.62179,157.761194 54.0895522,158.228956 54.0895522,158.80597 C54.0895522,159.382984 53.62179,159.850746 53.0447761,159.850746 Z M53.0447761,184.925373 C52.4677622,184.925373 52,184.457611 52,183.880597 C52,183.303583 52.4677622,182.835821 53.0447761,182.835821 C53.62179,182.835821 54.0895522,183.303583 54.0895522,183.880597 C54.0895522,184.457611 53.62179,184.925373 53.0447761,184.925373 Z M128.268657,184.925373 C127.691643,184.925373 127.223881,184.457611 127.223881,183.880597 C127.223881,183.303583 127.691643,182.835821 128.268657,182.835821 C128.845671,182.835821 129.313433,183.303583 129.313433,183.880597 C129.313433,184.457611 128.845671,184.925373 128.268657,184.925373 Z M65.5820896,184.925373 C65.0050756,184.925373 64.5373134,184.457611 64.5373134,183.880597 C64.5373134,183.303583 65.0050756,182.835821 65.5820896,182.835821 C66.1591035,182.835821 66.6268657,183.303583 66.6268657,183.880597 C66.6268657,184.457611 66.1591035,184.925373 65.5820896,184.925373 Z M140.80597,184.925373 C140.228956,184.925373 139.761194,184.457611 139.761194,183.880597 C139.761194,183.303583 140.228956,182.835821 140.80597,182.835821 C141.382984,182.835821 141.850746,183.303583 141.850746,183.880597 C141.850746,184.457611 141.382984,184.925373 140.80597,184.925373 Z M78.119403,197.462687 C77.5423891,197.462687 77.0746269,196.994924 77.0746269,196.41791 C77.0746269,195.840897 77.5423891,195.373134 78.119403,195.373134 C78.6964169,195.373134 79.1641791,195.840897 79.1641791,196.41791 C79.1641791,196.994924 78.6964169,197.462687 78.119403,197.462687 Z M153.343284,197.462687 C152.76627,197.462687 152.298507,196.994924 152.298507,196.41791 C152.298507,195.840897 152.76627,195.373134 153.343284,195.373134 C153.920297,195.373134 154.38806,195.840897 154.38806,196.41791 C154.38806,196.994924 153.920297,197.462687 153.343284,197.462687 Z M90.6567164,197.462687 C90.0797025,197.462687 89.6119403,196.994924 89.6119403,196.41791 C89.6119403,195.840897 90.0797025,195.373134 90.6567164,195.373134 C91.2337303,195.373134 91.7014925,195.840897 91.7014925,196.41791 C91.7014925,196.994924 91.2337303,197.462687 90.6567164,197.462687 Z M165.880597,197.462687 C165.303583,197.462687 164.835821,196.994924 164.835821,196.41791 C164.835821,195.840897 165.303583,195.373134 165.880597,195.373134 C166.457611,195.373134 166.925373,195.840897 166.925373,196.41791 C166.925373,196.994924 166.457611,197.462687 165.880597,197.462687 Z M78.119403,184.925373 C77.5423891,184.925373 77.0746269,184.457611 77.0746269,183.880597 C77.0746269,183.303583 77.5423891,182.835821 78.119403,182.835821 C78.6964169,182.835821 79.1641791,183.303583 79.1641791,183.880597 C79.1641791,184.457611 78.6964169,184.925373 78.119403,184.925373 Z M153.343284,184.925373 C152.76627,184.925373 152.298507,184.457611 152.298507,183.880597 C152.298507,183.303583 152.76627,182.835821 153.343284,182.835821 C153.920297,182.835821 154.38806,183.303583 154.38806,183.880597 C154.38806,184.457611 153.920297,184.925373 153.343284,184.925373 Z M90.6567164,184.925373 C90.0797025,184.925373 89.6119403,184.457611 89.6119403,183.880597 C89.6119403,183.303583 90.0797025,182.835821 90.6567164,182.835821 C91.2337303,182.835821 91.7014925,183.303583 91.7014925,183.880597 C91.7014925,184.457611 91.2337303,184.925373 90.6567164,184.925373 Z M165.880597,184.925373 C165.303583,184.925373 164.835821,184.457611 164.835821,183.880597 C164.835821,183.303583 165.303583,182.835821 165.880597,182.835821 C166.457611,182.835821 166.925373,183.303583 166.925373,183.880597 C166.925373,184.457611 166.457611,184.925373 165.880597,184.925373 Z M103.19403,197.462687 C102.617016,197.462687 102.149254,196.994924 102.149254,196.41791 C102.149254,195.840897 102.617016,195.373134 103.19403,195.373134 C103.771044,195.373134 104.238806,195.840897 104.238806,196.41791 C104.238806,196.994924 103.771044,197.462687 103.19403,197.462687 Z M115.731343,197.462687 C115.154329,197.462687 114.686567,196.994924 114.686567,196.41791 C114.686567,195.840897 115.154329,195.373134 115.731343,195.373134 C116.308357,195.373134 116.776119,195.840897 116.776119,196.41791 C116.776119,196.994924 116.308357,197.462687 115.731343,197.462687 Z M103.19403,184.925373 C102.617016,184.925373 102.149254,184.457611 102.149254,183.880597 C102.149254,183.303583 102.617016,182.835821 103.19403,182.835821 C103.771044,182.835821 104.238806,183.303583 104.238806,183.880597 C104.238806,184.457611 103.771044,184.925373 103.19403,184.925373 Z M115.731343,184.925373 C115.154329,184.925373 114.686567,184.457611 114.686567,183.880597 C114.686567,183.303583 115.154329,182.835821 115.731343,182.835821 C116.308357,182.835821 116.776119,183.303583 116.776119,183.880597 C116.776119,184.457611 116.308357,184.925373 115.731343,184.925373 Z M178.41791,197.462687 C177.840897,197.462687 177.373134,196.994924 177.373134,196.41791 C177.373134,195.840897 177.840897,195.373134 178.41791,195.373134 C178.994924,195.373134 179.462687,195.840897 179.462687,196.41791 C179.462687,196.994924 178.994924,197.462687 178.41791,197.462687 Z M178.41791,184.925373 C177.840897,184.925373 177.373134,184.457611 177.373134,183.880597 C177.373134,183.303583 177.840897,182.835821 178.41791,182.835821 C178.994924,182.835821 179.462687,183.303583 179.462687,183.880597 C179.462687,184.457611 178.994924,184.925373 178.41791,184.925373 Z M190.955224,147.313433 C190.37821,147.313433 189.910448,146.845671 189.910448,146.268657 C189.910448,145.691643 190.37821,145.223881 190.955224,145.223881 C191.532238,145.223881 192,145.691643 192,146.268657 C192,146.845671 191.532238,147.313433 190.955224,147.313433 Z M190.955224,172.38806 C190.37821,172.38806 189.910448,171.920297 189.910448,171.343284 C189.910448,170.76627 190.37821,170.298507 190.955224,170.298507 C191.532238,170.298507 192,170.76627 192,171.343284 C192,171.920297 191.532238,172.38806 190.955224,172.38806 Z M190.955224,197.462687 C190.37821,197.462687 189.910448,196.994924 189.910448,196.41791 C189.910448,195.840897 190.37821,195.373134 190.955224,195.373134 C191.532238,195.373134 192,195.840897 192,196.41791 C192,196.994924 191.532238,197.462687 190.955224,197.462687 Z M190.955224,159.850746 C190.37821,159.850746 189.910448,159.382984 189.910448,158.80597 C189.910448,158.228956 190.37821,157.761194 190.955224,157.761194 C191.532238,157.761194 192,158.228956 192,158.80597 C192,159.382984 191.532238,159.850746 190.955224,159.850746 Z M190.955224,184.925373 C190.37821,184.925373 189.910448,184.457611 189.910448,183.880597 C189.910448,183.303583 190.37821,182.835821 190.955224,182.835821 C191.532238,182.835821 192,183.303583 192,183.880597 C192,184.457611 191.532238,184.925373 190.955224,184.925373 Z M53.0447761,210 C52.4677622,210 52,209.532238 52,208.955224 C52,208.37821 52.4677622,207.910448 53.0447761,207.910448 C53.62179,207.910448 54.0895522,208.37821 54.0895522,208.955224 C54.0895522,209.532238 53.62179,210 53.0447761,210 Z M128.268657,210 C127.691643,210 127.223881,209.532238 127.223881,208.955224 C127.223881,208.37821 127.691643,207.910448 128.268657,207.910448 C128.845671,207.910448 129.313433,208.37821 129.313433,208.955224 C129.313433,209.532238 128.845671,210 128.268657,210 Z M65.5820896,210 C65.0050756,210 64.5373134,209.532238 64.5373134,208.955224 C64.5373134,208.37821 65.0050756,207.910448 65.5820896,207.910448 C66.1591035,207.910448 66.6268657,208.37821 66.6268657,208.955224 C66.6268657,209.532238 66.1591035,210 65.5820896,210 Z M140.80597,210 C140.228956,210 139.761194,209.532238 139.761194,208.955224 C139.761194,208.37821 140.228956,207.910448 140.80597,207.910448 C141.382984,207.910448 141.850746,208.37821 141.850746,208.955224 C141.850746,209.532238 141.382984,210 140.80597,210 Z M78.119403,210 C77.5423891,210 77.0746269,209.532238 77.0746269,208.955224 C77.0746269,208.37821 77.5423891,207.910448 78.119403,207.910448 C78.6964169,207.910448 79.1641791,208.37821 79.1641791,208.955224 C79.1641791,209.532238 78.6964169,210 78.119403,210 Z M153.343284,210 C152.76627,210 152.298507,209.532238 152.298507,208.955224 C152.298507,208.37821 152.76627,207.910448 153.343284,207.910448 C153.920297,207.910448 154.38806,208.37821 154.38806,208.955224 C154.38806,209.532238 153.920297,210 153.343284,210 Z M90.6567164,210 C90.0797025,210 89.6119403,209.532238 89.6119403,208.955224 C89.6119403,208.37821 90.0797025,207.910448 90.6567164,207.910448 C91.2337303,207.910448 91.7014925,208.37821 91.7014925,208.955224 C91.7014925,209.532238 91.2337303,210 90.6567164,210 Z M165.880597,210 C165.303583,210 164.835821,209.532238 164.835821,208.955224 C164.835821,208.37821 165.303583,207.910448 165.880597,207.910448 C166.457611,207.910448 166.925373,208.37821 166.925373,208.955224 C166.925373,209.532238 166.457611,210 165.880597,210 Z M103.19403,210 C102.617016,210 102.149254,209.532238 102.149254,208.955224 C102.149254,208.37821 102.617016,207.910448 103.19403,207.910448 C103.771044,207.910448 104.238806,208.37821 104.238806,208.955224 C104.238806,209.532238 103.771044,210 103.19403,210 Z M115.731343,210 C115.154329,210 114.686567,209.532238 114.686567,208.955224 C114.686567,208.37821 115.154329,207.910448 115.731343,207.910448 C116.308357,207.910448 116.776119,208.37821 116.776119,208.955224 C116.776119,209.532238 116.308357,210 115.731343,210 Z M178.41791,210 C177.840897,210 177.373134,209.532238 177.373134,208.955224 C177.373134,208.37821 177.840897,207.910448 178.41791,207.910448 C178.994924,207.910448 179.462687,208.37821 179.462687,208.955224 C179.462687,209.532238 178.994924,210 178.41791,210 Z M190.955224,210 C190.37821,210 189.910448,209.532238 189.910448,208.955224 C189.910448,208.37821 190.37821,207.910448 190.955224,207.910448 C191.532238,207.910448 192,208.37821 192,208.955224 C192,209.532238 191.532238,210 190.955224,210 Z" id="Shape" fill="#9A9FC2" opacity="0.5" transform="translate(122.000000, 140.000000) scale(1, -1) rotate(-180.000000) translate(-122.000000, -140.000000) "></path>
        <path d="M56.8371793,11.2836625 L56.7060935,11.3062532 L56.6428108,11.3198076 C19.0975825,18.655454 -5.55562577,54.6948583 1.07783921,92.2137329 L1.30200943,93.4143472 C8.55150524,130.902184 44.5488767,155.543738 82.0267039,148.926448 L83.3571892,148.680192 C120.902418,141.344546 145.555626,105.305142 138.922161,67.7862671 L138.697991,66.5856528 C131.370747,28.7191511 94.7164504,3.95976332 56.8371793,11.2836625 Z" id="Path-Copy" fill="#1E8985" fill-rule="nonzero" style="mix-blend-mode: multiply;" opacity="0.05" transform="translate(70.000000, 80.000000) scale(1, -1) rotate(-180.000000) translate(-70.000000, -80.000000) "></path>
    </g>
</svg>