<?xml version="1.0" encoding="UTF-8"?>
<svg width="240px" height="240px" viewBox="0 0 240 240" version="1.1" xmlns="http://www.w3.org/2000/svg" xmlns:xlink="http://www.w3.org/1999/xlink">
    <title>images/pattern-schedule-2</title>
    <g id="images/pattern-schedule-2" stroke="none" stroke-width="1" fill="none" fill-rule="evenodd">
        <g id="Group-12" transform="translate(5.000000, 0.000000)">
            <path d="M225.667202,148 C236.48324,157.045957 237.893897,173.117444 228.81837,183.897051 C219.741841,194.677657 203.616038,196.083563 192.8,187.038605" id="Path" fill="#6899E4" fill-rule="nonzero" opacity="0.2"></path>
            <path d="M76.5,225.2 C77.3284271,225.2 78,225.871573 78,226.7 C78,227.528427 77.3284271,228.2 76.5,228.2 C75.6715729,228.2 75,227.528427 75,226.7 C75,225.871573 75.6715729,225.2 76.5,225.2 Z M90.5244612,223.849598 C91.3376677,223.691527 92.1250441,224.222619 92.2831154,225.035825 C92.4411868,225.849032 91.9100947,226.636408 91.0968881,226.79448 C90.2836816,226.952551 89.4963052,226.421459 89.3382339,225.608252 C89.1801625,224.795046 89.7112546,224.007669 90.5244612,223.849598 Z M60.0775179,224.895301 C60.2426797,224.083505 61.0346606,223.559304 61.8464568,223.724466 C62.658253,223.889628 63.1824538,224.681609 63.017292,225.493405 C62.8521302,226.305201 62.0601492,226.829402 61.248353,226.66424 C60.4365568,226.499078 59.9123561,225.707097 60.0775179,224.895301 Z M46.4129233,220.41694 C46.7299486,219.651573 47.6074009,219.28812 48.3727677,219.605146 C49.1381346,219.922171 49.5015872,220.799623 49.1845619,221.56499 C48.8675365,222.330357 47.9900843,222.69381 47.2247174,222.376784 C46.4593506,222.059759 46.0958979,221.182307 46.4129233,220.41694 Z M104.627232,219.605146 C105.392599,219.28812 106.270051,219.651573 106.587077,220.41694 C106.904102,221.182307 106.540649,222.059759 105.775283,222.376784 C105.009916,222.69381 104.132463,222.330357 103.815438,221.56499 C103.498413,220.799623 103.861865,219.922171 104.627232,219.605146 Z M117.067368,212.990608 C117.758182,212.533368 118.688863,212.722718 119.146103,213.413531 C119.603342,214.104345 119.413993,215.035026 118.723179,215.492265 C118.032366,215.949505 117.101685,215.760156 116.644445,215.069342 C116.187206,214.378528 116.376555,213.447847 117.067368,212.990608 Z M33.3169759,213.039029 C33.7802265,212.352231 34.7125244,212.171011 35.3993216,212.634262 C36.0861188,213.097512 36.2673392,214.02981 35.8040886,214.716607 C35.340838,215.403405 34.4085401,215.584625 33.7217429,215.121374 C33.0349457,214.658124 32.8537253,213.725826 33.3169759,213.039029 Z M76.5,210.2 C77.3284271,210.2 78,210.871573 78,211.7 C78,212.528427 77.3284271,213.2 76.5,213.2 C75.6715729,213.2 75,212.528427 75,211.7 C75,210.871573 75.6715729,210.2 76.5,210.2 Z M87.6623262,209.12519 C88.4755328,208.967119 89.2629092,209.498211 89.4209805,210.311418 C89.5790518,211.124624 89.0479598,211.912 88.2347532,212.070072 C87.4215466,212.228143 86.6341703,211.697051 86.4760989,210.883844 C86.3180276,210.070638 86.8491196,209.283262 87.6623262,209.12519 Z M63.0680369,210.19643 C63.2331987,209.384634 64.0251796,208.860433 64.8369758,209.025595 C65.648772,209.190757 66.1729728,209.982738 66.007811,210.794534 C65.8426492,211.60633 65.0506682,212.130531 64.238872,211.965369 C63.4270758,211.800208 62.9028751,211.008227 63.0680369,210.19643 Z M98.8869808,205.746953 C99.6523477,205.429927 100.5298,205.79338 100.846825,206.558747 C101.163851,207.324114 100.800398,208.201566 100.035031,208.518591 C99.2696642,208.835617 98.392212,208.472164 98.0751866,207.706797 C97.7581613,206.94143 98.1216139,206.063978 98.8869808,205.746953 Z M52.1531748,206.558747 C52.4702001,205.79338 53.3476523,205.429927 54.1130192,205.746953 C54.8783861,206.063978 55.2418387,206.94143 54.9248134,207.706797 C54.607788,208.472164 53.7303358,208.835617 52.9649689,208.518591 C52.199602,208.201566 51.8361494,207.324114 52.1531748,206.558747 Z M22.4063312,203.672348 C22.9921177,203.086562 23.9418651,203.086562 24.5276516,203.672348 C25.113438,204.258135 25.113438,205.207882 24.5276516,205.793669 C23.9418651,206.379455 22.9921177,206.379455 22.4063312,205.793669 C21.8205448,205.207882 21.8205448,204.258135 22.4063312,203.672348 Z M128.472348,203.672348 C129.058135,203.086562 130.007882,203.086562 130.593669,203.672348 C131.179455,204.258135 131.179455,205.207882 130.593669,205.793669 C130.007882,206.379455 129.058135,206.379455 128.472348,205.793669 C127.886562,205.207882 127.886562,204.258135 128.472348,203.672348 Z M108.788314,200.482321 C109.479127,200.025081 110.409808,200.21443 110.867048,200.905244 C111.324287,201.596057 111.134938,202.526738 110.444125,202.983978 C109.753311,203.441218 108.82263,203.251868 108.36539,202.561055 C107.908151,201.870241 108.0975,200.93956 108.788314,200.482321 Z M41.7048694,200.603465 C42.16812,199.916668 43.1004179,199.735447 43.7872151,200.198698 C44.4740124,200.661949 44.6552327,201.594246 44.1919822,202.281044 C43.7287316,202.967841 42.7964336,203.149061 42.1096364,202.685811 C41.4228392,202.22256 41.2416189,201.290262 41.7048694,200.603465 Z M76.5,195.2 C77.3284271,195.2 78,195.871573 78,196.7 C78,197.528427 77.3284271,198.2 76.5,198.2 C75.6715729,198.2 75,197.528427 75,196.7 C75,195.871573 75.6715729,195.2 76.5,195.2 Z M86.6186559,195.593032 C86.7767273,196.406239 86.2456353,197.193615 85.4324287,197.351687 C84.6192221,197.509758 83.8318457,196.978666 83.6737744,196.165459 C83.515703,195.352253 84.0467951,194.564876 84.8600017,194.406805 C85.6732083,194.248734 86.4605846,194.779826 86.6186559,195.593032 Z M67.8873052,194.332747 C68.6991014,194.497909 69.2233022,195.28989 69.0581404,196.101686 C68.8929786,196.913482 68.1009976,197.437683 67.2892014,197.272521 C66.4774052,197.10736 65.9532045,196.315379 66.1183663,195.503582 C66.2835281,194.691786 67.075509,194.167585 67.8873052,194.332747 Z M33.012933,193.065747 C33.5987194,192.47996 34.5484669,192.47996 35.1342533,193.065747 C35.7200397,193.651533 35.7200397,194.601281 35.1342533,195.187067 C34.5484669,195.772853 33.5987194,195.772853 33.012933,195.187067 C32.4271465,194.601281 32.4271465,193.651533 33.012933,193.065747 Z M117.865747,193.065747 C118.451533,192.47996 119.401281,192.47996 119.987067,193.065747 C120.572853,193.651533 120.572853,194.601281 119.987067,195.187067 C119.401281,195.772853 118.451533,195.772853 117.865747,195.187067 C117.27996,194.601281 117.27996,193.651533 117.865747,193.065747 Z M137.434262,192.800678 C137.897512,192.113881 138.82981,191.932661 139.516607,192.395911 C140.203405,192.859162 140.384625,193.79146 139.921374,194.478257 C139.458124,195.165054 138.525826,195.346275 137.839029,194.883024 C137.152231,194.419774 136.971011,193.487476 137.434262,192.800678 Z M95.1065738,192.700554 C95.4235991,193.465921 95.0601465,194.343373 94.2947796,194.660398 C93.5294127,194.977424 92.6519605,194.613971 92.3349352,193.848604 C92.0179098,193.083237 92.3813624,192.205785 93.1467293,191.88876 C93.9120962,191.571734 94.7895484,191.935187 95.1065738,192.700554 Z M59.8532707,191.88876 C60.6186376,192.205785 60.9820902,193.083237 60.6650648,193.848604 C60.3480395,194.613971 59.4705873,194.977424 58.7052204,194.660398 C57.9398535,194.343373 57.5764009,193.465921 57.8934262,192.700554 C58.2104516,191.935187 59.0879038,191.571734 59.8532707,191.88876 Z M13.1306579,191.844445 C13.8214715,191.387206 14.7521525,191.576555 15.2093921,192.267368 C15.6666316,192.958182 15.4772825,193.888863 14.7864688,194.346103 C14.0956552,194.803342 13.1649742,194.613993 12.7077346,193.923179 C12.250495,193.232366 12.4398442,192.301685 13.1306579,191.844445 Z M102.647803,188.402979 C103.105043,189.093793 102.915694,190.024474 102.22488,190.481713 C101.534067,190.938953 100.603386,190.749604 100.146146,190.05879 C99.6889064,189.367976 99.8782556,188.437295 100.569069,187.980056 C101.259883,187.522816 102.190564,187.712165 102.647803,188.402979 Z M52.2349191,187.769157 C52.9217163,188.232408 53.1029367,189.164705 52.6396861,189.851503 C52.1764355,190.5383 51.2441376,190.71952 50.5573404,190.25627 C49.8705432,189.793019 49.6893228,188.860721 50.1525734,188.173924 C50.6158239,187.487127 51.5481219,187.305906 52.2349191,187.769157 Z M124.998698,184.412785 C125.461949,183.725988 126.394246,183.544767 127.081044,184.008018 C127.767841,184.471268 127.949061,185.403566 127.485811,186.090364 C127.02256,186.777161 126.090262,186.958381 125.403465,186.495131 C124.716668,186.03188 124.535447,185.099582 124.998698,184.412785 Z M25.6389452,183.56539 C26.3297588,183.108151 27.2604398,183.2975 27.7176794,183.988314 C28.174919,184.679127 27.9855698,185.609808 27.2947562,186.067048 C26.6039425,186.524287 25.6732615,186.334938 25.2160219,185.644125 C24.7587824,184.953311 24.9481316,184.02263 25.6389452,183.56539 Z M109.380465,182.459145 C109.966252,183.044931 109.966252,183.994679 109.380465,184.580465 C108.794679,185.166252 107.844931,185.166252 107.259145,184.580465 C106.673359,183.994679 106.673359,183.044931 107.259145,182.459145 C107.844931,181.873359 108.794679,181.873359 109.380465,182.459145 Z M45.740855,182.459145 C46.3266415,183.044931 46.3266415,183.994679 45.740855,184.580465 C45.1550686,185.166252 44.2053211,185.166252 43.6195347,184.580465 C43.0337482,183.994679 43.0337482,183.044931 43.6195347,182.459145 C44.2053211,181.873359 45.1550686,181.873359 45.740855,182.459145 Z M76.5,180.2 C77.3284271,180.2 78,180.871573 78,181.7 C78,182.528427 77.3284271,183.2 76.5,183.2 C75.6715729,183.2 75,182.528427 75,181.7 C75,180.871573 75.6715729,180.2 76.5,180.2 Z M83.4485038,180.86192 C83.5994727,181.676475 83.0615298,182.459187 82.2469748,182.610156 C81.4324197,182.761125 80.649708,182.223182 80.4987391,181.408627 C80.3477703,180.594072 80.8857132,179.81136 81.7002682,179.660391 C82.5148232,179.509423 83.297535,180.047365 83.4485038,180.86192 Z M70.5810725,179.514833 C71.3913965,179.687073 71.9086661,180.483598 71.7364264,181.293922 C71.5641867,182.104246 70.7676615,182.621516 69.9573375,182.449276 C69.1470135,182.277036 68.6297439,181.480511 68.8019836,180.670187 C68.9742233,179.859863 69.7707485,179.342593 70.5810725,179.514833 Z M144.405146,179.827232 C144.722171,179.061865 145.599623,178.698413 146.36499,179.015438 C147.130357,179.332463 147.49381,180.209916 147.176784,180.975283 C146.859759,181.740649 145.982307,182.104102 145.21694,181.787077 C144.451573,181.470051 144.08812,180.592599 144.405146,179.827232 Z M6.63500991,179.015438 C7.40037678,178.698413 8.27782902,179.061865 8.59485436,179.827232 C8.9118797,180.592599 8.54842707,181.470051 7.78306021,181.787077 C7.01769335,182.104102 6.1402411,181.740649 5.82321576,180.975283 C5.50619043,180.209916 5.86964305,179.332463 6.63500991,179.015438 Z M89.3663223,178.842361 C89.6833476,179.607728 89.319895,180.48518 88.5545281,180.802205 C87.7891613,181.119231 86.911709,180.755778 86.5946837,179.990411 C86.2776583,179.225044 86.641111,178.347592 87.4064778,178.030567 C88.1718447,177.713541 89.0492969,178.076994 89.3663223,178.842361 Z M65.5935222,178.030567 C66.358889,178.347592 66.7223417,179.225044 66.4053163,179.990411 C66.088291,180.755778 65.2108387,181.119231 64.4454719,180.802205 C63.680105,180.48518 63.3166524,179.607728 63.6336777,178.842361 C63.9507031,178.076994 64.8281553,177.713541 65.5935222,178.030567 Z M114.705291,175.626147 C115.392088,176.089397 115.573308,177.021695 115.110058,177.708493 C114.646807,178.39529 113.714509,178.57651 113.027712,178.11326 C112.340915,177.650009 112.159694,176.717711 112.622945,176.030914 C113.086195,175.344117 114.018493,175.162896 114.705291,175.626147 Z M94.1037326,175.980785 C94.5549264,176.675562 94.3574628,177.604556 93.6626853,178.055749 C92.9679079,178.506943 92.0389147,178.30948 91.5877209,177.614702 C91.1365272,176.919925 91.3339908,175.990931 92.0287682,175.539738 C92.7235457,175.088544 93.6525389,175.286008 94.1037326,175.980785 Z M40.2857771,175.715281 C40.7430167,176.406095 40.5536675,177.336776 39.8628539,177.794016 C39.1720402,178.251255 38.2413592,178.061906 37.7841197,177.371092 C37.3268801,176.680279 37.5162293,175.749598 38.2070429,175.292358 C38.8978565,174.835119 39.8285376,175.024468 40.2857771,175.715281 Z M60.363978,175.125223 C61.0467065,175.594449 61.2197842,176.528293 60.7505579,177.211022 C60.2813316,177.89375 59.3474877,178.066828 58.6647593,177.597601 C57.9820308,177.128375 57.808953,176.194531 58.2781793,175.511803 C58.7474056,174.829074 59.6812495,174.655997 60.363978,175.125223 Z M130.546953,174.086981 C130.863978,173.321614 131.74143,172.958161 132.506797,173.275187 C133.272164,173.592212 133.635617,174.469664 133.318591,175.235031 C133.001566,176.000398 132.124114,176.363851 131.358747,176.046825 C130.59338,175.7298 130.229927,174.852348 130.546953,174.086981 Z M20.4932029,173.275187 C21.2585698,172.958161 22.136022,173.321614 22.4530473,174.086981 C22.7700727,174.852348 22.4066201,175.7298 21.6412532,176.046825 C20.8758863,176.363851 19.9984341,176.000398 19.6814088,175.235031 C19.3643834,174.469664 19.727836,173.592212 20.4932029,173.275187 Z M56.3474567,171.852543 C56.9332432,172.43833 56.9332432,173.388077 56.3474567,173.973864 C55.7616703,174.55965 54.8119228,174.55965 54.2261364,173.973864 C53.64035,173.388077 53.64035,172.43833 54.2261364,171.852543 C54.8119228,171.266757 55.7616703,171.266757 56.3474567,171.852543 Z M98.7738636,171.852543 C99.35965,172.43833 99.35965,173.388077 98.7738636,173.973864 C98.1880772,174.55965 97.2383297,174.55965 96.6525433,173.973864 C96.0667568,173.388077 96.0667568,172.43833 96.6525433,171.852543 C97.2383297,171.266757 98.1880772,171.266757 98.7738636,171.852543 Z M36.3112403,168.346729 C36.6282657,169.112096 36.2648131,169.989548 35.4994462,170.306574 C34.7340793,170.623599 33.8566271,170.260146 33.5396017,169.49478 C33.2225764,168.729413 33.586029,167.85196 34.3513959,167.534935 C35.1167628,167.21791 35.994215,167.581362 36.3112403,168.346729 Z M118.648604,167.534935 C119.413971,167.85196 119.777424,168.729413 119.460398,169.49478 C119.143373,170.260146 118.265921,170.623599 117.500554,170.306574 C116.735187,169.989548 116.371734,169.112096 116.68876,168.346729 C117.005785,167.581362 117.883237,167.21791 118.648604,167.534935 Z M102.079951,167.393624 C102.762679,167.862851 102.935757,168.796694 102.466531,169.479423 C101.997304,170.162151 101.063461,170.335229 100.380732,169.866003 C99.6980035,169.396777 99.5249258,168.462933 99.9941521,167.780204 C100.463378,167.097476 101.397222,166.924398 102.079951,167.393624 Z M52.6044445,167.159839 C53.0556383,167.854616 52.8581747,168.78361 52.1633972,169.234803 C51.4686198,169.685997 50.5396266,169.488534 50.0884328,168.793756 C49.6372391,168.098979 49.8347027,167.169985 50.5294801,166.718792 C51.2242576,166.267598 52.1532508,166.465062 52.6044445,167.159839 Z M76.5,165.2 C77.3284271,165.2 78,165.871573 78,166.7 C78,167.528427 77.3284271,168.2 76.5,168.2 C75.6715729,168.2 75,167.528427 75,166.7 C75,165.871573 75.6715729,165.2 76.5,165.2 Z M148.524466,166.353543 C148.689628,165.541747 149.481609,165.017546 150.293405,165.182708 C151.105201,165.34787 151.629402,166.139851 151.46424,166.951647 C151.299078,167.763443 150.507097,168.287644 149.695301,168.122482 C148.883505,167.95732 148.359304,167.165339 148.524466,166.353543 Z M2.59174775,164.538234 C3.40495433,164.380163 4.19233067,164.911255 4.35040202,165.724461 C4.50847336,166.537668 3.97738132,167.325044 3.16417473,167.483115 C2.35096815,167.641187 1.56359181,167.110095 1.40552047,166.296888 C1.24744912,165.483682 1.77854116,164.696305 2.59174775,164.538234 Z M69.3739292,164.984168 C69.6909546,164.218801 70.5684068,163.855348 71.3337737,164.172374 C72.0991405,164.489399 72.4625931,165.366851 72.1455678,166.132218 C71.8285425,166.897585 70.9510902,167.261038 70.1857234,166.944012 C69.4203565,166.626987 69.0569039,165.749535 69.3739292,164.984168 Z M81.6662263,164.172374 C82.4315932,163.855348 83.3090454,164.218801 83.6260708,164.984168 C83.9430961,165.749535 83.5796435,166.626987 82.8142766,166.944012 C82.0489098,167.261038 81.1714575,166.897585 80.8544322,166.132218 C80.5374069,165.366851 80.9008595,164.489399 81.6662263,164.172374 Z M133.825595,163.363024 C133.990757,162.551228 134.782738,162.027027 135.594534,162.192189 C136.40633,162.357351 136.930531,163.149332 136.765369,163.961128 C136.600208,164.772924 135.808227,165.297125 134.99643,165.131963 C134.184634,164.966801 133.660433,164.17482 133.825595,163.363024 Z M104.790411,161.794684 C105.555778,162.111709 105.919231,162.989161 105.602205,163.754528 C105.28518,164.519895 104.407728,164.883348 103.642361,164.566322 C102.876994,164.249297 102.513541,163.371845 102.830567,162.606478 C103.147592,161.841111 104.025044,161.477658 104.790411,161.794684 Z M50.1694333,162.606478 C50.4864587,163.371845 50.123006,164.249297 49.3576392,164.566322 C48.5922723,164.883348 47.7148201,164.519895 47.3977947,163.754528 C47.0807694,162.989161 47.444222,162.111709 48.2095889,161.794684 C48.9749557,161.477658 49.852408,161.841111 50.1694333,162.606478 Z M17.3161555,161.676099 C18.1293621,161.518028 18.9167384,162.04912 19.0748098,162.862326 C19.2328811,163.675533 18.7017891,164.462909 17.8885825,164.62098 C17.0753759,164.779052 16.2879996,164.24796 16.1299282,163.434753 C15.9718569,162.621547 16.5029489,161.83417 17.3161555,161.676099 Z M64.8327381,161.245942 C65.4185245,160.660155 66.368272,160.660155 66.9540585,161.245942 C67.5398449,161.831728 67.5398449,162.781475 66.9540585,163.367262 C66.368272,163.953048 65.4185245,163.953048 64.8327381,163.367262 C64.2469517,162.781475 64.2469517,161.831728 64.8327381,161.245942 Z M86.0459415,161.245942 C86.631728,160.660155 87.5814755,160.660155 88.1672619,161.245942 C88.7530483,161.831728 88.7530483,162.781475 88.1672619,163.367262 C87.5814755,163.953048 86.631728,163.953048 86.0459415,163.367262 C85.4601551,162.781475 85.4601551,161.831728 86.0459415,161.245942 Z M120.955474,159.207693 C121.76727,159.372854 122.291471,160.164835 122.126309,160.976632 C121.961147,161.788428 121.169166,162.312628 120.35737,162.147467 C119.545574,161.982305 119.021373,161.190324 119.186535,160.378528 C119.351697,159.566732 120.143678,159.042531 120.955474,159.207693 Z M33.8590279,160.006214 C34.0170992,160.81942 33.4860072,161.606797 32.6728006,161.764868 C31.859594,161.92294 31.0722177,161.391847 30.9141464,160.578641 C30.756075,159.765434 31.287167,158.978058 32.1003736,158.819987 C32.9135802,158.661915 33.7009566,159.193007 33.8590279,160.006214 Z M106.162851,156.407756 C106.973175,156.579996 107.490445,157.376521 107.318205,158.186845 C107.145965,158.997169 106.34944,159.514438 105.539116,159.342199 C104.728792,159.169959 104.211523,158.373434 104.383762,157.56311 C104.556002,156.752786 105.352527,156.235516 106.162851,156.407756 Z M88.9723737,156.866226 C89.289399,156.100859 90.1668513,155.737407 90.9322181,156.054432 C91.697585,156.371458 92.0610376,157.24891 91.7440123,158.014277 C91.426987,158.779643 90.5495347,159.143096 89.7841678,158.826071 C89.018801,158.509045 88.6553484,157.631593 88.9723737,156.866226 Z M62.0677819,156.054432 C62.8331487,155.737407 63.710601,156.100859 64.0276263,156.866226 C64.3446516,157.631593 63.981199,158.509045 63.2158322,158.826071 C62.4504653,159.143096 61.573013,158.779643 61.2559877,158.014277 C60.9389624,157.24891 61.302415,156.371458 62.0677819,156.054432 Z M48.4837909,156.831339 C48.6347597,157.645894 48.0968168,158.428606 47.2822618,158.579575 C46.4677067,158.730543 45.684995,158.192601 45.5340261,157.378046 C45.3830573,156.563491 45.9210002,155.780779 46.7355552,155.62981 C47.5501102,155.478841 48.332822,156.016784 48.4837909,156.831339 Z M1.5,150.2 C2.32842712,150.2 3,150.871573 3,151.7 C3,152.528427 2.32842712,153.2 1.5,153.2 C0.671572875,153.2 0,152.528427 0,151.7 C0,150.871573 0.671572875,150.2 1.5,150.2 Z M91.5,150.2 C92.3284271,150.2 93,150.871573 93,151.7 C93,152.528427 92.3284271,153.2 91.5,153.2 C90.6715729,153.2 90,152.528427 90,151.7 C90,150.871573 90.6715729,150.2 91.5,150.2 Z M61.5,150.2 C62.3284271,150.2 63,150.871573 63,151.7 C63,152.528427 62.3284271,153.2 61.5,153.2 C60.6715729,153.2 60,152.528427 60,151.7 C60,150.871573 60.6715729,150.2 61.5,150.2 Z M121.5,150.2 C122.328427,150.2 123,150.871573 123,151.7 C123,152.528427 122.328427,153.2 121.5,153.2 C120.671573,153.2 120,152.528427 120,151.7 C120,150.871573 120.671573,150.2 121.5,150.2 Z M136.5,150.2 C137.328427,150.2 138,150.871573 138,151.7 C138,152.528427 137.328427,153.2 136.5,153.2 C135.671573,153.2 135,152.528427 135,151.7 C135,150.871573 135.671573,150.2 136.5,150.2 Z M31.5,150.2 C32.3284271,150.2 33,150.871573 33,151.7 C33,152.528427 32.3284271,153.2 31.5,153.2 C30.6715729,153.2 30,152.528427 30,151.7 C30,150.871573 30.6715729,150.2 31.5,150.2 Z M151.5,150.2 C152.328427,150.2 153,150.871573 153,151.7 C153,152.528427 152.328427,153.2 151.5,153.2 C150.671573,153.2 150,152.528427 150,151.7 C150,150.871573 150.671573,150.2 151.5,150.2 Z M16.5,150.2 C17.3284271,150.2 18,150.871573 18,151.7 C18,152.528427 17.3284271,153.2 16.5,153.2 C15.6715729,153.2 15,152.528427 15,151.7 C15,150.871573 15.6715729,150.2 16.5,150.2 Z M46.5,150.2 C47.3284271,150.2 48,150.871573 48,151.7 C48,152.528427 47.3284271,153.2 46.5,153.2 C45.6715729,153.2 45,152.528427 45,151.7 C45,150.871573 45.6715729,150.2 46.5,150.2 Z M106.5,150.2 C107.328427,150.2 108,150.871573 108,151.7 C108,152.528427 107.328427,153.2 106.5,153.2 C105.671573,153.2 105,152.528427 105,151.7 C105,150.871573 105.671573,150.2 106.5,150.2 Z M76.5,150.2 C77.3284271,150.2 78,150.871573 78,151.7 C78,152.528427 77.3284271,153.2 76.5,153.2 C75.6715729,153.2 75,152.528427 75,151.7 C75,150.871573 75.6715729,150.2 76.5,150.2 Z M107.479085,145.897207 C107.630054,146.711762 107.092111,147.494474 106.277556,147.645443 C105.463001,147.796412 104.680289,147.258469 104.529321,146.443914 C104.378352,145.629359 104.916295,144.846647 105.73085,144.695678 C106.545405,144.54471 107.328116,145.082652 107.479085,145.897207 Z M89.7841678,144.573929 C90.5495347,144.256904 91.426987,144.620357 91.7440123,145.385723 C92.0610376,146.15109 91.697585,147.028542 90.9322181,147.345568 C90.1668513,147.662593 89.289399,147.299141 88.9723737,146.533774 C88.6553484,145.768407 89.018801,144.890955 89.7841678,144.573929 Z M61.2559877,145.385723 C61.573013,144.620357 62.4504653,144.256904 63.2158322,144.573929 C63.981199,144.890955 64.3446516,145.768407 64.0276263,146.533774 C63.710601,147.299141 62.8331487,147.662593 62.0677819,147.345568 C61.302415,147.028542 60.9389624,146.15109 61.2559877,145.385723 Z M45.6949063,145.088408 C45.867146,144.278084 46.6636712,143.760815 47.4739952,143.933054 C48.2843192,144.105294 48.8015888,144.901819 48.6293491,145.712143 C48.4571094,146.522467 47.6605842,147.039737 46.8502602,146.867497 C46.0399362,146.695257 45.5226666,145.898732 45.6949063,145.088408 Z M122.205474,142.833404 C122.363546,143.646611 121.832454,144.433987 121.019247,144.592059 C120.206041,144.75013 119.418664,144.219038 119.260593,143.405831 C119.102522,142.592625 119.633614,141.805248 120.44682,141.647177 C121.260027,141.489106 122.047403,142.020198 122.205474,142.833404 Z M32.7622506,141.264578 C33.5740468,141.42974 34.0982475,142.221721 33.9330857,143.033517 C33.7679239,143.845314 32.975943,144.369514 32.1641468,144.204353 C31.3523506,144.039191 30.8281498,143.24721 30.9933116,142.435414 C31.1584734,141.623617 31.9504544,141.099417 32.7622506,141.264578 Z M64.8327381,140.032738 C65.4185245,139.446952 66.368272,139.446952 66.9540585,140.032738 C67.5398449,140.618525 67.5398449,141.568272 66.9540585,142.154058 C66.368272,142.739845 65.4185245,142.739845 64.8327381,142.154058 C64.2469517,141.568272 64.2469517,140.618525 64.8327381,140.032738 Z M86.0459415,140.032738 C86.631728,139.446952 87.5814755,139.446952 88.1672619,140.032738 C88.7530483,140.618525 88.7530483,141.568272 88.1672619,142.154058 C87.5814755,142.739845 86.631728,142.739845 86.0459415,142.154058 C85.4601551,141.568272 85.4601551,140.618525 86.0459415,140.032738 Z M135.111418,138.77902 C135.924624,138.620948 136.712,139.15204 136.870072,139.965247 C137.028143,140.778453 136.497051,141.56583 135.683844,141.723901 C134.870638,141.881972 134.083262,141.35088 133.92519,140.537674 C133.767119,139.724467 134.298211,138.937091 135.111418,138.77902 Z M49.3576392,138.833678 C50.123006,139.150703 50.4864587,140.028155 50.1694333,140.793522 C49.852408,141.558889 48.9749557,141.922342 48.2095889,141.605316 C47.444222,141.288291 47.0807694,140.410839 47.3977947,139.645472 C47.7148201,138.880105 48.5922723,138.516652 49.3576392,138.833678 Z M105.602205,139.645472 C105.919231,140.410839 105.555778,141.288291 104.790411,141.605316 C104.025044,141.922342 103.147592,141.558889 102.830567,140.793522 C102.513541,140.028155 102.876994,139.150703 103.642361,138.833678 C104.407728,138.516652 105.28518,138.880105 105.602205,139.645472 Z M16.2346307,139.438872 C16.3997925,138.627076 17.1917734,138.102875 18.0035696,138.268037 C18.8153658,138.433199 19.3395666,139.22518 19.1744048,140.036976 C19.009243,140.848772 18.217262,141.372973 17.4054658,141.207811 C16.5936696,141.042649 16.0694689,140.250668 16.2346307,139.438872 Z M80.8544322,137.267782 C81.1714575,136.502415 82.0489098,136.138962 82.8142766,136.455988 C83.5796435,136.773013 83.9430961,137.650465 83.6260708,138.415832 C83.3090454,139.181199 82.4315932,139.544652 81.6662263,139.227626 C80.9008595,138.910601 80.5374069,138.033149 80.8544322,137.267782 Z M70.1857234,136.455988 C70.9510902,136.138962 71.8285425,136.502415 72.1455678,137.267782 C72.4625931,138.033149 72.0991405,138.910601 71.3337737,139.227626 C70.5684068,139.544652 69.6909546,139.181199 69.3739292,138.415832 C69.0569039,137.650465 69.4203565,136.773013 70.1857234,136.455988 Z M149.835825,135.916885 C150.649032,135.758813 151.436408,136.289905 151.59448,137.103112 C151.752551,137.916318 151.221459,138.703695 150.408252,138.861766 C149.595046,139.019837 148.807669,138.488745 148.649598,137.675539 C148.491527,136.862332 149.022619,136.074956 149.835825,135.916885 Z M1.5357601,136.448353 C1.7009219,135.636557 2.49290285,135.112356 3.30469906,135.277518 C4.11649526,135.44268 4.64069602,136.234661 4.47553421,137.046457 C4.31037241,137.858253 3.51839146,138.382454 2.70659525,138.217292 C1.89479905,138.05213 1.37059829,137.260149 1.5357601,136.448353 Z M76.5,135.2 C77.3284271,135.2 78,135.871573 78,136.7 C78,137.528427 77.3284271,138.2 76.5,138.2 C75.6715729,138.2 75,137.528427 75,136.7 C75,135.871573 75.6715729,135.2 76.5,135.2 Z M102.924679,134.481497 C103.375872,135.176274 103.178409,136.105268 102.483631,136.556461 C101.788854,137.007655 100.859861,136.810191 100.408667,136.115414 C99.9574732,135.420637 100.154937,134.491643 100.849714,134.04045 C101.544492,133.589256 102.473485,133.786719 102.924679,134.481497 Z M52.6323794,133.40925 C53.3151079,133.878476 53.4881856,134.81232 53.0189593,135.495049 C52.5497331,136.177777 51.6158892,136.350855 50.9331607,135.881629 C50.2504322,135.412402 50.0773545,134.478559 50.5465808,133.79583 C51.0158071,133.113102 51.9496509,132.940024 52.6323794,133.40925 Z M35.4994462,133.093426 C36.2648131,133.410452 36.6282657,134.287904 36.3112403,135.053271 C35.994215,135.818638 35.1167628,136.18209 34.3513959,135.865065 C33.586029,135.54804 33.2225764,134.670587 33.5396017,133.90522 C33.8566271,133.139854 34.7340793,132.776401 35.4994462,133.093426 Z M119.460398,133.90522 C119.777424,134.670587 119.413971,135.54804 118.648604,135.865065 C117.883237,136.18209 117.005785,135.818638 116.68876,135.053271 C116.371734,134.287904 116.735187,133.410452 117.500554,133.093426 C118.265921,132.776401 119.143373,133.139854 119.460398,133.90522 Z M98.7738636,129.426136 C99.35965,130.011923 99.35965,130.96167 98.7738636,131.547457 C98.1880772,132.133243 97.2383297,132.133243 96.6525433,131.547457 C96.0667568,130.96167 96.0667568,130.011923 96.6525433,129.426136 C97.2383297,128.84035 98.1880772,128.84035 98.7738636,129.426136 Z M56.3474567,129.426136 C56.9332432,130.011923 56.9332432,130.96167 56.3474567,131.547457 C55.7616703,132.133243 54.8119228,132.133243 54.2261364,131.547457 C53.64035,130.96167 53.64035,130.011923 54.2261364,129.426136 C54.8119228,128.84035 55.7616703,128.84035 56.3474567,129.426136 Z M131.358747,127.353175 C132.124114,127.036149 133.001566,127.399602 133.318591,128.164969 C133.635617,128.930336 133.272164,129.807788 132.506797,130.124813 C131.74143,130.441839 130.863978,130.078386 130.546953,129.313019 C130.229927,128.547652 130.59338,127.6702 131.358747,127.353175 Z M19.6814088,128.164969 C19.9984341,127.399602 20.8758863,127.036149 21.6412532,127.353175 C22.4066201,127.6702 22.7700727,128.547652 22.4530473,129.313019 C22.136022,130.078386 21.2585698,130.441839 20.4932029,130.124813 C19.727836,129.807788 19.3643834,128.930336 19.6814088,128.164969 Z M94.3483522,125.677652 C95.0310807,126.146878 95.2041584,127.080722 94.7349321,127.76345 C94.2657058,128.446179 93.331862,128.619256 92.6491335,128.15003 C91.966405,127.680804 91.7933273,126.74696 92.2625535,126.064231 C92.7317798,125.381503 93.6656237,125.208425 94.3483522,125.677652 Z M115.335501,126.040953 C115.792741,126.731766 115.603391,127.662447 114.912578,128.119687 C114.221764,128.576927 113.291083,128.387577 112.833844,127.696764 C112.376604,127.00595 112.565953,126.075269 113.256767,125.61803 C113.947581,125.16079 114.878262,125.350139 115.335501,126.040953 Z M40.091909,125.298786 C40.7787062,125.762036 40.9599265,126.694334 40.496676,127.381131 C40.0334254,128.067929 39.1011275,128.249149 38.4143303,127.785898 C37.727533,127.322648 37.5463127,126.39035 38.0095633,125.703553 C38.4728138,125.016755 39.4051118,124.835535 40.091909,125.298786 Z M61.4253905,125.660551 C61.8765843,126.355328 61.6791207,127.284322 60.9843432,127.735515 C60.2895658,128.186709 59.3605726,127.989245 58.9093788,127.294468 C58.4581851,126.599691 58.6556487,125.670697 59.3504261,125.219504 C60.0452036,124.76831 60.9741968,124.965773 61.4253905,125.660551 Z M88.5545281,122.597795 C89.319895,122.91482 89.6833476,123.792272 89.3663223,124.557639 C89.0492969,125.323006 88.1718447,125.686459 87.4064778,125.369433 C86.641111,125.052408 86.2776583,124.174956 86.5946837,123.409589 C86.911709,122.644222 87.7891613,122.280769 88.5545281,122.597795 Z M66.4053163,123.409589 C66.7223417,124.174956 66.358889,125.052408 65.5935222,125.369433 C64.8281553,125.686459 63.9507031,125.323006 63.6336777,124.557639 C63.3166524,123.792272 63.680105,122.91482 64.4454719,122.597795 C65.2108387,122.280769 66.088291,122.644222 66.4053163,123.409589 Z M5.82321576,122.424717 C6.1402411,121.659351 7.01769335,121.295898 7.78306021,121.612923 C8.54842707,121.929949 8.9118797,122.807401 8.59485436,123.572768 C8.27782902,124.338135 7.40037678,124.701587 6.63500991,124.384562 C5.86964305,124.067537 5.50619043,123.190084 5.82321576,122.424717 Z M145.21694,121.612923 C145.982307,121.295898 146.859759,121.659351 147.176784,122.424717 C147.49381,123.190084 147.130357,124.067537 146.36499,124.384562 C145.599623,124.701587 144.722171,124.338135 144.405146,123.572768 C144.08812,122.807401 144.451573,121.929949 145.21694,121.612923 Z M83.055774,120.825977 C83.866098,120.998217 84.3833675,121.794742 84.2111278,122.605066 C84.0388882,123.41539 83.2423629,123.93266 82.4320389,123.76042 C81.6217149,123.58818 81.1044454,122.791655 81.276685,121.981331 C81.4489247,121.171007 82.24545,120.653737 83.055774,120.825977 Z M72.5143723,121.866626 C72.6653412,122.681181 72.1273983,123.463893 71.3128432,123.614862 C70.4982882,123.76583 69.7155764,123.227888 69.5646076,122.413333 C69.4136387,121.598778 69.9515816,120.816066 70.7661367,120.665097 C71.5806917,120.514128 72.3634035,121.052071 72.5143723,121.866626 Z M76.5,120.2 C77.3284271,120.2 78,120.871573 78,121.7 C78,122.528427 77.3284271,123.2 76.5,123.2 C75.6715729,123.2 75,122.528427 75,121.7 C75,120.871573 75.6715729,120.2 76.5,120.2 Z M45.740855,118.819535 C46.3266415,119.405321 46.3266415,120.355069 45.740855,120.940855 C45.1550686,121.526641 44.2053211,121.526641 43.6195347,120.940855 C43.0337482,120.355069 43.0337482,119.405321 43.6195347,118.819535 C44.2053211,118.233748 45.1550686,118.233748 45.740855,118.819535 Z M109.380465,118.819535 C109.966252,119.405321 109.966252,120.355069 109.380465,120.940855 C108.794679,121.526641 107.844931,121.526641 107.259145,120.940855 C106.673359,120.355069 106.673359,119.405321 107.259145,118.819535 C107.844931,118.233748 108.794679,118.233748 109.380465,118.819535 Z M125.705244,117.332952 C126.396057,116.875713 127.326738,117.065062 127.783978,117.755875 C128.241218,118.446689 128.051868,119.37737 127.361055,119.83461 C126.670241,120.291849 125.73956,120.1025 125.282321,119.411686 C124.825081,118.720873 125.01443,117.790192 125.705244,117.332952 Z M25.5141893,117.309636 C25.9774399,116.622839 26.9097378,116.441619 27.596535,116.904869 C28.2833322,117.36812 28.4645526,118.300418 28.001302,118.987215 C27.5380514,119.674012 26.6057535,119.855233 25.9189563,119.391982 C25.2321591,118.928732 25.0509387,117.996434 25.5141893,117.309636 Z M102.56228,113.155775 C103.249078,113.619026 103.430298,114.551324 102.967047,115.238121 C102.503797,115.924918 101.571499,116.106139 100.884702,115.642888 C100.197904,115.179638 100.016684,114.24734 100.479935,113.560542 C100.943185,112.873745 101.875483,112.692525 102.56228,113.155775 Z M52.9734748,113.353255 C53.4307143,114.044069 53.2413652,114.97475 52.5505515,115.431989 C51.8597379,115.889229 50.9290569,115.69988 50.4718173,115.009066 C50.0145777,114.318252 50.2039269,113.387571 50.8947406,112.930332 C51.5855542,112.473092 52.5162352,112.662441 52.9734748,113.353255 Z M138.213531,109.053897 C138.904345,108.596658 139.835026,108.786007 140.292265,109.476821 C140.749505,110.167634 140.560156,111.098315 139.869342,111.555555 C139.178528,112.012794 138.247847,111.823445 137.790608,111.132632 C137.333368,110.441818 137.522718,109.511137 138.213531,109.053897 Z M94.2947796,108.739602 C95.0601465,109.056627 95.4235991,109.934079 95.1065738,110.699446 C94.7895484,111.464813 93.9120962,111.828266 93.1467293,111.51124 C92.3813624,111.194215 92.0179098,110.316763 92.3349352,109.551396 C92.6519605,108.786029 93.5294127,108.422576 94.2947796,108.739602 Z M60.6650648,109.551396 C60.9820902,110.316763 60.6186376,111.194215 59.8532707,111.51124 C59.0879038,111.828266 58.2104516,111.464813 57.8934262,110.699446 C57.5764009,109.934079 57.9398535,109.056627 58.7052204,108.739602 C59.4705873,108.422576 60.3480395,108.786029 60.6650648,109.551396 Z M13.0786257,108.921743 C13.5418763,108.234946 14.4741742,108.053725 15.1609714,108.516976 C15.8477686,108.980226 16.028989,109.912524 15.5657384,110.599322 C15.1024878,111.286119 14.1701899,111.467339 13.4833927,111.004089 C12.7965955,110.540838 12.6153751,109.60854 13.0786257,108.921743 Z M33.012933,108.212933 C33.5987194,107.627147 34.5484669,107.627147 35.1342533,108.212933 C35.7200397,108.798719 35.7200397,109.748467 35.1342533,110.334253 C34.5484669,110.92004 33.5987194,110.92004 33.012933,110.334253 C32.4271465,109.748467 32.4271465,108.798719 33.012933,108.212933 Z M117.865747,108.212933 C118.451533,107.627147 119.401281,107.627147 119.987067,108.212933 C120.572853,108.798719 120.572853,109.748467 119.987067,110.334253 C119.401281,110.92004 118.451533,110.92004 117.865747,110.334253 C117.27996,109.748467 117.27996,108.798719 117.865747,108.212933 Z M84.0614804,107.310359 C84.2266422,106.498563 85.0186231,105.974362 85.8304193,106.139524 C86.6422155,106.304686 87.1664163,107.096667 87.0012545,107.908463 C86.8360927,108.720259 86.0441117,109.24446 85.2323155,109.079298 C84.4205193,108.914136 83.8963186,108.122155 84.0614804,107.310359 Z M69.4458464,107.246586 C69.6039177,108.059792 69.0728257,108.847169 68.2596191,109.00524 C67.4464125,109.163311 66.6590362,108.632219 66.5009648,107.819013 C66.3428935,107.005806 66.8739855,106.21843 67.6871921,106.060359 C68.5003987,105.902287 69.287775,106.433379 69.4458464,107.246586 Z M76.5,105.2 C77.3284271,105.2 78,105.871573 78,106.7 C78,107.528427 77.3284271,108.2 76.5,108.2 C75.6715729,108.2 75,107.528427 75,106.7 C75,105.871573 75.6715729,105.2 76.5,105.2 Z M108.808018,101.118956 C109.271268,100.432159 110.203566,100.250939 110.890364,100.714189 C111.577161,101.17744 111.758381,102.109738 111.295131,102.796535 C110.83188,103.483332 109.899582,103.664553 109.212785,103.201302 C108.525988,102.738051 108.344767,101.805754 108.808018,101.118956 Z M42.5558754,100.416022 C43.246689,99.9587824 44.17737,100.148132 44.6346096,100.838945 C45.0918492,101.529759 44.9025,102.46044 44.2116864,102.917679 C43.5208727,103.374919 42.5901917,103.18557 42.1329521,102.494756 C41.6757126,101.803943 41.8650618,100.873262 42.5558754,100.416022 Z M128.472348,97.6063312 C129.058135,97.0205448 130.007882,97.0205448 130.593669,97.6063312 C131.179455,98.1921177 131.179455,99.1418651 130.593669,99.7276516 C130.007882,100.313438 129.058135,100.313438 128.472348,99.7276516 C127.886562,99.1418651 127.886562,98.1921177 128.472348,97.6063312 Z M22.4063312,97.6063312 C22.9921177,97.0205448 23.9418651,97.0205448 24.5276516,97.6063312 C25.113438,98.1921177 25.113438,99.1418651 24.5276516,99.7276516 C23.9418651,100.313438 22.9921177,100.313438 22.4063312,99.7276516 C21.8205448,99.1418651 21.8205448,98.1921177 22.4063312,97.6063312 Z M52.9649689,94.8814088 C53.7303358,94.5643834 54.607788,94.927836 54.9248134,95.6932029 C55.2418387,96.4585698 54.8783861,97.336022 54.1130192,97.6530473 C53.3476523,97.9700727 52.4702001,97.6066201 52.1531748,96.8412532 C51.8361494,96.0758863 52.199602,95.1984341 52.9649689,94.8814088 Z M98.0751866,95.6932029 C98.392212,94.927836 99.2696642,94.5643834 100.035031,94.8814088 C100.800398,95.1984341 101.163851,96.0758863 100.846825,96.8412532 C100.5298,97.6066201 99.6523477,97.9700727 98.8869808,97.6530473 C98.1216139,97.336022 97.7581613,96.4585698 98.0751866,95.6932029 Z M86.992189,92.6054658 C87.1573508,91.7936696 87.9493318,91.2694689 88.761128,91.4346307 C89.5729242,91.5997925 90.0971249,92.3917734 89.9319631,93.2035696 C89.7668013,94.0153658 88.9748204,94.5395666 88.1630242,94.3744048 C87.351228,94.209243 86.8270272,93.417262 86.992189,92.6054658 Z M64.7652468,91.3299282 C65.5784534,91.1718569 66.3658297,91.7029489 66.5239011,92.5161555 C66.6819724,93.3293621 66.1508804,94.1167384 65.3376738,94.2748098 C64.5244672,94.4328811 63.7370908,93.9017891 63.5790195,93.0885825 C63.4209482,92.2753759 63.9520402,91.4879996 64.7652468,91.3299282 Z M76.5,90.2 C77.3284271,90.2 78,90.8715729 78,91.7 C78,92.5284271 77.3284271,93.2 76.5,93.2 C75.6715729,93.2 75,92.5284271 75,91.7 C75,90.8715729 75.6715729,90.2 76.5,90.2 Z M117.195911,88.6833927 C117.659162,87.9965955 118.59146,87.8153751 119.278257,88.2786257 C119.965054,88.7418763 120.146275,89.6741742 119.683024,90.3609714 C119.219774,91.0477686 118.287476,91.228989 117.600678,90.7657384 C116.913881,90.3024878 116.732661,89.3701899 117.195911,88.6833927 Z M34.2768206,87.9077346 C34.9676343,87.450495 35.8983153,87.6398442 36.3555548,88.3306579 C36.8127944,89.0214715 36.6234452,89.9521525 35.9326316,90.4093921 C35.2418179,90.8666316 34.3111369,90.6772825 33.8538974,89.9864688 C33.3966578,89.2956552 33.586007,88.3649742 34.2768206,87.9077346 Z M103.815438,81.8350099 C104.132463,81.069643 105.009916,80.7061904 105.775283,81.0232158 C106.540649,81.3402411 106.904102,82.2176933 106.587077,82.9830602 C106.270051,83.7484271 105.392599,84.1118797 104.627232,83.7948544 C103.861865,83.477829 103.498413,82.6003768 103.815438,81.8350099 Z M47.2247174,81.0232158 C47.9900843,80.7061904 48.8675365,81.069643 49.1845619,81.8350099 C49.5015872,82.6003768 49.1381346,83.477829 48.3727677,83.7948544 C47.6074009,84.1118797 46.7299486,83.7484271 46.4129233,82.9830602 C46.0958979,82.2176933 46.4593506,81.3402411 47.2247174,81.0232158 Z M89.982708,77.9065953 C90.1478698,77.094799 90.9398508,76.5705983 91.751647,76.7357601 C92.5634432,76.9009219 93.0876439,77.6929028 92.9224821,78.5046991 C92.7573203,79.3164953 91.9653394,79.840696 91.1535432,79.6755342 C90.341747,79.5103724 89.8175462,78.7183915 89.982708,77.9065953 Z M61.9031119,76.6055205 C62.7163184,76.4474491 63.5036948,76.9785412 63.6617661,77.7917477 C63.8198375,78.6049543 63.2887454,79.3923307 62.4755388,79.550402 C61.6623323,79.7084734 60.8749559,79.1773813 60.7168846,78.3641747 C60.5588132,77.5509681 61.0899053,76.7635918 61.9031119,76.6055205 Z M76.5,75.2 C77.3284271,75.2 78,75.8715729 78,76.7 C78,77.5284271 77.3284271,78.2 76.5,78.2 C75.6715729,78.2 75,77.5284271 75,76.7 C75,75.8715729 75.6715729,75.2 76.5,75.2 Z" id="Shape" fill="#6899E4" opacity="0.3"></path>
            <path d="M209.385375,0.28423956 L209.342337,0.292243116 C201.049744,1.91246299 195.597414,9.85645536 197.027669,18.1415383 L197.088302,18.4703197 C198.689494,26.750236 206.624178,32.1999666 214.900194,30.7732531 L215.257663,30.7077569 C223.550256,29.087537 229.002586,21.1435446 227.572331,12.8584617 L227.511698,12.5296803 C225.889237,4.1449549 217.772928,-1.33748098 209.385375,0.28423956 Z" id="Path" fill="#D99938" fill-rule="nonzero" style="mix-blend-mode: multiply;" opacity="0.3"></path>
        </g>
    </g>
</svg>