<svg width="140px" height="140px" viewBox="0 0 140 140" version="1.1" xmlns="http://www.w3.org/2000/svg" xmlns:xlink="http://www.w3.org/1999/xlink" xml:space="preserve" xmlns:serif="http://www.serif.com/" style="fill-rule:evenodd;clip-rule:evenodd;stroke-linejoin:round;stroke-miterlimit:2;">
    <g id="icons-avatar-confetti-pattern" serif:id="icons/avatar-confetti-pattern">
        <g id="Path" transform="matrix(6.12323e-17,1,-1,6.12323e-17,140.896,-0.104477)">
            <path d="M115.697,34C111.319,37.819 110.748,44.605 114.421,49.157C118.095,53.708 124.622,54.302 129,50.483" style="fill:rgb(251,114,104);fill-opacity:0.2;fill-rule:nonzero;"/>
        </g>
        <g id="Path-Copy" transform="matrix(6.12323e-17,1,-1,6.12323e-17,140.896,-0.104477)">
            <path d="M32.299,77.458L32.23,77.471C18.821,80.091 10.016,92.962 12.385,106.362L12.465,106.791C15.054,120.179 27.91,128.98 41.295,126.617L41.77,126.529C55.179,123.909 63.984,111.038 61.615,97.638L61.535,97.209C58.918,83.685 45.827,74.843 32.299,77.458Z" style="fill:rgb(30,137,133);fill-opacity:0.1;fill-rule:nonzero;"/>
        </g>
        <g id="Oval" transform="matrix(6.12323e-17,1,-1,6.12323e-17,140.896,-0.104477)">
            <circle cx="99.5" cy="25.5" r="5.5" style="fill:rgb(82,56,97);fill-opacity:0.12;"/>
        </g>
        <g id="Shape" transform="matrix(6.12323e-17,1,-1,6.12323e-17,140.896,-0.104477)">
            <path d="M18.776,14.575C18.776,15.007 18.425,15.358 17.993,15.358C17.56,15.358 17.209,15.007 17.209,14.575C17.209,14.142 17.56,13.791 17.993,13.791C18.425,13.791 18.776,14.142 18.776,14.575ZM18.776,70.993C18.776,71.425 18.425,71.776 17.993,71.776C17.56,71.776 17.209,71.425 17.209,70.993C17.209,70.56 17.56,70.209 17.993,70.209C18.425,70.209 18.776,70.56 18.776,70.993ZM18.776,23.978C18.776,24.41 18.425,24.761 17.993,24.761C17.56,24.761 17.209,24.41 17.209,23.978C17.209,23.545 17.56,23.194 17.993,23.194C18.425,23.194 18.776,23.545 18.776,23.978ZM18.776,80.396C18.776,80.828 18.425,81.179 17.993,81.179C17.56,81.179 17.209,80.828 17.209,80.396C17.209,79.963 17.56,79.612 17.993,79.612C18.425,79.612 18.776,79.963 18.776,80.396ZM18.776,99.201C18.776,99.634 18.425,99.985 17.993,99.985C17.56,99.985 17.209,99.634 17.209,99.201C17.209,98.769 17.56,98.418 17.993,98.418C18.425,98.418 18.776,98.769 18.776,99.201ZM18.776,42.784C18.776,43.216 18.425,43.567 17.993,43.567C17.56,43.567 17.209,43.216 17.209,42.784C17.209,42.351 17.56,42 17.993,42C18.425,42 18.776,42.351 18.776,42.784ZM18.776,52.187C18.776,52.619 18.425,52.97 17.993,52.97C17.56,52.97 17.209,52.619 17.209,52.187C17.209,51.754 17.56,51.403 17.993,51.403C18.425,51.403 18.776,51.754 18.776,52.187ZM18.776,61.59C18.776,62.022 18.425,62.373 17.993,62.373C17.56,62.373 17.209,62.022 17.209,61.59C17.209,61.157 17.56,60.806 17.993,60.806C18.425,60.806 18.776,61.157 18.776,61.59ZM18.776,89.799C18.776,90.231 18.425,90.582 17.993,90.582C17.56,90.582 17.209,90.231 17.209,89.799C17.209,89.366 17.56,89.015 17.993,89.015C18.425,89.015 18.776,89.366 18.776,89.799ZM18.776,33.381C18.776,33.813 18.425,34.164 17.993,34.164C17.56,34.164 17.209,33.813 17.209,33.381C17.209,32.948 17.56,32.597 17.993,32.597C18.425,32.597 18.776,32.948 18.776,33.381ZM18.776,118.007C18.776,118.44 18.425,118.791 17.993,118.791C17.56,118.791 17.209,118.44 17.209,118.007C17.209,117.575 17.56,117.224 17.993,117.224C18.425,117.224 18.776,117.575 18.776,118.007ZM18.776,108.604C18.776,109.037 18.425,109.388 17.993,109.388C17.56,109.388 17.209,109.037 17.209,108.604C17.209,108.172 17.56,107.821 17.993,107.821C18.425,107.821 18.776,108.172 18.776,108.604ZM28.179,80.396C28.179,80.828 27.828,81.179 27.396,81.179C26.963,81.179 26.612,80.828 26.612,80.396C26.612,79.963 26.963,79.612 27.396,79.612C27.828,79.612 28.179,79.963 28.179,80.396ZM28.179,70.993C28.179,71.425 27.828,71.776 27.396,71.776C26.963,71.776 26.612,71.425 26.612,70.993C26.612,70.56 26.963,70.209 27.396,70.209C27.828,70.209 28.179,70.56 28.179,70.993ZM28.179,52.187C28.179,52.619 27.828,52.97 27.396,52.97C26.963,52.97 26.612,52.619 26.612,52.187C26.612,51.754 26.963,51.403 27.396,51.403C27.828,51.403 28.179,51.754 28.179,52.187ZM28.179,23.978C28.179,24.41 27.828,24.761 27.396,24.761C26.963,24.761 26.612,24.41 26.612,23.978C26.612,23.545 26.963,23.194 27.396,23.194C27.828,23.194 28.179,23.545 28.179,23.978ZM28.179,14.575C28.179,15.007 27.828,15.358 27.396,15.358C26.963,15.358 26.612,15.007 26.612,14.575C26.612,14.142 26.963,13.791 27.396,13.791C27.828,13.791 28.179,14.142 28.179,14.575ZM28.179,99.201C28.179,99.634 27.828,99.985 27.396,99.985C26.963,99.985 26.612,99.634 26.612,99.201C26.612,98.769 26.963,98.418 27.396,98.418C27.828,98.418 28.179,98.769 28.179,99.201ZM28.179,33.381C28.179,33.813 27.828,34.164 27.396,34.164C26.963,34.164 26.612,33.813 26.612,33.381C26.612,32.948 26.963,32.597 27.396,32.597C27.828,32.597 28.179,32.948 28.179,33.381ZM28.179,42.784C28.179,43.216 27.828,43.567 27.396,43.567C26.963,43.567 26.612,43.216 26.612,42.784C26.612,42.351 26.963,42 27.396,42C27.828,42 28.179,42.351 28.179,42.784ZM28.179,108.604C28.179,109.037 27.828,109.388 27.396,109.388C26.963,109.388 26.612,109.037 26.612,108.604C26.612,108.172 26.963,107.821 27.396,107.821C27.828,107.821 28.179,108.172 28.179,108.604ZM28.179,89.799C28.179,90.231 27.828,90.582 27.396,90.582C26.963,90.582 26.612,90.231 26.612,89.799C26.612,89.366 26.963,89.015 27.396,89.015C27.828,89.015 28.179,89.366 28.179,89.799ZM28.179,118.007C28.179,118.44 27.828,118.791 27.396,118.791C26.963,118.791 26.612,118.44 26.612,118.007C26.612,117.575 26.963,117.224 27.396,117.224C27.828,117.224 28.179,117.575 28.179,118.007ZM28.179,61.59C28.179,62.022 27.828,62.373 27.396,62.373C26.963,62.373 26.612,62.022 26.612,61.59C26.612,61.157 26.963,60.806 27.396,60.806C27.828,60.806 28.179,61.157 28.179,61.59ZM37.582,33.381C37.582,33.813 37.231,34.164 36.799,34.164C36.366,34.164 36.015,33.813 36.015,33.381C36.015,32.948 36.366,32.597 36.799,32.597C37.231,32.597 37.582,32.948 37.582,33.381ZM37.582,80.396C37.582,80.828 37.231,81.179 36.799,81.179C36.366,81.179 36.015,80.828 36.015,80.396C36.015,79.963 36.366,79.612 36.799,79.612C37.231,79.612 37.582,79.963 37.582,80.396ZM37.582,108.604C37.582,109.037 37.231,109.388 36.799,109.388C36.366,109.388 36.015,109.037 36.015,108.604C36.015,108.172 36.366,107.821 36.799,107.821C37.231,107.821 37.582,108.172 37.582,108.604ZM37.582,89.799C37.582,90.231 37.231,90.582 36.799,90.582C36.366,90.582 36.015,90.231 36.015,89.799C36.015,89.366 36.366,89.015 36.799,89.015C37.231,89.015 37.582,89.366 37.582,89.799ZM37.582,118.007C37.582,118.44 37.231,118.791 36.799,118.791C36.366,118.791 36.015,118.44 36.015,118.007C36.015,117.575 36.366,117.224 36.799,117.224C37.231,117.224 37.582,117.575 37.582,118.007ZM37.582,42.784C37.582,43.216 37.231,43.567 36.799,43.567C36.366,43.567 36.015,43.216 36.015,42.784C36.015,42.351 36.366,42 36.799,42C37.231,42 37.582,42.351 37.582,42.784ZM37.582,99.201C37.582,99.634 37.231,99.985 36.799,99.985C36.366,99.985 36.015,99.634 36.015,99.201C36.015,98.769 36.366,98.418 36.799,98.418C37.231,98.418 37.582,98.769 37.582,99.201ZM37.582,14.575C37.582,15.007 37.231,15.358 36.799,15.358C36.366,15.358 36.015,15.007 36.015,14.575C36.015,14.142 36.366,13.791 36.799,13.791C37.231,13.791 37.582,14.142 37.582,14.575ZM37.582,70.993C37.582,71.425 37.231,71.776 36.799,71.776C36.366,71.776 36.015,71.425 36.015,70.993C36.015,70.56 36.366,70.209 36.799,70.209C37.231,70.209 37.582,70.56 37.582,70.993ZM37.582,23.978C37.582,24.41 37.231,24.761 36.799,24.761C36.366,24.761 36.015,24.41 36.015,23.978C36.015,23.545 36.366,23.194 36.799,23.194C37.231,23.194 37.582,23.545 37.582,23.978ZM37.582,52.187C37.582,52.619 37.231,52.97 36.799,52.97C36.366,52.97 36.015,52.619 36.015,52.187C36.015,51.754 36.366,51.403 36.799,51.403C37.231,51.403 37.582,51.754 37.582,52.187ZM37.582,61.59C37.582,62.022 37.231,62.373 36.799,62.373C36.366,62.373 36.015,62.022 36.015,61.59C36.015,61.157 36.366,60.806 36.799,60.806C37.231,60.806 37.582,61.157 37.582,61.59ZM46.985,118.007C46.985,118.44 46.634,118.791 46.201,118.791C45.769,118.791 45.418,118.44 45.418,118.007C45.418,117.575 45.769,117.224 46.201,117.224C46.634,117.224 46.985,117.575 46.985,118.007ZM46.985,33.381C46.985,33.813 46.634,34.164 46.201,34.164C45.769,34.164 45.418,33.813 45.418,33.381C45.418,32.948 45.769,32.597 46.201,32.597C46.634,32.597 46.985,32.948 46.985,33.381ZM46.985,89.799C46.985,90.231 46.634,90.582 46.201,90.582C45.769,90.582 45.418,90.231 45.418,89.799C45.418,89.366 45.769,89.015 46.201,89.015C46.634,89.015 46.985,89.366 46.985,89.799ZM46.985,14.575C46.985,15.007 46.634,15.358 46.201,15.358C45.769,15.358 45.418,15.007 45.418,14.575C45.418,14.142 45.769,13.791 46.201,13.791C46.634,13.791 46.985,14.142 46.985,14.575ZM46.985,61.59C46.985,62.022 46.634,62.373 46.201,62.373C45.769,62.373 45.418,62.022 45.418,61.59C45.418,61.157 45.769,60.806 46.201,60.806C46.634,60.806 46.985,61.157 46.985,61.59ZM46.985,70.993C46.985,71.425 46.634,71.776 46.201,71.776C45.769,71.776 45.418,71.425 45.418,70.993C45.418,70.56 45.769,70.209 46.201,70.209C46.634,70.209 46.985,70.56 46.985,70.993ZM46.985,42.784C46.985,43.216 46.634,43.567 46.201,43.567C45.769,43.567 45.418,43.216 45.418,42.784C45.418,42.351 45.769,42 46.201,42C46.634,42 46.985,42.351 46.985,42.784ZM46.985,99.201C46.985,99.634 46.634,99.985 46.201,99.985C45.769,99.985 45.418,99.634 45.418,99.201C45.418,98.769 45.769,98.418 46.201,98.418C46.634,98.418 46.985,98.769 46.985,99.201ZM46.985,108.604C46.985,109.037 46.634,109.388 46.201,109.388C45.769,109.388 45.418,109.037 45.418,108.604C45.418,108.172 45.769,107.821 46.201,107.821C46.634,107.821 46.985,108.172 46.985,108.604ZM46.985,23.978C46.985,24.41 46.634,24.761 46.201,24.761C45.769,24.761 45.418,24.41 45.418,23.978C45.418,23.545 45.769,23.194 46.201,23.194C46.634,23.194 46.985,23.545 46.985,23.978ZM46.985,52.187C46.985,52.619 46.634,52.97 46.201,52.97C45.769,52.97 45.418,52.619 45.418,52.187C45.418,51.754 45.769,51.403 46.201,51.403C46.634,51.403 46.985,51.754 46.985,52.187ZM46.985,80.396C46.985,80.828 46.634,81.179 46.201,81.179C45.769,81.179 45.418,80.828 45.418,80.396C45.418,79.963 45.769,79.612 46.201,79.612C46.634,79.612 46.985,79.963 46.985,80.396ZM56.388,70.993C56.388,71.425 56.037,71.776 55.604,71.776C55.172,71.776 54.821,71.425 54.821,70.993C54.821,70.56 55.172,70.209 55.604,70.209C56.037,70.209 56.388,70.56 56.388,70.993ZM56.388,118.007C56.388,118.44 56.037,118.791 55.604,118.791C55.172,118.791 54.821,118.44 54.821,118.007C54.821,117.575 55.172,117.224 55.604,117.224C56.037,117.224 56.388,117.575 56.388,118.007ZM56.388,108.604C56.388,109.037 56.037,109.388 55.604,109.388C55.172,109.388 54.821,109.037 54.821,108.604C54.821,108.172 55.172,107.821 55.604,107.821C56.037,107.821 56.388,108.172 56.388,108.604ZM56.388,61.59C56.388,62.022 56.037,62.373 55.604,62.373C55.172,62.373 54.821,62.022 54.821,61.59C54.821,61.157 55.172,60.806 55.604,60.806C56.037,60.806 56.388,61.157 56.388,61.59ZM56.388,33.381C56.388,33.813 56.037,34.164 55.604,34.164C55.172,34.164 54.821,33.813 54.821,33.381C54.821,32.948 55.172,32.597 55.604,32.597C56.037,32.597 56.388,32.948 56.388,33.381ZM56.388,52.187C56.388,52.619 56.037,52.97 55.604,52.97C55.172,52.97 54.821,52.619 54.821,52.187C54.821,51.754 55.172,51.403 55.604,51.403C56.037,51.403 56.388,51.754 56.388,52.187ZM56.388,89.799C56.388,90.231 56.037,90.582 55.604,90.582C55.172,90.582 54.821,90.231 54.821,89.799C54.821,89.366 55.172,89.015 55.604,89.015C56.037,89.015 56.388,89.366 56.388,89.799ZM56.388,80.396C56.388,80.828 56.037,81.179 55.604,81.179C55.172,81.179 54.821,80.828 54.821,80.396C54.821,79.963 55.172,79.612 55.604,79.612C56.037,79.612 56.388,79.963 56.388,80.396ZM56.388,23.978C56.388,24.41 56.037,24.761 55.604,24.761C55.172,24.761 54.821,24.41 54.821,23.978C54.821,23.545 55.172,23.194 55.604,23.194C56.037,23.194 56.388,23.545 56.388,23.978ZM56.388,42.784C56.388,43.216 56.037,43.567 55.604,43.567C55.172,43.567 54.821,43.216 54.821,42.784C54.821,42.351 55.172,42 55.604,42C56.037,42 56.388,42.351 56.388,42.784ZM56.388,14.575C56.388,15.007 56.037,15.358 55.604,15.358C55.172,15.358 54.821,15.007 54.821,14.575C54.821,14.142 55.172,13.791 55.604,13.791C56.037,13.791 56.388,14.142 56.388,14.575ZM56.388,99.201C56.388,99.634 56.037,99.985 55.604,99.985C55.172,99.985 54.821,99.634 54.821,99.201C54.821,98.769 55.172,98.418 55.604,98.418C56.037,98.418 56.388,98.769 56.388,99.201ZM65.791,52.187C65.791,52.619 65.44,52.97 65.007,52.97C64.575,52.97 64.224,52.619 64.224,52.187C64.224,51.754 64.575,51.403 65.007,51.403C65.44,51.403 65.791,51.754 65.791,52.187ZM65.791,61.59C65.791,62.022 65.44,62.373 65.007,62.373C64.575,62.373 64.224,62.022 64.224,61.59C64.224,61.157 64.575,60.806 65.007,60.806C65.44,60.806 65.791,61.157 65.791,61.59ZM65.791,99.201C65.791,99.634 65.44,99.985 65.007,99.985C64.575,99.985 64.224,99.634 64.224,99.201C64.224,98.769 64.575,98.418 65.007,98.418C65.44,98.418 65.791,98.769 65.791,99.201ZM65.791,108.604C65.791,109.037 65.44,109.388 65.007,109.388C64.575,109.388 64.224,109.037 64.224,108.604C64.224,108.172 64.575,107.821 65.007,107.821C65.44,107.821 65.791,108.172 65.791,108.604ZM65.791,33.381C65.791,33.813 65.44,34.164 65.007,34.164C64.575,34.164 64.224,33.813 64.224,33.381C64.224,32.948 64.575,32.597 65.007,32.597C65.44,32.597 65.791,32.948 65.791,33.381ZM65.791,118.007C65.791,118.44 65.44,118.791 65.007,118.791C64.575,118.791 64.224,118.44 64.224,118.007C64.224,117.575 64.575,117.224 65.007,117.224C65.44,117.224 65.791,117.575 65.791,118.007ZM65.791,80.396C65.791,80.828 65.44,81.179 65.007,81.179C64.575,81.179 64.224,80.828 64.224,80.396C64.224,79.963 64.575,79.612 65.007,79.612C65.44,79.612 65.791,79.963 65.791,80.396ZM65.791,89.799C65.791,90.231 65.44,90.582 65.007,90.582C64.575,90.582 64.224,90.231 64.224,89.799C64.224,89.366 64.575,89.015 65.007,89.015C65.44,89.015 65.791,89.366 65.791,89.799ZM65.791,23.978C65.791,24.41 65.44,24.761 65.007,24.761C64.575,24.761 64.224,24.41 64.224,23.978C64.224,23.545 64.575,23.194 65.007,23.194C65.44,23.194 65.791,23.545 65.791,23.978ZM65.791,42.784C65.791,43.216 65.44,43.567 65.007,43.567C64.575,43.567 64.224,43.216 64.224,42.784C64.224,42.351 64.575,42 65.007,42C65.44,42 65.791,42.351 65.791,42.784ZM65.791,70.993C65.791,71.425 65.44,71.776 65.007,71.776C64.575,71.776 64.224,71.425 64.224,70.993C64.224,70.56 64.575,70.209 65.007,70.209C65.44,70.209 65.791,70.56 65.791,70.993ZM65.791,14.575C65.791,15.007 65.44,15.358 65.007,15.358C64.575,15.358 64.224,15.007 64.224,14.575C64.224,14.142 64.575,13.791 65.007,13.791C65.44,13.791 65.791,14.142 65.791,14.575Z" style="fill:rgb(154,159,194);fill-opacity:0.5;"/>
        </g>
    </g>
</svg>
