<?xml version="1.0" encoding="UTF-8"?>
<svg width="600px" height="130px" viewBox="0 0 600 130" version="1.1" xmlns="http://www.w3.org/2000/svg" xmlns:xlink="http://www.w3.org/1999/xlink">
    <title>Images/Patterns/confetti-sprinkles-02</title>
    <g id="Images/Patterns/confetti-sprinkles-02" stroke="none" stroke-width="1" fill="none" fill-rule="evenodd">
        <path d="M38.859344,107.59336 C39.5036226,104.72303 42.3732023,102.86757 45.2687642,103.448967 C48.1646102,104.030448 49.989779,106.828669 49.3456874,109.6989" id="Path-Copy-18" fill="#D99938"></path>
        <path d="M81.9983793,124.004057 L82.0008378,124.017327 C82.4908321,126.534532 84.8637023,128.202918 87.3656899,127.833117 L87.5847236,127.795475 C90.0887736,127.309435 91.7501479,124.930616 91.3827297,122.422085 L91.3437821,122.193521 C90.8537878,119.676316 88.4809175,118.00793 85.97893,118.377731 L85.7598962,118.415374 C83.184302,118.915609 81.5002242,121.418018 81.9983793,124.004057 Z" id="Path-Copy-10" fill-opacity="0.06" fill="#0053C4" fill-rule="nonzero"></path>
        <path d="M103.657446,93.4759993 C106.103317,91.368867 106.415539,87.6172447 104.354898,85.0964277 C102.29403,82.575377 98.6406664,82.2399013 96.1947949,84.3468002" id="Path-Copy-24" fill-opacity="0.06" fill="#0053C4" fill-rule="nonzero"></path>
        <path d="M80.8715071,83.8609655 L80.8690486,83.8742352 C80.3790544,86.3914402 78.0061841,88.0598261 75.5041966,87.6900252 L75.2851628,87.6523829 C72.7811129,87.1663433 71.1197385,84.7875246 71.4871567,82.2789927 L71.5261044,82.0504295 C72.0160986,79.5332245 74.3889689,77.8648386 76.8909564,78.2346395 L77.1099902,78.2722818 C79.6855844,78.7725168 81.3696623,81.2749263 80.8715071,83.8609655 Z" id="Path-Copy-4" fill-opacity="0.06" fill="#0053C4" fill-rule="nonzero"></path>
        <path d="M96.6709191,49.9465778 C98.5851411,47.7313267 101.986041,47.4424077 104.267122,49.3011816 C106.548414,51.1601609 106.845919,54.4629139 104.931909,56.6781651" id="Path-Copy-6" fill-opacity="0.06" fill="#0053C4" fill-rule="nonzero"></path>
        <path d="M306.5544,32.2484189 L306.551942,32.2616885 C306.061947,34.7788935 303.689077,36.4472794 301.187089,36.0774785 L300.968056,36.0398363 C298.464006,35.5537967 296.802631,33.1749779 297.17005,30.666446 L297.208997,30.4378828 C297.698992,27.9206778 300.071862,26.2522919 302.573849,26.6220928 L302.792883,26.6597351 C305.368477,27.1599701 307.052555,29.6623797 306.5544,32.2484189 Z" id="Path-Copy-9" fill-opacity="0.06" fill="#0053C4" fill-rule="nonzero"></path>
        <path d="M349.541573,115.937969 C351.647217,118.399359 355.388207,118.72038 357.897396,116.655075 C360.406818,114.589543 360.734073,110.919817 358.628661,108.458427" id="Path-Copy-16" fill-opacity="0.06" fill="#0053C4" fill-rule="nonzero"></path>
        <path d="M159.130507,25.672213 L159.132966,25.6589433 C159.62296,23.1417383 161.99583,21.4733524 164.497818,21.8431533 L164.716852,21.8807956 C167.220902,22.3668352 168.882276,24.7456539 168.514858,27.2541858 L168.47591,27.482749 C167.985916,29.999954 165.613045,31.6683399 163.111058,31.298539 L162.892024,31.2608967 C160.31643,30.7606617 158.632352,28.2582522 159.130507,25.672213 Z" id="Path-Copy-10" fill-opacity="0.06" fill="#0053C4" fill-rule="nonzero"></path>
        <path d="M145.235592,66.1949722 C147.149814,63.979721 150.550714,63.690802 152.831795,65.5495759 C155.113088,67.4085552 155.410592,70.7113082 153.496582,72.9265594" id="Path-Copy-8" fill-opacity="0.06" fill="#0053C4" fill-rule="nonzero"></path>
        <path d="M284.263872,51.8581536 C286.178094,49.6429025 289.578994,49.3539835 291.860075,51.2127574 C294.141368,53.0717367 294.438872,56.3744897 292.524862,58.5897409" id="Path-Copy-11" fill-opacity="0.06" fill="#0053C4" fill-rule="nonzero"></path>
        <path d="M216.074699,57.2535943 C216.728711,54.3956306 219.59639,52.53797 222.479875,53.1042868 C225.363643,53.6706854 227.171131,56.4466541 226.517306,59.3045181" id="Path-Copy-28" fill-opacity="0.06" fill="#0053C4" fill-rule="nonzero"></path>
        <path d="M268.46446,71.4357228 L268.462002,71.4489925 C267.972008,73.9661975 265.599137,75.6345834 263.09715,75.2647824 L262.878116,75.2271402 C260.374066,74.7411006 258.712692,72.3622819 259.08011,69.85375 L259.119058,69.6251868 C259.609052,67.1079817 261.981922,65.4395958 264.48391,65.8093968 L264.702943,65.847039 C267.278538,66.3472741 268.962615,68.8496836 268.46446,71.4357228 Z" id="Path-Copy-12" fill-opacity="0.06" fill="#0053C4" fill-rule="nonzero"></path>
        <path d="M278.435173,112.677573 L278.432715,112.690842 C277.94272,115.208047 275.56985,116.876433 273.067863,116.506632 L272.848829,116.46899 C270.344779,115.982951 268.683404,113.604132 269.050823,111.0956 L269.08977,110.867037 C269.579765,108.349832 271.952635,106.681446 274.454622,107.051247 L274.673656,107.088889 C277.24925,107.589124 278.933328,110.091533 278.435173,112.677573 Z" id="Path-Copy-14" fill-opacity="0.06" fill="#0053C4" fill-rule="nonzero"></path>
        <path d="M300.452097,73.8412754 C302.366319,71.6260242 305.767218,71.3371052 308.048299,73.1958791 C310.329592,75.0548584 310.627097,78.3576114 308.713086,80.5728626" id="Path-Copy-33" fill-opacity="0.06" fill="#0053C4" fill-rule="nonzero"></path>
        <path d="M51.9152399,28.3156601 C54.0208841,30.7770503 57.7618739,31.0980714 60.271063,29.032767 C62.7804847,26.9672345 63.1077399,23.2975089 61.0023284,20.8361188" id="Path-Copy-21" fill-opacity="0.06" fill="#0053C4" fill-rule="nonzero"></path>
        <path d="M89.0522539,25.1584783 C91.3032252,22.8604022 95.0275498,22.8064909 97.370859,25.0379846 C99.714383,27.2697217 99.789346,30.9417858 97.5386049,33.2398784" id="Path-Copy-3" fill="#FB7268"></path>
        <path d="M40.8384417,12.2140224 L40.840903,12.227258 C41.3314555,14.7379986 43.707029,16.4020999 46.2118669,16.0332486 L46.4311502,15.9957031 C48.9380529,15.5109117 50.6013199,13.138202 50.2334831,10.6361123 L50.1944911,10.4081361 C49.7039386,7.89739548 47.3283651,6.23329419 44.8235272,6.60214545 L44.6042439,6.63969102 C42.0257154,7.13864139 40.339719,9.63462447 40.8384417,12.2140224 Z" id="Path-Copy-22" fill="#1E8985" fill-rule="nonzero"></path>
        <path d="M25.2522821,51.8581536 C27.1665041,49.6429025 30.5674039,49.3539835 32.8484849,51.2127574 C35.1297774,53.0717367 35.4272821,56.3744897 33.5132716,58.5897409" id="Path-Copy-26" fill-opacity="0.06" fill="#0053C4" fill-rule="nonzero"></path>
        <path d="M13.4528701,71.4357228 L13.4504116,71.4489925 C12.9604174,73.9661975 10.5875471,75.6345834 8.08555957,75.2647824 L7.8665258,75.2271402 C5.36247586,74.7411006 3.70110151,72.3622819 4.06851975,69.85375 L4.10746738,69.6251868 C4.59746165,67.1079817 6.97033189,65.4395958 9.47231945,65.8093968 L9.69135321,65.847039 C12.2669474,66.3472741 13.9510253,68.8496836 13.4528701,71.4357228 Z" id="Path-Copy-27" fill-opacity="0.06" fill="#0053C4" fill-rule="nonzero"></path>
        <path d="M296.063573,8.2019647 C296.717584,5.34400099 299.585264,3.48634039 302.468749,4.05265727 C305.352517,4.61905581 307.160004,7.39502448 306.50618,10.2528886" id="Path-Copy-31" fill-opacity="0.06" fill="#0053C4" fill-rule="nonzero"></path>
        <path d="M227.692399,12.2911823 L227.694857,12.2779127 C228.184852,9.76070766 230.557722,8.09232176 233.059709,8.46212272 L233.278743,8.49976495 C235.782793,8.98580454 237.444167,11.3646233 237.076749,13.8731552 L237.037802,14.1017184 C236.547807,16.6189234 234.174937,18.2873093 231.672949,17.9175084 L231.453916,17.8798661 C228.878321,17.3796311 227.194244,14.8772216 227.692399,12.2911823 Z" id="Path-Copy-17" fill-opacity="0.06" fill="#0053C4" fill-rule="nonzero"></path>
        <path d="M81.4985247,56.9825749 C81.6441071,60.1949338 79.1431854,62.9544768 75.9125539,63.1463091 C72.6815981,63.3381324 69.9444726,60.8895077 69.7987211,57.6773058" id="Path-Copy-25" fill="#1E8985"></path>
        <path d="M321.013211,67.217697 C318.564553,65.1333457 318.251976,61.4222836 320.314964,58.92872 C322.37818,56.4349252 326.035706,56.1030765 328.484364,58.187197" id="Path-Copy-15" fill="#FB7268"></path>
        <path d="M482.056361,14.7118397 C480.769241,17.658663 482.115121,21.1311685 485.062429,22.4680142 C488.010043,23.8049678 491.442878,22.4998777 492.730099,19.5532615" id="Path-Copy-23" fill="#D99938"></path>
        <path d="M320.771775,98.0140224 L320.774236,98.027258 C321.264789,100.537999 323.640362,102.2021 326.1452,101.833249 L326.364484,101.795703 C328.871386,101.310912 330.534653,98.938202 330.166816,96.4361123 L330.127824,96.2081361 C329.637272,93.6973955 327.261698,92.0332942 324.756861,92.4021455 L324.537577,92.439691 C321.959049,92.9386414 320.273052,95.4346245 320.771775,98.0140224 Z" id="Path-Copy-20" fill="#1E8985" fill-rule="nonzero"></path>
        <path d="M205.330286,99.7473558 L205.327824,99.7605914 C204.837272,102.271332 202.461698,103.935433 199.956861,103.566582 L199.737577,103.529036 C197.230675,103.044245 195.567408,100.671535 195.935244,98.1694456 L195.974236,97.9414694 C196.464789,95.4307288 198.840362,93.7666275 201.3452,94.1354788 L201.564484,94.1730243 C204.143012,94.6719747 205.829008,97.1679578 205.330286,99.7473558 Z" id="Path" fill="#1E8985" fill-rule="nonzero"></path>
        <path d="M140.330286,40.754705 L140.327824,40.7414694 C139.837272,38.2307288 137.461698,36.5666275 134.956861,36.9354788 L134.737577,36.9730243 C132.230675,37.4578157 130.567408,39.8305254 130.935244,42.3326151 L130.974236,42.5605914 C131.464789,45.0713319 133.840362,46.7354332 136.3452,46.366582 L136.564484,46.3290364 C139.143012,45.830086 140.829008,43.3341029 140.330286,40.754705 Z" id="Path-Copy-19" fill="#1E8985" fill-rule="nonzero"></path>
        <path d="M193.992677,35.5087004 C194.636956,38.3790309 197.506536,40.234491 200.402098,39.6530933 C203.297943,39.0716123 205.123112,36.2733921 204.479021,33.403161" id="Path-Copy-18" fill="#D99938"></path>
        <path d="M120.326011,91.9933603 C120.970289,89.1230298 123.839869,87.2675698 126.735431,87.8489675 C129.631277,88.4304485 131.456446,91.2286686 130.812354,94.0988998" id="Path-Copy-5" fill="#FB7268"></path>
        <path d="M259.930286,43.4140224 L259.927824,43.427258 C259.437272,45.9379986 257.061698,47.6020999 254.556861,47.2332486 L254.337577,47.1957031 C251.830675,46.7109117 250.167408,44.338202 250.535244,41.8361123 L250.574236,41.6081361 C251.064789,39.0973955 253.440362,37.4332942 255.9452,37.8021455 L256.164484,37.839691 C258.743012,38.3386414 260.429008,40.8346245 259.930286,43.4140224 Z" id="Path-Copy-13" fill="#1E8985" fill-rule="nonzero"></path>
        <path d="M165.536869,62.1825749 C165.391287,65.3949338 167.892209,68.1544768 171.12284,68.3463091 C174.353796,68.5381324 177.090921,66.0895077 177.236673,62.8773058" id="Path-Copy-30" fill="#D99938"></path>
        <path d="M262.839231,27.6101034 C262.258159,24.4461848 259.200701,22.3188744 256.010174,22.8585047 C252.819333,23.3982166 250.703793,26.4005769 251.284665,29.5643805" id="Path-Copy-29" fill="#FB7268"></path>
        <path d="M281.859344,23.139973 C282.503623,26.0103035 285.373202,27.8657636 288.268764,27.2843659 C291.16461,26.7028849 292.989779,23.9046647 292.345687,21.0344336" id="Path-Copy-18" fill="#D99938"></path>
        <path d="M324.998379,6.72927594 L325.000838,6.71600628 C325.490832,4.19880125 327.863702,2.53041536 330.36569,2.90021631 L330.584724,2.93785854 C333.088774,3.42389813 334.750148,5.80271689 334.38273,8.31124877 L334.343782,8.53981198 C333.853788,11.057017 331.480918,12.7254029 328.97893,12.355602 L328.759896,12.3179597 C326.184302,11.8177247 324.500224,9.31531515 324.998379,6.72927594 Z" id="Path-Copy-10" fill-opacity="0.06" fill="#0053C4" fill-rule="nonzero"></path>
        <path d="M346.657446,37.2573341 C349.103317,39.3644663 349.415539,43.1160886 347.354898,45.6369056 C345.29403,48.1579563 341.640666,48.493432 339.194795,46.3865331" id="Path-Copy-24" fill-opacity="0.06" fill="#0053C4" fill-rule="nonzero"></path>
        <path d="M339.670919,80.7867555 C341.585141,83.0020066 344.986041,83.2909257 347.267122,81.4321517 C349.548414,79.5731724 349.845919,76.2704194 347.931909,74.0551683" id="Path-Copy-6" fill-opacity="0.06" fill="#0053C4" fill-rule="nonzero"></path>
        <path d="M549.5544,98.4849145 L549.551942,98.4716448 C549.061947,95.9544398 546.689077,94.2860539 544.187089,94.6558548 L543.968056,94.6934971 C541.464006,95.1795367 539.802631,97.5583554 540.17005,100.066887 L540.208997,100.295451 C540.698992,102.812656 543.071862,104.481041 545.573849,104.11124 L545.792883,104.073598 C548.368477,103.573363 550.052555,101.070954 549.5544,98.4849145 Z" id="Path-Copy-9" fill-opacity="0.06" fill="#0053C4" fill-rule="nonzero"></path>
        <path d="M574.876297,16.874656 C576.981941,14.4132659 580.722931,14.0922448 583.23212,16.1575491 C585.741542,18.2230817 586.068797,21.8928072 583.963385,24.3541974" id="Path-Copy-16" fill-opacity="0.06" fill="#0053C4" fill-rule="nonzero"></path>
        <path d="M402.130507,105.06112 L402.132966,105.07439 C402.62296,107.591595 404.99583,109.259981 407.497818,108.89018 L407.716852,108.852538 C410.220902,108.366498 411.882276,105.987679 411.514858,103.479148 L411.47591,103.250584 C410.985916,100.733379 408.613045,99.0649934 406.111058,99.4347944 L405.892024,99.4724366 C403.31643,99.9726716 401.632352,102.475081 402.130507,105.06112 Z" id="Path-Copy-10" fill-opacity="0.06" fill="#0053C4" fill-rule="nonzero"></path>
        <path d="M388.235592,64.5383612 C390.149814,66.7536123 393.550714,67.0425313 395.831795,65.1837574 C398.113088,63.3247781 398.410592,60.0220251 396.496582,57.806774" id="Path-Copy-8" fill-opacity="0.06" fill="#0053C4" fill-rule="nonzero"></path>
        <path d="M527.263872,78.8751797 C529.178094,81.0904308 532.578994,81.3793499 534.860075,79.5205759 C537.141368,77.6615966 537.438872,74.3588436 535.524862,72.1435925" id="Path-Copy-11" fill-opacity="0.06" fill="#0053C4" fill-rule="nonzero"></path>
        <path d="M221,114.731587 C222.914222,116.946838 226.315122,117.235757 228.596203,115.376983 C230.877495,113.518004 231.175,110.215251 229.26099,108" id="Path-Copy-11" fill-opacity="0.06" fill="#0053C4" fill-rule="nonzero"></path>
        <path d="M459.074699,73.479739 C459.728711,76.3377028 462.59639,78.1953634 465.479875,77.6290465 C468.363643,77.0626479 470.171131,74.2866793 469.517306,71.4288152" id="Path-Copy-28" fill-opacity="0.06" fill="#0053C4" fill-rule="nonzero"></path>
        <path d="M158,114.050924 C158.654012,116.908888 161.521691,118.766548 164.405176,118.200231 C167.288944,117.633833 169.096431,114.857864 168.442607,112" id="Path-Copy-28" fill-opacity="0.06" fill="#0053C4" fill-rule="nonzero"></path>
        <path d="M511.46446,59.2976105 L511.462002,59.2843409 C510.972008,56.7671358 508.599137,55.0987499 506.09715,55.4685509 L505.878116,55.5061931 C503.374066,55.9922327 501.712692,58.3710515 502.08011,60.8795833 L502.119058,61.1081466 C502.609052,63.6253516 504.981922,65.2937375 507.48391,64.9239365 L507.702943,64.8862943 C510.278538,64.3860593 511.962615,61.8836497 511.46446,59.2976105 Z" id="Path-Copy-12" fill-opacity="0.06" fill="#0053C4" fill-rule="nonzero"></path>
        <path d="M532.413927,21.0660945 L532.411469,21.0528248 C531.921474,18.5356198 529.548604,16.8672339 527.046617,17.2370348 L526.827583,17.2746771 C524.323533,17.7607167 522.662159,20.1395354 523.029577,22.6480673 L523.068524,22.8766305 C523.558519,25.3938355 525.931389,27.0622214 528.433376,26.6924205 L528.65241,26.6547782 C531.228004,26.1545432 532.912082,23.6521337 532.413927,21.0660945 Z" id="Path-Copy-14" fill-opacity="0.06" fill="#0053C4" fill-rule="nonzero"></path>
        <path d="M543.452097,56.892058 C545.366319,59.1073091 548.767218,59.3962281 551.048299,57.5374542 C553.329592,55.6784749 553.627097,52.3757219 551.713086,50.1604707" id="Path-Copy-33" fill-opacity="0.06" fill="#0053C4" fill-rule="nonzero"></path>
        <path d="M332.052254,105.574855 C334.303225,107.872931 338.02755,107.926842 340.370859,105.695349 C342.714383,103.463612 342.789346,99.7915475 340.538605,97.4934549" id="Path-Copy-3" fill="#FB7268"></path>
        <path d="M283.838442,118.519311 L283.840903,118.506075 C284.331455,115.995335 286.707029,114.331233 289.211867,114.700085 L289.43115,114.73763 C291.938053,115.222422 293.60132,117.595131 293.233483,120.097221 L293.194491,120.325197 C292.703939,122.835938 290.328365,124.500039 287.823527,124.131188 L287.604244,124.093642 C285.025715,123.594692 283.339719,121.098709 283.838442,118.519311 Z" id="Path-Copy-22" fill="#1E8985" fill-rule="nonzero"></path>
        <path d="M252.45287,59.2976105 L252.450412,59.2843409 C251.960417,56.7671358 249.587547,55.0987499 247.08556,55.4685509 L246.866526,55.5061931 C244.362476,55.9922327 242.701102,58.3710515 243.06852,60.8795833 L243.107467,61.1081466 C243.597462,63.6253516 245.970332,65.2937375 248.472319,64.9239365 L248.691353,64.8862943 C251.266947,64.3860593 252.951025,61.8836497 252.45287,59.2976105 Z" id="Path-Copy-27" fill-opacity="0.06" fill="#0053C4" fill-rule="nonzero"></path>
        <path d="M539.063573,122.531369 C539.717584,125.389332 542.585264,127.246993 545.468749,126.680676 C548.352517,126.114278 550.160004,123.338309 549.50618,120.480445" id="Path-Copy-31" fill-opacity="0.06" fill="#0053C4" fill-rule="nonzero"></path>
        <path d="M470.692399,118.442151 L470.694857,118.455421 C471.184852,120.972626 473.557722,122.641012 476.059709,122.271211 L476.278743,122.233568 C478.782793,121.747529 480.444167,119.36871 480.076749,116.860178 L480.037802,116.631615 C479.547807,114.11441 477.174937,112.446024 474.672949,112.815825 L474.453916,112.853467 C471.878321,113.353702 470.194244,115.856112 470.692399,118.442151 Z" id="Path-Copy-17" fill-opacity="0.06" fill="#0053C4" fill-rule="nonzero"></path>
        <path d="M564.013211,63.5156363 C561.564553,65.5999876 561.251976,69.3110498 563.314964,71.8046133 C565.37818,74.2984081 569.035706,74.6302569 571.484364,72.5461363" id="Path-Copy-15" fill="#FB7268"></path>
        <path d="M583.070203,100.617425 C582.92462,97.4050662 585.425542,94.6455232 588.656173,94.4536909 C591.887129,94.2618676 594.624255,96.7104923 594.770006,99.9226942" id="Path-Copy-23" fill="#D99938"></path>
        <path d="M563.771775,32.7193109 L563.774236,32.7060753 C564.264789,30.1953347 566.640362,28.5312334 569.1452,28.9000847 L569.364484,28.9376303 C571.871386,29.4224217 573.534653,31.7951313 573.166816,34.297221 L573.127824,34.5251973 C572.637272,37.0359378 570.261698,38.7000391 567.756861,38.3311879 L567.537577,38.2936423 C564.959049,37.7946919 563.273052,35.2987089 563.771775,32.7193109 Z" id="Path-Copy-20" fill="#1E8985" fill-rule="nonzero"></path>
        <path d="M448.330286,30.9859776 L448.327824,30.972742 C447.837272,28.4620014 445.461698,26.7979001 442.956861,27.1667514 L442.737577,27.2042969 C440.230675,27.6890883 438.567408,30.061798 438.935244,32.5638877 L438.974236,32.7918639 C439.464789,35.3026045 441.840362,36.9667058 444.3452,36.5978545 L444.564484,36.560309 C447.143012,36.0613586 448.829008,33.5653755 448.330286,30.9859776 Z" id="Path" fill="#1E8985" fill-rule="nonzero"></path>
        <path d="M383.330286,89.9786284 L383.327824,89.9918639 C382.837272,92.5026045 380.461698,94.1667058 377.956861,93.7978545 L377.737577,93.760309 C375.230675,93.2755176 373.567408,90.9028079 373.935244,88.4007182 L373.974236,88.172742 C374.464789,85.6620014 376.840362,83.9979001 379.3452,84.3667514 L379.564484,84.4042969 C382.143012,84.9032473 383.829008,87.3992304 383.330286,89.9786284 Z" id="Path-Copy-19" fill="#1E8985" fill-rule="nonzero"></path>
        <path d="M436.992677,95.2246329 C437.636956,92.3543024 440.506536,90.4988424 443.402098,91.0802401 C446.297943,91.6617211 448.123112,94.4599412 447.479021,97.3301723" id="Path-Copy-18" fill="#D99938"></path>
        <path d="M384.97498,30.6910034 C385.619259,33.5613339 388.488839,35.4167939 391.384401,34.8353962 C394.280246,34.2539152 396.105415,31.4556951 395.461324,28.5854639" id="Path-Copy-5" fill="#FB7268"></path>
        <path d="M502.930286,87.3193109 L502.927824,87.3060753 C502.437272,84.7953347 500.061698,83.1312334 497.556861,83.5000847 L497.337577,83.5376303 C494.830675,84.0224217 493.167408,86.3951313 493.535244,88.897221 L493.574236,89.1251973 C494.064789,91.6359378 496.440362,93.3000391 498.9452,92.9311879 L499.164484,92.8936423 C501.743012,92.3946919 503.429008,89.8987089 502.930286,87.3193109 Z" id="Path-Copy-13" fill="#1E8985" fill-rule="nonzero"></path>
        <path d="M414.119172,58.7684555 C413.97359,55.5560966 416.474512,52.7965536 419.705143,52.6047213 C422.936099,52.4128979 425.673224,54.8615227 425.818976,58.0737246" id="Path-Copy-30" fill="#D99938"></path>
        <path d="M505.839231,103.12323 C505.258159,106.287149 502.200701,108.414459 499.010174,107.874829 C495.819333,107.335117 493.703793,104.332756 494.284665,101.168953" id="Path-Copy-29" fill="#FB7268"></path>
    </g>
</svg>