<?xml version="1.0" encoding="UTF-8"?>
<svg width="760px" height="274px" viewBox="0 0 760 274" version="1.1" xmlns="http://www.w3.org/2000/svg" xmlns:xlink="http://www.w3.org/1999/xlink">
    <!-- Generator: Sketch 64 (93537) - https://sketch.com -->
    <title>Icons/promo-box-pattern</title>
    <desc>Created with Sketch.</desc>
    <g id="Icons/promo-box-pattern" stroke="none" stroke-width="1" fill="none" fill-rule="evenodd">
        <path d="M749.867202,193 C760.68324,202.045957 762.093897,218.117444 753.01837,228.897051 C743.941841,239.677657 727.816038,241.083563 717,232.038605" id="Path" fill="#6899E4" fill-rule="nonzero" opacity="0.276181176"></path>
        <path d="M600.7,270.2 C601.528427,270.2 602.2,270.871573 602.2,271.7 C602.2,272.528427 601.528427,273.2 600.7,273.2 C599.871573,273.2 599.2,272.528427 599.2,271.7 C599.2,270.871573 599.871573,270.2 600.7,270.2 Z M614.724461,268.849598 C615.537668,268.691527 616.325044,269.222619 616.483115,270.035825 C616.641187,270.849032 616.110095,271.636408 615.296888,271.79448 C614.483682,271.952551 613.696305,271.421459 613.538234,270.608252 C613.380163,269.795046 613.911255,269.007669 614.724461,268.849598 Z M584.277518,269.895301 C584.44268,269.083505 585.234661,268.559304 586.046457,268.724466 C586.858253,268.889628 587.382454,269.681609 587.217292,270.493405 C587.05213,271.305201 586.260149,271.829402 585.448353,271.66424 C584.636557,271.499078 584.112356,270.707097 584.277518,269.895301 Z M570.612923,265.41694 C570.929949,264.651573 571.807401,264.28812 572.572768,264.605146 C573.338135,264.922171 573.701587,265.799623 573.384562,266.56499 C573.067537,267.330357 572.190084,267.69381 571.424717,267.376784 C570.659351,267.059759 570.295898,266.182307 570.612923,265.41694 Z M628.827232,264.605146 C629.592599,264.28812 630.470051,264.651573 630.787077,265.41694 C631.104102,266.182307 630.740649,267.059759 629.975283,267.376784 C629.209916,267.69381 628.332463,267.330357 628.015438,266.56499 C627.698413,265.799623 628.061865,264.922171 628.827232,264.605146 Z M641.267368,257.990608 C641.958182,257.533368 642.888863,257.722718 643.346103,258.413531 C643.803342,259.104345 643.613993,260.035026 642.923179,260.492265 C642.232366,260.949505 641.301685,260.760156 640.844445,260.069342 C640.387206,259.378528 640.576555,258.447847 641.267368,257.990608 Z M557.516976,258.039029 C557.980226,257.352231 558.912524,257.171011 559.599322,257.634262 C560.286119,258.097512 560.467339,259.02981 560.004089,259.716607 C559.540838,260.403405 558.60854,260.584625 557.921743,260.121374 C557.234946,259.658124 557.053725,258.725826 557.516976,258.039029 Z M600.7,255.2 C601.528427,255.2 602.2,255.871573 602.2,256.7 C602.2,257.528427 601.528427,258.2 600.7,258.2 C599.871573,258.2 599.2,257.528427 599.2,256.7 C599.2,255.871573 599.871573,255.2 600.7,255.2 Z M611.862326,254.12519 C612.675533,253.967119 613.462909,254.498211 613.62098,255.311418 C613.779052,256.124624 613.24796,256.912 612.434753,257.070072 C611.621547,257.228143 610.83417,256.697051 610.676099,255.883844 C610.518028,255.070638 611.04912,254.283262 611.862326,254.12519 Z M587.268037,255.19643 C587.433199,254.384634 588.22518,253.860433 589.036976,254.025595 C589.848772,254.190757 590.372973,254.982738 590.207811,255.794534 C590.042649,256.60633 589.250668,257.130531 588.438872,256.965369 C587.627076,256.800208 587.102875,256.008227 587.268037,255.19643 Z M623.086981,250.746953 C623.852348,250.429927 624.7298,250.79338 625.046825,251.558747 C625.363851,252.324114 625.000398,253.201566 624.235031,253.518591 C623.469664,253.835617 622.592212,253.472164 622.275187,252.706797 C621.958161,251.94143 622.321614,251.063978 623.086981,250.746953 Z M576.353175,251.558747 C576.6702,250.79338 577.547652,250.429927 578.313019,250.746953 C579.078386,251.063978 579.441839,251.94143 579.124813,252.706797 C578.807788,253.472164 577.930336,253.835617 577.164969,253.518591 C576.399602,253.201566 576.036149,252.324114 576.353175,251.558747 Z M546.606331,248.672348 C547.192118,248.086562 548.141865,248.086562 548.727652,248.672348 C549.313438,249.258135 549.313438,250.207882 548.727652,250.793669 C548.141865,251.379455 547.192118,251.379455 546.606331,250.793669 C546.020545,250.207882 546.020545,249.258135 546.606331,248.672348 Z M652.672348,248.672348 C653.258135,248.086562 654.207882,248.086562 654.793669,248.672348 C655.379455,249.258135 655.379455,250.207882 654.793669,250.793669 C654.207882,251.379455 653.258135,251.379455 652.672348,250.793669 C652.086562,250.207882 652.086562,249.258135 652.672348,248.672348 Z M632.988314,245.482321 C633.679127,245.025081 634.609808,245.21443 635.067048,245.905244 C635.524287,246.596057 635.334938,247.526738 634.644125,247.983978 C633.953311,248.441218 633.02263,248.251868 632.56539,247.561055 C632.108151,246.870241 632.2975,245.93956 632.988314,245.482321 Z M565.904869,245.603465 C566.36812,244.916668 567.300418,244.735447 567.987215,245.198698 C568.674012,245.661949 568.855233,246.594246 568.391982,247.281044 C567.928732,247.967841 566.996434,248.149061 566.309636,247.685811 C565.622839,247.22256 565.441619,246.290262 565.904869,245.603465 Z M600.7,240.2 C601.528427,240.2 602.2,240.871573 602.2,241.7 C602.2,242.528427 601.528427,243.2 600.7,243.2 C599.871573,243.2 599.2,242.528427 599.2,241.7 C599.2,240.871573 599.871573,240.2 600.7,240.2 Z M610.818656,240.593032 C610.976727,241.406239 610.445635,242.193615 609.632429,242.351687 C608.819222,242.509758 608.031846,241.978666 607.873774,241.165459 C607.715703,240.352253 608.246795,239.564876 609.060002,239.406805 C609.873208,239.248734 610.660585,239.779826 610.818656,240.593032 Z M592.087305,239.332747 C592.899101,239.497909 593.423302,240.28989 593.25814,241.101686 C593.092979,241.913482 592.300998,242.437683 591.489201,242.272521 C590.677405,242.10736 590.153204,241.315379 590.318366,240.503582 C590.483528,239.691786 591.275509,239.167585 592.087305,239.332747 Z M557.212933,238.065747 C557.798719,237.47996 558.748467,237.47996 559.334253,238.065747 C559.92004,238.651533 559.92004,239.601281 559.334253,240.187067 C558.748467,240.772853 557.798719,240.772853 557.212933,240.187067 C556.627147,239.601281 556.627147,238.651533 557.212933,238.065747 Z M642.065747,238.065747 C642.651533,237.47996 643.601281,237.47996 644.187067,238.065747 C644.772853,238.651533 644.772853,239.601281 644.187067,240.187067 C643.601281,240.772853 642.651533,240.772853 642.065747,240.187067 C641.47996,239.601281 641.47996,238.651533 642.065747,238.065747 Z M661.634262,237.800678 C662.097512,237.113881 663.02981,236.932661 663.716607,237.395911 C664.403405,237.859162 664.584625,238.79146 664.121374,239.478257 C663.658124,240.165054 662.725826,240.346275 662.039029,239.883024 C661.352231,239.419774 661.171011,238.487476 661.634262,237.800678 Z M619.306574,237.700554 C619.623599,238.465921 619.260146,239.343373 618.49478,239.660398 C617.729413,239.977424 616.85196,239.613971 616.534935,238.848604 C616.21791,238.083237 616.581362,237.205785 617.346729,236.88876 C618.112096,236.571734 618.989548,236.935187 619.306574,237.700554 Z M584.053271,236.88876 C584.818638,237.205785 585.18209,238.083237 584.865065,238.848604 C584.54804,239.613971 583.670587,239.977424 582.90522,239.660398 C582.139854,239.343373 581.776401,238.465921 582.093426,237.700554 C582.410452,236.935187 583.287904,236.571734 584.053271,236.88876 Z M537.330658,236.844445 C538.021472,236.387206 538.952153,236.576555 539.409392,237.267368 C539.866632,237.958182 539.677282,238.888863 538.986469,239.346103 C538.295655,239.803342 537.364974,239.613993 536.907735,238.923179 C536.450495,238.232366 536.639844,237.301685 537.330658,236.844445 Z M626.847803,233.402979 C627.305043,234.093793 627.115694,235.024474 626.42488,235.481713 C625.734067,235.938953 624.803386,235.749604 624.346146,235.05879 C623.888906,234.367976 624.078256,233.437295 624.769069,232.980056 C625.459883,232.522816 626.390564,232.712165 626.847803,233.402979 Z M576.434919,232.769157 C577.121716,233.232408 577.302937,234.164705 576.839686,234.851503 C576.376436,235.5383 575.444138,235.71952 574.75734,235.25627 C574.070543,234.793019 573.889323,233.860721 574.352573,233.173924 C574.815824,232.487127 575.748122,232.305906 576.434919,232.769157 Z M649.198698,229.412785 C649.661949,228.725988 650.594246,228.544767 651.281044,229.008018 C651.967841,229.471268 652.149061,230.403566 651.685811,231.090364 C651.22256,231.777161 650.290262,231.958381 649.603465,231.495131 C648.916668,231.03188 648.735447,230.099582 649.198698,229.412785 Z M549.838945,228.56539 C550.529759,228.108151 551.46044,228.2975 551.917679,228.988314 C552.374919,229.679127 552.18557,230.609808 551.494756,231.067048 C550.803943,231.524287 549.873262,231.334938 549.416022,230.644125 C548.958782,229.953311 549.148132,229.02263 549.838945,228.56539 Z M633.580465,227.459145 C634.166252,228.044931 634.166252,228.994679 633.580465,229.580465 C632.994679,230.166252 632.044931,230.166252 631.459145,229.580465 C630.873359,228.994679 630.873359,228.044931 631.459145,227.459145 C632.044931,226.873359 632.994679,226.873359 633.580465,227.459145 Z M569.940855,227.459145 C570.526641,228.044931 570.526641,228.994679 569.940855,229.580465 C569.355069,230.166252 568.405321,230.166252 567.819535,229.580465 C567.233748,228.994679 567.233748,228.044931 567.819535,227.459145 C568.405321,226.873359 569.355069,226.873359 569.940855,227.459145 Z M600.7,225.2 C601.528427,225.2 602.2,225.871573 602.2,226.7 C602.2,227.528427 601.528427,228.2 600.7,228.2 C599.871573,228.2 599.2,227.528427 599.2,226.7 C599.2,225.871573 599.871573,225.2 600.7,225.2 Z M607.648504,225.86192 C607.799473,226.676475 607.26153,227.459187 606.446975,227.610156 C605.63242,227.761125 604.849708,227.223182 604.698739,226.408627 C604.54777,225.594072 605.085713,224.81136 605.900268,224.660391 C606.714823,224.509423 607.497535,225.047365 607.648504,225.86192 Z M594.781073,224.514833 C595.591397,224.687073 596.108666,225.483598 595.936426,226.293922 C595.764187,227.104246 594.967661,227.621516 594.157337,227.449276 C593.347013,227.277036 592.829744,226.480511 593.001984,225.670187 C593.174223,224.859863 593.970749,224.342593 594.781073,224.514833 Z M668.605146,224.827232 C668.922171,224.061865 669.799623,223.698413 670.56499,224.015438 C671.330357,224.332463 671.69381,225.209916 671.376784,225.975283 C671.059759,226.740649 670.182307,227.104102 669.41694,226.787077 C668.651573,226.470051 668.28812,225.592599 668.605146,224.827232 Z M530.83501,224.015438 C531.600377,223.698413 532.477829,224.061865 532.794854,224.827232 C533.11188,225.592599 532.748427,226.470051 531.98306,226.787077 C531.217693,227.104102 530.340241,226.740649 530.023216,225.975283 C529.70619,225.209916 530.069643,224.332463 530.83501,224.015438 Z M613.566322,223.842361 C613.883348,224.607728 613.519895,225.48518 612.754528,225.802205 C611.989161,226.119231 611.111709,225.755778 610.794684,224.990411 C610.477658,224.225044 610.841111,223.347592 611.606478,223.030567 C612.371845,222.713541 613.249297,223.076994 613.566322,223.842361 Z M589.793522,223.030567 C590.558889,223.347592 590.922342,224.225044 590.605316,224.990411 C590.288291,225.755778 589.410839,226.119231 588.645472,225.802205 C587.880105,225.48518 587.516652,224.607728 587.833678,223.842361 C588.150703,223.076994 589.028155,222.713541 589.793522,223.030567 Z M638.905291,220.626147 C639.592088,221.089397 639.773308,222.021695 639.310058,222.708493 C638.846807,223.39529 637.914509,223.57651 637.227712,223.11326 C636.540915,222.650009 636.359694,221.717711 636.822945,221.030914 C637.286195,220.344117 638.218493,220.162896 638.905291,220.626147 Z M618.303733,220.980785 C618.754926,221.675562 618.557463,222.604556 617.862685,223.055749 C617.167908,223.506943 616.238915,223.30948 615.787721,222.614702 C615.336527,221.919925 615.533991,220.990931 616.228768,220.539738 C616.923546,220.088544 617.852539,220.286008 618.303733,220.980785 Z M564.485777,220.715281 C564.943017,221.406095 564.753667,222.336776 564.062854,222.794016 C563.37204,223.251255 562.441359,223.061906 561.98412,222.371092 C561.52688,221.680279 561.716229,220.749598 562.407043,220.292358 C563.097857,219.835119 564.028538,220.024468 564.485777,220.715281 Z M584.563978,220.125223 C585.246706,220.594449 585.419784,221.528293 584.950558,222.211022 C584.481332,222.89375 583.547488,223.066828 582.864759,222.597601 C582.182031,222.128375 582.008953,221.194531 582.478179,220.511803 C582.947406,219.829074 583.881249,219.655997 584.563978,220.125223 Z M654.746953,219.086981 C655.063978,218.321614 655.94143,217.958161 656.706797,218.275187 C657.472164,218.592212 657.835617,219.469664 657.518591,220.235031 C657.201566,221.000398 656.324114,221.363851 655.558747,221.046825 C654.79338,220.7298 654.429927,219.852348 654.746953,219.086981 Z M544.693203,218.275187 C545.45857,217.958161 546.336022,218.321614 546.653047,219.086981 C546.970073,219.852348 546.60662,220.7298 545.841253,221.046825 C545.075886,221.363851 544.198434,221.000398 543.881409,220.235031 C543.564383,219.469664 543.927836,218.592212 544.693203,218.275187 Z M580.547457,216.852543 C581.133243,217.43833 581.133243,218.388077 580.547457,218.973864 C579.96167,219.55965 579.011923,219.55965 578.426136,218.973864 C577.84035,218.388077 577.84035,217.43833 578.426136,216.852543 C579.011923,216.266757 579.96167,216.266757 580.547457,216.852543 Z M622.973864,216.852543 C623.55965,217.43833 623.55965,218.388077 622.973864,218.973864 C622.388077,219.55965 621.43833,219.55965 620.852543,218.973864 C620.266757,218.388077 620.266757,217.43833 620.852543,216.852543 C621.43833,216.266757 622.388077,216.266757 622.973864,216.852543 Z M560.51124,213.346729 C560.828266,214.112096 560.464813,214.989548 559.699446,215.306574 C558.934079,215.623599 558.056627,215.260146 557.739602,214.49478 C557.422576,213.729413 557.786029,212.85196 558.551396,212.534935 C559.316763,212.21791 560.194215,212.581362 560.51124,213.346729 Z M642.848604,212.534935 C643.613971,212.85196 643.977424,213.729413 643.660398,214.49478 C643.343373,215.260146 642.465921,215.623599 641.700554,215.306574 C640.935187,214.989548 640.571734,214.112096 640.88876,213.346729 C641.205785,212.581362 642.083237,212.21791 642.848604,212.534935 Z M626.279951,212.393624 C626.962679,212.862851 627.135757,213.796694 626.666531,214.479423 C626.197304,215.162151 625.263461,215.335229 624.580732,214.866003 C623.898004,214.396777 623.724926,213.462933 624.194152,212.780204 C624.663378,212.097476 625.597222,211.924398 626.279951,212.393624 Z M576.804445,212.159839 C577.255638,212.854616 577.058175,213.78361 576.363397,214.234803 C575.66862,214.685997 574.739627,214.488534 574.288433,213.793756 C573.837239,213.098979 574.034703,212.169985 574.72948,211.718792 C575.424258,211.267598 576.353251,211.465062 576.804445,212.159839 Z M600.7,210.2 C601.528427,210.2 602.2,210.871573 602.2,211.7 C602.2,212.528427 601.528427,213.2 600.7,213.2 C599.871573,213.2 599.2,212.528427 599.2,211.7 C599.2,210.871573 599.871573,210.2 600.7,210.2 Z M672.724466,211.353543 C672.889628,210.541747 673.681609,210.017546 674.493405,210.182708 C675.305201,210.34787 675.829402,211.139851 675.66424,211.951647 C675.499078,212.763443 674.707097,213.287644 673.895301,213.122482 C673.083505,212.95732 672.559304,212.165339 672.724466,211.353543 Z M526.791748,209.538234 C527.604954,209.380163 528.392331,209.911255 528.550402,210.724461 C528.708473,211.537668 528.177381,212.325044 527.364175,212.483115 C526.550968,212.641187 525.763592,212.110095 525.60552,211.296888 C525.447449,210.483682 525.978541,209.696305 526.791748,209.538234 Z M593.573929,209.984168 C593.890955,209.218801 594.768407,208.855348 595.533774,209.172374 C596.299141,209.489399 596.662593,210.366851 596.345568,211.132218 C596.028542,211.897585 595.15109,212.261038 594.385723,211.944012 C593.620357,211.626987 593.256904,210.749535 593.573929,209.984168 Z M605.866226,209.172374 C606.631593,208.855348 607.509045,209.218801 607.826071,209.984168 C608.143096,210.749535 607.779643,211.626987 607.014277,211.944012 C606.24891,212.261038 605.371458,211.897585 605.054432,211.132218 C604.737407,210.366851 605.100859,209.489399 605.866226,209.172374 Z M658.025595,208.363024 C658.190757,207.551228 658.982738,207.027027 659.794534,207.192189 C660.60633,207.357351 661.130531,208.149332 660.965369,208.961128 C660.800208,209.772924 660.008227,210.297125 659.19643,210.131963 C658.384634,209.966801 657.860433,209.17482 658.025595,208.363024 Z M628.990411,206.794684 C629.755778,207.111709 630.119231,207.989161 629.802205,208.754528 C629.48518,209.519895 628.607728,209.883348 627.842361,209.566322 C627.076994,209.249297 626.713541,208.371845 627.030567,207.606478 C627.347592,206.841111 628.225044,206.477658 628.990411,206.794684 Z M574.369433,207.606478 C574.686459,208.371845 574.323006,209.249297 573.557639,209.566322 C572.792272,209.883348 571.91482,209.519895 571.597795,208.754528 C571.280769,207.989161 571.644222,207.111709 572.409589,206.794684 C573.174956,206.477658 574.052408,206.841111 574.369433,207.606478 Z M541.516156,206.676099 C542.329362,206.518028 543.116738,207.04912 543.27481,207.862326 C543.432881,208.675533 542.901789,209.462909 542.088582,209.62098 C541.275376,209.779052 540.488,209.24796 540.329928,208.434753 C540.171857,207.621547 540.702949,206.83417 541.516156,206.676099 Z M589.032738,206.245942 C589.618525,205.660155 590.568272,205.660155 591.154058,206.245942 C591.739845,206.831728 591.739845,207.781475 591.154058,208.367262 C590.568272,208.953048 589.618525,208.953048 589.032738,208.367262 C588.446952,207.781475 588.446952,206.831728 589.032738,206.245942 Z M610.245942,206.245942 C610.831728,205.660155 611.781475,205.660155 612.367262,206.245942 C612.953048,206.831728 612.953048,207.781475 612.367262,208.367262 C611.781475,208.953048 610.831728,208.953048 610.245942,208.367262 C609.660155,207.781475 609.660155,206.831728 610.245942,206.245942 Z M645.155474,204.207693 C645.96727,204.372854 646.491471,205.164835 646.326309,205.976632 C646.161147,206.788428 645.369166,207.312628 644.55737,207.147467 C643.745574,206.982305 643.221373,206.190324 643.386535,205.378528 C643.551697,204.566732 644.343678,204.042531 645.155474,204.207693 Z M558.059028,205.006214 C558.217099,205.81942 557.686007,206.606797 556.872801,206.764868 C556.059594,206.92294 555.272218,206.391847 555.114146,205.578641 C554.956075,204.765434 555.487167,203.978058 556.300374,203.819987 C557.11358,203.661915 557.900957,204.193007 558.059028,205.006214 Z M630.362851,201.407756 C631.173175,201.579996 631.690445,202.376521 631.518205,203.186845 C631.345965,203.997169 630.54944,204.514438 629.739116,204.342199 C628.928792,204.169959 628.411523,203.373434 628.583762,202.56311 C628.756002,201.752786 629.552527,201.235516 630.362851,201.407756 Z M613.172374,201.866226 C613.489399,201.100859 614.366851,200.737407 615.132218,201.054432 C615.897585,201.371458 616.261038,202.24891 615.944012,203.014277 C615.626987,203.779643 614.749535,204.143096 613.984168,203.826071 C613.218801,203.509045 612.855348,202.631593 613.172374,201.866226 Z M586.267782,201.054432 C587.033149,200.737407 587.910601,201.100859 588.227626,201.866226 C588.544652,202.631593 588.181199,203.509045 587.415832,203.826071 C586.650465,204.143096 585.773013,203.779643 585.455988,203.014277 C585.138962,202.24891 585.502415,201.371458 586.267782,201.054432 Z M572.683791,201.831339 C572.83476,202.645894 572.296817,203.428606 571.482262,203.579575 C570.667707,203.730543 569.884995,203.192601 569.734026,202.378046 C569.583057,201.563491 570.121,200.780779 570.935555,200.62981 C571.75011,200.478841 572.532822,201.016784 572.683791,201.831339 Z M525.7,195.2 C526.528427,195.2 527.2,195.871573 527.2,196.7 C527.2,197.528427 526.528427,198.2 525.7,198.2 C524.871573,198.2 524.2,197.528427 524.2,196.7 C524.2,195.871573 524.871573,195.2 525.7,195.2 Z M615.7,195.2 C616.528427,195.2 617.2,195.871573 617.2,196.7 C617.2,197.528427 616.528427,198.2 615.7,198.2 C614.871573,198.2 614.2,197.528427 614.2,196.7 C614.2,195.871573 614.871573,195.2 615.7,195.2 Z M585.7,195.2 C586.528427,195.2 587.2,195.871573 587.2,196.7 C587.2,197.528427 586.528427,198.2 585.7,198.2 C584.871573,198.2 584.2,197.528427 584.2,196.7 C584.2,195.871573 584.871573,195.2 585.7,195.2 Z M645.7,195.2 C646.528427,195.2 647.2,195.871573 647.2,196.7 C647.2,197.528427 646.528427,198.2 645.7,198.2 C644.871573,198.2 644.2,197.528427 644.2,196.7 C644.2,195.871573 644.871573,195.2 645.7,195.2 Z M660.7,195.2 C661.528427,195.2 662.2,195.871573 662.2,196.7 C662.2,197.528427 661.528427,198.2 660.7,198.2 C659.871573,198.2 659.2,197.528427 659.2,196.7 C659.2,195.871573 659.871573,195.2 660.7,195.2 Z M555.7,195.2 C556.528427,195.2 557.2,195.871573 557.2,196.7 C557.2,197.528427 556.528427,198.2 555.7,198.2 C554.871573,198.2 554.2,197.528427 554.2,196.7 C554.2,195.871573 554.871573,195.2 555.7,195.2 Z M675.7,195.2 C676.528427,195.2 677.2,195.871573 677.2,196.7 C677.2,197.528427 676.528427,198.2 675.7,198.2 C674.871573,198.2 674.2,197.528427 674.2,196.7 C674.2,195.871573 674.871573,195.2 675.7,195.2 Z M540.7,195.2 C541.528427,195.2 542.2,195.871573 542.2,196.7 C542.2,197.528427 541.528427,198.2 540.7,198.2 C539.871573,198.2 539.2,197.528427 539.2,196.7 C539.2,195.871573 539.871573,195.2 540.7,195.2 Z M570.7,195.2 C571.528427,195.2 572.2,195.871573 572.2,196.7 C572.2,197.528427 571.528427,198.2 570.7,198.2 C569.871573,198.2 569.2,197.528427 569.2,196.7 C569.2,195.871573 569.871573,195.2 570.7,195.2 Z M630.7,195.2 C631.528427,195.2 632.2,195.871573 632.2,196.7 C632.2,197.528427 631.528427,198.2 630.7,198.2 C629.871573,198.2 629.2,197.528427 629.2,196.7 C629.2,195.871573 629.871573,195.2 630.7,195.2 Z M600.7,195.2 C601.528427,195.2 602.2,195.871573 602.2,196.7 C602.2,197.528427 601.528427,198.2 600.7,198.2 C599.871573,198.2 599.2,197.528427 599.2,196.7 C599.2,195.871573 599.871573,195.2 600.7,195.2 Z M631.679085,190.897207 C631.830054,191.711762 631.292111,192.494474 630.477556,192.645443 C629.663001,192.796412 628.880289,192.258469 628.729321,191.443914 C628.578352,190.629359 629.116295,189.846647 629.93085,189.695678 C630.745405,189.54471 631.528116,190.082652 631.679085,190.897207 Z M613.984168,189.573929 C614.749535,189.256904 615.626987,189.620357 615.944012,190.385723 C616.261038,191.15109 615.897585,192.028542 615.132218,192.345568 C614.366851,192.662593 613.489399,192.299141 613.172374,191.533774 C612.855348,190.768407 613.218801,189.890955 613.984168,189.573929 Z M585.455988,190.385723 C585.773013,189.620357 586.650465,189.256904 587.415832,189.573929 C588.181199,189.890955 588.544652,190.768407 588.227626,191.533774 C587.910601,192.299141 587.033149,192.662593 586.267782,192.345568 C585.502415,192.028542 585.138962,191.15109 585.455988,190.385723 Z M569.894906,190.088408 C570.067146,189.278084 570.863671,188.760815 571.673995,188.933054 C572.484319,189.105294 573.001589,189.901819 572.829349,190.712143 C572.657109,191.522467 571.860584,192.039737 571.05026,191.867497 C570.239936,191.695257 569.722667,190.898732 569.894906,190.088408 Z M646.405474,187.833404 C646.563546,188.646611 646.032454,189.433987 645.219247,189.592059 C644.406041,189.75013 643.618664,189.219038 643.460593,188.405831 C643.302522,187.592625 643.833614,186.805248 644.64682,186.647177 C645.460027,186.489106 646.247403,187.020198 646.405474,187.833404 Z M556.962251,186.264578 C557.774047,186.42974 558.298248,187.221721 558.133086,188.033517 C557.967924,188.845314 557.175943,189.369514 556.364147,189.204353 C555.552351,189.039191 555.02815,188.24721 555.193312,187.435414 C555.358473,186.623617 556.150454,186.099417 556.962251,186.264578 Z M589.032738,185.032738 C589.618525,184.446952 590.568272,184.446952 591.154058,185.032738 C591.739845,185.618525 591.739845,186.568272 591.154058,187.154058 C590.568272,187.739845 589.618525,187.739845 589.032738,187.154058 C588.446952,186.568272 588.446952,185.618525 589.032738,185.032738 Z M610.245942,185.032738 C610.831728,184.446952 611.781475,184.446952 612.367262,185.032738 C612.953048,185.618525 612.953048,186.568272 612.367262,187.154058 C611.781475,187.739845 610.831728,187.739845 610.245942,187.154058 C609.660155,186.568272 609.660155,185.618525 610.245942,185.032738 Z M659.311418,183.77902 C660.124624,183.620948 660.912,184.15204 661.070072,184.965247 C661.228143,185.778453 660.697051,186.56583 659.883844,186.723901 C659.070638,186.881972 658.283262,186.35088 658.12519,185.537674 C657.967119,184.724467 658.498211,183.937091 659.311418,183.77902 Z M573.557639,183.833678 C574.323006,184.150703 574.686459,185.028155 574.369433,185.793522 C574.052408,186.558889 573.174956,186.922342 572.409589,186.605316 C571.644222,186.288291 571.280769,185.410839 571.597795,184.645472 C571.91482,183.880105 572.792272,183.516652 573.557639,183.833678 Z M629.802205,184.645472 C630.119231,185.410839 629.755778,186.288291 628.990411,186.605316 C628.225044,186.922342 627.347592,186.558889 627.030567,185.793522 C626.713541,185.028155 627.076994,184.150703 627.842361,183.833678 C628.607728,183.516652 629.48518,183.880105 629.802205,184.645472 Z M540.434631,184.438872 C540.599792,183.627076 541.391773,183.102875 542.20357,183.268037 C543.015366,183.433199 543.539567,184.22518 543.374405,185.036976 C543.209243,185.848772 542.417262,186.372973 541.605466,186.207811 C540.79367,186.042649 540.269469,185.250668 540.434631,184.438872 Z M605.054432,182.267782 C605.371458,181.502415 606.24891,181.138962 607.014277,181.455988 C607.779643,181.773013 608.143096,182.650465 607.826071,183.415832 C607.509045,184.181199 606.631593,184.544652 605.866226,184.227626 C605.100859,183.910601 604.737407,183.033149 605.054432,182.267782 Z M594.385723,181.455988 C595.15109,181.138962 596.028542,181.502415 596.345568,182.267782 C596.662593,183.033149 596.299141,183.910601 595.533774,184.227626 C594.768407,184.544652 593.890955,184.181199 593.573929,183.415832 C593.256904,182.650465 593.620357,181.773013 594.385723,181.455988 Z M674.035825,180.916885 C674.849032,180.758813 675.636408,181.289905 675.79448,182.103112 C675.952551,182.916318 675.421459,183.703695 674.608252,183.861766 C673.795046,184.019837 673.007669,183.488745 672.849598,182.675539 C672.691527,181.862332 673.222619,181.074956 674.035825,180.916885 Z M525.73576,181.448353 C525.900922,180.636557 526.692903,180.112356 527.504699,180.277518 C528.316495,180.44268 528.840696,181.234661 528.675534,182.046457 C528.510372,182.858253 527.718391,183.382454 526.906595,183.217292 C526.094799,183.05213 525.570598,182.260149 525.73576,181.448353 Z M600.7,180.2 C601.528427,180.2 602.2,180.871573 602.2,181.7 C602.2,182.528427 601.528427,183.2 600.7,183.2 C599.871573,183.2 599.2,182.528427 599.2,181.7 C599.2,180.871573 599.871573,180.2 600.7,180.2 Z M627.124679,179.481497 C627.575872,180.176274 627.378409,181.105268 626.683631,181.556461 C625.988854,182.007655 625.059861,181.810191 624.608667,181.115414 C624.157473,180.420637 624.354937,179.491643 625.049714,179.04045 C625.744492,178.589256 626.673485,178.786719 627.124679,179.481497 Z M576.832379,178.40925 C577.515108,178.878476 577.688186,179.81232 577.218959,180.495049 C576.749733,181.177777 575.815889,181.350855 575.133161,180.881629 C574.450432,180.412402 574.277354,179.478559 574.746581,178.79583 C575.215807,178.113102 576.149651,177.940024 576.832379,178.40925 Z M559.699446,178.093426 C560.464813,178.410452 560.828266,179.287904 560.51124,180.053271 C560.194215,180.818638 559.316763,181.18209 558.551396,180.865065 C557.786029,180.54804 557.422576,179.670587 557.739602,178.90522 C558.056627,178.139854 558.934079,177.776401 559.699446,178.093426 Z M643.660398,178.90522 C643.977424,179.670587 643.613971,180.54804 642.848604,180.865065 C642.083237,181.18209 641.205785,180.818638 640.88876,180.053271 C640.571734,179.287904 640.935187,178.410452 641.700554,178.093426 C642.465921,177.776401 643.343373,178.139854 643.660398,178.90522 Z M622.973864,174.426136 C623.55965,175.011923 623.55965,175.96167 622.973864,176.547457 C622.388077,177.133243 621.43833,177.133243 620.852543,176.547457 C620.266757,175.96167 620.266757,175.011923 620.852543,174.426136 C621.43833,173.84035 622.388077,173.84035 622.973864,174.426136 Z M580.547457,174.426136 C581.133243,175.011923 581.133243,175.96167 580.547457,176.547457 C579.96167,177.133243 579.011923,177.133243 578.426136,176.547457 C577.84035,175.96167 577.84035,175.011923 578.426136,174.426136 C579.011923,173.84035 579.96167,173.84035 580.547457,174.426136 Z M655.558747,172.353175 C656.324114,172.036149 657.201566,172.399602 657.518591,173.164969 C657.835617,173.930336 657.472164,174.807788 656.706797,175.124813 C655.94143,175.441839 655.063978,175.078386 654.746953,174.313019 C654.429927,173.547652 654.79338,172.6702 655.558747,172.353175 Z M543.881409,173.164969 C544.198434,172.399602 545.075886,172.036149 545.841253,172.353175 C546.60662,172.6702 546.970073,173.547652 546.653047,174.313019 C546.336022,175.078386 545.45857,175.441839 544.693203,175.124813 C543.927836,174.807788 543.564383,173.930336 543.881409,173.164969 Z M618.548352,170.677652 C619.231081,171.146878 619.404158,172.080722 618.934932,172.76345 C618.465706,173.446179 617.531862,173.619256 616.849133,173.15003 C616.166405,172.680804 615.993327,171.74696 616.462554,171.064231 C616.93178,170.381503 617.865624,170.208425 618.548352,170.677652 Z M639.535501,171.040953 C639.992741,171.731766 639.803391,172.662447 639.112578,173.119687 C638.421764,173.576927 637.491083,173.387577 637.033844,172.696764 C636.576604,172.00595 636.765953,171.075269 637.456767,170.61803 C638.147581,170.16079 639.078262,170.350139 639.535501,171.040953 Z M564.291909,170.298786 C564.978706,170.762036 565.159927,171.694334 564.696676,172.381131 C564.233425,173.067929 563.301127,173.249149 562.61433,172.785898 C561.927533,172.322648 561.746313,171.39035 562.209563,170.703553 C562.672814,170.016755 563.605112,169.835535 564.291909,170.298786 Z M585.625391,170.660551 C586.076584,171.355328 585.879121,172.284322 585.184343,172.735515 C584.489566,173.186709 583.560573,172.989245 583.109379,172.294468 C582.658185,171.599691 582.855649,170.670697 583.550426,170.219504 C584.245204,169.76831 585.174197,169.965773 585.625391,170.660551 Z M612.754528,167.597795 C613.519895,167.91482 613.883348,168.792272 613.566322,169.557639 C613.249297,170.323006 612.371845,170.686459 611.606478,170.369433 C610.841111,170.052408 610.477658,169.174956 610.794684,168.409589 C611.111709,167.644222 611.989161,167.280769 612.754528,167.597795 Z M590.605316,168.409589 C590.922342,169.174956 590.558889,170.052408 589.793522,170.369433 C589.028155,170.686459 588.150703,170.323006 587.833678,169.557639 C587.516652,168.792272 587.880105,167.91482 588.645472,167.597795 C589.410839,167.280769 590.288291,167.644222 590.605316,168.409589 Z M530.023216,167.424717 C530.340241,166.659351 531.217693,166.295898 531.98306,166.612923 C532.748427,166.929949 533.11188,167.807401 532.794854,168.572768 C532.477829,169.338135 531.600377,169.701587 530.83501,169.384562 C530.069643,169.067537 529.70619,168.190084 530.023216,167.424717 Z M669.41694,166.612923 C670.182307,166.295898 671.059759,166.659351 671.376784,167.424717 C671.69381,168.190084 671.330357,169.067537 670.56499,169.384562 C669.799623,169.701587 668.922171,169.338135 668.605146,168.572768 C668.28812,167.807401 668.651573,166.929949 669.41694,166.612923 Z M607.255774,165.825977 C608.066098,165.998217 608.583368,166.794742 608.411128,167.605066 C608.238888,168.41539 607.442363,168.93266 606.632039,168.76042 C605.821715,168.58818 605.304445,167.791655 605.476685,166.981331 C605.648925,166.171007 606.44545,165.653737 607.255774,165.825977 Z M596.714372,166.866626 C596.865341,167.681181 596.327398,168.463893 595.512843,168.614862 C594.698288,168.76583 593.915576,168.227888 593.764608,167.413333 C593.613639,166.598778 594.151582,165.816066 594.966137,165.665097 C595.780692,165.514128 596.563403,166.052071 596.714372,166.866626 Z M600.7,165.2 C601.528427,165.2 602.2,165.871573 602.2,166.7 C602.2,167.528427 601.528427,168.2 600.7,168.2 C599.871573,168.2 599.2,167.528427 599.2,166.7 C599.2,165.871573 599.871573,165.2 600.7,165.2 Z M569.940855,163.819535 C570.526641,164.405321 570.526641,165.355069 569.940855,165.940855 C569.355069,166.526641 568.405321,166.526641 567.819535,165.940855 C567.233748,165.355069 567.233748,164.405321 567.819535,163.819535 C568.405321,163.233748 569.355069,163.233748 569.940855,163.819535 Z M633.580465,163.819535 C634.166252,164.405321 634.166252,165.355069 633.580465,165.940855 C632.994679,166.526641 632.044931,166.526641 631.459145,165.940855 C630.873359,165.355069 630.873359,164.405321 631.459145,163.819535 C632.044931,163.233748 632.994679,163.233748 633.580465,163.819535 Z M649.905244,162.332952 C650.596057,161.875713 651.526738,162.065062 651.983978,162.755875 C652.441218,163.446689 652.251868,164.37737 651.561055,164.83461 C650.870241,165.291849 649.93956,165.1025 649.482321,164.411686 C649.025081,163.720873 649.21443,162.790192 649.905244,162.332952 Z M549.714189,162.309636 C550.17744,161.622839 551.109738,161.441619 551.796535,161.904869 C552.483332,162.36812 552.664553,163.300418 552.201302,163.987215 C551.738051,164.674012 550.805754,164.855233 550.118956,164.391982 C549.432159,163.928732 549.250939,162.996434 549.714189,162.309636 Z M626.76228,158.155775 C627.449078,158.619026 627.630298,159.551324 627.167047,160.238121 C626.703797,160.924918 625.771499,161.106139 625.084702,160.642888 C624.397904,160.179638 624.216684,159.24734 624.679935,158.560542 C625.143185,157.873745 626.075483,157.692525 626.76228,158.155775 Z M577.173475,158.353255 C577.630714,159.044069 577.441365,159.97475 576.750552,160.431989 C576.059738,160.889229 575.129057,160.69988 574.671817,160.009066 C574.214578,159.318252 574.403927,158.387571 575.094741,157.930332 C575.785554,157.473092 576.716235,157.662441 577.173475,158.353255 Z M662.413531,154.053897 C663.104345,153.596658 664.035026,153.786007 664.492265,154.476821 C664.949505,155.167634 664.760156,156.098315 664.069342,156.555555 C663.378528,157.012794 662.447847,156.823445 661.990608,156.132632 C661.533368,155.441818 661.722718,154.511137 662.413531,154.053897 Z M618.49478,153.739602 C619.260146,154.056627 619.623599,154.934079 619.306574,155.699446 C618.989548,156.464813 618.112096,156.828266 617.346729,156.51124 C616.581362,156.194215 616.21791,155.316763 616.534935,154.551396 C616.85196,153.786029 617.729413,153.422576 618.49478,153.739602 Z M584.865065,154.551396 C585.18209,155.316763 584.818638,156.194215 584.053271,156.51124 C583.287904,156.828266 582.410452,156.464813 582.093426,155.699446 C581.776401,154.934079 582.139854,154.056627 582.90522,153.739602 C583.670587,153.422576 584.54804,153.786029 584.865065,154.551396 Z M537.278626,153.921743 C537.741876,153.234946 538.674174,153.053725 539.360971,153.516976 C540.047769,153.980226 540.228989,154.912524 539.765738,155.599322 C539.302488,156.286119 538.37019,156.467339 537.683393,156.004089 C536.996595,155.540838 536.815375,154.60854 537.278626,153.921743 Z M557.212933,153.212933 C557.798719,152.627147 558.748467,152.627147 559.334253,153.212933 C559.92004,153.798719 559.92004,154.748467 559.334253,155.334253 C558.748467,155.92004 557.798719,155.92004 557.212933,155.334253 C556.627147,154.748467 556.627147,153.798719 557.212933,153.212933 Z M642.065747,153.212933 C642.651533,152.627147 643.601281,152.627147 644.187067,153.212933 C644.772853,153.798719 644.772853,154.748467 644.187067,155.334253 C643.601281,155.92004 642.651533,155.92004 642.065747,155.334253 C641.47996,154.748467 641.47996,153.798719 642.065747,153.212933 Z M608.26148,152.310359 C608.426642,151.498563 609.218623,150.974362 610.030419,151.139524 C610.842216,151.304686 611.366416,152.096667 611.201254,152.908463 C611.036093,153.720259 610.244112,154.24446 609.432316,154.079298 C608.620519,153.914136 608.096319,153.122155 608.26148,152.310359 Z M593.645846,152.246586 C593.803918,153.059792 593.272826,153.847169 592.459619,154.00524 C591.646412,154.163311 590.859036,153.632219 590.700965,152.819013 C590.542893,152.005806 591.073986,151.21843 591.887192,151.060359 C592.700399,150.902287 593.487775,151.433379 593.645846,152.246586 Z M600.7,150.2 C601.528427,150.2 602.2,150.871573 602.2,151.7 C602.2,152.528427 601.528427,153.2 600.7,153.2 C599.871573,153.2 599.2,152.528427 599.2,151.7 C599.2,150.871573 599.871573,150.2 600.7,150.2 Z M633.008018,146.118956 C633.471268,145.432159 634.403566,145.250939 635.090364,145.714189 C635.777161,146.17744 635.958381,147.109738 635.495131,147.796535 C635.03188,148.483332 634.099582,148.664553 633.412785,148.201302 C632.725988,147.738051 632.544767,146.805754 633.008018,146.118956 Z M566.755875,145.416022 C567.446689,144.958782 568.37737,145.148132 568.83461,145.838945 C569.291849,146.529759 569.1025,147.46044 568.411686,147.917679 C567.720873,148.374919 566.790192,148.18557 566.332952,147.494756 C565.875713,146.803943 566.065062,145.873262 566.755875,145.416022 Z M652.672348,142.606331 C653.258135,142.020545 654.207882,142.020545 654.793669,142.606331 C655.379455,143.192118 655.379455,144.141865 654.793669,144.727652 C654.207882,145.313438 653.258135,145.313438 652.672348,144.727652 C652.086562,144.141865 652.086562,143.192118 652.672348,142.606331 Z M546.606331,142.606331 C547.192118,142.020545 548.141865,142.020545 548.727652,142.606331 C549.313438,143.192118 549.313438,144.141865 548.727652,144.727652 C548.141865,145.313438 547.192118,145.313438 546.606331,144.727652 C546.020545,144.141865 546.020545,143.192118 546.606331,142.606331 Z M577.164969,139.881409 C577.930336,139.564383 578.807788,139.927836 579.124813,140.693203 C579.441839,141.45857 579.078386,142.336022 578.313019,142.653047 C577.547652,142.970073 576.6702,142.60662 576.353175,141.841253 C576.036149,141.075886 576.399602,140.198434 577.164969,139.881409 Z M622.275187,140.693203 C622.592212,139.927836 623.469664,139.564383 624.235031,139.881409 C625.000398,140.198434 625.363851,141.075886 625.046825,141.841253 C624.7298,142.60662 623.852348,142.970073 623.086981,142.653047 C622.321614,142.336022 621.958161,141.45857 622.275187,140.693203 Z M611.192189,137.605466 C611.357351,136.79367 612.149332,136.269469 612.961128,136.434631 C613.772924,136.599792 614.297125,137.391773 614.131963,138.20357 C613.966801,139.015366 613.17482,139.539567 612.363024,139.374405 C611.551228,139.209243 611.027027,138.417262 611.192189,137.605466 Z M588.965247,136.329928 C589.778453,136.171857 590.56583,136.702949 590.723901,137.516156 C590.881972,138.329362 590.35088,139.116738 589.537674,139.27481 C588.724467,139.432881 587.937091,138.901789 587.77902,138.088582 C587.620948,137.275376 588.15204,136.488 588.965247,136.329928 Z M600.7,135.2 C601.528427,135.2 602.2,135.871573 602.2,136.7 C602.2,137.528427 601.528427,138.2 600.7,138.2 C599.871573,138.2 599.2,137.528427 599.2,136.7 C599.2,135.871573 599.871573,135.2 600.7,135.2 Z M641.395911,133.683393 C641.859162,132.996595 642.79146,132.815375 643.478257,133.278626 C644.165054,133.741876 644.346275,134.674174 643.883024,135.360971 C643.419774,136.047769 642.487476,136.228989 641.800678,135.765738 C641.113881,135.302488 640.932661,134.37019 641.395911,133.683393 Z M558.476821,132.907735 C559.167634,132.450495 560.098315,132.639844 560.555555,133.330658 C561.012794,134.021472 560.823445,134.952153 560.132632,135.409392 C559.441818,135.866632 558.511137,135.677282 558.053897,134.986469 C557.596658,134.295655 557.786007,133.364974 558.476821,132.907735 Z M628.015438,126.83501 C628.332463,126.069643 629.209916,125.70619 629.975283,126.023216 C630.740649,126.340241 631.104102,127.217693 630.787077,127.98306 C630.470051,128.748427 629.592599,129.11188 628.827232,128.794854 C628.061865,128.477829 627.698413,127.600377 628.015438,126.83501 Z M571.424717,126.023216 C572.190084,125.70619 573.067537,126.069643 573.384562,126.83501 C573.701587,127.600377 573.338135,128.477829 572.572768,128.794854 C571.807401,129.11188 570.929949,128.748427 570.612923,127.98306 C570.295898,127.217693 570.659351,126.340241 571.424717,126.023216 Z M614.182708,122.906595 C614.34787,122.094799 615.139851,121.570598 615.951647,121.73576 C616.763443,121.900922 617.287644,122.692903 617.122482,123.504699 C616.95732,124.316495 616.165339,124.840696 615.353543,124.675534 C614.541747,124.510372 614.017546,123.718391 614.182708,122.906595 Z M586.103112,121.60552 C586.916318,121.447449 587.703695,121.978541 587.861766,122.791748 C588.019837,123.604954 587.488745,124.392331 586.675539,124.550402 C585.862332,124.708473 585.074956,124.177381 584.916885,123.364175 C584.758813,122.550968 585.289905,121.763592 586.103112,121.60552 Z M600.7,120.2 C601.528427,120.2 602.2,120.871573 602.2,121.7 C602.2,122.528427 601.528427,123.2 600.7,123.2 C599.871573,123.2 599.2,122.528427 599.2,121.7 C599.2,120.871573 599.871573,120.2 600.7,120.2 Z" id="Shape" fill="#6899E4" opacity="0.3"></path>
        <path d="M733.585375,45.2842396 L733.542337,45.2922431 C725.249744,46.912463 719.797414,54.8564554 721.227669,63.1415383 L721.288302,63.4703197 C722.889494,71.750236 730.824178,77.1999666 739.100194,75.7732531 L739.457663,75.7077569 C747.750256,74.087537 753.202586,66.1435446 751.772331,57.8584617 L751.711698,57.5296803 C750.089237,49.1449549 741.972928,43.662519 733.585375,45.2842396 Z" id="Path" fill="#D99938" fill-rule="nonzero" style="mix-blend-mode: multiply;" opacity="0.4"></path>
        <path d="M78.5381867,176.825212 L78.4539173,176.839734 L78.4132355,176.848448 C54.2770173,181.56422 38.4285263,204.732409 42.6928966,228.851685 L42.8370061,229.623509 C47.4973962,253.722832 70.6385636,269.563832 94.7314525,265.30986 L95.5867645,265.151552 C119.722983,260.43578 135.571474,237.267591 131.307103,213.148315 L131.162994,212.376491 C126.452623,188.03374 102.889147,172.116991 78.5381867,176.825212 Z" id="Path-Copy" fill="#1E8985" fill-rule="nonzero" style="mix-blend-mode: multiply;" opacity="0.1"></path>
        <path d="M1.20149254,2.40298507 C0.537926532,2.40298507 0,1.86505854 0,1.20149254 C0,0.537926532 0.537926532,0 1.20149254,0 C1.86505854,0 2.40298507,0.537926532 2.40298507,1.20149254 C2.40298507,1.86505854 1.86505854,2.40298507 1.20149254,2.40298507 Z M87.7089552,2.40298507 C87.0453892,2.40298507 86.5074627,1.86505854 86.5074627,1.20149254 C86.5074627,0.537926532 87.0453892,0 87.7089552,0 C88.3725212,0 88.9104478,0.537926532 88.9104478,1.20149254 C88.9104478,1.86505854 88.3725212,2.40298507 87.7089552,2.40298507 Z M87.7089552,88.9104478 C87.0453892,88.9104478 86.5074627,88.3725212 86.5074627,87.7089552 C86.5074627,87.0453892 87.0453892,86.5074627 87.7089552,86.5074627 C88.3725212,86.5074627 88.9104478,87.0453892 88.9104478,87.7089552 C88.9104478,88.3725212 88.3725212,88.9104478 87.7089552,88.9104478 Z M15.619403,2.40298507 C14.955837,2.40298507 14.4179104,1.86505854 14.4179104,1.20149254 C14.4179104,0.537926532 14.955837,0 15.619403,0 C16.282969,0 16.8208955,0.537926532 16.8208955,1.20149254 C16.8208955,1.86505854 16.282969,2.40298507 15.619403,2.40298507 Z M15.619403,88.9104478 C14.955837,88.9104478 14.4179104,88.3725212 14.4179104,87.7089552 C14.4179104,87.0453892 14.955837,86.5074627 15.619403,86.5074627 C16.282969,86.5074627 16.8208955,87.0453892 16.8208955,87.7089552 C16.8208955,88.3725212 16.282969,88.9104478 15.619403,88.9104478 Z M102.126866,2.40298507 C101.4633,2.40298507 100.925373,1.86505854 100.925373,1.20149254 C100.925373,0.537926532 101.4633,0 102.126866,0 C102.790432,0 103.328358,0.537926532 103.328358,1.20149254 C103.328358,1.86505854 102.790432,2.40298507 102.126866,2.40298507 Z M102.126866,88.9104478 C101.4633,88.9104478 100.925373,88.3725212 100.925373,87.7089552 C100.925373,87.0453892 101.4633,86.5074627 102.126866,86.5074627 C102.790432,86.5074627 103.328358,87.0453892 103.328358,87.7089552 C103.328358,88.3725212 102.790432,88.9104478 102.126866,88.9104478 Z M1.20149254,31.238806 C0.537926532,31.238806 0,30.7008794 0,30.0373134 C0,29.3737474 0.537926532,28.8358209 1.20149254,28.8358209 C1.86505854,28.8358209 2.40298507,29.3737474 2.40298507,30.0373134 C2.40298507,30.7008794 1.86505854,31.238806 1.20149254,31.238806 Z M87.7089552,31.238806 C87.0453892,31.238806 86.5074627,30.7008794 86.5074627,30.0373134 C86.5074627,29.3737474 87.0453892,28.8358209 87.7089552,28.8358209 C88.3725212,28.8358209 88.9104478,29.3737474 88.9104478,30.0373134 C88.9104478,30.7008794 88.3725212,31.238806 87.7089552,31.238806 Z M87.7089552,117.746269 C87.0453892,117.746269 86.5074627,117.208342 86.5074627,116.544776 C86.5074627,115.88121 87.0453892,115.343284 87.7089552,115.343284 C88.3725212,115.343284 88.9104478,115.88121 88.9104478,116.544776 C88.9104478,117.208342 88.3725212,117.746269 87.7089552,117.746269 Z M15.619403,31.238806 C14.955837,31.238806 14.4179104,30.7008794 14.4179104,30.0373134 C14.4179104,29.3737474 14.955837,28.8358209 15.619403,28.8358209 C16.282969,28.8358209 16.8208955,29.3737474 16.8208955,30.0373134 C16.8208955,30.7008794 16.282969,31.238806 15.619403,31.238806 Z M15.619403,117.746269 C14.955837,117.746269 14.4179104,117.208342 14.4179104,116.544776 C14.4179104,115.88121 14.955837,115.343284 15.619403,115.343284 C16.282969,115.343284 16.8208955,115.88121 16.8208955,116.544776 C16.8208955,117.208342 16.282969,117.746269 15.619403,117.746269 Z M102.126866,31.238806 C101.4633,31.238806 100.925373,30.7008794 100.925373,30.0373134 C100.925373,29.3737474 101.4633,28.8358209 102.126866,28.8358209 C102.790432,28.8358209 103.328358,29.3737474 103.328358,30.0373134 C103.328358,30.7008794 102.790432,31.238806 102.126866,31.238806 Z M102.126866,117.746269 C101.4633,117.746269 100.925373,117.208342 100.925373,116.544776 C100.925373,115.88121 101.4633,115.343284 102.126866,115.343284 C102.790432,115.343284 103.328358,115.88121 103.328358,116.544776 C103.328358,117.208342 102.790432,117.746269 102.126866,117.746269 Z M1.20149254,60.0746269 C0.537926532,60.0746269 0,59.5367003 0,58.8731343 C0,58.2095683 0.537926532,57.6716418 1.20149254,57.6716418 C1.86505854,57.6716418 2.40298507,58.2095683 2.40298507,58.8731343 C2.40298507,59.5367003 1.86505854,60.0746269 1.20149254,60.0746269 Z M87.7089552,60.0746269 C87.0453892,60.0746269 86.5074627,59.5367003 86.5074627,58.8731343 C86.5074627,58.2095683 87.0453892,57.6716418 87.7089552,57.6716418 C88.3725212,57.6716418 88.9104478,58.2095683 88.9104478,58.8731343 C88.9104478,59.5367003 88.3725212,60.0746269 87.7089552,60.0746269 Z M15.619403,60.0746269 C14.955837,60.0746269 14.4179104,59.5367003 14.4179104,58.8731343 C14.4179104,58.2095683 14.955837,57.6716418 15.619403,57.6716418 C16.282969,57.6716418 16.8208955,58.2095683 16.8208955,58.8731343 C16.8208955,59.5367003 16.282969,60.0746269 15.619403,60.0746269 Z M102.126866,60.0746269 C101.4633,60.0746269 100.925373,59.5367003 100.925373,58.8731343 C100.925373,58.2095683 101.4633,57.6716418 102.126866,57.6716418 C102.790432,57.6716418 103.328358,58.2095683 103.328358,58.8731343 C103.328358,59.5367003 102.790432,60.0746269 102.126866,60.0746269 Z M1.20149254,16.8208955 C0.537926532,16.8208955 0,16.282969 0,15.619403 C0,14.955837 0.537926532,14.4179104 1.20149254,14.4179104 C1.86505854,14.4179104 2.40298507,14.955837 2.40298507,15.619403 C2.40298507,16.282969 1.86505854,16.8208955 1.20149254,16.8208955 Z M87.7089552,16.8208955 C87.0453892,16.8208955 86.5074627,16.282969 86.5074627,15.619403 C86.5074627,14.955837 87.0453892,14.4179104 87.7089552,14.4179104 C88.3725212,14.4179104 88.9104478,14.955837 88.9104478,15.619403 C88.9104478,16.282969 88.3725212,16.8208955 87.7089552,16.8208955 Z M87.7089552,103.328358 C87.0453892,103.328358 86.5074627,102.790432 86.5074627,102.126866 C86.5074627,101.4633 87.0453892,100.925373 87.7089552,100.925373 C88.3725212,100.925373 88.9104478,101.4633 88.9104478,102.126866 C88.9104478,102.790432 88.3725212,103.328358 87.7089552,103.328358 Z M15.619403,16.8208955 C14.955837,16.8208955 14.4179104,16.282969 14.4179104,15.619403 C14.4179104,14.955837 14.955837,14.4179104 15.619403,14.4179104 C16.282969,14.4179104 16.8208955,14.955837 16.8208955,15.619403 C16.8208955,16.282969 16.282969,16.8208955 15.619403,16.8208955 Z M15.619403,103.328358 C14.955837,103.328358 14.4179104,102.790432 14.4179104,102.126866 C14.4179104,101.4633 14.955837,100.925373 15.619403,100.925373 C16.282969,100.925373 16.8208955,101.4633 16.8208955,102.126866 C16.8208955,102.790432 16.282969,103.328358 15.619403,103.328358 Z M102.126866,16.8208955 C101.4633,16.8208955 100.925373,16.282969 100.925373,15.619403 C100.925373,14.955837 101.4633,14.4179104 102.126866,14.4179104 C102.790432,14.4179104 103.328358,14.955837 103.328358,15.619403 C103.328358,16.282969 102.790432,16.8208955 102.126866,16.8208955 Z M102.126866,103.328358 C101.4633,103.328358 100.925373,102.790432 100.925373,102.126866 C100.925373,101.4633 101.4633,100.925373 102.126866,100.925373 C102.790432,100.925373 103.328358,101.4633 103.328358,102.126866 C103.328358,102.790432 102.790432,103.328358 102.126866,103.328358 Z M1.20149254,45.6567164 C0.537926532,45.6567164 0,45.1187899 0,44.4552239 C0,43.7916579 0.537926532,43.2537313 1.20149254,43.2537313 C1.86505854,43.2537313 2.40298507,43.7916579 2.40298507,44.4552239 C2.40298507,45.1187899 1.86505854,45.6567164 1.20149254,45.6567164 Z M87.7089552,45.6567164 C87.0453892,45.6567164 86.5074627,45.1187899 86.5074627,44.4552239 C86.5074627,43.7916579 87.0453892,43.2537313 87.7089552,43.2537313 C88.3725212,43.2537313 88.9104478,43.7916579 88.9104478,44.4552239 C88.9104478,45.1187899 88.3725212,45.6567164 87.7089552,45.6567164 Z M15.619403,45.6567164 C14.955837,45.6567164 14.4179104,45.1187899 14.4179104,44.4552239 C14.4179104,43.7916579 14.955837,43.2537313 15.619403,43.2537313 C16.282969,43.2537313 16.8208955,43.7916579 16.8208955,44.4552239 C16.8208955,45.1187899 16.282969,45.6567164 15.619403,45.6567164 Z M102.126866,45.6567164 C101.4633,45.6567164 100.925373,45.1187899 100.925373,44.4552239 C100.925373,43.7916579 101.4633,43.2537313 102.126866,43.2537313 C102.790432,43.2537313 103.328358,43.7916579 103.328358,44.4552239 C103.328358,45.1187899 102.790432,45.6567164 102.126866,45.6567164 Z M1.20149254,74.4925373 C0.537926532,74.4925373 0,73.9546108 0,73.2910448 C0,72.6274788 0.537926532,72.0895522 1.20149254,72.0895522 C1.86505854,72.0895522 2.40298507,72.6274788 2.40298507,73.2910448 C2.40298507,73.9546108 1.86505854,74.4925373 1.20149254,74.4925373 Z M87.7089552,74.4925373 C87.0453892,74.4925373 86.5074627,73.9546108 86.5074627,73.2910448 C86.5074627,72.6274788 87.0453892,72.0895522 87.7089552,72.0895522 C88.3725212,72.0895522 88.9104478,72.6274788 88.9104478,73.2910448 C88.9104478,73.9546108 88.3725212,74.4925373 87.7089552,74.4925373 Z M15.619403,74.4925373 C14.955837,74.4925373 14.4179104,73.9546108 14.4179104,73.2910448 C14.4179104,72.6274788 14.955837,72.0895522 15.619403,72.0895522 C16.282969,72.0895522 16.8208955,72.6274788 16.8208955,73.2910448 C16.8208955,73.9546108 16.282969,74.4925373 15.619403,74.4925373 Z M102.126866,74.4925373 C101.4633,74.4925373 100.925373,73.9546108 100.925373,73.2910448 C100.925373,72.6274788 101.4633,72.0895522 102.126866,72.0895522 C102.790432,72.0895522 103.328358,72.6274788 103.328358,73.2910448 C103.328358,73.9546108 102.790432,74.4925373 102.126866,74.4925373 Z M30.0373134,2.40298507 C29.3737474,2.40298507 28.8358209,1.86505854 28.8358209,1.20149254 C28.8358209,0.537926532 29.3737474,0 30.0373134,0 C30.7008794,0 31.238806,0.537926532 31.238806,1.20149254 C31.238806,1.86505854 30.7008794,2.40298507 30.0373134,2.40298507 Z M30.0373134,88.9104478 C29.3737474,88.9104478 28.8358209,88.3725212 28.8358209,87.7089552 C28.8358209,87.0453892 29.3737474,86.5074627 30.0373134,86.5074627 C30.7008794,86.5074627 31.238806,87.0453892 31.238806,87.7089552 C31.238806,88.3725212 30.7008794,88.9104478 30.0373134,88.9104478 Z M116.544776,2.40298507 C115.88121,2.40298507 115.343284,1.86505854 115.343284,1.20149254 C115.343284,0.537926532 115.88121,0 116.544776,0 C117.208342,0 117.746269,0.537926532 117.746269,1.20149254 C117.746269,1.86505854 117.208342,2.40298507 116.544776,2.40298507 Z M116.544776,88.9104478 C115.88121,88.9104478 115.343284,88.3725212 115.343284,87.7089552 C115.343284,87.0453892 115.88121,86.5074627 116.544776,86.5074627 C117.208342,86.5074627 117.746269,87.0453892 117.746269,87.7089552 C117.746269,88.3725212 117.208342,88.9104478 116.544776,88.9104478 Z M44.4552239,2.40298507 C43.7916579,2.40298507 43.2537313,1.86505854 43.2537313,1.20149254 C43.2537313,0.537926532 43.7916579,0 44.4552239,0 C45.1187899,0 45.6567164,0.537926532 45.6567164,1.20149254 C45.6567164,1.86505854 45.1187899,2.40298507 44.4552239,2.40298507 Z M44.4552239,88.9104478 C43.7916579,88.9104478 43.2537313,88.3725212 43.2537313,87.7089552 C43.2537313,87.0453892 43.7916579,86.5074627 44.4552239,86.5074627 C45.1187899,86.5074627 45.6567164,87.0453892 45.6567164,87.7089552 C45.6567164,88.3725212 45.1187899,88.9104478 44.4552239,88.9104478 Z M130.962687,2.40298507 C130.299121,2.40298507 129.761194,1.86505854 129.761194,1.20149254 C129.761194,0.537926532 130.299121,0 130.962687,0 C131.626253,0 132.164179,0.537926532 132.164179,1.20149254 C132.164179,1.86505854 131.626253,2.40298507 130.962687,2.40298507 Z M130.962687,88.9104478 C130.299121,88.9104478 129.761194,88.3725212 129.761194,87.7089552 C129.761194,87.0453892 130.299121,86.5074627 130.962687,86.5074627 C131.626253,86.5074627 132.164179,87.0453892 132.164179,87.7089552 C132.164179,88.3725212 131.626253,88.9104478 130.962687,88.9104478 Z M30.0373134,31.238806 C29.3737474,31.238806 28.8358209,30.7008794 28.8358209,30.0373134 C28.8358209,29.3737474 29.3737474,28.8358209 30.0373134,28.8358209 C30.7008794,28.8358209 31.238806,29.3737474 31.238806,30.0373134 C31.238806,30.7008794 30.7008794,31.238806 30.0373134,31.238806 Z M30.0373134,117.746269 C29.3737474,117.746269 28.8358209,117.208342 28.8358209,116.544776 C28.8358209,115.88121 29.3737474,115.343284 30.0373134,115.343284 C30.7008794,115.343284 31.238806,115.88121 31.238806,116.544776 C31.238806,117.208342 30.7008794,117.746269 30.0373134,117.746269 Z M116.544776,31.238806 C115.88121,31.238806 115.343284,30.7008794 115.343284,30.0373134 C115.343284,29.3737474 115.88121,28.8358209 116.544776,28.8358209 C117.208342,28.8358209 117.746269,29.3737474 117.746269,30.0373134 C117.746269,30.7008794 117.208342,31.238806 116.544776,31.238806 Z M116.544776,117.746269 C115.88121,117.746269 115.343284,117.208342 115.343284,116.544776 C115.343284,115.88121 115.88121,115.343284 116.544776,115.343284 C117.208342,115.343284 117.746269,115.88121 117.746269,116.544776 C117.746269,117.208342 117.208342,117.746269 116.544776,117.746269 Z M44.4552239,31.238806 C43.7916579,31.238806 43.2537313,30.7008794 43.2537313,30.0373134 C43.2537313,29.3737474 43.7916579,28.8358209 44.4552239,28.8358209 C45.1187899,28.8358209 45.6567164,29.3737474 45.6567164,30.0373134 C45.6567164,30.7008794 45.1187899,31.238806 44.4552239,31.238806 Z M44.4552239,117.746269 C43.7916579,117.746269 43.2537313,117.208342 43.2537313,116.544776 C43.2537313,115.88121 43.7916579,115.343284 44.4552239,115.343284 C45.1187899,115.343284 45.6567164,115.88121 45.6567164,116.544776 C45.6567164,117.208342 45.1187899,117.746269 44.4552239,117.746269 Z M130.962687,31.238806 C130.299121,31.238806 129.761194,30.7008794 129.761194,30.0373134 C129.761194,29.3737474 130.299121,28.8358209 130.962687,28.8358209 C131.626253,28.8358209 132.164179,29.3737474 132.164179,30.0373134 C132.164179,30.7008794 131.626253,31.238806 130.962687,31.238806 Z M130.962687,117.746269 C130.299121,117.746269 129.761194,117.208342 129.761194,116.544776 C129.761194,115.88121 130.299121,115.343284 130.962687,115.343284 C131.626253,115.343284 132.164179,115.88121 132.164179,116.544776 C132.164179,117.208342 131.626253,117.746269 130.962687,117.746269 Z M30.0373134,60.0746269 C29.3737474,60.0746269 28.8358209,59.5367003 28.8358209,58.8731343 C28.8358209,58.2095683 29.3737474,57.6716418 30.0373134,57.6716418 C30.7008794,57.6716418 31.238806,58.2095683 31.238806,58.8731343 C31.238806,59.5367003 30.7008794,60.0746269 30.0373134,60.0746269 Z M116.544776,60.0746269 C115.88121,60.0746269 115.343284,59.5367003 115.343284,58.8731343 C115.343284,58.2095683 115.88121,57.6716418 116.544776,57.6716418 C117.208342,57.6716418 117.746269,58.2095683 117.746269,58.8731343 C117.746269,59.5367003 117.208342,60.0746269 116.544776,60.0746269 Z M44.4552239,60.0746269 C43.7916579,60.0746269 43.2537313,59.5367003 43.2537313,58.8731343 C43.2537313,58.2095683 43.7916579,57.6716418 44.4552239,57.6716418 C45.1187899,57.6716418 45.6567164,58.2095683 45.6567164,58.8731343 C45.6567164,59.5367003 45.1187899,60.0746269 44.4552239,60.0746269 Z M130.962687,60.0746269 C130.299121,60.0746269 129.761194,59.5367003 129.761194,58.8731343 C129.761194,58.2095683 130.299121,57.6716418 130.962687,57.6716418 C131.626253,57.6716418 132.164179,58.2095683 132.164179,58.8731343 C132.164179,59.5367003 131.626253,60.0746269 130.962687,60.0746269 Z M30.0373134,16.8208955 C29.3737474,16.8208955 28.8358209,16.282969 28.8358209,15.619403 C28.8358209,14.955837 29.3737474,14.4179104 30.0373134,14.4179104 C30.7008794,14.4179104 31.238806,14.955837 31.238806,15.619403 C31.238806,16.282969 30.7008794,16.8208955 30.0373134,16.8208955 Z M30.0373134,103.328358 C29.3737474,103.328358 28.8358209,102.790432 28.8358209,102.126866 C28.8358209,101.4633 29.3737474,100.925373 30.0373134,100.925373 C30.7008794,100.925373 31.238806,101.4633 31.238806,102.126866 C31.238806,102.790432 30.7008794,103.328358 30.0373134,103.328358 Z M116.544776,16.8208955 C115.88121,16.8208955 115.343284,16.282969 115.343284,15.619403 C115.343284,14.955837 115.88121,14.4179104 116.544776,14.4179104 C117.208342,14.4179104 117.746269,14.955837 117.746269,15.619403 C117.746269,16.282969 117.208342,16.8208955 116.544776,16.8208955 Z M116.544776,103.328358 C115.88121,103.328358 115.343284,102.790432 115.343284,102.126866 C115.343284,101.4633 115.88121,100.925373 116.544776,100.925373 C117.208342,100.925373 117.746269,101.4633 117.746269,102.126866 C117.746269,102.790432 117.208342,103.328358 116.544776,103.328358 Z M44.4552239,16.8208955 C43.7916579,16.8208955 43.2537313,16.282969 43.2537313,15.619403 C43.2537313,14.955837 43.7916579,14.4179104 44.4552239,14.4179104 C45.1187899,14.4179104 45.6567164,14.955837 45.6567164,15.619403 C45.6567164,16.282969 45.1187899,16.8208955 44.4552239,16.8208955 Z M44.4552239,103.328358 C43.7916579,103.328358 43.2537313,102.790432 43.2537313,102.126866 C43.2537313,101.4633 43.7916579,100.925373 44.4552239,100.925373 C45.1187899,100.925373 45.6567164,101.4633 45.6567164,102.126866 C45.6567164,102.790432 45.1187899,103.328358 44.4552239,103.328358 Z M130.962687,16.8208955 C130.299121,16.8208955 129.761194,16.282969 129.761194,15.619403 C129.761194,14.955837 130.299121,14.4179104 130.962687,14.4179104 C131.626253,14.4179104 132.164179,14.955837 132.164179,15.619403 C132.164179,16.282969 131.626253,16.8208955 130.962687,16.8208955 Z M130.962687,103.328358 C130.299121,103.328358 129.761194,102.790432 129.761194,102.126866 C129.761194,101.4633 130.299121,100.925373 130.962687,100.925373 C131.626253,100.925373 132.164179,101.4633 132.164179,102.126866 C132.164179,102.790432 131.626253,103.328358 130.962687,103.328358 Z M30.0373134,45.6567164 C29.3737474,45.6567164 28.8358209,45.1187899 28.8358209,44.4552239 C28.8358209,43.7916579 29.3737474,43.2537313 30.0373134,43.2537313 C30.7008794,43.2537313 31.238806,43.7916579 31.238806,44.4552239 C31.238806,45.1187899 30.7008794,45.6567164 30.0373134,45.6567164 Z M116.544776,45.6567164 C115.88121,45.6567164 115.343284,45.1187899 115.343284,44.4552239 C115.343284,43.7916579 115.88121,43.2537313 116.544776,43.2537313 C117.208342,43.2537313 117.746269,43.7916579 117.746269,44.4552239 C117.746269,45.1187899 117.208342,45.6567164 116.544776,45.6567164 Z M44.4552239,45.6567164 C43.7916579,45.6567164 43.2537313,45.1187899 43.2537313,44.4552239 C43.2537313,43.7916579 43.7916579,43.2537313 44.4552239,43.2537313 C45.1187899,43.2537313 45.6567164,43.7916579 45.6567164,44.4552239 C45.6567164,45.1187899 45.1187899,45.6567164 44.4552239,45.6567164 Z M130.962687,45.6567164 C130.299121,45.6567164 129.761194,45.1187899 129.761194,44.4552239 C129.761194,43.7916579 130.299121,43.2537313 130.962687,43.2537313 C131.626253,43.2537313 132.164179,43.7916579 132.164179,44.4552239 C132.164179,45.1187899 131.626253,45.6567164 130.962687,45.6567164 Z M30.0373134,74.4925373 C29.3737474,74.4925373 28.8358209,73.9546108 28.8358209,73.2910448 C28.8358209,72.6274788 29.3737474,72.0895522 30.0373134,72.0895522 C30.7008794,72.0895522 31.238806,72.6274788 31.238806,73.2910448 C31.238806,73.9546108 30.7008794,74.4925373 30.0373134,74.4925373 Z M116.544776,74.4925373 C115.88121,74.4925373 115.343284,73.9546108 115.343284,73.2910448 C115.343284,72.6274788 115.88121,72.0895522 116.544776,72.0895522 C117.208342,72.0895522 117.746269,72.6274788 117.746269,73.2910448 C117.746269,73.9546108 117.208342,74.4925373 116.544776,74.4925373 Z M44.4552239,74.4925373 C43.7916579,74.4925373 43.2537313,73.9546108 43.2537313,73.2910448 C43.2537313,72.6274788 43.7916579,72.0895522 44.4552239,72.0895522 C45.1187899,72.0895522 45.6567164,72.6274788 45.6567164,73.2910448 C45.6567164,73.9546108 45.1187899,74.4925373 44.4552239,74.4925373 Z M130.962687,74.4925373 C130.299121,74.4925373 129.761194,73.9546108 129.761194,73.2910448 C129.761194,72.6274788 130.299121,72.0895522 130.962687,72.0895522 C131.626253,72.0895522 132.164179,72.6274788 132.164179,73.2910448 C132.164179,73.9546108 131.626253,74.4925373 130.962687,74.4925373 Z M58.8731343,2.40298507 C58.2095683,2.40298507 57.6716418,1.86505854 57.6716418,1.20149254 C57.6716418,0.537926532 58.2095683,0 58.8731343,0 C59.5367003,0 60.0746269,0.537926532 60.0746269,1.20149254 C60.0746269,1.86505854 59.5367003,2.40298507 58.8731343,2.40298507 Z M58.8731343,88.9104478 C58.2095683,88.9104478 57.6716418,88.3725212 57.6716418,87.7089552 C57.6716418,87.0453892 58.2095683,86.5074627 58.8731343,86.5074627 C59.5367003,86.5074627 60.0746269,87.0453892 60.0746269,87.7089552 C60.0746269,88.3725212 59.5367003,88.9104478 58.8731343,88.9104478 Z M73.2910448,2.40298507 C72.6274788,2.40298507 72.0895522,1.86505854 72.0895522,1.20149254 C72.0895522,0.537926532 72.6274788,0 73.2910448,0 C73.9546108,0 74.4925373,0.537926532 74.4925373,1.20149254 C74.4925373,1.86505854 73.9546108,2.40298507 73.2910448,2.40298507 Z M73.2910448,88.9104478 C72.6274788,88.9104478 72.0895522,88.3725212 72.0895522,87.7089552 C72.0895522,87.0453892 72.6274788,86.5074627 73.2910448,86.5074627 C73.9546108,86.5074627 74.4925373,87.0453892 74.4925373,87.7089552 C74.4925373,88.3725212 73.9546108,88.9104478 73.2910448,88.9104478 Z M58.8731343,31.238806 C58.2095683,31.238806 57.6716418,30.7008794 57.6716418,30.0373134 C57.6716418,29.3737474 58.2095683,28.8358209 58.8731343,28.8358209 C59.5367003,28.8358209 60.0746269,29.3737474 60.0746269,30.0373134 C60.0746269,30.7008794 59.5367003,31.238806 58.8731343,31.238806 Z M58.8731343,117.746269 C58.2095683,117.746269 57.6716418,117.208342 57.6716418,116.544776 C57.6716418,115.88121 58.2095683,115.343284 58.8731343,115.343284 C59.5367003,115.343284 60.0746269,115.88121 60.0746269,116.544776 C60.0746269,117.208342 59.5367003,117.746269 58.8731343,117.746269 Z M73.2910448,31.238806 C72.6274788,31.238806 72.0895522,30.7008794 72.0895522,30.0373134 C72.0895522,29.3737474 72.6274788,28.8358209 73.2910448,28.8358209 C73.9546108,28.8358209 74.4925373,29.3737474 74.4925373,30.0373134 C74.4925373,30.7008794 73.9546108,31.238806 73.2910448,31.238806 Z M73.2910448,117.746269 C72.6274788,117.746269 72.0895522,117.208342 72.0895522,116.544776 C72.0895522,115.88121 72.6274788,115.343284 73.2910448,115.343284 C73.9546108,115.343284 74.4925373,115.88121 74.4925373,116.544776 C74.4925373,117.208342 73.9546108,117.746269 73.2910448,117.746269 Z M58.8731343,60.0746269 C58.2095683,60.0746269 57.6716418,59.5367003 57.6716418,58.8731343 C57.6716418,58.2095683 58.2095683,57.6716418 58.8731343,57.6716418 C59.5367003,57.6716418 60.0746269,58.2095683 60.0746269,58.8731343 C60.0746269,59.5367003 59.5367003,60.0746269 58.8731343,60.0746269 Z M73.2910448,60.0746269 C72.6274788,60.0746269 72.0895522,59.5367003 72.0895522,58.8731343 C72.0895522,58.2095683 72.6274788,57.6716418 73.2910448,57.6716418 C73.9546108,57.6716418 74.4925373,58.2095683 74.4925373,58.8731343 C74.4925373,59.5367003 73.9546108,60.0746269 73.2910448,60.0746269 Z M58.8731343,16.8208955 C58.2095683,16.8208955 57.6716418,16.282969 57.6716418,15.619403 C57.6716418,14.955837 58.2095683,14.4179104 58.8731343,14.4179104 C59.5367003,14.4179104 60.0746269,14.955837 60.0746269,15.619403 C60.0746269,16.282969 59.5367003,16.8208955 58.8731343,16.8208955 Z M58.8731343,103.328358 C58.2095683,103.328358 57.6716418,102.790432 57.6716418,102.126866 C57.6716418,101.4633 58.2095683,100.925373 58.8731343,100.925373 C59.5367003,100.925373 60.0746269,101.4633 60.0746269,102.126866 C60.0746269,102.790432 59.5367003,103.328358 58.8731343,103.328358 Z M73.2910448,16.8208955 C72.6274788,16.8208955 72.0895522,16.282969 72.0895522,15.619403 C72.0895522,14.955837 72.6274788,14.4179104 73.2910448,14.4179104 C73.9546108,14.4179104 74.4925373,14.955837 74.4925373,15.619403 C74.4925373,16.282969 73.9546108,16.8208955 73.2910448,16.8208955 Z M73.2910448,103.328358 C72.6274788,103.328358 72.0895522,102.790432 72.0895522,102.126866 C72.0895522,101.4633 72.6274788,100.925373 73.2910448,100.925373 C73.9546108,100.925373 74.4925373,101.4633 74.4925373,102.126866 C74.4925373,102.790432 73.9546108,103.328358 73.2910448,103.328358 Z M58.8731343,45.6567164 C58.2095683,45.6567164 57.6716418,45.1187899 57.6716418,44.4552239 C57.6716418,43.7916579 58.2095683,43.2537313 58.8731343,43.2537313 C59.5367003,43.2537313 60.0746269,43.7916579 60.0746269,44.4552239 C60.0746269,45.1187899 59.5367003,45.6567164 58.8731343,45.6567164 Z M73.2910448,45.6567164 C72.6274788,45.6567164 72.0895522,45.1187899 72.0895522,44.4552239 C72.0895522,43.7916579 72.6274788,43.2537313 73.2910448,43.2537313 C73.9546108,43.2537313 74.4925373,43.7916579 74.4925373,44.4552239 C74.4925373,45.1187899 73.9546108,45.6567164 73.2910448,45.6567164 Z M58.8731343,74.4925373 C58.2095683,74.4925373 57.6716418,73.9546108 57.6716418,73.2910448 C57.6716418,72.6274788 58.2095683,72.0895522 58.8731343,72.0895522 C59.5367003,72.0895522 60.0746269,72.6274788 60.0746269,73.2910448 C60.0746269,73.9546108 59.5367003,74.4925373 58.8731343,74.4925373 Z M73.2910448,74.4925373 C72.6274788,74.4925373 72.0895522,73.9546108 72.0895522,73.2910448 C72.0895522,72.6274788 72.6274788,72.0895522 73.2910448,72.0895522 C73.9546108,72.0895522 74.4925373,72.6274788 74.4925373,73.2910448 C74.4925373,73.9546108 73.9546108,74.4925373 73.2910448,74.4925373 Z M145.380597,2.40298507 C144.717031,2.40298507 144.179104,1.86505854 144.179104,1.20149254 C144.179104,0.537926532 144.717031,0 145.380597,0 C146.044163,0 146.58209,0.537926532 146.58209,1.20149254 C146.58209,1.86505854 146.044163,2.40298507 145.380597,2.40298507 Z M145.380597,88.9104478 C144.717031,88.9104478 144.179104,88.3725212 144.179104,87.7089552 C144.179104,87.0453892 144.717031,86.5074627 145.380597,86.5074627 C146.044163,86.5074627 146.58209,87.0453892 146.58209,87.7089552 C146.58209,88.3725212 146.044163,88.9104478 145.380597,88.9104478 Z M145.380597,31.238806 C144.717031,31.238806 144.179104,30.7008794 144.179104,30.0373134 C144.179104,29.3737474 144.717031,28.8358209 145.380597,28.8358209 C146.044163,28.8358209 146.58209,29.3737474 146.58209,30.0373134 C146.58209,30.7008794 146.044163,31.238806 145.380597,31.238806 Z M145.380597,117.746269 C144.717031,117.746269 144.179104,117.208342 144.179104,116.544776 C144.179104,115.88121 144.717031,115.343284 145.380597,115.343284 C146.044163,115.343284 146.58209,115.88121 146.58209,116.544776 C146.58209,117.208342 146.044163,117.746269 145.380597,117.746269 Z M145.380597,60.0746269 C144.717031,60.0746269 144.179104,59.5367003 144.179104,58.8731343 C144.179104,58.2095683 144.717031,57.6716418 145.380597,57.6716418 C146.044163,57.6716418 146.58209,58.2095683 146.58209,58.8731343 C146.58209,59.5367003 146.044163,60.0746269 145.380597,60.0746269 Z M145.380597,16.8208955 C144.717031,16.8208955 144.179104,16.282969 144.179104,15.619403 C144.179104,14.955837 144.717031,14.4179104 145.380597,14.4179104 C146.044163,14.4179104 146.58209,14.955837 146.58209,15.619403 C146.58209,16.282969 146.044163,16.8208955 145.380597,16.8208955 Z M145.380597,103.328358 C144.717031,103.328358 144.179104,102.790432 144.179104,102.126866 C144.179104,101.4633 144.717031,100.925373 145.380597,100.925373 C146.044163,100.925373 146.58209,101.4633 146.58209,102.126866 C146.58209,102.790432 146.044163,103.328358 145.380597,103.328358 Z M145.380597,45.6567164 C144.717031,45.6567164 144.179104,45.1187899 144.179104,44.4552239 C144.179104,43.7916579 144.717031,43.2537313 145.380597,43.2537313 C146.044163,43.2537313 146.58209,43.7916579 146.58209,44.4552239 C146.58209,45.1187899 146.044163,45.6567164 145.380597,45.6567164 Z M145.380597,74.4925373 C144.717031,74.4925373 144.179104,73.9546108 144.179104,73.2910448 C144.179104,72.6274788 144.717031,72.0895522 145.380597,72.0895522 C146.044163,72.0895522 146.58209,72.6274788 146.58209,73.2910448 C146.58209,73.9546108 146.044163,74.4925373 145.380597,74.4925373 Z M159.798507,2.40298507 C159.134941,2.40298507 158.597015,1.86505854 158.597015,1.20149254 C158.597015,0.537926532 159.134941,0 159.798507,0 C160.462073,0 161,0.537926532 161,1.20149254 C161,1.86505854 160.462073,2.40298507 159.798507,2.40298507 Z M159.798507,31.238806 C159.134941,31.238806 158.597015,30.7008794 158.597015,30.0373134 C158.597015,29.3737474 159.134941,28.8358209 159.798507,28.8358209 C160.462073,28.8358209 161,29.3737474 161,30.0373134 C161,30.7008794 160.462073,31.238806 159.798507,31.238806 Z M159.798507,60.0746269 C159.134941,60.0746269 158.597015,59.5367003 158.597015,58.8731343 C158.597015,58.2095683 159.134941,57.6716418 159.798507,57.6716418 C160.462073,57.6716418 161,58.2095683 161,58.8731343 C161,59.5367003 160.462073,60.0746269 159.798507,60.0746269 Z M159.798507,16.8208955 C159.134941,16.8208955 158.597015,16.282969 158.597015,15.619403 C158.597015,14.955837 159.134941,14.4179104 159.798507,14.4179104 C160.462073,14.4179104 161,14.955837 161,15.619403 C161,16.282969 160.462073,16.8208955 159.798507,16.8208955 Z M159.798507,45.6567164 C159.134941,45.6567164 158.597015,45.1187899 158.597015,44.4552239 C158.597015,43.7916579 159.134941,43.2537313 159.798507,43.2537313 C160.462073,43.2537313 161,43.7916579 161,44.4552239 C161,45.1187899 160.462073,45.6567164 159.798507,45.6567164 Z M159.798507,74.4925373 C159.134941,74.4925373 158.597015,73.9546108 158.597015,73.2910448 C158.597015,72.6274788 159.134941,72.0895522 159.798507,72.0895522 C160.462073,72.0895522 161,72.6274788 161,73.2910448 C161,73.9546108 160.462073,74.4925373 159.798507,74.4925373 Z M1.20149254,88.9104478 C0.537926532,88.9104478 0,88.3725212 0,87.7089552 C0,87.0453892 0.537926532,86.5074627 1.20149254,86.5074627 C1.86505854,86.5074627 2.40298507,87.0453892 2.40298507,87.7089552 C2.40298507,88.3725212 1.86505854,88.9104478 1.20149254,88.9104478 Z M1.20149254,117.746269 C0.537926532,117.746269 0,117.208342 0,116.544776 C0,115.88121 0.537926532,115.343284 1.20149254,115.343284 C1.86505854,115.343284 2.40298507,115.88121 2.40298507,116.544776 C2.40298507,117.208342 1.86505854,117.746269 1.20149254,117.746269 Z M1.20149254,146.58209 C0.537926532,146.58209 0,146.044163 0,145.380597 C0,144.717031 0.537926532,144.179104 1.20149254,144.179104 C1.86505854,144.179104 2.40298507,144.717031 2.40298507,145.380597 C2.40298507,146.044163 1.86505854,146.58209 1.20149254,146.58209 Z M87.7089552,146.58209 C87.0453892,146.58209 86.5074627,146.044163 86.5074627,145.380597 C86.5074627,144.717031 87.0453892,144.179104 87.7089552,144.179104 C88.3725212,144.179104 88.9104478,144.717031 88.9104478,145.380597 C88.9104478,146.044163 88.3725212,146.58209 87.7089552,146.58209 Z M15.619403,146.58209 C14.955837,146.58209 14.4179104,146.044163 14.4179104,145.380597 C14.4179104,144.717031 14.955837,144.179104 15.619403,144.179104 C16.282969,144.179104 16.8208955,144.717031 16.8208955,145.380597 C16.8208955,146.044163 16.282969,146.58209 15.619403,146.58209 Z M102.126866,146.58209 C101.4633,146.58209 100.925373,146.044163 100.925373,145.380597 C100.925373,144.717031 101.4633,144.179104 102.126866,144.179104 C102.790432,144.179104 103.328358,144.717031 103.328358,145.380597 C103.328358,146.044163 102.790432,146.58209 102.126866,146.58209 Z M1.20149254,103.328358 C0.537926532,103.328358 0,102.790432 0,102.126866 C0,101.4633 0.537926532,100.925373 1.20149254,100.925373 C1.86505854,100.925373 2.40298507,101.4633 2.40298507,102.126866 C2.40298507,102.790432 1.86505854,103.328358 1.20149254,103.328358 Z M1.20149254,132.164179 C0.537926532,132.164179 0,131.626253 0,130.962687 C0,130.299121 0.537926532,129.761194 1.20149254,129.761194 C1.86505854,129.761194 2.40298507,130.299121 2.40298507,130.962687 C2.40298507,131.626253 1.86505854,132.164179 1.20149254,132.164179 Z M87.7089552,132.164179 C87.0453892,132.164179 86.5074627,131.626253 86.5074627,130.962687 C86.5074627,130.299121 87.0453892,129.761194 87.7089552,129.761194 C88.3725212,129.761194 88.9104478,130.299121 88.9104478,130.962687 C88.9104478,131.626253 88.3725212,132.164179 87.7089552,132.164179 Z M15.619403,132.164179 C14.955837,132.164179 14.4179104,131.626253 14.4179104,130.962687 C14.4179104,130.299121 14.955837,129.761194 15.619403,129.761194 C16.282969,129.761194 16.8208955,130.299121 16.8208955,130.962687 C16.8208955,131.626253 16.282969,132.164179 15.619403,132.164179 Z M102.126866,132.164179 C101.4633,132.164179 100.925373,131.626253 100.925373,130.962687 C100.925373,130.299121 101.4633,129.761194 102.126866,129.761194 C102.790432,129.761194 103.328358,130.299121 103.328358,130.962687 C103.328358,131.626253 102.790432,132.164179 102.126866,132.164179 Z M30.0373134,146.58209 C29.3737474,146.58209 28.8358209,146.044163 28.8358209,145.380597 C28.8358209,144.717031 29.3737474,144.179104 30.0373134,144.179104 C30.7008794,144.179104 31.238806,144.717031 31.238806,145.380597 C31.238806,146.044163 30.7008794,146.58209 30.0373134,146.58209 Z M116.544776,146.58209 C115.88121,146.58209 115.343284,146.044163 115.343284,145.380597 C115.343284,144.717031 115.88121,144.179104 116.544776,144.179104 C117.208342,144.179104 117.746269,144.717031 117.746269,145.380597 C117.746269,146.044163 117.208342,146.58209 116.544776,146.58209 Z M44.4552239,146.58209 C43.7916579,146.58209 43.2537313,146.044163 43.2537313,145.380597 C43.2537313,144.717031 43.7916579,144.179104 44.4552239,144.179104 C45.1187899,144.179104 45.6567164,144.717031 45.6567164,145.380597 C45.6567164,146.044163 45.1187899,146.58209 44.4552239,146.58209 Z M130.962687,146.58209 C130.299121,146.58209 129.761194,146.044163 129.761194,145.380597 C129.761194,144.717031 130.299121,144.179104 130.962687,144.179104 C131.626253,144.179104 132.164179,144.717031 132.164179,145.380597 C132.164179,146.044163 131.626253,146.58209 130.962687,146.58209 Z M30.0373134,132.164179 C29.3737474,132.164179 28.8358209,131.626253 28.8358209,130.962687 C28.8358209,130.299121 29.3737474,129.761194 30.0373134,129.761194 C30.7008794,129.761194 31.238806,130.299121 31.238806,130.962687 C31.238806,131.626253 30.7008794,132.164179 30.0373134,132.164179 Z M116.544776,132.164179 C115.88121,132.164179 115.343284,131.626253 115.343284,130.962687 C115.343284,130.299121 115.88121,129.761194 116.544776,129.761194 C117.208342,129.761194 117.746269,130.299121 117.746269,130.962687 C117.746269,131.626253 117.208342,132.164179 116.544776,132.164179 Z M44.4552239,132.164179 C43.7916579,132.164179 43.2537313,131.626253 43.2537313,130.962687 C43.2537313,130.299121 43.7916579,129.761194 44.4552239,129.761194 C45.1187899,129.761194 45.6567164,130.299121 45.6567164,130.962687 C45.6567164,131.626253 45.1187899,132.164179 44.4552239,132.164179 Z M130.962687,132.164179 C130.299121,132.164179 129.761194,131.626253 129.761194,130.962687 C129.761194,130.299121 130.299121,129.761194 130.962687,129.761194 C131.626253,129.761194 132.164179,130.299121 132.164179,130.962687 C132.164179,131.626253 131.626253,132.164179 130.962687,132.164179 Z M58.8731343,146.58209 C58.2095683,146.58209 57.6716418,146.044163 57.6716418,145.380597 C57.6716418,144.717031 58.2095683,144.179104 58.8731343,144.179104 C59.5367003,144.179104 60.0746269,144.717031 60.0746269,145.380597 C60.0746269,146.044163 59.5367003,146.58209 58.8731343,146.58209 Z M73.2910448,146.58209 C72.6274788,146.58209 72.0895522,146.044163 72.0895522,145.380597 C72.0895522,144.717031 72.6274788,144.179104 73.2910448,144.179104 C73.9546108,144.179104 74.4925373,144.717031 74.4925373,145.380597 C74.4925373,146.044163 73.9546108,146.58209 73.2910448,146.58209 Z M58.8731343,132.164179 C58.2095683,132.164179 57.6716418,131.626253 57.6716418,130.962687 C57.6716418,130.299121 58.2095683,129.761194 58.8731343,129.761194 C59.5367003,129.761194 60.0746269,130.299121 60.0746269,130.962687 C60.0746269,131.626253 59.5367003,132.164179 58.8731343,132.164179 Z M73.2910448,132.164179 C72.6274788,132.164179 72.0895522,131.626253 72.0895522,130.962687 C72.0895522,130.299121 72.6274788,129.761194 73.2910448,129.761194 C73.9546108,129.761194 74.4925373,130.299121 74.4925373,130.962687 C74.4925373,131.626253 73.9546108,132.164179 73.2910448,132.164179 Z M145.380597,146.58209 C144.717031,146.58209 144.179104,146.044163 144.179104,145.380597 C144.179104,144.717031 144.717031,144.179104 145.380597,144.179104 C146.044163,144.179104 146.58209,144.717031 146.58209,145.380597 C146.58209,146.044163 146.044163,146.58209 145.380597,146.58209 Z M145.380597,132.164179 C144.717031,132.164179 144.179104,131.626253 144.179104,130.962687 C144.179104,130.299121 144.717031,129.761194 145.380597,129.761194 C146.044163,129.761194 146.58209,130.299121 146.58209,130.962687 C146.58209,131.626253 146.044163,132.164179 145.380597,132.164179 Z M159.798507,88.9104478 C159.134941,88.9104478 158.597015,88.3725212 158.597015,87.7089552 C158.597015,87.0453892 159.134941,86.5074627 159.798507,86.5074627 C160.462073,86.5074627 161,87.0453892 161,87.7089552 C161,88.3725212 160.462073,88.9104478 159.798507,88.9104478 Z M159.798507,117.746269 C159.134941,117.746269 158.597015,117.208342 158.597015,116.544776 C158.597015,115.88121 159.134941,115.343284 159.798507,115.343284 C160.462073,115.343284 161,115.88121 161,116.544776 C161,117.208342 160.462073,117.746269 159.798507,117.746269 Z M159.798507,146.58209 C159.134941,146.58209 158.597015,146.044163 158.597015,145.380597 C158.597015,144.717031 159.134941,144.179104 159.798507,144.179104 C160.462073,144.179104 161,144.717031 161,145.380597 C161,146.044163 160.462073,146.58209 159.798507,146.58209 Z M159.798507,103.328358 C159.134941,103.328358 158.597015,102.790432 158.597015,102.126866 C158.597015,101.4633 159.134941,100.925373 159.798507,100.925373 C160.462073,100.925373 161,101.4633 161,102.126866 C161,102.790432 160.462073,103.328358 159.798507,103.328358 Z M159.798507,132.164179 C159.134941,132.164179 158.597015,131.626253 158.597015,130.962687 C158.597015,130.299121 159.134941,129.761194 159.798507,129.761194 C160.462073,129.761194 161,130.299121 161,130.962687 C161,131.626253 160.462073,132.164179 159.798507,132.164179 Z M1.20149254,161 C0.537926532,161 0,160.462073 0,159.798507 C0,159.134941 0.537926532,158.597015 1.20149254,158.597015 C1.86505854,158.597015 2.40298507,159.134941 2.40298507,159.798507 C2.40298507,160.462073 1.86505854,161 1.20149254,161 Z M87.7089552,161 C87.0453892,161 86.5074627,160.462073 86.5074627,159.798507 C86.5074627,159.134941 87.0453892,158.597015 87.7089552,158.597015 C88.3725212,158.597015 88.9104478,159.134941 88.9104478,159.798507 C88.9104478,160.462073 88.3725212,161 87.7089552,161 Z M15.619403,161 C14.955837,161 14.4179104,160.462073 14.4179104,159.798507 C14.4179104,159.134941 14.955837,158.597015 15.619403,158.597015 C16.282969,158.597015 16.8208955,159.134941 16.8208955,159.798507 C16.8208955,160.462073 16.282969,161 15.619403,161 Z M102.126866,161 C101.4633,161 100.925373,160.462073 100.925373,159.798507 C100.925373,159.134941 101.4633,158.597015 102.126866,158.597015 C102.790432,158.597015 103.328358,159.134941 103.328358,159.798507 C103.328358,160.462073 102.790432,161 102.126866,161 Z M30.0373134,161 C29.3737474,161 28.8358209,160.462073 28.8358209,159.798507 C28.8358209,159.134941 29.3737474,158.597015 30.0373134,158.597015 C30.7008794,158.597015 31.238806,159.134941 31.238806,159.798507 C31.238806,160.462073 30.7008794,161 30.0373134,161 Z M116.544776,161 C115.88121,161 115.343284,160.462073 115.343284,159.798507 C115.343284,159.134941 115.88121,158.597015 116.544776,158.597015 C117.208342,158.597015 117.746269,159.134941 117.746269,159.798507 C117.746269,160.462073 117.208342,161 116.544776,161 Z M44.4552239,161 C43.7916579,161 43.2537313,160.462073 43.2537313,159.798507 C43.2537313,159.134941 43.7916579,158.597015 44.4552239,158.597015 C45.1187899,158.597015 45.6567164,159.134941 45.6567164,159.798507 C45.6567164,160.462073 45.1187899,161 44.4552239,161 Z M130.962687,161 C130.299121,161 129.761194,160.462073 129.761194,159.798507 C129.761194,159.134941 130.299121,158.597015 130.962687,158.597015 C131.626253,158.597015 132.164179,159.134941 132.164179,159.798507 C132.164179,160.462073 131.626253,161 130.962687,161 Z M58.8731343,161 C58.2095683,161 57.6716418,160.462073 57.6716418,159.798507 C57.6716418,159.134941 58.2095683,158.597015 58.8731343,158.597015 C59.5367003,158.597015 60.0746269,159.134941 60.0746269,159.798507 C60.0746269,160.462073 59.5367003,161 58.8731343,161 Z M73.2910448,161 C72.6274788,161 72.0895522,160.462073 72.0895522,159.798507 C72.0895522,159.134941 72.6274788,158.597015 73.2910448,158.597015 C73.9546108,158.597015 74.4925373,159.134941 74.4925373,159.798507 C74.4925373,160.462073 73.9546108,161 73.2910448,161 Z M145.380597,161 C144.717031,161 144.179104,160.462073 144.179104,159.798507 C144.179104,159.134941 144.717031,158.597015 145.380597,158.597015 C146.044163,158.597015 146.58209,159.134941 146.58209,159.798507 C146.58209,160.462073 146.044163,161 145.380597,161 Z M159.798507,161 C159.134941,161 158.597015,160.462073 158.597015,159.798507 C158.597015,159.134941 159.134941,158.597015 159.798507,158.597015 C160.462073,158.597015 161,159.134941 161,159.798507 C161,160.462073 160.462073,161 159.798507,161 Z" id="Shape" fill="#B8B9C5"></path>
    </g>
</svg>