<svg xmlns="http://www.w3.org/2000/svg" width="285" height="97" viewBox="0 0 285 97">
  <g fill="none" fill-rule="evenodd" transform="translate(-3 -8)">
    <g transform="translate(8.052 52.525)">
      <path fill="#212446" d="M131.588243,6.08059569 C135.665213,6.08059569 140.05987,6.72754767 144.847392,8.17505101 L145.534005,8.38729971 L145.534005,17.0256783 L142.955357,17.0256783 C139.943061,12.2856078 135.945794,9.18563499 130.978084,9.18563499 C127.143526,9.18563499 124.702164,11.3142878 124.702164,14.2419997 C124.702164,18.1439267 128.538175,19.4742442 135.249196,22.2246287 C144.226521,25.9492283 149.192052,28.0511011 149.192052,36.4166125 C149.192052,46.2130477 141.089288,52.2935687 129.583435,52.2935687 C124.135588,52.2935687 118.607823,51.1452554 112.921359,48.9284156 L112.238217,48.657271 L112.238217,35.4735202 L115.021703,35.4735202 C117.746353,44.3970702 122.862245,49.1892532 129.583435,49.1892532 C133.418719,49.1892532 135.597132,47.2379278 135.597132,44.0445867 C135.597132,39.1662732 132.024797,37.8359557 125.835316,35.2636224 C117.032322,31.6258771 112.238217,28.7879146 112.238217,21.3372678 C112.238217,12.2009249 119.647289,6.08059569 131.588243,6.08059569 Z M261.612515,7.29814747 C272.387758,7.29814747 279.667326,14.2114298 279.826015,25.3709875 L279.828663,25.7445418 L255.162264,25.7445418 C255.5102,36.0888825 262.919272,43.1566468 271.374331,43.1566468 C273.567484,43.1566468 275.488464,42.6527119 277.197224,41.5929474 L277.515144,41.3877153 L279.653605,43.5026162 C274.772334,49.2776998 268.409975,52.2937135 261.350292,52.2937135 C254.900041,52.2937135 249.060676,49.6214979 244.963895,44.7938493 C241.564438,40.8296768 239.909019,36.0027521 239.909019,30.4860598 C239.909019,24.8832372 241.477273,19.9694582 244.876729,15.4870553 C248.44979,10.6601306 255.162264,7.29814747 261.612515,7.29814747 Z M193.628905,6.8984008 C194.353832,6.52565133 195.218224,7.04967194 195.218224,7.86320672 L195.218224,7.86320672 L195.218224,42.1214166 C195.218224,46.7442338 196.769771,48.7310247 200.797142,48.6448942 L200.797142,48.6448942 L200.797142,51.0746418 L180.313641,51.0746418 L180.313641,45.8293691 C177.00135,50.5325265 172.295137,52.2934964 166.279987,52.2934964 C157.389827,52.2934964 152.857945,47.3196432 152.857945,37.3719369 L152.857945,37.3719369 L152.855766,20.5345175 C152.853587,19.5755018 152.330593,18.6997215 151.503973,18.2705168 L151.503973,18.2705168 L147.972316,17.0256059 L167.654297,6.8984008 C168.37995,6.52565133 169.243616,7.04967194 169.243616,7.86320672 L169.243616,7.86320672 L169.243616,36.8290978 C169.243616,42.6172096 170.290329,45.3299572 174.212052,45.3299572 C177.78584,45.3299572 178.918992,42.5267364 178.918992,36.8290978 L178.918992,36.8290978 L178.830374,20.5345175 C178.828195,19.5755018 178.305201,18.6997215 177.478581,18.2705168 L177.478581,18.2705168 L173.946197,17.0256059 Z M54.011846,0.000291807562 L54.011846,2.4322107 C48.5204162,2.7789039 47.2136593,4.51671261 47.2136593,9.90095209 L47.2136593,41.1764424 C47.2136593,46.5614056 48.5204162,48.2984906 54.011846,48.6459075 L54.011846,51.0778264 L21.2390513,51.0778264 L21.2390513,48.6459075 C26.7297547,48.2984906 28.0372379,46.5614056 28.0372379,41.1764424 L28.0372379,9.90095209 C28.0372379,4.51671261 26.7297547,2.7789039 21.2390513,2.4322107 L21.2390513,0.000291807562 L54.011846,0.000291807562 Z M233.922271,6.43705999 C238.106218,6.43705999 240.895515,9.19974881 240.895515,13.387571 C240.895515,17.0405159 238.629211,19.4463785 235.05615,19.4463785 C230.959369,19.4463785 229.477554,15.5263569 227.733517,15.5263569 C225.342006,15.5263569 225.132189,18.6580104 225.119928,25.1029297 L225.119277,42.2557511 C225.119277,46.8025709 226.752905,48.6576329 231.130794,48.5801878 C231.131521,48.5809116 231.132247,48.5816354 231.132974,48.5823592 L231.132974,51.0779712 L203.24145,51.0779712 L203.24145,48.5823592 C203.242176,48.5816354 203.242902,48.5809116 203.244355,48.579464 C207.275762,48.6641469 208.732879,46.8098088 208.732879,42.2557511 L208.732879,25.8612884 C208.732879,23.4561495 208.471383,22.2973691 206.292244,20.7824863 L200.818247,17.0260402 L222.43022,6.81559975 C223.152967,6.47469683 223.986125,6.99944124 223.986125,7.79705273 L223.986125,13.7436735 C226.775422,8.93194822 230.087713,6.43705999 233.922271,6.43705999 Z M90.4479909,7.32297331 C99.7739786,7.32297331 104.306587,12.0485681 104.306587,21.7624917 L104.306587,42.4135363 C104.306587,46.88653 105.763705,48.7068503 109.794385,48.6243387 C109.795838,48.6250625 109.796564,48.6257863 109.797291,48.6265101 L109.797291,51.0779712 L87.9194635,51.0779712 L87.9194635,22.1989343 C87.9194635,16.5990068 86.8742033,13.9738372 82.9510271,13.9738372 C79.3772395,13.9738372 78.3319792,16.685861 78.3319792,22.1989343 L78.3319792,42.4135363 C78.3319792,46.7019648 79.726628,48.5396558 83.3875812,48.6265101 L83.3875812,51.0779712 L56.4541521,51.0779712 L56.4541521,48.6265101 C56.4548785,48.6257863 56.4556049,48.6250625 56.4570576,48.6243387 C60.4884644,48.7068503 61.9455819,46.88653 61.9455819,42.4135363 L61.9455819,25.7766055 C61.9455819,23.41417 61.6840852,22.2763794 59.5049464,20.7882766 L54.0120639,17.0260402 L75.3320315,7.94325738 C76.0511473,7.63709616 76.8501648,8.16328814 76.8501648,8.94208121 L76.8501648,14.1482695 C80.2496213,9.59783077 84.78223,7.32297331 90.4479909,7.32297331 Z M261.960451,10.4878697 C257.159201,10.4878697 255.14158,14.3245352 255.076718,22.3243431 L255.075099,22.7278043 L259.614638,22.7273133 C265.257244,22.716432 267.451881,22.4811682 267.451881,17.98701 C267.451881,12.9871006 265.621404,10.4878697 261.960451,10.4878697 Z"/>
      <g transform="translate(-5.125 28.451)">
        <path fill="#212446" d="M13.1313403,-8.8817842e-15 C20.3835313,-8.8817842e-15 26.2626806,5.87914923 26.2626806,13.1313403 L22.615086,13.1313403 L22.615086,13.1313403 C22.615086,7.89343691 18.3692437,3.64759452 13.1313403,3.64759452 C7.89343691,3.64759452 3.64759452,7.89343691 3.64759452,13.1313403 L4.36983782e-13,13.1313403 C4.36983782e-13,5.87914923 5.87914923,-8.8817842e-15 13.1313403,-8.8817842e-15 Z"/>
        <path fill="#D99938" d="M22.615086,13.1313403 C22.615086,7.89343691 18.3692437,3.64759452 13.1313403,3.64759452 C7.89343691,3.64759452 3.64759452,7.89343691 3.64759452,13.1313403 C3.64759452,18.3692437 7.89343691,22.615086 13.1313403,22.615086 C18.3692437,22.615086 22.615086,18.3692437 22.615086,13.1313403 Z" opacity=".5"/>
        <path fill="#D99938" d="M22.615086,13.1313403 C22.615086,7.89343691 18.3692437,3.64759452 13.1313403,3.64759452 C7.89343691,3.64759452 3.64759452,7.89343691 3.64759452,13.1313403 L22.615086,13.1313403 Z"/>
      </g>
    </g>
    <path fill="#D99938" d="M19.5509172,27.3771516 L19.5509172,32.153226 L-7.28306304e-13,32.153226 L-7.28306304e-13,1.87637841 L5.25671769,1.87637841 L5.25671769,27.3771516 L19.5509172,27.3771516 Z M22.0702199,32.1533741 L22.0702199,10.0214656 L27.2402055,10.0214656 L27.2402055,32.1533741 L22.0702199,32.1533741 Z M24.6774613,6.31134698 C23.721146,6.31134698 22.9398031,6.01968961 22.3311703,5.43711513 C21.7225374,4.85454064 21.4193522,4.10837154 21.4193522,3.19860782 C21.4193522,2.25997447 21.7225374,1.4923382 22.3311703,0.89569902 C22.9398031,0.299059838 23.721146,-4.22772928e-13 24.6774613,-4.22772928e-13 C25.603609,-4.22772928e-13 26.3721306,0.299059838 26.9800093,0.89569902 C27.5886421,1.4923382 27.8925815,2.25997447 27.8925815,3.19860782 C27.8925815,4.10837154 27.5886421,4.85454064 26.9800093,5.43711513 C26.3721306,6.01968961 25.603609,6.31134698 24.6774613,6.31134698 Z M33.3226879,10.0210954 L33.3226879,7.67599255 C33.3226879,5.17469752 33.9743097,3.29817106 35.2775534,2.04715342 C36.5815512,0.796135782 38.3629525,0.170626962 40.6217573,0.170626962 L42.3594155,0.298689714 L42.3594155,4.77644457 C42.1859514,4.71944554 41.8669282,4.69131615 41.4038543,4.69131615 C40.3615611,4.69131615 39.6149111,4.94003918 39.1669211,5.43748525 C38.7166685,5.93419107 38.4926735,6.78029353 38.4926735,7.97431214 L38.4926735,10.0210954 L42.4898907,10.0210954 L42.4898907,14.0724679 L38.4926735,14.0724679 L38.4926735,32.153004 L33.3226879,32.153004 L33.3226879,14.0724679 L29.7168963,14.0724679 L29.7168963,10.0210954 L33.3226879,10.0210954 Z M55.0027643,13.6457155 C53.3804975,13.6457155 52.0335107,14.1150322 50.9625582,15.0529253 C49.8900973,15.9915586 49.2241458,17.2425763 48.9639496,18.8059782 L60.9548469,18.8059782 C60.7225558,17.2425763 60.0860178,15.9915586 59.0429704,15.0529253 C58.0006772,14.1150322 56.6536904,13.6457155 55.0027643,13.6457155 Z M66.0381005,22.5582909 L48.8764633,22.5582909 C49.0793409,24.3215595 49.7309628,25.7213668 50.832083,26.7591933 C51.932449,27.7970197 53.3804975,28.3151927 55.1762284,28.3151927 C56.3640807,28.3151927 57.4357874,28.0316781 58.3921028,27.462428 C59.3476639,26.8939183 60.0279451,26.126282 60.4337003,25.1602595 L65.6474291,25.1602595 C64.9520641,27.4061693 63.6556082,29.2182942 61.7588155,30.5966344 C59.8612686,31.976455 57.6243354,32.6648848 55.0465074,32.6648848 C51.6858282,32.6648848 48.9699831,31.5707996 46.8997263,29.3818888 C44.8287153,27.1929781 43.7932098,24.4214929 43.7932098,21.0659527 C43.7932098,17.7970214 44.8362572,15.0529253 46.9215979,12.8358851 C49.0069385,10.6181047 51.7009121,9.50921455 55.0027643,9.50921455 C58.3046165,9.50921455 60.9767185,10.5973778 63.018316,12.7714836 C65.0606677,14.9470699 66.0818436,17.6830233 66.0818436,20.9808242 L66.0381005,22.5582909 Z" transform="translate(35.867 8.17)"/>
  </g>
</svg>
